<svg xmlns="http://www.w3.org/2000/svg" xmlns:xlink="http://www.w3.org/1999/xlink" width="480" height="108"><style><![CDATA[.B{fill:#28334c}.C{fill:#232c56}]]></style><path fill="#ffaf9f" d="M465.144 86.766l.604 5.8c0 1-.4 1.604-1.2 1.604-.6 0-.8-.8-.8-1.2 0-.6.396-4.196.6-6.196h.8l-.003-.007zm-240 0l.6 5.8c0 1-.4 1.604-1.2 1.604-.6 0-.8-.8-.8-1.2 0-.6.4-4.196.6-6.196h.8v-.007zm-210 0l.6 5.8c0 1-.4 1.604-1.2 1.604-.6 0-.8-.8-.8-1.2 0-.6.4-4.196.6-6.196h.8v-.007zm419.6 6c0 .398-.4.8-.8 1.198h-1c-.2-.4-.2-1-.2-1.4 0-.6.2-1.396.2-2.196.396-1.4-.2-3.2 1.196-3.804l.605 6.2zm-31.2-6.202v5.8c-.6.8-.8 1.4-1.4 1.4-.8 0-.6-1.2-.6-1.4 0-.4.8-3.8 1.2-5.8h.8zm-120 0v5.8c-.6.8-.8 1.4-1.4 1.4-.8 0-.6-1.2-.6-1.4 0-.4.8-3.8 1.2-5.8h.8zm-28.8 6.202c0 .398-.4.8-.8 1.198h-1c-.2-.4-.2-1-.2-1.4 0-.6.2-1.396.2-2.196.396-1.4-.2-3.2 1.2-3.804l.602 6.2zm-58-.202c-.2.8-.6 1.396-1.2 1.396-1 0-.8-1.603-.8-2v-5.396h1l1 6zm-30.4-6c.6 1.8 1.4 5.2 1.4 5.6 0 1.2-.8 1.4-1.2 1.4-.6 0-.8-.4-.8-.8v-6.2h.6zm-120.4 0l1.2 6c0 1-1 1.2-1.2 1.2-.4 0-.6-.2-.8-.4v-6.8h.8zm326.8.4c0 .4-.4 3.6-.602 5.4 0 .4-.398.8-.803 1h-.8c-.2-.2-.2-.6-.2-1 0-.6 1-3.8 1.4-5.6.195-.2.6-.2.8-.4.205.2.205 0 .205.6zm-31.8 5.2c0 .2-.4.8-.8.8h-.803c-.197-.198-.197-.4-.197-1 0-.4 1.197-3.6 1.8-5.4.2 0 .6-.196.8-.196l-.8 5.795zm-28.2-5.2c0 .4-.4 3.6-.602 5.4 0 .4-.398.8-.803 1h-.8c-.2-.2-.2-.6-.2-1 0-.6 1-3.8 1.4-5.6.195-.2.6-.2.8-.4.205.2.205 0 .205.6zm-175.6-.4l1.6 5.396c0 .604-.6 1.397-1.2 1.397-1 0-1-3.197-1-3.397v-3.603c.2.207.6.207.6.207zm-29.2 0c.8 1.6 1.8 4.396 1.8 5 0 .8-.8 1.396-1.2 1.396-1.6 0-1.2-5.396-1.4-6.603.2.007.6.207.8.207zm-31 .4c.6 1.4 1.4 4.6 1.4 5.2 0 1-.8 1.2-1.2 1.2-1.8 0-.8-3.6-1-4.2l.2-2.8c.2.2.6.2.6.6zm383.2 14h-.6c-.4-.6-.4-1.4-.4-1.8 0-4 2.4-9.8 3.604-13.6 0 0 .2 0 .396.2-1 4.6-1.6 10.4-3 15.2zm-84.6-9.8c.6 1.4 3.2 3.602 3.2 4.2v1h-1c-2-1.6-3.8-4.2-3.602-6.2l.197-4.6c.405 1.8.604 3.8 1.205 5.6zm-60 0c.6 1.4 3.2 3.602 3.2 4.2v1h-1c-2-1.6-3.8-4.2-3.602-6.2l.197-4.6c.405 1.8.604 3.8 1.205 5.6zm-95.4 9.8h-.6c-.4-.6-.4-1.4-.4-1.8 0-4 2.4-9.8 3.6-13.6a.62.62 0 0 0 .4.199c-1 4.6-1.6 10.4-3 15.2zm-210 0h-.6c-.4-.6-.4-1.4-.4-1.8 0-4 2.4-9.8 3.6-13.6a.62.62 0 0 0 .4.199c-1 4.6-1.6 10.4-3 15.2zm458.6-9.8c1 1.4 2.8 2.602 4.2 4v.602c-.2.198-.2.198-.804.198-1.196 0-3.6-2.4-4.196-3.4-1-2-1.604-5.6-1.604-6V85.37c.604 1.795 1.205 3.795 2.405 5.795zm-36.4-5.2c0 1.2-3 12-3.8 14.4h-.6c-.2-.4-.4-.8-.4-1.4 0-3.198 3.6-11.6 4.6-13.6 0 .2.2 0 .2.6zm-30.8-.198l-4.6 14c-1-.2-1-.602-1-1.2 0-3 4.6-11.8 5.396-13.196.005.195.205.397.205.397zm-120 0l-4.6 14c-1-.2-1-.602-1-1.2 0-3.6 5-11.6 5.396-13.196.005.195.205.397.205.397zm-29.2.198c0 1.2-3 12-3.8 14.4h-.6c-.2-.4-.4-.8-.4-1.4 0-3.198 3.6-11.6 4.6-13.6 0 .2.2 0 .2.6zm-23.6 5.2c1 1.4 2.8 2.602 4.2 4v.602c-.2.198-.2.198-.8.198-1.2 0-3.6-2.4-4.2-3.4-1-2-1.6-5.6-1.6-6V85.37c.6 1.795 1.2 3.795 2.4 5.795zm-210 0c1 1.4 2.8 2.602 4.2 4v.602c-.2.198-.2.198-.8.198-1.2 0-3.6-2.4-4.2-3.4-1-2-1.6-5.6-1.6-6V85.37c.6 1.795 1.2 3.795 2.4 5.795zm419.6 1c.604 1 3 2 3.4 3.602-.2.198-.2.398-.8.398-1.604 0-3.804-2.8-4.4-4.398-.6-1.802-1-5.397-1-5.802v-.8c.6 2 1.2 4.602 2.8 7zm-28.2 3.2v1h-.8c-3.4-2.4-4.4-5.2-4.4-7.6V85.16c2 9.606 5.2 8.204 5.2 10.204zm-120 0v1h-.8c-3.4-2.4-4.4-5.2-4.4-7.6V85.16c2 9.606 5.2 8.204 5.2 10.204zm-31.8-3.2c.6 1 3 2 3.4 3.602-.2.198-.2.398-.8.398-1.604 0-3.8-2.8-4.4-4.398-.6-1.802-1-5.397-1-5.802v-.8c.6 2 1.2 4.602 2.8 7zm-54.4 3c-.2 0-.2.2-.8.2-1.4 0-4.2-3-4.6-3.8-.8-2-1.2-4-1.6-6 .8 1.6 1.8 3.6 3 5.6 1.2 1 2.6 2 4 3.2v.8zm-10.2-9.398c0 1-1.8 12.8-2.4 15.198-1-.6-1-2-1-2.198 0-3.397 2.4-11 3.2-13.602.2.2.2 0 .2.602zm-139.4 9.198c-.2 0-.4.2-.8.2-1 0-4-2.6-4.4-3.2-1-2-1.4-4.198-2-6.4l2.8 5c1.4 1.4 3 2.4 4.4 3.604v.795zm-10.4-9.4l-1.8 15-.4.396c-1.2-.603-1-1.603-1-2.196 0-3.804 2-10.4 3-13.604.2.204.2.004.2.404zm326.8.202l-5.4 13.198h-.8c0-.198-.2-.4-.2-1 0-1.6 1.8-5.198 2.4-6.198 1.2-2.397 2.6-4.602 3.8-6.802 0 .2 0 .6.2.802zm-23.4 10.598c-.2.2-.2.2-.6.2-1.8 0-3.602-4.8-3.602-5.2 0-4.6.197-5.4.197-6.4.4 1.802.604 3.802 1 5.802.2 1.603 2 3.198 3 4.8l.005.8zm-36.6-10.598l-5.4 13.198h-.8c0-.198-.2-.4-.2-1 0-1.6 1.8-5.198 2.4-6.198 1.2-2.397 2.6-4.602 3.8-6.802 0 .2 0 .6.2.802zm-135.6 8.798h-1.6c-4.8-2-5-6.4-6-9.4 1 1.4 1.8 3.2 2.8 4.8 1.6 1.6 3.4 2.6 4.8 4v.6zm-12.2 6s0 .2-.4.2c-.6 0-.6-.2-.8-.604v-4.396c.8-3.604 1.6-7.4 2.6-10.804l-1.4 15.605zm170.8-2.4h-.8c0-.2-.2-.398-.2-.8 0-3 5.8-11 7-12.6-1.2 4.003-3.8 9.2-6 13.4zm-199.2-1c-.2 1-.2 2.2-.2 3.2-.2.2 0 .2-.6.2s-.8-1.604-.8-1.604v-3.603l2-10.6-.4 12.407zm-48.8-3h-1.4c-4.4-1.6-5.8-6.2-6.4-9.2 1 1.4 2 3.2 3.2 5 1.4 1.2 3 2.2 4.6 3.4v.8zm-11.2-1.6c-.8 3.396 0 8.2-1.2 8.2-.8 0-.8-1.2-.8-1.2v-4.4l2-10.398v7.798zm31 7.6c0 .2.2.2-.4.2-1 0-1-2-1-2.2v-3.398l1.4-10.397v15.795zm37-9.6c1 .8 2.6 1.6 3.6 2.6v.602c-.2 0-.4.198-1 .198-1.2 0-4.6-2.8-4.8-3.4-1-1.8-2.2-5.396-2.2-5.8v-.602c1 2 2 4.602 4.4 6.4zm-29.8-1c1.2 1.2 3 1.8 4.4 2.8v.6c-.2.2-.4.2-.8.2-.6 0-1-.398-1.6-.6-4.2-1.4-5.2-6.2-6-8.8 1 1.8 2.2 4.003 4 5.8z"/><g fill="#f2491c"><path d="M441.544 95.364v.6s0 .2-.4.2c-1.396 0-3.196-2-4.196-3.6s-1.2-4.604-1.2-5v-1.8c.595 3.003 2.395 6.8 5.795 9.6zm-180 0v.6s0 .2-.4.2c-1.396 0-3.2-2-4.2-3.6s-1.195-4.604-1.195-5v-1.8a17.09 17.09 0 0 0 5.795 9.601zm207.4-3.8c1 1.396 3.396 2 4 4.2-.2 0-.4.196-.804.196-1 0-4.396-3.603-4.6-4.396-.6-1.8-1.2-5-1.2-5.4v-.6c.805 2 1.405 4 2.604 6zm-240 0c1 1.396 3.4 2 4 4.2-.2 0-.4.196-.8.196-1 0-4.4-3.603-4.6-4.396-.6-1.8-1.2-5-1.2-5.4v-.6c.8 2 1.4 4 2.6 6zm-210 0c1 1.396 3.4 2 4 4.2-.2 0-.4.196-.8.196-1 0-4.4-3.603-4.6-4.396-.6-1.8-1.2-5-1.2-5.4v-.6c.8 2 1.4 4 2.6 6zm391.2 3.8v.8s0 .2-.396.2c-1.2 0-4-3.8-4.2-4.4-.397-1.198-.604-3.6-.604-4v-2.8c.8 3.4.998 6.602 5.2 10.2zm-120 0v.8s0 .2-.396.2c-1.2 0-4-3.8-4.2-4.4-.397-1.198-.604-3.6-.604-4v-2.8c.8 3.4.998 6.602 5.2 10.2zm88-.8c.2 0 .604.396.604 1v.8h-1c-2.2-1.8-3.604-4.4-3.604-6.4v-5c.798 3.2 0 6.4 4 9.6zm-60 0c.2 0 .604.396.604 1v.8h-1c-2.2-1.8-3.604-4.4-3.604-6.4v-5c.798 3.2 0 6.4 4 9.6zm26.4-3c.6 1.2 2.6 2.8 2.8 4.8-.2.2 0 .2-.6.2-1.602 0-3.4-4.2-3.4-4.4-.2-.8-.2-2-.2-2.6 0-.4.2-3.2.4-4.8.2 1.8 0 4.8 1 6.8zm123.4-6c2.6 2.396 7.6 8.8 7.6 11.8 0 1.2-.4 1.4-1 1.4-2.2 0-5.8-3.4-7.6-3.4-.604.6-1 1.4-1.4 2.2-.6 1.2-1.4 8.8-5.8 8.8-1.604 0-2.4-3.6-2.4-4.2 0-6.2 2.4-12.8 4.604-18.8.396.6 1 1.4 1 2 0 0-4 11.8-4 13.8 0 .8-.2 1.2.8 2 .2 0 .6-.398.6-.6.604-2 1.2-4.2 1.4-6.2l.6-3.6c.4-1.604.604-3.2.803-4.804 1 .804 1 .604 1 1.604 0 .396-.398 4.2-.398 4.8 0 1-.2 2 .8 2 1.2 0 1.4-1.6 1.4-1.8 0-.4-.8-5.2-.8-5.8 0-.4.602-.804 1-1.4.197-.6.397-1.4.8-2.2.19.8.39 1.8 1 2.4zm-240 0c2.6 2.396 7.6 8.8 7.6 11.8 0 1.2-.4 1.4-1 1.4-2.2 0-5.8-3.4-7.6-3.4-.6.6-1 1.4-1.4 2.2-.6 1.2-1.4 8.8-5.8 8.8-1.6 0-2.4-3.6-2.4-4.2 0-6.2 2.4-12.8 4.6-18.8.2.6 1 1.4 1 2 0 0-4 11.8-4 13.8 0 .8-.2 1.2.8 2 .2 0 .6-.398.6-.6.6-2 1.2-4.2 1.4-6.2l.6-3.6c.4-1.604.6-3.2.8-4.804 1 .804 1 .604 1 1.604 0 .396-.4 4.2-.4 4.8 0 1-.2 2 .8 2 1.2 0 1.4-1.6 1.4-1.8 0-.4-.8-5.2-.8-5.8 0-.4.6-.804 1-1.4.2-.6.4-1.4.8-2.2.2.8.4 1.8 1 2.4zm-210 0c2.6 2.396 7.6 8.8 7.6 11.8 0 1.2-.4 1.4-1 1.4-2.2 0-5.8-3.4-7.6-3.4-.6.6-1 1.4-1.4 2.2-.6 1.2-1.4 8.8-5.8 8.8-1.6 0-2.4-3.6-2.4-4.2 0-6.2 2.4-12.8 4.6-18.8.4.6 1 1.4 1 2 0 0-4 11.8-4 13.8 0 .8-.2 1.2.8 2 .2 0 .6-.398.6-.6.6-2 1.2-4.2 1.4-6.2l.6-3.6c.4-1.604.6-3.2.8-4.804 1 .804 1 .604 1 1.604 0 .396-.4 4.2-.4 4.8 0 1-.2 2 .8 2 1.2 0 1.4-1.6 1.4-1.8 0-.4-.8-5.2-.8-5.8 0-.4.6-.804 1-1.4.2-.6.4-1.4.8-2.2.2.8.4 1.8 1 2.4zm419.2-.2c.804 1.2 2.2 2.4 3.2 4 .8 1 3.8 6.4 3.8 8.4 0 1-.196 1.196-1.196 1.196-2.4 0-5-3.603-7-3.603-3 0-2.804 10.4-8 10.4-1.604 0-2.4-3-2.4-3.802 0-.6.4-2.6.603-3.8.397-5.2 3.397-10 5.197-15 .4.602.803 1.602.803 2 0 .2-4.803 11-4.803 14 0 .4.4 1 .803 1.4.197 0 .397 0 .397-.2 1.603-4.8 2.8-9.603 4-14.4.2.4.603.6.8 1.2l-.8 5.602c0 .6.4 1.398.8 1.398 1.604 0 1.4-2 1.4-2.398 0-.602-.4-4.602-.4-5 0-.602.803-1.2 1.2-1.4.2-.8.4-1.6.8-2.397.195.807.395 1.605.795 2.405zm-180 0c.8 1.2 2.2 2.4 3.2 4 1 1.4 3.8 6.2 3.8 8.4 0 1-.2 1.196-1.2 1.196-2.396 0-5-3.603-7-3.603-3 0-2.8 10.4-8 10.4-1.6 0-2.396-3-2.396-3.802 0-.6.396-2.6.603-3.8.397-5.2 3.397-10 5.2-15 .396.602.8 1.602.8 2 0 .2-4.8 11-4.8 14 0 .4.396 1 .8 1.4.2 0 .397 0 .397-.2 1.603-4.8 2.804-9.603 4-14.4.2.4.603.6.804 1.2l-.804 5.602c0 .6.396 1.398.804 1.398 1.6 0 1.396-2 1.396-2.398 0-.602-.396-4.602-.396-5 0-.602.8-1.2 1.196-1.4.2-.8.396-1.6.804-2.397.192.807.392 1.605.793 2.405zm144.2-.4c0 .2-5.4 10.6-5.4 13.4 0 .2-.195 1 .604 1.6.2 0 .396-.198.396-.4 2-4.396 3-9.196 4.604-13.6.396.4 1 .4 1 .802 0 .603-1.196 5.198-1.196 5.8 0 1 .196 1.2.8 1.2s1-.397 1.397-.802c.2-5.4 0-6.198 0-6.6 0-.6 1-1 1.2-1.4.396-.6.604-1.4 1-2.198.195.8.195 1.8.8 2.8s1.802 2.2 2.396 3.2c.805.8 3.805 7.198 3.805 9.198 0 1.2-.805 1.4-1.2 1.4-2.397 0-5-4.2-7-4.2-1.198 0-1.8 1.2-2.198 2.4-1.2 2.396-3 8.2-7 7.396-.802-.396-1.398-3.196-1.398-3.8 0-5 4.8-14.2 6.8-18.396.39.6.6 1.6.6 2.2zm-120 0c0 .2-5.4 10.6-5.4 13.4 0 .2-.195 1 .604 1.6.2 0 .396-.198.396-.4 2-4.396 3-9.196 4.604-13.6.396.4 1 .4 1 .802 0 .603-1.196 5.198-1.196 5.8 0 1 .196 1.2.8 1.2s1-.397 1.397-.802c.2-5.4 0-6.198 0-6.6 0-.6 1-1 1.2-1.4.396-.6.604-1.4 1-2.198.195.8.195 1.8.8 2.8s1.802 2.2 2.396 3.2c.805.8 3.805 7.198 3.805 9.198 0 1.2-.805 1.4-1.2 1.4-2.397 0-5-4.2-7-4.2-1.198 0-1.8 1.2-2.198 2.4-1.2 2.396-3 8.2-7 7.396-.802-.396-1.398-3.196-1.398-3.8 0-5 4.8-14.2 6.8-18.396.39.6.6 1.6.6 2.2zm-82.8.2c1 1 2.6 2.2 3.8 3.8 1.8 2.2 4.4 5.6 4.4 7.802 0 1.198-.8 1.198-1.2 1.198-2 0-5.8-3-7.6-3-1 1.4-1.6 2.802-1.8 4.2-.4 2.2-2 7.602-5.6 7-1.6-1.8-1.8-3-1.8-4.398 0-8.2 1-8.602 3.8-18.802.4.6 1 1.6 1 2 0 .6-.6 1.6-.8 2.4-.8 2.8-2.6 8.2-2.6 11.6 0 .4.4 1.802 1 2.2 1-.8.8-3.2 1.2-4.2.2-.8.4-1.6.4-2.4l.6-4.8c.2-1.2.4-2.602.6-4 .6.603 1 .603 1 1.198 0 .6-.4 5-.4 5.4 0 .8.2 1.8 1 1.8.6 0 1.4-1 1.4-1.6 0-.4-1-5-1-5.604 0-.396.6-1 .8-1.396.4 1.8.8 3.6 1.4 5.396.2.804 3.8 4.397 4.4 4.397h1.4c.2-.197.2 0 .2-.6 0-1.4-2-2-3-2.802-.4-.198-1-.6-1.2-1s-3-5.6-3-6.6c0-.603.2-1.2.4-1.8.4.81.6 1.81 1.2 2.61zm172-1.6c0 2.396-6.2 11.2-6.2 14.2 0 .6.2 1 .6 1.396.2 0 .604-.396.604-.604 2-4.2 3.603-8.6 5.2-12.8.195.398 1 .6 1 1 0 .6-1.604 5.198-1.604 5.6 0 .603.2 1.2.8 1.2 1 0 2-2.2 1.604-3 0-.8.2-1.8.2-2.8 0-1.602 1.604-3.802 2.396-5 .2 1 .4 2 .8 3 .604 1.198 1.805 2.398 2.4 3.8 1 1.8 2.8 6.4 2.8 8.4 0 1.4-.396 1.6-1.2 1.6-2.396 0-5.195-4.6-7-4.6-2.8 0-3.396 9.2-8.6 9.2-2.2 0-2.2-3.2-2.2-3.8 0-.4.4-1.8.604-2.603 1-5.196 4.8-10.397 7.602-15.603.195.417.195 1.017.195 1.417zm-60 0c0 2.396-6.2 11.2-6.2 14.2 0 .6.2 1 .6 1.396.2 0 .604-.396.604-.604 2-4.2 3.603-8.6 5.2-12.8.195.398 1 .6 1 1 0 .6-1.604 5.198-1.604 5.6 0 .603.2 1.2.8 1.2 1 0 2-2.2 1.604-3 0-.8.2-1.8.2-2.8 0-1.602 1.604-3.802 2.396-5 .2 1 .4 2 .8 3 .604 1.198 1.805 2.398 2.4 3.8 1.2 2.4 2.8 6 2.8 8.4 0 1.4-.396 1.6-1.2 1.6-2.396 0-5.195-4.6-7-4.6-2.8 0-3.396 9.2-8.6 9.2-2.2 0-2.2-3.2-2.2-3.8 0-.4.4-1.8.604-2.603 1-5.196 4.8-10.397 7.602-15.603.195.417.195 1.017.195 1.417zm-141.6.8c1.4 1.4 3.2 2.8 4.6 4.4 1.4 1.396 4.4 5.396 4.4 7.396 0 1-.8 1-1.2 1-2.4 0-5.8-3-7.8-2.604-1.8 3-1.4 6-2.8 9-.6 1.4-2.6 2.4-3.4 2.4-1.4 0-2.6-2.8-2.6-3.198v-5.2c0-5 2-10 3-15 .2.604 1 1.604 1 2 0 0-2.6 11.8-2.6 13.604 0 .197-.2 2.396.8 2.8 1.4-1.196.8-3.603 1.4-5.196 0-.804.2-1.604.2-2.4l.6-8 1 1v5.8c.4.8.4 1.602 1 1.602s1.4-1 1.4-1.397c0-.603-1.2-5-1.2-5.4 0-.6.6-1 .8-1.6.2.6.4 1.397.4 2 .2 1.196.8 2.6 1.6 4 .8 1.196 3.6 3.397 4.6 3.397.6 0 .8-.2 1.2-.602-.6-1.6-3.2-2.2-4-3.398-1.6-1.802-2.6-4-3.8-6l.2-2.802c.4.802.6 1.6 1.2 2.4zm-120.2.6c1.2 1.2 3 2.802 4.4 4.4 1.6 1.4 4 5.6 4 7.2 0 1.2-.8 1.2-1.2 1.2s-5-2-7.6-3c-1 1-1.6 3.196-1.8 4.396s-.4 3-1.4 4.604c-.8 1.196-2.4 2.396-3.4 2.396s-2.4-2.2-2.4-3v-5.2c0-5.196 2.2-10.196 3.4-15.196.2.6 1 1.6 1 2 0 .6-3.2 11.396-3.2 14 0 .396.2 1.396.8 2.196h.6c1.2-5 1.4-10.396 2.2-15.396.2.2.8.396.8 1 .4 1.2 0 3.6 0 4.2 0 .396-.4 3.196 1 3.196.8 0 1.2-1.196 1.2-1.603 0-.6-1-5-1-5.397 0-.603.6-1 .8-1.396a38.12 38.12 0 0 0 1.8 5.799c.2.4 3.6 3.8 4.2 3.8h1.4c0-.2.2-.2.2-.6 0-1.4-3.8-3-4.2-3.604-1.4-2-2.2-4-3.2-6l.2-3c.4 1.006.6 2.006 1.4 3.006zm284 12.2c0 .4.2.8.398 1.2.197 0 .602-.2.8-.6 2.2-4 4-8 5.8-12 .398.396 1 .396 1 1 0 .396-1.8 4.8-1.8 5.196 0 .604.2 1.2.8 1.2 1 0 1.398-1.803 1.6-2.396.2-.4.2-1 .2-1.4.2-.4.2-1 .2-1.4.2-.4.2-1 .2-1.4l2.6-3.8c.2 1 .2 2 .6 3 .8 1.398 1.8 2.8 2.4 4.398.6 1.2 2 5.8 2 7.8 0 .802-.2 1.802-1.2 1.802-2.4 0-5.2-5.2-6.8-5.2s-4.4 8.804-9.2 8.804c-2.2 0-2-3-2-3.804 0-.6.8-2.396 1-3.196 1.2-4.804 5.8-10.603 9-15 0 4.795-7.6 11.595-7.6 15.795zm-253.4-13c.6.8 1.8 1.4 2.8 2.2 2.4 2 4 4.4 5.4 6.6.6.6 1.2 2.2 1.2 2.6 0 1.2-1.2 1-1.6 1-1.8 0-6.4-2.396-7-2.396-1.4 0-2 4.604-2 4.8-.2 1.4-.4 2.804-1 4.2-.4 1-2.4 2.8-3.4 2.8s-2.6-2.396-2.6-3v-9.8l2.4-10.8c.2.6 1 1.6 1 2.196 0 1.604-2.2 9.804-2.2 13 0 .4.2 2.4.8 3.2h.6c.6-2.802.4-6 1-8.802l.2-6.8c1.4.8 1 1.4 1 1.8 0 .6 0 1 .2 4.802 0 .398-.2 1.8 1.2 1.8.6 0 1.2-1.196 1.2-1.6 0-.4-1.4-4.8-1.4-5.198 0-.602.6-1 .8-1.602.6 2 1 4 2.2 6 .6.8 3.4 3.2 4.8 3.2.4 0 .6-.2 1-.4-.2-1.6-2-2.198-3-2.8-2.6-1.6-3.8-5-5.2-7l.2-2.8c.4.8.6 1.8 1.4 2.8zm63.4 2.2c1.2.8 6.4 7.2 6.4 9 0 .8-.8 1-1.2 1-2.2 0-6.4-2.8-8-2.2-.4 1.2-1 2.602-1.2 4 0 0-.6 7.8-4.4 7.8-2 0-2.8-4-2.8-4.4V93.17l2.2-11c.4.8.8 1.604 1 2.396l-2 13c-.2.604-.2 3.2 1.4 3.2.4-1.397.6-3 .8-4.397l.4-11c.2.196.6.397.8 1 .6 1.196-.4 7.196 1.4 7.196.6 0 1.4-1.196 1.4-1.6 0-.6-1.4-4.6-1.4-5 0-.6.4-1.4.6-2 .6 1.802 1 3.802 2.2 5.802.8 1.198 3.6 3.398 5 3.398.4 0 .6-.2 1-.6-1-2.2-3-2-4.4-3.604-2-2-4.4-5.603-4.2-7.8l.2-1.2c.4 1.806 2.8 4.204 4.8 5.404zm-28.8-.2c1.8 1.4 4 4.2 5.2 6 .2.4 1 1 1 1.602v1.603h-2.8c-1.8-.804-4.6-2-6.2-1.804-.6 1.4-1 3-1.2 4.604 0 .396-.2 7.396-4 7.396-3.2 0-3.2-6.6-3.2-7.396 0-.604 0-3.396-.2-3.8l1.8-12.4c.4.604 1.2 1.604 1.2 2.2 0 .396-1.6 11.8-1.6 12.396 0 1-.2 2.604.8 4h.8c.8-1.6.6-3.8.6-5.396 0-.396-.4-9-.2-10.2.4.4.8.604 1 1.2.4.604.2 7 1.6 7 .6 0 1.4-1.2 1.4-1.604 0-.6-1.8-4.6-1.8-5s.6-.6.4-1.8c0 0 0-.2.2-.397 0 2.397 3.8 9 7.6 9 .4 0 1-.4 1-.804 0-1.6-3.6-2.396-4-2.8-2.4-2-4-5-5.2-7.397l.2-2c.2 1.995 3.8 4.595 5.6 5.795z"/><path d="M466.8 5c5.2 8.2 7.4 17.6 7.4 26l-.2 7c-.6 6.6-1.2 13.2-2.8 19.8-1.2 5-2.6 10.2-3.6 15.6-.6 3.4-.8 7.4-1.4 11.202-.2 1.398-1.2 2-2.2 2-1.2 0-2-3.2-2-3.397 0-.603-.6-1.804-.6-2.603 0-12.802-6.8-26.602-7.8-39.2 0-1.4-.396-4.2-.396-4.6V23.4c.396-6 1.6-12 5.396-18-1-1-2.196-2.4-2.6-3.4v-.6c.8 1 2.6 3.2 3.2 3.2.396 0 1.8-1.4 2.8-1.6h.8c1.2 0 1.604.6 3.4 1.4 1-1 2.2-2.2 3-3.2C469 2 468 4 466.8 5zm-37.6-.4c1.8-1 2.6-1.6 3.6-1.6 1.4 0 2.4 1.2 3.2 1.2.4 0 2.2-2 2.8-3 0 2-2 3.2-2 3.8s2.2 3.4 3 5.4c3 6.6 4.4 13.6 4.4 20.4 0 .4-.2 1.8-.2 6.4-.4 15.4-6 30.8-8.2 46.4 0 .6-.6 1.8-1.6 2.6-.2.2-.2.2-.8.2-2 0-2.2-3.8-2.2-4.604V77.6c-.8-12.2-6.6-24.4-7.6-36.6 0-1.6-.396-4.6-.396-5V24.2c.2-1.2.2-2.6.396-3.8.2-1.6.4-3.4.804-4.8.396-2.2 1.196-4.8 2.196-6.8.4-1.2 2-3 2-3.4 0-.6-2.396-3.2-2.396-3.6v-.6C427 2.2 428 3.4 429.2 4.6zm-180 0c1.8-1 2.6-1.6 3.6-1.6 1.4 0 2.4 1.2 3.2 1.2.4 0 2.2-2 2.8-3 0 2-2 3.2-2 3.8s2.2 3.4 3 5.4c3 6.6 4.4 13.6 4.4 20.4 0 .4-.2 1.8-.2 6.4-.398 15.4-6 30.8-8.2 46.4 0 .6-.6 1.8-1.6 2.6-.2.2-.2.2-.8.2-2 0-2.2-3.8-2.2-4.604V77.6c-.6-11.8-6.8-24.8-7.6-36.6 0-1.6-.4-4.6-.4-5V24.2c.2-1.2.2-2.6.4-3.8.196-1.6.396-3.4.8-4.8.396-2.2 1.2-4.8 2.2-6.8.396-1.2 2-3 2-3.4 0-.6-2.4-3.2-2.4-3.6v-.6c.8 1 1.8 2.2 3 3.4zm-22.4.4c5.2 8.2 7.4 17.6 7.4 26l-.2 7c-.6 6.6-1.2 13.2-2.8 19.8l-2 8c-.8 3-1.6 6.6-2 10-.4 3 0 6.802-1.4 9.802-.2.603-1.4 1-1.8 1-.6 0-2-2.397-2.2-3.2-.2-.8-.4-1.8-.4-2.8-.4-9.2-3-18.802-5.8-28-.2-.4-2.4-13.6-2.4-15.8V23.4c.4-6 1.6-12 5.4-18-1-1-2.2-2.4-2.6-3.4v-.6c.8 1 2.6 3.2 3.2 3.2.4 0 1.8-1.4 2.8-1.6h.8c1.2 0 2 .2 3.4 1.4 1-1 2.2-2.2 3-3.2C229 2 228 4 226.8 5zm-37.6-.4c1.8-1 2.6-1.6 3.6-1.6 1.4 0 2.4 1.2 3.2 1.2.4 0 2.2-2 2.8-3 0 2-2 3.2-2 3.8s2.4 3.4 3 5.4c3 7.6 4.4 13.4 4.4 20.6 0 .4 0 1.8-.2 6.6-.2 2.6-.6 5.2-.8 7.8-.4 3.2-.8 7-1.6 10.6-1.2 5.602-4.6 16.602-4.6 23.8v4.4c-1 1.4-.4 2.2-1.8 2.2-3 0-3.4-7.8-3.4-7.8-1-13.2-8-26.4-8.4-39.604 0-1-.2-2.6-.2-3V24.2c.2-1.2.2-2.6.4-3.8.2-1.6.4-3.4.8-4.8.4-2 1.2-4.4 2-6.4.4-1.4 2.2-3.4 2.2-3.8 0-.6-2.4-3.2-2.4-3.6v-.6c.8 1 1.8 2.2 3 3.4zM16.8 5c5.4 7.8 7.4 17.6 7.4 25.6l-.2 7.2c-.6 5.4-1 11.4-2.2 17.2-.6 3.8-1.8 7.8-2.8 11.602-.6 2.8-1.4 6-1.8 9-.4 1.798-.6 4.198-.6 6.198 0 1-.2 4.802-2.6 4.802-1.2 0-2-3.2-2-3.397 0-.603-.6-1.804-.6-2.603-.2-12.2-6-25.397-7.6-37.397l-.6-6.4V23.4c.4-6 1.6-12 5.4-18C7.6 4.4 6.4 3 6 2v-.6c.8 1 2.6 3.2 3.2 3.2.4 0 1.8-1.4 2.8-1.6h.8c1.2 0 2 .2 3.4 1.4 1-1 2.2-2.2 3-3.2C19 2 18 4 16.8 5zm30 0c0 .4 1.8 2.8 2.6 4.6C50.6 12 54 22.6 54 26v10.8c-.2 3.4-.6 6.8-1 10.2-.2 2-.6 4.6-1 6.8-1.8 8.8-4.8 18.2-5 27.4 0 .2.4 5.2-1.4 5.2-.6 0-.4 0-.6-.2-.8-.4-1.6-1.4-2-2.2-.8-2.2-1-4.6-1.2-6.8-1.2-9.2-5.2-19.4-7-28.4 0-.4-1.6-11.4-1.6-13.8v-9.6c.2-1.4.2-3 .4-4.6s.4-3.6.8-5.2c.4-2 1.2-4.4 2-6.4.4-1.4 2.2-3.4 2.2-3.8 0-.2-2.4-2.6-2.2-4.2.6 1 1.6 2.2 2.8 3.4C41 3.6 41.8 3 42.8 3c1.2 0 2 .2 3.2 1.4 1-1 2-2.2 2.8-3.4 0 2-2 3.2-2 4zM403 3c1.2 0 2.2 1.2 3 1.2.4 0 2-2.2 2.602-3.4 0 1.4-1 2.8-2 4.2C408.4 7 409 8.8 410 11c.602 1.2 4 12.2 4 15.2V37c-.2 3.6-.6 7-1 10.4-.398 3.2-.8 6.4-1.6 9.6l-5.8 25c-.2 1-1.2 5-3.604 4.4-1-1.2-1.604-3.4-1-4.4v-4.398c-.604-5-1.396-10.602-2.8-15.802-1.4-5.4-4.803-17-4.803-24V22.6c.2-1 .4-2.2.4-3.2.4-3.2 1.2-6.6 2.4-9.6.397-1.4 2.397-4 2.397-4.4 0-.6-1.196-1.4-1.6-2.2-.4-.6-.4-1.4-.604-2.4.604 1 1.604 2.4 2.8 3.8C400.4 3.8 402 3 403 3zm-30.2 0c1.2 0 2 .6 3.2 1.2.8-1 1.602-2.2 2.2-3.2 0 0 .2-.2.2.4 0 .4-1.8 3-1.8 3.6 0 .4.8.8 1 1.4.8 1 1.6 2.6 2 3.8 3.197 7.6 4.397 14.2 4.397 21.4l-.2 7.8c-.396 4-1 8-1.396 12-.604 5-2.604 11.2-3.604 16.4 0 0-3 18.602-7.396 18.602-.604 0-1.2-2.397-1.2-2.602 0-.6.4-1.8.4-8-.2-6.6-2.4-13.398-4.2-20.2-1.2-4.8-3-12.6-3-18V23.2c.2-1 .2-2.2.396-3.4.2-1.6.4-3.4.805-4.8.4-2.2 1.2-4.8 2.4-7 .4-1 1.602-2.2 1.602-2.6 0-.6-1.602-3-2-4.4.8 1 1.8 2.4 2.8 3.6 1-1.4 2.4-1.6 3.4-1.6zm-60 0c1.2 0 2 .6 3.2 1.2.8-1 1.602-2.2 2.2-3.2 0 0 .2-.2.2.4 0 .4-1.8 3-1.8 3.6 0 .4.8.8 1 1.4.8 1 1.6 2.6 2 3.8 3.197 7.6 4.397 14.2 4.397 21.4l-.2 7.8c-.396 4-1 8-1.396 12-.604 5-2.604 11.2-3.604 16.4 0 0-3 18.602-7.396 18.602-.604 0-1.2-2.397-1.2-2.602 0-.6.4-1.8.4-8-.2-6.398-2.2-13.2-4-19.6-1-3.4-3.2-13.6-3.2-18.6V23.2c.2-1 .2-2.2.396-3.4.2-1.6.4-3.4.805-4.8.4-2.2 1.2-4.8 2.4-7 .4-1 1.602-2.2 1.602-2.6 0-.6-1.602-3-2-4.4.8 1 1.8 2.4 2.8 3.6 1-1.4 2.4-1.6 3.4-1.6zM283 3c1.2 0 2.2 1.2 3 1.2.4 0 2-2.2 2.602-3.4 0 1.4-1 2.8-2 4.2C288.4 7 289 8.8 290 11c.602 1.2 4 12.2 4 15.2V37c-.2 3.6-.6 7-1 10.4-.398 3.2-.8 6.4-1.6 9.6l-5.8 25c-.2 1-1.2 5-3.604 4.4-1-1.2-1.604-3.4-1-4.4v-4.398c-.396-5.397-1.396-11.2-3-16.602-1.396-4.8-4.604-17.4-4.604-23.2V22.6c.2-1 .4-2.2.4-3.2.4-3.2 1.2-6.6 2.4-9.6.397-1.4 2.397-4 2.397-4.4 0-.6-1.196-1.4-1.6-2.2-.4-.6-.4-1.4-.604-2.4.604 1 1.604 2.4 2.8 3.8C280.4 3.8 282 3 283 3zM162.8 3c1.2 0 2 .6 3.2 1.4 1-1.2 2-2.4 2.6-3.6 0 1.4-1 2.8-2 4.2 5.8 8.6 7.4 17.8 7.4 26.6 0 10.4-1.4 21-4.2 31.8-.6 2-1 4.6-1.4 6.8-.6 2.4-1 5.2-1 8.2-.4 6 0 6.2 0 6.8 0 .4-.4 1.2-1 1.2-1.4 0-3-1.604-3.2-3.2-1.6-10-4.8-21-7.6-30.8-.2-.8-2.2-11.6-2.2-14V22.6c.2-1 .4-2.2.4-3.2.4-3.2 1.2-6.6 2.4-9.6.4-1.4 2.4-4 2.4-4.4 0-.6-1.2-1.4-1.6-2.2-.4-.6-.4-1.4-.6-2.4.6 1 1.6 2.4 2.8 3.8C160.4 4 162 3 162.8 3zM133 3c1 0 1.8.6 3 1.2.8-1 1.6-2.2 2.2-3.2 0 0 .2-.2.2.4 0 .4-1.8 3-1.8 3.6 0 .4.8 1 1 1.4 1 1.2 1.8 2.6 2.2 4.2 3.8 10.2 4.2 12.6 4.2 21l-.2 8c-.2 1.8-.6 3.6-.6 5.4-.6 11.2-5.6 23.2-5.6 34.602 0 .398.4 4.398.4 5 0 .198 0 1.8-.8 1.8-1.8 0-2.8-2-3.4-3.6-1.4-3.6-1.6-7.4-2.6-10.8-2-7.6-4.8-15.398-6.4-23-.8-3.8-1.4-11.2-1.4-11.6v-14c.2-1.2.2-2.4.4-3.6.2-1.8.4-4 1-5.6.4-1.6.8-3.4 1.6-4.8.4-1.2 2.2-3.6 2.2-4 0-.6-1.6-3-2-4.4.8 1 1.8 2.4 2.8 3.6.6-1 2.6-1.6 3.6-1.6zM69.4 4.6C70 3.6 72 3 73 3c1.2 0 2.2 1.2 2.8 1.2s2-2.2 2.6-3.4c0 1.4-1 2.8-1.8 4.2.6.6 1.2 1.4 1.4 2 4.4 8.4 6 16.6 6 24.6l-.2 8.2c-.6 8.4-2.4 17-4.4 25.6-1 3.803-1.8 8.2-1.8 12.2-.2 5 .2 6 .2 6.4s.2 2.4-.8 2.4c-1.8 0-2.6-1.604-3.4-3.4-1-2.6-1-5.6-1.8-8.2-2.2-8.6-5-17.2-7-25.8-.8-3.4-1.4-10.2-1.4-10.6V22.6c.2-1 .4-2.2.4-3.2.4-3.8 1.4-7.8 3.2-11.4.4-1 1.6-2.2 1.6-2.6 0-.6-2-3.4-2-3.8v-1c0 1 1.6 2.6 2.8 4zm270 0c1-1.4 2.396-1.6 3.396-1.6 1.2 0 1.4 0 3 1.2 1-1.2 1.804-2.4 2.2-3.6 0 0 .2-.2.2.4 0 1.2-1.602 3-1.602 3.8 0 .6 2 3 2.602 4.6C353 19 354 23 354 31.6l-.2 7-1.4 12.8c-.6 5.2-2.396 11-3.6 16.6-.198.8-3.6 18.4-8.4 18.4-.6 0-.8-2.4-.8-2.4 0-.398.398-2.6.8-4v-4.8c-.8-14-7-25.6-7-38.6V24.2c.2-1.2.2-2.6.4-4 .2-1 .4-2 .4-3 .4-2 .8-4.4 1.6-6.2.6-2 2.802-5.2 2.802-5.8 0-.4-1.602-2.8-1.602-3.2V.4c.602 1.4 1.4 2.8 2.4 4.2zm-240 0C100 3.6 102 3 103 3c.8 0 1.2 0 2.8 1.2 1-1.2 1.8-2.4 2.2-3.6 0 0 .2-.2.2.4 0 1.2-1.6 3-1.6 3.8 0 .6 2.2 3.4 3 5.4 3.4 7.6 4.4 14 4.4 21.6l-.2 7c-.6 5.4-1.2 11.4-2.2 17.2-.4 2.4-1.4 5-1.8 7.602C109 68.2 108 73.8 108 78.8c0 .6.2 4 .2 4.6 0 .4.4 1 .4 1.604 0 .396-.2 1-.4 1.396-2.4-.196-4-4.396-4.4-5.8-3.2-11.397-7.4-22.802-9.4-34.2-.6-3.2-1-9.4-1-9.8V24.2c.2-1.2.2-2.6.4-4 .2-1 .4-2.2.4-3.2.6-2.2 1-4.6 1.8-6.6.6-1.8 2.6-4.6 2.6-5.2 0-.4-1.6-2.8-1.6-3.2V.4c.6 1.4 1.4 2.8 2.4 4.2z"/></g><g class="C"><use xlink:href="#B"/><use xlink:href="#C"/><use xlink:href="#D"/><use xlink:href="#E"/><use xlink:href="#F"/><use xlink:href="#G"/><use xlink:href="#H"/></g><defs><path id="A" d="M16.8 5c5.4 7.8 7.4 17.6 7.4 25.6l-.2 7.2c-.6 5.4-1 11.4-2.2 17.2-.6 3.8-1.8 7.8-2.8 11.602-.6 2.8-1.4 6-1.8 9-.4 1.798-.6 4.198-.6 6.198 0 1-.2 4.802-2.6 4.802-1.2 0-2-3.2-2-3.397 0-.603-.6-1.804-.6-2.603-.2-12.2-6-25.397-7.6-37.397l-.6-6.4V23.4c.4-6 1.6-12 5.4-18C7.6 4.4 6.4 3 6 2v-.6c.8 1 2.6 3.2 3.2 3.2.4 0 1.8-1.4 2.8-1.6h.8c1.2 0 2 .2 3.4 1.4 1-1 2.2-2.2 3-3.2C19 2 18 4 16.8 5z"/><path id="B" d="M13.665 14.792s-.334.417-.667.75-1 1.083-.833 1.333.974.833.737 1.083-.18.583 0 1.083.097.417.763.667 1.75-.167 2.333 0 1.5-.5 1.667-1-.25-1.25 0-1.417-.17-.916.04-1.166.042-1.333.042-1.333l-1.916-.5c-.001 0-1.5-.25-2.167.5z"/><path id="C" d="M7.85 24.71c-.815 1.156-1.22.917-1.22 1.832s-.102 1.22 0 1.83-1.12.812-1.017 1.32-.397.896-.006 1.627.417.68 1.045 1.02-.835.31 1.198.713.508 1.012 2.033.402 1.728.305 1.83-1.22-.813-1.728 0-2.033 1.22-.658 1.524-1 .407-1.043 0-1.754-.915-1.12-.915-1.12-.203-.304-.915-.406-.813-1.223-1.118-1.222-2.055-.546-2.44-.001z"/><path id="D" d="M8.56 35.185s-1.653 2.133-1.787 2.667-2.23.4-.848 2.267.582.933 1.382 1.867.045.723.667 1.734-.9.69.622 1.01 1.96-.19 2.67 0 1.775.322 1.91-1.278-.4-2.878 0-3.44 1.6-.56 1.734-1.36.124-2.532-.534-2.667-.8-.268-1.333-.134-1.818.001-1.775.267-1.05-.934-1.05-.934-.906-1.007-1.657 0z"/><path id="E" d="M9.128 54.667s-.167 2.75 0 3.166-1.083-.083.167.417l1.25.5s.203.083.56-.417.2-1.167.857-1.25l.666-.083s.25.083.333-1 .25-1.833-.333-2-.833 0-1.25 0 .002-.25-.79 0-.542-.417-.792.25-.667.417-.667.417z"/><path id="F" d="M11.663 51.21s-1.737-3.822 0-4.17 6.08 0 6.08 0 1.738-.328 1.216 2.007-1.725 1.99-1.905 3.03-.18 1.39-.875 1.042l-.695-.348-2.78-1.912-1.043.35z"/><path id="G" d="M17.355 61.375s-3.027.312-2.975.625-.053.75 0 1.188-.146.688-.015 1.312-.725.562.015 1.062-.5.312.74.5 2.094.812 2.234-.438-.203-1.75 0-2-.11-.312.328-.562.625-.75.5-1-.827-.687-.827-.687z"/><path id="H" d="M19.185 30.948s-2.096.45-2.246.75-1.123.823-.674 1.722.71.6 1.103 1.572.053.973.298 1.946.096 1.422.77 1.946-1.347 1.422.674.524 2.47-1.497 2.545-2.32.075-1.198 0-2.32.143-2.35.056-2.79.618-.88-.505-1.03-2.02 0-2.02 0z"/><path id="I" d="M253.664 14.792s-.334.417-.666.75-1 1.083-.834 1.333.975.833.737 1.083-.18.583 0 1.083.097.417.763.667 1.75-.167 2.334 0 1.5-.5 1.666-1-.25-1.25 0-1.417-.168-.916.04-1.166.04-1.333.04-1.333l-1.915-.5s-1.5-.25-2.167.5z"/><path id="J" d="M247.85 24.71c-.815 1.156-1.22.917-1.22 1.832s-.102 1.22 0 1.83-1.12.812-1.018 1.32-.396.896-.006 1.627.418.68 1.045 1.02-.834.31 1.198.713.508 1.012 2.032.402 1.73.305 1.83-1.22-.812-1.728 0-2.033 1.22-.658 1.524-1 .407-1.043 0-1.754-.915-1.12-.915-1.12-.203-.304-.914-.406-.813-1.223-1.118-1.222-2.054-.546-2.438-.001z"/><path id="K" d="M248.56 35.185s-1.653 2.133-1.787 2.667-2.23.4-.848 2.267.582.933 1.38 1.867.045.723.667 1.734-.9.69.622 1.01 1.96-.19 2.67 0 1.775.322 1.908-1.278-.4-2.878 0-3.44 1.602-.56 1.734-1.36.124-2.532-.533-2.667-.8-.268-1.334-.134-1.818.001-1.775.267-1.05-.934-1.05-.934-.902-1.007-1.654 0z"/><path id="L" d="M249.128 54.667s-.167 2.75 0 3.166-1.083-.083.167.417l1.25.5s.203.083.56-.417.2-1.167.856-1.25l.667-.083s.25.083.333-1 .25-1.833-.333-2-.833 0-1.25 0 .002-.25-.8 0-.543-.417-.793.25-.667.417-.667.417z"/><path id="M" d="M251.662 51.21s-1.736-3.822 0-4.17 6.082 0 6.082 0 1.737-.328 1.216 2.007-1.725 1.99-1.905 3.03-.18 1.39-.875 1.042l-.695-.348-2.78-1.912-1.044.35z"/><path id="N" d="M257.355 61.375s-3.027.312-2.975.625-.053.75 0 1.188-.146.688-.016 1.312-.725.562.016 1.062-.5.312.74.5 2.094.812 2.234-.438-.203-1.75 0-2-.11-.312.328-.562.625-.75.5-1-.827-.687-.827-.687z"/><path id="O" d="M259.186 30.948s-2.096.45-2.246.75-1.123.823-.674 1.722.71.6 1.104 1.572.053.973.298 1.946.096 1.422.77 1.946-1.347 1.422.674.524 2.47-1.497 2.545-2.32.075-1.198 0-2.32.144-2.35.056-2.79.618-.88-.505-1.03-2.022 0-2.022 0z"/><path id="P" d="M283.496 14.792s-.334.417-.668.75-1 1.083-.832 1.333.973.833.736 1.083-.18.583 0 1.083.097.417.764.667 1.75-.167 2.332 0 1.5-.5 1.668-1-.25-1.25 0-1.417-.17-.916.04-1.166.042-1.333.042-1.333l-1.916-.5s-1.5-.25-2.166.5z"/><path id="Q" d="M277.68 24.71c-.814 1.156-1.22.917-1.22 1.832s-.102 1.22 0 1.83-1.118.812-1.017 1.32-.398.896-.006 1.627.416.68 1.045 1.02-.836.31 1.197.713.508 1.012 2.033.402 1.727.305 1.83-1.22-.813-1.728 0-2.033 1.22-.658 1.524-1 .406-1.043 0-1.754-.914-1.12-.914-1.12-.203-.304-.916-.406-.812-1.223-1.117-1.222-2.054-.546-2.438-.001z"/><path id="R" d="M278.4 35.185s-1.653 2.133-1.787 2.667-2.23.4-.85 2.267.582.933 1.383 1.867.045.723.666 1.734-.9.69.622 1.01 1.962-.19 2.67 0 1.775.322 1.91-1.278-.4-2.878 0-3.44 1.6-.56 1.733-1.36.124-2.532-.534-2.667-.8-.268-1.333-.134-1.817.001-1.775.267-1.05-.934-1.05-.934-.904-1.007-1.655 0z"/><path id="S" d="M278.96 54.667s-.167 2.75 0 3.166-1.083-.083.167.417l1.25.5s.202.083.56-.417.2-1.167.857-1.25l.666-.083s.25.083.334-1 .25-1.833-.334-2-.834 0-1.25 0 .002-.25-.79 0-.542-.417-.792.25-.667.417-.667.417z"/><path id="T" d="M281.494 51.21s-1.737-3.822 0-4.17 6.08 0 6.08 0 1.738-.328 1.217 2.007-1.725 1.99-1.904 3.03-.18 1.39-.876 1.042l-.695-.348-2.78-1.912-1.043.35z"/><path id="U" d="M287.186 61.375s-3.027.312-2.975.625-.053.75 0 1.188-.145.688-.015 1.312-.726.562.015 1.062-.5.312.74.5 2.094.812 2.234-.438-.203-1.75 0-2-.11-.312.328-.562.625-.75.5-1-.827-.687-.827-.687z"/><path id="V" d="M289.016 30.948s-2.096.45-2.245.75-1.123.823-.674 1.722.71.6 1.103 1.572.053.973.3 1.946.096 1.422.77 1.946-1.348 1.422.674.524 2.47-1.497 2.545-2.32.074-1.198 0-2.32.143-2.35.057-2.79.617-.88-.506-1.03-2.023 0-2.023 0z"/></defs><clipPath id="W"><use xlink:href="#A"/></clipPath><g clip-path="url(#W)" class="B"><ellipse transform="matrix(-.0336 -.9994 .9994 -.0336 7.5043 29.1996)" cx="17.869" cy="10.972" rx="1.199" ry=".378"/><ellipse transform="matrix(-.0324 -.9995 .9995 -.0324 -2.78 19.9469)" cx="8.265" cy="11.319" rx="1.198" ry=".378"/></g><g class="C"><use xlink:href="#B" x="30"/><use xlink:href="#C" x="30"/><use xlink:href="#D" x="30"/><use xlink:href="#E" x="30"/><use xlink:href="#F" x="30"/><use xlink:href="#G" x="30"/><use xlink:href="#H" x="30"/></g><defs><path id="X" d="M46.8 5c5.4 7.8 7.4 17.6 7.4 25.6l-.2 7.2c-.6 5.4-1 11.4-2.2 17.2-.6 3.8-1.8 7.8-2.8 11.602-.6 2.8-1.4 6-1.8 9-.4 1.798-.6 4.198-.6 6.198 0 1-.2 4.802-2.6 4.802-1.2 0-2-3.2-2-3.397 0-.603-.6-1.804-.6-2.603-.2-12.2-6-25.397-7.6-37.397l-.6-6.4V23.4c.4-6 1.6-12 5.4-18-1-1-2.2-2.4-2.6-3.4v-.6c.8 1 2.6 3.2 3.2 3.2.4 0 1.8-1.4 2.8-1.6h.8c1.2 0 2 .2 3.4 1.4 1-1 2.2-2.2 3-3.2C49 2 48 4 46.8 5z"/></defs><clipPath id="Y"><use xlink:href="#X"/></clipPath><g clip-path="url(#Y)" class="B"><ellipse transform="matrix(-.0336 -.9994 .9994 -.0336 38.5123 59.1827)" cx="47.869" cy="10.972" rx="1.199" ry=".378"/><ellipse transform="matrix(-.0324 -.9995 .9995 -.0324 28.192 49.9311)" cx="38.265" cy="11.319" rx="1.198" ry=".378"/></g><g class="C"><use xlink:href="#B" x="60"/><use xlink:href="#C" x="60"/><use xlink:href="#D" x="60"/><use xlink:href="#E" x="60"/><use xlink:href="#F" x="60"/><use xlink:href="#G" x="60"/><use xlink:href="#H" x="60"/></g><defs><path id="Z" d="M76.8 5c5.4 7.8 7.4 17.6 7.4 25.6l-.2 7.2c-.6 5.4-1 11.4-2.2 17.2-.6 3.8-1.8 7.8-2.8 11.602-.6 2.8-1.4 6-1.8 9-.4 1.798-.6 4.198-.6 6.198 0 1-.2 4.802-2.6 4.802-1.2 0-2-3.2-2-3.397 0-.603-.6-1.804-.6-2.603-.2-12.2-6-25.397-7.6-37.397l-.6-6.4V23.4c.4-6 1.6-12 5.4-18-1-1-2.2-2.4-2.6-3.4v-.6c.8 1 2.6 3.2 3.2 3.2.4 0 1.8-1.4 2.8-1.6h.8c1.2 0 2 .2 3.4 1.4 1-1 2.2-2.2 3-3.2C79 2 78 4 76.8 5z"/></defs><clipPath id="a"><use xlink:href="#Z"/></clipPath><g clip-path="url(#a)" class="B"><ellipse transform="matrix(-.0336 -.9994 .9994 -.0336 69.5203 89.1657)" cx="77.869" cy="10.972" rx="1.199" ry=".378"/><ellipse transform="matrix(-.0324 -.9995 .9995 -.0324 59.164 79.9154)" cx="68.265" cy="11.319" rx="1.198" ry=".378"/></g><g class="C"><use xlink:href="#B" x="90.165"/><use xlink:href="#C" x="90.165"/><use xlink:href="#D" x="90.165"/><use xlink:href="#E" x="90.166"/><use xlink:href="#F" x="90.167"/><use xlink:href="#G" x="90.165"/><use xlink:href="#H" x="90.165"/></g><defs><path id="b" d="M106.966 5c5.4 7.8 7.4 17.6 7.4 25.6l-.2 7.2c-.6 5.4-1 11.4-2.2 17.2-.6 3.8-1.8 7.8-2.8 11.602-.6 2.8-1.4 6-1.8 9-.4 1.8-.6 4.198-.6 6.198 0 1-.2 4.802-2.6 4.802-1.2 0-2-3.2-2-3.397 0-.603-.6-1.804-.6-2.603-.2-12.2-6-25.397-7.6-37.397l-.6-6.4V23.4c.4-6 1.6-12 5.4-18-1-1-2.2-2.4-2.6-3.4v-.6c.8 1 2.6 3.2 3.2 3.2.4 0 1.8-1.4 2.8-1.6h.8c1.2 0 2 .2 3.4 1.4 1-1 2.2-2.2 3-3.2-.2.8-1.2 2.8-2.4 3.8z"/></defs><clipPath id="c"><use xlink:href="#b"/></clipPath><g clip-path="url(#c)" class="B"><ellipse transform="matrix(-.0336 -.9994 .9994 -.0336 100.6999 119.3147)" cx="108.035" cy="10.972" rx="1.199" ry=".378"/><ellipse transform="matrix(-.0324 -.9995 .9995 -.0324 90.3073 110.0655)" cx="98.431" cy="11.319" rx="1.198" ry=".378"/></g><g class="C"><use xlink:href="#B" x="120.165"/><use xlink:href="#C" x="120.165"/><use xlink:href="#D" x="120.165"/><use xlink:href="#E" x="120.166"/><use xlink:href="#F" x="120.167"/><use xlink:href="#G" x="120.165"/><use xlink:href="#H" x="120.165"/></g><defs><path id="d" d="M136.966 5c5.4 7.8 7.4 17.6 7.4 25.6l-.2 7.2c-.6 5.4-1 11.4-2.2 17.2-.6 3.8-1.8 7.8-2.8 11.602-.6 2.8-1.4 6-1.8 9-.4 1.8-.6 4.198-.6 6.198 0 1-.2 4.802-2.6 4.802-1.2 0-2-3.2-2-3.397 0-.603-.6-1.804-.6-2.603-.2-12.2-6-25.397-7.6-37.397l-.6-6.4V23.4c.4-6 1.6-12 5.4-18-1-1-2.2-2.4-2.6-3.4v-.6c.8 1 2.6 3.2 3.2 3.2.4 0 1.8-1.4 2.8-1.6h.8c1.2 0 2 .2 3.4 1.4 1-1 2.2-2.2 3-3.2-.2.8-1.2 2.8-2.4 3.8z"/></defs><clipPath id="e"><use xlink:href="#d"/></clipPath><g clip-path="url(#e)" class="B"><ellipse transform="matrix(-.0336 -.9994 .9994 -.0336 131.7079 149.2978)" cx="138.035" cy="10.972" rx="1.199" ry=".378"/><ellipse transform="matrix(-.0324 -.9995 .9995 -.0324 121.2793 140.0498)" cx="128.431" cy="11.319" rx="1.198" ry=".378"/></g><g class="C"><use xlink:href="#B" x="150.165"/><use xlink:href="#C" x="150.165"/><use xlink:href="#D" x="150.165"/><use xlink:href="#E" x="150.166"/><use xlink:href="#F" x="150.167"/><use xlink:href="#G" x="150.165"/><use xlink:href="#H" x="150.165"/></g><defs><path id="f" d="M166.966 5c5.4 7.8 7.4 17.6 7.4 25.6l-.2 7.2c-.6 5.4-1 11.4-2.2 17.2-.6 3.8-1.8 7.8-2.8 11.602-.6 2.8-1.4 6-1.8 9-.4 1.8-.6 4.198-.6 6.198 0 1-.2 4.802-2.6 4.802-1.2 0-2-3.2-2-3.397 0-.603-.6-1.804-.6-2.603-.2-12.2-6-25.397-7.6-37.397l-.6-6.4V23.4c.4-6 1.6-12 5.4-18-1-1-2.2-2.4-2.6-3.4v-.6c.8 1 2.6 3.2 3.2 3.2.4 0 1.8-1.4 2.8-1.6h.8c1.2 0 2 .2 3.4 1.4 1-1 2.2-2.2 3-3.2-.2.8-1.2 2.8-2.4 3.8z"/></defs><clipPath id="g"><use xlink:href="#f"/></clipPath><g clip-path="url(#g)" class="B"><ellipse transform="matrix(-.0336 -.9994 .9994 -.0336 162.7159 179.2808)" cx="168.035" cy="10.972" rx="1.199" ry=".378"/><ellipse transform="matrix(-.0324 -.9995 .9995 -.0324 152.2513 170.034)" cx="158.431" cy="11.319" rx="1.198" ry=".378"/></g><g class="C"><use xlink:href="#B" x="180"/><use xlink:href="#C" x="180"/><use xlink:href="#D" x="180"/><use xlink:href="#E" x="180"/><use xlink:href="#F" x="180"/><use xlink:href="#G" x="180"/><use xlink:href="#H" x="180"/></g><defs><path id="h" d="M196.8 5c5.4 7.8 7.4 17.6 7.4 25.6l-.2 7.2c-.6 5.4-1 11.4-2.2 17.2-.6 3.8-1.8 7.8-2.8 11.602-.6 2.8-1.4 6-1.8 9-.4 1.8-.6 4.198-.6 6.198 0 1-.2 4.802-2.6 4.802-1.2 0-2-3.2-2-3.397 0-.603-.6-1.804-.6-2.603-.2-12.2-6-25.397-7.6-37.397l-.6-6.4V23.4c.4-6 1.6-12 5.4-18-1-1-2.2-2.4-2.6-3.4v-.6c.8 1 2.6 3.2 3.2 3.2.4 0 1.8-1.4 2.8-1.6h.8c1.2 0 2 .2 3.4 1.4 1-1 2.2-2.2 3-3.2C199 2 198 4 196.8 5z"/></defs><clipPath id="i"><use xlink:href="#h"/></clipPath><g clip-path="url(#i)" class="B"><ellipse transform="matrix(-.0336 -.9994 .9994 -.0336 193.5522 209.098)" cx="197.869" cy="10.972" rx="1.199" ry=".378"/><ellipse transform="matrix(-.0324 -.9995 .9995 -.0324 183.0518 199.8524)" cx="188.265" cy="11.319" rx="1.198" ry=".378"/></g><g class="C"><use xlink:href="#B" x="210"/><use xlink:href="#C" x="210"/><use xlink:href="#D" x="210"/><use xlink:href="#E" x="210"/><use xlink:href="#F" x="210"/><use xlink:href="#G" x="210"/><use xlink:href="#H" x="210"/></g><defs><path id="j" d="M226.8 5c5.4 7.8 7.4 17.6 7.4 25.6l-.2 7.2c-.6 5.4-1 11.4-2.2 17.2-.6 3.8-1.8 7.8-2.8 11.602-.6 2.8-1.4 6-1.8 9-.4 1.8-.6 4.198-.6 6.198 0 1-.2 4.802-2.6 4.802-1.2 0-2-3.2-2-3.397 0-.603-.6-1.804-.6-2.603-.2-12.2-6-25.397-7.6-37.397l-.6-6.4V23.4c.4-6 1.6-12 5.4-18-1-1-2.2-2.4-2.6-3.4v-.6c.8 1 2.6 3.2 3.2 3.2.4 0 1.8-1.4 2.8-1.6h.8c1.2 0 2 .2 3.4 1.4 1-1 2.2-2.2 3-3.2C229 2 228 4 226.8 5z"/></defs><clipPath id="k"><use xlink:href="#j"/></clipPath><g clip-path="url(#k)" class="B"><ellipse transform="matrix(-.0336 -.9994 .9994 -.0336 224.5602 239.081)" cx="227.869" cy="10.972" rx="1.199" ry=".378"/><ellipse transform="matrix(-.0324 -.9995 .9995 -.0324 214.0238 229.8366)" cx="218.265" cy="11.319" rx="1.198" ry=".378"/></g><g class="C"><use xlink:href="#I"/><use xlink:href="#J"/><use xlink:href="#K"/><use xlink:href="#L"/><use xlink:href="#M"/><use xlink:href="#N"/><use xlink:href="#O"/></g><defs><path id="l" d="M256.8 5c5.4 7.8 7.4 17.6 7.4 25.6l-.2 7.2c-.6 5.4-1 11.4-2.2 17.2-.6 3.8-1.8 7.8-2.8 11.602-.6 2.8-1.4 6-1.8 9-.4 1.798-.6 4.198-.6 6.198 0 1-.2 4.802-2.6 4.802-1.2 0-2-3.2-2-3.397 0-.603-.6-1.804-.6-2.603-.2-12.2-6-25.397-7.6-37.397l-.6-6.4V23.4c.4-6 1.6-12 5.4-18-1-1-2.2-2.4-2.6-3.4v-.6c.8 1 2.6 3.2 3.2 3.2.4 0 1.8-1.4 2.8-1.6h.8c1.2 0 2 .2 3.4 1.4 1-1 2.2-2.2 3-3.2C259 2 258 4 256.8 5z"/></defs><clipPath id="m"><use xlink:href="#l"/></clipPath><g clip-path="url(#m)" class="B"><ellipse transform="matrix(-.0338 -.9994 .9994 -.0338 255.621 269.0648)" cx="257.87" cy="10.972" rx="1.199" ry=".378"/><ellipse transform="matrix(-.0326 -.9995 .9995 -.0326 245.0466 259.8218)" cx="248.266" cy="11.319" rx="1.198" ry=".377"/></g><g class="C"><use xlink:href="#P"/><use xlink:href="#Q"/><use xlink:href="#R"/><use xlink:href="#S"/><use xlink:href="#T"/><use xlink:href="#U"/><use xlink:href="#V"/></g><defs><path id="n" d="M286.63 5c5.4 7.8 7.4 17.6 7.4 25.6l-.2 7.2c-.6 5.4-1 11.4-2.2 17.2-.6 3.8-1.8 7.8-2.8 11.602-.6 2.8-1.4 6-1.8 9-.4 1.8-.6 4.198-.6 6.198 0 1-.2 4.802-2.6 4.802-1.2 0-2-3.2-2-3.397 0-.603-.6-1.804-.6-2.603-.2-12.2-6-25.397-7.6-37.397l-.6-6.4V23.4c.4-6 1.6-12 5.4-18-1-1-2.2-2.4-2.6-3.4v-.6c.8 1 2.6 3.2 3.2 3.2.4 0 1.8-1.4 2.8-1.6h.8c1.2 0 2 .2 3.4 1.4 1-1 2.2-2.2 3-3.2-.197.8-1.197 2.8-2.397 3.8z"/></defs><clipPath id="o"><use xlink:href="#n"/></clipPath><g clip-path="url(#o)" class="B"><ellipse transform="matrix(-.0334 -.9994 .9994 -.0334 286.3427 298.8778)" cx="287.7" cy="10.972" rx="1.199" ry=".378"/><ellipse transform="matrix(-.0322 -.9995 .9995 -.0322 275.7364 289.6355)" cx="278.096" cy="11.319" rx="1.198" ry=".379"/></g><g class="C"><use xlink:href="#P" x="30"/><use xlink:href="#Q" x="30"/><use xlink:href="#R" x="30"/><use xlink:href="#S" x="30"/><use xlink:href="#T" x="30"/><use xlink:href="#U" x="30"/><use xlink:href="#V" x="30"/></g><defs><path id="p" d="M316.63 5c5.4 7.8 7.4 17.6 7.4 25.6l-.2 7.2c-.6 5.4-1 11.4-2.2 17.2-.6 3.8-1.8 7.8-2.8 11.602-.6 2.8-1.4 6-1.8 9-.4 1.8-.6 4.198-.6 6.198 0 1-.2 4.802-2.6 4.802-1.2 0-2-3.2-2-3.397 0-.603-.6-1.804-.6-2.603-.2-12.2-6-25.397-7.6-37.397l-.6-6.4V23.4c.4-6 1.6-12 5.4-18-1-1-2.2-2.4-2.6-3.4v-.6c.8 1 2.6 3.2 3.2 3.2.4 0 1.8-1.4 2.8-1.6h.8c1.2 0 2 .2 3.4 1.4 1-1 2.2-2.2 3-3.2-.197.8-1.197 2.8-2.397 3.8z"/></defs><clipPath id="q"><use xlink:href="#p"/></clipPath><g clip-path="url(#q)" class="B"><ellipse transform="matrix(-.0334 -.9994 .9994 -.0334 317.3446 328.8611)" cx="317.7" cy="10.972" rx="1.199" ry=".378"/><ellipse transform="matrix(-.0322 -.9995 .9995 -.0322 306.7022 319.62)" cx="308.096" cy="11.319" rx="1.198" ry=".379"/></g><g class="C"><use xlink:href="#I" x="89.831"/><use xlink:href="#J" x="89.83"/><use xlink:href="#K" x="89.84"/><use xlink:href="#L" x="89.832"/><use xlink:href="#M" x="89.831"/><use xlink:href="#N" x="89.832"/><use xlink:href="#O" x="89.831"/></g><defs><path id="r" d="M346.63 5c5.4 7.8 7.4 17.6 7.4 25.6l-.2 7.2c-.6 5.4-1 11.4-2.2 17.2-.6 3.8-1.8 7.8-2.8 11.602-.6 2.8-1.4 6-1.8 9-.4 1.8-.6 4.198-.6 6.198 0 1-.2 4.802-2.6 4.802-1.2 0-2-3.2-2-3.397 0-.603-.6-1.804-.6-2.603-.2-12.2-6-25.397-7.6-37.397l-.6-6.4V23.4c.4-6 1.6-12 5.4-18-1-1-2.2-2.4-2.6-3.4v-.6c.8 1 2.6 3.2 3.2 3.2.4 0 1.8-1.4 2.8-1.6h.8c1.2 0 2 .2 3.4 1.4 1-1 2.2-2.2 3-3.2-.197.8-1.197 2.8-2.397 3.8z"/></defs><clipPath id="s"><use xlink:href="#r"/></clipPath><g clip-path="url(#s)" class="B"><ellipse transform="matrix(-.0338 -.9994 .9994 -.0338 348.4886 358.8445)" cx="347.701" cy="10.972" rx="1.199" ry=".378"/><ellipse transform="matrix(-.0326 -.9995 .9995 -.0326 337.8064 349.605)" cx="338.097" cy="11.319" rx="1.198" ry=".377"/></g><g class="C"><use xlink:href="#P" x="90.166"/><use xlink:href="#Q" x="90.166"/><use xlink:href="#R" x="90.156"/><use xlink:href="#S" x="90.165"/><use xlink:href="#T" x="90.166"/><use xlink:href="#U" x="90.166"/><use xlink:href="#V" x="90.166"/></g><defs><path id="t" d="M376.797 5c5.4 7.8 7.4 17.6 7.4 25.6l-.2 7.2c-.6 5.4-1 11.4-2.2 17.2-.6 3.8-1.8 7.8-2.8 11.602-.6 2.8-1.4 6-1.8 9-.4 1.8-.6 4.198-.6 6.198 0 1-.2 4.802-2.6 4.802-1.2 0-2-3.2-2-3.397 0-.603-.6-1.804-.6-2.603-.2-12.2-6-25.397-7.6-37.397l-.6-6.4V23.4c.4-6 1.6-12 5.4-18-1-1-2.2-2.4-2.6-3.4v-.6c.8 1 2.6 3.2 3.2 3.2.4 0 1.8-1.4 2.8-1.6h.8c1.2 0 2 .2 3.4 1.4 1-1 2.2-2.2 3-3.2-.197.8-1.197 2.8-2.397 3.8z"/></defs><clipPath id="u"><use xlink:href="#t"/></clipPath><g clip-path="url(#u)" class="B"><ellipse transform="matrix(-.0334 -.9994 .9994 -.0334 379.5199 388.9936)" cx="377.866" cy="10.972" rx="1.199" ry=".378"/><ellipse transform="matrix(-.0322 -.9995 .9995 -.0322 368.8053 379.7548)" cx="368.262" cy="11.319" rx="1.198" ry=".379"/></g><g class="C"><use xlink:href="#P" x="120.166"/><use xlink:href="#Q" x="120.166"/><use xlink:href="#R" x="120.156"/><use xlink:href="#S" x="120.165"/><use xlink:href="#T" x="120.166"/><use xlink:href="#U" x="120.166"/><use xlink:href="#V" x="120.166"/></g><defs><path id="v" d="M406.797 5c5.4 7.8 7.4 17.6 7.4 25.6l-.2 7.2c-.6 5.4-1 11.4-2.2 17.2-.6 3.8-1.8 7.8-2.8 11.602-.6 2.8-1.4 6-1.8 9-.4 1.8-.6 4.198-.6 6.198 0 1-.2 4.802-2.6 4.802-1.2 0-2-3.2-2-3.397 0-.603-.6-1.804-.6-2.603-.2-12.2-6-25.397-7.6-37.397l-.6-6.4V23.4c.4-6 1.6-12 5.4-18-1-1-2.2-2.4-2.6-3.4v-.6c.8 1 2.6 3.2 3.2 3.2.4 0 1.8-1.4 2.8-1.6h.8c1.2 0 2 .2 3.4 1.4 1-1 2.2-2.2 3-3.2-.197.8-1.197 2.8-2.397 3.8z"/></defs><clipPath id="w"><use xlink:href="#v"/></clipPath><g clip-path="url(#w)" class="B"><ellipse transform="matrix(-.0334 -.9994 .9994 -.0334 410.5218 418.9768)" cx="407.866" cy="10.972" rx="1.199" ry=".378"/><ellipse transform="matrix(-.0322 -.9995 .9995 -.0322 399.7711 409.7393)" cx="398.262" cy="11.319" rx="1.198" ry=".379"/></g><g class="C"><use xlink:href="#I" x="179.996"/><use xlink:href="#J" x="179.996"/><use xlink:href="#K" x="179.996"/><use xlink:href="#L" x="179.997"/><use xlink:href="#M" x="179.998"/><use xlink:href="#N" x="179.998"/><use xlink:href="#O" x="179.997"/></g><defs><path id="x" d="M436.797 5c5.4 7.8 7.4 17.6 7.4 25.6l-.2 7.2c-.6 5.4-1 11.4-2.2 17.2-.6 3.8-1.8 7.8-2.8 11.602-.6 2.8-1.4 6-1.8 9-.4 1.8-.6 4.198-.6 6.198 0 1-.2 4.802-2.6 4.802-1.2 0-2-3.2-2-3.397 0-.603-.6-1.804-.6-2.603-.2-12.2-6-25.397-7.6-37.397l-.6-6.4V23.4c.4-6 1.6-12 5.4-18-1-1-2.2-2.4-2.6-3.4v-.6c.8 1 2.6 3.2 3.2 3.2.4 0 1.8-1.4 2.8-1.6h.8c1.2 0 2 .2 3.4 1.4 1-1 2.2-2.2 3-3.2-.197.8-1.197 2.8-2.397 3.8z"/></defs><clipPath id="y"><use xlink:href="#x"/></clipPath><g clip-path="url(#y)" class="B"><ellipse transform="matrix(-.0338 -.9994 .9994 -.0338 441.7025 448.959)" cx="437.867" cy="10.972" rx="1.199" ry=".378"/><ellipse transform="matrix(-.0326 -.9995 .9995 -.0326 430.912 439.7231)" cx="428.263" cy="11.319" rx="1.198" ry=".377"/></g><g class="C"><use xlink:href="#I" x="210"/><use xlink:href="#J" x="210"/><use xlink:href="#K" x="210"/><use xlink:href="#L" x="210"/><use xlink:href="#M" x="210"/><use xlink:href="#N" x="210"/><use xlink:href="#O" x="210"/></g><defs><path id="z" d="M466.8 5c5.4 7.8 7.4 17.6 7.4 25.6l-.2 7.2c-.6 5.4-1 11.4-2.2 17.2-.6 3.8-1.8 7.8-2.8 11.602-.6 2.8-1.4 6-1.8 9-.4 1.798-.6 4.198-.6 6.198 0 1-.2 4.802-2.6 4.802-1.2 0-2-3.2-2-3.397 0-.603-.6-1.804-.6-2.603-.2-12.2-6-25.397-7.6-37.397l-.6-6.4V23.4c.4-6 1.6-12 5.4-18-1-1-2.2-2.4-2.6-3.4v-.6c.8 1 2.6 3.2 3.2 3.2.4 0 1.8-1.4 2.8-1.6h.8c1.2 0 2 .2 3.4 1.4 1-1 2.2-2.2 3-3.2C469 2 468 4 466.8 5z"/></defs><clipPath id="AA"><use xlink:href="#z"/></clipPath><g clip-path="url(#AA)" class="B"><ellipse transform="matrix(-.0338 -.9994 .9994 -.0338 472.7196 478.9448)" cx="467.87" cy="10.972" rx="1.199" ry=".378"/><ellipse transform="matrix(-.0326 -.9995 .9995 -.0326 461.8931 469.7101)" cx="458.266" cy="11.319" rx="1.198" ry=".377"/></g><g class="B"><ellipse transform="matrix(-.0336 -.9994 .9994 -.0336 38.3401 59.0133)" cx="47.701" cy="10.97" rx="1.199" ry=".378"/><ellipse transform="matrix(-.0324 -.9995 .9995 -.0324 28.0191 49.766)" cx="38.099" cy="11.32" rx="1.198" ry=".378"/><ellipse transform="matrix(-.0336 -.9994 .9994 -.0336 69.5207 89.1613)" cx="77.867" cy="10.969" rx="1.199" ry=".378"/><ellipse transform="matrix(-.0324 -.9995 .9995 -.0324 59.1635 79.9178)" cx="68.266" cy="11.321" rx="1.198" ry=".378"/><ellipse transform="matrix(-.0336 -.9994 .9994 -.0336 100.357 118.9734)" cx="107.699" cy="10.967" rx="1.199" ry=".378"/><ellipse transform="matrix(-.0322 -.9995 .9995 -.0322 89.9428 109.7353)" cx="98.1" cy="11.322" rx="1.198" ry=".378"/><ellipse transform="matrix(-.0336 -.9994 .9994 -.0336 131.5376 149.1214)" cx="137.865" cy="10.966" rx="1.199" ry=".378"/><ellipse transform="matrix(-.0324 -.9995 .9995 -.0324 121.108 139.8888)" cx="128.268" cy="11.322" rx="1.198" ry=".378"/></g><defs><path id="AB" d="M166.966 5c5.4 7.8 7.4 17.6 7.4 25.6l-.2 7.2c-.6 5.4-1 11.4-2.2 17.2-.6 3.8-1.8 7.8-2.8 11.602-.6 2.8-1.4 6-1.8 9-.4 1.8-.6 4.198-.6 6.198 0 1-.2 4.802-2.6 4.802-1.2 0-2-3.2-2-3.397 0-.603-.6-1.804-.6-2.603-.2-12.2-6-25.397-7.6-37.397l-.6-6.4V23.4c.4-6 1.6-12 5.4-18-1-1-2.2-2.4-2.6-3.4v-.6c.8 1 2.6 3.2 3.2 3.2.4 0 1.8-1.4 2.8-1.6h.8c1.2 0 2 .2 3.4 1.4 1-1 2.2-2.2 3-3.2-.2.8-1.2 2.8-2.4 3.8z"/></defs><clipPath id="AC"><use xlink:href="#AB"/></clipPath><g clip-path="url(#AC)" class="B"><ellipse transform="matrix(-.0336 -.9994 .9994 -.0336 162.7181 179.2694)" cx="168.031" cy="10.965" rx="1.199" ry=".378"/><ellipse transform="matrix(-.0324 -.9995 .9995 -.0324 152.2514 170.042)" cx="158.435" cy="11.323" rx="1.198" ry=".378"/></g><defs><path id="AD" d="M196.8 5c5.4 7.8 7.4 17.6 7.4 25.6l-.2 7.2c-.6 5.4-1 11.4-2.2 17.2-.6 3.8-1.8 7.8-2.8 11.602-.6 2.8-1.4 6-1.8 9-.4 1.8-.6 4.198-.6 6.198 0 1-.2 4.802-2.6 4.802-1.2 0-2-3.2-2-3.397 0-.603-.6-1.804-.6-2.603-.2-12.2-6-25.397-7.6-37.397l-.6-6.4V23.4c.4-6 1.6-12 5.4-18-1-1-2.2-2.4-2.6-3.4v-.6c.8 1 2.6 3.2 3.2 3.2.4 0 1.8-1.4 2.8-1.6h.8c1.2 0 2 .2 3.4 1.4 1-1 2.2-2.2 3-3.2C199 2 198 4 196.8 5z"/></defs><clipPath id="AE"><use xlink:href="#AD"/></clipPath><g clip-path="url(#AE)" class="B"><ellipse transform="matrix(-.0336 -.9994 .9994 -.0336 193.554 209.0831)" cx="197.863" cy="10.963" rx="1.199" ry=".378"/><ellipse transform="matrix(-.0328 -.9995 .9995 -.0328 183.1225 199.8759)" cx="188.273" cy="11.333" rx="1.198" ry=".378"/></g><defs><path id="AF" d="M226.8 5c5.4 7.8 7.4 17.6 7.4 25.6l-.2 7.2c-.6 5.4-1 11.4-2.2 17.2-.6 3.8-1.8 7.8-2.8 11.602-.6 2.8-1.4 6-1.8 9-.4 1.8-.6 4.198-.6 6.198 0 1-.2 4.802-2.6 4.802-1.2 0-2-3.2-2-3.397 0-.603-.6-1.804-.6-2.603-.2-12.2-6-25.397-7.6-37.397l-.6-6.4V23.4c.4-6 1.6-12 5.4-18-1-1-2.2-2.4-2.6-3.4v-.6c.8 1 2.6 3.2 3.2 3.2.4 0 1.8-1.4 2.8-1.6h.8c1.2 0 2 .2 3.4 1.4 1-1 2.2-2.2 3-3.2C229 2 228 4 226.8 5z"/></defs><clipPath id="AG"><use xlink:href="#AF"/></clipPath><g clip-path="url(#AG)" class="B"><ellipse transform="matrix(-.0336 -.9994 .9994 -.0336 224.5619 239.0641)" cx="227.862" cy="10.962" rx="1.199" ry=".378"/><ellipse transform="matrix(-.0324 -.9995 .9995 -.0324 214.0237 229.8474)" cx="218.27" cy="11.325" rx="1.198" ry=".378"/></g><defs><path id="AH" d="M256.967 5c5.4 7.8 7.4 17.6 7.4 25.6l-.2 7.2c-.6 5.4-1 11.4-2.2 17.2-.6 3.8-1.8 7.8-2.8 11.602-.6 2.8-1.4 6-1.8 9-.4 1.8-.6 4.198-.6 6.198 0 1-.2 4.802-2.603 4.802-1.2 0-2-3.2-2-3.397 0-.603-.603-1.804-.603-2.603-.197-12.2-6-25.397-7.6-37.397l-.6-6.4V23.4c.4-6 1.6-12 5.4-18-1-1-2.2-2.4-2.603-3.4v-.6c.8 1 2.603 3.2 3.198 3.2.4 0 1.802-1.4 2.802-1.6h.8c1.2 0 2 .2 3.398 1.4 1-1 2.2-2.2 3-3.2-.19.8-1.19 2.8-2.39 3.8z"/></defs><clipPath id="AI"><use xlink:href="#AH"/></clipPath><g clip-path="url(#AI)" class="B"><ellipse transform="matrix(-.0342 -.9994 .9994 -.0342 255.9089 269.2151)" cx="258.033" cy="10.958" rx="1.199" ry=".379"/><ellipse transform="matrix(-.0318 -.9995 .9995 -.0318 245.02 259.9962)" cx="248.438" cy="11.323" rx="1.198" ry=".379"/></g><defs><path id="AJ" d="M286.8 5c5.4 7.8 7.4 17.6 7.4 25.6l-.2 7.2c-.6 5.4-1 11.4-2.2 17.2-.6 3.8-1.8 7.8-2.8 11.602-.6 2.8-1.4 6-1.8 9-.4 1.798-.6 4.198-.6 6.198 0 1-.2 4.802-2.6 4.802-1.2 0-2-3.2-2-3.397 0-.603-.6-1.804-.6-2.603-.2-12.2-6-25.397-7.603-37.397l-.6-6.4V23.4c.397-6 1.6-12 5.397-18-1-1-2.2-2.4-2.6-3.4v-.6c.8 1 2.6 3.2 3.2 3.2.4 0 1.8-1.4 2.8-1.6h.8c1.2 0 2 .2 3.4 1.4 1-1 2.2-2.2 3-3.2C289 2 288 4 286.8 5z"/></defs><clipPath id="AK"><use xlink:href="#AJ"/></clipPath><g clip-path="url(#AK)" class="B"><ellipse transform="matrix(-.0334 -.9994 .9994 -.0334 286.5302 299.0192)" cx="287.862" cy="10.952" rx="1.199" ry=".378"/><ellipse transform="matrix(-.0326 -.9995 .9995 -.0326 276.0328 289.8115)" cx="278.271" cy="11.319" rx="1.198" ry=".377"/></g><defs><path id="AL" d="M316.633 5c5.4 7.8 7.4 17.6 7.4 25.6l-.2 7.2c-.6 5.4-1 11.4-2.2 17.2-.6 3.8-1.8 7.8-2.8 11.602-.6 2.8-1.4 6-1.8 9-.4 1.8-.6 4.198-.6 6.198 0 1-.2 4.802-2.603 4.802-1.2 0-2-3.2-2-3.397 0-.603-.603-1.804-.603-2.603-.2-12.2-6-25.397-7.6-37.397l-.6-6.4V23.4c.4-6 1.6-12 5.4-18-1-1-2.2-2.4-2.603-3.4v-.6c.8 1 2.603 3.2 3.198 3.2.4 0 1.802-1.4 2.802-1.6h.8c1.2 0 2 .2 3.398 1.4 1-1 2.2-2.2 3-3.2-.19.8-1.19 2.8-2.39 3.8z"/></defs><clipPath id="AM"><use xlink:href="#AL"/></clipPath><g clip-path="url(#AM)" class="B"><ellipse transform="matrix(-.0338 -.9994 .9994 -.0338 317.4771 328.8368)" cx="317.69" cy="10.958" rx="1.199" ry=".379"/><ellipse transform="matrix(-.0326 -.9995 .9995 -.0326 306.8343 319.6351)" cx="308.105" cy="11.324" rx="1.198" ry=".379"/></g><defs><path id="AN" d="M346.8 5c5.4 7.8 7.4 17.6 7.4 25.6l-.2 7.2c-.602 5.4-1 11.4-2.2 17.2-.6 3.8-1.8 7.8-2.8 11.602-.602 2.8-1.398 6-1.8 9-.4 1.798-.6 4.198-.6 6.198 0 1-.2 4.802-2.6 4.802-1.2 0-2-3.2-2-3.397 0-.603-.6-1.804-.6-2.603-.2-12.2-6-25.397-7.602-37.397l-.602-6.4V23.4c.4-6 1.602-12 5.4-18-1-1-2.2-2.4-2.6-3.4v-.6c.8 1 2.6 3.2 3.2 3.2.398 0 1.8-1.4 2.8-1.6h.8c1.2 0 2 .2 3.4 1.4 1-1 2.2-2.2 3-3.2C349 2 348 4 346.8 5z"/></defs><clipPath id="AO"><use xlink:href="#AN"/></clipPath><g clip-path="url(#AO)" class="B"><ellipse transform="matrix(-.0338 -.9994 .9994 -.0338 348.6547 359.0081)" cx="347.863" cy="10.973" rx="1.199" ry=".379"/><ellipse transform="matrix(-.0318 -.9995 .9995 -.0318 337.7103 349.7887)" cx="338.274" cy="11.325" rx="1.198" ry=".379"/></g><defs><path id="AP" d="M376.633 5c5.4 7.8 7.4 17.6 7.4 25.6l-.2 7.2c-.6 5.4-1 11.4-2.2 17.2-.6 3.8-1.8 7.8-2.8 11.602-.6 2.8-1.4 6-1.8 9-.4 1.8-.602 4.198-.602 6.198 0 1-.2 4.802-2.6 4.802-1.2 0-2-3.2-2-3.397 0-.603-.6-1.804-.6-2.603-.2-12.2-6-25.397-7.602-37.397l-.6-6.4V23.4c.397-6 1.6-12 5.397-18-1-1-2.198-2.4-2.6-3.4v-.6c.8 1 2.6 3.2 3.198 3.2.4 0 1.802-1.4 2.802-1.6h.8c1.2 0 2 .2 3.398 1.4 1-1 2.2-2.2 3-3.2-.19.8-1.19 2.8-2.39 3.8z"/></defs><clipPath id="AQ"><use xlink:href="#AP"/></clipPath><g clip-path="url(#AQ)" class="B"><ellipse transform="matrix(-.0338 -.9994 .9994 -.0338 379.52 388.7914)" cx="377.692" cy="10.945" rx="1.199" ry=".378"/><ellipse transform="matrix(-.0322 -.9995 .9995 -.0322 368.631 379.6145)" cx="368.106" cy="11.334" rx="1.198" ry=".377"/></g><defs><path id="AR" d="M406.8 5c5.4 7.8 7.4 17.6 7.4 25.6l-.2 7.2c-.602 5.4-1 11.4-2.2 17.2-.6 3.8-1.8 7.8-2.8 11.602-.602 2.8-1.398 6-1.8 9-.4 1.798-.6 4.198-.6 6.198 0 1-.2 4.802-2.6 4.802-1.2 0-2-3.2-2-3.397 0-.603-.6-1.804-.6-2.603-.2-12.2-6-25.397-7.602-37.397l-.602-6.4V23.4c.4-6 1.602-12 5.4-18-1-1-2.2-2.4-2.6-3.4v-.6c.8 1 2.6 3.2 3.2 3.2.398 0 1.8-1.4 2.8-1.6h.8c1.2 0 2 .2 3.4 1.4 1-1 2.2-2.2 3-3.2C409 2 408 4 406.8 5z"/></defs><clipPath id="AS"><use xlink:href="#AR"/></clipPath><g clip-path="url(#AS)" class="B"><ellipse transform="matrix(-.0338 -.9994 .9994 -.0338 410.6909 418.9453)" cx="407.853" cy="10.955" rx="1.199" ry=".38"/><ellipse transform="matrix(-.0326 -.9995 .9995 -.0326 399.9426 409.7591)" cx="398.275" cy="11.326" rx="1.198" ry=".379"/></g><g class="B"><ellipse transform="matrix(-.0338 -.9994 .9994 -.0338 441.8781 449.0926)" cx="438.019" cy="10.954" rx="1.199" ry=".379"/><ellipse transform="matrix(-.0322 -.9995 .9995 -.0322 430.9182 439.9126)" cx="428.443" cy="11.327" rx="1.198" ry=".38"/><ellipse transform="matrix(-.033 -.9995 .9995 -.033 472.3936 478.939)" cx="467.894" cy="10.939" rx="1.199" ry=".378"/><ellipse transform="matrix(-.0326 -.9995 .9995 -.0326 461.9075 469.7186)" cx="458.275" cy="11.318" rx="1.198" ry=".377"/></g></svg>