<svg xmlns="http://www.w3.org/2000/svg" xmlns:xlink="http://www.w3.org/1999/xlink" width="400" height="108"><style><![CDATA[.B{fill:#28334c}.C{fill:#232c56}]]></style><path fill="#f2491c" d="M368.77 91.502c1 1.398 3.396 2 4 4.2-.2 0-.4.198-.8.198-1 0-4.398-3.603-4.603-4.398-.604-1.8-1.2-5-1.2-5.4v-.6c.804 2 1.403 4 2.604 6zm-350 0c1 1.398 3.4 2 4 4.2-.2 0-.4.198-.8.198-1 0-4.4-3.603-4.6-4.398-.6-1.8-1.2-5-1.2-5.4v-.6c.8 2 1.4 4 2.6 6zm306-1.8c1.2 1.198 3 1.6 4.396 2.6v.8h-1.396c-3.604-.6-6.4-5.6-7-8.2 1.2 1.6 2.4 3.6 4 4.8zm-248-.6c1.4 1 3 .604 4.6 2.4-.2.398-.8.6-1.2.6-3.6 0-7-4.6-8-7.6 1.4 1.6 2.8 3.398 4.6 4.6zm199.6 10v.8h-.8c-.8-1.196-1.6-2.6-1.8-3.8-.8-3.6-2-10.396-2-10.8v-1l4.602 14.8zm-42-1.4c-.2.198 0 .198-.602.198-1.398 0-3.603-4.603-3.8-5-1.2-3-2.604-6-3.804-9 2.805 4.602 6.005 9.202 8.205 13.802zm-102.8.198v.802h-.8c-3.8-4.802-4.2-10-6.2-14.802l7 14zm148.4-10.598c1.4.8 3.4.6 5.2 1.6v.604c-.4.2-.8.396-1.4.396-3.396 0-6.6-2.6-8.8-6.396 1.6 1.393 3.2 2.995 5 3.795zm-88.2 7v.6c-.2 0-.2.2-.6.2-1.4 0-5.2-4.8-5.8-5.396-1.4-2-3.2-4.2-4.8-6.397l11.2 10.993zm176-8.8c2.8 2.6 7.6 9.2 7.6 11.8 0 1.2-.4 1.4-1 1.4-2.2 0-5.8-3.4-7.6-3.4-.604.6-1 1.4-1.4 2.2-.6 1.2-1.4 8.8-5.8 8.8-1.602 0-2.4-3.6-2.4-4.2 0-6.2 2.4-12.8 4.6-18.8.4.6 1 1.4 1 2 0 0-4 11.8-4 13.8 0 .8-.195 1.2.805 2 .195 0 .6-.396.6-.6.604-2 1.2-4.2 1.4-6.2l.6-3.6c.4-1.6.604-3.2.803-4.802 1 .2 1 1 1 1.602 0 .398-.398 4.2-.398 4.8 0 1-.2 2 .8 2 1.2 0 1.4-1.6 1.4-1.8 0-.4-.8-5.2-.8-5.8 0-.4.8-1 1-1.4.197-.6.397-1.4.8-2.2.2.798.4 1.798 1 2.4zm-350 0c2.6 2.398 7.6 8.8 7.6 11.8 0 1.2-.4 1.4-1 1.4-2.2 0-5.8-3.4-7.6-3.4-.6.6-1 1.4-1.4 2.2-.6 1.2-1.4 8.8-5.8 8.8-1.6 0-2.4-3.6-2.4-4.2 0-6.2 2.4-12.8 4.6-18.8.4.6 1 1.4 1 2 0 0-4 11.8-4 13.8 0 .8-.2 1.2.8 2 .2 0 .6-.396.6-.6.6-2 1.2-4.2 1.4-6.2l.6-3.6c.4-1.6.6-3.2.8-4.802 1 .802 1 .602 1 1.602 0 .398-.4 4.2-.4 4.8 0 1-.2 2 .8 2 1.2 0 1.4-1.6 1.4-1.8 0-.4-.8-5.2-.8-5.8 0-.4.6-.802 1-1.4.2-.6.4-1.4.8-2.2.2.798.4 1.798 1 2.4zm115.8.2c1.8.4 3.6-.2 5.2 1-.8.8-2.4.8-2.4.8-3.4 0-4.8-.8-8.8-4.8 2 1.198 3.8 2.6 6 3zm100 2.8v1.2c-.2 0-.2.198-.8.198-1 0-5.2-6.198-5.8-7.398 2.2 1.8 6.6 5.398 6.6 6zm-102 1c0 .398 0 .6-.2 1h-.8c-2.2-2.4-3.8-5.8-5.2-8 .8.8 6.2 6 6.2 7zm103.2-4.8c1.396.4 4-.6 5.6.4v.6c-1 .6-2 .6-3 .6-3.8 0-3.8-.4-8.4-4 1.798.8 3.597 2 5.798 2.4zm87.6-.4c1.2.8 3 1.6 4.398 2.8.8.8 5.8 5.4 5.8 7.4 0 1-1.604.8-1.8.8-2.398 0-5.2-1.6-7.398-1.4-1 1.804-.8 3.4-1 5.4-.2.8 0 2.2-.4 3.4-.2.8-2.2 3.6-3.2 3.6-3.196 0-3.8-8.8-3.8-9.2v-5.396c.4-2.397.604-5 .8-7.397.4.197 1 .6 1.4.8-.4 3.6-.8 10.2-.8 10.8 0 1.4-.2 3.4 1.2 5.2h.8v-6l-.8-10c.2 0 .4-.2 1-.2.2 1.602.6 8.602 2.2 8.602.602 0 1-.8 1.2-1.4l-3-7.8c.6-.8 1-1.6 1.396-2.397.605.787 1.005 1.587 2.005 2.387zm-248.6-.6c1.2.8 2.8 1.6 4.6 2.6 1.6 1 6.2 4.8 6.2 6.8 0 1.2-1.6 1-2 1-.6 0-4.6-.8-6.8-1-1.6 2.8-.6 4-.6 6.604 0 1.196-.4 6.196-3.4 6.196-1 0-2.4-1-3-2.6-1-2.8-1.8-7.2-1.8-10.2l.2-9c.4.2.8.4 1.4.4v11.2c.4 1.4 0 3.8 1.6 5.198h.6c.2-.198.4-.398.4-.603l-2.2-15.8c.2 0 .6-.2.8-.396.6 1.8 1.6 9 3 9 .6 0 1-.804 1.2-1.4l-3.8-8c.6-.6 1.2-1.4 1.6-2 .4.6 1 1.4 2 2zm115.2 2.8c0 .398-.2.6-.2.8h-1l-7-5.8c1 .398 8.2 3.398 8.2 5zm0-4.602c1.6 0 3.2-1 4-1h1.6s.2-.198.2.397c0 1.2-4.8 2-5.2 2-2 0-5-1.8-6.8-2.397 2.2.402 5.6 1 6.2 1zm87.8.802c1.2.6 12 4.198 12 7.6 0 .6-1.2 1.2-1.604 1.2h-7c-.396.398-.604 1.2-.604 1.398 0 .397 1 6.802 1 7.397 0 .804-.6 4.603-2.6 4.603-2.2 0-3.8-3.8-4.6-5.398-2.4-5.2-2.4-11-3.4-15.8.4-.2 1-.2 1.4-.2.2 0 .6-.4 1-.602 1.2 2.397 3.2 9.2 4.6 9.2.8 0 1-1.2 1-1.4 0-1.4-5-7.6-5.2-8 .4-.4.8-.6 1-1 .2-.2.2-.6.2-1 .81.8 1.608 1.6 2.81 2zm-147.8-1.2c1.2.398 3 .398 4.6.8 1.4.2 8.8 2.4 8.8 5 0 2.8-8.8.8-8.8 3.2 0 .6 2.6 8.2 2.6 8.8 0 1-1 4-2.4 4-2.4 0-4.6-4-5-4.4-3.8-5.6-4.4-10.8-6.4-16.196 1-.397 2.6-.397 4-1.397-.2-.603-.6-1.2-1.2-1.803 1.2.595 2.4 1.595 3.8 1.995zm101.2-.602c1.2.397 3 .2 4.4.397.4 0 9.6 2.4 9.6 4.4s-8.6 2.196-8.6 3.8c0 .396.4 1.8.8 2.604 1 2.8 2.398 4 2.398 6.396 0 1.2-.398 3.8-2.2 3.8-1.4 0-3.6-2.196-4.8-3.6-4.398-5.604-5.8-11-8.2-16.4.8-.196 2-.6 2.4-.6.6 0-.2.396.396.396.396 0 .8-.6 1.197-.8-.197-.6-.8-1.4-1.397-2.2 1.205.61 2.404 1.61 4.005 1.807zm-46.6-1.398c.6 0 2.2-.602 3.6-.8.8-.2 2.6 0 3 0 1 0 8.4-.2 8.4 2 0 2-7.4 3.8-7.4 5.4 0 2.396 5.4 5.6 5.4 9.6 0 2-.6 2.8-2.2 2.8-3.8 0-10.4-7.4-12.6-10.8-1.6-2.6-3.6-4.802-5.2-7.2 1 .2 2.6 0 4 1 .2-.2.6-.4.8-.602l-2.8-2.603c2 .603 4.6 1.205 5 1.205z"/><path fill="#ffaf9f" d="M364.984 86.8l.6 5.802c0 .398-.2 1-.6 1.603h-1.2c.2-4.804.4-6.2 0-7.4l1.2-.006zm-350 0l.6 5.802c0 .398-.2 1-.6 1.603h-1.2c.2-4.804.4-6.2 0-7.4l1.2-.006zM369.186 92c.8 1 2.603 2 3.603 3.2v.6c-.2.2-.2.2-.804.2-1.196 0-3.6-2.398-4.196-3.398-.804-1.602-1.396-4.397-1.396-4.802v-1.6c.793 1.8 1.39 3.8 2.793 5.8zm-350 0c.8 1 2.6 2 3.6 3.2v.6c-.2.2-.2.2-.8.2-1.2 0-3.6-2.398-4.2-3.398-.8-1.602-1.4-4.397-1.4-4.802v-1.6c.8 1.8 1.4 3.8 2.8 5.8zm340.8 9h-.604c-.396-.6-.396-1.398-.396-1.8 0-4 2.8-10 3.8-13.4-.598 4.4-1.598 10-2.8 15.2zm-350 0h-.6c-.4-.6-.4-1.398-.4-1.8 0-4 2.8-10 3.8-13.4-.6 4.4-1.6 10-2.8 15.2zm308.4-1.2c0 .4 0 1.4-.6 1.4-.8 0-1.2-2.4-1.2-2.4v-6c.2-2.4.4-5 .8-7.4l1 14.4zm7-9.6c1.4 1 2.8.6 4 2.4v.6h-1.8c-1.2-.6-2.8-1.2-3.8-2.4-1.6-1.4-3-4.8-3-5.198V85c1.402 1.8 2.6 3.8 4.6 5.2zm-254.4 10.6s0 .2-.4.2c-1.4 0-1.8-4.8-1.8-5V84.8c.6 5 1.6 8.802 2.2 16zm250.8-8.6c0 .4-.4 1.2-1 1.2s-.6-.2-.8-.4l-1.2-7v-1.398c1.2 2.398 3 7 3 7.598zm-45.4 6.6v1.2h-.8c-.8-1.2-1.6-2.398-1.8-3.6-.8-3.4-2-10.2-2-10.604V84.6l4.6 14.2zm-199.2-9.4c1 .8 3.4.8 4.2 2.2 0 0-.2.396-.4.396-.2.2-.4.2-.8.2-3.6 0-7-4.602-8-7.602 1.4 1.608 3 3.408 5 4.808zm157.2 8v.6h-1c-1.2-1.2-2.2-2.398-2.8-3.6-1.4-3-4.2-9-4.2-9.4v-.6l8 13zm-102.6 1.202c-.2.198-.2.198-.6.198-2 0-6.4-13.6-6.4-13.8v-.6l7 14.202zm-58-6.802c0 1-.8 1.2-1 1.2-.6 0-.4 0-.6-.2l-2-7.6V84c1.2 2.602 3.6 7.4 3.6 7.8zm206.8-4.198c1.4.8 3.2.198 4.8 1.603-.2.8-1.2.8-1.6.8-3.4 0-6.6-2.396-8.6-6.2 1.8 1.394 3.402 2.994 5.402 3.796zm-88.8 6.798v.6c-.2.2-.2.2-.6.2-2.8 0-9-9.4-10.2-11.4l10.8 10.6zm86-3.6c0 1-.4 1.2-.8 1.2-.604 0-.8-.398-1-.8-1.2-2.4-3-6.8-3-7.2v-.6c.202.202 4.8 6 4.8 7.4zm-139.2-4.6c0 .2.2 0 .2.6 0 .4-.4.6-.6.802h-3.6c-2 0-5-2.802-6.8-4.602 3.2 2 6.8 3.4 10.8 3.2zm95 2.8c0 .8-.4 1-.8 1-1 0-5.4-6.6-5.6-7.2.202.2 6.402 4.6 6.402 6.2zm1.4-4.2c1.6.4 3.8-.8 5.6.6-1.2 1.2-2.2 1.2-3.2 1.2-3.4 0-4-.602-8-4 1.8.798 3.6 1.798 5.6 2.198zm-103.2 4.802c0 .603-.4 1.198-1 1.198-1.2 0-4.4-6.198-5.4-8.198.4.398 6.4 5.798 6.4 7zm57.2-3.402v1.2c-.2 0-.2.2-.6.2-1 0-6.4-4.804-7-5.604 2.4.805 5.2 2.205 7.6 4.205zm0-4.2c1.2 0 3-1 3.8-1h1.8c.2.2.2 0 .2.4 0 1.396-5.2 2-5.2 2-2.2 0-3.8-1.2-6.2-2.4 1.8.4 5 1 5.6 1z"/><path d="M366.8 5.2c5.2 7.8 7.4 17.8 7.4 26l-.2 7c-.6 6.6-1.2 13.2-2.8 19.8-1.2 5-2.6 10.2-3.6 15.602C367 77 366.8 81 366.2 84.8c-.2 1.4-1.2 2-2.2 2-1.2 0-2-3.198-2-3.4 0-.6-.6-1.8-.6-2.6 0-12.8-6.8-26.6-7.8-39.2 0-1.4-.4-4.2-.4-4.6V23.6c.4-6 1.6-12 5.4-18-1-1-2.2-2.4-2.604-3.4v-.6c.8 1 2.604 3.2 3.2 3.2.398 0 1.8-1.4 2.8-1.6h.8c1.2 0 1.604.6 3.397 1.4 1-1 2.2-2.2 3-3.2C369 2.2 368 4.2 366.8 5.2zm-57.6-.4c1.8-1 2.6-1.6 3.6-1.6 1.4 0 2.4 1.2 3.2 1.2.4 0 2.2-2 2.8-3 0 2-2 3.2-2 3.8s2 3.2 2.6 4.6C323 17 324 24 324 30.8c0 8.8-.398 14.2-2.2 24-1 5.6-2.4 12.6-2.4 18.6 0 .396 0 4.2.396 6.2 0 .6.604 2 .604 2.6 0 1.2-2.2 3-3 3-2.604 0-4.2-6.2-4.2-6.4a62.32 62.32 0 0 0-1.601-5.8c-1.4-5.2-3.2-10.6-4.804-16-1-3.6-3.603-15.4-3.603-20.8V24.4c.2-1.2.2-2.6.4-3.8.198-1 .398-2 .398-3 .602-2.4 1.2-5.2 2.2-7.6.397-1.4 2.397-4 2.397-4.4 0-.6-2.397-3.2-2.397-3.6v-.6c.8 1 1.8 2.2 3 3.4zm-292.4.4a49.07 49.07 0 0 1 7.4 26l-.2 7c-.6 6.6-1.2 13.2-2.8 19.8-.6 2.602-1.4 5.8-2.2 8.8-1.4 6-2 12-2.8 18-.2 1.4-1.2 2-2.2 2-1.6 0-2-3.6-2-3.6 0-.4-.6-1.8-.6-2.6-.2-13-6.6-26.203-7.8-39 0-1.4-.4-4.2-.4-4.6V23.6c.4-6 1.6-12 5.4-18-1-1-2.2-2.4-2.6-3.4v-.6c.8 1 2.6 3.2 3.2 3.2.4 0 1.8-1.4 2.8-1.6h.8c1.2 0 2 .2 3.4 1.4 1-1 2.2-2.2 3-3.2-.2.8-1.2 2.8-2.4 3.8zm50 0c0 .4 2.2 3.4 2.8 5 3.2 7.2 4.4 13.6 4.4 20.6 0 10.2-1.4 20-3.4 30.2-.4 1.4-.6 3.4-.6 5-.2 3.4-.2 4.2-.2 4.602 0 .603.2 4.8.6 7C70.6 79 71.6 81.4 71.6 81.8c0 1.4-2.8 3-3.4 3-.8 0-1.8-1.4-2.2-1.8-2-2.8-2.8-6.6-3.8-9.2-2-5.6-3.8-11.198-5.4-16.8-1.6-6-3.6-15-3.6-21.6v-9.8c.2-1.4.2-3 .4-4.6.2-1 .2-2.2.4-3.4.6-2.4 1.2-5.2 2.2-7.6.4-1.4 2.4-4 2.4-4.4 0-.2-2.4-2.6-2.2-4.2.6 1 1.6 2.2 2.8 3.4 1.8-1 2.6-1.6 3.6-1.6 1.4 0 2.4 1.2 3.2 1.2.4 0 2-2 2.8-3.2 0 2-2 3.2-2 4zm196-2c1.2 0 2 .2 3.2 1.4 1-1.2 2-2.4 2.602-3.6 0 1.4-1 2.8-2 4.2C271.8 12.2 274 22.8 274 30.6c0 15.2-3.6 27.8-3.6 35.6 0 4 .396 8.6 2.396 13 .2.6 1.2 1.6 1.2 2.2 0 1-3.2 2.396-3.396 2.396-3.2 0-6.4-7.6-6.804-8.396-4.196-8.8-7.196-17.604-9-26.4-.8-3.4-1.396-10-1.396-10.4V22.8c.2-1 .396-2.2.396-3.2.4-3.8 1.4-7.8 3.2-11.4.396-1 1.604-2.2 1.604-2.6 0-.6-1.2-1.4-1.604-2.2-.396-.6-.396-1.4-.598-2.4.6 1 1.6 2.4 2.8 3.8 1.8-1 2.6-1.6 3.6-1.6zm-50 0c1.2 0 2 .6 3.2 1.2.8-1 1.602-2.2 2.2-3.2 0 0 .2-.2.2.4 0 .4-1.8 3-1.8 3.6 0 .4 2.196 3.2 2.8 4.8 3.8 8.8 4.396 12.8 4.396 20.6 0 13-3 26.8-3 32.8 0 5.2 1.397 12.396 7 17.8 0 .2-.396.4-.603.4-.8.196-2.397.6-2.8.6-3 0-6.396-3-8.6-6.4-2.8-4.4-5.6-9.198-7.198-13.6-2-5.2-5.2-18.2-5.2-24.4V23.6c.2-1.2.2-2.4.4-3.6.2-3.8 1.4-8 3.2-11.8.4-1 1.602-2.2 1.602-2.6 0-.6-1.602-3-2-4.4.8 1 1.8 2.4 2.8 3.6 1.008-1.4 2.408-1.6 3.408-1.6zM109.4 4.8c1-1.4 2.4-1.6 3.4-1.6 1.4 0 2.4 1.2 3 1.2s2-2.2 2.6-3.4c0 1.4-1 2.8-1.8 4.2 1.4 1.6 2.6 4.4 3.4 6.2.2.2 3.8 11.6 3.8 14v10.8L120.6 64c.2 5.602 1 11.602 6 17.4-1.2.6-3.2 1.396-3.8 1.396-2.8 0-6.8-5.6-8-7.6-2-3.803-4-7.4-5.6-11.2-3.2-7.8-4.8-15.6-5.6-23.4 0-.8-.2-2.2-.2-2.6V22.8c.2-1 .2-2.2.4-3.4.2-.8.4-1.8.4-2.6.4-1 .4-2.4.8-3.2.4-1.6.8-3.2 1.6-4.6.4-1.2 2-3 2-3.4 0-.6-2-3.4-2-3.8v-1c0 1 1.6 2.6 2.8 4zm50 0c1-1.4 2.4-1.6 3.4-1.6 1.2 0 1.4 0 3 1.2 1-1.2 1.8-2.4 2.2-3.6 0 0 .2-.2.2.4 0 1.2-1.6 3-1.6 3.8 0 .6 1.6 2.4 2 3.4 3.2 6.6 5.2 14.2 5.2 21.4 0 12-2.8 25.2-2.8 32 0 5 1.6 12.802 8.4 17.2.6.4 1.4 1.2 2 2-.4.2-.8.2-1.2.2-3.4 0-8.6-2-11.6-5-4.4-4.2-7.4-9-9.6-13.4-2.6-5.4-5.6-19.2-5.6-26V24.4c.2-1.2.2-2.6.4-4 .2-3.8 1.4-8.6 3.2-12.2.4-1 1.6-2.2 1.6-2.8 0-.4-1.6-2.8-1.6-3.2V.6c.6 1.4 1.4 2.8 2.4 4.2z" fill="#f2491c"/><g class="B"><ellipse transform="matrix(-.0336 -.9994 .9994 -.0336 7.5043 29.1996)" cx="17.869" cy="10.972" rx="1.199" ry=".378"/><ellipse transform="matrix(-.0324 -.9995 .9995 -.0324 -2.78 19.9469)" cx="8.265" cy="11.319" rx="1.198" ry=".378"/><ellipse transform="matrix(-.0336 -.9994 .9994 -.0336 59.0818 79.0674)" cx="67.768" cy="10.969" rx="1.199" ry=".378"/><ellipse transform="matrix(-.0322 -.9995 .9995 -.0322 48.7261 69.8202)" cx="58.167" cy="11.319" rx="1.198" ry=".378"/><ellipse transform="matrix(-.0336 -.9994 .9994 -.0336 111.075 129.3322)" cx="118.066" cy="10.964" rx="1.199" ry=".378"/><ellipse transform="matrix(-.0322 -.9995 .9995 -.0322 100.6428 120.0981)" cx="108.467" cy="11.323" rx="1.198" ry=".378"/><ellipse transform="matrix(-.0336 -.9994 .9994 -.0336 162.649 179.2025)" cx="167.964" cy="10.965" rx="1.199" ry=".378"/><ellipse transform="matrix(-.0324 -.9995 .9995 -.0324 152.1823 169.9751)" cx="158.368" cy="11.323" rx="1.198" ry=".378"/><ellipse transform="matrix(-.0334 -.9994 .9994 -.0334 214.3925 229.2594)" cx="218.06" cy="10.956" rx="1.199" ry=".378"/><ellipse transform="matrix(-.0318 -.9995 .9995 -.0318 203.7644 220.0466)" cx="208.462" cy="11.33" rx="1.198" ry=".378"/><ellipse transform="matrix(-.033 -.9995 .9995 -.033 265.8546 279.164)" cx="267.979" cy="10.969" rx="1.199" ry=".379"/><ellipse transform="matrix(-.033 -.9995 .9995 -.033 255.5756 269.9336)" cx="258.371" cy="11.33" rx="1.198" ry=".377"/><ellipse transform="matrix(-.0334 -.9994 .9994 -.0334 317.5266 328.9937)" cx="317.856" cy="10.949" rx="1.199" ry=".378"/><ellipse transform="matrix(-.0326 -.9995 .9995 -.0326 307.0091 319.7935)" cx="308.27" cy="11.319" rx="1.198" ry=".378"/><ellipse transform="matrix(-.0338 -.9994 .9994 -.0338 369.2471 378.863)" cx="367.756" cy="10.947" rx="1.199" ry=".378"/><ellipse transform="matrix(-.0326 -.9995 .9995 -.0326 358.524 369.6902)" cx="358.176" cy="11.335" rx="1.198" ry=".377"/></g><g class="C"><path d="M13.665 14.792s-.334.417-.667.75-1 1.083-.833 1.333.974.833.737 1.083-.18.583 0 1.083.097.417.763.667 1.75-.167 2.333 0 1.5-.5 1.667-1-.25-1.25 0-1.417-.17-.916.04-1.166.042-1.333.042-1.333l-1.916-.5c-.001 0-1.5-.25-2.167.5z"/><use xlink:href="#B"/><path d="M8.56 35.185s-1.653 2.133-1.787 2.667-2.23.4-.848 2.267.582.933 1.382 1.867.045.723.667 1.734-.9.69.622 1.01 1.96-.19 2.67 0 1.775.322 1.91-1.278-.4-2.878 0-3.44 1.6-.56 1.734-1.36.124-2.532-.534-2.667-.8-.268-1.333-.134-1.818.001-1.775.267-1.05-.934-1.05-.934-.906-1.007-1.657 0z"/><use xlink:href="#C"/><use xlink:href="#D"/><use xlink:href="#E"/><use xlink:href="#F"/></g><defs><path id="A" d="M16.8 5c5.4 7.8 7.4 17.6 7.4 25.6l-.2 7.2c-.6 5.4-1 11.4-2.2 17.2-.6 3.8-1.8 7.8-2.8 11.602-.6 2.8-1.4 6-1.8 9-.4 1.798-.6 4.198-.6 6.198 0 1-.2 4.802-2.6 4.802-1.2 0-2-3.2-2-3.397 0-.603-.6-1.804-.6-2.603-.2-12.2-6-25.397-7.6-37.397l-.6-6.4V23.4c.4-6 1.6-12 5.4-18C7.6 4.4 6.4 3 6 2v-.6c.8 1 2.6 3.2 3.2 3.2.4 0 1.8-1.4 2.8-1.6h.8c1.2 0 2 .2 3.4 1.4 1-1 2.2-2.2 3-3.2C19 2 18 4 16.8 5z"/><path id="B" d="M7.85 24.71c-.815 1.156-1.22.917-1.22 1.832s-.102 1.22 0 1.83-1.12.812-1.017 1.32-.397.896-.006 1.627.417.68 1.045 1.02-.835.31 1.198.713.508 1.012 2.033.402 1.728.305 1.83-1.22-.813-1.728 0-2.033 1.22-.658 1.524-1 .407-1.043 0-1.754-.915-1.12-.915-1.12-.203-.304-.915-.406-.813-1.223-1.118-1.222-2.055-.546-2.44-.001z"/><path id="C" d="M9.128 54.667s-.167 2.75 0 3.166-1.083-.083.167.417l1.25.5s.203.083.56-.417.2-1.167.857-1.25l.666-.083s.25.083.333-1 .25-1.833-.333-2-.833 0-1.25 0 .002-.25-.79 0-.542-.417-.792.25-.667.417-.667.417z"/><path id="D" d="M11.663 51.21s-1.737-3.822 0-4.17 6.08 0 6.08 0 1.738-.328 1.216 2.007-1.725 1.99-1.905 3.03-.18 1.39-.875 1.042l-.695-.348-2.78-1.912-1.043.35z"/><path id="E" d="M17.355 61.375s-3.027.312-2.975.625-.053.75 0 1.188-.146.688-.015 1.312-.725.562.015 1.062-.5.312.74.5 2.094.812 2.234-.438-.203-1.75 0-2-.11-.312.328-.562.625-.75.5-1-.827-.687-.827-.687z"/><path id="F" d="M19.185 30.948s-2.096.45-2.246.75-1.123.823-.674 1.722.71.6 1.103 1.572.053.973.298 1.946.096 1.422.77 1.946-1.347 1.422.674.524 2.47-1.497 2.545-2.32.075-1.198 0-2.32.143-2.35.056-2.79.618-.88-.505-1.03-2.02 0-2.02 0z"/><path id="G" d="M63.564 14.792s-.334.417-.667.75-1 1.083-.833 1.333.974.833.737 1.083-.18.583 0 1.083.097.417.763.667 1.75-.167 2.333 0 1.5-.5 1.667-1-.25-1.25 0-1.417-.17-.916.04-1.166.042-1.333.042-1.333l-1.916-.5s-1.5-.25-2.167.5z"/><path id="H" d="M58.458 35.185s-1.653 2.133-1.787 2.667-2.23.4-.848 2.267.582.933 1.382 1.867.045.723.667 1.734-.9.69.622 1.01 1.96-.19 2.67 0 1.775.322 1.91-1.278-.4-2.878 0-3.44 1.6-.56 1.734-1.36.124-2.532-.534-2.667-.8-.268-1.333-.134-1.818.001-1.775.267-1.05-.934-1.05-.934-.905-1.007-1.657 0z"/><path id="I" d="M108.048 24.71c-.815 1.156-1.22.917-1.22 1.832s-.102 1.22 0 1.83-1.12.812-1.017 1.32-.397.896-.006 1.627.417.68 1.045 1.02-.835.31 1.198.713.508 1.012 2.033.402 1.728.305 1.83-1.22-.813-1.728 0-2.033 1.22-.658 1.524-1 .407-1.043 0-1.754-.915-1.12-.915-1.12-.203-.304-.915-.406-.813-1.223-1.118-1.222-2.054-.546-2.44-.001z"/><path id="J" d="M213.857 14.792s-.334.417-.668.75-1 1.083-.832 1.333.973.833.736 1.083-.18.583 0 1.083.097.417.764.667 1.75-.167 2.332 0 1.5-.5 1.668-1-.25-1.25 0-1.417-.17-.916.04-1.166.042-1.333.042-1.333l-1.916-.5s-1.5-.25-2.166.5z"/><path id="K" d="M208.04 24.71c-.814 1.156-1.22.917-1.22 1.832s-.102 1.22 0 1.83-1.118.812-1.017 1.32-.398.896-.006 1.627.416.68 1.045 1.02-.836.31 1.197.713.508 1.012 2.033.402 1.727.305 1.83-1.22-.813-1.728 0-2.033 1.22-.658 1.524-1 .406-1.043 0-1.754-.914-1.12-.914-1.12-.203-.304-.916-.406-.812-1.223-1.117-1.222-2.053-.546-2.438-.001z"/><path id="L" d="M208.75 35.185s-1.653 2.133-1.787 2.667-2.23.4-.85 2.267.582.933 1.383 1.867.045.723.666 1.734-.9.69.622 1.01 1.962-.19 2.67 0 1.775.322 1.91-1.278-.4-2.878 0-3.44 1.6-.56 1.733-1.36.124-2.532-.534-2.667-.8-.268-1.333-.134-1.817.001-1.775.267-1.05-.934-1.05-.934-.904-1.007-1.655 0z"/><path id="M" d="M209.32 54.667s-.167 2.75 0 3.166-1.083-.083.167.417l1.25.5s.202.083.56-.417.2-1.167.857-1.25l.666-.083s.25.083.334-1 .25-1.833-.334-2-.834 0-1.25 0 .002-.25-.79 0-.542-.417-.792.25-.667.417-.667.417z"/><path id="N" d="M211.855 51.21s-1.737-3.822 0-4.17 6.08 0 6.08 0 1.738-.328 1.217 2.007-1.725 1.99-1.904 3.03-.18 1.39-.876 1.042l-.695-.348-2.78-1.912-1.043.35z"/><path id="O" d="M217.547 61.375s-3.027.312-2.975.625-.053.75 0 1.188-.145.688-.015 1.312-.726.562.015 1.062-.5.312.74.5 2.094.812 2.234-.438-.203-1.75 0-2-.11-.312.328-.562.625-.75.5-1-.827-.687-.827-.687z"/><path id="P" d="M219.377 30.948s-2.096.45-2.245.75-1.123.823-.674 1.722.71.6 1.103 1.572.053.973.3 1.946.096 1.422.77 1.946-1.348 1.422.674.524 2.47-1.497 2.545-2.32.074-1.198 0-2.32.143-2.35.057-2.79.617-.88-.506-1.03-2.023 0-2.023 0z"/><path id="Q" d="M313.857 14.792s-.334.417-.668.75-.998 1.083-.832 1.333.973.833.736 1.083-.18.583 0 1.083.098.417.764.667 1.75-.167 2.332 0 1.502-.5 1.668-1-.25-1.25 0-1.417-.17-.916.04-1.166.04-1.333.04-1.333l-1.916-.5s-1.5-.25-2.166.5z"/><path id="R" d="M308.752 35.185s-1.654 2.133-1.787 2.667-2.23.4-.85 2.267.582.933 1.383 1.867.045.723.666 1.734-.89.69.623 1.01 1.96-.19 2.67 0 1.775.322 1.908-1.278-.4-2.878 0-3.44 1.602-.56 1.734-1.36.123-2.532-.535-2.667-.8-.268-1.332-.134-1.818.001-1.775.267-1.05-.934-1.05-.934-.904-1.007-1.654 0z"/><path id="S" d="M309.32 54.667s-.166 2.75 0 3.166-1.082-.083.168.417l1.25.5s.2.083.56-.417.19-1.167.857-1.25l.666-.083s.25.083.334-1 .25-1.833-.334-2-.834 0-1.25 0 .002-.25-.79 0-.54-.417-.79.25-.668.417-.668.417z"/><path id="T" d="M311.855 51.21s-1.736-3.822 0-4.17 6.08 0 6.08 0 1.738-.328 1.217 2.007-1.725 1.99-1.904 3.03-.18 1.39-.875 1.042l-.695-.348-2.78-1.912-1.044.35z"/><path id="U" d="M317.547 61.375s-3.027.312-2.975.625-.053.75 0 1.188-.145.688-.014 1.312-.727.562.014 1.062-.5.312.74.5 2.094.812 2.234-.438-.203-1.75 0-2-.11-.312.328-.562.625-.75.5-1-.827-.687-.827-.687z"/><path id="V" d="M319.377 30.948s-2.096.45-2.244.75-1.123.823-.674 1.722.71.6 1.102 1.572.053.973.3 1.946.096 1.422.77 1.946-1.348 1.422.674.524 2.47-1.497 2.545-2.32.074-1.198 0-2.32.143-2.35.057-2.79.617-.88-.506-1.03-2.023 0-2.023 0z"/></defs><clipPath id="W"><use xlink:href="#A"/></clipPath><g clip-path="url(#W)" class="B"><ellipse transform="matrix(-.0336 -.9994 .9994 -.0336 7.5043 29.1996)" cx="17.869" cy="10.972" rx="1.199" ry=".378"/><ellipse transform="matrix(-.0324 -.9995 .9995 -.0324 -2.78 19.9469)" cx="8.265" cy="11.319" rx="1.198" ry=".378"/></g><g class="C"><use xlink:href="#G"/><use xlink:href="#B" x="49.9"/><use xlink:href="#H"/><use xlink:href="#C" x="49.9"/><use xlink:href="#D" x="49.899"/><use xlink:href="#E" x="49.9"/><use xlink:href="#F" x="49.9"/></g><defs><path id="X" d="M66.7 5c5.4 7.8 7.4 17.6 7.4 25.6l-.2 7.2c-.6 5.4-1 11.4-2.2 17.2-.6 3.8-1.8 7.8-2.8 11.602-.6 2.8-1.4 6-1.8 9-.4 1.798-.6 4.198-.6 6.198 0 1-.2 4.802-2.6 4.802-1.2 0-2-3.2-2-3.397 0-.603-.6-1.804-.6-2.603-.2-12.2-6-25.397-7.6-37.397l-.6-6.4V23.4c.4-6 1.6-12 5.4-18-1-1-2.2-2.4-2.6-3.4v-.6c.8 1 2.6 3.2 3.2 3.2.4 0 1.8-1.4 2.8-1.6h.8c1.2 0 2 .2 3.4 1.4 1-1 2.2-2.2 3-3.2-.2.8-1.2 2.8-2.4 3.8z"/></defs><clipPath id="Y"><use xlink:href="#X"/></clipPath><g clip-path="url(#Y)" class="B"><ellipse transform="matrix(-.0336 -.9994 .9994 -.0336 59.0808 79.0714)" cx="67.769" cy="10.972" rx="1.199" ry=".378"/><ellipse transform="matrix(-.0324 -.9995 .9995 -.0324 48.7366 69.8206)" cx="58.165" cy="11.319" rx="1.198" ry=".378"/></g><g class="C"><use xlink:href="#G" x="50.3"/><use xlink:href="#I"/><use xlink:href="#H" x="50.3"/><use xlink:href="#C" x="100.2"/><use xlink:href="#D" x="100.199"/><use xlink:href="#E" x="100.2"/><use xlink:href="#F" x="100.2"/></g><defs><path id="Z" d="M117 5c5.4 7.8 7.4 17.6 7.4 25.6l-.2 7.2c-.6 5.4-1 11.4-2.2 17.2-.6 3.8-1.8 7.8-2.8 11.602-.6 2.8-1.4 6-1.8 9-.4 1.8-.6 4.198-.6 6.198 0 1-.2 4.802-2.6 4.802-1.2 0-2-3.2-2-3.397 0-.603-.6-1.804-.6-2.603-.2-12.2-6-25.397-7.6-37.397l-.6-6.4V23.4c.4-6 1.6-12 5.4-18-1-1-2.2-2.4-2.6-3.4v-.6c.8 1 2.6 3.2 3.2 3.2.4 0 1.8-1.4 2.8-1.6h.8c1.2 0 2 .2 3.4 1.4 1-1 2.2-2.2 3-3.2-.2.8-1.2 2.8-2.4 3.8z"/></defs><clipPath id="a"><use xlink:href="#Z"/></clipPath><g clip-path="url(#a)" class="B"><ellipse transform="matrix(-.0336 -.9994 .9994 -.0336 111.0707 129.3427)" cx="118.069" cy="10.972" rx="1.199" ry=".378"/><ellipse transform="matrix(-.0324 -.9995 .9995 -.0324 100.6661 120.094)" cx="108.465" cy="11.319" rx="1.198" ry=".378"/></g><g class="C"><use xlink:href="#G" x="100.3"/><use xlink:href="#I" x="50"/><use xlink:href="#H" x="100.3"/><use xlink:href="#C" x="150.2"/><use xlink:href="#D" x="150.199"/><use xlink:href="#E" x="150.2"/><use xlink:href="#F" x="150.2"/></g><defs><path id="b" d="M167 5c5.4 7.8 7.4 17.6 7.4 25.6l-.2 7.2c-.6 5.4-1 11.4-2.2 17.2-.6 3.8-1.8 7.8-2.8 11.602-.6 2.8-1.4 6-1.8 9-.4 1.8-.6 4.198-.6 6.198 0 1-.2 4.802-2.6 4.802-1.2 0-2-3.2-2-3.397 0-.603-.6-1.804-.6-2.603-.2-12.2-6-25.397-7.6-37.397l-.6-6.4V23.4c.4-6 1.6-12 5.4-18-1-1-2.2-2.4-2.6-3.4v-.6c.8 1 2.6 3.2 3.2 3.2.4 0 1.8-1.4 2.8-1.6h.8c1.2 0 2 .2 3.4 1.4 1-1 2.2-2.2 3-3.2-.2.8-1.2 2.8-2.4 3.8z"/></defs><clipPath id="c"><use xlink:href="#b"/></clipPath><g clip-path="url(#c)" class="B"><ellipse transform="matrix(-.0336 -.9994 .9994 -.0336 162.7507 179.3145)" cx="168.069" cy="10.972" rx="1.199" ry=".378"/><ellipse transform="matrix(-.0324 -.9995 .9995 -.0324 152.286 170.0677)" cx="158.465" cy="11.319" rx="1.198" ry=".378"/></g><g class="C"><use xlink:href="#J"/><use xlink:href="#K"/><use xlink:href="#L"/><use xlink:href="#M"/><use xlink:href="#N"/><use xlink:href="#O"/><use xlink:href="#P"/></g><defs><path id="d" d="M216.992 5c5.4 7.8 7.4 17.6 7.4 25.6l-.2 7.2c-.6 5.4-1 11.4-2.2 17.2-.6 3.8-1.8 7.8-2.8 11.602-.6 2.8-1.4 6-1.8 9-.4 1.8-.6 4.198-.6 6.198 0 1-.2 4.802-2.6 4.802-1.2 0-2-3.2-2-3.397 0-.603-.6-1.804-.6-2.603-.2-12.2-6-25.397-7.6-37.397l-.6-6.4V23.4c.4-6 1.6-12 5.4-18-1-1-2.2-2.4-2.6-3.4v-.6c.8 1 2.6 3.2 3.2 3.2.4 0 1.8-1.4 2.8-1.6h.8c1.2 0 2 .2 3.4 1.4 1-1 2.2-2.2 3-3.2-.197.8-1.197 2.8-2.397 3.8z"/></defs><clipPath id="e"><use xlink:href="#d"/></clipPath><g clip-path="url(#e)" class="B"><ellipse transform="matrix(-.0334 -.9994 .9994 -.0334 214.3784 229.278)" cx="218.062" cy="10.972" rx="1.199" ry=".378"/><ellipse transform="matrix(-.0322 -.9995 .9995 -.0322 203.8557 220.033)" cx="208.458" cy="11.319" rx="1.198" ry=".379"/></g><g class="C"><use xlink:href="#J" x="50.008"/><use xlink:href="#K" x="50.01"/><use xlink:href="#L" x="50.01"/><use xlink:href="#M" x="50.008"/><use xlink:href="#N" x="50.008"/><use xlink:href="#O" x="50.008"/><use xlink:href="#P" x="50.008"/></g><defs><path id="f" d="M267 5c5.4 7.8 7.4 17.6 7.4 25.6l-.2 7.2c-.6 5.4-1 11.4-2.2 17.2-.6 3.8-1.8 7.8-2.8 11.602-.6 2.8-1.4 6-1.8 9-.4 1.8-.6 4.198-.6 6.198 0 1-.2 4.802-2.6 4.802-1.2 0-2-3.2-2-3.397 0-.603-.6-1.804-.6-2.603-.2-12.2-6-25.397-7.6-37.397l-.6-6.4V23.4c.4-6 1.6-12 5.4-18-1-1-2.2-2.4-2.6-3.4v-.6c.8 1 2.6 3.2 3.2 3.2.4 0 1.8-1.4 2.8-1.6h.8c1.2 0 2 .2 3.4 1.4 1-1 2.2-2.2 3-3.2C269.2 2 268.2 4 267 5z"/></defs><clipPath id="g"><use xlink:href="#f"/></clipPath><g clip-path="url(#g)" class="B"><ellipse transform="matrix(-.0334 -.9994 .9994 -.0334 266.0563 279.2579)" cx="268.069" cy="10.972" rx="1.199" ry=".378"/><ellipse transform="matrix(-.0322 -.9995 .9995 -.0322 255.4735 270.0149)" cx="258.465" cy="11.319" rx="1.198" ry=".379"/></g><g class="C"><use xlink:href="#Q"/><path d="M308.04 24.71c-.814 1.156-1.22.917-1.22 1.832s-.102 1.22 0 1.83-1.12.812-1.018 1.32-.398.896-.006 1.627.416.68 1.045 1.02-.836.31 1.197.713.508 1.012 2.033.402 1.727.305 1.83-1.22-.814-1.728 0-2.033 1.22-.658 1.523-1 .406-1.043 0-1.754-.914-1.12-.914-1.12-.203-.304-.916-.406-.812-1.223-1.117-1.222-2.053-.546-2.438-.001z"/><use xlink:href="#R"/><use xlink:href="#S"/><use xlink:href="#T"/><use xlink:href="#U"/><use xlink:href="#V"/></g><defs><path id="h" d="M316.992 5c5.4 7.8 7.4 17.6 7.4 25.6l-.2 7.2c-.602 5.4-1 11.4-2.2 17.2-.6 3.8-1.8 7.8-2.8 11.602-.602 2.8-1.4 6-1.8 9-.4 1.8-.6 4.198-.6 6.198 0 1-.2 4.802-2.6 4.802-1.2 0-2-3.2-2-3.397 0-.603-.602-1.804-.602-2.603-.2-12.2-6-25.397-7.6-37.397l-.6-6.4V23.4c.4-6 1.6-12 5.4-18-1-1-2.2-2.4-2.6-3.4v-.6c.8 1 2.6 3.2 3.2 3.2.4 0 1.8-1.4 2.8-1.6h.8c1.2 0 2 .2 3.4 1.4 1-1 2.2-2.2 3-3.2-.196.8-1.196 2.8-2.397 3.8z"/></defs><clipPath id="i"><use xlink:href="#h"/></clipPath><g clip-path="url(#i)" class="B"><ellipse transform="matrix(-.0334 -.9994 .9994 -.0334 317.718 329.2222)" cx="318.062" cy="10.972" rx="1.199" ry=".378"/><ellipse transform="matrix(-.0318 -.9995 .9995 -.0318 306.95 319.981)" cx="308.458" cy="11.319" rx="1.198" ry=".378"/></g><g class="C"><use xlink:href="#Q" x="49.808"/><path d="M357.85 24.71c-.814 1.156-1.22.917-1.22 1.832s-.102 1.22 0 1.83-1.12.812-1.018 1.32-.398.896-.006 1.627.416.68 1.045 1.02-.836.31 1.197.713.508 1.012 2.033.402 1.727.305 1.83-1.22-.814-1.728 0-2.033 1.22-.658 1.523-1 .406-1.043 0-1.754-.914-1.12-.914-1.12-.203-.304-.916-.406-.812-1.223-1.117-1.222-2.054-.546-2.438-.001z"/><use xlink:href="#R" x="49.808"/><use xlink:href="#S" x="49.808"/><use xlink:href="#T" x="49.808"/><use xlink:href="#U" x="49.807"/><use xlink:href="#V" x="49.808"/></g><defs><path id="j" d="M366.8 5c5.4 7.8 7.4 17.6 7.4 25.6l-.2 7.2c-.602 5.4-1 11.4-2.2 17.2-.6 3.8-1.8 7.8-2.8 11.602-.602 2.8-1.4 6-1.8 9-.4 1.8-.6 4.198-.6 6.198 0 1-.2 4.802-2.6 4.802-1.2 0-2-3.2-2-3.397 0-.603-.602-1.804-.602-2.603-.2-12.2-6-25.397-7.6-37.397l-.6-6.4V23.4c.4-6 1.6-12 5.4-18-1-1-2.2-2.4-2.6-3.4v-.6c.8 1 2.6 3.2 3.2 3.2.4 0 1.8-1.4 2.8-1.6h.8c1.2 0 2 .2 3.4 1.4 1-1 2.2-2.2 3-3.2C369 2 368 4 366.8 5z"/></defs><clipPath id="k"><use xlink:href="#j"/></clipPath><g clip-path="url(#k)" class="B"><ellipse transform="matrix(-.0334 -.9994 .9994 -.0334 369.189 379.002)" cx="367.869" cy="10.972" rx="1.199" ry=".378"/><ellipse transform="matrix(-.0318 -.9995 .9995 -.0318 358.3409 369.7635)" cx="358.266" cy="11.319" rx="1.198" ry=".378"/></g></svg>