<svg xmlns="http://www.w3.org/2000/svg" xmlns:xlink="http://www.w3.org/1999/xlink" width="480" height="108"><style><![CDATA[.B{fill:#28334c}.C{fill:#ef2b2b}.D{fill:#224}]]></style><path fill="#f3d2af" d="M465.144 86.766l.603 5.8c0 1-.4 1.602-1.2 1.602-.6 0-.8-.8-.8-1.2 0-.6.397-4.198.6-6.198h.798v-.003zm-240 0l.6 5.8c0 1-.4 1.602-1.2 1.602-.6 0-.8-.8-.8-1.2 0-.6.4-4.198.6-6.198h.8v-.003zm-210 0l.6 5.8c0 1-.4 1.602-1.2 1.602-.6 0-.8-.8-.8-1.2 0-.6.4-4.198.6-6.198h.8v-.003zm419.6 6c0 .398-.4.8-.8 1.198h-1c-.2-.4-.2-1-.2-1.4 0-.6.2-1.398.2-2.198.398-1.4-.2-3.2 1.198-3.802l.603 6.2zm-31.2-6.202v5.8c-.6.8-.8 1.4-1.4 1.4-.8 0-.6-1.2-.6-1.4 0-.4.8-3.8 1.2-5.8h.8zm-120 0v5.8c-.6.8-.8 1.4-1.4 1.4-.8 0-.6-1.2-.6-1.4 0-.4.8-3.8 1.2-5.8h.8zm-28.8 6.202c0 .398-.4.8-.8 1.198h-1c-.2-.4-.2-1-.2-1.4 0-.6.2-1.398.2-2.198.398-1.4-.2-3.2 1.2-3.802l.602 6.2zm-58-.202c-.2.8-.6 1.397-1.2 1.397-1 0-.8-1.6-.8-2v-5.397h1l1 6zm-30.4-6c.6 1.8 1.4 5.2 1.4 5.6 0 1.2-.8 1.4-1.2 1.4-.6 0-.8-.4-.8-.8v-6.2h.6zm-120.4 0l1.2 6c0 1-1 1.2-1.2 1.2-.4 0-.6-.2-.8-.4v-6.8h.8zm326.8.4c0 .4-.4 3.6-.602 5.4 0 .4-.398.8-.8 1h-.8c-.2-.2-.2-.6-.2-1 0-.6 1-3.8 1.4-5.6.197-.2.6-.2.8-.4.203.2.203 0 .203.6zm-31.8 5.2c0 .2-.4.8-.8.8h-.8c-.2-.198-.2-.4-.2-1 0-.4 1.2-3.6 1.8-5.4.2 0 .6-.198.8-.198l-.8 5.797zm-28.2-5.2c0 .4-.4 3.6-.602 5.4 0 .4-.398.8-.8 1h-.8c-.2-.2-.2-.6-.2-1 0-.6 1-3.8 1.4-5.6.197-.2.6-.2.8-.4.203.2.203 0 .203.6zm-175.6-.4l1.6 5.397c0 .603-.6 1.4-1.2 1.4-1 0-1-3.2-1-3.4v-3.6c.2.204.6.204.6.204zm-29.2 0c.8 1.6 1.8 4.397 1.8 5 0 .8-.8 1.397-1.2 1.397-1.6 0-1.2-5.397-1.4-6.6.2.004.6.204.8.204zm-31 .4c.6 1.4 1.4 4.6 1.4 5.2 0 1-.8 1.2-1.2 1.2-1.8 0-.8-3.6-1-4.2l.2-2.8c.2.2.6.2.6.6zm383.2 14h-.6c-.4-.6-.4-1.4-.4-1.8 0-4 2.4-9.8 3.603-13.6 0 0 .2 0 .397.2-1 4.6-1.6 10.4-3 15.2zm-84.6-9.8c.6 1.4 3.2 3.602 3.2 4.2v1h-1c-2-1.6-3.8-4.2-3.602-6.2l.2-4.6c.403 1.8.602 3.8 1.203 5.6zm-60 0c.6 1.4 3.2 3.602 3.2 4.2v1h-1c-2-1.6-3.8-4.2-3.602-6.2l.2-4.6c.403 1.8.602 3.8 1.203 5.6zm-95.4 9.8h-.6c-.4-.6-.4-1.4-.4-1.8 0-4 2.4-9.8 3.6-13.6a.62.62 0 0 0 .4.199c-1 4.6-1.6 10.4-3 15.2zm-210 0h-.6c-.4-.6-.4-1.4-.4-1.8 0-4 2.4-9.8 3.6-13.6a.62.62 0 0 0 .4.199c-1 4.6-1.6 10.4-3 15.2zm458.6-9.8c1 1.4 2.8 2.602 4.2 4v.602c-.2.198-.2.198-.802.198-1.198 0-3.6-2.4-4.198-3.4-1-2-1.602-5.6-1.602-6v-1.198c.602 1.797 1.203 3.797 2.403 5.797zm-36.4-5.2c0 1.2-3 12-3.8 14.4h-.6c-.2-.4-.4-.8-.4-1.4 0-3.198 3.6-11.6 4.6-13.6 0 .2.2 0 .2.6zm-30.8-.198l-4.6 14c-1-.2-1-.602-1-1.2 0-3 4.6-11.8 5.398-13.198.003.197.203.4.203.4zm-120 0l-4.6 14c-1-.2-1-.602-1-1.2 0-3.6 5-11.6 5.398-13.198.003.197.203.4.203.4zm-29.2.198c0 1.2-3 12-3.8 14.4h-.6c-.2-.4-.4-.8-.4-1.4 0-3.198 3.6-11.6 4.6-13.6 0 .2.2 0 .2.6zm-23.6 5.2c1 1.4 2.8 2.602 4.2 4v.602c-.2.198-.2.198-.8.198-1.2 0-3.6-2.4-4.2-3.4-1-2-1.6-5.6-1.6-6v-1.198c.6 1.797 1.2 3.797 2.4 5.797zm-210 0c1 1.4 2.8 2.602 4.2 4v.602c-.2.198-.2.198-.8.198-1.2 0-3.6-2.4-4.2-3.4-1-2-1.6-5.6-1.6-6v-1.198c.6 1.797 1.2 3.797 2.4 5.797zm419.6 1c.602 1 3 2 3.4 3.602-.2.198-.2.398-.8.398-1.602 0-3.802-2.8-4.4-4.398-.6-1.802-1-5.4-1-5.802v-.8c.6 2 1.2 4.602 2.8 7zm-28.2 3.2v1h-.8c-3.4-2.4-4.4-5.2-4.4-7.6V85.16c2 9.605 5.2 8.203 5.2 10.203zm-120 0v1h-.8c-3.4-2.4-4.4-5.2-4.4-7.6V85.16c2 9.605 5.2 8.203 5.2 10.203zm-31.8-3.2c.6 1 3 2 3.4 3.602-.2.198-.2.398-.8.398-1.602 0-3.8-2.8-4.4-4.398-.6-1.802-1-5.4-1-5.802v-.8c.6 2 1.2 4.602 2.8 7zm-54.4 3c-.2 0-.2.2-.8.2-1.4 0-4.2-3-4.6-3.8-.8-2-1.2-4-1.6-6 .8 1.6 1.8 3.6 3 5.6 1.2 1 2.6 2 4 3.2v.8zm-10.2-9.398c0 1-1.8 12.8-2.4 15.198-1-.6-1-2-1-2.198 0-3.4 2.4-11 3.2-13.602.2.2.2 0 .2.602zm-139.4 9.198c-.2 0-.4.2-.8.2-1 0-4-2.6-4.4-3.2-1-2-1.4-4.198-2-6.4l2.8 5c1.4 1.4 3 2.4 4.4 3.602v.797zm-10.4-9.4l-1.8 15-.4.397c-1.2-.6-1-1.6-1-2.198 0-3.802 2-10.4 3-13.602.2.203.2.003.2.403zm326.8.202l-5.4 13.198h-.8c0-.198-.2-.4-.2-1 0-1.6 1.8-5.198 2.4-6.198 1.2-2.4 2.6-4.602 3.8-6.802 0 .2 0 .6.2.802zm-23.4 10.598c-.2.2-.2.2-.6.2-1.8 0-3.602-4.8-3.602-5.2 0-4.6.2-5.4.2-6.4.4 1.802.602 3.802 1 5.802.2 1.6 2 3.198 3 4.8l.003.8zm-36.6-10.598l-5.4 13.198h-.8c0-.198-.2-.4-.2-1 0-1.6 1.8-5.198 2.4-6.198 1.2-2.4 2.6-4.602 3.8-6.802 0 .2 0 .6.2.802zm-135.6 8.798h-1.6c-4.8-2-5-6.4-6-9.4 1 1.4 1.8 3.2 2.8 4.8 1.6 1.6 3.4 2.6 4.8 4v.6zm-12.2 6s0 .2-.4.2c-.6 0-.6-.2-.8-.602v-4.398c.8-3.602 1.6-7.4 2.6-10.802l-1.4 15.603zm170.8-2.4h-.8c0-.2-.2-.398-.2-.8 0-3 5.8-11 7-12.6-1.2 4.003-3.8 9.2-6 13.4zm-199.2-1c-.2 1-.2 2.2-.2 3.2-.2.2 0 .2-.6.2s-.8-1.603-.8-1.603v-3.6l2-10.6-.4 12.404zm-48.8-3h-1.4c-4.4-1.6-5.8-6.2-6.4-9.2 1 1.4 2 3.2 3.2 5 1.4 1.2 3 2.2 4.6 3.4v.8zm-11.2-1.6c-.8 3.397 0 8.2-1.2 8.2-.8 0-.8-1.2-.8-1.2v-4.4l2-10.398v7.798zm31 7.6c0 .2.2.2-.4.2-1 0-1-2-1-2.2v-3.398l1.4-10.4v15.797zm37-9.6c1 .8 2.6 1.6 3.6 2.6v.602c-.2 0-.4.198-1 .198-1.2 0-4.6-2.8-4.8-3.4-1-1.8-2.2-5.398-2.2-5.8v-.602c1 2 2 4.602 4.4 6.4zm-29.8-1c1.2 1.2 3 1.8 4.4 2.8v.6c-.2.2-.4.2-.8.2-.6 0-1-.398-1.6-.6-4.2-1.4-5.2-6.2-6-8.8 1 1.8 2.2 4.003 4 5.8z"/><path fill="#f9e9dc" d="M441.544 95.364v.6s0 .2-.4.2c-1.397 0-3.198-2-4.198-3.6s-1.2-4.603-1.2-5v-1.8a17.1 17.1 0 0 0 5.797 9.601zm-180 0v.6s0 .2-.4.2c-1.398 0-3.2-2-4.2-3.6s-1.197-4.603-1.197-5v-1.8c.597 3.003 2.398 6.8 5.797 9.6zm207.4-3.8c1 1.397 3.398 2 4 4.2-.2 0-.4.198-.802.198-1 0-4.397-3.6-4.6-4.397-.6-1.8-1.2-5-1.2-5.4v-.6c.803 2 1.403 4 2.602 6zm-240 0c1 1.397 3.4 2 4 4.2-.2 0-.4.198-.8.198-1 0-4.4-3.6-4.6-4.397-.6-1.8-1.2-5-1.2-5.4v-.6c.8 2 1.4 4 2.6 6zm-210 0c1 1.397 3.4 2 4 4.2-.2 0-.4.198-.8.198-1 0-4.4-3.6-4.6-4.397-.6-1.8-1.2-5-1.2-5.4v-.6c.8 2 1.4 4 2.6 6zm391.2 3.8v.8s0 .2-.398.2c-1.2 0-4-3.8-4.2-4.4-.4-1.198-.603-3.6-.603-4v-2.8c.8 3.4 1 6.602 5.2 10.2zm-120 0v.8s0 .2-.398.2c-1.2 0-4-3.8-4.2-4.4-.4-1.198-.603-3.6-.603-4v-2.8c.8 3.4 1 6.602 5.2 10.2zm88-.8c.2 0 .602.397.602 1v.8h-1c-2.2-1.8-3.602-4.4-3.602-6.4v-5c.798 3.2 0 6.4 4 9.6zm-60 0c.2 0 .602.397.602 1v.8h-1c-2.2-1.8-3.602-4.4-3.602-6.4v-5c.798 3.2 0 6.4 4 9.6zm26.4-3c.6 1.2 2.6 2.8 2.8 4.8-.2.2 0 .2-.6.2-1.602 0-3.4-4.2-3.4-4.4-.2-.8-.2-2-.2-2.6 0-.4.2-3.2.4-4.8.2 1.8 0 4.8 1 6.8zm123.4-6c2.6 2.397 7.6 8.8 7.6 11.8 0 1.2-.4 1.4-1 1.4-2.2 0-5.8-3.4-7.6-3.4-.602.6-1 1.4-1.4 2.2-.6 1.2-1.4 8.8-5.8 8.8-1.603 0-2.4-3.6-2.4-4.2 0-6.2 2.4-12.8 4.602-18.8.398.6 1 1.4 1 2 0 0-4 11.8-4 13.8 0 .8-.2 1.2.8 2 .2 0 .6-.398.6-.6.602-2 1.2-4.2 1.4-6.2l.6-3.6c.4-1.602.602-3.2.8-4.802 1 .802 1 .603 1 1.603 0 .397-.398 4.2-.398 4.8 0 1-.2 2 .8 2 1.2 0 1.4-1.6 1.4-1.8 0-.4-.8-5.2-.8-5.8 0-.4.602-.802 1-1.4.2-.6.4-1.4.8-2.2.195.8.395 1.8.994 2.4zm-240 0c2.6 2.397 7.6 8.8 7.6 11.8 0 1.2-.4 1.4-1 1.4-2.2 0-5.8-3.4-7.6-3.4-.6.6-1 1.4-1.4 2.2-.6 1.2-1.4 8.8-5.8 8.8-1.6 0-2.4-3.6-2.4-4.2 0-6.2 2.4-12.8 4.6-18.8.2.6 1 1.4 1 2 0 0-4 11.8-4 13.8 0 .8-.2 1.2.8 2 .2 0 .6-.398.6-.6.6-2 1.2-4.2 1.4-6.2l.6-3.6c.4-1.602.6-3.2.8-4.802 1 .802 1 .603 1 1.603 0 .397-.4 4.2-.4 4.8 0 1-.2 2 .8 2 1.2 0 1.4-1.6 1.4-1.8 0-.4-.8-5.2-.8-5.8 0-.4.6-.802 1-1.4.2-.6.4-1.4.8-2.2.2.8.4 1.8 1 2.4zm-210 0c2.6 2.397 7.6 8.8 7.6 11.8 0 1.2-.4 1.4-1 1.4-2.2 0-5.8-3.4-7.6-3.4-.6.6-1 1.4-1.4 2.2-.6 1.2-1.4 8.8-5.8 8.8-1.6 0-2.4-3.6-2.4-4.2 0-6.2 2.4-12.8 4.6-18.8.4.6 1 1.4 1 2 0 0-4 11.8-4 13.8 0 .8-.2 1.2.8 2 .2 0 .6-.398.6-.6.6-2 1.2-4.2 1.4-6.2l.6-3.6c.4-1.602.6-3.2.8-4.802 1 .802 1 .603 1 1.603 0 .397-.4 4.2-.4 4.8 0 1-.2 2 .8 2 1.2 0 1.4-1.6 1.4-1.8 0-.4-.8-5.2-.8-5.8 0-.4.6-.802 1-1.4.2-.6.4-1.4.8-2.2.2.8.4 1.8 1 2.4zm419.2-.2c.802 1.2 2.2 2.4 3.2 4 .8 1 3.8 6.4 3.8 8.4 0 1-.198 1.198-1.198 1.198-2.4 0-5-3.6-7-3.6-3 0-2.802 10.4-8 10.4-1.602 0-2.4-3-2.4-3.802 0-.6.4-2.6.6-3.8.4-5.2 3.4-10 5.2-15 .4.602.8 1.602.8 2 0 .2-4.8 11-4.8 14 0 .4.4 1 .8 1.4.2 0 .4 0 .4-.2 1.6-4.8 2.8-9.6 4-14.4.2.4.6.6.8 1.2l-.8 5.602c0 .6.4 1.398.8 1.398 1.602 0 1.4-2 1.4-2.398 0-.602-.4-4.602-.4-5 0-.602.8-1.2 1.2-1.4.2-.8.4-1.6.8-2.4.197.805.397 1.603.797 2.403zm-180 0c.8 1.2 2.2 2.4 3.2 4 1 1.4 3.8 6.2 3.8 8.4 0 1-.2 1.198-1.2 1.198-2.397 0-5-3.6-7-3.6-3 0-2.8 10.4-8 10.4-1.6 0-2.397-3-2.397-3.802 0-.6.397-2.6.6-3.8.4-5.2 3.4-10 5.2-15 .398.602.8 1.602.8 2 0 .2-4.8 11-4.8 14 0 .4.398 1 .8 1.4.2 0 .4 0 .4-.2 1.6-4.8 2.802-9.6 4-14.4.2.4.6.6.802 1.2l-.802 5.602c0 .6.397 1.398.802 1.398 1.6 0 1.398-2 1.398-2.398 0-.602-.398-4.602-.398-5 0-.602.8-1.2 1.198-1.4.2-.8.397-1.6.802-2.4.195.805.395 1.603.796 2.403zm144.2-.4c0 .2-5.4 10.6-5.4 13.4 0 .2-.197 1 .603 1.6.2 0 .397-.198.397-.4 2-4.398 3-9.198 4.603-13.6.397.4 1 .4 1 .802 0 .6-1.198 5.198-1.198 5.8 0 1 .198 1.2.8 1.2s1-.4 1.4-.802c.2-5.4 0-6.198 0-6.6 0-.6 1-1 1.2-1.4.398-.6.602-1.4 1-2.198.197.8.197 1.8.8 2.8s1.8 2.2 2.397 3.2c.803.8 3.803 7.198 3.803 9.198 0 1.2-.803 1.4-1.2 1.4-2.4 0-5-4.2-7-4.2-1.2 0-1.8 1.2-2.2 2.4-1.2 2.397-3 8.2-7 7.397-.8-.397-1.398-3.198-1.398-3.8 0-5 4.8-14.2 6.8-18.398.395.6.594 1.6.594 2.2zm-120 0c0 .2-5.4 10.6-5.4 13.4 0 .2-.197 1 .603 1.6.2 0 .397-.198.397-.4 2-4.398 3-9.198 4.603-13.6.397.4 1 .4 1 .802 0 .6-1.198 5.198-1.198 5.8 0 1 .198 1.2.8 1.2s1-.4 1.4-.802c.2-5.4 0-6.198 0-6.6 0-.6 1-1 1.2-1.4.398-.6.602-1.4 1-2.198.197.8.197 1.8.8 2.8s1.8 2.2 2.397 3.2c.803.8 3.803 7.198 3.803 9.198 0 1.2-.803 1.4-1.2 1.4-2.4 0-5-4.2-7-4.2-1.2 0-1.8 1.2-2.2 2.4-1.2 2.397-3 8.2-7 7.397-.8-.397-1.398-3.198-1.398-3.8 0-5 4.8-14.2 6.8-18.398.395.6.594 1.6.594 2.2zm-82.8.2c1 1 2.6 2.2 3.8 3.8 1.8 2.2 4.4 5.6 4.4 7.802 0 1.198-.8 1.198-1.2 1.198-2 0-5.8-3-7.6-3-1 1.4-1.6 2.802-1.8 4.2-.4 2.2-2 7.602-5.6 7-1.6-1.8-1.8-3-1.8-4.398 0-8.2 1-8.602 3.8-18.802.4.6 1 1.6 1 2 0 .6-.6 1.6-.8 2.4-.8 2.8-2.6 8.2-2.6 11.6 0 .4.4 1.802 1 2.2 1-.8.8-3.2 1.2-4.2.2-.8.4-1.6.4-2.4l.6-4.8c.2-1.2.4-2.602.6-4 .6.6 1 .6 1 1.198s-.4 5-.4 5.4c0 .8.2 1.8 1 1.8.6 0 1.4-1 1.4-1.6 0-.4-1-5-1-5.603 0-.397.6-1 .8-1.397.4 1.8.8 3.6 1.4 5.397.2.802 3.8 4.4 4.4 4.4h1.4c.2-.2.2 0 .2-.6 0-1.4-2-2-3-2.802-.4-.198-1-.6-1.2-1s-3-5.6-3-6.6c0-.6.2-1.2.4-1.8.4.806.6 1.806 1.2 2.606zm172-1.6c0 2.397-6.2 11.2-6.2 14.2 0 .6.2 1 .6 1.398.2 0 .603-.398.603-.602 2-4.2 3.6-8.6 5.2-12.8.197.398 1 .6 1 1 0 .6-1.602 5.198-1.602 5.6 0 .6.2 1.2.8 1.2 1 0 2-2.2 1.603-3 0-.8.2-1.8.2-2.8 0-1.602 1.602-3.802 2.398-5 .2 1 .4 2 .8 3 .603 1.198 1.803 2.398 2.4 3.8 1 1.8 2.8 6.4 2.8 8.4 0 1.4-.398 1.6-1.2 1.6-2.397 0-5.197-4.6-7-4.6-2.8 0-3.397 9.2-8.6 9.2-2.2 0-2.2-3.2-2.2-3.8 0-.4.4-1.8.602-2.6 1-5.198 4.8-10.4 7.6-15.6.197.41.197 1.01.197 1.41zm-60 0c0 2.397-6.2 11.2-6.2 14.2 0 .6.2 1 .6 1.398.2 0 .603-.398.603-.602 2-4.2 3.6-8.6 5.2-12.8.197.398 1 .6 1 1 0 .6-1.602 5.198-1.602 5.6 0 .6.2 1.2.8 1.2 1 0 2-2.2 1.603-3 0-.8.2-1.8.2-2.8 0-1.602 1.602-3.802 2.398-5 .2 1 .4 2 .8 3 .603 1.198 1.803 2.398 2.4 3.8 1.2 2.4 2.8 6 2.8 8.4 0 1.4-.398 1.6-1.2 1.6-2.397 0-5.197-4.6-7-4.6-2.8 0-3.397 9.2-8.6 9.2-2.2 0-2.2-3.2-2.2-3.8 0-.4.4-1.8.602-2.6 1-5.198 4.8-10.4 7.6-15.6.197.41.197 1.01.197 1.41zm-141.6.8c1.4 1.4 3.2 2.8 4.6 4.4 1.4 1.398 4.4 5.398 4.4 7.398 0 1-.8 1-1.2 1-2.4 0-5.8-3-7.8-2.602-1.8 3-1.4 6-2.8 9-.6 1.4-2.6 2.4-3.4 2.4-1.4 0-2.6-2.8-2.6-3.198v-5.2c0-5 2-10 3-15 .2.602 1 1.602 1 2 0 0-2.6 11.8-2.6 13.602 0 .2-.2 2.398.8 2.8 1.4-1.198.8-3.6 1.4-5.198 0-.802.2-1.602.2-2.4l.6-8 1 1v5.8c.4.8.4 1.602 1 1.602s1.4-1 1.4-1.4c0-.6-1.2-5-1.2-5.4 0-.6.6-1 .8-1.6.2.6.4 1.4.4 2 .2 1.198.8 2.6 1.6 4 .8 1.198 3.6 3.4 4.6 3.4.6 0 .8-.2 1.2-.602-.6-1.6-3.2-2.2-4-3.398-1.6-1.802-2.6-4-3.8-6l.2-2.802c.4.802.6 1.6 1.2 2.4zm-120.2.6c1.2 1.2 3 2.802 4.4 4.4 1.6 1.4 4 5.6 4 7.2 0 1.2-.8 1.2-1.2 1.2s-5-2-7.6-3c-1 1-1.6 3.198-1.8 4.398s-.4 3-1.4 4.602c-.8 1.198-2.4 2.398-3.4 2.398s-2.4-2.2-2.4-3v-5.2c0-5.198 2.2-10.198 3.4-15.198.2.6 1 1.6 1 2 0 .6-3.2 11.398-3.2 14 0 .398.2 1.398.8 2.198h.6c1.2-5 1.4-10.397 2.2-15.397.2.2.8.397.8 1 .4 1.2 0 3.6 0 4.2 0 .398-.4 3.198 1 3.198.8 0 1.2-1.198 1.2-1.6 0-.6-1-5-1-5.4 0-.6.6-1 .8-1.397a38.12 38.12 0 0 0 1.8 5.799c.2.4 3.6 3.8 4.2 3.8h1.4c0-.2.2-.2.2-.6 0-1.4-3.8-3-4.2-3.603-1.4-2-2.2-4-3.2-6l.2-3c.4 1.003.6 2.003 1.4 3.003zm284 12.2c0 .4.2.8.398 1.2.2 0 .602-.2.8-.6 2.2-4 4-8 5.8-12 .398.398 1 .398 1 1 0 .398-1.8 4.8-1.8 5.198 0 .603.2 1.2.8 1.2 1 0 1.398-1.8 1.6-2.398.2-.4.2-1 .2-1.4.2-.4.2-1 .2-1.4.2-.4.2-1 .2-1.4l2.6-3.8c.2 1 .2 2 .6 3 .8 1.398 1.8 2.8 2.4 4.398.6 1.2 2 5.8 2 7.8 0 .802-.2 1.802-1.2 1.802-2.4 0-5.2-5.2-6.8-5.2s-4.4 8.802-9.2 8.802c-2.2 0-2-3-2-3.802 0-.6.8-2.398 1-3.198 1.2-4.802 5.8-10.6 9-15 0 4.797-7.6 11.597-7.6 15.797zm-253.4-13c.6.8 1.8 1.4 2.8 2.2 2.4 2 4 4.4 5.4 6.6.6.6 1.2 2.2 1.2 2.6 0 1.2-1.2 1-1.6 1-1.8 0-6.4-2.398-7-2.398-1.4 0-2 4.602-2 4.8-.2 1.4-.4 2.802-1 4.2-.4 1-2.4 2.8-3.4 2.8s-2.6-2.397-2.6-3v-9.8l2.4-10.8c.2.6 1 1.6 1 2.198 0 1.602-2.2 9.802-2.2 13 0 .4.2 2.4.8 3.2h.6c.6-2.802.4-6 1-8.802l.2-6.8c1.4.8 1 1.4 1 1.8 0 .6 0 1 .2 4.802 0 .398-.2 1.8 1.2 1.8.6 0 1.2-1.198 1.2-1.6s-1.4-4.8-1.4-5.198c0-.602.6-1 .8-1.602.6 2 1 4 2.2 6 .6.8 3.4 3.2 4.8 3.2.4 0 .6-.2 1-.4-.2-1.6-2-2.198-3-2.8-2.6-1.6-3.8-5-5.2-7l.2-2.8c.4.8.6 1.8 1.4 2.8zm63.4 2.2c1.2.8 6.4 7.2 6.4 9 0 .8-.8 1-1.2 1-2.2 0-6.4-2.8-8-2.2-.4 1.2-1 2.602-1.2 4 0 0-.6 7.8-4.4 7.8-2 0-2.8-4-2.8-4.4v-8.398l2.2-11c.4.8.8 1.602 1 2.398l-2 13c-.2.602-.2 3.2 1.4 3.2.4-1.4.6-3 .8-4.4l.4-11c.2.198.6.4.8 1 .6 1.198-.4 7.198 1.4 7.198.6 0 1.4-1.198 1.4-1.6 0-.6-1.4-4.6-1.4-5 0-.6.4-1.4.6-2 .6 1.802 1 3.802 2.2 5.802.8 1.198 3.6 3.398 5 3.398.4 0 .6-.2 1-.6-1-2.2-3-2-4.4-3.603-2-2-4.4-5.6-4.2-7.8l.2-1.2c.4 1.805 2.8 4.203 4.8 5.403zm-28.8-.2c1.8 1.4 4 4.2 5.2 6 .2.4 1 1 1 1.602v1.6h-2.8c-1.8-.802-4.6-2-6.2-1.802-.6 1.4-1 3-1.2 4.602 0 .398-.2 7.398-4 7.398-3.2 0-3.2-6.6-3.2-7.398 0-.602 0-3.398-.2-3.8l1.8-12.4c.4.603 1.2 1.603 1.2 2.2 0 .398-1.6 11.8-1.6 12.398 0 1-.2 2.602.8 4h.8c.8-1.6.6-3.8.6-5.398 0-.398-.4-9-.2-10.2.4.4.8.603 1 1.2.4.602.2 7 1.6 7 .6 0 1.4-1.2 1.4-1.602 0-.6-1.8-4.6-1.8-5s.6-.6.4-1.8c0 0 0-.2.2-.4 0 2.4 3.8 9 7.6 9 .4 0 1-.4 1-.802 0-1.6-3.6-2.398-4-2.8-2.4-2-4-5-5.2-7.4l.2-2c.2 1.997 3.8 4.597 5.6 5.797z"/><path fill="#fff" d="M466.8 5c5.2 8.2 7.4 17.6 7.4 26l-.2 7c-.6 6.6-1.2 13.2-2.8 19.8-1.2 5-2.6 10.2-3.6 15.6-.6 3.4-.8 7.4-1.4 11.202-.2 1.398-1.2 2-2.2 2-1.2 0-2-3.2-2-3.4 0-.6-.6-1.802-.6-2.6 0-12.802-6.8-26.602-7.8-39.2 0-1.4-.398-4.2-.398-4.6V23.4c.398-6 1.6-12 5.398-18-1-1-2.198-2.4-2.6-3.4v-.6c.8 1 2.6 3.2 3.2 3.2.398 0 1.8-1.4 2.8-1.6h.8c1.2 0 1.603.6 3.4 1.4 1-1 2.2-2.2 3-3.2C469 2 468 4 466.8 5zm-37.6-.4c1.8-1 2.6-1.6 3.6-1.6 1.4 0 2.4 1.2 3.2 1.2.4 0 2.2-2 2.8-3 0 2-2 3.2-2 3.8s2.2 3.4 3 5.4c3 6.6 4.4 13.6 4.4 20.4 0 .4-.2 1.8-.2 6.4-.4 15.4-6 30.8-8.2 46.4 0 .6-.6 1.8-1.6 2.6-.2.2-.2.2-.8.2-2 0-2.2-3.8-2.2-4.603V77.6c-.8-12.2-6.6-24.4-7.6-36.6 0-1.6-.398-4.6-.398-5V24.2c.2-1.2.2-2.6.398-3.8.2-1.6.4-3.4.802-4.8.397-2.2 1.198-4.8 2.198-6.8.4-1.2 2-3 2-3.4 0-.6-2.398-3.2-2.398-3.6v-.6C427 2.2 428 3.4 429.2 4.6zm-180 0c1.8-1 2.6-1.6 3.6-1.6 1.4 0 2.4 1.2 3.2 1.2.4 0 2.2-2 2.8-3 0 2-2 3.2-2 3.8s2.2 3.4 3 5.4c3 6.6 4.4 13.6 4.4 20.4 0 .4-.2 1.8-.2 6.4-.398 15.4-6 30.8-8.2 46.4 0 .6-.6 1.8-1.6 2.6-.2.2-.2.2-.8.2-2 0-2.2-3.8-2.2-4.603V77.6c-.6-11.8-6.8-24.8-7.6-36.6 0-1.6-.4-4.6-.4-5V24.2c.2-1.2.2-2.6.4-3.8.198-1.6.398-3.4.8-4.8.397-2.2 1.2-4.8 2.2-6.8.398-1.2 2-3 2-3.4 0-.6-2.4-3.2-2.4-3.6v-.6c.8 1 1.8 2.2 3 3.4zm-22.4.4c5.2 8.2 7.4 17.6 7.4 26l-.2 7c-.6 6.6-1.2 13.2-2.8 19.8l-2 8c-.8 3-1.6 6.6-2 10-.4 3 0 6.802-1.4 9.802-.2.6-1.4 1-1.8 1-.6 0-2-2.4-2.2-3.2s-.4-1.8-.4-2.8c-.4-9.2-3-18.802-5.8-28-.2-.4-2.4-13.6-2.4-15.8V23.4c.4-6 1.6-12 5.4-18-1-1-2.2-2.4-2.6-3.4v-.6c.8 1 2.6 3.2 3.2 3.2.4 0 1.8-1.4 2.8-1.6h.8c1.2 0 2 .2 3.4 1.4 1-1 2.2-2.2 3-3.2C229 2 228 4 226.8 5zm-37.6-.4c1.8-1 2.6-1.6 3.6-1.6 1.4 0 2.4 1.2 3.2 1.2.4 0 2.2-2 2.8-3 0 2-2 3.2-2 3.8s2.4 3.4 3 5.4c3 7.6 4.4 13.4 4.4 20.6 0 .4 0 1.8-.2 6.6-.2 2.6-.6 5.2-.8 7.8-.4 3.2-.8 7-1.6 10.6-1.2 5.602-4.6 16.602-4.6 23.8v4.4c-1 1.4-.4 2.2-1.8 2.2-3 0-3.4-7.8-3.4-7.8-1-13.2-8-26.4-8.4-39.602 0-1-.2-2.6-.2-3V24.2c.2-1.2.2-2.6.4-3.8.2-1.6.4-3.4.8-4.8.4-2 1.2-4.4 2-6.4.4-1.4 2.2-3.4 2.2-3.8 0-.6-2.4-3.2-2.4-3.6v-.6c.8 1 1.8 2.2 3 3.4zM16.8 5c5.4 7.8 7.4 17.6 7.4 25.6l-.2 7.2c-.6 5.4-1 11.4-2.2 17.2-.6 3.8-1.8 7.8-2.8 11.602-.6 2.8-1.4 6-1.8 9-.4 1.798-.6 4.198-.6 6.198 0 1-.2 4.802-2.6 4.802-1.2 0-2-3.2-2-3.4 0-.6-.6-1.802-.6-2.6-.2-12.2-6-25.4-7.6-37.4l-.6-6.4V23.4c.4-6 1.6-12 5.4-18C7.6 4.4 6.4 3 6 2v-.6c.8 1 2.6 3.2 3.2 3.2.4 0 1.8-1.4 2.8-1.6h.8c1.2 0 2 .2 3.4 1.4 1-1 2.2-2.2 3-3.2C19 2 18 4 16.8 5zm30 0c0 .4 1.8 2.8 2.6 4.6C50.6 12 54 22.6 54 26v10.8c-.2 3.4-.6 6.8-1 10.2-.2 2-.6 4.6-1 6.8-1.8 8.8-4.8 18.2-5 27.4 0 .2.4 5.2-1.4 5.2-.6 0-.4 0-.6-.2-.8-.4-1.6-1.4-2-2.2-.8-2.2-1-4.6-1.2-6.8-1.2-9.2-5.2-19.4-7-28.4 0-.4-1.6-11.4-1.6-13.8v-9.6c.2-1.4.2-3 .4-4.6s.4-3.6.8-5.2c.4-2 1.2-4.4 2-6.4.4-1.4 2.2-3.4 2.2-3.8 0-.2-2.4-2.6-2.2-4.2.6 1 1.6 2.2 2.8 3.4C41 3.6 41.8 3 42.8 3c1.2 0 2 .2 3.2 1.4 1-1 2-2.2 2.8-3.4 0 2-2 3.2-2 4zM403 3c1.2 0 2.2 1.2 3 1.2.4 0 2-2.2 2.602-3.4 0 1.4-1 2.8-2 4.2C408.4 7 409 8.8 410 11c.602 1.2 4 12.2 4 15.2V37c-.2 3.6-.6 7-1 10.4-.398 3.2-.8 6.4-1.6 9.6l-5.8 25c-.2 1-1.2 5-3.602 4.4-1-1.2-1.602-3.4-1-4.4v-4.398c-.602-5-1.398-10.602-2.8-15.802-1.4-5.4-4.802-17-4.802-24V22.6c.2-1 .4-2.2.4-3.2.4-3.2 1.2-6.6 2.4-9.6.4-1.4 2.4-4 2.4-4.4 0-.6-1.198-1.4-1.6-2.2-.4-.6-.4-1.4-.602-2.4.602 1 1.602 2.4 2.8 3.8C400.4 3.8 402 3 403 3zm-30.2 0c1.2 0 2 .6 3.2 1.2.8-1 1.602-2.2 2.2-3.2 0 0 .2-.2.2.4 0 .4-1.8 3-1.8 3.6 0 .4.8.8 1 1.4.8 1 1.6 2.6 2 3.8 3.2 7.6 4.4 14.2 4.4 21.4l-.2 7.8c-.398 4-1 8-1.398 12-.602 5-2.602 11.2-3.602 16.4 0 0-3 18.602-7.398 18.602-.602 0-1.2-2.4-1.2-2.602 0-.6.4-1.8.4-8-.2-6.6-2.4-13.398-4.2-20.2-1.2-4.8-3-12.6-3-18V23.2c.2-1 .2-2.2.398-3.4.2-1.6.4-3.4.803-4.8.4-2.2 1.2-4.8 2.4-7 .4-1 1.602-2.2 1.602-2.6 0-.6-1.602-3-2-4.4.8 1 1.8 2.4 2.8 3.6 1-1.4 2.4-1.6 3.4-1.6zm-60 0c1.2 0 2 .6 3.2 1.2.8-1 1.602-2.2 2.2-3.2 0 0 .2-.2.2.4 0 .4-1.8 3-1.8 3.6 0 .4.8.8 1 1.4.8 1 1.6 2.6 2 3.8 3.2 7.6 4.4 14.2 4.4 21.4l-.2 7.8c-.398 4-1 8-1.398 12-.602 5-2.602 11.2-3.602 16.4 0 0-3 18.602-7.398 18.602-.602 0-1.2-2.4-1.2-2.602 0-.6.4-1.8.4-8-.2-6.398-2.2-13.2-4-19.6-1-3.4-3.2-13.6-3.2-18.6V23.2c.2-1 .2-2.2.398-3.4.2-1.6.4-3.4.803-4.8.4-2.2 1.2-4.8 2.4-7 .4-1 1.602-2.2 1.602-2.6 0-.6-1.602-3-2-4.4.8 1 1.8 2.4 2.8 3.6 1-1.4 2.4-1.6 3.4-1.6zM283 3c1.2 0 2.2 1.2 3 1.2.4 0 2-2.2 2.602-3.4 0 1.4-1 2.8-2 4.2C288.4 7 289 8.8 290 11c.602 1.2 4 12.2 4 15.2V37c-.2 3.6-.6 7-1 10.4-.398 3.2-.8 6.4-1.6 9.6l-5.8 25c-.2 1-1.2 5-3.602 4.4-1-1.2-1.602-3.4-1-4.4v-4.398c-.398-5.4-1.398-11.2-3-16.602-1.398-4.8-4.602-17.4-4.602-23.2V22.6c.2-1 .4-2.2.4-3.2.4-3.2 1.2-6.6 2.4-9.6.4-1.4 2.4-4 2.4-4.4 0-.6-1.198-1.4-1.6-2.2-.4-.6-.4-1.4-.602-2.4.602 1 1.602 2.4 2.8 3.8C280.4 3.8 282 3 283 3zM162.8 3c1.2 0 2 .6 3.2 1.4 1-1.2 2-2.4 2.6-3.6 0 1.4-1 2.8-2 4.2 5.8 8.6 7.4 17.8 7.4 26.6 0 10.4-1.4 21-4.2 31.8-.6 2-1 4.6-1.4 6.8-.6 2.4-1 5.2-1 8.2-.4 6 0 6.2 0 6.8 0 .4-.4 1.2-1 1.2-1.4 0-3-1.603-3.2-3.2-1.6-10-4.8-21-7.6-30.8-.2-.8-2.2-11.6-2.2-14V22.6c.2-1 .4-2.2.4-3.2.4-3.2 1.2-6.6 2.4-9.6.4-1.4 2.4-4 2.4-4.4 0-.6-1.2-1.4-1.6-2.2-.4-.6-.4-1.4-.6-2.4.6 1 1.6 2.4 2.8 3.8C160.4 4 162 3 162.8 3zM133 3c1 0 1.8.6 3 1.2.8-1 1.6-2.2 2.2-3.2 0 0 .2-.2.2.4 0 .4-1.8 3-1.8 3.6 0 .4.8 1 1 1.4 1 1.2 1.8 2.6 2.2 4.2 3.8 10.2 4.2 12.6 4.2 21l-.2 8c-.2 1.8-.6 3.6-.6 5.4-.6 11.2-5.6 23.2-5.6 34.602 0 .398.4 4.398.4 5 0 .198 0 1.8-.8 1.8-1.8 0-2.8-2-3.4-3.6-1.4-3.6-1.6-7.4-2.6-10.8-2-7.6-4.8-15.398-6.4-23-.8-3.8-1.4-11.2-1.4-11.6v-14c.2-1.2.2-2.4.4-3.6.2-1.8.4-4 1-5.6.4-1.6.8-3.4 1.6-4.8.4-1.2 2.2-3.6 2.2-4 0-.6-1.6-3-2-4.4.8 1 1.8 2.4 2.8 3.6.6-1 2.6-1.6 3.6-1.6zM69.4 4.6C70 3.6 72 3 73 3c1.2 0 2.2 1.2 2.8 1.2s2-2.2 2.6-3.4c0 1.4-1 2.8-1.8 4.2.6.6 1.2 1.4 1.4 2 4.4 8.4 6 16.6 6 24.6l-.2 8.2c-.6 8.4-2.4 17-4.4 25.6-1 3.8-1.8 8.2-1.8 12.2-.2 5 .2 6 .2 6.4s.2 2.4-.8 2.4c-1.8 0-2.6-1.602-3.4-3.4-1-2.6-1-5.6-1.8-8.2-2.2-8.6-5-17.2-7-25.8-.8-3.4-1.4-10.2-1.4-10.6V22.6c.2-1 .4-2.2.4-3.2.4-3.8 1.4-7.8 3.2-11.4.4-1 1.6-2.2 1.6-2.6 0-.6-2-3.4-2-3.8v-1c0 1 1.6 2.6 2.8 4zm270 0c1-1.4 2.397-1.6 3.397-1.6 1.2 0 1.4 0 3 1.2 1-1.2 1.802-2.4 2.2-3.6 0 0 .2-.2.2.4 0 1.2-1.6 3-1.6 3.8 0 .6 2 3 2.6 4.6C353 19 354 23 354 31.6l-.2 7-1.4 12.8c-.6 5.2-2.398 11-3.6 16.6-.198.8-3.6 18.4-8.4 18.4-.6 0-.8-2.4-.8-2.4 0-.398.398-2.6.8-4v-4.8c-.8-14-7-25.6-7-38.6V24.2c.2-1.2.2-2.6.4-4 .2-1 .4-2 .4-3 .4-2 .8-4.4 1.6-6.2.6-2 2.802-5.2 2.802-5.8 0-.4-1.602-2.8-1.602-3.2V.4c.602 1.4 1.4 2.8 2.4 4.2zm-240 0C100 3.6 102 3 103 3c.8 0 1.2 0 2.8 1.2 1-1.2 1.8-2.4 2.2-3.6 0 0 .2-.2.2.4 0 1.2-1.6 3-1.6 3.8 0 .6 2.2 3.4 3 5.4 3.4 7.6 4.4 14 4.4 21.6l-.2 7c-.6 5.4-1.2 11.4-2.2 17.2-.4 2.4-1.4 5-1.8 7.602C109 68.2 108 73.8 108 78.8c0 .6.2 4 .2 4.6 0 .4.4 1 .4 1.602 0 .398-.2 1-.4 1.398-2.4-.198-4-4.398-4.4-5.8-3.2-11.4-7.4-22.802-9.4-34.2-.6-3.2-1-9.4-1-9.8V24.2c.2-1.2.2-2.6.4-4 .2-1 .4-2.2.4-3.2.6-2.2 1-4.6 1.8-6.6.6-1.8 2.6-4.6 2.6-5.2 0-.4-1.6-2.8-1.6-3.2V.4c.6 1.4 1.4 2.8 2.4 4.2z"/><g class="B"><ellipse transform="matrix(.0336 .9994 -.9994 .0336 28.2354 -7.2563)" cx="17.87" cy="10.972" rx="1.199" ry=".378"/><ellipse transform="matrix(.0324 .9995 -.9995 .0324 19.3107 2.6904)" cx="8.266" cy="11.319" rx="1.198" ry=".378"/></g><g class="C"><use xlink:href="#B"/><ellipse transform="matrix(-.6607 .7507 -.7507 -.6607 66.545 88.5016)" cx="13.27" cy="59.291" rx="3.632" ry="5.499"/><use xlink:href="#C"/></g><g class="D"><ellipse transform="matrix(-.9505 .3106 -.3106 -.9505 48.993 65.754)" cx="19.26" cy="36.778" rx="2.166" ry="2.708"/><use xlink:href="#D"/><use xlink:href="#E"/><use xlink:href="#F"/><use xlink:href="#G"/><use xlink:href="#H"/></g><g class="B"><ellipse transform="matrix(.0336 .9994 -.9994 .0336 57.2294 -37.2394)" cx="47.871" cy="10.973" rx="1.199" ry=".378"/><ellipse transform="matrix(.0322 .9995 -.9995 .0322 48.3464 -27.2906)" cx="38.265" cy="11.319" rx="1.198" ry=".378"/></g><g class="C"><use xlink:href="#B" x="30"/><ellipse transform="matrix(-.6607 .7507 -.7507 -.6607 116.3644 65.9818)" cx="43.269" cy="59.291" rx="3.632" ry="5.501"/><use xlink:href="#C" x="30"/></g><g class="D"><ellipse transform="matrix(-.9505 .3106 -.3106 -.9505 107.5101 56.4364)" cx="49.261" cy="36.779" rx="2.166" ry="2.708"/><use xlink:href="#D" x="30"/><use xlink:href="#E" x="30"/><use xlink:href="#F" x="30"/><use xlink:href="#G" x="30"/><use xlink:href="#H" x="30"/></g><g class="B"><ellipse transform="matrix(.0336 .9994 -.9994 .0336 86.0622 -67.0557)" cx="77.705" cy="10.974" rx="1.199" ry=".378"/><ellipse transform="matrix(.0322 .9995 -.9995 .0322 77.2199 -57.1082)" cx="68.099" cy="11.32" rx="1.198" ry=".378"/></g><g class="C"><use xlink:href="#B" x="59.834"/><ellipse transform="matrix(-.6607 .7507 -.7507 -.6607 165.9057 43.5836)" cx="73.102" cy="59.289" rx="3.632" ry="5.5"/><use xlink:href="#C" x="59.833"/></g><g class="D"><ellipse transform="matrix(-.9505 .3106 -.3106 -.9505 165.7035 47.1714)" cx="79.095" cy="36.781" rx="2.166" ry="2.708"/><use xlink:href="#D" x="59.833"/><use xlink:href="#E" x="59.833"/><use xlink:href="#I"/><path d="M67.908 49.958c-.448 1.464.184 2.584.404 3.917s.085 1.896.554 2.417 1.125.667 1.792.75a2.44 2.44 0 0 0 2.25-.875c.712-.836.86-1.666.597-2s-.674.114-1.43-.042-1.075-.667-1.308-1.042-.27-1.1-.61-1.833-1.804-2.756-2.25-1.292z"/><use xlink:href="#H" x="59.833"/></g><g class="B"><ellipse transform="matrix(.0336 .9994 -.9994 .0336 115.0554 -97.0391)" cx="107.706" cy="10.975" rx="1.199" ry=".378"/><ellipse transform="matrix(.0324 .9995 -.9995 .0324 106.2338 -87.0931)" cx="98.098" cy="11.32" rx="1.198" ry=".378"/></g><g class="C"><use xlink:href="#B" x="89.834"/><ellipse transform="matrix(-.6607 .7507 -.7507 -.6607 215.7235 21.0625)" cx="103.101" cy="59.288" rx="3.632" ry="5.5"/><use xlink:href="#C" x="89.833"/></g><g class="D"><ellipse transform="matrix(-.9505 .3106 -.3106 -.9505 224.2206 37.8539)" cx="109.096" cy="36.782" rx="2.166" ry="2.708"/><use xlink:href="#D" x="89.833"/><use xlink:href="#E" x="89.833"/><use xlink:href="#I" x="30"/><use xlink:href="#J"/><use xlink:href="#H" x="89.833"/></g><g class="B"><ellipse transform="matrix(.0336 .9994 -.9994 .0336 144.0493 -127.0222)" cx="137.707" cy="10.976" rx="1.199" ry=".378"/><ellipse transform="matrix(.0322 .9995 -.9995 .0322 135.2877 -117.0747)" cx="128.097" cy="11.321" rx="1.198" ry=".378"/></g><g class="C"><use xlink:href="#B" x="119.834"/><ellipse transform="matrix(-.6607 .7507 -.7507 -.6607 265.5421 -1.459)" cx="133.101" cy="59.287" rx="3.632" ry="5.501"/><use xlink:href="#C" x="119.833"/></g><g class="D"><ellipse transform="matrix(-.9505 .3106 -.3106 -.9505 282.7386 28.5362)" cx="139.097" cy="36.783" rx="2.166" ry="2.708"/><use xlink:href="#D" x="119.833"/><use xlink:href="#E" x="119.833"/><use xlink:href="#I" x="60"/><use xlink:href="#J" x="30"/><use xlink:href="#H" x="119.833"/></g><g class="B"><ellipse transform="matrix(.0336 .9994 -.9994 .0336 172.8842 -156.8401)" cx="167.542" cy="10.976" rx="1.199" ry=".378"/><ellipse transform="matrix(.0322 .9995 -.9995 .0322 164.1603 -146.8913)" cx="157.93" cy="11.321" rx="1.198" ry=".378"/></g><g class="C"><use xlink:href="#B" x="149.668"/><ellipse transform="matrix(-.6607 .7507 -.7507 -.6607 315.0851 -23.8559)" cx="162.934" cy="59.286" rx="3.632" ry="5.5"/><use xlink:href="#C" x="149.666"/></g><g class="D"><ellipse transform="matrix(-.9505 .3106 -.3106 -.9505 340.9307 19.2694)" cx="168.931" cy="36.783" rx="2.166" ry="2.708"/><use xlink:href="#D" x="149.667"/><use xlink:href="#E" x="149.666"/><use xlink:href="#F" x="149.668"/><use xlink:href="#G" x="149.666"/><use xlink:href="#H" x="149.666"/></g><g class="B"><ellipse transform="matrix(.0336 .9994 -.9994 .0336 201.8767 -186.8234)" cx="197.543" cy="10.977" rx="1.199" ry=".378"/><ellipse transform="matrix(.0324 .9995 -.9995 .0324 193.1549 -176.8754)" cx="187.929" cy="11.322" rx="1.198" ry=".378"/></g><g class="C"><use xlink:href="#B" x="179.668"/><ellipse transform="matrix(-.6607 .7507 -.7507 -.6607 364.9037 -46.3774)" cx="192.934" cy="59.285" rx="3.632" ry="5.501"/><use xlink:href="#C" x="179.666"/></g><g class="D"><ellipse transform="matrix(-.9505 .3106 -.3106 -.9505 399.4478 9.9519)" cx="198.931" cy="36.784" rx="2.166" ry="2.708"/><use xlink:href="#D" x="179.667"/><use xlink:href="#E" x="179.666"/><use xlink:href="#F" x="179.668"/><use xlink:href="#G" x="179.666"/><use xlink:href="#H" x="179.666"/></g><g class="B"><ellipse transform="matrix(.0338 .9994 -.9994 .0338 288.9667 -276.9465)" cx="287.719" cy="10.979" rx="1.199" ry=".378"/><ellipse transform="matrix(.0322 .9995 -.9995 .0322 280.4631 -266.9982)" cx="278.101" cy="11.323" rx="1.198" ry=".379"/></g><g class="C"><use xlink:href="#K"/><ellipse transform="matrix(-.6607 .7506 -.7506 -.6607 514.6516 -114.063)" cx="283.104" cy="59.282" rx="3.632" ry="5.499"/><use xlink:href="#L"/></g><g class="D"><ellipse transform="matrix(-.9506 .3105 -.3105 -.9506 575.3519 -18.068)" cx="289.114" cy="36.766" rx="2.167" ry="2.708"/><use xlink:href="#M"/><use xlink:href="#E" x="269.84"/><use xlink:href="#N"/><use xlink:href="#O"/><use xlink:href="#P"/></g><g class="B"><ellipse transform="matrix(.0334 .9994 -.9994 .0334 318.0834 -306.9287)" cx="317.72" cy="10.98" rx="1.199" ry=".378"/><ellipse transform="matrix(.0322 .9995 -.9995 .0322 309.4966 -296.9812)" cx="308.1" cy="11.324" rx="1.198" ry=".378"/></g><g class="C"><use xlink:href="#K" x="30"/><ellipse transform="matrix(-.6606 .7507 -.7507 -.6606 564.4549 -136.6056)" cx="313.104" cy="59.281" rx="3.632" ry="5.501"/><use xlink:href="#L" x="30"/></g><g class="D"><ellipse transform="matrix(-.9506 .3104 -.3104 -.9506 633.8793 -27.3424)" cx="319.115" cy="36.765" rx="2.168" ry="2.708"/><use xlink:href="#M" x="30"/><use xlink:href="#E" x="299.84"/><use xlink:href="#N" x="30"/><use xlink:href="#O" x="30"/><use xlink:href="#P" x="30"/></g><g class="B"><ellipse transform="matrix(.0336 .9994 -.9994 .0336 230.7961 -216.7294)" cx="227.467" cy="10.978" rx="1.199" ry=".378"/><ellipse transform="matrix(.0322 .9995 -.9995 .0322 222.1532 -206.7814)" cx="217.852" cy="11.322" rx="1.198" ry=".378"/></g><g class="C"><use xlink:href="#B" x="209.59"/><ellipse transform="matrix(-.6607 .7507 -.7507 -.6607 414.5934 -68.8406)" cx="222.856" cy="59.284" rx="3.632" ry="5.5"/><use xlink:href="#Q"/></g><g class="D"><ellipse transform="matrix(-.9506 .3105 -.3105 -.9506 457.8275 .6559)" cx="228.862" cy="36.769" rx="2.167" ry="2.708"/><use xlink:href="#R"/><use xlink:href="#E" x="209.59"/><path d="M221.84 69.25s-.655.28-.72.97.72 2.28.72 2.28.976 1.5 1.003 1.844 1.092 1.25 1.592.406.312-2.97.312-2.97-.274-1 .035-1.72-.222-.812-.7-1-1.587-.528-2.25.188zm-4.176-19.292c-.448 1.464.184 2.584.404 3.917s.085 1.896.554 2.417 1.125.667 1.792.75a2.44 2.44 0 0 0 2.25-.875c.712-.836.86-1.666.598-2s-.675.114-1.43-.042-1.074-.667-1.308-1.042-.27-1.1-.6-1.833-1.803-2.756-2.25-1.292z"/><use xlink:href="#S"/></g><g class="B"><ellipse transform="matrix(.0334 .9994 -.9994 .0334 259.8422 -246.7118)" cx="257.468" cy="10.979" rx="1.199" ry=".378"/><ellipse transform="matrix(.0326 .9995 -.9995 .0326 251.0861 -236.7662)" cx="247.852" cy="11.323" rx="1.198" ry=".378"/></g><g class="C"><use xlink:href="#K" x="-30.25"/><ellipse transform="matrix(-.6607 .7506 -.7506 -.6607 464.4192 -91.3513)" cx="252.855" cy="59.283" rx="3.632" ry="5.5"/><use xlink:href="#L" x="-30.25"/></g><g class="D"><ellipse transform="matrix(-.9506 .3105 -.3105 -.9506 516.3483 -8.6527)" cx="258.863" cy="36.768" rx="2.167" ry="2.708"/><use xlink:href="#M" x="-30.25"/><use xlink:href="#E" x="239.59"/><use xlink:href="#N" x="-30.25"/><use xlink:href="#O" x="-30.25"/><use xlink:href="#P" x="-30.25"/></g><g class="B"><ellipse transform="matrix(.0334 .9994 -.9994 .0334 346.9261 -336.7473)" cx="347.556" cy="10.981" rx="1.199" ry=".378"/><ellipse transform="matrix(.0318 .9995 -.9995 .0318 338.5067 -326.7976)" cx="337.933" cy="11.324" rx="1.198" ry=".378"/></g><g class="C"><use xlink:href="#K" x="59.834"/><ellipse transform="matrix(-.6607 .7506 -.7506 -.6607 614.0179 -158.9778)" cx="342.938" cy="59.279" rx="3.632" ry="5.5"/><use xlink:href="#T"/></g><g class="D"><ellipse transform="matrix(-.9505 .3107 -.3107 -.9505 692.0308 -36.6673)" cx="348.936" cy="36.779" rx="2.166" ry="2.708"/><use xlink:href="#R" x="120.083"/><use xlink:href="#U"/><use xlink:href="#V"/><use xlink:href="#W"/><use xlink:href="#X"/></g><g class="B"><ellipse transform="matrix(.0338 .9994 -.9994 .0338 375.7693 -366.7297)" cx="377.556" cy="10.982" rx="1.199" ry=".378"/><ellipse transform="matrix(.0322 .9995 -.9995 .0322 367.4029 -356.7813)" cx="367.932" cy="11.325" rx="1.198" ry=".378"/></g><g class="C"><use xlink:href="#K" x="89.834"/><ellipse transform="matrix(-.6607 .7506 -.7506 -.6607 663.8376 -181.4963)" cx="372.937" cy="59.279" rx="3.632" ry="5.5"/><use xlink:href="#T" x="30"/></g><g class="D"><ellipse transform="matrix(-.9505 .3108 -.3108 -.9505 750.5374 -46.027)" cx="378.936" cy="36.78" rx="2.166" ry="2.708"/><use xlink:href="#R" x="150.083"/><use xlink:href="#U" x="30"/><use xlink:href="#V" x="30"/><use xlink:href="#W" x="30"/><use xlink:href="#X" x="30"/></g><g class="B"><ellipse transform="matrix(.0334 .9994 -.9994 .0334 404.9235 -396.7142)" cx="407.558" cy="10.983" rx="1.199" ry=".378"/><ellipse transform="matrix(.0326 .9995 -.9995 .0326 396.2746 -386.7641)" cx="397.932" cy="11.325" rx="1.198" ry=".378"/></g><g class="C"><use xlink:href="#K" x="119.834"/><ellipse transform="matrix(-.6606 .7507 -.7507 -.6606 713.6301 -204.0497)" cx="402.937" cy="59.277" rx="3.632" ry="5.5"/><use xlink:href="#T" x="60"/></g><g class="D"><ellipse transform="matrix(-.9505 .3107 -.3107 -.9505 809.0619 -55.307)" cx="408.936" cy="36.78" rx="2.166" ry="2.708"/><use xlink:href="#R" x="180.083"/><use xlink:href="#U" x="60"/><use xlink:href="#V" x="60"/><use xlink:href="#W" x="60"/><use xlink:href="#X" x="60"/></g><g class="B"><ellipse transform="matrix(.0334 .9994 -.9994 .0334 433.7621 -426.5306)" cx="437.392" cy="10.984" rx="1.199" ry=".378"/><ellipse transform="matrix(.0326 .9995 -.9995 .0326 425.1353 -416.5808)" cx="427.765" cy="11.326" rx="1.198" ry=".378"/></g><g class="C"><use xlink:href="#B" x="419.508"/><ellipse transform="matrix(-.6607 .7506 -.7506 -.6607 763.199 -226.4136)" cx="432.769" cy="59.276" rx="3.632" ry="5.5"/><use xlink:href="#Q" x="209.916"/></g><g class="D"><ellipse transform="matrix(-.9506 .3105 -.3105 -.9506 867.304 -64.5294)" cx="438.788" cy="36.76" rx="2.167" ry="2.708"/><use xlink:href="#Y"/><use xlink:href="#E" x="419.506"/><use xlink:href="#Z"/><use xlink:href="#a"/><use xlink:href="#S" x="209.916"/></g><g class="B"><ellipse transform="matrix(.0334 .9994 -.9994 .0334 462.7617 -456.5143)" cx="467.393" cy="10.984" rx="1.199" ry=".378"/><ellipse transform="matrix(.0322 .9995 -.9995 .0322 454.3468 -446.5651)" cx="457.764" cy="11.326" rx="1.198" ry=".379"/></g><g class="C"><use xlink:href="#B" x="449.508"/><ellipse transform="matrix(-.6606 .7507 -.7507 -.6606 812.9877 -248.9694)" cx="462.769" cy="59.275" rx="3.632" ry="5.5"/><use xlink:href="#Q" x="239.916"/></g><g class="D"><ellipse transform="matrix(-.9506 .3105 -.3105 -.9506 925.823 -73.8459)" cx="468.789" cy="36.759" rx="2.167" ry="2.708"/><use xlink:href="#Y" x="30"/><use xlink:href="#E" x="449.506"/><use xlink:href="#Z" x="30"/><use xlink:href="#a" x="30"/><use xlink:href="#S" x="239.916"/></g><defs ><path id="B" d="M11.532 18s-4.338.25-5.48 3.625 1.856 5.625 4.856 7.75 7.938 2.25 9.156-.875-.37-4.875-1.826-5.25-2.58-4.875-6.705-5.25z"/><path id="C" d="M7.28 33.188s-1.923-.53-2.877 1.695-1.802 3.922-.636 4.452 2.875-.104 3.134.53.714 1.378.38 2.544-2.08.742.118 3.392 3.53 2.438 5.674 0 1.95-3.922 3-2.438-.414 1.6 0 3.074 6.57 1.06 6.036-3.182-2.124-6.358-5.198-7.736-7.526-2.9-9.632-2.33z"/><path id="D" d="M18.157 22.78s-.75.188-.78.656.28 1.25.39 1.655.39 1.625 1.078 1.688 1.53-.22 1.78-.562 1.094-1.5.906-2.062-.53-.938-1-.906-1.75-.5-2.375-.47z"/><path id="E" d="M7.22 21.47s-.625.344-.688.938.188 2.22.188 2.22.375 1.406.28 1.72-.688 1.438-.688 1.438-.406.688 0 .875 1.5-.22 2.094-.875 1.156-1.312 1.156-2.375 2.157-5.564-2.343-3.94z"/><path id="F" d="M12.25 69.25s-.656.28-.72.97.72 2.28.72 2.28.975 1.5 1.003 1.844 1.09 1.25 1.59.406.312-2.97.312-2.97-.274-1 .035-1.72-.222-.812-.69-1-1.586-.528-2.25.188z"/><path id="G" d="M8.074 49.958c-.448 1.464.184 2.584.404 3.917s.085 1.896.554 2.417 1.125.667 1.792.75a2.44 2.44 0 0 0 2.25-.875c.712-.836.86-1.666.597-2s-.674.114-1.43-.042-1.074-.667-1.308-1.042-.27-1.1-.61-1.833-1.803-2.756-2.25-1.292z"/><path id="H" d="M11.45 31.814s-1.356.27-1.76.895-.28 2.833-.28 2.833.595 1.083.506 1.792-.077 2.5 0 2.625.202 1.084.952 1.417 2.875-.75 3.083-1.167.083-1.957.542-2.54 1.057-1.975.917-3-1.584-3.788-3.96-2.854z"/><path id="I" d="M72.084 69.25s-.656.28-.72.97.72 2.28.72 2.28.975 1.5 1.003 1.844 1.09 1.25 1.59.406.312-2.97.312-2.97-.274-1 .035-1.72-.222-.812-.69-1-1.585-.528-2.25.188z"/><path id="J" d="M97.908 49.958c-.448 1.464.184 2.584.404 3.917s.085 1.896.554 2.417 1.125.667 1.792.75a2.44 2.44 0 0 0 2.25-.875c.712-.836.86-1.666.597-2s-.674.114-1.43-.042-1.074-.667-1.308-1.042-.27-1.1-.61-1.833-1.804-2.756-2.25-1.292z"/><path id="K" d="M281.372 18s-4.338.25-5.48 3.625 1.856 5.625 4.856 7.75 7.938 2.25 9.155-.875-.37-4.875-1.825-5.25-2.58-4.875-6.705-5.25z"/><path id="L" d="M277.12 33.188s-1.924-.53-2.877 1.695-1.803 3.922-.637 4.452 2.875-.104 3.135.53.714 1.378.38 2.544-2.08.742.118 3.392 3.53 2.438 5.674 0 1.95-3.922 3-2.438-.414 1.6 0 3.074 6.57 1.06 6.036-3.182-2.124-6.358-5.198-7.736-7.526-2.9-9.632-2.33z"/><path id="M" d="M287.997 22.78s-.75.188-.78.656.28 1.25.392 1.655.392 1.625 1.078 1.688 1.53-.22 1.78-.562 1.095-1.5.906-2.062-.53-.938-1-.906-1.75-.5-2.375-.47z"/><path id="N" d="M282.09 69.25s-.655.28-.72.97.72 2.28.72 2.28.976 1.5 1.003 1.844 1.092 1.25 1.592.406.312-2.97.312-2.97-.273-1 .035-1.72-.223-.812-.69-1-1.587-.528-2.25.188z"/><path id="O" d="M277.914 49.958c-.448 1.464.184 2.584.404 3.917s.084 1.896.554 2.417 1.125.667 1.792.75a2.44 2.44 0 0 0 2.25-.875c.712-.836.86-1.666.598-2s-.675.114-1.43-.042-1.074-.667-1.308-1.042-.27-1.1-.61-1.833-1.803-2.756-2.25-1.292z"/><path id="P" d="M281.29 31.814s-1.355.27-1.762.895-.28 2.833-.28 2.833.596 1.083.506 1.792-.076 2.5 0 2.625.202 1.084.952 1.417 2.875-.75 3.083-1.167.083-1.957.542-2.54 1.058-1.975.917-3-1.584-3.788-3.96-2.854z"/><path id="Q" d="M216.87 33.188s-1.923-.53-2.877 1.695-1.803 3.922-.637 4.452 2.875-.104 3.135.53.714 1.378.38 2.544-2.08.742.118 3.392 3.53 2.438 5.674 0 1.95-3.922 3-2.438-.414 1.6 0 3.074 6.57 1.06 6.036-3.182-2.124-6.358-5.198-7.736-7.526-2.9-9.632-2.33z"/><path id="R" d="M227.747 22.78s-.75.188-.78.656.28 1.25.392 1.655.39 1.625 1.078 1.688 1.53-.22 1.78-.562 1.095-1.5.906-2.062-.53-.938-1-.906-1.75-.5-2.375-.47z"/><path id="S" d="M221.04 31.814s-1.355.27-1.76.895-.28 2.833-.28 2.833.596 1.083.506 1.792-.076 2.5 0 2.625.202 1.084.952 1.417 2.875-.75 3.083-1.167.083-1.957.542-2.54 1.058-1.975.917-3-1.584-3.788-3.96-2.854z"/><path id="T" d="M336.952 33.188s-1.923-.53-2.877 1.695-1.802 3.922-.636 4.452 2.875-.104 3.134.53.715 1.378.38 2.544-2.082.742.116 3.392 3.53 2.438 5.675 0 1.95-3.922 3.002-2.438-.414 1.6 0 3.074 6.57 1.06 6.035-3.182-2.123-6.358-5.197-7.736-7.526-2.9-9.633-2.33z"/><path id="U" d="M336.893 21.47s-.625.344-.688.938.188 2.22.188 2.22.375 1.406.28 1.72-.688 1.438-.688 1.438-.405.688 0 .875 1.5-.22 2.095-.875 1.155-1.312 1.155-2.375 2.158-5.564-2.342-3.94z"/><path id="V" d="M341.925 69.25s-.655.28-.72.97.72 2.28.72 2.28.976 1.5 1.003 1.844 1.092 1.25 1.592.406.312-2.97.312-2.97-.274-1 .035-1.72-.224-.812-.69-1-1.587-.528-2.25.188z"/><path id="W" d="M337.747 49.958c-.447 1.464.185 2.584.403 3.917s.086 1.896.556 2.417 1.125.667 1.79.75 1.54-.04 2.25-.875.86-1.666.598-2-.674.114-1.43-.042-1.074-.667-1.3-1.042-.27-1.1-.608-1.833-1.804-2.756-2.25-1.292z"/><path id="X" d="M341.122 31.814s-1.354.27-1.76.895-.28 2.833-.28 2.833.596 1.083.506 1.792-.075 2.5 0 2.625.203 1.084.953 1.417 2.875-.75 3.082-1.167.084-1.957.543-2.54 1.058-1.975.916-3-1.584-3.788-3.96-2.854z"/><path id="Y" d="M437.664 22.78s-.75.188-.78.656.28 1.25.393 1.655.39 1.625 1.077 1.688 1.53-.22 1.78-.562 1.095-1.5.906-2.062-.53-.938-1-.906-1.75-.5-2.375-.47z"/><path id="Z" d="M431.758 69.25s-.655.28-.72.97.72 2.28.72 2.28.977 1.5 1.003 1.844 1.092 1.25 1.592.406.312-2.97.312-2.97-.274-1 .035-1.72-.222-.812-.69-1-1.587-.528-2.25.188z"/><path id="a" d="M427.58 49.958c-.448 1.464.184 2.584.404 3.917s.085 1.896.554 2.417 1.125.667 1.792.75a2.44 2.44 0 0 0 2.25-.875c.712-.836.86-1.666.598-2s-.675.114-1.43-.042-1.074-.667-1.31-1.042-.27-1.1-.608-1.833-1.803-2.756-2.25-1.292z"/></defs></svg>