<svg xmlns="http://www.w3.org/2000/svg" xmlns:xlink="http://www.w3.org/1999/xlink" width="304" height="108"><style><![CDATA[.B{fill:#28334c}.C{fill:#ef2b2b}.D{fill:#224}]]></style><path fill="#f9e9dc" d="M284.846 91.602c1 1.398 3.4 2 4 4.198-.2 0-.4.2-.8.2-1 0-4.4-3.6-4.602-4.398-.6-1.802-1.198-5-1.198-5.4v-.6c.8 2 1.4 4 2.6 6zm-266 0c1 1.398 3.4 2 4 4.198-.2 0-.4.2-.8.2-1 0-4.4-3.6-4.6-4.398-.6-1.802-1.2-5-1.2-5.4v-.6c.8 2 1.4 4 2.6 6zm42.4-.802c.8.802 3 1.4 3.6 2.6v.6h-1.4c-4.4-1.6-5.8-6-6.4-9 1 1.8 1.8 4 4.2 5.8zm222.6-5.198c2.8 2.6 7.6 9.198 7.6 11.8 0 1.2-.398 1.4-1 1.4-2.198 0-5.8-3.4-7.6-3.4-.6.602-1 1.4-1.4 2.2-.6 1.198-1.398 8.8-5.8 8.8-1.6 0-2.397-3.6-2.397-4.198 0-6.2 2.397-12.802 4.6-18.802.4.602 1 1.4 1 2 0 0-4 11.802-4 13.802 0 .8-.2 1.198.8 2 .2 0 .6-.4.6-.6.6-2 1.2-4.2 1.4-6.2l.6-3.6c.4-1.6.6-3.198.8-4.8 1 .2 1 1 1 1.602 0 .398-.4 4.198-.4 4.8 0 1-.198 2 .802 2 1.198 0 1.4-1.6 1.4-1.8 0-.4-.8-5.2-.8-5.802 0-.4.8-1 1-1.4.2-.6.398-1.398.8-2.198.193.797.393 1.797.994 2.4zm-266 0c2.6 2.398 7.6 8.8 7.6 11.8 0 1.2-.4 1.4-1 1.4-2.2 0-5.8-3.4-7.6-3.4-.6.602-1 1.4-1.4 2.2-.6 1.198-1.4 8.8-5.8 8.8-1.6 0-2.4-3.6-2.4-4.198 0-6.2 2.4-12.802 4.6-18.802.4.602 1 1.4 1 2 0 0-4 11.802-4 13.802 0 .8-.2 1.198.8 2 .2 0 .6-.4.6-.6.6-2 1.2-4.2 1.4-6.2l.6-3.6c.4-1.6.6-3.198.8-4.8 1 .2 1 1 1 1.602 0 .398-.4 4.198-.4 4.8 0 1-.2 2 .8 2 1.2 0 1.4-1.6 1.4-1.8 0-.4-.8-5.2-.8-5.802 0-.4.8-1 1-1.4.2-.6.4-1.398.8-2.198.2.797.4 1.797 1 2.4zM143.645 87c1.2.602 3.8.4 4.8 1.8-.2.4-.8.802-1.2.802-3.4 0-7.2-3.4-9-7 1.8 1.798 3.4 3.598 5.4 4.398zm104.2-2.2c1 1 2.4 1.6 3.6 2.802 1.802 1.8 5.4 6.398 5.4 8.398 0 1.2-1.2 1-1.4 1-2.398 0-5.198-2.398-7.6-2.398-.6 1-1 2-1.2 3-.397 1-.8 8.6-4.8 8.6-1.2 0-2.6-2.802-2.6-3.2v-8.8l2.4-10.802c.398.4 1.198 1 1.198 1.602 0 .2-2.4 10.8-2.4 13.2 0 .8-.198 2.198.802 2.8h.6c.8-3.2.8-7.398 1.2-10.398 0-4 .2-4.4.2-5 1.198-.2 1.198 1.8 1.198 2.8v4.2c.2.6.4 1 .802 1.398.198-.2 1.198-1.2 1.4-1.8l-1.4-6c0-.4.4-.802.8-1.2 0 .2.2.602.2 1 .6 1.398 1 3.398 1.8 5 .2.398 3.8 3.8 5 3.8.398 0 .6-.198 1-.397v-.8c-1.2-1-2.8-1.802-4-2.802-.4-.397-3.8-5.397-3.8-6.6 0-.4.198-1.2.4-1.802.4.8.6 1.6 1.202 2.4zm-189.4-.4c.8.8 2 1.6 3 2.2 1.6 1 6.4 7 6.4 8.8 0 1.2-.8 1.2-1.2 1.2s-6.6-2.4-7.2-2.4c-1.6 0-2 4-2 4.4 0 1.398-.4 3-.8 4.398 0 .602-2.2 3.2-3.4 3.2-2.8 0-3-5.4-3-6.6v-5.4l2-10.802c.4.2 1.4.802 1.4 1.4 0 .4-.2.4-.4.6-.4 2.2-1.6 8.802-1.6 12 0 .802-.2 3 .8 3.602h.6c.4-1 .4-2.2.6-3.398l.2-12.2c2.2-2 .2 8.397 2.4 8.397.8 0 1.2-1.6 1.4-1.6l-1.8-6.4c.2-.397.8-1 1-1 .2-.198 0-.198 0-.6 0-.6.2-1.2.4-1.802.4.605.6 1.405 1.2 2.005zm153.6-.4c1 .8 2.6 1.4 3.8 2.4s6.2 6 6.2 7.8c0 1.2-1.602 1-1.8 1-.4 0-4.802-1.2-7.2-1.6-1 1.198-1 3-1.2 4.6 0 .2-.2 7.6-3.8 7.6-3.2 0-3.602-8.198-3.602-9V92l1.2-9c.6.602 1.198 1.2 1.198 1.602l-1 11.6c0 1.4-.6 3.4 1.4 4.6.198 0 .397-.397.6-.6v-7l-.6-7.6c0-.4 0-.602.198-.802.2 0 .602.2.802.4.198 1 .397 2 .397 3 0 .4 0 5 1.603 5 1 0 1.198-1.6 1.198-1.6 0-.4-2.198-6-2.198-6.4 0-.6.397-.4.8-.8.2.397.398 1 .602 1.6.6 1 1.198 2.602 2 4 .398.602 4.198 3.2 5.198 3.2.6 0 .802-.2 1.2-.6-1.2-2.2-3.602-1.802-5-3.602-2.398-2.8-4-4.398-4-7 0-.602 0-.2.2-.398.604.8 1.003 1.6 1.803 2.4zm-112.4-.6c1.2.8 2.8 1.8 4.4 2.6 1.4.8 6 5.2 6 7 0 .8-1.6 1-2 1s-5.8-1.2-6.2-1.2c-1.4 0-1.6 1.6-1.6 2.802v5.6c-.4 1.198-1.8 4.198-3.4 4.198-1.4 0-2.6-1.6-3-2.8-.8-2.602-1-5.4-1.4-8.2l.4-11.8c.4.398 1.2 1 1.2 1.6v12.4c.4 1.198 0 2.398 1.4 3.8h.8v-3l-1.6-13.198c.4.198.8.4 1 .6.4 1.2.6 2.603.8 3.802.2.198.2 4 1.8 4 .8 0 1.2-1.2 1.2-1.602 0-.398-2-4.2-2.8-6.398.2 0 .6-.2.8-.602.2.2.2.602.4 1a36.94 36.94 0 0 0 2.2 3.8c.4.4 4.2 3.2 5 3.2h1.6c0-.2.2-.2.2-.8 0-1.4-4-2-4.6-2.6-2-1.602-3.8-3.4-4.8-5.2-.4-.6-.4-1.8-.4-2.198 0-.6 0-.2.2-.4.6.8 1.2 1.8 2.4 2.597zm85.2 9.8c-.4 0-4.6-.8-6.8-.8-.8 1.397-.8 4-.602 5.6.2 1.2.2 2.602-.198 4-.2 1-1.802 3.2-3 3.2-1 0-2.4-1.4-2.802-2.4-1-2.8-2-8.4-2-8.8V82.2c.2.4.802 1 1.4 1.4l.2 11.198c.2 1 0 5.4 1.8 5.4.6 0 .802-.4.802-.802l-2.4-15.198c1.4.4 1.198-.2 1.198.6 0 .4 1.802 7.603 2.602 7.603 1 0 1.2-1.2 1.2-1.4 0-.6-2.802-5.8-2.802-6.2 0-.6.4-.6.802-1 1 2.2 3.4 6.802 6.8 7.2.2.2.2.4.8.4h1.8c0-.2.2-.2.2-.8 0-1.2-3.8-2-3.8-2-1.8-.602-4.8-3.602-6-5.602-.4-.8-.4-1.602-.602-2.398.802.6 1.802 1.6 2.802 2.398 1.6 1 3.4 1.602 5 2.8 1.4 1 5.8 4.4 5.8 6.4 0 1.203-2 1.003-2.2 1.003zm-34.4-2l-7.2-.2c-.6.4-.6 1.8-.6 2 0 .4.8 6.2.8 6.8 0 1-1.2 4.4-2.8 4.4-1.2 0-2.2-.8-3.2-2.2-.8-1.2-1-2.6-1.4-3.6-1.2-3.4-2.2-7.8-2.2-11 0-1.603-.6-4.603-.6-5v-.8c.4.4 1.2.602 1.4 1.4.4.6.2 1.6.4 2.4 1 4.8.2 9.398 3.4 14h.6c.2-.2.4-.4.4-.602l-4.2-15.197c.6 0 1 0 1.2.397 1 .8 2.2 7.4 3.6 7.4 1 0 1-1.2 1-1.4 0-1.2-3.4-5.2-3.4-5.8s.2-1.2.6-1.8c-1.2-.4-1.2-2.2-1.6-3 1.2.8 2.2 1.8 3.2 2.398 1.8.8 3.8 1.4 5.6 2.4.6.4 6.6 3.6 6.6 6 0 .807-1.4 1.007-1.6 1.007z"/><path fill="#fff" d="M282.8 5.2c5.2 7.6 7.4 17.8 7.4 26l-.2 7c-.6 6.6-1.2 13.2-2.8 19.8-1.2 5-2.6 10.2-3.6 15.602C283 77 282.8 81 282.2 84.8c-.2 1.4-1.2 2-2.2 2-1.2 0-2-3.198-2-3.4 0-.6-.6-1.8-.6-2.6 0-12.8-6.8-26.6-7.8-39.2 0-1.4-.4-4.2-.4-4.6V23.6c.4-6 1.6-12 5.4-18-1-1-2.2-2.4-2.602-3.4v-.6c.8 1 2.602 3.2 3.2 3.2.4 0 1.8-1.4 2.8-1.6h.8c1.2 0 1.603.6 3.4 1.4 1-1 2.2-2.2 3-3.2C285 2.2 284 4.2 282.8 5.2zm-45.6-.4c1.8-1 2.6-1.6 3.6-1.6.802 0 2.6.2 3.2 1.4 1-1 2.2-2.2 2.8-3.2 0 2-2 3.2-2 3.8s2 3 2.6 4.6c3 6.4 4.802 14.6 4.802 21.6 0 .4 0 1.8-.2 6.4-.2 1.8-.602 3.8-.602 5.6-.398 10.6-5.198 22.4-5.198 33.2 0 3.8.198 5.2.198 5.602 0 1.2 0 3.8-2.198 3.8-.6 0-1.4-1-2-1.6-1.6-2.2-1.6-5.4-2.2-7.4-1-5.2-2.398-10.8-4-15.8-1.8-6-4.8-18.2-4.8-25V24.4c.198-1.2.198-2.6.4-3.8.6-3.2 1.198-6.4 2.198-9.6.6-2 2.802-5 2.802-5.4 0-.6-2.4-3.2-2.4-3.6v-.6C235 2.4 236 3.6 237.2 4.8zm-220.4.4c5.4 7.8 7.4 17.6 7.4 25.6L24 38c-.6 6.2-1.2 13.6-2.8 20-1.2 5-2.6 10.4-3.6 15.602C16.8 77 16.8 81 16.2 84.8c-.2 1.802-1 1.802-1.8 1.802-1.6 0-2.4-2.802-2.4-3.2 0-.6-.6-1.8-.6-2.6 0-13-6.8-26-7.8-39 0-1.6-.4-4.4-.4-4.8V23.6c.4-6 1.6-12 5.4-18-1-1-2.2-2.4-2.6-3.4v-.6c.8 1 2.6 3.2 3.2 3.2.4 0 1.8-1.4 2.8-1.6h.8c1.2 0 2 .2 3.4 1.4 1-1 2.2-2.2 3-3.2-.2.8-1.2 2.8-2.4 3.8zm38 0c0 .4 2.4 3.8 3 5.6.8 2 4.2 12 4.2 15.4V37c-.4 5.8-1 11.4-2 17-.6 3.602-1.8 7.4-2.4 11.2-.6 3.6-1 10.8-1 11.4 0 .398.4 6 .4 6.398 0 1.2-.6 2.602-1.8 2.602-3.6 0-4.6-7.802-4.8-8.2-.4-2.2-1.2-4.8-1.8-7-1.2-4.4-2.4-9.2-3.8-13.4-1.6-5.2-3.6-15.8-3.6-21.8v-9.6c.2-1.4.2-3 .4-4.6.2-2 .4-4 1-6a27 27 0 0 1 2.2-6.4c.4-1.2 1.8-2.6 1.8-3 0-.2-2.4-2.6-2.2-4.2.6 1 1.6 2.2 2.8 3.4 1.8-1 2.6-1.6 3.6-1.6 1.4 0 2.4 1.2 3.2 1.2.4 0 2-2 2.8-3.2 0 2-2 3.2-2 4zm148.2-2c1 0 2 .2 3 1.4 1-1.2 2-2.4 2.602-3.6 0 1.4-1 2.8-2 4.2 1.6 1.4 2.6 3.8 3.198 5.6 1 2 4.2 11.8 4.2 15.6V37c-.398 5.4-.8 10.8-1.8 16-1.6 9.4-3 12-3 20 0 .4 0 5.4.6 8 0 .602.4 1.2.4 1.8 0 1 0 2.4-1.6 2.4-2.4 0-4.4-4.4-5-6.4-.6-2.8-1.8-5.4-2.6-8-2.2-7.198-5-15.198-6.397-22.6-.6-3.2-1.2-9.4-1.2-9.8V22.8c.2-1 .398-2.2.398-3.2.4-3.2 1.2-6.6 2.4-9.6.398-1.4 2.398-4 2.398-4.4 0-.6-1.2-1.4-1.6-2.2-.395-.6-.395-1.4-.597-2.4.6 1 1.6 2.4 2.8 3.8 1.2-.8 2.8-1.6 3.8-1.6zm-38 0c1 0 1.8.6 3 1.2.8-1 1.602-2.2 2.2-3.2 0 0 .2-.2.2.4 0 .4-1.8 3-1.8 3.6 0 .4.6.8.8 1.2 1 1 1.6 2.4 2.2 4 3.4 7.4 4.4 13.8 4.4 21.4l-.2 7.8c-.398 4.4-.8 8.8-1.6 13.2C172.6 61 172 61.6 172 68.4c0 .397 0 5.8.602 8.8.198 2 1.398 5.4 1.398 6 0 .8 0 1.4-1 1.4-3.8 0-6.8-7.602-7.6-9.2-3.8-8.603-6.8-17.603-8.603-26.2C156 45.4 155.4 38 155.4 37.6v-14c.2-1.2.2-2.4.397-3.6.2-.8.4-1.8.4-2.8.6-2.2 1-4.6 1.8-6.6.602-1.8 2.602-4.6 2.602-5 0-.6-1.602-3-2-4.4.8 1 1.8 2.4 2.8 3.6.6-1 2.6-1.6 3.6-1.6zM85.4 4.8c.4-1 2.8-1.6 3.4-1.6.8 0 2.8 1.2 3 1.2.6 0 2-2.2 2.6-3.4 0 1.4-1 2.8-1.8 4.2.6.8 1.2 1.4 1.6 2.4 4.6 8.8 5.8 15.6 5.8 24.2s-.6 13.8-2.2 23.4c-.2 2-1 4.2-1.4 6.2-.6 2.8-.6 5.6-.6 8.397 0 6.2 1.6 12.2 1.6 13.2 0 1.2-.2 1.8-1.4 1.8-4.6 0-8.2-12.6-8.4-13.198-2.6-7.2-5.4-15.4-6.8-22.4-.8-3.6-1.4-10.4-1.4-10.8V22.8c.2-1 .4-2.2.4-3.2.2-1.4.4-3.2.8-4.4 0-.6.2-1.6.6-2.2.4-1.4 1-3.2 1.6-4.4.4-1.2 1.8-2.6 1.8-3 0-.6-2-3.4-2-3.8v-1c0 1 1.6 2.6 2.8 4zm38 0c.6-1 2.6-1.6 3.6-1.6.8 0 1.2 0 2.8 1.2 1-1.2 1.8-2.4 2.2-3.6 0 0 .2-.2.2.4 0 1.2-1.6 3-1.6 3.8 0 .6 2 3 2.6 4.6 3.8 9 4.8 13.8 4.8 22.2l-.2 6.8-1.4 13c-.6 5-2.2 9.2-2.2 14 0 3.4.8 8.2 1.6 11.4.4 2.2 2.2 6 2.2 6.4 0 .6-.2.8-.8.8-1.2 0-4.2-2.6-5.2-3.8-7.4-9.4-10.2-19-12.6-28.602-1-4.4-2-10.4-2-15V24.4c.2-1.2.2-2.6.4-4 .2-1 .4-2.2.4-3.2.6-2.4 1.2-5.2 2.2-7.6.4-1.4 2.4-3.6 2.4-4 0-.6-1.8-3-1.8-3.4V.6c.6 1.4 1.4 2.8 2.4 4.2z"/><path fill="#f3d2af" d="M281.068 86.596l.6 5.8c0 .398-.2 1-.6 1.6h-1.2c.2-4.802.398-6.2 0-7.397h1.2v-.005zm-266 0l.6 5.8c0 .398-.2 1-.6 1.6h-1.2c.2-4.802.4-6.2 0-7.397h1.2v-.005zm270.2 5.2c.8 1 2.602 2 3.602 3.2v.6c-.2.2-.2.2-.8.2-1.2 0-3.602-2.398-4.2-3.398-.8-1.602-1.398-4.4-1.398-4.8v-1.6c.796 1.8 1.395 3.8 2.796 5.8zm-266 0c.8 1 2.6 2 3.6 3.2v.6c-.2.2-.2.2-.8.2-1.2 0-3.6-2.398-4.2-3.398-.8-1.602-1.4-4.4-1.4-4.8v-1.6c.8 1.8 1.4 3.8 2.8 5.8zm225.8-6l1.6 6.4c0 .8-1 1.4-1.4 1.4-.6 0-.8-3.603-.8-3.603v-4.2l.6.003zm31 15h-.602c-.398-.6-.398-1.398-.398-1.8 0-4 2.8-10 3.8-13.4a177.46 177.46 0 0 1-2.801 15.199zm-220.4-15c.6 2 1.8 5.602 1.8 6.2 0 .8-.6 1.4-1.2 1.4-1 0-1-4-1-4.2v-3.6c.2.001.4.001.4.2zm-45.6 15h-.6c-.4-.6-.4-1.398-.4-1.8 0-4 2.8-10 3.8-13.4-.6 4.4-1.6 10-2.8 15.2zm243-6.4c-1 0-4-2-4.602-3.2-1-1.8-1.6-3.8-2-5.6l.2-.2c.8 1.6 1.8 3.2 2.8 4.8s3.8 2 4.602 3.8a1.53 1.53 0 0 1-1 .4zm-10.2-3.4c-.4 2.8-.602 6.8-1.2 9.8-.4-.2-1-.6-1-1v-4c1-3.6 1-7.398 2.4-10.6 0 2.2 0 2.6-.2 5.8zm-33.6-5.8c.602 2 2.2 5.8 2.2 6.2 0 .6-.8 1.398-1.2 1.398-1 0-1.6-6-1.6-6.197v-1.4h.6zm-144.4 8.6c-.2 0-.4.2-.8.2-1.4 0-4.2-2.4-4.8-3.2-1.2-1.6-1.4-3.398-2-5.2 1 .8 1.6 2.4 3 4.2 1.4 1.2 3 2 4.6 3.2v.8zm34.4-2.8c0 .2-.6 1-1.2 1.4-1.4-2.4-1.8-5.2-2-7.602h.6c.8 2.003 2.6 5.804 2.6 6.203zm-45.6 3.6l-.6 6h-.6c-.4-.4-.6-.8-.6-1.2v-4.8l1.8-9.8v9.8zm122.6-3.8c0 .4-.398 1.2-1 1.2s-.6-.2-.8-.4c-.6-2-1.6-5.6-1.6-6v-1c1.2.8 3.4 5.6 3.4 6.2zm38.4-1.4c1.2 1.2 2.8 1.6 4.2 2.6v.602c-.2 0-.602.198-1 .198-3.4 0-7.4-6.198-7.4-8.4 1.2 1.598 2.4 3.598 4.2 5zm-7 2.8v8s0 .2-.4.2c-.8 0-1.2-1.602-1.2-1.8v-5.2c.398-3 .6-6.2 1-9l.598 7.8zm-70-8c1.2 1.8 3.4 5 3.4 5.6 0 .4-.4 1.2-1 1.2s-.8-.4-1-.8c-.8-1.8-2-5-2-5.4v-.6h.6zm-41.4 15.2c0 .2 0 .8-.6.8-1 0-1.4-3.2-1.4-3.4v-12.6l2 15.2zm5.8-11c1.4 1.2 3.2 1 4.8 2.6-.4.4-1 .8-1.2.8-4 0-7.4-6-7.8-7.8 1.2 1.4 2.4 3.2 4.2 4.4zm77-.4c1.398 1.2 3.2.8 4.8 2.4-.2.2-1.2.8-1.4.8-3 0-7.398-4.6-7.8-7.4 1.4 1.4 2.6 3 4.4 4.2zm-5.6 10.2v1.6s0 .2-.398.2c-1.4 0-1.8-4.8-1.8-5l-.2-11.2 2.398 14.4zm-34.2.8s0 .2-.4.2c-1.8 0-2.4-4.6-2.4-5-.6-2.8-1.2-8.2-1.2-8.6v-2c1.2 4.8 2.8 9.2 4 15.4zm3.8-12.6c1.6 1.2 3.6.6 5.4 2v.6c-.4.2-.8.4-1.4.4-3 0-7.2-3.2-8.6-6.603 1.4 1.002 2.8 2.402 4.6 3.603z"/><g class="B"><ellipse transform="matrix(.0336 .9994 -.9994 .0336 28.2354 -7.2563)" cx="17.87" cy="10.972" rx="1.199" ry=".378"/><ellipse transform="matrix(.0324 .9995 -.9995 .0324 19.3107 2.6904)" cx="8.266" cy="11.319" rx="1.198" ry=".378"/></g><g class="C"><use xlink:href="#B"/><ellipse transform="matrix(-.6607 .7507 -.7507 -.6607 66.545 88.5016)" cx="13.27" cy="59.291" rx="3.632" ry="5.499"/><use xlink:href="#C"/></g><g class="D"><ellipse transform="matrix(-.9505 .3106 -.3106 -.9505 48.993 65.754)" cx="19.26" cy="36.778" rx="2.166" ry="2.708"/><use xlink:href="#D"/><use xlink:href="#E"/><use xlink:href="#F"/><use xlink:href="#G"/><use xlink:href="#H"/></g><g class="B"><ellipse transform="matrix(.0336 .9994 -.9994 .0336 64.4774 -44.7351)" cx="55.371" cy="10.973" rx="1.199" ry=".378"/><ellipse transform="matrix(.0322 .9995 -.9995 .0322 55.6049 -34.7866)" cx="45.765" cy="11.319" rx="1.198" ry=".378"/></g><g class="C"><use xlink:href="#B" x="37.5"/><ellipse transform="matrix(-.6607 .7507 -.7507 -.6607 128.8187 60.3501)" cx="50.769" cy="59.29" rx="3.632" ry="5.5"/><use xlink:href="#C" x="37.5"/></g><g class="D"><ellipse transform="matrix(-.9506 .3105 -.3105 -.9506 122.1373 54.1141)" cx="56.761" cy="36.78" rx="2.166" ry="2.708"/><use xlink:href="#D" x="37.5"/><use xlink:href="#E" x="37.5"/><use xlink:href="#F" x="37.5"/><use xlink:href="#G" x="37.5"/><use xlink:href="#H" x="37.5"/></g><g class="B"><ellipse transform="matrix(.0336 .9994 -.9994 .0336 102.008 -83.5467)" cx="94.205" cy="10.974" rx="1.199" ry=".378"/><ellipse transform="matrix(.0322 .9995 -.9995 .0322 93.1887 -73.5987)" cx="84.598" cy="11.32" rx="1.198" ry=".378"/></g><g class="C"><use xlink:href="#B" x="76.334"/><ellipse transform="matrix(-.6607 .7507 -.7507 -.6607 193.3053 31.1962)" cx="89.602" cy="59.288" rx="3.632" ry="5.5"/><use xlink:href="#C" x="76.333"/></g><g class="D"><ellipse transform="matrix(-.9505 .3107 -.3107 -.9505 197.888 42.0431)" cx="95.596" cy="36.781" rx="2.166" ry="2.708"/><use xlink:href="#D" x="76.333"/><use xlink:href="#E" x="76.333"/><use xlink:href="#I"/><use xlink:href="#J"/><use xlink:href="#H" x="76.333"/></g><g class="B"><ellipse transform="matrix(.0336 .9994 -.9994 .0336 138.2509 -121.0256)" cx="131.707" cy="10.976" rx="1.199" ry=".378"/><ellipse transform="matrix(.0324 .9995 -.9995 .0324 129.4562 -111.0795)" cx="122.097" cy="11.321" rx="1.198" ry=".378"/></g><g class="C"><use xlink:href="#B" x="113.834"/><ellipse transform="matrix(-.6607 .7507 -.7507 -.6607 255.5789 3.0447)" cx="127.101" cy="59.287" rx="3.632" ry="5.5"/><use xlink:href="#C" x="113.833"/></g><g class="D"><ellipse transform="matrix(-.9506 .3105 -.3105 -.9506 271.035 30.4145)" cx="133.096" cy="36.782" rx="2.166" ry="2.708"/><use xlink:href="#D" x="113.833"/><use xlink:href="#E" x="113.833"/><use xlink:href="#I" x="38.5"/><use xlink:href="#J" x="37.5"/><use xlink:href="#H" x="113.833"/></g><g class="B"><ellipse transform="matrix(.0334 .9994 -.9994 .0334 175.3016 -159.304)" cx="170.009" cy="10.977" rx="1.199" ry=".378"/><ellipse transform="matrix(.0326 .9995 -.9995 .0326 166.4833 -149.361)" cx="160.398" cy="11.321" rx="1.198" ry=".378"/></g><g class="C"><use xlink:href="#K"/><ellipse transform="matrix(-.6607 .7507 -.7507 -.6607 319.1851 -25.7041)" cx="165.402" cy="59.286" rx="3.631" ry="5.5"/><use xlink:href="#L"/></g><g class="D"><ellipse transform="matrix(-.9506 .3105 -.3105 -.9506 345.7546 18.5086)" cx="171.404" cy="36.771" rx="2.166" ry="2.708"/><use xlink:href="#M"/><use xlink:href="#N"/><use xlink:href="#O"/><use xlink:href="#P"/><use xlink:href="#Q"/></g><g class="B"><ellipse transform="matrix(.0338 .9994 -.9994 .0338 211.467 -196.7852)" cx="207.51" cy="10.978" rx="1.199" ry=".378"/><ellipse transform="matrix(.0318 .9995 -.9995 .0318 202.923 -186.8353)" cx="197.897" cy="11.322" rx="1.198" ry=".378"/></g><g class="C"><use xlink:href="#K" x="37.5"/><ellipse transform="matrix(-.6607 .7506 -.7506 -.6607 381.4604 -53.8537)" cx="202.901" cy="59.285" rx="3.632" ry="5.501"/><use xlink:href="#L" x="37.5"/></g><g class="D"><ellipse transform="matrix(-.9506 .3104 -.3104 -.9506 418.9059 6.8772)" cx="208.906" cy="36.77" rx="2.166" ry="2.708"/><use xlink:href="#M" x="37.5"/><use xlink:href="#N" x="37.5"/><use xlink:href="#O" x="36.5"/><use xlink:href="#P" x="37.5"/><use xlink:href="#Q" x="37.5"/></g><g class="B"><ellipse transform="matrix(.0338 .9994 -.9994 .0338 248.9902 -235.597)" cx="246.345" cy="10.979" rx="1.199" ry=".378"/><ellipse transform="matrix(.0318 .9995 -.9995 .0318 240.5211 -225.6473)" cx="236.729" cy="11.323" rx="1.198" ry=".378"/></g><g class="C"><use xlink:href="#K" x="76.334"/><ellipse transform="matrix(-.6605 .7508 -.7508 -.6605 445.921 -83.0465)" cx="241.734" cy="59.284" rx="3.631" ry="5.501"/><use xlink:href="#R"/></g><g class="D"><ellipse transform="matrix(-.9505 .3106 -.3106 -.9505 494.629 -5.2175)" cx="247.73" cy="36.779" rx="2.165" ry="2.708"/><use xlink:href="#S"/><use xlink:href="#T"/><use xlink:href="#U"/><use xlink:href="#V"/><use xlink:href="#H" x="228.467"/></g><g class="B"><ellipse transform="matrix(.0334 .9994 -.9994 .0334 285.3406 -273.0755)" cx="283.847" cy="10.979" rx="1.199" ry=".378"/><ellipse transform="matrix(.0326 .9995 -.9995 .0326 276.605 -263.1289)" cx="274.229" cy="11.323" rx="1.198" ry=".377"/></g><g class="C"><use xlink:href="#K" x="113.834"/><ellipse transform="matrix(-.6608 .7506 -.7506 -.6608 508.2384 -111.136)" cx="279.233" cy="59.282" rx="3.631" ry="5.499"/><use xlink:href="#R" x="37.5"/></g><g class="D"><ellipse transform="matrix(-.9505 .3107 -.3107 -.9505 567.7681 -16.8963)" cx="285.23" cy="36.779" rx="2.165" ry="2.708"/><use xlink:href="#S" x="37.5"/><use xlink:href="#T" x="37.5"/><use xlink:href="#U" x="37.5"/><use xlink:href="#V" x="37.5"/><use xlink:href="#H" x="265.967"/></g><defs ><path id="B" d="M11.532 18s-4.338.25-5.48 3.625 1.856 5.625 4.856 7.75 7.938 2.25 9.156-.875-.37-4.875-1.826-5.25-2.58-4.875-6.705-5.25z"/><path id="C" d="M7.28 33.188s-1.923-.53-2.877 1.695-1.802 3.922-.636 4.452 2.875-.104 3.134.53.714 1.378.38 2.544-2.08.742.118 3.392 3.53 2.438 5.674 0 1.95-3.922 3-2.438-.414 1.6 0 3.074 6.57 1.06 6.036-3.182-2.124-6.358-5.198-7.736-7.526-2.9-9.632-2.33z"/><path id="D" d="M18.157 22.78s-.75.188-.78.656.28 1.25.39 1.655.39 1.625 1.078 1.688 1.53-.22 1.78-.562 1.094-1.5.906-2.062-.53-.938-1-.906-1.75-.5-2.375-.47z"/><path id="E" d="M7.22 21.47s-.625.344-.688.938.188 2.22.188 2.22.375 1.406.28 1.72-.688 1.438-.688 1.438-.406.688 0 .875 1.5-.22 2.094-.875 1.156-1.312 1.156-2.375 2.157-5.564-2.343-3.94z"/><path id="F" d="M12.25 69.25s-.656.28-.72.97.72 2.28.72 2.28.975 1.5 1.003 1.844 1.09 1.25 1.59.406.312-2.97.312-2.97-.274-1 .035-1.72-.222-.812-.69-1-1.586-.528-2.25.188z"/><path id="G" d="M8.074 49.958c-.448 1.464.184 2.584.404 3.917s.085 1.896.554 2.417 1.125.667 1.792.75a2.44 2.44 0 0 0 2.25-.875c.712-.836.86-1.666.597-2s-.674.114-1.43-.042-1.074-.667-1.308-1.042-.27-1.1-.61-1.833-1.803-2.756-2.25-1.292z"/><path id="H" d="M11.45 31.814s-1.356.27-1.76.895-.28 2.833-.28 2.833.595 1.083.506 1.792-.077 2.5 0 2.625.202 1.084.952 1.417 2.875-.75 3.083-1.167.083-1.957.542-2.54 1.057-1.975.917-3-1.584-3.788-3.96-2.854z"/><path id="I" d="M89.584 69.25s-.656.28-.72.97.72 2.28.72 2.28.975 1.5 1.003 1.844 1.09 1.25 1.59.406.312-2.97.312-2.97-.274-1 .035-1.72-.222-.812-.69-1-1.585-.528-2.25.188z"/><path id="J" d="M84.408 49.958c-.448 1.464.184 2.584.404 3.917s.085 1.896.554 2.417 1.125.667 1.792.75a2.44 2.44 0 0 0 2.25-.875c.712-.836.86-1.666.597-2s-.674.114-1.43-.042-1.074-.667-1.308-1.042-.27-1.1-.61-1.833-1.804-2.756-2.25-1.292z"/><path id="K" d="M163.666 18s-4.338.25-5.48 3.625 1.855 5.625 4.855 7.75 7.938 2.25 9.156-.875-.37-4.875-1.826-5.25-2.58-4.875-6.705-5.25z"/><path id="L" d="M159.414 33.188s-1.924-.53-2.877 1.695-1.803 3.922-.637 4.452 2.875-.104 3.135.53.713 1.378.38 2.544-2.08.742.12 3.392 3.53 2.438 5.674 0 1.95-3.922 3-2.438-.414 1.6 0 3.074 6.57 1.06 6.037-3.182-2.125-6.358-5.2-7.736-7.525-2.9-9.63-2.33z"/><path id="M" d="M170.29 22.78s-.75.188-.78.656.28 1.25.393 1.655.392 1.625 1.078 1.688 1.53-.22 1.78-.562 1.096-1.5.906-2.062-.53-.938-1-.906-1.75-.5-2.375-.47z"/><path id="N" d="M159.354 21.47s-.625.344-.688.938.188 2.22.188 2.22.375 1.406.28 1.72-.688 1.438-.688 1.438-.405.688 0 .875 1.5-.22 2.095-.875 1.155-1.312 1.155-2.375 2.157-5.564-2.343-3.94z"/><path id="O" d="M165.385 69.25s-.654.28-.72.97.72 2.28.72 2.28.977 1.5 1.004 1.844 1.092 1.25 1.592.406.312-2.97.312-2.97-.272-1 .035-1.72-.222-.812-.7-1-1.59-.528-2.253.188z"/><path id="P" d="M160.21 49.958c-.45 1.464.184 2.584.402 3.917s.086 1.896.555 2.417 1.125.667 1.793.75a2.44 2.44 0 0 0 2.25-.875c.71-.836.86-1.666.598-2s-.676.114-1.432-.042-1.074-.667-1.31-1.042-.27-1.1-.607-1.833-1.805-2.756-2.25-1.292z"/><path id="Q" d="M163.584 31.814s-1.355.27-1.762.895-.28 2.833-.28 2.833.596 1.083.506 1.792-.076 2.5 0 2.625.2 1.084.95 1.417 2.875-.75 3.084-1.167.082-1.957.54-2.54 1.06-1.975.918-3-1.584-3.788-3.96-2.854z"/><path id="R" d="M235.747 33.188s-1.923-.53-2.877 1.695-1.802 3.922-.636 4.452 2.875-.104 3.134.53.714 1.378.38 2.544-2.08.742.118 3.392 3.53 2.438 5.674 0 1.95-3.922 3-2.438-.414 1.6 0 3.074 6.57 1.06 6.036-3.182-2.124-6.358-5.198-7.736-7.525-2.9-9.632-2.33z"/><path id="S" d="M246.625 22.78s-.75.188-.78.656.28 1.25.39 1.655.393 1.625 1.078 1.688 1.53-.22 1.78-.562 1.094-1.5.906-2.062-.53-.938-1-.906-1.75-.5-2.375-.47z"/><path id="T" d="M235.688 21.47s-.625.344-.688.938.188 2.22.188 2.22.375 1.406.28 1.72-.688 1.438-.688 1.438-.404.688 0 .875 1.5-.22 2.096-.875 1.154-1.312 1.154-2.375 2.158-5.564-2.342-3.94z"/><path id="U" d="M240.72 69.25s-.656.28-.72.97.72 2.28.72 2.28.975 1.5 1.004 1.844 1.1 1.25 1.6.406.312-2.97.312-2.97-.273-1 .035-1.72-.223-.812-.69-1-1.586-.528-2.25.188z"/><path id="V" d="M236.542 49.958c-.448 1.464.185 2.584.403 3.917s.086 1.896.555 2.417 1.125.667 1.792.75a2.44 2.44 0 0 0 2.25-.875c.712-.836.86-1.666.597-2s-.674.114-1.43-.042-1.074-.667-1.31-1.042-.27-1.1-.608-1.833-1.804-2.756-2.25-1.292z"/></defs></svg>