<svg xmlns="http://www.w3.org/2000/svg" xmlns:xlink="http://www.w3.org/1999/xlink" width="400" height="108"><style><![CDATA[.B{fill:#ef2b2b}.C{fill:#224}.D{fill:#28334c}]]></style><path fill="#f9e9dc" d="M368.77 91.502c1 1.398 3.398 2 4 4.2-.2 0-.4.198-.8.198-1 0-4.398-3.6-4.6-4.398-.603-1.8-1.2-5-1.2-5.4v-.6c.802 2 1.4 4 2.602 6zm-350 0c1 1.398 3.4 2 4 4.2-.2 0-.4.198-.8.198-1 0-4.4-3.6-4.6-4.398-.6-1.8-1.2-5-1.2-5.4v-.6c.8 2 1.4 4 2.6 6zm306-1.8c1.2 1.198 3 1.6 4.398 2.6v.8h-1.398c-3.602-.6-6.4-5.6-7-8.2 1.2 1.6 2.4 3.6 4 4.8zm-248-.6c1.4 1 3 .603 4.6 2.4-.2.398-.8.6-1.2.6-3.6 0-7-4.6-8-7.6 1.4 1.6 2.8 3.398 4.6 4.6zm199.6 10v.8h-.8c-.8-1.198-1.6-2.6-1.8-3.8-.8-3.6-2-10.397-2-10.8v-1l4.602 14.8zm-42-1.4c-.2.198 0 .198-.602.198-1.398 0-3.6-4.6-3.8-5-1.2-3-2.602-6-3.802-9 2.803 4.602 6.003 9.202 8.203 13.802zm-102.8.198v.802h-.8c-3.8-4.802-4.2-10-6.2-14.802l7 14zm148.4-10.598c1.4.8 3.4.6 5.2 1.6v.602c-.4.2-.8.398-1.4.398-3.398 0-6.6-2.6-8.8-6.398 1.6 1.395 3.2 2.997 5 3.797zm-88.2 7v.6c-.2 0-.2.2-.6.2-1.4 0-5.2-4.8-5.8-5.397-1.4-2-3.2-4.2-4.8-6.4l11.2 10.996zm176-8.8c2.8 2.6 7.6 9.2 7.6 11.8 0 1.2-.4 1.4-1 1.4-2.2 0-5.8-3.4-7.6-3.4-.602.6-1 1.4-1.4 2.2-.6 1.2-1.4 8.8-5.8 8.8-1.602 0-2.4-3.6-2.4-4.2 0-6.2 2.4-12.8 4.6-18.8.4.6 1 1.4 1 2 0 0-4 11.8-4 13.8 0 .8-.197 1.2.803 2 .197 0 .6-.397.6-.6.602-2 1.2-4.2 1.4-6.2l.6-3.6c.4-1.6.602-3.2.8-4.802 1 .2 1 1 1 1.602 0 .398-.398 4.2-.398 4.8 0 1-.2 2 .8 2 1.2 0 1.4-1.6 1.4-1.8 0-.4-.8-5.2-.8-5.8 0-.4.8-1 1-1.4.2-.6.4-1.4.8-2.2.194.798.394 1.798.994 2.4zm-350 0c2.6 2.398 7.6 8.8 7.6 11.8 0 1.2-.4 1.4-1 1.4-2.2 0-5.8-3.4-7.6-3.4-.6.6-1 1.4-1.4 2.2-.6 1.2-1.4 8.8-5.8 8.8-1.6 0-2.4-3.6-2.4-4.2 0-6.2 2.4-12.8 4.6-18.8.4.6 1 1.4 1 2 0 0-4 11.8-4 13.8 0 .8-.2 1.2.8 2 .2 0 .6-.397.6-.6.6-2 1.2-4.2 1.4-6.2l.6-3.6c.4-1.6.6-3.2.8-4.802 1 .802 1 .602 1 1.602 0 .398-.4 4.2-.4 4.8 0 1-.2 2 .8 2 1.2 0 1.4-1.6 1.4-1.8 0-.4-.8-5.2-.8-5.8 0-.4.6-.802 1-1.4.2-.6.4-1.4.8-2.2.2.798.4 1.798 1 2.4zm115.8.2c1.8.4 3.6-.2 5.2 1-.8.8-2.4.8-2.4.8-3.4 0-4.8-.8-8.8-4.8 2 1.198 3.8 2.6 6 3zm100 2.8v1.2c-.2 0-.2.198-.8.198-1 0-5.2-6.198-5.8-7.398 2.2 1.8 6.6 5.398 6.6 6zm-102 1c0 .398 0 .6-.2 1h-.8c-2.2-2.4-3.8-5.8-5.2-8 .8.8 6.2 6 6.2 7zm103.2-4.8c1.398.4 4-.6 5.6.4v.6c-1 .6-2 .6-3 .6-3.8 0-3.8-.4-8.4-4 1.798.8 3.597 2 5.798 2.4zm87.6-.4c1.2.8 3 1.6 4.398 2.8.8.8 5.8 5.4 5.8 7.4 0 1-1.602.8-1.8.8-2.398 0-5.2-1.6-7.398-1.4-1 1.802-.8 3.4-1 5.4-.2.8 0 2.2-.4 3.4-.2.8-2.2 3.6-3.2 3.6-3.198 0-3.8-8.8-3.8-9.2v-5.397c.4-2.4.603-5 .8-7.4.4.2 1 .6 1.4.8-.4 3.6-.8 10.2-.8 10.8 0 1.4-.2 3.4 1.2 5.2h.8v-6l-.8-10c.2 0 .4-.2 1-.2.2 1.602.6 8.602 2.2 8.602.602 0 1-.8 1.2-1.4l-3-7.8c.6-.8 1-1.6 1.398-2.4.603.792 1.003 1.592 2.003 2.392zm-248.6-.6c1.2.8 2.8 1.6 4.6 2.6 1.6 1 6.2 4.8 6.2 6.8 0 1.2-1.6 1-2 1-.6 0-4.6-.8-6.8-1-1.6 2.8-.6 4-.6 6.603 0 1.198-.4 6.198-3.4 6.198-1 0-2.4-1-3-2.6-1-2.8-1.8-7.2-1.8-10.2l.2-9c.4.2.8.4 1.4.4v11.2c.4 1.4 0 3.8 1.6 5.198h.6c.2-.198.4-.398.4-.6l-2.2-15.8c.2 0 .6-.2.8-.398.6 1.8 1.6 9 3 9 .6 0 1-.802 1.2-1.4l-3.8-8c.6-.6 1.2-1.4 1.6-2 .4.6 1 1.4 2 2zm115.2 2.8c0 .398-.2.6-.2.8h-1l-7-5.8c1 .398 8.2 3.398 8.2 5zm0-4.602c1.6 0 3.2-1 4-1h1.6s.2-.198.2.4c0 1.2-4.8 2-5.2 2-2 0-5-1.8-6.8-2.4 2.2.402 5.6 1 6.2 1zm87.8.802c1.2.6 12 4.198 12 7.6 0 .6-1.2 1.2-1.602 1.2h-7c-.398.398-.602 1.2-.602 1.398 0 .4 1 6.802 1 7.4 0 .802-.6 4.6-2.6 4.6-2.2 0-3.8-3.8-4.6-5.398-2.4-5.2-2.4-11-3.4-15.8.4-.2 1-.2 1.4-.2.2 0 .6-.4 1-.602 1.2 2.4 3.2 9.2 4.6 9.2.8 0 1-1.2 1-1.4 0-1.4-5-7.6-5.2-8 .4-.4.8-.6 1-1 .2-.2.2-.6.2-1 .805.8 1.604 1.6 2.805 2zm-147.8-1.2c1.2.398 3 .398 4.6.8 1.4.2 8.8 2.4 8.8 5 0 2.8-8.8.8-8.8 3.2 0 .6 2.6 8.2 2.6 8.8 0 1-1 4-2.4 4-2.4 0-4.6-4-5-4.4-3.8-5.6-4.4-10.8-6.4-16.198 1-.4 2.6-.4 4-1.4-.2-.6-.6-1.2-1.2-1.8 1.2.597 2.4 1.597 3.8 1.997zm101.2-.602c1.2.4 3 .2 4.4.4.4 0 9.6 2.4 9.6 4.4s-8.6 2.198-8.6 3.8c0 .398.4 1.8.8 2.602 1 2.8 2.398 4 2.398 6.398 0 1.2-.398 3.8-2.2 3.8-1.4 0-3.6-2.198-4.8-3.6-4.398-5.603-5.8-11-8.2-16.4.8-.198 2-.6 2.4-.6.6 0-.2.397.398.397.398 0 .8-.6 1.2-.8-.2-.6-.8-1.4-1.4-2.2 1.203.606 2.402 1.606 4.003 1.804zm-46.6-1.398c.6 0 2.2-.602 3.6-.8.8-.2 2.6 0 3 0 1 0 8.4-.2 8.4 2 0 2-7.4 3.8-7.4 5.4 0 2.398 5.4 5.6 5.4 9.6 0 2-.6 2.8-2.2 2.8-3.8 0-10.4-7.4-12.6-10.8-1.6-2.6-3.6-4.802-5.2-7.2 1 .2 2.6 0 4 1 .2-.2.6-.4.8-.602l-2.8-2.6c2 .6 4.6 1.203 5 1.203z"/><path fill="#f3d2af" d="M364.984 86.8l.6 5.802c0 .398-.2 1-.6 1.6h-1.2c.2-4.802.4-6.2 0-7.4l1.2-.003zm-350 0l.6 5.802c0 .398-.2 1-.6 1.6h-1.2c.2-4.802.4-6.2 0-7.4l1.2-.003zM369.186 92c.8 1 2.6 2 3.6 3.2v.6c-.2.2-.2.2-.802.2-1.198 0-3.6-2.398-4.198-3.398-.802-1.602-1.397-4.4-1.397-4.802v-1.6c.796 1.8 1.394 3.8 2.796 5.8zm-350 0c.8 1 2.6 2 3.6 3.2v.6c-.2.2-.2.2-.8.2-1.2 0-3.6-2.398-4.2-3.398-.8-1.602-1.4-4.4-1.4-4.802v-1.6c.8 1.8 1.4 3.8 2.8 5.8zm340.8 9h-.602c-.398-.6-.398-1.398-.398-1.8 0-4 2.8-10 3.8-13.4-.598 4.4-1.598 10-2.8 15.2zm-350 0h-.6c-.4-.6-.4-1.398-.4-1.8 0-4 2.8-10 3.8-13.4-.6 4.4-1.6 10-2.8 15.2zm308.4-1.2c0 .4 0 1.4-.6 1.4-.8 0-1.2-2.4-1.2-2.4v-6c.2-2.4.4-5 .8-7.4l1 14.4zm7-9.6c1.4 1 2.8.6 4 2.4v.6h-1.8c-1.2-.6-2.8-1.2-3.8-2.4-1.6-1.4-3-4.8-3-5.198V85c1.402 1.8 2.6 3.8 4.6 5.2zm-254.4 10.6s0 .2-.4.2c-1.4 0-1.8-4.8-1.8-5V84.8c.6 5 1.6 8.802 2.2 16zm250.8-8.6c0 .4-.4 1.2-1 1.2s-.6-.2-.8-.4l-1.2-7v-1.398c1.2 2.398 3 7 3 7.598zm-45.4 6.6v1.2h-.8c-.8-1.2-1.6-2.398-1.8-3.6-.8-3.4-2-10.2-2-10.603V84.6l4.6 14.2zm-199.2-9.4c1 .8 3.4.8 4.2 2.2 0 0-.2.398-.4.398-.2.2-.4.2-.8.2-3.6 0-7-4.6-8-7.6 1.4 1.604 3 3.404 5 4.804zm157.2 8v.6h-1c-1.2-1.2-2.2-2.398-2.8-3.6-1.4-3-4.2-9-4.2-9.4v-.6l8 13zm-102.6 1.202c-.2.198-.2.198-.6.198-2 0-6.4-13.6-6.4-13.8v-.6l7 14.202zm-58-6.802c0 1-.8 1.2-1 1.2-.6 0-.4 0-.6-.2l-2-7.6V84c1.2 2.602 3.6 7.4 3.6 7.8zm206.8-4.198c1.4.8 3.2.198 4.8 1.6-.2.8-1.2.8-1.6.8-3.4 0-6.6-2.398-8.6-6.2 1.8 1.397 3.402 2.997 5.402 3.8zm-88.8 6.798v.6c-.2.2-.2.2-.6.2-2.8 0-9-9.4-10.2-11.4l10.8 10.6zm86-3.6c0 1-.4 1.2-.8 1.2-.602 0-.8-.398-1-.8-1.2-2.4-3-6.8-3-7.2v-.6c.202.202 4.8 6 4.8 7.4zm-139.2-4.6c0 .2.2 0 .2.6 0 .4-.4.6-.6.802h-3.6c-2 0-5-2.802-6.8-4.602 3.2 2 6.8 3.4 10.8 3.2zm95 2.8c0 .8-.4 1-.8 1-1 0-5.4-6.6-5.6-7.2.202.2 6.402 4.6 6.402 6.2zm1.4-4.2c1.6.4 3.8-.8 5.6.6-1.2 1.2-2.2 1.2-3.2 1.2-3.4 0-4-.602-8-4 1.8.798 3.6 1.798 5.6 2.198zm-103.2 4.802c0 .6-.4 1.198-1 1.198-1.2 0-4.4-6.198-5.4-8.198.4.398 6.4 5.798 6.4 7zm57.2-3.402v1.2c-.2 0-.2.2-.6.2-1 0-6.4-4.802-7-5.602 2.4.803 5.2 2.203 7.6 4.203zm0-4.2c1.2 0 3-1 3.8-1h1.8c.2.2.2 0 .2.4 0 1.397-5.2 2-5.2 2-2.2 0-3.8-1.2-6.2-2.4 1.8.4 5 1 5.6 1z"/><path fill="#fff" d="M366.8 5.2c5.2 7.8 7.4 17.8 7.4 26l-.2 7c-.6 6.6-1.2 13.2-2.8 19.8-1.2 5-2.6 10.2-3.6 15.602C367 77 366.8 81 366.2 84.8c-.2 1.4-1.2 2-2.2 2-1.2 0-2-3.198-2-3.4 0-.6-.6-1.8-.6-2.6 0-12.8-6.8-26.6-7.8-39.2 0-1.4-.4-4.2-.4-4.6V23.6c.4-6 1.6-12 5.4-18-1-1-2.2-2.4-2.602-3.4v-.6c.8 1 2.602 3.2 3.2 3.2.4 0 1.8-1.4 2.8-1.6h.8c1.2 0 1.603.6 3.4 1.4 1-1 2.2-2.2 3-3.2C369 2.2 368 4.2 366.8 5.2zm-57.6-.4c1.8-1 2.6-1.6 3.6-1.6 1.4 0 2.4 1.2 3.2 1.2.4 0 2.2-2 2.8-3 0 2-2 3.2-2 3.8s2 3.2 2.6 4.6C323 17 324 24 324 30.8c0 8.8-.398 14.2-2.2 24-1 5.6-2.4 12.6-2.4 18.6 0 .397 0 4.2.397 6.2 0 .6.603 2 .603 2.6 0 1.2-2.2 3-3 3-2.603 0-4.2-6.2-4.2-6.4a62.32 62.32 0 0 0-1.601-5.8c-1.4-5.2-3.2-10.6-4.802-16-1-3.6-3.6-15.4-3.6-20.8V24.4c.2-1.2.2-2.6.4-3.8.198-1 .398-2 .398-3 .602-2.4 1.2-5.2 2.2-7.6.4-1.4 2.4-4 2.4-4.4 0-.6-2.4-3.2-2.4-3.6v-.6C307 2.4 308 3.6 309.2 4.8zm-292.4.4a49.07 49.07 0 0 1 7.4 26l-.2 7c-.6 6.6-1.2 13.2-2.8 19.8-.6 2.602-1.4 5.8-2.2 8.8-1.4 6-2 12-2.8 18-.2 1.4-1.2 2-2.2 2-1.6 0-2-3.6-2-3.6 0-.4-.6-1.8-.6-2.6-.2-13-6.6-26.2-7.8-39 0-1.4-.4-4.2-.4-4.6V23.6c.4-6 1.6-12 5.4-18-1-1-2.2-2.4-2.6-3.4v-.6c.8 1 2.6 3.2 3.2 3.2.4 0 1.8-1.4 2.8-1.6h.8c1.2 0 2 .2 3.4 1.4 1-1 2.2-2.2 3-3.2-.2.8-1.2 2.8-2.4 3.8zm50 0c0 .4 2.2 3.4 2.8 5 3.2 7.2 4.4 13.6 4.4 20.6 0 10.2-1.4 20-3.4 30.2-.4 1.4-.6 3.4-.6 5-.2 3.4-.2 4.2-.2 4.602 0 .6.2 4.8.6 7C70.6 79 71.6 81.4 71.6 81.8c0 1.4-2.8 3-3.4 3-.8 0-1.8-1.4-2.2-1.8-2-2.8-2.8-6.6-3.8-9.2-2-5.6-3.8-11.198-5.4-16.8-1.6-6-3.6-15-3.6-21.6v-9.8c.2-1.4.2-3 .4-4.6.2-1 .2-2.2.4-3.4.6-2.4 1.2-5.2 2.2-7.6.4-1.4 2.4-4 2.4-4.4 0-.2-2.4-2.6-2.2-4.2.6 1 1.6 2.2 2.8 3.4 1.8-1 2.6-1.6 3.6-1.6 1.4 0 2.4 1.2 3.2 1.2.4 0 2-2 2.8-3.2 0 2-2 3.2-2 4zm196-2c1.2 0 2 .2 3.2 1.4 1-1.2 2-2.4 2.602-3.6 0 1.4-1 2.8-2 4.2C271.8 12.2 274 22.8 274 30.6c0 15.2-3.6 27.8-3.6 35.6 0 4 .397 8.6 2.397 13 .2.6 1.2 1.6 1.2 2.2 0 1-3.2 2.397-3.398 2.397-3.2 0-6.4-7.6-6.802-8.397-4.198-8.8-7.198-17.603-9-26.4-.8-3.4-1.397-10-1.397-10.4V22.8c.2-1 .397-2.2.397-3.2.4-3.8 1.4-7.8 3.2-11.4.398-1 1.602-2.2 1.602-2.6 0-.6-1.2-1.4-1.602-2.2-.397-.6-.397-1.4-.6-2.4.6 1 1.6 2.4 2.8 3.8 1.8-1 2.6-1.6 3.6-1.6zm-50 0c1.2 0 2 .6 3.2 1.2.8-1 1.602-2.2 2.2-3.2 0 0 .2-.2.2.4 0 .4-1.8 3-1.8 3.6 0 .4 2.198 3.2 2.8 4.8 3.8 8.8 4.397 12.8 4.397 20.6 0 13-3 26.8-3 32.8 0 5.2 1.4 12.397 7 17.8 0 .2-.397.4-.6.4-.8.198-2.4.6-2.8.6-3 0-6.398-3-8.6-6.4-2.8-4.4-5.6-9.198-7.198-13.6-2-5.2-5.2-18.2-5.2-24.4V23.6c.2-1.2.2-2.4.4-3.6.2-3.8 1.4-8 3.2-11.8.4-1 1.602-2.2 1.602-2.6 0-.6-1.602-3-2-4.4.8 1 1.8 2.4 2.8 3.6 1.005-1.4 2.405-1.6 3.405-1.6zM109.4 4.8c1-1.4 2.4-1.6 3.4-1.6 1.4 0 2.4 1.2 3 1.2s2-2.2 2.6-3.4c0 1.4-1 2.8-1.8 4.2 1.4 1.6 2.6 4.4 3.4 6.2.2.2 3.8 11.6 3.8 14v10.8L120.6 64c.2 5.602 1 11.602 6 17.4-1.2.6-3.2 1.397-3.8 1.397-2.8 0-6.8-5.6-8-7.6-2-3.802-4-7.4-5.6-11.2-3.2-7.8-4.8-15.6-5.6-23.4 0-.8-.2-2.2-.2-2.6V22.8c.2-1 .2-2.2.4-3.4.2-.8.4-1.8.4-2.6.4-1 .4-2.4.8-3.2.4-1.6.8-3.2 1.6-4.6.4-1.2 2-3 2-3.4 0-.6-2-3.4-2-3.8v-1c0 1 1.6 2.6 2.8 4zm50 0c1-1.4 2.4-1.6 3.4-1.6 1.2 0 1.4 0 3 1.2 1-1.2 1.8-2.4 2.2-3.6 0 0 .2-.2.2.4 0 1.2-1.6 3-1.6 3.8 0 .6 1.6 2.4 2 3.4 3.2 6.6 5.2 14.2 5.2 21.4 0 12-2.8 25.2-2.8 32 0 5 1.6 12.802 8.4 17.2.6.4 1.4 1.2 2 2-.4.2-.8.2-1.2.2-3.4 0-8.6-2-11.6-5-4.4-4.2-7.4-9-9.6-13.4-2.6-5.4-5.6-19.2-5.6-26V24.4c.2-1.2.2-2.6.4-4 .2-3.8 1.4-8.6 3.2-12.2.4-1 1.6-2.2 1.6-2.8 0-.4-1.6-2.8-1.6-3.2V.6c.6 1.4 1.4 2.8 2.4 4.2z"/><g class="D"><ellipse transform="matrix(.0336 .9994 -.9994 .0336 28.2354 -7.2563)" cx="17.87" cy="10.972" rx="1.199" ry=".378"/><ellipse transform="matrix(.0324 .9995 -.9995 .0324 19.3107 2.6904)" cx="8.266" cy="11.319" rx="1.198" ry=".378"/></g><g class="B"><use xlink:href="#B"/><ellipse transform="matrix(-.6607 .7507 -.7507 -.6607 66.545 88.5016)" cx="13.27" cy="59.291" rx="3.632" ry="5.499"/><use xlink:href="#C"/></g><g class="C"><ellipse transform="matrix(-.9505 .3106 -.3106 -.9505 48.993 65.754)" cx="19.26" cy="36.778" rx="2.166" ry="2.708"/><use xlink:href="#D"/><use xlink:href="#E"/><use xlink:href="#F"/><use xlink:href="#G"/><use xlink:href="#H"/></g><g class="D"><ellipse transform="matrix(.0336 .9994 -.9994 .0336 76.5583 -57.2281)" cx="67.871" cy="10.974" rx="1.199" ry=".378"/><ellipse transform="matrix(.0322 .9995 -.9995 .0322 67.7025 -47.2793)" cx="58.265" cy="11.32" rx="1.198" ry=".378"/></g><g class="B"><use xlink:href="#B" x="50"/><ellipse transform="matrix(-.6607 .7507 -.7507 -.6607 149.5763 50.965)" cx="63.269" cy="59.289" rx="3.632" ry="5.5"/><use xlink:href="#C" x="50"/></g><g class="C"><ellipse transform="matrix(-.9506 .3105 -.3105 -.9506 146.5204 50.2331)" cx="69.261" cy="36.78" rx="2.166" ry="2.708"/><use xlink:href="#D" x="50"/><use xlink:href="#E" x="50"/><use xlink:href="#F" x="50"/><use xlink:href="#G" x="50"/><use xlink:href="#H" x="50"/></g><g class="D"><ellipse transform="matrix(.0336 .9994 -.9994 .0336 124.6401 -106.9505)" cx="117.623" cy="10.975" rx="1.199" ry=".378"/><ellipse transform="matrix(.0322 .9995 -.9995 .0322 115.8499 -97.0019)" cx="108.014" cy="11.32" rx="1.198" ry=".378"/></g><g class="B"><use xlink:href="#B" x="99.75"/><ellipse transform="matrix(-.6607 .7507 -.7507 -.6607 232.1924 13.6181)" cx="113.018" cy="59.288" rx="3.632" ry="5.5"/><use xlink:href="#C" x="99.75"/></g><g class="C"><ellipse transform="matrix(-.9506 .3105 -.3105 -.9506 243.5631 34.7863)" cx="119.012" cy="36.781" rx="2.166" ry="2.708"/><use xlink:href="#D" x="99.75"/><use xlink:href="#E" x="99.75"/><use xlink:href="#F" x="99.75"/><use xlink:href="#G" x="99.75"/><use xlink:href="#H" x="99.75"/></g><g class="D"><ellipse transform="matrix(.0336 .9994 -.9994 .0336 172.9639 -156.9226)" cx="167.625" cy="10.976" rx="1.199" ry=".378"/><ellipse transform="matrix(.0322 .9995 -.9995 .0322 164.2398 -146.974)" cx="158.013" cy="11.321" rx="1.198" ry=".378"/></g><g class="B"><use xlink:href="#B" x="149.75"/><ellipse transform="matrix(-.6607 .7507 -.7507 -.6607 316.8836 -24.6689)" cx="164.017" cy="59.286" rx="3.632" ry="5.5"/><use xlink:href="#C" x="149.75"/></g><g class="C"><ellipse transform="matrix(-.9505 .3107 -.3107 -.9505 341.0915 19.2377)" cx="169.014" cy="36.783" rx="2.166" ry="2.708"/><use xlink:href="#D" x="149.75"/><use xlink:href="#E" x="149.75"/><path d="M165.546 69.493s-.597.392-.54 1.08 1.105 2.12 1.105 2.12 1.222 1.307 1.3 1.64 1.292 1.04 1.637.122-.21-2.978-.21-2.978-.444-.938-.265-1.7-.36-.762-.855-.863-1.653-.243-2.182.577z"/><use xlink:href="#G" x="150.75"/><use xlink:href="#H" x="149.75"/></g><g class="D"><ellipse transform="matrix(.0334 .9994 -.9994 .0334 221.2578 -206.8195)" cx="217.552" cy="10.978" rx="1.199" ry=".378"/><ellipse transform="matrix(.0322 .9995 -.9995 .0322 212.5576 -196.8707)" cx="207.936" cy="11.322" rx="1.198" ry=".378"/></g><path d="M211.207 18s-4.338.25-5.48 3.625 1.855 5.625 4.855 7.75 7.938 2.25 9.156-.875-.37-4.875-1.826-5.25-2.58-4.875-6.705-5.25zm-4.254 15.188s-1.922-.53-2.877 1.695-1.803 3.922-.637 4.452 2.875-.104 3.135.53.715 1.378.38 2.544-2.082.742.117 3.392 3.53 2.438 5.674 0 1.95-3.922 3.002-2.438-.414 1.6 0 3.074 6.568 1.06 6.035-3.182-2.123-6.358-5.197-7.736-7.525-2.9-9.633-2.33z" class="B"/><g class="C"><ellipse transform="matrix(-.9505 .3108 -.3108 -.9505 438.4599 3.6956)" cx="218.936" cy="36.779" rx="2.166" ry="2.708"/><use xlink:href="#I"/><path d="M206.895 21.47s-.625.344-.688.938.188 2.22.188 2.22.375 1.406.28 1.72-.688 1.438-.688 1.438-.406.688 0 .875 1.5-.22 2.094-.875 1.156-1.312 1.156-2.375 2.16-5.564-2.34-3.94z"/><use xlink:href="#J"/></g><ellipse transform="matrix(-.6607 .7506 -.7506 -.6607 399.9174 -62.1965)" cx="214.015" cy="59.283" rx="3.632" ry="5.499" class="B"/><g class="C"><use xlink:href="#K"/><use xlink:href="#L"/></g><g class="D"><ellipse transform="matrix(.0334 .9994 -.9994 .0334 269.5913 -256.7921)" cx="267.554" cy="10.979" rx="1.199" ry=".378"/><ellipse transform="matrix(.0322 .9995 -.9995 .0322 260.946 -246.8432)" cx="257.935" cy="11.323" rx="1.198" ry=".378"/></g><g class="B"><use xlink:href="#M"/><use xlink:href="#N"/></g><g class="C"><ellipse transform="matrix(-.9506 .3104 -.3104 -.9506 536.0222 -11.766)" cx="268.947" cy="36.767" rx="2.168" ry="2.708"/><use xlink:href="#I" x="50"/><use xlink:href="#E" x="249.673"/><use xlink:href="#J" x="50"/></g><ellipse transform="matrix(-.6606 .7507 -.7507 -.6606 481.2747 -99.0012)" cx="263.015" cy="59.282" rx="3.632" ry="5.5" class="B"/><g class="C"><use xlink:href="#K" x="49"/><use xlink:href="#L" x="49"/></g><g class="D"><ellipse transform="matrix(.0338 .9994 -.9994 .0338 317.5535 -306.5146)" cx="317.305" cy="10.98" rx="1.199" ry=".378"/><ellipse transform="matrix(.0322 .9995 -.9995 .0322 309.0939 -296.5654)" cx="307.684" cy="11.324" rx="1.198" ry=".378"/></g><g class="B"><use xlink:href="#M" x="49.75"/><ellipse transform="matrix(-.6607 .7506 -.7506 -.6607 565.4448 -137.0157)" cx="313.688" cy="59.281" rx="3.633" ry="5.501"/><use xlink:href="#N" x="49.75"/></g><g class="C"><ellipse transform="matrix(-.9506 .3104 -.3104 -.9506 633.0679 -27.2133)" cx="318.699" cy="36.765" rx="2.168" ry="2.708"/><use xlink:href="#I" x="99.75"/><use xlink:href="#E" x="299.423"/><use xlink:href="#O"/><use xlink:href="#P"/><use xlink:href="#J" x="99.75"/></g><g class="D"><ellipse transform="matrix(.0338 .9994 -.9994 .0338 365.8667 -356.4865)" cx="367.307" cy="10.982" rx="1.199" ry=".378"/><ellipse transform="matrix(.0322 .9995 -.9995 .0322 357.486 -346.5378)" cx="357.683" cy="11.324" rx="1.198" ry=".379"/></g><g class="B"><use xlink:href="#M" x="99.75"/><ellipse transform="matrix(-.6607 .7506 -.7506 -.6607 646.8186 -173.8)" cx="362.688" cy="59.279" rx="3.633" ry="5.501"/><use xlink:href="#N" x="99.75"/></g><g class="C"><ellipse transform="matrix(-.9506 .3105 -.3105 -.9506 730.5966 -42.7636)" cx="368.702" cy="36.763" rx="2.167" ry="2.708"/><use xlink:href="#I" x="149.75"/><use xlink:href="#E" x="349.423"/><use xlink:href="#O" x="49"/><use xlink:href="#P" x="49"/><use xlink:href="#J" x="149.75"/></g><defs ><path id="B" d="M11.532 18s-4.338.25-5.48 3.625 1.856 5.625 4.856 7.75 7.938 2.25 9.156-.875-.37-4.875-1.826-5.25-2.58-4.875-6.705-5.25z"/><path id="C" d="M7.28 33.188s-1.923-.53-2.877 1.695-1.802 3.922-.636 4.452 2.875-.104 3.134.53.714 1.378.38 2.544-2.08.742.118 3.392 3.53 2.438 5.674 0 1.95-3.922 3-2.438-.414 1.6 0 3.074 6.57 1.06 6.036-3.182-2.124-6.358-5.198-7.736-7.526-2.9-9.632-2.33z"/><path id="D" d="M18.157 22.78s-.75.188-.78.656.28 1.25.39 1.655.39 1.625 1.078 1.688 1.53-.22 1.78-.562 1.094-1.5.906-2.062-.53-.938-1-.906-1.75-.5-2.375-.47z"/><path id="E" d="M7.22 21.47s-.625.344-.688.938.188 2.22.188 2.22.375 1.406.28 1.72-.688 1.438-.688 1.438-.406.688 0 .875 1.5-.22 2.094-.875 1.156-1.312 1.156-2.375 2.157-5.564-2.343-3.94z"/><path id="F" d="M12.25 69.25s-.656.28-.72.97.72 2.28.72 2.28.975 1.5 1.003 1.844 1.09 1.25 1.59.406.312-2.97.312-2.97-.274-1 .035-1.72-.222-.812-.69-1-1.586-.528-2.25.188z"/><path id="G" d="M8.074 49.958c-.448 1.464.184 2.584.404 3.917s.085 1.896.554 2.417 1.125.667 1.792.75a2.44 2.44 0 0 0 2.25-.875c.712-.836.86-1.666.597-2s-.674.114-1.43-.042-1.074-.667-1.308-1.042-.27-1.1-.61-1.833-1.803-2.756-2.25-1.292z"/><path id="H" d="M11.45 31.814s-1.356.27-1.76.895-.28 2.833-.28 2.833.595 1.083.506 1.792-.077 2.5 0 2.625.202 1.084.952 1.417 2.875-.75 3.083-1.167.083-1.957.542-2.54 1.057-1.975.917-3-1.584-3.788-3.96-2.854z"/><path id="I" d="M217.832 22.78s-.75.188-.78.656.28 1.25.39 1.655.392 1.625 1.078 1.688 1.53-.22 1.78-.562 1.094-1.5.906-2.062-.53-.938-1-.906-1.75-.5-2.375-.47z"/><path id="J" d="M211.123 31.814s-1.355.27-1.76.895-.28 2.833-.28 2.833.596 1.083.506 1.792-.076 2.5 0 2.625.203 1.084.953 1.417 2.875-.75 3.082-1.167.084-1.957.543-2.54 1.057-1.975.916-3-1.584-3.788-3.96-2.854z"/><path id="K" d="M215.547 69.493s-.598.392-.54 1.08 1.105 2.12 1.105 2.12 1.223 1.307 1.31 1.64 1.292 1.04 1.637.122-.21-2.978-.21-2.978-.443-.938-.266-1.7-.36-.762-.855-.863-1.654-.243-2.182.577z"/><path id="L" d="M208.824 49.958c-.448 1.464.184 2.584.404 3.917s.084 1.896.554 2.417 1.125.667 1.792.75a2.44 2.44 0 0 0 2.25-.875c.712-.836.86-1.666.598-2s-.675.114-1.43-.042-1.074-.667-1.308-1.042-.27-1.1-.61-1.833-1.803-2.756-2.25-1.292z"/><path id="M" d="M261.207 18s-4.338.25-5.482 3.625 1.857 5.625 4.857 7.75 7.938 2.25 9.156-.875-.37-4.875-1.826-5.25-2.58-4.875-6.705-5.25z"/><path id="N" d="M256.953 33.188s-1.922-.53-2.877 1.695-1.803 3.922-.637 4.452 2.875-.104 3.135.53.715 1.378.38 2.544-2.082.742.117 3.392 3.53 2.438 5.674 0 1.95-3.922 3.002-2.438-.414 1.6 0 3.074 6.568 1.06 6.035-3.182-2.123-6.358-5.197-7.736-7.527-2.9-9.633-2.33z"/><path id="O" d="M312.676 69.25s-.656.28-.72.97.72 2.28.72 2.28.975 1.5 1.002 1.844 1.092 1.25 1.592.406.312-2.97.312-2.97-.275-1 .035-1.72-.223-.812-.69-1-1.586-.528-2.25.188z"/><path id="P" d="M308.498 49.958c-.447 1.464.184 2.584.404 3.917s.086 1.896.555 2.417 1.125.667 1.79.75 1.54-.04 2.25-.875.86-1.666.598-2-.674.114-1.43-.042-1.074-.667-1.31-1.042-.27-1.1-.61-1.833-1.803-2.756-2.25-1.292z"/></defs></svg>