<svg xmlns="http://www.w3.org/2000/svg" xmlns:xlink="http://www.w3.org/1999/xlink" width="480" height="108"><style><![CDATA[.B{fill:#f2491c}.C{fill:#232c56}.D{fill:#28334c}]]></style><path fill="#f3d2af" d="M465.144 86.766l.604 5.8c0 1-.4 1.603-1.2 1.603-.6 0-.8-.8-.8-1.2 0-.6.396-4.197.6-6.197h.798l-.002-.005zm-240 0l.6 5.8c0 1-.4 1.603-1.2 1.603-.6 0-.8-.8-.8-1.2 0-.6.4-4.197.6-6.197h.8v-.005zm-210 0l.6 5.8c0 1-.4 1.603-1.2 1.603-.6 0-.8-.8-.8-1.2 0-.6.4-4.197.6-6.197h.8v-.005zm419.6 6c0 .398-.4.8-.8 1.198h-1c-.2-.4-.2-1-.2-1.4 0-.6.2-1.397.2-2.197.397-1.4-.2-3.2 1.197-3.803l.604 6.2zm-31.2-6.202v5.8c-.6.8-.8 1.4-1.4 1.4-.8 0-.6-1.2-.6-1.4 0-.4.8-3.8 1.2-5.8h.8zm-120 0v5.8c-.6.8-.8 1.4-1.4 1.4-.8 0-.6-1.2-.6-1.4 0-.4.8-3.8 1.2-5.8h.8zm-28.8 6.202c0 .398-.4.8-.8 1.198h-1c-.2-.4-.2-1-.2-1.4 0-.6.2-1.397.2-2.197.397-1.4-.2-3.2 1.2-3.803l.602 6.2zm-58-.202c-.2.8-.6 1.396-1.2 1.396-1 0-.8-1.602-.8-2v-5.396h1l1 6zm-30.4-6c.6 1.8 1.4 5.2 1.4 5.6 0 1.2-.8 1.4-1.2 1.4-.6 0-.8-.4-.8-.8v-6.2h.6zm-120.4 0l1.2 6c0 1-1 1.2-1.2 1.2-.4 0-.6-.2-.8-.4v-6.8h.8zm326.8.4c0 .4-.4 3.6-.602 5.4 0 .4-.398.8-.802 1h-.8c-.2-.2-.2-.6-.2-1 0-.6 1-3.8 1.4-5.6.196-.2.6-.2.8-.4.204.2.204 0 .204.6zm-31.8 5.2c0 .2-.4.8-.8.8h-.802c-.198-.198-.198-.4-.198-1 0-.4 1.198-3.6 1.8-5.4.2 0 .6-.197.8-.197l-.8 5.796zm-28.2-5.2c0 .4-.4 3.6-.602 5.4 0 .4-.398.8-.802 1h-.8c-.2-.2-.2-.6-.2-1 0-.6 1-3.8 1.4-5.6.196-.2.6-.2.8-.4.204.2.204 0 .204.6zm-175.6-.4l1.6 5.396c0 .604-.6 1.398-1.2 1.398-1 0-1-3.198-1-3.398v-3.602c.2.206.6.206.6.206zm-29.2 0c.8 1.6 1.8 4.396 1.8 5 0 .8-.8 1.396-1.2 1.396-1.6 0-1.2-5.396-1.4-6.602.2.006.6.206.8.206zm-31 .4c.6 1.4 1.4 4.6 1.4 5.2 0 1-.8 1.2-1.2 1.2-1.8 0-.8-3.6-1-4.2l.2-2.8c.2.2.6.2.6.6zm383.2 14h-.6c-.4-.6-.4-1.4-.4-1.8 0-4 2.4-9.8 3.604-13.6 0 0 .2 0 .396.2-1 4.6-1.6 10.4-3 15.2zm-84.6-9.8c.6 1.4 3.2 3.602 3.2 4.2v1h-1c-2-1.6-3.8-4.2-3.602-6.2l.198-4.6c.404 1.8.603 3.8 1.204 5.6zm-60 0c.6 1.4 3.2 3.602 3.2 4.2v1h-1c-2-1.6-3.8-4.2-3.602-6.2l.198-4.6c.404 1.8.603 3.8 1.204 5.6zm-95.4 9.8h-.6c-.4-.6-.4-1.4-.4-1.8 0-4 2.4-9.8 3.6-13.6a.62.62 0 0 0 .4.199c-1 4.6-1.6 10.4-3 15.2zm-210 0h-.6c-.4-.6-.4-1.4-.4-1.8 0-4 2.4-9.8 3.6-13.6a.62.62 0 0 0 .4.199c-1 4.6-1.6 10.4-3 15.2zm458.6-9.8c1 1.4 2.8 2.602 4.2 4v.602c-.2.198-.2.198-.803.198-1.197 0-3.6-2.4-4.197-3.4-1-2-1.603-5.6-1.603-6v-1.197c.603 1.796 1.204 3.796 2.404 5.796zm-36.4-5.2c0 1.2-3 12-3.8 14.4h-.6c-.2-.4-.4-.8-.4-1.4 0-3.198 3.6-11.6 4.6-13.6 0 .2.2 0 .2.6zm-30.8-.198l-4.6 14c-1-.2-1-.602-1-1.2 0-3 4.6-11.8 5.397-13.197.004.196.204.398.204.398zm-120 0l-4.6 14c-1-.2-1-.602-1-1.2 0-3.6 5-11.6 5.397-13.197.004.196.204.398.204.398zm-29.2.198c0 1.2-3 12-3.8 14.4h-.6c-.2-.4-.4-.8-.4-1.4 0-3.198 3.6-11.6 4.6-13.6 0 .2.2 0 .2.6zm-23.6 5.2c1 1.4 2.8 2.602 4.2 4v.602c-.2.198-.2.198-.8.198-1.2 0-3.6-2.4-4.2-3.4-1-2-1.6-5.6-1.6-6v-1.197c.6 1.796 1.2 3.796 2.4 5.796zm-210 0c1 1.4 2.8 2.602 4.2 4v.602c-.2.198-.2.198-.8.198-1.2 0-3.6-2.4-4.2-3.4-1-2-1.6-5.6-1.6-6v-1.197c.6 1.796 1.2 3.796 2.4 5.796zm419.6 1c.603 1 3 2 3.4 3.602-.2.198-.2.398-.8.398-1.603 0-3.803-2.8-4.4-4.398-.6-1.802-1-5.398-1-5.802v-.8c.6 2 1.2 4.602 2.8 7zm-28.2 3.2v1h-.8c-3.4-2.4-4.4-5.2-4.4-7.6V85.16c2 9.606 5.2 8.204 5.2 10.204zm-120 0v1h-.8c-3.4-2.4-4.4-5.2-4.4-7.6V85.16c2 9.606 5.2 8.204 5.2 10.204zm-31.8-3.2c.6 1 3 2 3.4 3.602-.2.198-.2.398-.8.398-1.603 0-3.8-2.8-4.4-4.398-.6-1.802-1-5.398-1-5.802v-.8c.6 2 1.2 4.602 2.8 7zm-54.4 3c-.2 0-.2.2-.8.2-1.4 0-4.2-3-4.6-3.8-.8-2-1.2-4-1.6-6 .8 1.6 1.8 3.6 3 5.6 1.2 1 2.6 2 4 3.2v.8zm-10.2-9.398c0 1-1.8 12.8-2.4 15.198-1-.6-1-2-1-2.198 0-3.398 2.4-11 3.2-13.602.2.2.2 0 .2.602zm-139.4 9.198c-.2 0-.4.2-.8.2-1 0-4-2.6-4.4-3.2-1-2-1.4-4.198-2-6.4l2.8 5c1.4 1.4 3 2.4 4.4 3.603v.796zm-10.4-9.4l-1.8 15-.4.396c-1.2-.602-1-1.602-1-2.197 0-3.803 2-10.4 3-13.603.2.204.2.004.2.404zm326.8.202l-5.4 13.198h-.8c0-.198-.2-.4-.2-1 0-1.6 1.8-5.198 2.4-6.198 1.2-2.398 2.6-4.602 3.8-6.802 0 .2 0 .6.2.802zm-23.4 10.598c-.2.2-.2.2-.6.2-1.8 0-3.602-4.8-3.602-5.2 0-4.6.198-5.4.198-6.4.4 1.802.603 3.802 1 5.802.2 1.602 2 3.198 3 4.8l.004.8zm-36.6-10.598l-5.4 13.198h-.8c0-.198-.2-.4-.2-1 0-1.6 1.8-5.198 2.4-6.198 1.2-2.398 2.6-4.602 3.8-6.802 0 .2 0 .6.2.802zm-135.6 8.798h-1.6c-4.8-2-5-6.4-6-9.4 1 1.4 1.8 3.2 2.8 4.8 1.6 1.6 3.4 2.6 4.8 4v.6zm-12.2 6s0 .2-.4.2c-.6 0-.6-.2-.8-.603v-4.397c.8-3.603 1.6-7.4 2.6-10.803l-1.4 15.604zm170.8-2.4h-.8c0-.2-.2-.398-.2-.8 0-3 5.8-11 7-12.6-1.2 4.003-3.8 9.2-6 13.4zm-199.2-1c-.2 1-.2 2.2-.2 3.2-.2.2 0 .2-.6.2s-.8-1.604-.8-1.604v-3.602l2-10.6-.4 12.406zm-48.8-3h-1.4c-4.4-1.6-5.8-6.2-6.4-9.2 1 1.4 2 3.2 3.2 5 1.4 1.2 3 2.2 4.6 3.4v.8zm-11.2-1.6c-.8 3.396 0 8.2-1.2 8.2-.8 0-.8-1.2-.8-1.2v-4.4l2-10.398v7.798zm31 7.6c0 .2.2.2-.4.2-1 0-1-2-1-2.2v-3.398l1.4-10.398v15.796zm37-9.6c1 .8 2.6 1.6 3.6 2.6v.602c-.2 0-.4.198-1 .198-1.2 0-4.6-2.8-4.8-3.4-1-1.8-2.2-5.397-2.2-5.8v-.602c1 2 2 4.602 4.4 6.4zm-29.8-1c1.2 1.2 3 1.8 4.4 2.8v.6c-.2.2-.4.2-.8.2-.6 0-1-.398-1.6-.6-4.2-1.4-5.2-6.2-6-8.8 1 1.8 2.2 4.003 4 5.8z"/><path fill="#f9e9dc" d="M441.544 95.364v.6s0 .2-.4.2c-1.396 0-3.197-2-4.197-3.6s-1.2-4.604-1.2-5v-1.8c.596 3.003 2.396 6.8 5.796 9.6zm-180 0v.6s0 .2-.4.2c-1.397 0-3.2-2-4.2-3.6s-1.196-4.604-1.196-5v-1.8c.596 3.003 2.397 6.8 5.796 9.6zm207.4-3.8c1 1.396 3.397 2 4 4.2-.2 0-.4.197-.803.197-1 0-4.396-3.602-4.6-4.396-.6-1.8-1.2-5-1.2-5.4v-.6c.804 2 1.404 4 2.603 6zm-240 0c1 1.396 3.4 2 4 4.2-.2 0-.4.197-.8.197-1 0-4.4-3.602-4.6-4.396-.6-1.8-1.2-5-1.2-5.4v-.6c.8 2 1.4 4 2.6 6zm-210 0c1 1.396 3.4 2 4 4.2-.2 0-.4.197-.8.197-1 0-4.4-3.602-4.6-4.396-.6-1.8-1.2-5-1.2-5.4v-.6c.8 2 1.4 4 2.6 6zm391.2 3.8v.8s0 .2-.397.2c-1.2 0-4-3.8-4.2-4.4-.398-1.198-.604-3.6-.604-4v-2.8c.8 3.4 1 6.602 5.2 10.2zm-120 0v.8s0 .2-.397.2c-1.2 0-4-3.8-4.2-4.4-.398-1.198-.604-3.6-.604-4v-2.8c.8 3.4 1 6.602 5.2 10.2zm88-.8c.2 0 .603.396.603 1v.8h-1c-2.2-1.8-3.603-4.4-3.603-6.4v-5c.798 3.2 0 6.4 4 9.6zm-60 0c.2 0 .603.396.603 1v.8h-1c-2.2-1.8-3.603-4.4-3.603-6.4v-5c.798 3.2 0 6.4 4 9.6zm26.4-3c.6 1.2 2.6 2.8 2.8 4.8-.2.2 0 .2-.6.2-1.602 0-3.4-4.2-3.4-4.4-.2-.8-.2-2-.2-2.6 0-.4.2-3.2.4-4.8.2 1.8 0 4.8 1 6.8zm123.4-6c2.6 2.396 7.6 8.8 7.6 11.8 0 1.2-.4 1.4-1 1.4-2.2 0-5.8-3.4-7.6-3.4-.603.6-1 1.4-1.4 2.2-.6 1.2-1.4 8.8-5.8 8.8-1.604 0-2.4-3.6-2.4-4.2 0-6.2 2.4-12.8 4.603-18.8.397.6 1 1.4 1 2 0 0-4 11.8-4 13.8 0 .8-.2 1.2.8 2 .2 0 .6-.398.6-.6.603-2 1.2-4.2 1.4-6.2l.6-3.6c.4-1.603.603-3.2.802-4.803 1 .803 1 .604 1 1.604 0 .396-.398 4.2-.398 4.8 0 1-.2 2 .8 2 1.2 0 1.4-1.6 1.4-1.8 0-.4-.8-5.2-.8-5.8 0-.4.602-.803 1-1.4.198-.6.398-1.4.8-2.2.193.8.393 1.8.992 2.4zm-240 0c2.6 2.396 7.6 8.8 7.6 11.8 0 1.2-.4 1.4-1 1.4-2.2 0-5.8-3.4-7.6-3.4-.6.6-1 1.4-1.4 2.2-.6 1.2-1.4 8.8-5.8 8.8-1.6 0-2.4-3.6-2.4-4.2 0-6.2 2.4-12.8 4.6-18.8.2.6 1 1.4 1 2 0 0-4 11.8-4 13.8 0 .8-.2 1.2.8 2 .2 0 .6-.398.6-.6.6-2 1.2-4.2 1.4-6.2l.6-3.6c.4-1.603.6-3.2.8-4.803 1 .803 1 .604 1 1.604 0 .396-.4 4.2-.4 4.8 0 1-.2 2 .8 2 1.2 0 1.4-1.6 1.4-1.8 0-.4-.8-5.2-.8-5.8 0-.4.6-.803 1-1.4.2-.6.4-1.4.8-2.2.2.8.4 1.8 1 2.4zm-210 0c2.6 2.396 7.6 8.8 7.6 11.8 0 1.2-.4 1.4-1 1.4-2.2 0-5.8-3.4-7.6-3.4-.6.6-1 1.4-1.4 2.2-.6 1.2-1.4 8.8-5.8 8.8-1.6 0-2.4-3.6-2.4-4.2 0-6.2 2.4-12.8 4.6-18.8.4.6 1 1.4 1 2 0 0-4 11.8-4 13.8 0 .8-.2 1.2.8 2 .2 0 .6-.398.6-.6.6-2 1.2-4.2 1.4-6.2l.6-3.6c.4-1.603.6-3.2.8-4.803 1 .803 1 .604 1 1.604 0 .396-.4 4.2-.4 4.8 0 1-.2 2 .8 2 1.2 0 1.4-1.6 1.4-1.8 0-.4-.8-5.2-.8-5.8 0-.4.6-.803 1-1.4.2-.6.4-1.4.8-2.2.2.8.4 1.8 1 2.4zm419.2-.2c.803 1.2 2.2 2.4 3.2 4 .8 1 3.8 6.4 3.8 8.4 0 1-.197 1.197-1.197 1.197-2.4 0-5-3.602-7-3.602-3 0-2.803 10.4-8 10.4-1.603 0-2.4-3-2.4-3.802 0-.6.4-2.6.602-3.8.398-5.2 3.398-10 5.198-15 .4.602.802 1.602.802 2 0 .2-4.802 11-4.802 14 0 .4.4 1 .802 1.4.198 0 .398 0 .398-.2 1.602-4.8 2.8-9.602 4-14.4.2.4.602.6.8 1.2l-.8 5.602c0 .6.4 1.398.8 1.398 1.603 0 1.4-2 1.4-2.398 0-.602-.4-4.602-.4-5 0-.602.802-1.2 1.2-1.4.2-.8.4-1.6.8-2.398.196.806.396 1.604.796 2.404zm-180 0c.8 1.2 2.2 2.4 3.2 4 1 1.4 3.8 6.2 3.8 8.4 0 1-.2 1.197-1.2 1.197-2.396 0-5-3.602-7-3.602-3 0-2.8 10.4-8 10.4-1.6 0-2.396-3-2.396-3.802 0-.6.396-2.6.602-3.8.398-5.2 3.398-10 5.2-15 .397.602.8 1.602.8 2 0 .2-4.8 11-4.8 14 0 .4.397 1 .8 1.4.2 0 .398 0 .398-.2 1.602-4.8 2.803-9.602 4-14.4.2.4.602.6.803 1.2l-.803 5.602c0 .6.396 1.398.803 1.398 1.6 0 1.397-2 1.397-2.398 0-.602-.397-4.602-.397-5 0-.602.8-1.2 1.197-1.4.2-.8.396-1.6.803-2.398.193.806.393 1.604.794 2.404zm144.2-.4c0 .2-5.4 10.6-5.4 13.4 0 .2-.196 1 .604 1.6.2 0 .396-.198.396-.4 2-4.397 3-9.197 4.604-13.6.396.4 1 .4 1 .802 0 .602-1.197 5.198-1.197 5.8 0 1 .197 1.2.8 1.2s1-.398 1.398-.802c.2-5.4 0-6.198 0-6.6 0-.6 1-1 1.2-1.4.397-.6.603-1.4 1-2.198.196.8.196 1.8.8 2.8s1.8 2.2 2.396 3.2c.804.8 3.804 7.198 3.804 9.198 0 1.2-.804 1.4-1.2 1.4-2.398 0-5-4.2-7-4.2-1.2 0-1.8 1.2-2.2 2.4-1.2 2.396-3 8.2-7 7.396-.8-.396-1.398-3.197-1.398-3.8 0-5 4.8-14.2 6.8-18.397.393.6.592 1.6.592 2.2zm-120 0c0 .2-5.4 10.6-5.4 13.4 0 .2-.196 1 .604 1.6.2 0 .396-.198.396-.4 2-4.397 3-9.197 4.604-13.6.396.4 1 .4 1 .802 0 .602-1.197 5.198-1.197 5.8 0 1 .197 1.2.8 1.2s1-.398 1.398-.802c.2-5.4 0-6.198 0-6.6 0-.6 1-1 1.2-1.4.397-.6.603-1.4 1-2.198.196.8.196 1.8.8 2.8s1.8 2.2 2.396 3.2c.804.8 3.804 7.198 3.804 9.198 0 1.2-.804 1.4-1.2 1.4-2.398 0-5-4.2-7-4.2-1.2 0-1.8 1.2-2.2 2.4-1.2 2.396-3 8.2-7 7.396-.8-.396-1.398-3.197-1.398-3.8 0-5 4.8-14.2 6.8-18.397.393.6.592 1.6.592 2.2zm-82.8.2c1 1 2.6 2.2 3.8 3.8 1.8 2.2 4.4 5.6 4.4 7.802 0 1.198-.8 1.198-1.2 1.198-2 0-5.8-3-7.6-3-1 1.4-1.6 2.802-1.8 4.2-.4 2.2-2 7.602-5.6 7-1.6-1.8-1.8-3-1.8-4.398 0-8.2 1-8.602 3.8-18.802.4.6 1 1.6 1 2 0 .6-.6 1.6-.8 2.4-.8 2.8-2.6 8.2-2.6 11.6 0 .4.4 1.802 1 2.2 1-.8.8-3.2 1.2-4.2.2-.8.4-1.6.4-2.4l.6-4.8c.2-1.2.4-2.602.6-4 .6.602 1 .602 1 1.198s-.4 5-.4 5.4c0 .8.2 1.8 1 1.8.6 0 1.4-1 1.4-1.6 0-.4-1-5-1-5.604 0-.396.6-1 .8-1.396.4 1.8.8 3.6 1.4 5.396.2.803 3.8 4.398 4.4 4.398h1.4c.2-.198.2 0 .2-.6 0-1.4-2-2-3-2.802-.4-.198-1-.6-1.2-1s-3-5.6-3-6.6c0-.602.2-1.2.4-1.8.4.808.6 1.808 1.2 2.608zm172-1.6c0 2.396-6.2 11.2-6.2 14.2a1.8 1.8 0 0 0 .6 1.397c.2 0 .604-.397.604-.603 2-4.2 3.602-8.6 5.2-12.8.196.398 1 .6 1 1 0 .6-1.603 5.198-1.603 5.6 0 .602.2 1.2.8 1.2 1 0 2-2.2 1.604-3 0-.8.2-1.8.2-2.8 0-1.602 1.603-3.802 2.397-5 .2 1 .4 2 .8 3 .604 1.198 1.804 2.398 2.4 3.8 1 1.8 2.8 6.4 2.8 8.4 0 1.4-.397 1.6-1.2 1.6-2.396 0-5.196-4.6-7-4.6-2.8 0-3.396 9.2-8.6 9.2-2.2 0-2.2-3.2-2.2-3.8 0-.4.4-1.8.603-2.602 1-5.197 4.8-10.398 7.6-15.602.195.413.195 1.013.195 1.413zm-60 0c0 2.396-6.2 11.2-6.2 14.2a1.8 1.8 0 0 0 .6 1.397c.2 0 .604-.397.604-.603 2-4.2 3.602-8.6 5.2-12.8.196.398 1 .6 1 1 0 .6-1.603 5.198-1.603 5.6 0 .602.2 1.2.8 1.2 1 0 2-2.2 1.604-3 0-.8.2-1.8.2-2.8 0-1.602 1.603-3.802 2.397-5 .2 1 .4 2 .8 3 .604 1.198 1.804 2.398 2.4 3.8 1.2 2.4 2.8 6 2.8 8.4 0 1.4-.397 1.6-1.2 1.6-2.396 0-5.196-4.6-7-4.6-2.8 0-3.396 9.2-8.6 9.2-2.2 0-2.2-3.2-2.2-3.8 0-.4.4-1.8.603-2.602 1-5.197 4.8-10.398 7.6-15.602.195.413.195 1.013.195 1.413zm-141.6.8c1.4 1.4 3.2 2.8 4.6 4.4 1.4 1.397 4.4 5.397 4.4 7.397 0 1-.8 1-1.2 1-2.4 0-5.8-3-7.8-2.603-1.8 3-1.4 6-2.8 9-.6 1.4-2.6 2.4-3.4 2.4-1.4 0-2.6-2.8-2.6-3.198v-5.2c0-5 2-10 3-15 .2.603 1 1.603 1 2 0 0-2.6 11.8-2.6 13.603 0 .198-.2 2.397.8 2.8 1.4-1.197.8-3.602 1.4-5.197 0-.803.2-1.603.2-2.4l.6-8 1 1v5.8c.4.8.4 1.602 1 1.602s1.4-1 1.4-1.398c0-.602-1.2-5-1.2-5.4 0-.6.6-1 .8-1.6.2.6.4 1.398.4 2 .2 1.197.8 2.6 1.6 4 .8 1.197 3.6 3.398 4.6 3.398.6 0 .8-.2 1.2-.602-.6-1.6-3.2-2.2-4-3.398-1.6-1.802-2.6-4-3.8-6l.2-2.802c.4.802.6 1.6 1.2 2.4zm-120.2.6c1.2 1.2 3 2.802 4.4 4.4 1.6 1.4 4 5.6 4 7.2 0 1.2-.8 1.2-1.2 1.2s-5-2-7.6-3c-1 1-1.6 3.197-1.8 4.397s-.4 3-1.4 4.603c-.8 1.197-2.4 2.397-3.4 2.397s-2.4-2.2-2.4-3v-5.2c0-5.197 2.2-10.197 3.4-15.197.2.6 1 1.6 1 2 0 .6-3.2 11.397-3.2 14 0 .397.2 1.397.8 2.197h.6c1.2-5 1.4-10.396 2.2-15.396.2.2.8.396.8 1 .4 1.2 0 3.6 0 4.2 0 .397-.4 3.197 1 3.197.8 0 1.2-1.197 1.2-1.602 0-.6-1-5-1-5.398 0-.602.6-1 .8-1.396a38.12 38.12 0 0 0 1.8 5.799c.2.4 3.6 3.8 4.2 3.8h1.4c0-.2.2-.2.2-.6 0-1.4-3.8-3-4.2-3.604-1.4-2-2.2-4-3.2-6l.2-3c.4 1.004.6 2.004 1.4 3.004zm284 12.2c0 .4.2.8.398 1.2.198 0 .602-.2.8-.6 2.2-4 4-8 5.8-12 .398.397 1 .397 1 1 0 .397-1.8 4.8-1.8 5.197 0 .604.2 1.2.8 1.2 1 0 1.398-1.802 1.6-2.397.2-.4.2-1 .2-1.4.2-.4.2-1 .2-1.4.2-.4.2-1 .2-1.4l2.6-3.8c.2 1 .2 2 .6 3 .8 1.398 1.8 2.8 2.4 4.398.6 1.2 2 5.8 2 7.8 0 .802-.2 1.802-1.2 1.802-2.4 0-5.2-5.2-6.8-5.2s-4.4 8.803-9.2 8.803c-2.2 0-2-3-2-3.803 0-.6.8-2.397 1-3.197 1.2-4.803 5.8-10.602 9-15 0 4.796-7.6 11.596-7.6 15.796zm-253.4-13c.6.8 1.8 1.4 2.8 2.2 2.4 2 4 4.4 5.4 6.6.6.6 1.2 2.2 1.2 2.6 0 1.2-1.2 1-1.6 1-1.8 0-6.4-2.397-7-2.397-1.4 0-2 4.603-2 4.8-.2 1.4-.4 2.803-1 4.2-.4 1-2.4 2.8-3.4 2.8s-2.6-2.396-2.6-3v-9.8l2.4-10.8c.2.6 1 1.6 1 2.197 0 1.603-2.2 9.803-2.2 13 0 .4.2 2.4.8 3.2h.6c.6-2.802.4-6 1-8.802l.2-6.8c1.4.8 1 1.4 1 1.8 0 .6 0 1 .2 4.802 0 .398-.2 1.8 1.2 1.8.6 0 1.2-1.197 1.2-1.6s-1.4-4.8-1.4-5.198c0-.602.6-1 .8-1.602.6 2 1 4 2.2 6 .6.8 3.4 3.2 4.8 3.2.4 0 .6-.2 1-.4-.2-1.6-2-2.198-3-2.8-2.6-1.6-3.8-5-5.2-7l.2-2.8c.4.8.6 1.8 1.4 2.8zm63.4 2.2c1.2.8 6.4 7.2 6.4 9 0 .8-.8 1-1.2 1-2.2 0-6.4-2.8-8-2.2-.4 1.2-1 2.602-1.2 4 0 0-.6 7.8-4.4 7.8-2 0-2.8-4-2.8-4.4v-8.397l2.2-11c.4.8.8 1.603 1 2.397l-2 13c-.2.603-.2 3.2 1.4 3.2.4-1.398.6-3 .8-4.398l.4-11c.2.197.6.398.8 1 .6 1.197-.4 7.197 1.4 7.197.6 0 1.4-1.197 1.4-1.6 0-.6-1.4-4.6-1.4-5 0-.6.4-1.4.6-2 .6 1.802 1 3.802 2.2 5.802.8 1.198 3.6 3.398 5 3.398.4 0 .6-.2 1-.6-1-2.2-3-2-4.4-3.604-2-2-4.4-5.602-4.2-7.8l.2-1.2c.4 1.806 2.8 4.204 4.8 5.404zm-28.8-.2c1.8 1.4 4 4.2 5.2 6 .2.4 1 1 1 1.602v1.602h-2.8c-1.8-.803-4.6-2-6.2-1.803-.6 1.4-1 3-1.2 4.603 0 .397-.2 7.397-4 7.397-3.2 0-3.2-6.6-3.2-7.397 0-.603 0-3.397-.2-3.8l1.8-12.4c.4.604 1.2 1.604 1.2 2.2 0 .397-1.6 11.8-1.6 12.397 0 1-.2 2.603.8 4h.8c.8-1.6.6-3.8.6-5.397 0-.397-.4-9-.2-10.2.4.4.8.604 1 1.2.4.603.2 7 1.6 7 .6 0 1.4-1.2 1.4-1.603 0-.6-1.8-4.6-1.8-5s.6-.6.4-1.8c0 0 0-.2.2-.398 0 2.398 3.8 9 7.6 9 .4 0 1-.4 1-.803 0-1.6-3.6-2.397-4-2.8-2.4-2-4-5-5.2-7.398l.2-2c.2 1.996 3.8 4.596 5.6 5.796z"/><path fill="#fff" d="M466.8 5c5.2 8.2 7.4 17.6 7.4 26l-.2 7c-.6 6.6-1.2 13.2-2.8 19.8-1.2 5-2.6 10.2-3.6 15.6-.6 3.4-.8 7.4-1.4 11.202-.2 1.398-1.2 2-2.2 2-1.2 0-2-3.2-2-3.398 0-.602-.6-1.803-.6-2.602 0-12.802-6.8-26.602-7.8-39.2 0-1.4-.397-4.2-.397-4.6V23.4c.397-6 1.6-12 5.397-18-1-1-2.197-2.4-2.6-3.4v-.6c.8 1 2.6 3.2 3.2 3.2.397 0 1.8-1.4 2.8-1.6h.8c1.2 0 1.604.6 3.4 1.4 1-1 2.2-2.2 3-3.2C469 2 468 4 466.8 5zm-37.6-.4c1.8-1 2.6-1.6 3.6-1.6 1.4 0 2.4 1.2 3.2 1.2.4 0 2.2-2 2.8-3 0 2-2 3.2-2 3.8s2.2 3.4 3 5.4c3 6.6 4.4 13.6 4.4 20.4 0 .4-.2 1.8-.2 6.4-.4 15.4-6 30.8-8.2 46.4 0 .6-.6 1.8-1.6 2.6-.2.2-.2.2-.8.2-2 0-2.2-3.8-2.2-4.604V77.6c-.8-12.2-6.6-24.4-7.6-36.6 0-1.6-.397-4.6-.397-5V24.2c.2-1.2.2-2.6.397-3.8.2-1.6.4-3.4.803-4.8.396-2.2 1.197-4.8 2.197-6.8.4-1.2 2-3 2-3.4 0-.6-2.397-3.2-2.397-3.6v-.6C427 2.2 428 3.4 429.2 4.6zm-180 0c1.8-1 2.6-1.6 3.6-1.6 1.4 0 2.4 1.2 3.2 1.2.4 0 2.2-2 2.8-3 0 2-2 3.2-2 3.8s2.2 3.4 3 5.4c3 6.6 4.4 13.6 4.4 20.4 0 .4-.2 1.8-.2 6.4-.398 15.4-6 30.8-8.2 46.4 0 .6-.6 1.8-1.6 2.6-.2.2-.2.2-.8.2-2 0-2.2-3.8-2.2-4.604V77.6c-.6-11.8-6.8-24.8-7.6-36.6 0-1.6-.4-4.6-.4-5V24.2c.2-1.2.2-2.6.4-3.8.197-1.6.397-3.4.8-4.8.396-2.2 1.2-4.8 2.2-6.8.397-1.2 2-3 2-3.4 0-.6-2.4-3.2-2.4-3.6v-.6c.8 1 1.8 2.2 3 3.4zm-22.4.4c5.2 8.2 7.4 17.6 7.4 26l-.2 7c-.6 6.6-1.2 13.2-2.8 19.8l-2 8c-.8 3-1.6 6.6-2 10-.4 3 0 6.802-1.4 9.802-.2.602-1.4 1-1.8 1-.6 0-2-2.398-2.2-3.2s-.4-1.8-.4-2.8c-.4-9.2-3-18.802-5.8-28-.2-.4-2.4-13.6-2.4-15.8V23.4c.4-6 1.6-12 5.4-18-1-1-2.2-2.4-2.6-3.4v-.6c.8 1 2.6 3.2 3.2 3.2.4 0 1.8-1.4 2.8-1.6h.8c1.2 0 2 .2 3.4 1.4 1-1 2.2-2.2 3-3.2C229 2 228 4 226.8 5zm-37.6-.4c1.8-1 2.6-1.6 3.6-1.6 1.4 0 2.4 1.2 3.2 1.2.4 0 2.2-2 2.8-3 0 2-2 3.2-2 3.8s2.4 3.4 3 5.4c3 7.6 4.4 13.4 4.4 20.6 0 .4 0 1.8-.2 6.6-.2 2.6-.6 5.2-.8 7.8-.4 3.2-.8 7-1.6 10.6-1.2 5.602-4.6 16.602-4.6 23.8v4.4c-1 1.4-.4 2.2-1.8 2.2-3 0-3.4-7.8-3.4-7.8-1-13.2-8-26.4-8.4-39.603 0-1-.2-2.6-.2-3V24.2c.2-1.2.2-2.6.4-3.8.2-1.6.4-3.4.8-4.8.4-2 1.2-4.4 2-6.4.4-1.4 2.2-3.4 2.2-3.8 0-.6-2.4-3.2-2.4-3.6v-.6c.8 1 1.8 2.2 3 3.4zM16.8 5c5.4 7.8 7.4 17.6 7.4 25.6l-.2 7.2c-.6 5.4-1 11.4-2.2 17.2-.6 3.8-1.8 7.8-2.8 11.602-.6 2.8-1.4 6-1.8 9-.4 1.798-.6 4.198-.6 6.198 0 1-.2 4.802-2.6 4.802-1.2 0-2-3.2-2-3.398 0-.602-.6-1.803-.6-2.602-.2-12.2-6-25.398-7.6-37.398l-.6-6.4V23.4c.4-6 1.6-12 5.4-18C7.6 4.4 6.4 3 6 2v-.6c.8 1 2.6 3.2 3.2 3.2.4 0 1.8-1.4 2.8-1.6h.8c1.2 0 2 .2 3.4 1.4 1-1 2.2-2.2 3-3.2C19 2 18 4 16.8 5zm30 0c0 .4 1.8 2.8 2.6 4.6C50.6 12 54 22.6 54 26v10.8c-.2 3.4-.6 6.8-1 10.2-.2 2-.6 4.6-1 6.8-1.8 8.8-4.8 18.2-5 27.4 0 .2.4 5.2-1.4 5.2-.6 0-.4 0-.6-.2-.8-.4-1.6-1.4-2-2.2-.8-2.2-1-4.6-1.2-6.8-1.2-9.2-5.2-19.4-7-28.4 0-.4-1.6-11.4-1.6-13.8v-9.6c.2-1.4.2-3 .4-4.6s.4-3.6.8-5.2c.4-2 1.2-4.4 2-6.4.4-1.4 2.2-3.4 2.2-3.8 0-.2-2.4-2.6-2.2-4.2.6 1 1.6 2.2 2.8 3.4C41 3.6 41.8 3 42.8 3c1.2 0 2 .2 3.2 1.4 1-1 2-2.2 2.8-3.4 0 2-2 3.2-2 4zM403 3c1.2 0 2.2 1.2 3 1.2.4 0 2-2.2 2.602-3.4 0 1.4-1 2.8-2 4.2C408.4 7 409 8.8 410 11c.602 1.2 4 12.2 4 15.2V37c-.2 3.6-.6 7-1 10.4-.398 3.2-.8 6.4-1.6 9.6l-5.8 25c-.2 1-1.2 5-3.603 4.4-1-1.2-1.603-3.4-1-4.4v-4.398c-.603-5-1.397-10.602-2.8-15.802-1.4-5.4-4.803-17-4.803-24V22.6c.2-1 .4-2.2.4-3.2.4-3.2 1.2-6.6 2.4-9.6.398-1.4 2.398-4 2.398-4.4 0-.6-1.197-1.4-1.6-2.2-.4-.6-.4-1.4-.603-2.4.603 1 1.603 2.4 2.8 3.8C400.4 3.8 402 3 403 3zm-30.2 0c1.2 0 2 .6 3.2 1.2.8-1 1.602-2.2 2.2-3.2 0 0 .2-.2.2.4 0 .4-1.8 3-1.8 3.6 0 .4.8.8 1 1.4.8 1 1.6 2.6 2 3.8 3.198 7.6 4.398 14.2 4.398 21.4l-.2 7.8c-.397 4-1 8-1.397 12-.603 5-2.603 11.2-3.603 16.4 0 0-3 18.602-7.397 18.602-.603 0-1.2-2.398-1.2-2.602 0-.6.4-1.8.4-8-.2-6.6-2.4-13.398-4.2-20.2-1.2-4.8-3-12.6-3-18V23.2c.2-1 .2-2.2.397-3.4.2-1.6.4-3.4.804-4.8.4-2.2 1.2-4.8 2.4-7 .4-1 1.602-2.2 1.602-2.6 0-.6-1.602-3-2-4.4.8 1 1.8 2.4 2.8 3.6 1-1.4 2.4-1.6 3.4-1.6zm-60 0c1.2 0 2 .6 3.2 1.2.8-1 1.602-2.2 2.2-3.2 0 0 .2-.2.2.4 0 .4-1.8 3-1.8 3.6 0 .4.8.8 1 1.4.8 1 1.6 2.6 2 3.8 3.198 7.6 4.398 14.2 4.398 21.4l-.2 7.8c-.397 4-1 8-1.397 12-.603 5-2.603 11.2-3.603 16.4 0 0-3 18.602-7.397 18.602-.603 0-1.2-2.398-1.2-2.602 0-.6.4-1.8.4-8-.2-6.398-2.2-13.2-4-19.6-1-3.4-3.2-13.6-3.2-18.6V23.2c.2-1 .2-2.2.397-3.4.2-1.6.4-3.4.804-4.8.4-2.2 1.2-4.8 2.4-7 .4-1 1.602-2.2 1.602-2.6 0-.6-1.602-3-2-4.4.8 1 1.8 2.4 2.8 3.6 1-1.4 2.4-1.6 3.4-1.6zM283 3c1.2 0 2.2 1.2 3 1.2.4 0 2-2.2 2.602-3.4 0 1.4-1 2.8-2 4.2C288.4 7 289 8.8 290 11c.602 1.2 4 12.2 4 15.2V37c-.2 3.6-.6 7-1 10.4-.398 3.2-.8 6.4-1.6 9.6l-5.8 25c-.2 1-1.2 5-3.603 4.4-1-1.2-1.603-3.4-1-4.4v-4.398c-.397-5.398-1.397-11.2-3-16.602-1.397-4.8-4.603-17.4-4.603-23.2V22.6c.2-1 .4-2.2.4-3.2.4-3.2 1.2-6.6 2.4-9.6.398-1.4 2.398-4 2.398-4.4 0-.6-1.197-1.4-1.6-2.2-.4-.6-.4-1.4-.603-2.4.603 1 1.603 2.4 2.8 3.8C280.4 3.8 282 3 283 3zM162.8 3c1.2 0 2 .6 3.2 1.4 1-1.2 2-2.4 2.6-3.6 0 1.4-1 2.8-2 4.2 5.8 8.6 7.4 17.8 7.4 26.6 0 10.4-1.4 21-4.2 31.8-.6 2-1 4.6-1.4 6.8-.6 2.4-1 5.2-1 8.2-.4 6 0 6.2 0 6.8 0 .4-.4 1.2-1 1.2-1.4 0-3-1.604-3.2-3.2-1.6-10-4.8-21-7.6-30.8-.2-.8-2.2-11.6-2.2-14V22.6c.2-1 .4-2.2.4-3.2.4-3.2 1.2-6.6 2.4-9.6.4-1.4 2.4-4 2.4-4.4 0-.6-1.2-1.4-1.6-2.2-.4-.6-.4-1.4-.6-2.4.6 1 1.6 2.4 2.8 3.8C160.4 4 162 3 162.8 3zM133 3c1 0 1.8.6 3 1.2.8-1 1.6-2.2 2.2-3.2 0 0 .2-.2.2.4 0 .4-1.8 3-1.8 3.6 0 .4.8 1 1 1.4 1 1.2 1.8 2.6 2.2 4.2 3.8 10.2 4.2 12.6 4.2 21l-.2 8c-.2 1.8-.6 3.6-.6 5.4-.6 11.2-5.6 23.2-5.6 34.602 0 .398.4 4.398.4 5 0 .198 0 1.8-.8 1.8-1.8 0-2.8-2-3.4-3.6-1.4-3.6-1.6-7.4-2.6-10.8-2-7.6-4.8-15.398-6.4-23-.8-3.8-1.4-11.2-1.4-11.6v-14c.2-1.2.2-2.4.4-3.6.2-1.8.4-4 1-5.6.4-1.6.8-3.4 1.6-4.8.4-1.2 2.2-3.6 2.2-4 0-.6-1.6-3-2-4.4.8 1 1.8 2.4 2.8 3.6.6-1 2.6-1.6 3.6-1.6zM69.4 4.6C70 3.6 72 3 73 3c1.2 0 2.2 1.2 2.8 1.2s2-2.2 2.6-3.4c0 1.4-1 2.8-1.8 4.2.6.6 1.2 1.4 1.4 2 4.4 8.4 6 16.6 6 24.6l-.2 8.2c-.6 8.4-2.4 17-4.4 25.6-1 3.802-1.8 8.2-1.8 12.2-.2 5 .2 6 .2 6.4s.2 2.4-.8 2.4c-1.8 0-2.6-1.603-3.4-3.4-1-2.6-1-5.6-1.8-8.2-2.2-8.6-5-17.2-7-25.8-.8-3.4-1.4-10.2-1.4-10.6V22.6c.2-1 .4-2.2.4-3.2.4-3.8 1.4-7.8 3.2-11.4.4-1 1.6-2.2 1.6-2.6 0-.6-2-3.4-2-3.8v-1c0 1 1.6 2.6 2.8 4zm270 0c1-1.4 2.396-1.6 3.396-1.6 1.2 0 1.4 0 3 1.2 1-1.2 1.803-2.4 2.2-3.6 0 0 .2-.2.2.4 0 1.2-1.602 3-1.602 3.8 0 .6 2 3 2.602 4.6C353 19 354 23 354 31.6l-.2 7-1.4 12.8c-.6 5.2-2.397 11-3.6 16.6-.198.8-3.6 18.4-8.4 18.4-.6 0-.8-2.4-.8-2.4 0-.398.398-2.6.8-4v-4.8c-.8-14-7-25.6-7-38.6V24.2c.2-1.2.2-2.6.4-4 .2-1 .4-2 .4-3 .4-2 .8-4.4 1.6-6.2.6-2 2.802-5.2 2.802-5.8 0-.4-1.602-2.8-1.602-3.2V.4c.602 1.4 1.4 2.8 2.4 4.2zm-240 0C100 3.6 102 3 103 3c.8 0 1.2 0 2.8 1.2 1-1.2 1.8-2.4 2.2-3.6 0 0 .2-.2.2.4 0 1.2-1.6 3-1.6 3.8 0 .6 2.2 3.4 3 5.4 3.4 7.6 4.4 14 4.4 21.6l-.2 7c-.6 5.4-1.2 11.4-2.2 17.2-.4 2.4-1.4 5-1.8 7.602C109 68.2 108 73.8 108 78.8c0 .6.2 4 .2 4.6 0 .4.4 1 .4 1.603 0 .397-.2 1-.4 1.397-2.4-.197-4-4.397-4.4-5.8-3.2-11.398-7.4-22.802-9.4-34.2-.6-3.2-1-9.4-1-9.8V24.2c.2-1.2.2-2.6.4-4 .2-1 .4-2.2.4-3.2.6-2.2 1-4.6 1.8-6.6.6-1.8 2.6-4.6 2.6-5.2 0-.4-1.6-2.8-1.6-3.2V.4c.6 1.4 1.4 2.8 2.4 4.2z"/><defs><path id="A" d="M16.8 5c5.4 7.8 7.4 17.6 7.4 25.6l-.2 7.2c-.6 5.4-1 11.4-2.2 17.2-.6 3.8-1.8 7.8-2.8 11.602-.6 2.8-1.4 6-1.8 9-.4 1.798-.6 4.198-.6 6.198 0 1-.2 4.802-2.6 4.802-1.2 0-2-3.2-2-3.398 0-.602-.6-1.803-.6-2.602-.2-12.2-6-25.398-7.6-37.398l-.6-6.4V23.4c.4-6 1.6-12 5.4-18C7.6 4.4 6.4 3 6 2v-.6c.8 1 2.6 3.2 3.2 3.2.4 0 1.8-1.4 2.8-1.6h.8c1.2 0 2 .2 3.4 1.4 1-1 2.2-2.2 3-3.2C19 2 18 4 16.8 5z"/><path id="B" d="M24.57 33.472s-5.5-3.535-7.25 0 .25 6.953-.583 7.953-3.083 3.42-3.417 5.626 2.667 6.207 6.167 6.124 7.083-8.124 7.083-8.124 5.083-13.45-2-11.58z"/><path id="C" d="M20.744 66.092s-6.226-3.334-7.45 1.334-3.938 5.25-.54 7.416 6.916 1.5 8-1.75.001-7 .001-7z"/><path id="D" d="M25.652 23.8s9.188-7.833 10.97-6.458 2.28 4.06 3.53 4.78 4.402-1.72 4.95 0 4.21 4.803 1.88 8.137-2.168 10.484-12.187 9.472-14.018-10.097-9.143-15.93z"/><path id="E" d="M235.986 23.8s9.188-7.833 10.97-6.458 2.28 4.06 3.53 4.78 4.4-1.72 4.95 0 4.21 4.803 1.88 8.137-2.168 10.484-12.188 9.472-14.017-10.097-9.142-15.93z"/><path id="F" d="M264.736 33.472s-5.5-3.535-7.25 0 .25 6.953-.584 7.953-3.082 3.42-3.416 5.626 2.666 6.207 6.166 6.124 7.084-8.124 7.084-8.124 5.082-13.45-2-11.58z"/><path id="G" d="M260.9 66.092s-6.225-3.334-7.45 1.334-3.938 5.25-.54 7.416 6.916 1.5 8-1.75 0-7 0-7z"/><path id="H" d="M265.818 23.8s9.188-7.833 10.97-6.458 2.28 4.06 3.53 4.78 4.402-1.72 4.95 0 4.21 4.803 1.88 8.137-2.168 10.484-12.188 9.472-14.017-10.097-9.142-15.93z"/><path id="I" d="M294.568 33.472s-5.5-3.535-7.25 0 .25 6.953-.582 7.953-3.084 3.42-3.418 5.626 2.668 6.207 6.168 6.124 7.082-8.124 7.082-8.124 5.084-13.45-2-11.58z"/><path id="J" d="M350.743 66.092s-6.226-3.334-7.45 1.334-3.938 5.25-.54 7.416 6.916 1.5 8-1.75 0-7 0-7z"/><path id="K" d="M380.577 66.092s-6.228-3.334-7.45 1.334-3.938 5.25-.54 7.416 6.916 1.5 7.99-1.75.002-7 .002-7z"/></defs><clipPath id="L"><use xlink:href="#A"/></clipPath><g clip-path="url(#L)"><g class="B"><path d="M-4.18 23.8s9.188-7.833 10.97-6.458 2.28 4.06 3.53 4.78 4.402-1.72 4.95 0 4.21 4.803 1.88 8.137S14.98 40.74 4.962 39.73-9.056 29.632-4.18 23.8z"/><ellipse cx="20.744" cy="50.389" rx="8.624" ry="10.562"/><ellipse cx="4.349" cy="65.187" rx="8.405" ry="8.78"/></g><g class="C"><ellipse cx="3.602" cy="37.257" rx="6.7" ry="7"/><use xlink:href="#B"/><use xlink:href="#C"/><ellipse cx="9.436" cy="59.615" rx="2.95" ry="3.209"/></g></g><defs><path id="M" d="M16.8 5c5.4 7.8 7.4 17.6 7.4 25.6l-.2 7.2c-.6 5.4-1 11.4-2.2 17.2-.6 3.8-1.8 7.8-2.8 11.602-.6 2.8-1.4 6-1.8 9-.4 1.798-.6 4.198-.6 6.198 0 1-.2 4.802-2.6 4.802-1.2 0-2-3.2-2-3.398 0-.602-.6-1.803-.6-2.602-.2-12.2-6-25.398-7.6-37.398l-.6-6.4V23.4c.4-6 1.6-12 5.4-18C7.6 4.4 6.4 3 6 2v-.6c.8 1 2.6 3.2 3.2 3.2.4 0 1.8-1.4 2.8-1.6h.8c1.2 0 2 .2 3.4 1.4 1-1 2.2-2.2 3-3.2C19 2 18 4 16.8 5z"/></defs><clipPath id="N"><use xlink:href="#M"/></clipPath><g clip-path="url(#N)" class="D"><ellipse transform="matrix(.9994 -.0336 .0336 .9994 -.3585 .6065)" cx="17.87" cy="10.972" rx=".378" ry="1.199"/><ellipse transform="matrix(.9995 -.0323 .0323 .9995 -.3611 .2727)" cx="8.265" cy="11.319" rx=".378" ry="1.198"/></g><g class="D"><ellipse transform="matrix(.9994 -.0336 .0336 .9994 -.3416 1.6088)" cx="47.703" cy="10.971" rx=".378" ry="1.199"/><ellipse transform="matrix(.9995 -.0323 .0323 .9995 -.3458 1.2366)" cx="38.098" cy="11.32" rx=".378" ry="1.198"/></g><defs><path id="O" d="M46.8 5c0 .4 1.8 2.8 2.6 4.6C50.6 12 54 22.6 54 26v10.8c-.2 3.4-.6 6.8-1 10.2-.2 2-.6 4.6-1 6.8-1.8 8.8-4.8 18.2-5 27.4 0 .2.4 5.2-1.4 5.2-.6 0-.4 0-.6-.2-.8-.4-1.6-1.4-2-2.2-.8-2.2-1-4.6-1.2-6.8-1.2-9.2-5.2-19.4-7-28.4 0-.4-1.6-11.4-1.6-13.8v-9.6c.2-1.4.2-3 .4-4.6s.4-3.6.8-5.2c.4-2 1.2-4.4 2-6.4.4-1.4 2.2-3.4 2.2-3.8 0-.2-2.4-2.6-2.2-4.2.6 1 1.6 2.2 2.8 3.4C41 3.6 41.8 3 42.8 3c1.2 0 2 .2 3.2 1.4 1-1 2-2.2 2.8-3.4 0 2-2 3.2-2 4z"/></defs><clipPath id="P"><use xlink:href="#O"/></clipPath><g clip-path="url(#P)"><g class="B"><use xlink:href="#D"/><ellipse cx="50.577" cy="50.389" rx="8.624" ry="10.562"/><ellipse cx="34.182" cy="65.187" rx="8.405" ry="8.78"/></g><g class="C"><ellipse cx="33.435" cy="37.257" rx="6.7" ry="7"/><use xlink:href="#B" x="29.832"/><use xlink:href="#C" x="29.833"/><ellipse cx="39.269" cy="59.615" rx="2.95" ry="3.209"/></g></g><g class="D"><ellipse transform="matrix(.9994 -.0336 .0336 .9994 -.3246 2.6222)" cx="77.87" cy="10.97" rx=".378" ry="1.199"/><ellipse transform="matrix(.9995 -.0323 .0323 .9995 -.3301 2.2111)" cx="68.265" cy="11.32" rx=".378" ry="1.198"/></g><defs><path id="Q" d="M69.4 4.6C70 3.6 72 3 73 3c1.2 0 2.2 1.2 2.8 1.2s2-2.2 2.6-3.4c0 1.4-1 2.8-1.8 4.2.6.6 1.2 1.4 1.4 2 4.4 8.4 6 16.6 6 24.6l-.2 8.2c-.6 8.4-2.4 17-4.4 25.6-1 3.802-1.8 8.2-1.8 12.2-.2 5 .2 6 .2 6.4s.2 2.4-.8 2.4c-1.8 0-2.6-1.603-3.4-3.4-1-2.6-1-5.6-1.8-8.2-2.2-8.6-5-17.2-7-25.8-.8-3.4-1.4-10.2-1.4-10.6V22.6c.2-1 .4-2.2.4-3.2.4-3.8 1.4-7.8 3.2-11.4.4-1 1.6-2.2 1.6-2.6 0-.6-2-3.4-2-3.8v-1c0 1 1.6 2.6 2.8 4z"/></defs><clipPath id="R"><use xlink:href="#Q"/></clipPath><g clip-path="url(#R)"><g class="B"><path d="M55.82 23.8s9.188-7.833 10.97-6.458 2.28 4.06 3.53 4.78 4.402-1.72 4.95 0 4.21 4.803 1.88 8.137S74.98 40.74 64.962 39.73 50.944 29.632 55.82 23.8z"/><ellipse cx="80.744" cy="50.389" rx="8.624" ry="10.562"/><ellipse cx="64.349" cy="65.187" rx="8.405" ry="8.78"/></g><g class="C"><ellipse cx="63.602" cy="37.257" rx="6.7" ry="7"/><use xlink:href="#B" x="60"/><use xlink:href="#C" x="60"/><ellipse cx="69.436" cy="59.615" rx="2.95" ry="3.209"/></g></g><g class="D"><ellipse transform="matrix(.9994 -.0336 .0336 .9994 -.3077 3.6244)" cx="107.703" cy="10.968" rx=".378" ry="1.199"/><ellipse transform="matrix(.9995 -.0323 .0323 .9995 -.3145 3.1749)" cx="98.098" cy="11.321" rx=".378" ry="1.198"/></g><defs><path id="S" d="M99.4 4.6C100 3.6 102 3 103 3c.8 0 1.2 0 2.8 1.2 1-1.2 1.8-2.4 2.2-3.6 0 0 .2-.2.2.4 0 1.2-1.6 3-1.6 3.8 0 .6 2.2 3.4 3 5.4 3.4 7.6 4.4 14 4.4 21.6l-.2 7c-.6 5.4-1.2 11.4-2.2 17.2-.4 2.4-1.4 5-1.8 7.602C109 68.2 108 73.8 108 78.8c0 .6.2 4 .2 4.6 0 .4.4 1 .4 1.603 0 .397-.2 1-.4 1.397-2.4-.197-4-4.397-4.4-5.8-3.2-11.398-7.4-22.802-9.4-34.2-.6-3.2-1-9.4-1-9.8V24.2c.2-1.2.2-2.6.4-4 .2-1 .4-2.2.4-3.2.6-2.2 1-4.6 1.8-6.6.6-1.8 2.6-4.6 2.6-5.2 0-.4-1.6-2.8-1.6-3.2V.4c.6 1.4 1.4 2.8 2.4 4.2z"/></defs><clipPath id="T"><use xlink:href="#S"/></clipPath><g clip-path="url(#T)"><g class="B"><use xlink:href="#D" x="60"/><ellipse cx="110.577" cy="50.389" rx="8.624" ry="10.562"/><ellipse cx="94.182" cy="65.187" rx="8.405" ry="8.78"/></g><g class="C"><ellipse cx="93.435" cy="37.257" rx="6.7" ry="7"/><use xlink:href="#B" x="89.832"/><use xlink:href="#C" x="89.833"/><ellipse cx="99.269" cy="59.615" rx="2.95" ry="3.209"/></g></g><g class="D"><ellipse transform="matrix(.9994 -.0336 .0336 .9994 -.2906 4.6379)" cx="137.87" cy="10.967" rx=".378" ry="1.199"/><ellipse transform="matrix(.9995 -.0323 .0323 .9995 -.2988 4.1493)" cx="128.265" cy="11.321" rx=".378" ry="1.198"/></g><defs><path id="U" d="M133 3c1 0 1.8.6 3 1.2.8-1 1.6-2.2 2.2-3.2 0 0 .2-.2.2.4 0 .4-1.8 3-1.8 3.6 0 .4.8 1 1 1.4 1 1.2 1.8 2.6 2.2 4.2 3.8 10.2 4.2 12.6 4.2 21l-.2 8c-.2 1.8-.6 3.6-.6 5.4-.6 11.2-5.6 23.2-5.6 34.602 0 .398.4 4.398.4 5 0 .198 0 1.8-.8 1.8-1.8 0-2.8-2-3.4-3.6-1.4-3.6-1.6-7.4-2.6-10.8-2-7.6-4.8-15.398-6.4-23-.8-3.8-1.4-11.2-1.4-11.6v-14c.2-1.2.2-2.4.4-3.6.2-1.8.4-4 1-5.6.4-1.6.8-3.4 1.6-4.8.4-1.2 2.2-3.6 2.2-4 0-.6-1.6-3-2-4.4.8 1 1.8 2.4 2.8 3.6.6-1 2.6-1.6 3.6-1.6z"/></defs><clipPath id="V"><use xlink:href="#U"/></clipPath><g clip-path="url(#V)"><g class="B"><use xlink:href="#D" x="90.166"/><ellipse cx="140.743" cy="50.389" rx="8.624" ry="10.562"/><ellipse cx="124.348" cy="65.187" rx="8.405" ry="8.78"/></g><g class="C"><ellipse cx="123.602" cy="37.257" rx="6.7" ry="7"/><use xlink:href="#B" x="119.998"/><use xlink:href="#C" x="119.999"/><ellipse cx="129.436" cy="59.615" rx="2.95" ry="3.209"/></g></g><defs><path id="W" d="M166.966 5c5.4 7.8 7.4 17.6 7.4 25.6l-.2 7.2c-.6 5.4-1 11.4-2.2 17.2-.6 3.8-1.8 7.8-2.8 11.602-.6 2.8-1.4 6-1.8 9-.4 1.8-.6 4.198-.6 6.198 0 1-.2 4.802-2.6 4.802-1.2 0-2-3.2-2-3.398 0-.602-.6-1.803-.6-2.602-.2-12.2-6-25.398-7.6-37.398l-.6-6.4V23.4c.4-6 1.6-12 5.4-18-1-1-2.2-2.4-2.6-3.4v-.6c.8 1 2.6 3.2 3.2 3.2.4 0 1.8-1.4 2.8-1.6h.8c1.2 0 2 .2 3.4 1.4 1-1 2.2-2.2 3-3.2-.2.8-1.2 2.8-2.4 3.8z"/></defs><clipPath id="X"><use xlink:href="#W"/></clipPath><g clip-path="url(#X)"><g class="B"><use xlink:href="#D" x="120.333"/><ellipse cx="170.91" cy="50.389" rx="8.624" ry="10.562"/><ellipse cx="154.515" cy="65.187" rx="8.405" ry="8.78"/></g><g class="C"><ellipse cx="153.769" cy="37.257" rx="6.7" ry="7"/><use xlink:href="#B" x="150.165"/><use xlink:href="#C" x="150.156"/><ellipse cx="159.603" cy="59.615" rx="2.95" ry="3.209"/></g></g><defs><path id="Y" d="M166.966 5c5.4 7.8 7.4 17.6 7.4 25.6l-.2 7.2c-.6 5.4-1 11.4-2.2 17.2-.6 3.8-1.8 7.8-2.8 11.602-.6 2.8-1.4 6-1.8 9-.4 1.8-.6 4.198-.6 6.198 0 1-.2 4.802-2.6 4.802-1.2 0-2-3.2-2-3.398 0-.602-.6-1.803-.6-2.602-.2-12.2-6-25.398-7.6-37.398l-.6-6.4V23.4c.4-6 1.6-12 5.4-18-1-1-2.2-2.4-2.6-3.4v-.6c.8 1 2.6 3.2 3.2 3.2.4 0 1.8-1.4 2.8-1.6h.8c1.2 0 2 .2 3.4 1.4 1-1 2.2-2.2 3-3.2-.2.8-1.2 2.8-2.4 3.8z"/></defs><clipPath id="Z"><use xlink:href="#Y"/></clipPath><g clip-path="url(#Z)" class="D"><ellipse transform="matrix(.9994 -.0336 .0336 .9994 -.2735 5.6513)" cx="168.037" cy="10.966" rx=".378" ry="1.199"/><ellipse transform="matrix(.9995 -.0323 .0323 .9995 -.2831 5.1239)" cx="158.432" cy="11.322" rx=".378" ry="1.198"/></g><defs><path id="a" d="M196.8 5c5.4 7.8 7.4 17.6 7.4 25.6l-.2 7.2c-.6 5.4-1 11.4-2.2 17.2-.6 3.8-1.8 7.8-2.8 11.602-.6 2.8-1.4 6-1.8 9-.4 1.8-.6 4.198-.6 6.198 0 1-.2 4.802-2.6 4.802-1.2 0-2-3.2-2-3.398 0-.602-.6-1.803-.6-2.602-.2-12.2-6-25.398-7.6-37.398l-.6-6.4V23.4c.4-6 1.6-12 5.4-18-1-1-2.2-2.4-2.6-3.4v-.6c.8 1 2.6 3.2 3.2 3.2.4 0 1.8-1.4 2.8-1.6h.8c1.2 0 2 .2 3.4 1.4 1-1 2.2-2.2 3-3.2C199 2 198 4 196.8 5z"/></defs><clipPath id="b"><use xlink:href="#a"/></clipPath><g clip-path="url(#b)"><g class="B"><use xlink:href="#D" x="150.166"/><ellipse cx="200.743" cy="50.389" rx="8.624" ry="10.562"/><ellipse cx="184.348" cy="65.187" rx="8.405" ry="8.78"/></g><g class="C"><ellipse cx="183.602" cy="37.257" rx="6.7" ry="7"/><use xlink:href="#B" x="179.998"/><use xlink:href="#C" x="179.999"/><ellipse cx="189.436" cy="59.615" rx="2.95" ry="3.209"/></g></g><defs><path id="c" d="M196.8 5c5.4 7.8 7.4 17.6 7.4 25.6l-.2 7.2c-.6 5.4-1 11.4-2.2 17.2-.6 3.8-1.8 7.8-2.8 11.602-.6 2.8-1.4 6-1.8 9-.4 1.8-.6 4.198-.6 6.198 0 1-.2 4.802-2.6 4.802-1.2 0-2-3.2-2-3.398 0-.602-.6-1.803-.6-2.602-.2-12.2-6-25.398-7.6-37.398l-.6-6.4V23.4c.4-6 1.6-12 5.4-18-1-1-2.2-2.4-2.6-3.4v-.6c.8 1 2.6 3.2 3.2 3.2.4 0 1.8-1.4 2.8-1.6h.8c1.2 0 2 .2 3.4 1.4 1-1 2.2-2.2 3-3.2C199 2 198 4 196.8 5z"/></defs><clipPath id="d"><use xlink:href="#c"/></clipPath><g clip-path="url(#d)" class="D"><ellipse transform="matrix(.9994 -.0336 .0336 .9994 -.2567 6.6535)" cx="197.87" cy="10.965" rx=".378" ry="1.199"/><ellipse transform="matrix(.9995 -.0329 .0329 .9995 -.2708 6.2093)" cx="188.265" cy="11.323" rx=".378" ry="1.198"/></g><defs><path id="e" d="M226.8 5c5.4 7.8 7.4 17.6 7.4 25.6l-.2 7.2c-.6 5.4-1 11.4-2.2 17.2-.6 3.8-1.8 7.8-2.8 11.602-.6 2.8-1.4 6-1.8 9-.4 1.8-.6 4.198-.6 6.198 0 1-.2 4.802-2.6 4.802-1.2 0-2-3.2-2-3.398 0-.602-.6-1.803-.6-2.602-.2-12.2-6-25.398-7.6-37.398l-.6-6.4V23.4c.4-6 1.6-12 5.4-18-1-1-2.2-2.4-2.6-3.4v-.6c.8 1 2.6 3.2 3.2 3.2.4 0 1.8-1.4 2.8-1.6h.8c1.2 0 2 .2 3.4 1.4 1-1 2.2-2.2 3-3.2C229 2 228 4 226.8 5z"/></defs><clipPath id="f"><use xlink:href="#e"/></clipPath><g clip-path="url(#f)"><g class="B"><use xlink:href="#D" x="180.168"/><ellipse cx="230.744" cy="50.389" rx="8.624" ry="10.562"/><ellipse cx="214.349" cy="65.187" rx="8.405" ry="8.78"/></g><g class="C"><ellipse cx="213.602" cy="37.257" rx="6.7" ry="7"/><use xlink:href="#B" x="210"/><use xlink:href="#C" x="210"/><ellipse cx="219.436" cy="59.615" rx="2.95" ry="3.209"/></g></g><defs><path id="g" d="M226.8 5c5.4 7.8 7.4 17.6 7.4 25.6l-.2 7.2c-.6 5.4-1 11.4-2.2 17.2-.6 3.8-1.8 7.8-2.8 11.602-.6 2.8-1.4 6-1.8 9-.4 1.8-.6 4.198-.6 6.198 0 1-.2 4.802-2.6 4.802-1.2 0-2-3.2-2-3.398 0-.602-.6-1.803-.6-2.602-.2-12.2-6-25.398-7.6-37.398l-.6-6.4V23.4c.4-6 1.6-12 5.4-18-1-1-2.2-2.4-2.6-3.4v-.6c.8 1 2.6 3.2 3.2 3.2.4 0 1.8-1.4 2.8-1.6h.8c1.2 0 2 .2 3.4 1.4 1-1 2.2-2.2 3-3.2C229 2 228 4 226.8 5z"/></defs><clipPath id="h"><use xlink:href="#g"/></clipPath><g clip-path="url(#h)" class="D"><ellipse transform="matrix(.9994 -.0336 .0336 .9994 -.2397 7.6614)" cx="227.87" cy="10.964" rx=".378" ry="1.199"/><ellipse transform="matrix(.9995 -.0323 .0323 .9995 -.2519 7.0567)" cx="218.265" cy="11.324" rx=".378" ry="1.198"/></g><defs><path id="i" d="M256.967 5c5.4 7.8 7.4 17.6 7.4 25.6l-.2 7.2c-.6 5.4-1 11.4-2.2 17.2-.6 3.8-1.8 7.8-2.8 11.602-.6 2.8-1.4 6-1.8 9-.4 1.8-.6 4.198-.6 6.198 0 1-.2 4.802-2.602 4.802-1.2 0-2-3.2-2-3.398 0-.602-.602-1.803-.602-2.602-.198-12.2-6-25.398-7.6-37.398l-.6-6.4V23.4c.4-6 1.6-12 5.4-18-1-1-2.2-2.4-2.602-3.4v-.6c.8 1 2.602 3.2 3.2 3.2.4 0 1.8-1.4 2.8-1.6h.8c1.2 0 2 .2 3.4 1.4 1-1 2.2-2.2 3-3.2-.193.8-1.193 2.8-2.393 3.8z"/></defs><clipPath id="j"><use xlink:href="#i"/></clipPath><g clip-path="url(#j)"><g class="B"><use xlink:href="#E"/><ellipse cx="260.91" cy="50.389" rx="8.625" ry="10.562"/><ellipse cx="244.516" cy="65.187" rx="8.405" ry="8.78"/></g><g class="C"><ellipse cx="243.77" cy="37.257" rx="6.699" ry="7"/><use xlink:href="#F"/><use xlink:href="#G"/><ellipse cx="249.604" cy="59.615" rx="2.949" ry="3.209"/></g></g><defs><path id="k" d="M256.967 5c5.4 7.8 7.4 17.6 7.4 25.6l-.2 7.2c-.6 5.4-1 11.4-2.2 17.2-.6 3.8-1.8 7.8-2.8 11.602-.6 2.8-1.4 6-1.8 9-.4 1.8-.6 4.198-.6 6.198 0 1-.2 4.802-2.602 4.802-1.2 0-2-3.2-2-3.398 0-.602-.602-1.803-.602-2.602-.198-12.2-6-25.398-7.6-37.398l-.6-6.4V23.4c.4-6 1.6-12 5.4-18-1-1-2.2-2.4-2.602-3.4v-.6c.8 1 2.602 3.2 3.2 3.2.4 0 1.8-1.4 2.8-1.6h.8c1.2 0 2 .2 3.4 1.4 1-1 2.2-2.2 3-3.2-.193.8-1.193 2.8-2.393 3.8z"/></defs><clipPath id="l"><use xlink:href="#k"/></clipPath><g clip-path="url(#l)" class="D"><ellipse transform="matrix(.9994 -.0342 .0342 .9994 -.224 8.8244)" cx="258.037" cy="10.965" rx=".379" ry="1.199"/><ellipse transform="matrix(.9995 -.0322 .0322 .9995 -.2358 8.0054)" cx="248.434" cy="11.323" rx=".379" ry="1.198"/></g><defs><path id="m" d="M286.8 5c5.4 7.8 7.4 17.6 7.4 25.6l-.2 7.2c-.6 5.4-1 11.4-2.2 17.2-.6 3.8-1.8 7.8-2.8 11.602-.6 2.8-1.4 6-1.8 9-.4 1.798-.6 4.198-.6 6.198 0 1-.2 4.802-2.6 4.802-1.2 0-2-3.2-2-3.398 0-.602-.6-1.803-.6-2.602-.2-12.2-6-25.398-7.602-37.398l-.6-6.4V23.4c.398-6 1.6-12 5.398-18-1-1-2.2-2.4-2.6-3.4v-.6c.8 1 2.6 3.2 3.2 3.2.4 0 1.8-1.4 2.8-1.6h.8c1.2 0 2 .2 3.4 1.4 1-1 2.2-2.2 3-3.2C289 2 288 4 286.8 5z"/></defs><clipPath id="n"><use xlink:href="#m"/></clipPath><g clip-path="url(#n)"><g class="B"><use xlink:href="#H"/><ellipse cx="290.744" cy="50.389" rx="8.623" ry="10.562"/><ellipse cx="274.35" cy="65.187" rx="8.404" ry="8.78"/></g><g class="C"><ellipse cx="273.602" cy="37.257" rx="6.7" ry="7"/><use xlink:href="#I"/><path d="M290.744 66.092s-6.227-3.334-7.45 1.334-3.938 5.25-.54 7.416 6.916 1.5 7.99-1.75.002-7 .002-7z"/><ellipse cx="279.436" cy="59.615" rx="2.951" ry="3.209"/></g></g><defs><path id="o" d="M286.8 5c5.4 7.8 7.4 17.6 7.4 25.6l-.2 7.2c-.6 5.4-1 11.4-2.2 17.2-.6 3.8-1.8 7.8-2.8 11.602-.6 2.8-1.4 6-1.8 9-.4 1.798-.6 4.198-.6 6.198 0 1-.2 4.802-2.6 4.802-1.2 0-2-3.2-2-3.398 0-.602-.6-1.803-.6-2.602-.2-12.2-6-25.398-7.602-37.398l-.6-6.4V23.4c.398-6 1.6-12 5.398-18-1-1-2.2-2.4-2.6-3.4v-.6c.8 1 2.6 3.2 3.2 3.2.4 0 1.8-1.4 2.8-1.6h.8c1.2 0 2 .2 3.4 1.4 1-1 2.2-2.2 3-3.2C289 2 288 4 286.8 5z"/></defs><clipPath id="p"><use xlink:href="#o"/></clipPath><g clip-path="url(#p)" class="D"><ellipse transform="matrix(.9994 -.0336 .0336 .9994 -.2057 9.6708)" cx="287.872" cy="10.96" rx=".378" ry="1.199"/><ellipse transform="matrix(.9995 -.0324 .0324 .9995 -.2209 9.0123)" cx="278.264" cy="11.328" rx=".377" ry="1.198"/></g><defs><path id="q" d="M316.633 5c5.4 7.8 7.4 17.6 7.4 25.6l-.2 7.2c-.6 5.4-1 11.4-2.2 17.2-.6 3.8-1.8 7.8-2.8 11.602-.6 2.8-1.4 6-1.8 9-.4 1.8-.6 4.198-.6 6.198 0 1-.2 4.802-2.602 4.802-1.2 0-2-3.2-2-3.398 0-.602-.602-1.803-.602-2.602-.2-12.2-6-25.398-7.6-37.398l-.6-6.4V23.4c.4-6 1.6-12 5.4-18-1-1-2.2-2.4-2.602-3.4v-.6c.8 1 2.602 3.2 3.2 3.2.4 0 1.8-1.4 2.8-1.6h.8c1.2 0 2 .2 3.4 1.4 1-1 2.2-2.2 3-3.2-.193.8-1.193 2.8-2.393 3.8z"/></defs><clipPath id="r"><use xlink:href="#q"/></clipPath><g clip-path="url(#r)"><g class="B"><use xlink:href="#E" x="59.666"/><ellipse cx="320.576" cy="50.389" rx="8.625" ry="10.562"/><ellipse cx="304.182" cy="65.187" rx="8.405" ry="8.78"/></g><g class="C"><ellipse cx="303.436" cy="37.257" rx="6.699" ry="7"/><use xlink:href="#F" x="59.666"/><use xlink:href="#G" x="59.676"/><ellipse cx="309.27" cy="59.615" rx="2.949" ry="3.209"/></g></g><defs><path id="s" d="M316.633 5c5.4 7.8 7.4 17.6 7.4 25.6l-.2 7.2c-.6 5.4-1 11.4-2.2 17.2-.6 3.8-1.8 7.8-2.8 11.602-.6 2.8-1.4 6-1.8 9-.4 1.8-.6 4.198-.6 6.198 0 1-.2 4.802-2.602 4.802-1.2 0-2-3.2-2-3.398 0-.602-.602-1.803-.602-2.602-.2-12.2-6-25.398-7.6-37.398l-.6-6.4V23.4c.4-6 1.6-12 5.4-18-1-1-2.2-2.4-2.602-3.4v-.6c.8 1 2.602 3.2 3.2 3.2.4 0 1.8-1.4 2.8-1.6h.8c1.2 0 2 .2 3.4 1.4 1-1 2.2-2.2 3-3.2-.193.8-1.193 2.8-2.393 3.8z"/></defs><clipPath id="t"><use xlink:href="#s"/></clipPath><g clip-path="url(#t)" class="D"><ellipse transform="matrix(.9994 -.0335 .0335 .9994 -.189 10.6448)" cx="317.702" cy="10.963" rx=".379" ry="1.199"/><ellipse transform="matrix(.9995 -.0322 .0322 .9995 -.2049 9.9266)" cx="308.1" cy="11.324" rx=".379" ry="1.198"/></g><defs><path id="u" d="M346.8 5c5.4 7.8 7.4 17.6 7.4 25.6l-.2 7.2c-.602 5.4-1 11.4-2.2 17.2-.6 3.8-1.8 7.8-2.8 11.602-.602 2.8-1.398 6-1.8 9-.4 1.798-.6 4.198-.6 6.198 0 1-.2 4.802-2.6 4.802-1.2 0-2-3.2-2-3.398 0-.602-.6-1.803-.6-2.602-.2-12.2-6-25.398-7.6-37.398l-.6-6.4V23.4c.4-6 1.6-12 5.4-18-1-1-2.2-2.4-2.6-3.4v-.6c.8 1 2.6 3.2 3.2 3.2.4 0 1.8-1.4 2.8-1.6h.8c1.2 0 2 .2 3.4 1.4 1-1 2.2-2.2 3-3.2C349 2 348 4 346.8 5z"/></defs><clipPath id="v"><use xlink:href="#u"/></clipPath><g clip-path="url(#v)"><g class="B"><use xlink:href="#H" x="60"/><ellipse cx="350.743" cy="50.389" rx="8.625" ry="10.562"/><ellipse cx="334.35" cy="65.187" rx="8.404" ry="8.78"/></g><g class="C"><ellipse cx="333.604" cy="37.257" rx="6.698" ry="7"/><use xlink:href="#F" x="89.832"/><use xlink:href="#J"/><ellipse cx="339.438" cy="59.615" rx="2.949" ry="3.209"/></g></g><defs><path id="w" d="M346.8 5c5.4 7.8 7.4 17.6 7.4 25.6l-.2 7.2c-.602 5.4-1 11.4-2.2 17.2-.6 3.8-1.8 7.8-2.8 11.602-.602 2.8-1.398 6-1.8 9-.4 1.798-.6 4.198-.6 6.198 0 1-.2 4.802-2.6 4.802-1.2 0-2-3.2-2-3.398 0-.602-.6-1.803-.6-2.602-.2-12.2-6-25.398-7.6-37.398l-.6-6.4V23.4c.4-6 1.6-12 5.4-18-1-1-2.2-2.4-2.6-3.4v-.6c.8 1 2.6 3.2 3.2 3.2.4 0 1.8-1.4 2.8-1.6h.8c1.2 0 2 .2 3.4 1.4 1-1 2.2-2.2 3-3.2C349 2 348 4 346.8 5z"/></defs><clipPath id="x"><use xlink:href="#w"/></clipPath><g clip-path="url(#x)" class="D"><ellipse transform="matrix(.9994 -.0341 .0341 .9994 -.1715 11.879)" cx="347.869" cy="10.963" rx=".379" ry="1.199"/><ellipse transform="matrix(.9995 -.0322 .0322 .9995 -.1892 10.898)" cx="338.268" cy="11.325" rx=".379" ry="1.198"/></g><defs><path id="y" d="M376.633 5c5.4 7.8 7.4 17.6 7.4 25.6l-.2 7.2c-.6 5.4-1 11.4-2.2 17.2-.6 3.8-1.8 7.8-2.8 11.602-.6 2.8-1.4 6-1.8 9-.4 1.8-.602 4.198-.602 6.198 0 1-.2 4.802-2.6 4.802-1.2 0-2-3.2-2-3.398 0-.602-.6-1.803-.6-2.602-.2-12.2-6-25.398-7.602-37.398l-.6-6.4V23.4c.398-6 1.6-12 5.398-18-1-1-2.2-2.4-2.6-3.4v-.6c.8 1 2.6 3.2 3.2 3.2.4 0 1.8-1.4 2.8-1.6h.8c1.2 0 2 .2 3.4 1.4 1-1 2.2-2.2 3-3.2-.193.8-1.193 2.8-2.393 3.8z"/></defs><clipPath id="z"><use xlink:href="#y"/></clipPath><g clip-path="url(#z)"><g class="B"><use xlink:href="#D" x="329.998"/><ellipse cx="380.577" cy="50.389" rx="8.623" ry="10.562"/><ellipse cx="364.182" cy="65.187" rx="8.405" ry="8.78"/></g><g class="C"><ellipse cx="363.436" cy="37.257" rx="6.699" ry="7"/><use xlink:href="#I" x="89.832"/><use xlink:href="#K"/><ellipse cx="369.27" cy="59.615" rx="2.949" ry="3.209"/></g></g><defs><path id="AA" d="M376.633 5c5.4 7.8 7.4 17.6 7.4 25.6l-.2 7.2c-.6 5.4-1 11.4-2.2 17.2-.6 3.8-1.8 7.8-2.8 11.602-.6 2.8-1.4 6-1.8 9-.4 1.8-.602 4.198-.602 6.198 0 1-.2 4.802-2.6 4.802-1.2 0-2-3.2-2-3.398 0-.602-.6-1.803-.6-2.602-.2-12.2-6-25.398-7.602-37.398l-.6-6.4V23.4c.398-6 1.6-12 5.398-18-1-1-2.2-2.4-2.6-3.4v-.6c.8 1 2.6 3.2 3.2 3.2.4 0 1.8-1.4 2.8-1.6h.8c1.2 0 2 .2 3.4 1.4 1-1 2.2-2.2 3-3.2-.193.8-1.193 2.8-2.393 3.8z"/></defs><clipPath id="AB"><use xlink:href="#AA"/></clipPath><g clip-path="url(#AB)" class="D"><ellipse transform="matrix(.9994 -.0336 .0336 .9994 -.1549 12.6868)" cx="377.705" cy="10.956" rx=".378" ry="1.199"/><ellipse transform="matrix(.9995 -.0324 .0324 .9995 -.1739 11.9354)" cx="368.097" cy="11.331" rx=".377" ry="1.198"/></g><defs><path id="AC" d="M406.8 5c5.4 7.8 7.4 17.6 7.4 25.6l-.2 7.2c-.602 5.4-1 11.4-2.2 17.2-.6 3.8-1.8 7.8-2.8 11.602-.602 2.8-1.398 6-1.8 9-.4 1.798-.6 4.198-.6 6.198 0 1-.2 4.802-2.6 4.802-1.2 0-2-3.2-2-3.398 0-.602-.6-1.803-.6-2.602-.2-12.2-6-25.398-7.6-37.398l-.6-6.4V23.4c.4-6 1.6-12 5.4-18-1-1-2.2-2.4-2.6-3.4v-.6c.8 1 2.6 3.2 3.2 3.2.4 0 1.8-1.4 2.8-1.6h.8c1.2 0 2 .2 3.4 1.4 1-1 2.2-2.2 3-3.2C409 2 408 4 406.8 5z"/></defs><clipPath id="AD"><use xlink:href="#AC"/></clipPath><g clip-path="url(#AD)"><g class="B"><use xlink:href="#H" x="120"/><ellipse cx="410.743" cy="50.389" rx="8.625" ry="10.562"/><ellipse cx="394.35" cy="65.187" rx="8.404" ry="8.78"/></g><g class="C"><ellipse cx="393.604" cy="37.257" rx="6.698" ry="7"/><path d="M414.568 33.472s-5.5-3.535-7.25 0 .25 6.953-.584 7.953-3.082 3.42-3.416 5.626 2.666 6.207 6.166 6.124 7.084-8.124 7.084-8.124 5.084-13.45-2-11.58z"/><use xlink:href="#J" x="60"/><ellipse cx="399.438" cy="59.615" rx="2.949" ry="3.209"/></g></g><defs><path id="AE" d="M406.8 5c5.4 7.8 7.4 17.6 7.4 25.6l-.2 7.2c-.602 5.4-1 11.4-2.2 17.2-.6 3.8-1.8 7.8-2.8 11.602-.602 2.8-1.398 6-1.8 9-.4 1.798-.6 4.198-.6 6.198 0 1-.2 4.802-2.6 4.802-1.2 0-2-3.2-2-3.398 0-.602-.6-1.803-.6-2.602-.2-12.2-6-25.398-7.6-37.398l-.6-6.4V23.4c.4-6 1.6-12 5.4-18-1-1-2.2-2.4-2.6-3.4v-.6c.8 1 2.6 3.2 3.2 3.2.4 0 1.8-1.4 2.8-1.6h.8c1.2 0 2 .2 3.4 1.4 1-1 2.2-2.2 3-3.2C409 2 408 4 406.8 5z"/></defs><clipPath id="AF"><use xlink:href="#AE"/></clipPath><g clip-path="url(#AF)" class="D"><ellipse transform="matrix(.9994 -.0335 .0335 .9994 -.1383 13.6642)" cx="407.869" cy="10.961" rx=".379" ry="1.199"/><ellipse transform="matrix(.9995 -.0322 .0322 .9995 -.1582 12.83)" cx="398.268" cy="11.326" rx=".379" ry="1.198"/></g><g class="D"><ellipse transform="matrix(.9994 -.0335 .0335 .9994 -.1213 14.6744)" cx="438.036" cy="10.96" rx=".379" ry="1.199"/><ellipse transform="matrix(.9995 -.0322 .0322 .9995 -.1425 13.8014)" cx="428.435" cy="11.327" rx=".379" ry="1.198"/></g><defs><path id="AG" d="M429.2 4.6c1.8-1 2.6-1.6 3.6-1.6 1.4 0 2.4 1.2 3.2 1.2.4 0 2.2-2 2.8-3 0 2-2 3.2-2 3.8s2.2 3.4 3 5.4c3 6.6 4.4 13.6 4.4 20.4 0 .4-.2 1.8-.2 6.4-.4 15.4-6 30.8-8.2 46.4 0 .6-.6 1.8-1.6 2.6-.2.2-.2.2-.8.2-2 0-2.2-3.8-2.2-4.604V77.6c-.8-12.2-6.6-24.4-7.6-36.6 0-1.6-.397-4.6-.397-5V24.2c.2-1.2.2-2.6.397-3.8.2-1.6.4-3.4.803-4.8.396-2.2 1.197-4.8 2.197-6.8.4-1.2 2-3 2-3.4 0-.6-2.397-3.2-2.397-3.6v-.6C427 2.2 428 3.4 429.2 4.6z"/></defs><clipPath id="AH"><use xlink:href="#AG"/></clipPath><g clip-path="url(#AH)"><g class="B"><path d="M415.984 23.8s9.188-7.833 10.97-6.458 2.28 4.06 3.53 4.78 4.4-1.72 4.95 0 4.2 4.803 1.88 8.137-2.168 10.484-12.188 9.472-14.02-10.097-9.144-15.93z"/><ellipse cx="440.91" cy="50.389" rx="8.625" ry="10.562"/><ellipse cx="424.516" cy="65.187" rx="8.405" ry="8.78"/></g><g class="C"><ellipse cx="423.77" cy="37.257" rx="6.699" ry="7"/><use xlink:href="#F" x="180"/><use xlink:href="#J" x="90.157"/><ellipse cx="429.604" cy="59.615" rx="2.949" ry="3.209"/></g></g><g class="D"><ellipse transform="matrix(.9995 -.033 .033 .9995 -.1068 15.4319)" cx="467.873" cy="10.952" rx=".378" ry="1.199"/><ellipse transform="matrix(.9995 -.0324 .0324 .9995 -.1267 14.8383)" cx="458.264" cy="11.333" rx=".377" ry="1.198"/></g><defs><path id="AI" d="M466.8 5c5.2 8.2 7.4 17.6 7.4 26l-.2 7c-.6 6.6-1.2 13.2-2.8 19.8-1.2 5-2.6 10.2-3.6 15.6-.6 3.4-.8 7.4-1.4 11.202-.2 1.398-1.2 2-2.2 2-1.2 0-2-3.2-2-3.398 0-.602-.6-1.803-.6-2.602 0-12.802-6.8-26.602-7.8-39.2 0-1.4-.397-4.2-.397-4.6V23.4c.397-6 1.6-12 5.397-18-1-1-2.197-2.4-2.6-3.4v-.6c.8 1 2.6 3.2 3.2 3.2.397 0 1.8-1.4 2.8-1.6h.8c1.2 0 1.604.6 3.4 1.4 1-1 2.2-2.2 3-3.2C469 2 468 4 466.8 5z"/></defs><clipPath id="AJ"><use xlink:href="#AI"/></clipPath><g clip-path="url(#AJ)"><g class="B"><use xlink:href="#E" x="209.832"/><ellipse cx="470.744" cy="50.389" rx="8.623" ry="10.562"/><ellipse cx="454.349" cy="65.187" rx="8.405" ry="8.78"/></g><g class="C"><ellipse cx="453.602" cy="37.257" rx="6.7" ry="7"/><use xlink:href="#I" x="180"/><use xlink:href="#K" x="90.167"/><ellipse cx="459.436" cy="59.615" rx="2.95" ry="3.209"/></g></g></svg>