<svg xmlns="http://www.w3.org/2000/svg" xmlns:xlink="http://www.w3.org/1999/xlink" width="272" height="108"><style><![CDATA[.B{fill:#f2491c}.C{fill:#232c56}.D{fill:#28334c}]]></style><path fill="#f9e9dc" d="M256.7 91.516c1 1.398 3.4 2 4 4.2-.2 0-.4.2-.8.2-1 0-4.4-3.6-4.604-4.398-.6-1.8-1.197-5-1.197-5.398v-.602c.8 2 1.4 4 2.6 6zm-238 0c1 1.398 3.4 2 4 4.2-.2 0-.4.2-.8.2-1 0-4.4-3.6-4.6-4.398-.6-1.8-1.2-5-1.2-5.398v-.602c.8 2 1.4 4 2.6 6zm108.8-3c1.4 1.2 3.2 1.602 4.8 2.602v.6c-.2 0-.4.2-1 .2-3.4 0-7.4-5-8-8 1.2 1.598 2.4 3.396 4.2 4.598zm128.2-3c2.6 2.398 7.6 8.8 7.6 11.8 0 1.2-.4 1.4-1 1.4-2.198 0-5.8-3.4-7.6-3.4-.6.603-1 1.4-1.4 2.2-.6 1.2-1.4 8.8-5.8 8.8-1.6 0-2.398-3.6-2.398-4.197 0-6.2 2.398-12.803 4.602-18.803.398.603 1 1.4 1 2 0 0-4 11.803-4 13.803 0 .8-.2 1.197.8 2 .2 0 .603-.4.603-.602.6-2 1.197-4.2 1.397-6.2l.603-3.6c.397-1.6.6-3.2.8-4.8 1 .8 1 .602 1 1.602 0 .398-.4 4.2-.4 4.8 0 1-.2 2 .8 2 1.2 0 1.4-1.6 1.4-1.8 0-.398-.8-5.2-.8-5.8 0-.4.6-.8 1-1.4.2-.6.396-1.397.8-2.197.192.796.394 1.796.992 2.398zm-238 0c2.6 2.398 7.6 8.8 7.6 11.8 0 1.2-.4 1.4-1 1.4-2.2 0-5.8-3.4-7.6-3.4-.6.603-1 1.4-1.4 2.2-.6 1.2-1.4 8.8-5.8 8.8-1.6 0-2.4-3.6-2.4-4.197 0-6.2 2.4-12.803 4.6-18.803.4.603 1 1.4 1 2 0 0-4 11.803-4 13.803 0 .8-.2 1.197.8 2 .2 0 .6-.4.6-.602.6-2 1.2-4.2 1.4-6.2l.6-3.6c.4-1.6.6-3.2.8-4.8 1 .8 1 .602 1 1.602 0 .398-.4 4.2-.4 4.8 0 1-.2 2 .8 2 1.2 0 1.4-1.6 1.4-1.8 0-.398-.8-5.2-.8-5.8 0-.4.8-1 1-1.4.2-.6.4-1.397.8-2.197.2.796.4 1.796 1 2.398zm205.2-.602c1.2 1.2 3 2.602 4.2 4 .197 0 4.397 5.602 4.397 6.8v1.8h-2c-2.2-.8-4.8-2.8-7-2.602-.603 1.2-1.397 2.2-1.397 3.602-.4 2.398-2 7.8-4.803 7.8-1.197 0-2.6-2.8-2.6-3.197v-3.803c-.2-5.397 2-11 3.197-16.197.4.6 1 1.398 1 2 0 .398-.397.8-.397 1.197-.8 3-2.397 8.603-2.397 12.2 0 .602.197 1.8.8 2.602 1.2-.4.8-1.803 1-2.4.2-.8.396-1.8.396-2.8.398-3.397.803-7 1-10.397.2.198.604.397 1 .6v6.8c.2.602.398 1.2 1 1.2.398 0 1-1 1.2-1.6l-1.2-6.2c.2-.4.604-.603 1-.8.398 1.6.604 3.397 1.398 5.198.4 1 3.602 4.4 4.602 4.4h1.398c0-.2.2-.2.2-.602 0-1.602-3.8-2.8-4.397-3.8-1.397-2-3.2-5.8-3.2-6.4 0-.397.2-1.397.398-2 .206.8.606 1.8 1.206 2.6zm-169.6-.2c.8.8 2.2 1.8 3.4 2.8.8.602 5.6 6.8 5.6 8.8 0 .603-.8 1-1.2 1-2.4 0-5.8-3-8-2.6-.4 1-1 2-1.2 3-.4 1-.8 8.6-5 8.6-1 0-2.4-2.8-2.4-3.197v-7.803l2.8-12.197c.4.6 1 1.197 1 1.6 0 0-2.6 11.603-2.6 13.802 0 .397 0 2 1 2.6 1.4-2 .8-5 1.4-7.2l.6-8.6c.2.2.6.397 1 .6v5.602c.4.8 0 2.398 1 2.398.8 0 1.4-1.2 1.4-1.6s-1-4-1.4-6.4c.2 0 .6-.2 1-.398.4 1.8 1 3.8 1.8 5.602.2.398 3.8 3.8 5 3.8.4 0 .6-.198 1-.603-.8-2.197-3.2-2.197-4.8-4.197-1.2-1.602-2-3.398-3-5.2l.2-3c.2.79.6 1.79 1.4 2.79zm136.802-.4c1.602 1.397 3.8 2.8 5.398 4.6 1 .8 4.2 5 4.2 6.602 0 .8-1.2 1-1.4 1-2.4 0-6-2.2-7.8-2.2-.398.803-1 1.603-1 2.803-.398 2.398-1.2 9-4.6 9-2 0-2.8-3.803-2.8-4.602v-8.602l2-10c.397.602 1.197 1.2 1.197 1.8 0 .4-2 12.2-2 12.8 0 .8-.197 3.398 1 3.398s.803-4 1.2-4.8v-11c0 .4.8.4 1 .6.2 2.2.2 8 1.603 8 .8 0 1.197-1.2 1.197-1.6s-1.6-5.6-1.6-6.2c0-.398.398-.398.8-.8.603 1.8 1.2 3.8 2.2 5.6 0 0 3.8 3.4 4.398 3.4h1.398c.2-.2.2-.2.2-.6 0-1.603-3-2.4-3.2-2.603-2.6-2-5-5.802-5.2-8.2l.2-1.198c.408.8.808 1.8 1.6 2.8zM97.5 95.715c-2.4 0-5.2-2.2-7.6-1.8-.4.8-1 1.602-1 2.8-.2 2.6-.6 9.2-4.2 9.2-2.2 0-3-4.398-3-4.8 0-2-.2-4.2-.4-6.398l1.6-12c.2.398 1.2 1 1.2 1.6l-1.4 12.4c.2 1.6-.4 3 1.4 4.2.2 0 .4-.398.4-.6v-15.6c.4.4 1 .4 1 1 0 .4.4 4.6.8 6.8 0 .4.4.8 1 .8s1-.8 1.2-1.398l-2-6.2c.2-.197.6-.398.8-.8.8 1.8 1.2 3.8 2.8 5.8 1 1.4 3.6 2.803 4.2 2.803h1.6c0-.2.2 0 .2-.604 0-.396-.8-1.2-1.2-1.396-1-.604-2.2-.803-3-1.604-2-1.602-3.8-4.2-4.8-6-.6-1-.4-2.2-.4-3.2 0 0 0-.197-.2-.398.6 2.6 4.6 5.2 7.2 7 1.4 1.398 5.2 5.6 5.2 7.2 0 .995-.8 1.194-1.4 1.194zm68.4-.4c-.4 0-6-1.8-6.604-1.8-2 0-1.602 3.6-1.8 4.6 0 1.4-.2 3-.603 4.6-.2 1-2.2 3.2-3.2 3.2-3.198 0-3.6-8.398-3.6-9v-4.8l1.198-9.398c.4.6 1.2 1.2 1.2 1.6l-1 11.803c-.2 1.8-.2 3.398 1.4 4.8.197 0 .396-.397.6-.603v-6.397l-.6-9.2c.396.2.8.4 1 .802.197.8.396 1.8.396 2.8.2 1.2.2 5 1.604 5 .8 0 1.197-1.2 1.197-1.603 0-.397-2-5.397-2-6 0-.397.602-.6.803-1 .6 1.802 1.197 4 2.8 5.802 1 1.198 3.6 2.6 4.2 2.6h1.6c0-.2.2-.2.2-.6 0-1.4-3.602-2.4-3.8-2.603-2.802-1.603-4-4-5.4-6.2-.6-1.198-.398-2.397-.8-3.6 1 1.197 1.8 2.6 3 3.8 1.4 1 3 1.8 4.6 3.2 1 1 5.4 5.398 5.4 7.197.01.8-1.59 1-1.79 1zm-40.8-12c1.2 1 3 1.8 4.4 2.6 1 .8 6.2 5.2 6.2 7 0 1-1.6 1-2 1-.6 0-5.8-1.2-6.4-1.2-1.4 0-1.4 2.2-1.4 2.8v6c-.2 1-1.8 4-3.4 4-1.4 0-2.8-2.2-3-3-.6-2.602-1-5.398-1.4-8l.4-12.2c.4.603 1.2 1.2 1.2 1.803v12.6c.4 1.2.2 2.4 1.4 3.802h.8V96.72l-1.8-12.198c.6 0 1 .198 1.2.6.6.8 1 7.6 2.4 7.6.8 0 1.2-1.6 1.4-1.6l-2.6-5.6c.2-.2.4-.4.4-.802 0-.6-1.2-3.8-1.8-5.8 1.2 1.396 2.2 2.996 4 4.396z"/><path fill="#f3d2af" d="M252.917 86.636l.6 5.8c0 1-.397 1.603-1.2 1.603-.602 0-.8-.802-.8-1.2 0-.603.4-4.198.603-6.198l.796-.006zm-238 0l.6 5.8c0 1-.4 1.603-1.2 1.603-.6 0-.8-.802-.8-1.2 0-.603.4-4.198.6-6.198l.8-.006zm205.4-.402c.2 2 1.2 5.8 1.2 6.2 0 .6-1 1.397-1.2 1.397-.603 0-.603-.2-.8-.603v-7h.8v.005zm-169.8-.2l1.4 6.2c0 .8-.4 1.398-1.2 1.398-.6 0-.8-.8-.8-1v-6.6l.6.004zm137-.2l1.8 6.2c-.398.6-.602 1.4-1.198 1.4-1.2 0-1.2-4.803-1.2-5.2v-2.398h.597zm60.4 15h-.6c-.4-.602-.4-1.4-.4-1.8 0-4 2.4-9.8 3.6-13.6 0 0 .2 0 .4.197-1 4.602-1.6 10.403-3 15.204zm-93.2-15.4c.8 2 2.4 5.603 2.4 6 0 1-1 1.603-1.2 1.603-1.4 0-1.6-5.802-1.8-7.603h.6zm-67.4 7.798c-1.4 0-1.6-7-1.6-7.8 1.2 0 1 2 1.6 3 .4 1 1.2 2.8 1.2 3.197 0 1.004-1 1.602-1.2 1.602zm-77.4 7.602h-.6c-.4-.602-.4-1.4-.4-1.8 0-4 2.4-10 3.6-13.4 0 0 .2-.2.4 0-1 4.598-1.6 10.4-3 15.2zm246.6-9.8c1 1.4 2.8 2.6 4.2 4v.6c-.2.2-.2.2-.8.2-1.2 0-3.6-2.4-4.2-3.4-1-2-1.6-5.6-1.6-6v-1.2c.6 1.798 1.2 3.798 2.4 5.798zm-38.4-4c-.602 4.4-.8 9.2-1.8 13.8h-.603c-.397-.602-.6-1.602-.6-2 0-3.8 2.398-11.2 3-13.602l.005 1.8zm-199.6 4c1 1.4 2.8 2.6 4.2 4v.6c-.2.2-.2.2-.8.2-1.2 0-3.6-2.4-4.2-3.4-1-2-1.6-5.6-1.6-6v-1.2c.6 1.798 1.2 3.798 2.4 5.798zm210.2 3.8h-1.6c-5-2.4-4.8-6.4-5.8-9.602l2.8 5c1.398 1.398 3 2.398 4.6 3.8v.8zm-104.8-2.4c-1.4 0-2.4-6.6-2.4-7.2h.6c1 2 2.8 5.4 2.8 5.802 0 .597-.4 1.397-1 1.397zm-64.6 2.2h-1.4c-4.6-2-5.4-6.4-6.2-9.4 1 1.4 2 3.2 3 5 1.4 1.2 3 2.2 4.6 3.603v.796zm-12.2 6.2h-.6c-.8-.602-.6-2.2-.6-2.602 0-2.8 2.2-12.398 2.6-13.2-.6 8.2-.6 10.4-1.4 15.8zm148.6-6.8c-1.2 0-4.398-2.8-5-3.6-1-1.803-1.398-3.603-2-5.4.8 1 1.8 2.6 2.8 4.2 1.603 2.398 4 2 5.2 4.2-.2.4-.4.6-1 .6zm-10.4-9.2c.2 2 0 4.2-.2 10-.2 3 0 4.398-.2 5.8 0 0 0 .2-.4.2-.8 0-1-1.602-1-1.602v-4l1.4-10.602.4.204zm-32 7.6v8s0 .2-.4.2c-1 0-1.2-2-1.2-2.2v-5c.4-3 .602-6.2 1-9l.6 8zm-69 8c0 .2.2.2-.4.2-1 0-1-2.4-1-2.4V94.84l1.4-10.397v15.993zm7.4-10.6c1 1 3.4 1.398 4.2 2.8v.6h-1.8c-1.2-.8-3-1.397-4-2.8-1.4-1.6-2.6-5.2-2.6-5.6v-.602c.8 1.602 2.2 4 4.2 5.602zm68.4-.4c1 1 2.6 1.4 4 2.2.2 0 .398.6.398 1-.2.2-.398.4-1 .4-1 0-4.802-2.6-5-3-.802-1.2-1.602-2.6-2-3.8 0-.398-.602-1.2-.602-1.602v-.6c1.204 1.805 2.403 4.004 4.204 5.405zm-38.2 10.6c-.2.2-.2.2-.6.2-1.6 0-1.6-6.398-1.6-6.602v-9.8l2.2 16.203zm6-11.4c1.4 1 3.2.8 4.6 2.6-.6.4-1.2.603-1.2.603-3.8 0-7.6-5.397-8.2-8.397 1.2 1.393 3 4.193 4.8 5.193z"/><path fill="#fff" d="M254.8 5.2c5.2 7.6 7.4 17.8 7.4 26l-.2 7c-.6 6.6-1.2 13.2-2.8 19.8-1.2 5-2.6 10.2-3.6 15.602C255 77 254.8 81 254.2 84.8c-.2 1.4-1.2 2-2.2 2-1.2 0-2-3.198-2-3.4 0-.6-.6-1.8-.6-2.6 0-12.8-6.8-26.6-7.8-39.2 0-1.4-.4-4.2-.4-4.6V23.6c.4-6 1.6-12 5.4-18-1-1-2.2-2.4-2.603-3.4v-.6c.8 1 2.603 3.2 3.2 3.2.398 0 1.8-1.4 2.8-1.6h.8c1.2 0 1.604.6 3.4 1.4 1-1 2.197-2.2 3-3.2C257 2.2 256 4.2 254.8 5.2zm-41.6-.4c1.8-1 2.6-1.6 3.6-1.6 1.4 0 2.4 1.2 3.2 1.2.4 0 2.2-2 2.8-3 0 2-2 3.2-2 3.8s2.2 3.4 3 5.4c3 6.4 4.4 14 4.4 20.6 0 .4.2 1.8-.2 6.6-.6 5.8-.8 12.2-2.398 18.4C223.8 63.6 221.8 71 221.4 78.4c-.4 3.2.2 4.396.2 5 0 1-.4 2.8-1.804 2.8-3.397 0-3.8-7.6-4-8.4-1-4.198-1.6-8.8-2.8-13-2-7.8-5.8-20.4-5.8-28.6V24.4c.198-1.2.198-2.6.397-3.8.4-3.4 1.2-7.2 2.603-10.6.6-1.4 2.397-4 2.397-4.4 0-.6-2.397-3.2-2.397-3.6v-.6C211 2.4 212 3.6 213.2 4.8zm-196.4.4c5.4 8.2 7.4 17.4 7.4 25.6L24 38c-.2 3-.8 6.2-1 9.4-.2 2.4-.6 5.2-1.2 7.8-.8 3.6-1.8 7.2-2.6 10.8-.8 3-1.6 6.602-2 10-.2 1.602-.6 3.8-.6 5.8 0 1.2-.2 5-2.6 5-1.2 0-2-3.198-2-3.4 0-.6-.6-1.8-.6-2.6 0-13-6.8-26-7.8-39 0-1.6-.4-4.4-.4-4.8V23.6c.4-6 1.6-12 5.4-18-1-1-2.2-2.4-2.6-3.4v-.6c.8 1 2.6 3.2 3.2 3.2.4 0 1.8-1.4 2.8-1.6h.8c1.2 0 2 .2 3.4 1.4 1-1 2.2-2.2 3-3.2-.2.8-1.2 2.8-2.4 3.8zm34 0c0 .4 2.2 3.4 2.8 5 .8 1.6 4.4 12.6 4.4 16.2V37c-.4 5.8-1 11.4-2 17-1.2 7-4.4 17.4-4.4 25 0 .602.4 3.8.4 4.4 0 .396-.4 2.8-1.2 2.8-3.8 0-4.4-6.8-4.8-8.4-.4-2.4-1-5.198-1.6-7.6-1.4-5.8-3.4-11.6-4.8-17.4-1.2-5-2.4-12.4-2.4-17.6v-9.6c.2-1.4.2-3 .4-4.6.4-3.4 1.2-7.8 2.6-11 .6-1.4 2.4-4 2.4-4.4 0-.2-2.4-2.6-2.2-4.2.6 1 1.6 2.2 2.8 3.4 1.8-1 2.6-1.6 3.6-1.6 1.4 0 2.4 1.2 3.2 1.2.4 0 2-2 2.8-3.2 0 2-2 3.2-2 4zm132.2-2c1 0 2 .2 3 1.4 1-1.2 2-2.4 2.602-3.6 0 1.4-1 2.8-2 4.2.8 1 1.602 2 2 3C193 17.6 194 23 194 32c0 10-1.398 20.6-4 31-.6 2.2-1 5-1.398 7.602-.402 2.198-.602 7-.602 7.398 0 .602.8 5.602.8 6.2 0 .2-.198 1.8-1 1.8-3.6 0-4.8-6-5.198-7.398-.398-1.802-1-4-1.398-5.602-1.2-5.2-2.803-10.8-4.398-16-.602-2.2-1.398-4.6-1.802-6.8-.8-3.8-1.603-11.2-1.603-11.6V22.8c.2-1 .4-2.2.4-3.2.4-3.2 1.2-6.6 2.4-9.6.4-1.4 2.4-4 2.4-4.4 0-.6-1.2-1.4-1.603-2.2-.396-.6-.396-1.4-.598-2.4.6 1 1.6 2.4 2.8 3.8 1.6-1 2.403-1.6 3.8-1.6zm-34 0c1 0 1.8.6 3 1.2.8-1 1.602-2.2 2.2-3.2 0 0 .2-.2.2.4 0 .4-1 2.4-1.8 3.6.8 1 1.6 2 2.197 3.4 1.4 2.6 2.2 5.8 3.2 8.8 1.2 4.4 2 10 2 14.4l-.2 8c-.8 5-.8 11.2-2.197 16.4-1.603 6.4-3 13.4-3 20.2 0 4.2 1 4.2 1 7.6 0 .602.397.4.397.8 0 .6-.2.4-.2.802H154.6c-1.4-.202-2.4-1.4-3.2-2.602s-1.4-2.6-1.8-3.8c-3.603-12.6-9.2-26.2-10-38.6 0-1-.2-2.6-.2-3v-14c.2-1.2.2-2.4.396-3.6.2-.8.398-1.8.398-2.8.602-2.2 1-4.6 1.802-6.6.603-1.8 2.603-4.6 2.603-5 0-.6-1.603-3-2-4.4.8 1 1.8 2.4 2.8 3.6.6-1 2.6-1.6 3.6-1.6zM77.4 4.8c.6-1 2.6-1.6 3.6-1.6 1.2 0 2.4 1.2 2.8 1.2.6 0 2-2.2 2.6-3.4 0 1.4-1 2.8-1.8 4.2.8 1 1.6 2 2.2 3.4 4.2 8.8 5.2 15 5.2 23.2l-.2 8c-.4 5-1 10.2-2 15.4l-2 8.8c-.8 3.8-1.4 8.602-1.4 12.8 0 2.6-.2 2.6.6 5.4 0 .4.4.6.4 1.2v2.2c-2.6 1-5-3.2-5.6-5-3.4-11.2-7.2-22.4-9.4-33.6-.6-2.8-1-8.2-1-8.6V22.8c.2-1 .4-2.2.4-3.2.2-1.4.4-3.2.8-4.4.4-2 1-4 1.8-5.6.4-1.2 2.2-3.6 2.2-4 0-.6-2-3.4-2-3.8v-1c0 1 1.6 2.6 2.8 4zm34 0c.6-1 2.6-1.6 3.6-1.6.8 0 1.2 0 2.8 1.2 1-1.2 1.8-2.4 2.2-3.6 0 0 .2-.2.2.4 0 1.2-1.6 3-1.6 3.8 0 .6.6.8.6 1 1 1.4 1.8 2.8 2.4 4.4C125 18 126 24.4 126 32l-.2 7c-.4 5.4-.8 10.8-2 16.2-1.4 6.6-2.8 13.4-2.8 19.8 0 4.602.2 4 2.2 10-.2.2-.2.4-.6.4-5.2 0-9-13.4-9.4-14.4-2-6.398-4.4-12.8-5.8-19.2-1-4.4-2-10.4-2-15V24.4c.2-1.2.2-2.6.4-4 .2-1 .4-2.2.4-3.2.6-2.4 1.2-5.2 2.2-7.6.4-1.4 2.4-3.6 2.4-4 0-.6-1.8-3-1.8-3.4V.6c.6 1.4 1.4 2.8 2.4 4.2z"/><defs><path id="A" d="M16.8 5c5.4 7.8 7.4 17.6 7.4 25.6l-.2 7.2c-.6 5.4-1 11.4-2.2 17.2-.6 3.8-1.8 7.8-2.8 11.602-.6 2.8-1.4 6-1.8 9-.4 1.798-.6 4.198-.6 6.198 0 1-.2 4.802-2.6 4.802-1.2 0-2-3.2-2-3.398 0-.602-.6-1.803-.6-2.602-.2-12.2-6-25.398-7.6-37.398l-.6-6.4V23.4c.4-6 1.6-12 5.4-18C7.6 4.4 6.4 3 6 2v-.6c.8 1 2.6 3.2 3.2 3.2.4 0 1.8-1.4 2.8-1.6h.8c1.2 0 2 .2 3.4 1.4 1-1 2.2-2.2 3-3.2C19 2 18 4 16.8 5z"/><path id="B" d="M24.57 33.472s-5.5-3.535-7.25 0 .25 6.953-.583 7.953-3.083 3.42-3.417 5.626 2.667 6.207 6.167 6.124 7.083-8.124 7.083-8.124 5.083-13.45-2-11.58z"/><path id="C" d="M20.744 66.092s-6.226-3.334-7.45 1.334-3.938 5.25-.54 7.416 6.916 1.5 8-1.75.001-7 .001-7z"/><path id="D" d="M160.568 33.472s-5.5-3.535-7.25 0 .25 6.953-.582 7.953-3.084 3.42-3.418 5.626 2.668 6.207 6.168 6.124 7.082-8.124 7.082-8.124 5.084-13.45-2-11.58z"/><path id="E" d="M156.744 66.092s-6.227-3.334-7.45 1.334-3.938 5.25-.54 7.416 6.916 1.5 7.99-1.75.002-7 .002-7z"/><path id="F" d="M165.818 23.8s9.188-7.833 10.97-6.458 2.28 4.06 3.53 4.78 4.402-1.72 4.95 0 4.21 4.803 1.88 8.137-2.168 10.484-12.188 9.472-14.017-10.097-9.142-15.93z"/></defs><clipPath id="G"><use xlink:href="#A"/></clipPath><g clip-path="url(#G)"><g class="B"><path d="M-4.18 23.8s9.188-7.833 10.97-6.458 2.28 4.06 3.53 4.78 4.402-1.72 4.95 0 4.21 4.803 1.88 8.137S14.98 40.74 4.962 39.73-9.056 29.632-4.18 23.8z"/><ellipse cx="20.744" cy="50.389" rx="8.624" ry="10.562"/><ellipse cx="4.349" cy="65.187" rx="8.405" ry="8.78"/></g><g class="C"><ellipse cx="3.602" cy="37.257" rx="6.7" ry="7"/><use xlink:href="#B"/><use xlink:href="#C"/><ellipse cx="9.436" cy="59.615" rx="2.95" ry="3.209"/></g></g><defs><path id="H" d="M16.8 5c5.4 7.8 7.4 17.6 7.4 25.6l-.2 7.2c-.6 5.4-1 11.4-2.2 17.2-.6 3.8-1.8 7.8-2.8 11.602-.6 2.8-1.4 6-1.8 9-.4 1.798-.6 4.198-.6 6.198 0 1-.2 4.802-2.6 4.802-1.2 0-2-3.2-2-3.398 0-.602-.6-1.803-.6-2.602-.2-12.2-6-25.398-7.6-37.398l-.6-6.4V23.4c.4-6 1.6-12 5.4-18C7.6 4.4 6.4 3 6 2v-.6c.8 1 2.6 3.2 3.2 3.2.4 0 1.8-1.4 2.8-1.6h.8c1.2 0 2 .2 3.4 1.4 1-1 2.2-2.2 3-3.2C19 2 18 4 16.8 5z"/></defs><clipPath id="I"><use xlink:href="#H"/></clipPath><g clip-path="url(#I)" class="D"><ellipse transform="matrix(.9994 -.0336 .0336 .9994 -.3585 .6065)" cx="17.87" cy="10.972" rx=".378" ry="1.199"/><ellipse transform="matrix(.9995 -.0323 .0323 .9995 -.3611 .2727)" cx="8.265" cy="11.319" rx=".378" ry="1.198"/></g><g class="D"><ellipse transform="matrix(.9994 -.0342 .0342 .9994 -.3452 1.7825)" cx="51.87" cy="10.97" rx=".378" ry="1.199"/><ellipse transform="matrix(.9995 -.0323 .0323 .9995 -.3436 1.3712)" cx="42.265" cy="11.32" rx=".378" ry="1.198"/></g><defs><path id="J" d="M50.8 5.2c0 .4 2.2 3.4 2.8 5 .8 1.6 4.4 12.6 4.4 16.2V37c-.4 5.8-1 11.4-2 17-1.2 7-4.4 17.4-4.4 25 0 .602.4 3.8.4 4.4 0 .396-.4 2.8-1.2 2.8-3.8 0-4.4-6.8-4.8-8.4-.4-2.4-1-5.198-1.6-7.6-1.4-5.8-3.4-11.6-4.8-17.4-1.2-5-2.4-12.4-2.4-17.6v-9.6c.2-1.4.2-3 .4-4.6.4-3.4 1.2-7.8 2.6-11 .6-1.4 2.4-4 2.4-4.4 0-.2-2.4-2.6-2.2-4.2.6 1 1.6 2.2 2.8 3.4 1.8-1 2.6-1.6 3.6-1.6 1.4 0 2.4 1.2 3.2 1.2.4 0 2-2 2.8-3.2 0 2-2 3.2-2 4z"/></defs><clipPath id="K"><use xlink:href="#J"/></clipPath><g clip-path="url(#K)"><g class="B"><path d="M29.82 23.8s9.188-7.833 10.97-6.458 2.28 4.06 3.53 4.78 4.402-1.72 4.95 0 4.21 4.803 1.88 8.137S48.98 40.74 38.962 39.73 24.944 29.632 29.82 23.8z"/><ellipse cx="54.744" cy="50.389" rx="8.624" ry="10.562"/><ellipse cx="38.349" cy="65.187" rx="8.405" ry="8.78"/></g><g class="C"><ellipse cx="37.602" cy="37.257" rx="6.7" ry="7"/><use xlink:href="#B" x="34"/><use xlink:href="#C" x="34"/><ellipse cx="43.436" cy="59.615" rx="2.95" ry="3.209"/></g></g><g class="D"><ellipse transform="matrix(.9994 -.0336 .0336 .9994 -.32 2.891)" cx="85.87" cy="10.969" rx=".378" ry="1.199"/><ellipse transform="matrix(.9995 -.0323 .0323 .9995 -.3259 2.4696)" cx="76.265" cy="11.321" rx=".378" ry="1.198"/></g><defs><path id="L" d="M77.4 4.8c.6-1 2.6-1.6 3.6-1.6 1.2 0 2.4 1.2 2.8 1.2.6 0 2-2.2 2.6-3.4 0 1.4-1 2.8-1.8 4.2.8 1 1.6 2 2.2 3.4 4.2 8.8 5.2 15 5.2 23.2l-.2 8c-.4 5-1 10.2-2 15.4l-2 8.8c-.8 3.8-1.4 8.602-1.4 12.8 0 2.6-.2 2.6.6 5.4 0 .4.4.6.4 1.2v2.2c-2.6 1-5-3.2-5.6-5-3.4-11.2-7.2-22.4-9.4-33.6-.6-2.8-1-8.2-1-8.6V22.8c.2-1 .4-2.2.4-3.2.2-1.4.4-3.2.8-4.4.4-2 1-4 1.8-5.6.4-1.2 2.2-3.6 2.2-4 0-.6-2-3.4-2-3.8v-1c0 1 1.6 2.6 2.8 4z"/></defs><clipPath id="M"><use xlink:href="#L"/></clipPath><g clip-path="url(#M)"><g class="B"><path d="M63.82 23.8s9.188-7.833 10.97-6.458 2.28 4.06 3.53 4.78 4.402-1.72 4.95 0 4.21 4.803 1.88 8.137S82.98 40.74 72.962 39.73 58.944 29.632 63.82 23.8z"/><ellipse cx="88.744" cy="50.389" rx="8.624" ry="10.562"/><ellipse cx="72.349" cy="65.187" rx="8.405" ry="8.78"/></g><g class="C"><ellipse cx="71.602" cy="37.257" rx="6.7" ry="7"/><use xlink:href="#B" x="68"/><use xlink:href="#C" x="68"/><ellipse cx="77.436" cy="59.615" rx="2.95" ry="3.209"/></g></g><g class="D"><ellipse transform="matrix(.9994 -.0342 .0342 .9994 -.3053 4.1108)" cx="119.87" cy="10.968" rx=".378" ry="1.199"/><ellipse transform="matrix(.9995 -.0329 .0329 .9995 -.3132 3.6393)" cx="110.265" cy="11.322" rx=".378" ry="1.198"/></g><defs><path id="N" d="M111.4 4.8c.6-1 2.6-1.6 3.6-1.6.8 0 1.2 0 2.8 1.2 1-1.2 1.8-2.4 2.2-3.6 0 0 .2-.2.2.4 0 1.2-1.6 3-1.6 3.8 0 .6.6.8.6 1 1 1.4 1.8 2.8 2.4 4.4C125 18 126 24.4 126 32l-.2 7c-.4 5.4-.8 10.8-2 16.2-1.4 6.6-2.8 13.4-2.8 19.8 0 4.602.2 4 2.2 10-.2.2-.2.4-.6.4-5.2 0-9-13.4-9.4-14.4-2-6.398-4.4-12.8-5.8-19.2-1-4.4-2-10.4-2-15V24.4c.2-1.2.2-2.6.4-4 .2-1 .4-2.2.4-3.2.6-2.4 1.2-5.2 2.2-7.6.4-1.4 2.4-3.6 2.4-4 0-.6-1.8-3-1.8-3.4V.6c.6 1.4 1.4 2.8 2.4 4.2z"/></defs><clipPath id="O"><use xlink:href="#N"/></clipPath><g clip-path="url(#O)"><g class="B"><path d="M97.82 23.8s9.188-7.833 10.97-6.458 2.28 4.06 3.53 4.78 4.402-1.72 4.95 0 4.21 4.803 1.88 8.137-2.168 10.484-12.187 9.472S92.944 29.632 97.82 23.8z"/><ellipse cx="122.744" cy="50.389" rx="8.624" ry="10.562"/><ellipse cx="106.349" cy="65.187" rx="8.405" ry="8.78"/></g><g class="C"><ellipse cx="105.602" cy="37.257" rx="6.7" ry="7"/><use xlink:href="#B" x="102"/><use xlink:href="#C" x="102"/><ellipse cx="111.436" cy="59.615" rx="2.95" ry="3.209"/></g></g><g class="D"><ellipse transform="matrix(.9994 -.0336 .0336 .9994 -.2817 5.1788)" cx="153.872" cy="10.966" rx=".378" ry="1.199"/><ellipse transform="matrix(.9995 -.0331 .0331 .9995 -.2955 4.775)" cx="144.264" cy="11.323" rx=".377" ry="1.198"/></g><defs><path id="P" d="M149 3.2c1 0 1.8.6 3 1.2.8-1 1.602-2.2 2.2-3.2 0 0 .2-.2.2.4 0 .4-1 2.4-1.8 3.6.8 1 1.6 2 2.197 3.4 1.4 2.6 2.2 5.8 3.2 8.8 1.2 4.4 2 10 2 14.4l-.2 8c-.8 5-.8 11.2-2.197 16.4-1.603 6.4-3 13.4-3 20.2 0 4.2 1 4.2 1 7.6 0 .602.397.4.397.8 0 .6-.2.4-.2.802H154.6c-1.4-.202-2.4-1.4-3.2-2.602s-1.4-2.6-1.8-3.8c-3.603-12.6-9.2-26.2-10-38.6 0-1-.2-2.6-.2-3v-14c.2-1.2.2-2.4.396-3.6.2-.8.398-1.8.398-2.8.602-2.2 1-4.6 1.802-6.6.603-1.8 2.603-4.6 2.603-5 0-.6-1.603-3-2-4.4.8 1 1.8 2.4 2.8 3.6.6-1 2.6-1.6 3.6-1.6z"/></defs><clipPath id="Q"><use xlink:href="#P"/></clipPath><g clip-path="url(#Q)"><g class="B"><path d="M131.82 23.8s9.188-7.833 10.97-6.458 2.28 4.06 3.53 4.78 4.402-1.72 4.95 0 4.21 4.803 1.88 8.137-2.168 10.484-12.188 9.472-14.016-10.097-9.14-15.93z"/><ellipse cx="156.744" cy="50.389" rx="8.623" ry="10.562"/><ellipse cx="140.35" cy="65.187" rx="8.404" ry="8.78"/></g><g class="C"><ellipse cx="139.602" cy="37.257" rx="6.7" ry="7"/><use xlink:href="#D"/><use xlink:href="#E"/><ellipse cx="145.436" cy="59.615" rx="2.951" ry="3.209"/></g></g><g class="D"><ellipse transform="matrix(.9995 -.033 .033 .9995 -.2594 6.2002)" cx="187.872" cy="10.964" rx=".378" ry="1.199"/><ellipse transform="matrix(.9995 -.0324 .0324 .9995 -.2734 5.7832)" cx="178.264" cy="11.325" rx=".377" ry="1.198"/></g><defs><path id="R" d="M183 3.2c1 0 2 .2 3 1.4 1-1.2 2-2.4 2.602-3.6 0 1.4-1 2.8-2 4.2.8 1 1.602 2 2 3C193 17.6 194 23 194 32c0 10-1.398 20.6-4 31-.6 2.2-1 5-1.398 7.602-.402 2.198-.602 7-.602 7.398 0 .602.8 5.602.8 6.2 0 .2-.198 1.8-1 1.8-3.6 0-4.8-6-5.198-7.398-.398-1.802-1-4-1.398-5.602-1.2-5.2-2.803-10.8-4.398-16-.602-2.2-1.398-4.6-1.802-6.8-.8-3.8-1.603-11.2-1.603-11.6V22.8c.2-1 .4-2.2.4-3.2.4-3.2 1.2-6.6 2.4-9.6.4-1.4 2.4-4 2.4-4.4 0-.6-1.2-1.4-1.603-2.2-.396-.6-.396-1.4-.598-2.4.6 1 1.6 2.4 2.8 3.8 1.6-1 2.403-1.6 3.8-1.6z"/></defs><clipPath id="S"><use xlink:href="#R"/></clipPath><g clip-path="url(#S)"><g class="B"><use xlink:href="#F"/><ellipse cx="190.744" cy="50.389" rx="8.623" ry="10.562"/><ellipse cx="174.35" cy="65.187" rx="8.404" ry="8.78"/></g><g class="C"><ellipse cx="173.602" cy="37.257" rx="6.7" ry="7"/><use xlink:href="#D" x="34"/><use xlink:href="#E" x="34"/><ellipse cx="179.436" cy="59.615" rx="2.951" ry="3.209"/></g></g><g class="D"><ellipse transform="matrix(.9994 -.0336 .0336 .9994 -.243 7.455)" cx="221.872" cy="10.963" rx=".378" ry="1.199"/><ellipse transform="matrix(.9995 -.0324 .0324 .9995 -.2556 6.8851)" cx="212.264" cy="11.326" rx=".377" ry="1.198"/></g><defs><path id="T" d="M213.2 4.8c1.8-1 2.6-1.6 3.6-1.6 1.4 0 2.4 1.2 3.2 1.2.4 0 2.2-2 2.8-3 0 2-2 3.2-2 3.8s2.2 3.4 3 5.4c3 6.4 4.4 14 4.4 20.6 0 .4.2 1.8-.2 6.6-.6 5.8-.8 12.2-2.398 18.4C223.8 63.6 221.8 71 221.4 78.4c-.4 3.2.2 4.396.2 5 0 1-.4 2.8-1.804 2.8-3.397 0-3.8-7.6-4-8.4-1-4.198-1.6-8.8-2.8-13-2-7.8-5.8-20.4-5.8-28.6V24.4c.198-1.2.198-2.6.397-3.8.4-3.4 1.2-7.2 2.603-10.6.6-1.4 2.397-4 2.397-4.4 0-.6-2.397-3.2-2.397-3.6v-.6C211 2.4 212 3.6 213.2 4.8z"/></defs><clipPath id="U"><use xlink:href="#T"/></clipPath><g clip-path="url(#U)"><g class="B"><use xlink:href="#F" x="34"/><ellipse cx="224.744" cy="50.389" rx="8.623" ry="10.562"/><ellipse cx="208.35" cy="65.187" rx="8.404" ry="8.78"/></g><g class="C"><ellipse cx="207.602" cy="37.257" rx="6.7" ry="7"/><use xlink:href="#D" x="68"/><use xlink:href="#E" x="68"/><ellipse cx="213.436" cy="59.615" rx="2.951" ry="3.209"/></g></g><g class="D"><ellipse transform="matrix(.9995 -.0329 .0329 .9995 -.2222 8.4313)" cx="255.872" cy="10.961" rx=".378" ry="1.199"/><ellipse transform="matrix(.9995 -.0324 .0324 .9995 -.2376 7.9766)" cx="246.264" cy="11.327" rx=".377" ry="1.198"/></g><defs><path id="V" d="M254.8 5.2c5.2 7.6 7.4 17.8 7.4 26l-.2 7c-.6 6.6-1.2 13.2-2.8 19.8-1.2 5-2.6 10.2-3.6 15.602C255 77 254.8 81 254.2 84.8c-.2 1.4-1.2 2-2.2 2-1.2 0-2-3.198-2-3.4 0-.6-.6-1.8-.6-2.6 0-12.8-6.8-26.6-7.8-39.2 0-1.4-.4-4.2-.4-4.6V23.6c.4-6 1.6-12 5.4-18-1-1-2.2-2.4-2.603-3.4v-.6c.8 1 2.603 3.2 3.2 3.2.398 0 1.8-1.4 2.8-1.6h.8c1.2 0 1.604.6 3.4 1.4 1-1 2.197-2.2 3-3.2C257 2.2 256 4.2 254.8 5.2z"/></defs><clipPath id="W"><use xlink:href="#V"/></clipPath><g clip-path="url(#W)"><g class="B"><use xlink:href="#F" x="68"/><ellipse cx="258.744" cy="50.389" rx="8.623" ry="10.562"/><ellipse cx="242.35" cy="65.187" rx="8.404" ry="8.78"/></g><g class="C"><ellipse cx="241.602" cy="37.257" rx="6.7" ry="7"/><use xlink:href="#D" x="102"/><use xlink:href="#E" x="102"/><ellipse cx="247.436" cy="59.615" rx="2.951" ry="3.209"/></g></g></svg>