<svg xmlns="http://www.w3.org/2000/svg" width="210" height="16"><path fill="#f7f7f7" d="M11.4 8c-1 .8-2.6 2-3.2 2-.4 0-.8-.4-1-.6 1.4-.6 2.8-1 4.2-1.4zM55 8c-1.6 1.2-1.6 2.2-2.8 2.2-.6 0-.8-.2-1-.2 1-1 3-1.8 3.8-2zm112 0c-1.398 1.2-1.8 2.2-2.8 2.2-.6 0-.8-.2-1-.2 1-1 3-1.8 3.8-2zm40.4 0c-1 .8-2.6 2-3.2 2-.4 0-.8-.398-1-.6 1.402-.6 2.8-1 4.2-1.4zM26.2 7.8c-1.4.802-2 2.2-3.2 2.2-.6 0-.8-.2-1-.2.6-1 2.8-1.4 4.2-2zm14.6 0c-1 .8-2.6 2.4-3.198 2.4-.4 0-.802-.2-1-.2 1.4-1.6 3-1.6 4.198-2.2zm140.002 0c-1 .8-2.6 2.4-3.2 2.4-.4 0-.8-.2-1-.2 1.2-1.398 2.798-1.6 4.2-2.2zm13.4 0c-1.4.802-2 2.2-3.2 2.2-.6 0-.8-.2-1-.2 1.2-1.4 2.8-1.4 4.2-2zM39.8 4.4C38.6 5.2 35.2 9 33.6 9c-.2 0-1-.4-1.4-.8L39.8 4.4zm29 .001c-.6.6-4.398 5.2-6 5.2-.6 0-1-.2-1.398-.602L68.8 4.4zm84.002 0c-.6.6-4.4 5.2-6 5.2-.6 0-1-.2-1.4-.602l7.4-4.6zm27-.001c-1.2.8-4.6 4.6-6.2 4.6-.2 0-1-.398-1.4-.8l7.6-3.8zM11 4.2c-.2 0-5.4 4.4-6.6 4.4-.6.001-1-.4-1.4-.6v-.6l8-3.2zM25.6 4.2c-.2.2-5.2 4.6-6.6 4.6-.2 0-1-.6-1.4-1l8-3.6zm29 .001c-.8.8-5 5.2-6.4 5.2-.4 0-1.2-.4-1.4-.8 2.4-1.6 5.2-3 7.8-4.4zm112.002 0c-.8.8-5 5.2-6.4 5.2-.4 0-1.2-.4-1.4-.8 2.397-1.6 5.197-3 7.8-4.4zm27-.001c-.202.2-5.202 4.6-6.602 4.6-.2 0-1-.6-1.398-1l8-3.6zM207 4.2c-.2 0-5.398 4.4-6.6 4.4-.6 0-1-.4-1.4-.603V7.4l8-3.2zM54.2.8c.4 0 .8.4 1.2.6V13c-.6.2-1.2.6-1.8.6-.4 0-7-3.2-8.602-4.2-.4-.2-.6-.4-.6-1 0-.4.6-1.2 1.2-1.6 1-.8 2.4-1.4 3.198-2.2C50 3.8 52.8.8 54.2.8zm14.002 0c.598 0 .8.4 1.2.6v6.4c-1.2.6-2.602 1.4-3.8 2.2.4.4.8.6 1.4.6.4 0 1.6-1.398 2.4-2.2v4.798c-.6.4-1 .6-1.6.6-1 0-3-1.6-4.4-2.4-1-.6-2.4-.8-3.6-1.398-.4-.2-.6-.6-.6-1.2 0-.4.6-1.2 1-1.4C63.4 5.2 67.8.8 68.203.8zM82.2.8c1.6 0 1.2 1.4 1.2 2V4c-1.2.8-7.4 4.4-7.4 5.2 0 .2.6 1 1.4 1 1.398 0 5.398-5 6-5.6v3.6c-1 .6-3 1.2-3 1.8 0 .4.2.4.2.6h1.198c.602 0 1.202-1 1.602-1.4v4c-.4.402-1 .8-1.4.8-1 0-3-2.2-4.4-2.6-.802-.4-2.2-.603-3.2-1-.4-.2-.602-.603-.602-1 0-.603.2-1 .4-1C76 7.2 80 3.6 81.8 1c0 0 0-.2.4-.2zm14.2 0c1.398 0 1 1.4 1 2.2v1.4c-2.2 1.6-5 3-6.8 5.4a2.16 2.16 0 0 0 1.4.601c1.2 0 5.2-5 5.4-5.2v3.4c-.8.4-2.4 1-2.4 1.6 0 .4.2.4.2.4s.4.197 1 .197c.4 0 .8-.6 1.2-1V13.6c-.4.4-.798.6-1.4.6-.8 0-1.8-1.8-2.8-2.2-1-.6-2.4-.6-3.6-.8-.2 0-1.4-.6-1.4-1.2s.4-1 .6-1C93.2 6.2 95.6.8 96.4.8zm14 0c.6 0 .8.4 1 .6V5c-2 1.6-4.6 2.8-6.2 5.2.4.2.8.4 1.4.4 2 0 3.6-3.8 4.8-4.8v3c-.6.602-1.4 1-1.8 1.602l.4.4c.398 0 1 0 1.398-.198V13.8c-.398.4-.6.6-1 .6-1.6 0-.6-1.198-2.398-2.198-.6-.4-5.2.8-5.2-1.6 0-.602.4-1 .602-1C108.2 6.2 109.2.8 110.4.8zm14 0c1.4 0 1 1.4 1 2.2v1.4c-2.2 1.6-5 3-6.8 5.4.4.4 1.003.6 1.4.6 1.2 0 5.2-5 5.4-5.2v3.4c-.8.398-2.4 1-2.4 1.6 0 .4.2.4.2.4s.4.197 1 .197c.4 0 .8-.6 1.2-1V13.6c-.4.4-.8.6-1.4.6-.8 0-1.8-1.8-2.8-2.2-1-.6-2.4-.6-3.6-.8-.2 0-1.4-.6-1.4-1.2s.4-1 .6-1c4.4-2.8 6.8-8.2 7.6-8.2zm13.8 0c1.6 0 1.2 1.4 1.2 2V4c-1.2.8-7.4 4.4-7.4 5.2 0 .2.602 1 1.4 1 1.4 0 5.4-5 6-5.6v3.6c-1 .6-3 1.2-3 1.8 0 .4.2.4.2.6h1.2c.6 0 1.2-1 1.6-1.398v4c-.4.4-1 .8-1.4.8-1 0-3-2.2-4.398-2.6-.8-.4-2.2-.602-3.2-1-.4-.2-.6-.602-.6-1 0-.602.2-1 .4-1 1.8-1.2 5.8-4.8 7.6-7.4 0-.001 0-.2.4-.2zm14 0c.6 0 .8.4 1.2.6v6.4c-1.2.6-2.6 1.4-3.8 2.2.4.4.8.6 1.4.6.4 0 1.602-1.398 2.4-2.2v4.798c-.6.4-1 .6-1.6.6-1 0-3-1.6-4.4-2.4-1-.6-2.4-.8-3.6-1.398-.4-.2-.6-.6-.6-1.2 0-.4.6-1.2 1-1.4C147.4 5.2 151.8.8 152.2.8zm14 0c.4 0 .8.4 1.2.6V13c-.6.2-1.2.6-1.8.6-.4 0-7-3.2-8.6-4.2-.4-.2-.6-.4-.6-1 0-.4.6-1.2 1.2-1.6 1-.8 2.398-1.4 3.2-2.2C162 3.8 164.8.8 166.2.8zM40.002.6c.4 0 1 .6 1.4.8v11.4c-.6.4-1.4.602-2 .602-.4 0-.6 0-.8-.2-1.2-.4-2.4-1.4-3.4-1.8-.4-.2-5.6-1.8-5.6-3.2 0-.6.8-1.6 1.398-2 2.4-1.6 4.8-3.4 7-5C38.6.8 39.4.6 40.002.6zM180 .6c.4 0 1 .6 1.4.8v11.4c-.6.4-1.4.602-2 .602-.4 0-.6 0-.8-.2-1.2-.402-2.4-1.402-3.4-1.802-.4-.4-5.6-1.8-5.6-3.2 0-.6.8-1.6 1.4-2 2.4-1.6 4.8-3.4 7-5A3.87 3.87 0 0 1 180 .6zM25.2.4c.6 0 1.6.6 2.2 1v11.4c-.602.2-1.4.4-2 .4-1 0-8.602-3.6-8.8-3.8-1-.602-1.802-1-1.802-1.602s.4-1.4.802-1.6C15.8 6 23.6.4 25.2.4zm168 0c.6 0 1.6.6 2.2 1v11.4c-.6.2-1.4.4-2 .4-1 0-8.6-3.6-8.8-3.8-1-.602-1.8-1-1.8-1.602s.4-1.4.8-1.6C183.8 6 191.602.4 193.2.4zM10.8 0c.4 0 1.8 1 2.6 1.4v11.4c-.6 0-1.4.2-1.8.2-2 0-2.8-1.2-5.4-2.2-1.4-.6-3.2-1-4.6-1.8S0 7.8 0 7.2C0 5.4 9.8 0 10.8 0zm196 0c.4 0 1.8 1 2.6 1.4v11.4c-.6 0-1.4.2-1.8.2-2 0-2.8-1.2-5.4-2.2-1.4-.6-3.2-1-4.6-1.8S196 7.8 196 7.2c0-1.8 9.8-7.2 10.8-7.2z"/><path fill="#fff" d="M111.283 9.5v1.4h-1.6c.6-1.2 1.4-1.4 1.6-1.4zm-14-.4v1c-.4.4-.8.8-1.4.8a1.53 1.53 0 0 1-1-.399c.8-.602 1.6-1.002 2.4-1.402zm28 0v1c-.4.4-.8.8-1.4.8-.398 0-.8-.2-1-.4.8-.602 1.6-1.002 2.4-1.402zm-42-.4v.6l-1.398 1.4h-1.602c.4-1.2 2.4-1.598 3-2zm56 0v.6l-1.4 1.4h-1.6c.4-1.2 2.4-1.598 3-2zm-128-.4c-1 .802-2.6 2-3 2-.6 0-.8-.2-1.2-.6 1.2-.598 2.6-1 4.2-1.4zm14.4-.001c-1 1-2 2-3 2a1.53 1.53 0 0 1-1-.398c1.4-.8 2.8-1.2 4-1.602zm14.6.001c-.6.4-1.8 2.2-2.8 2.2-.6 0-.8-.2-1-.6 1.2-.6 2.6-1.2 3.8-1.6zm14.6 0c-.6.802-1.6 1.6-2.4 2.2h-1.4v-.6c1.198-.6 2.6-1.2 3.798-1.6zm14.4 0c-.2.6-1.6 2.4-2.6 2.4-.4 0-.8-.2-1-.2 1.2-1.6 2.4-1.6 3.6-2.2zm84 0c-.2.6-1.6 2.4-2.6 2.4-.4 0-.802-.2-1-.2 1.2-1.6 2.4-1.6 3.6-2.2zm13.6 0c-.6.802-1.6 1.6-2.398 2.2h-1.4v-.6c1.197-.6 2.598-1.2 3.797-1.6zm13.4 0c-.6.4-1.6 2.2-2.8 2.2-.6 0-.8-.2-1-.6 1.202-.6 2.602-1.2 3.8-1.6zm13.4-.001c-1 1-2 2-3 2-.4 0-.8-.2-1-.398 1.4-.8 2.798-1.2 4-1.602zm13.6.001c-1 .802-2.6 2-3 2-.6 0-.8-.2-1.2-.6 1.2-.598 2.6-1 4.2-1.4zm-96-2.8v.6c-.4.4-3.2 4.8-4.6 4.8-.6 0-1-.2-1.4-.4v-.6l6-4.4zm-14-.4c-.8.8-3.6 5.4-5.4 5.4-.4 0-1.2-.2-1.4-.6 2.2-1.8 4.6-3.4 6.798-4.8zm28 0c-.8.8-3.6 5.4-5.4 5.4-.398 0-1.2-.2-1.398-.6 2.2-1.8 4.6-3.4 6.798-4.8zm-56.8-.2c-.8.8-4 5-5.8 5-.2 0-.8 0-1.4-.8l7.2-4.2zm84 0c-.8.8-4 5-5.8 5-.2 0-.802 0-1.4-.8l7.2-4.2zM10.484 4.7c-.6.4-4.8 4.2-6.2 4.2-.6 0-1.2-.4-1.6-1 2.4-1.2 4.8-2.2 7.4-3.2h.4zm14.598 0c-.6.6-4.8 4.4-6.2 4.4-.2 0-1-.4-1.4-1l7.598-3.4zm14.603 0c-2 1.8-5.6 4.8-6 4.8 0 0-1-.2-1.6-1l7.6-3.8zm14.597 0c-.8.8-4.6 5-6.2 5-.398 0-1-.6-1.398-1l7.598-4zm29 0c-.2.2-4.8 5.6-6 5.6-.4 0-1.2-.4-1.4-.8l7.4-4.8zm56 0c-.2.2-4.8 5.6-6 5.6-.4 0-1.2-.4-1.4-.8l7.4-4.8zm27 0c-.8.8-4.6 5-6.2 5-.4 0-1-.6-1.4-1l7.6-4zm13.4 0c-2 1.8-5.6 4.8-6 4.8 0 0-1-.2-1.6-1l7.6-3.8zm13.4 0c-.602.6-4.8 4.4-6.2 4.4-.2 0-1-.4-1.398-1l7.6-3.4zm13.398 0c-.6.4-4.8 4.2-6.2 4.2-.6 0-1.2-.4-1.6-1 2.4-1.2 4.8-2.2 7.4-3.2h.4z"/></svg>