<svg xmlns="http://www.w3.org/2000/svg" xmlns:xlink="http://www.w3.org/1999/xlink" width="480" height="108"><style><![CDATA[.B{fill:#28334c}.C{fill:#ff7300}]]></style><path fill="#f7f7f7" d="M441.544 95.364v.6s0 .2-.4.2c-1.396 0-3.197-2-4.197-3.6s-1.2-4.604-1.2-5v-1.8c.596 3.003 2.396 6.8 5.796 9.6zm-180 0v.6s0 .2-.4.2c-1.397 0-3.2-2-4.2-3.6s-1.196-4.604-1.196-5v-1.8c.596 3.003 2.397 6.8 5.796 9.6zm207.4-3.8c1 1.396 3.397 2 4 4.2-.2 0-.4.197-.803.197-1 0-4.396-3.602-4.6-4.396-.6-1.8-1.2-5-1.2-5.4v-.6c.804 2 1.404 4 2.603 6zm-240 0c1 1.396 3.4 2 4 4.2-.2 0-.4.197-.8.197-1 0-4.4-3.602-4.6-4.396-.6-1.8-1.2-5-1.2-5.4v-.6c.8 2 1.4 4 2.6 6zm-210 0c1 1.396 3.4 2 4 4.2-.2 0-.4.197-.8.197-1 0-4.4-3.602-4.6-4.396-.6-1.8-1.2-5-1.2-5.4v-.6c.8 2 1.4 4 2.6 6zm391.2 3.8v.8s0 .2-.397.2c-1.2 0-4-3.8-4.2-4.4-.398-1.198-.604-3.6-.604-4v-2.8c.8 3.4 1 6.602 5.2 10.2zm-392.2-9.8c2.6 2.396 7.6 8.8 7.6 11.8 0 1.2-.4 1.4-1 1.4-2.2 0-5.8-3.4-7.6-3.4-.6.6-1 1.4-1.4 2.2-.6 1.2-1.4 8.8-5.8 8.8-1.6 0-2.4-3.6-2.4-4.2 0-6.2 2.4-12.8 4.6-18.8.4.6 1 1.4 1 2 0 0-4 11.8-4 13.8 0 .8-.2 1.2.8 2 .2 0 .6-.398.6-.6.6-2 1.2-4.2 1.4-6.2l.6-3.6c.4-1.603.6-3.2.8-4.803 1 .803 1 .604 1 1.604 0 .396-.4 4.2-.4 4.8 0 1-.2 2 .8 2 1.2 0 1.4-1.6 1.4-1.8 0-.4-.8-5.2-.8-5.8 0-.4.6-.803 1-1.4.2-.6.4-1.4.8-2.2.2.8.4 1.8 1 2.4zm272.2 9.8v.8s0 .2-.397.2c-1.2 0-4-3.8-4.2-4.4-.398-1.198-.604-3.6-.604-4v-2.8c.8 3.4 1 6.602 5.2 10.2zm88-.8c.2 0 .603.396.603 1v.8h-1c-2.2-1.8-3.603-4.4-3.603-6.4v-5c.798 3.2 0 6.4 4 9.6zm-60 0c.2 0 .603.396.603 1v.8h-1c-2.2-1.8-3.603-4.4-3.603-6.4v-5c.798 3.2 0 6.4 4 9.6zm26.4-3c.6 1.2 2.6 2.8 2.8 4.8-.2.2 0 .2-.6.2-1.602 0-3.4-4.2-3.4-4.4-.2-.8-.2-2-.2-2.6 0-.4.2-3.2.4-4.8.2 1.8 0 4.8 1 6.8zm123.4-6c2.6 2.396 7.6 8.8 7.6 11.8 0 1.2-.4 1.4-1 1.4-2.2 0-5.8-3.4-7.6-3.4-.603.6-1 1.4-1.4 2.2-.6 1.2-1.4 8.8-5.8 8.8-1.604 0-2.4-3.6-2.4-4.2 0-6.2 2.4-12.8 4.603-18.8.397.6 1 1.4 1 2 0 0-4 11.8-4 13.8 0 .8-.2 1.2.8 2 .2 0 .6-.398.6-.6.603-2 1.2-4.2 1.4-6.2l.6-3.6c.4-1.603.603-3.2.802-4.803 1 .803 1 .604 1 1.604 0 .396-.398 4.2-.398 4.8 0 1-.2 2 .8 2 1.2 0 1.4-1.6 1.4-1.8 0-.4-.8-5.2-.8-5.8 0-.4.602-.803 1-1.4.198-.6.398-1.4.8-2.2.193.8.393 1.8.992 2.4zm-240 0c2.6 2.396 7.6 8.8 7.6 11.8 0 1.2-.4 1.4-1 1.4-2.2 0-5.8-3.4-7.6-3.4-.6.6-1 1.4-1.4 2.2-.6 1.2-1.4 8.8-5.8 8.8-1.6 0-2.4-3.6-2.4-4.2 0-6.2 2.4-12.8 4.6-18.8.2.6 1 1.4 1 2 0 0-4 11.8-4 13.8 0 .8-.2 1.2.8 2 .2 0 .6-.398.6-.6.6-2 1.2-4.2 1.4-6.2l.6-3.6c.4-1.603.6-3.2.8-4.803 1 .803 1 .604 1 1.604 0 .396-.4 4.2-.4 4.8 0 1-.2 2 .8 2 1.2 0 1.4-1.6 1.4-1.8 0-.4-.8-5.2-.8-5.8 0-.4.6-.803 1-1.4.2-.6.4-1.4.8-2.2.2.8.4 1.8 1 2.4zm209.2-.2c.803 1.2 2.2 2.4 3.2 4 .8 1 3.8 6.4 3.8 8.4 0 1-.197 1.197-1.197 1.197-2.4 0-5-3.602-7-3.602-3 0-2.803 10.4-8 10.4-1.603 0-2.4-3-2.4-3.802 0-.6.4-2.6.602-3.8.398-5.2 3.398-10 5.198-15 .4.602.802 1.602.802 2 0 .2-4.802 11-4.802 14 0 .4.4 1 .802 1.4.198 0 .398 0 .398-.2 1.602-4.8 2.8-9.602 4-14.4.2.4.602.6.8 1.2l-.8 5.602c0 .6.4 1.398.8 1.398 1.603 0 1.4-2 1.4-2.398 0-.602-.4-4.602-.4-5 0-.602.802-1.2 1.2-1.4.2-.8.4-1.6.8-2.398.196.806.396 1.604.796 2.404zm-180 0c.8 1.2 2.2 2.4 3.2 4 1 1.4 3.8 6.2 3.8 8.4 0 1-.2 1.197-1.2 1.197-2.396 0-5-3.602-7-3.602-3 0-2.8 10.4-8 10.4-1.6 0-2.396-3-2.396-3.802 0-.6.396-2.6.602-3.8.398-5.2 3.398-10 5.2-15 .397.602.8 1.602.8 2 0 .2-4.8 11-4.8 14 0 .4.397 1 .8 1.4.2 0 .398 0 .398-.2 1.602-4.8 2.803-9.602 4-14.4.2.4.602.6.803 1.2l-.803 5.602c0 .6.396 1.398.803 1.398 1.6 0 1.397-2 1.397-2.398 0-.602-.397-4.602-.397-5 0-.602.8-1.2 1.197-1.4.2-.8.396-1.6.803-2.398.193.806.393 1.604.794 2.404zm144.2-.4c0 .2-5.4 10.6-5.4 13.4 0 .2-.196 1 .604 1.6.2 0 .396-.198.396-.4 2-4.397 3-9.197 4.604-13.6.396.4 1 .4 1 .802 0 .602-1.197 5.198-1.197 5.8 0 1 .197 1.2.8 1.2s1-.398 1.398-.802c.2-5.4 0-6.198 0-6.6 0-.6 1-1 1.2-1.4.397-.6.603-1.4 1-2.198.196.8.196 1.8.8 2.8s1.8 2.2 2.396 3.2c.804.8 3.804 7.198 3.804 9.198 0 1.2-.804 1.4-1.2 1.4-2.398 0-5-4.2-7-4.2-1.2 0-1.8 1.2-2.2 2.4-1.2 2.396-3 8.2-7 7.396-.8-.396-1.398-3.197-1.398-3.8 0-5 4.8-14.2 6.8-18.397.393.6.592 1.6.592 2.2zm-120 0c0 .2-5.4 10.6-5.4 13.4 0 .2-.196 1 .604 1.6.2 0 .396-.198.396-.4 2-4.397 3-9.197 4.604-13.6.396.4 1 .4 1 .802 0 .602-1.197 5.198-1.197 5.8 0 1 .197 1.2.8 1.2s1-.398 1.398-.802c.2-5.4 0-6.198 0-6.6 0-.6 1-1 1.2-1.4.397-.6.603-1.4 1-2.198.196.8.196 1.8.8 2.8s1.8 2.2 2.396 3.2c.804.8 3.804 7.198 3.804 9.198 0 1.2-.804 1.4-1.2 1.4-2.398 0-5-4.2-7-4.2-1.2 0-1.8 1.2-2.2 2.4-1.2 2.396-3 8.2-7 7.396-.8-.396-1.398-3.197-1.398-3.8 0-5 4.8-14.2 6.8-18.397.393.6.592 1.6.592 2.2zm-82.8.2c1 1 2.6 2.2 3.8 3.8 1.8 2.2 4.4 5.6 4.4 7.802 0 1.198-.8 1.198-1.2 1.198-2 0-5.8-3-7.6-3-1 1.4-1.6 2.802-1.8 4.2-.4 2.2-2 7.602-5.6 7-1.6-1.8-1.8-3-1.8-4.398 0-8.2 1-8.602 3.8-18.802.4.6 1 1.6 1 2 0 .6-.6 1.6-.8 2.4-.8 2.8-2.6 8.2-2.6 11.6 0 .4.4 1.802 1 2.2 1-.8.8-3.2 1.2-4.2.2-.8.4-1.6.4-2.4l.6-4.8c.2-1.2.4-2.602.6-4 .6.602 1 .602 1 1.198s-.4 5-.4 5.4c0 .8.2 1.8 1 1.8.6 0 1.4-1 1.4-1.6 0-.4-1-5-1-5.604 0-.396.6-1 .8-1.396.4 1.8.8 3.6 1.4 5.396.2.803 3.8 4.398 4.4 4.398h1.4c.2-.198.2 0 .2-.6 0-1.4-2-2-3-2.802-.4-.198-1-.6-1.2-1s-3-5.6-3-6.6c0-.602.2-1.2.4-1.8.4.808.6 1.808 1.2 2.608zm172-1.6c0 2.396-6.2 11.2-6.2 14.2a1.8 1.8 0 0 0 .6 1.397c.2 0 .604-.397.604-.603 2-4.2 3.602-8.6 5.2-12.8.196.398 1 .6 1 1 0 .6-1.603 5.198-1.603 5.6 0 .602.2 1.2.8 1.2 1 0 2-2.2 1.604-3 0-.8.2-1.8.2-2.8 0-1.602 1.603-3.802 2.397-5 .2 1 .4 2 .8 3 .604 1.198 1.804 2.398 2.4 3.8 1 1.8 2.8 6.4 2.8 8.4 0 1.4-.397 1.6-1.2 1.6-2.396 0-5.196-4.6-7-4.6-2.8 0-3.396 9.2-8.6 9.2-2.2 0-2.2-3.2-2.2-3.8 0-.4.4-1.8.603-2.602 1-5.197 4.8-10.398 7.6-15.602.195.413.195 1.013.195 1.413zm-60 0c0 2.396-6.2 11.2-6.2 14.2a1.8 1.8 0 0 0 .6 1.397c.2 0 .604-.397.604-.603 2-4.2 3.602-8.6 5.2-12.8.196.398 1 .6 1 1 0 .6-1.603 5.198-1.603 5.6 0 .602.2 1.2.8 1.2 1 0 2-2.2 1.604-3 0-.8.2-1.8.2-2.8 0-1.602 1.603-3.802 2.397-5 .2 1 .4 2 .8 3 .604 1.198 1.804 2.398 2.4 3.8 1.2 2.4 2.8 6 2.8 8.4 0 1.4-.397 1.6-1.2 1.6-2.396 0-5.196-4.6-7-4.6-2.8 0-3.396 9.2-8.6 9.2-2.2 0-2.2-3.2-2.2-3.8 0-.4.4-1.8.603-2.602 1-5.197 4.8-10.398 7.6-15.602.195.413.195 1.013.195 1.413zm-141.6.8c1.4 1.4 3.2 2.8 4.6 4.4 1.4 1.397 4.4 5.397 4.4 7.397 0 1-.8 1-1.2 1-2.4 0-5.8-3-7.8-2.603-1.8 3-1.4 6-2.8 9-.6 1.4-2.6 2.4-3.4 2.4-1.4 0-2.6-2.8-2.6-3.198v-5.2c0-5 2-10 3-15 .2.603 1 1.603 1 2 0 0-2.6 11.8-2.6 13.603 0 .198-.2 2.397.8 2.8 1.4-1.197.8-3.602 1.4-5.197 0-.803.2-1.603.2-2.4l.6-8 1 1v5.8c.4.8.4 1.602 1 1.602s1.4-1 1.4-1.398c0-.602-1.2-5-1.2-5.4 0-.6.6-1 .8-1.6.2.6.4 1.398.4 2 .2 1.197.8 2.6 1.6 4 .8 1.197 3.6 3.398 4.6 3.398.6 0 .8-.2 1.2-.602-.6-1.6-3.2-2.2-4-3.398-1.6-1.802-2.6-4-3.8-6l.2-2.802c.4.802.6 1.6 1.2 2.4zm-120.2.6c1.2 1.2 3 2.802 4.4 4.4 1.6 1.4 4 5.6 4 7.2 0 1.2-.8 1.2-1.2 1.2s-5-2-7.6-3c-1 1-1.6 3.197-1.8 4.397s-.4 3-1.4 4.603c-.8 1.197-2.4 2.397-3.4 2.397s-2.4-2.2-2.4-3v-5.2c0-5.197 2.2-10.197 3.4-15.197.2.6 1 1.6 1 2 0 .6-3.2 11.397-3.2 14 0 .397.2 1.397.8 2.197h.6c1.2-5 1.4-10.396 2.2-15.396.2.2.8.396.8 1 .4 1.2 0 3.6 0 4.2 0 .397-.4 3.197 1 3.197.8 0 1.2-1.197 1.2-1.602 0-.6-1-5-1-5.398 0-.602.6-1 .8-1.396a38.12 38.12 0 0 0 1.8 5.799c.2.4 3.6 3.8 4.2 3.8h1.4c0-.2.2-.2.2-.6 0-1.4-3.8-3-4.2-3.604-1.4-2-2.2-4-3.2-6l.2-3c.4 1.004.6 2.004 1.4 3.004zm284 12.2c0 .4.2.8.398 1.2.198 0 .602-.2.8-.6 2.2-4 4-8 5.8-12 .398.397 1 .397 1 1 0 .397-1.8 4.8-1.8 5.197 0 .604.2 1.2.8 1.2 1 0 1.398-1.802 1.6-2.397.2-.4.2-1 .2-1.4.2-.4.2-1 .2-1.4.2-.4.2-1 .2-1.4l2.6-3.8c.2 1 .2 2 .6 3 .8 1.398 1.8 2.8 2.4 4.398.6 1.2 2 5.8 2 7.8 0 .802-.2 1.802-1.2 1.802-2.4 0-5.2-5.2-6.8-5.2s-4.4 8.803-9.2 8.803c-2.2 0-2-3-2-3.803 0-.6.8-2.397 1-3.197 1.2-4.803 5.8-10.602 9-15 0 4.796-7.6 11.596-7.6 15.796zm-253.4-13c.6.8 1.8 1.4 2.8 2.2 2.4 2 4 4.4 5.4 6.6.6.6 1.2 2.2 1.2 2.6 0 1.2-1.2 1-1.6 1-1.8 0-6.4-2.397-7-2.397-1.4 0-2 4.603-2 4.8-.2 1.4-.4 2.803-1 4.2-.4 1-2.4 2.8-3.4 2.8s-2.6-2.396-2.6-3v-9.8l2.4-10.8c.2.6 1 1.6 1 2.197 0 1.603-2.2 9.803-2.2 13 0 .4.2 2.4.8 3.2h.6c.6-2.802.4-6 1-8.802l.2-6.8c1.4.8 1 1.4 1 1.8 0 .6 0 1 .2 4.802 0 .398-.2 1.8 1.2 1.8.6 0 1.2-1.197 1.2-1.6s-1.4-4.8-1.4-5.198c0-.602.6-1 .8-1.602.6 2 1 4 2.2 6 .6.8 3.4 3.2 4.8 3.2.4 0 .6-.2 1-.4-.2-1.6-2-2.198-3-2.8-2.6-1.6-3.8-5-5.2-7l.2-2.8c.4.8.6 1.8 1.4 2.8zm63.4 2.2c1.2.8 6.4 7.2 6.4 9 0 .8-.8 1-1.2 1-2.2 0-6.4-2.8-8-2.2-.4 1.2-1 2.602-1.2 4 0 0-.6 7.8-4.4 7.8-2 0-2.8-4-2.8-4.4v-8.397l2.2-11c.4.8.8 1.603 1 2.397l-2 13c-.2.603-.2 3.2 1.4 3.2.4-1.398.6-3 .8-4.398l.4-11c.2.197.6.398.8 1 .6 1.197-.4 7.197 1.4 7.197.6 0 1.4-1.197 1.4-1.6 0-.6-1.4-4.6-1.4-5 0-.6.4-1.4.6-2 .6 1.802 1 3.802 2.2 5.802.8 1.198 3.6 3.398 5 3.398.4 0 .6-.2 1-.6-1-2.2-3-2-4.4-3.604-2-2-4.4-5.602-4.2-7.8l.2-1.2c.4 1.806 2.8 4.204 4.8 5.404zm-28.8-.2c1.8 1.4 4 4.2 5.2 6 .2.4 1 1 1 1.602v1.602h-2.8c-1.8-.803-4.6-2-6.2-1.803-.6 1.4-1 3-1.2 4.603 0 .397-.2 7.397-4 7.397-3.2 0-3.2-6.6-3.2-7.397 0-.603 0-3.397-.2-3.8l1.8-12.4c.4.604 1.2 1.604 1.2 2.2 0 .397-1.6 11.8-1.6 12.397 0 1-.2 2.603.8 4h.8c.8-1.6.6-3.8.6-5.397 0-.397-.4-9-.2-10.2.4.4.8.604 1 1.2.4.603.2 7 1.6 7 .6 0 1.4-1.2 1.4-1.603 0-.6-1.8-4.6-1.8-5s.6-.6.4-1.8c0 0 0-.2.2-.398 0 2.398 3.8 9 7.6 9 .4 0 1-.4 1-.803 0-1.6-3.6-2.397-4-2.8-2.4-2-4-5-5.2-7.398l.2-2c.2 1.996 3.8 4.596 5.6 5.796z"/><g fill="#fff"><path d="M465.144 86.766l.604 5.8c0 1-.4 1.603-1.2 1.603-.6 0-.8-.8-.8-1.2 0-.6.396-4.197.6-6.197h.798l-.002-.005zm-240 0l.6 5.8c0 1-.4 1.603-1.2 1.603-.6 0-.8-.8-.8-1.2 0-.6.4-4.197.6-6.197h.8v-.005zm-210 0l.6 5.8c0 1-.4 1.603-1.2 1.603-.6 0-.8-.8-.8-1.2 0-.6.4-4.197.6-6.197h.8v-.005zm419.6 6c0 .398-.4.8-.8 1.198h-1c-.2-.4-.2-1-.2-1.4 0-.6.2-1.397.2-2.197.397-1.4-.2-3.2 1.197-3.803l.604 6.2zm-31.2-6.202v5.8c-.6.8-.8 1.4-1.4 1.4-.8 0-.6-1.2-.6-1.4 0-.4.8-3.8 1.2-5.8h.8zm-120 0v5.8c-.6.8-.8 1.4-1.4 1.4-.8 0-.6-1.2-.6-1.4 0-.4.8-3.8 1.2-5.8h.8zm-28.8 6.202c0 .398-.4.8-.8 1.198h-1c-.2-.4-.2-1-.2-1.4 0-.6.2-1.397.2-2.197.397-1.4-.2-3.2 1.2-3.803l.602 6.2zm-58-.202c-.2.8-.6 1.396-1.2 1.396-1 0-.8-1.602-.8-2v-5.396h1l1 6zm-30.4-6c.6 1.8 1.4 5.2 1.4 5.6 0 1.2-.8 1.4-1.2 1.4-.6 0-.8-.4-.8-.8v-6.2h.6zm-120.4 0l1.2 6c0 1-1 1.2-1.2 1.2-.4 0-.6-.2-.8-.4v-6.8h.8zm326.8.4c0 .4-.4 3.6-.602 5.4 0 .4-.398.8-.802 1h-.8c-.2-.2-.2-.6-.2-1 0-.6 1-3.8 1.4-5.6.196-.2.6-.2.8-.4.204.2.204 0 .204.6zm-31.8 5.2c0 .2-.4.8-.8.8h-.802c-.198-.198-.198-.4-.198-1 0-.4 1.198-3.6 1.8-5.4.2 0 .6-.197.8-.197l-.8 5.796zm-28.2-5.2c0 .4-.4 3.6-.602 5.4 0 .4-.398.8-.802 1h-.8c-.2-.2-.2-.6-.2-1 0-.6 1-3.8 1.4-5.6.196-.2.6-.2.8-.4.204.2.204 0 .204.6zm-175.6-.4l1.6 5.396c0 .604-.6 1.398-1.2 1.398-1 0-1-3.198-1-3.398v-3.602c.2.206.6.206.6.206zm-29.2 0c.8 1.6 1.8 4.396 1.8 5 0 .8-.8 1.396-1.2 1.396-1.6 0-1.2-5.396-1.4-6.602.2.006.6.206.8.206zm-31 .4c.6 1.4 1.4 4.6 1.4 5.2 0 1-.8 1.2-1.2 1.2-1.8 0-.8-3.6-1-4.2l.2-2.8c.2.2.6.2.6.6zm383.2 14h-.6c-.4-.6-.4-1.4-.4-1.8 0-4 2.4-9.8 3.604-13.6 0 0 .2 0 .396.2-1 4.6-1.6 10.4-3 15.2zm-84.6-9.8c.6 1.4 3.2 3.602 3.2 4.2v1h-1c-2-1.6-3.8-4.2-3.602-6.2l.198-4.6c.404 1.8.603 3.8 1.204 5.6zm-60 0c.6 1.4 3.2 3.602 3.2 4.2v1h-1c-2-1.6-3.8-4.2-3.602-6.2l.198-4.6c.404 1.8.603 3.8 1.204 5.6zm-95.4 9.8h-.6c-.4-.6-.4-1.4-.4-1.8 0-4 2.4-9.8 3.6-13.6a.62.62 0 0 0 .4.199c-1 4.6-1.6 10.4-3 15.2zm-210 0h-.6c-.4-.6-.4-1.4-.4-1.8 0-4 2.4-9.8 3.6-13.6a.62.62 0 0 0 .4.199c-1 4.6-1.6 10.4-3 15.2zm458.6-9.8c1 1.4 2.8 2.602 4.2 4v.602c-.2.198-.2.198-.803.198-1.197 0-3.6-2.4-4.197-3.4-1-2-1.603-5.6-1.603-6v-1.197c.603 1.796 1.204 3.796 2.404 5.796zm-36.4-5.2c0 1.2-3 12-3.8 14.4h-.6c-.2-.4-.4-.8-.4-1.4 0-3.198 3.6-11.6 4.6-13.6 0 .2.2 0 .2.6zm-30.8-.198l-4.6 14c-1-.2-1-.602-1-1.2 0-3 4.6-11.8 5.397-13.197.004.196.204.398.204.398zm-120 0l-4.6 14c-1-.2-1-.602-1-1.2 0-3.6 5-11.6 5.397-13.197.004.196.204.398.204.398zm-29.2.198c0 1.2-3 12-3.8 14.4h-.6c-.2-.4-.4-.8-.4-1.4 0-3.198 3.6-11.6 4.6-13.6 0 .2.2 0 .2.6zm-23.6 5.2c1 1.4 2.8 2.602 4.2 4v.602c-.2.198-.2.198-.8.198-1.2 0-3.6-2.4-4.2-3.4-1-2-1.6-5.6-1.6-6v-1.197c.6 1.796 1.2 3.796 2.4 5.796zm-210 0c1 1.4 2.8 2.602 4.2 4v.602c-.2.198-.2.198-.8.198-1.2 0-3.6-2.4-4.2-3.4-1-2-1.6-5.6-1.6-6v-1.197c.6 1.796 1.2 3.796 2.4 5.796zm419.6 1c.603 1 3 2 3.4 3.602-.2.198-.2.398-.8.398-1.603 0-3.803-2.8-4.4-4.398-.6-1.802-1-5.398-1-5.802v-.8c.6 2 1.2 4.602 2.8 7zm-28.2 3.2v1h-.8c-3.4-2.4-4.4-5.2-4.4-7.6V85.16c2 9.606 5.2 8.204 5.2 10.204zm-120 0v1h-.8c-3.4-2.4-4.4-5.2-4.4-7.6V85.16c2 9.606 5.2 8.204 5.2 10.204zm-31.8-3.2c.6 1 3 2 3.4 3.602-.2.198-.2.398-.8.398-1.603 0-3.8-2.8-4.4-4.398-.6-1.802-1-5.398-1-5.802v-.8c.6 2 1.2 4.602 2.8 7zm-54.4 3c-.2 0-.2.2-.8.2-1.4 0-4.2-3-4.6-3.8-.8-2-1.2-4-1.6-6 .8 1.6 1.8 3.6 3 5.6 1.2 1 2.6 2 4 3.2v.8zm-10.2-9.398c0 1-1.8 12.8-2.4 15.198-1-.6-1-2-1-2.198 0-3.398 2.4-11 3.2-13.602.2.2.2 0 .2.602zm-139.4 9.198c-.2 0-.4.2-.8.2-1 0-4-2.6-4.4-3.2-1-2-1.4-4.198-2-6.4l2.8 5c1.4 1.4 3 2.4 4.4 3.603v.796zm-10.4-9.4l-1.8 15-.4.396c-1.2-.602-1-1.602-1-2.197 0-3.803 2-10.4 3-13.603.2.204.2.004.2.404zm326.8.202l-5.4 13.198h-.8c0-.198-.2-.4-.2-1 0-1.6 1.8-5.198 2.4-6.198 1.2-2.398 2.6-4.602 3.8-6.802 0 .2 0 .6.2.802zm-23.4 10.598c-.2.2-.2.2-.6.2-1.8 0-3.602-4.8-3.602-5.2 0-4.6.198-5.4.198-6.4.4 1.802.603 3.802 1 5.802.2 1.602 2 3.198 3 4.8l.004.8zm-36.6-10.598l-5.4 13.198h-.8c0-.198-.2-.4-.2-1 0-1.6 1.8-5.198 2.4-6.198 1.2-2.398 2.6-4.602 3.8-6.802 0 .2 0 .6.2.802zm-135.6 8.798h-1.6c-4.8-2-5-6.4-6-9.4 1 1.4 1.8 3.2 2.8 4.8 1.6 1.6 3.4 2.6 4.8 4v.6zm-12.2 6s0 .2-.4.2c-.6 0-.6-.2-.8-.603v-4.397c.8-3.603 1.6-7.4 2.6-10.803l-1.4 15.604zm170.8-2.4h-.8c0-.2-.2-.398-.2-.8 0-3 5.8-11 7-12.6-1.2 4.003-3.8 9.2-6 13.4zm-199.2-1c-.2 1-.2 2.2-.2 3.2-.2.2 0 .2-.6.2s-.8-1.604-.8-1.604v-3.602l2-10.6-.4 12.406zm-48.8-3h-1.4c-4.4-1.6-5.8-6.2-6.4-9.2 1 1.4 2 3.2 3.2 5 1.4 1.2 3 2.2 4.6 3.4v.8zm-11.2-1.6c-.8 3.396 0 8.2-1.2 8.2-.8 0-.8-1.2-.8-1.2v-4.4l2-10.398v7.798zm31 7.6c0 .2.2.2-.4.2-1 0-1-2-1-2.2v-3.398l1.4-10.398v15.796zm37-9.6c1 .8 2.6 1.6 3.6 2.6v.602c-.2 0-.4.198-1 .198-1.2 0-4.6-2.8-4.8-3.4-1-1.8-2.2-5.397-2.2-5.8v-.602c1 2 2 4.602 4.4 6.4zm-29.8-1c1.2 1.2 3 1.8 4.4 2.8v.6c-.2.2-.4.2-.8.2-.6 0-1-.398-1.6-.6-4.2-1.4-5.2-6.2-6-8.8 1 1.8 2.2 4.003 4 5.8z"/><path d="M466.8 5c5.2 8.2 7.4 17.6 7.4 26l-.2 7c-.6 6.6-1.2 13.2-2.8 19.8-1.2 5-2.6 10.2-3.6 15.6-.6 3.4-.8 7.4-1.4 11.202-.2 1.398-1.2 2-2.2 2-1.2 0-2-3.2-2-3.398 0-.602-.6-1.803-.6-2.602 0-12.802-6.8-26.602-7.8-39.2 0-1.4-.397-4.2-.397-4.6V23.4c.397-6 1.6-12 5.397-18-1-1-2.197-2.4-2.6-3.4v-.6c.8 1 2.6 3.2 3.2 3.2.397 0 1.8-1.4 2.8-1.6h.8c1.2 0 1.604.6 3.4 1.4 1-1 2.2-2.2 3-3.2C469 2 468 4 466.8 5zm-37.6-.4c1.8-1 2.6-1.6 3.6-1.6 1.4 0 2.4 1.2 3.2 1.2.4 0 2.2-2 2.8-3 0 2-2 3.2-2 3.8s2.2 3.4 3 5.4c3 6.6 4.4 13.6 4.4 20.4 0 .4-.2 1.8-.2 6.4-.4 15.4-6 30.8-8.2 46.4 0 .6-.6 1.8-1.6 2.6-.2.2-.2.2-.8.2-2 0-2.2-3.8-2.2-4.604V77.6c-.8-12.2-6.6-24.4-7.6-36.6 0-1.6-.397-4.6-.397-5V24.2c.2-1.2.2-2.6.397-3.8.2-1.6.4-3.4.803-4.8.396-2.2 1.197-4.8 2.197-6.8.4-1.2 2-3 2-3.4 0-.6-2.397-3.2-2.397-3.6v-.6C427 2.2 428 3.4 429.2 4.6zm-180 0c1.8-1 2.6-1.6 3.6-1.6 1.4 0 2.4 1.2 3.2 1.2.4 0 2.2-2 2.8-3 0 2-2 3.2-2 3.8s2.2 3.4 3 5.4c3 6.6 4.4 13.6 4.4 20.4 0 .4-.2 1.8-.2 6.4-.398 15.4-6 30.8-8.2 46.4 0 .6-.6 1.8-1.6 2.6-.2.2-.2.2-.8.2-2 0-2.2-3.8-2.2-4.604V77.6c-.6-11.8-6.8-24.8-7.6-36.6 0-1.6-.4-4.6-.4-5V24.2c.2-1.2.2-2.6.4-3.8.197-1.6.397-3.4.8-4.8.396-2.2 1.2-4.8 2.2-6.8.397-1.2 2-3 2-3.4 0-.6-2.4-3.2-2.4-3.6v-.6c.8 1 1.8 2.2 3 3.4zm-22.4.4c5.2 8.2 7.4 17.6 7.4 26l-.2 7c-.6 6.6-1.2 13.2-2.8 19.8l-2 8c-.8 3-1.6 6.6-2 10-.4 3 0 6.802-1.4 9.802-.2.602-1.4 1-1.8 1-.6 0-2-2.398-2.2-3.2s-.4-1.8-.4-2.8c-.4-9.2-3-18.802-5.8-28-.2-.4-2.4-13.6-2.4-15.8V23.4c.4-6 1.6-12 5.4-18-1-1-2.2-2.4-2.6-3.4v-.6c.8 1 2.6 3.2 3.2 3.2.4 0 1.8-1.4 2.8-1.6h.8c1.2 0 2 .2 3.4 1.4 1-1 2.2-2.2 3-3.2C229 2 228 4 226.8 5zm-37.6-.4c1.8-1 2.6-1.6 3.6-1.6 1.4 0 2.4 1.2 3.2 1.2.4 0 2.2-2 2.8-3 0 2-2 3.2-2 3.8s2.4 3.4 3 5.4c3 7.6 4.4 13.4 4.4 20.6 0 .4 0 1.8-.2 6.6-.2 2.6-.6 5.2-.8 7.8-.4 3.2-.8 7-1.6 10.6-1.2 5.602-4.6 16.602-4.6 23.8v4.4c-1 1.4-.4 2.2-1.8 2.2-3 0-3.4-7.8-3.4-7.8-1-13.2-8-26.4-8.4-39.603 0-1-.2-2.6-.2-3V24.2c.2-1.2.2-2.6.4-3.8.2-1.6.4-3.4.8-4.8.4-2 1.2-4.4 2-6.4.4-1.4 2.2-3.4 2.2-3.8 0-.6-2.4-3.2-2.4-3.6v-.6c.8 1 1.8 2.2 3 3.4zM16.8 5c5.4 7.8 7.4 17.6 7.4 25.6l-.2 7.2c-.6 5.4-1 11.4-2.2 17.2-.6 3.8-1.8 7.8-2.8 11.602-.6 2.8-1.4 6-1.8 9-.4 1.798-.6 4.198-.6 6.198 0 1-.2 4.802-2.6 4.802-1.2 0-2-3.2-2-3.398 0-.602-.6-1.803-.6-2.602-.2-12.2-6-25.398-7.6-37.398l-.6-6.4V23.4c.4-6 1.6-12 5.4-18C7.6 4.4 6.4 3 6 2v-.6c.8 1 2.6 3.2 3.2 3.2.4 0 1.8-1.4 2.8-1.6h.8c1.2 0 2 .2 3.4 1.4 1-1 2.2-2.2 3-3.2C19 2 18 4 16.8 5zm30 0c0 .4 1.8 2.8 2.6 4.6C50.6 12 54 22.6 54 26v10.8c-.2 3.4-.6 6.8-1 10.2-.2 2-.6 4.6-1 6.8-1.8 8.8-4.8 18.2-5 27.4 0 .2.4 5.2-1.4 5.2-.6 0-.4 0-.6-.2-.8-.4-1.6-1.4-2-2.2-.8-2.2-1-4.6-1.2-6.8-1.2-9.2-5.2-19.4-7-28.4 0-.4-1.6-11.4-1.6-13.8v-9.6c.2-1.4.2-3 .4-4.6s.4-3.6.8-5.2c.4-2 1.2-4.4 2-6.4.4-1.4 2.2-3.4 2.2-3.8 0-.2-2.4-2.6-2.2-4.2.6 1 1.6 2.2 2.8 3.4C41 3.6 41.8 3 42.8 3c1.2 0 2 .2 3.2 1.4 1-1 2-2.2 2.8-3.4 0 2-2 3.2-2 4zM403 3c1.2 0 2.2 1.2 3 1.2.4 0 2-2.2 2.602-3.4 0 1.4-1 2.8-2 4.2C408.4 7 409 8.8 410 11c.602 1.2 4 12.2 4 15.2V37c-.2 3.6-.6 7-1 10.4-.398 3.2-.8 6.4-1.6 9.6l-5.8 25c-.2 1-1.2 5-3.603 4.4-1-1.2-1.603-3.4-1-4.4v-4.398c-.603-5-1.397-10.602-2.8-15.802-1.4-5.4-4.803-17-4.803-24V22.6c.2-1 .4-2.2.4-3.2.4-3.2 1.2-6.6 2.4-9.6.398-1.4 2.398-4 2.398-4.4 0-.6-1.197-1.4-1.6-2.2-.4-.6-.4-1.4-.603-2.4.603 1 1.603 2.4 2.8 3.8C400.4 3.8 402 3 403 3zm-30.2 0c1.2 0 2 .6 3.2 1.2.8-1 1.602-2.2 2.2-3.2 0 0 .2-.2.2.4 0 .4-1.8 3-1.8 3.6 0 .4.8.8 1 1.4.8 1 1.6 2.6 2 3.8 3.198 7.6 4.398 14.2 4.398 21.4l-.2 7.8c-.397 4-1 8-1.397 12-.603 5-2.603 11.2-3.603 16.4 0 0-3 18.602-7.397 18.602-.603 0-1.2-2.398-1.2-2.602 0-.6.4-1.8.4-8-.2-6.6-2.4-13.398-4.2-20.2-1.2-4.8-3-12.6-3-18V23.2c.2-1 .2-2.2.397-3.4.2-1.6.4-3.4.804-4.8.4-2.2 1.2-4.8 2.4-7 .4-1 1.602-2.2 1.602-2.6 0-.6-1.602-3-2-4.4.8 1 1.8 2.4 2.8 3.6 1-1.4 2.4-1.6 3.4-1.6zm-60 0c1.2 0 2 .6 3.2 1.2.8-1 1.602-2.2 2.2-3.2 0 0 .2-.2.2.4 0 .4-1.8 3-1.8 3.6 0 .4.8.8 1 1.4.8 1 1.6 2.6 2 3.8 3.198 7.6 4.398 14.2 4.398 21.4l-.2 7.8c-.397 4-1 8-1.397 12-.603 5-2.603 11.2-3.603 16.4 0 0-3 18.602-7.397 18.602-.603 0-1.2-2.398-1.2-2.602 0-.6.4-1.8.4-8-.2-6.398-2.2-13.2-4-19.6-1-3.4-3.2-13.6-3.2-18.6V23.2c.2-1 .2-2.2.397-3.4.2-1.6.4-3.4.804-4.8.4-2.2 1.2-4.8 2.4-7 .4-1 1.602-2.2 1.602-2.6 0-.6-1.602-3-2-4.4.8 1 1.8 2.4 2.8 3.6 1-1.4 2.4-1.6 3.4-1.6zM283 3c1.2 0 2.2 1.2 3 1.2.4 0 2-2.2 2.602-3.4 0 1.4-1 2.8-2 4.2C288.4 7 289 8.8 290 11c.602 1.2 4 12.2 4 15.2V37c-.2 3.6-.6 7-1 10.4-.398 3.2-.8 6.4-1.6 9.6l-5.8 25c-.2 1-1.2 5-3.603 4.4-1-1.2-1.603-3.4-1-4.4v-4.398c-.397-5.398-1.397-11.2-3-16.602-1.397-4.8-4.603-17.4-4.603-23.2V22.6c.2-1 .4-2.2.4-3.2.4-3.2 1.2-6.6 2.4-9.6.398-1.4 2.398-4 2.398-4.4 0-.6-1.197-1.4-1.6-2.2-.4-.6-.4-1.4-.603-2.4.603 1 1.603 2.4 2.8 3.8C280.4 3.8 282 3 283 3zM162.8 3c1.2 0 2 .6 3.2 1.4 1-1.2 2-2.4 2.6-3.6 0 1.4-1 2.8-2 4.2 5.8 8.6 7.4 17.8 7.4 26.6 0 10.4-1.4 21-4.2 31.8-.6 2-1 4.6-1.4 6.8-.6 2.4-1 5.2-1 8.2-.4 6 0 6.2 0 6.8 0 .4-.4 1.2-1 1.2-1.4 0-3-1.604-3.2-3.2-1.6-10-4.8-21-7.6-30.8-.2-.8-2.2-11.6-2.2-14V22.6c.2-1 .4-2.2.4-3.2.4-3.2 1.2-6.6 2.4-9.6.4-1.4 2.4-4 2.4-4.4 0-.6-1.2-1.4-1.6-2.2-.4-.6-.4-1.4-.6-2.4.6 1 1.6 2.4 2.8 3.8C160.4 4 162 3 162.8 3zM133 3c1 0 1.8.6 3 1.2.8-1 1.6-2.2 2.2-3.2 0 0 .2-.2.2.4 0 .4-1.8 3-1.8 3.6 0 .4.8 1 1 1.4 1 1.2 1.8 2.6 2.2 4.2 3.8 10.2 4.2 12.6 4.2 21l-.2 8c-.2 1.8-.6 3.6-.6 5.4-.6 11.2-5.6 23.2-5.6 34.602 0 .398.4 4.398.4 5 0 .198 0 1.8-.8 1.8-1.8 0-2.8-2-3.4-3.6-1.4-3.6-1.6-7.4-2.6-10.8-2-7.6-4.8-15.398-6.4-23-.8-3.8-1.4-11.2-1.4-11.6v-14c.2-1.2.2-2.4.4-3.6.2-1.8.4-4 1-5.6.4-1.6.8-3.4 1.6-4.8.4-1.2 2.2-3.6 2.2-4 0-.6-1.6-3-2-4.4.8 1 1.8 2.4 2.8 3.6.6-1 2.6-1.6 3.6-1.6zM69.4 4.6C70 3.6 72 3 73 3c1.2 0 2.2 1.2 2.8 1.2s2-2.2 2.6-3.4c0 1.4-1 2.8-1.8 4.2.6.6 1.2 1.4 1.4 2 4.4 8.4 6 16.6 6 24.6l-.2 8.2c-.6 8.4-2.4 17-4.4 25.6-1 3.802-1.8 8.2-1.8 12.2-.2 5 .2 6 .2 6.4s.2 2.4-.8 2.4c-1.8 0-2.6-1.603-3.4-3.4-1-2.6-1-5.6-1.8-8.2-2.2-8.6-5-17.2-7-25.8-.8-3.4-1.4-10.2-1.4-10.6V22.6c.2-1 .4-2.2.4-3.2.4-3.8 1.4-7.8 3.2-11.4.4-1 1.6-2.2 1.6-2.6 0-.6-2-3.4-2-3.8v-1c0 1 1.6 2.6 2.8 4zm270 0c1-1.4 2.396-1.6 3.396-1.6 1.2 0 1.4 0 3 1.2 1-1.2 1.803-2.4 2.2-3.6 0 0 .2-.2.2.4 0 1.2-1.602 3-1.602 3.8 0 .6 2 3 2.602 4.6C353 19 354 23 354 31.6l-.2 7-1.4 12.8c-.6 5.2-2.397 11-3.6 16.6-.198.8-3.6 18.4-8.4 18.4-.6 0-.8-2.4-.8-2.4 0-.398.398-2.6.8-4v-4.8c-.8-14-7-25.6-7-38.6V24.2c.2-1.2.2-2.6.4-4 .2-1 .4-2 .4-3 .4-2 .8-4.4 1.6-6.2.6-2 2.802-5.2 2.802-5.8 0-.4-1.602-2.8-1.602-3.2V.4c.602 1.4 1.4 2.8 2.4 4.2zm-240 0C100 3.6 102 3 103 3c.8 0 1.2 0 2.8 1.2 1-1.2 1.8-2.4 2.2-3.6 0 0 .2-.2.2.4 0 1.2-1.6 3-1.6 3.8 0 .6 2.2 3.4 3 5.4 3.4 7.6 4.4 14 4.4 21.6l-.2 7c-.6 5.4-1.2 11.4-2.2 17.2-.4 2.4-1.4 5-1.8 7.602C109 68.2 108 73.8 108 78.8c0 .6.2 4 .2 4.6 0 .4.4 1 .4 1.603 0 .397-.2 1-.4 1.397-2.4-.197-4-4.397-4.4-5.8-3.2-11.398-7.4-22.802-9.4-34.2-.6-3.2-1-9.4-1-9.8V24.2c.2-1.2.2-2.6.4-4 .2-1 .4-2.2.4-3.2.6-2.2 1-4.6 1.8-6.6.6-1.8 2.6-4.6 2.6-5.2 0-.4-1.6-2.8-1.6-3.2V.4c.6 1.4 1.4 2.8 2.4 4.2z"/></g><g class="B"><ellipse transform="matrix(.9994 -.0342 .0342 .9994 -.3481 .6212)" cx="17.963" cy="10.475" rx=".378" ry="1.199"/><ellipse transform="matrix(.9995 -.0323 .0323 .9995 -.3448 .2755)" cx="8.353" cy="10.808" rx=".378" ry="1.199"/></g><g class="C"><path d="M13.25 59.25s-2 .125-2 2.375-.375 4.5-.125 4.875.5 2.625.625 3.25-.75 3 .125 3.25l.875.25s.55.25 1.525-1.375.975-1 1.725-2.75 1.607-.875 1.116-2.875l-.616-3.125c0-.5 1.107-.5.616-2S16 58.375 13.25 59.25z"/><use xlink:href="#B"/><use xlink:href="#C"/></g><g class="B"><ellipse transform="matrix(.9994 -.0336 .0336 .9994 -.3249 1.6116)" cx="47.796" cy="10.474" rx=".378" ry="1.199"/><ellipse transform="matrix(.9995 -.0323 .0323 .9995 -.329 1.2384)" cx="38.187" cy="10.809" rx=".378" ry="1.199"/></g><g class="C"><use xlink:href="#D"/><use xlink:href="#B" x="29.843"/><use xlink:href="#C" x="29.833"/></g><g class="B"><ellipse transform="matrix(.9994 -.0336 .0336 .9994 -.3079 2.6194)" cx="77.796" cy="10.473" rx=".378" ry="1.199"/><ellipse transform="matrix(.9995 -.0329 .0329 .9995 -.319 2.2511)" cx="68.188" cy="10.81" rx=".378" ry="1.199"/></g><g class="C"><use xlink:href="#D" x="30"/><use xlink:href="#B" x="59.843"/><use xlink:href="#C" x="59.833"/></g><g class="B"><ellipse transform="matrix(.9994 -.0336 .0336 .9994 -.291 3.6217)" cx="107.629" cy="10.472" rx=".378" ry="1.199"/><ellipse transform="matrix(.9995 -.0323 .0323 .9995 -.2981 3.1721)" cx="98.021" cy="10.811" rx=".378" ry="1.199"/></g><g class="C"><use xlink:href="#D" x="59.834"/><use xlink:href="#B" x="89.676"/><use xlink:href="#C" x="89.666"/></g><g class="B"><ellipse transform="matrix(.9994 -.0336 .0336 .9994 -.2741 4.6295)" cx="137.629" cy="10.471" rx=".378" ry="1.199"/><ellipse transform="matrix(.9995 -.0323 .0323 .9995 -.2823 4.1386)" cx="128.022" cy="10.811" rx=".378" ry="1.199"/></g><g class="C"><use xlink:href="#D" x="89.834"/><use xlink:href="#B" x="119.676"/><use xlink:href="#C" x="119.666"/></g><g class="B"><ellipse transform="matrix(.9994 -.0336 .0336 .9994 -.2572 5.6317)" cx="167.462" cy="10.47" rx=".378" ry="1.199"/><ellipse transform="matrix(.9995 -.0323 .0323 .9995 -.2668 5.1017)" cx="157.855" cy="10.812" rx=".378" ry="1.199"/></g><g class="C"><path d="M162.75 59.25s-2 .125-2 2.375-.375 4.5-.125 4.875.5 2.625.625 3.25-.75 3 .125 3.25l.875.25s.55.25 1.525-1.375.975-1 1.725-2.75 1.607-.875 1.116-2.875L166 63.125c0-.5 1.107-.5.616-2s-1.116-2.75-3.866-1.875z"/><use xlink:href="#B" x="149.51"/><use xlink:href="#C" x="149.498"/></g><g class="B"><ellipse transform="matrix(.9994 -.0336 .0336 .9994 -.2402 6.6396)" cx="197.463" cy="10.469" rx=".378" ry="1.199"/><ellipse transform="matrix(.9995 -.0323 .0323 .9995 -.2511 6.0702)" cx="187.856" cy="10.812" rx=".378" ry="1.199"/></g><g class="C"><path d="M192.75 59.25s-2 .125-2 2.375-.375 4.5-.125 4.875.5 2.625.625 3.25-.75 3 .125 3.25l.875.25s.55.25 1.525-1.375.975-1 1.725-2.75 1.607-.875 1.116-2.875L196 63.125c0-.5 1.107-.5.616-2s-1.116-2.75-3.866-1.875z"/><use xlink:href="#B" x="179.5"/><use xlink:href="#C" x="179.5"/></g><g class="B"><ellipse transform="matrix(.9994 -.0336 .0336 .9994 -.2234 7.6418)" cx="227.296" cy="10.468" rx=".378" ry="1.199"/><ellipse transform="matrix(.9995 -.0323 .0323 .9995 -.2357 7.0379)" cx="217.69" cy="10.813" rx=".378" ry="1.199"/></g><g class="C"><use xlink:href="#D" x="179.5"/><use xlink:href="#B" x="209.343"/><use xlink:href="#C" x="209.333"/></g><g class="B"><ellipse transform="matrix(.9994 -.0336 .0336 .9994 -.2061 8.6553)" cx="257.631" cy="10.465" rx=".378" ry="1.199"/><ellipse transform="matrix(.9995 -.0316 .0316 .9995 -.2179 7.8524)" cx="248.025" cy="10.812" rx=".378" ry="1.199"/></g><g class="C"><use xlink:href="#E"/><use xlink:href="#F"/><path d="M244.44 31.113s-.715 2.638-.31 4.432.756 2.658 2.064 3.305 1.36-.427 1.893.75.458 2.02.458 2.02-1.32-.76-.438 2.104c.888 2.865 1.125 3.4 3.043 2.493s2.635.698 2.338 1.475-1.55 2.003-1.197 2.513.854 2.518 3.498 1.8 4.156-2.358 4.9-3.235 1.103-1.898.867-3.97-.6-3.165-1.146-5.045-3.082-4.37-3.693-5.175-5.665-3.432-5.665-3.432-4.484-2.17-6.61-.035z"/></g><g class="B"><ellipse transform="matrix(.9994 -.0336 .0336 .9994 -.1894 9.6568)" cx="287.462" cy="10.467" rx=".378" ry="1.199"/><ellipse transform="matrix(.9995 -.0323 .0323 .9995 -.2044 8.9873)" cx="277.858" cy="10.817" rx=".378" ry="1.199"/></g><g class="C"><path d="M282.75 59.25s-2 .125-2 2.375-.375 4.5-.125 4.875.5 2.625.625 3.25-.75 3 .125 3.25l.875.25s.55.25 1.525-1.375.975-1 1.725-2.75 1.607-.875 1.116-2.875L286 63.125c0-.5 1.107-.5.616-2s-1.116-2.75-3.866-1.875z"/><use xlink:href="#G"/><use xlink:href="#H"/></g><g class="B"><ellipse transform="matrix(.9994 -.0342 .0342 .9994 -.1722 10.8689)" cx="317.462" cy="10.466" rx=".378" ry="1.199"/><ellipse transform="matrix(.9995 -.0324 .0324 .9995 -.1889 9.9829)" cx="307.858" cy="10.818" rx=".377" ry="1.199"/></g><path d="M312.75 59.25s-2 .125-2 2.375-.375 4.5-.125 4.875.5 2.625.625 3.25-.75 3 .125 3.25l.875.25s.55.25 1.525-1.375.975-1 1.725-2.75 1.607-.875 1.117-2.875L316 63.125c0-.5 1.107-.5.617-2s-1.117-2.75-3.867-1.875zm-3.04-43.248c-2.2 1.22-2.53 3.367-2.05 4.655s1.865 3.17 4.244 4.557 3.9 1.288 5.412 1.685 3.008-.594 2.908-2.377-1.584-3.27-2.478-4.756-2.377-2.972-3.565-3.367-2.507-1.487-4.472-.397zm-5.44 15.11s-.715 2.638-.3 4.432.756 2.658 2.065 3.305 1.36-.427 1.892.75.46 2.02.46 2.02-1.323-.76-.438 2.104 1.125 3.4 3.043 2.493 2.634.698 2.338 1.475-1.55 2.003-1.198 2.513.854 2.518 3.498 1.8 4.157-2.358 4.9-3.235 1.103-1.898.867-3.97-.602-3.165-1.146-5.045-3.082-4.37-3.693-5.175-5.663-3.432-5.663-3.432-4.488-2.17-6.615-.035z" class="C"/><g class="B"><ellipse transform="matrix(.9994 -.0336 .0336 .9994 -.1554 11.6807)" cx="347.297" cy="10.461" rx=".378" ry="1.199"/><ellipse transform="matrix(.9995 -.0322 .0322 .9995 -.1731 10.8933)" cx="337.695" cy="10.814" rx=".379" ry="1.199"/></g><path d="M342.584 59.25s-2 .125-2 2.375-.375 4.5-.125 4.875.5 2.625.625 3.25-.75 3 .125 3.25l.875.25s.55.25 1.523-1.375.977-1 1.727-2.75 1.605-.875 1.115-2.875l-.615-3.125c0-.5 1.105-.5.615-2s-1.115-2.75-3.865-1.875zm-3.04-43.248c-2.197 1.22-2.53 3.367-2.05 4.655s1.867 3.17 4.246 4.557 3.9 1.288 5.412 1.685 3.008-.594 2.908-2.377-1.586-3.27-2.478-4.756-2.377-2.972-3.565-3.367-2.5-1.487-4.474-.397zm-5.438 15.11s-.715 2.638-.3 4.432.757 2.658 2.063 3.305 1.36-.427 1.894.75.457 2.02.457 2.02-1.32-.76-.437 2.104 1.125 3.4 3.04 2.493 2.636.698 2.338 1.475-1.55 2.003-1.196 2.513.854 2.518 3.498 1.8 4.155-2.358 4.9-3.235 1.103-1.898.87-3.97-.602-3.165-1.146-5.045-3.082-4.37-3.693-5.175-5.665-3.432-5.665-3.432-4.485-2.17-6.612-.035z" class="C"/><g class="B"><ellipse transform="matrix(.9994 -.0336 .0336 .9994 -.1383 12.6841)" cx="377.632" cy="10.46" rx=".378" ry="1.199"/><ellipse transform="matrix(.9995 -.0323 .0323 .9995 -.1573 11.8867)" cx="368.028" cy="10.814" rx=".378" ry="1.199"/></g><g class="C"><use xlink:href="#E" x="120"/><use xlink:href="#F" x="120"/><path d="M364.44 31.113s-.715 2.638-.31 4.432.756 2.658 2.064 3.305 1.36-.427 1.893.75.458 2.02.458 2.02-1.32-.76-.438 2.104 1.125 3.4 3.043 2.493 2.635.698 2.338 1.475-1.55 2.003-1.197 2.513.854 2.518 3.498 1.8 4.156-2.358 4.9-3.235 1.103-1.898.867-3.97-.6-3.165-1.146-5.045-3.082-4.37-3.693-5.175-5.665-3.432-5.665-3.432-4.484-2.17-6.61-.035z"/></g><g class="B"><ellipse transform="matrix(.9994 -.0336 .0336 .9994 -.1216 13.6855)" cx="407.461" cy="10.463" rx=".378" ry="1.199"/><ellipse transform="matrix(.9995 -.033 .033 .9995 -.1404 13.1235)" cx="397.86" cy="10.821" rx=".378" ry="1.199"/></g><g class="C"><path d="M402.75 59.25s-2 .125-2 2.375-.375 4.5-.125 4.875.5 2.625.625 3.25-.75 3 .125 3.25l.875.25s.55.25 1.525-1.375.975-1 1.725-2.75 1.607-.875 1.116-2.875L406 63.125c0-.5 1.107-.5.616-2s-1.116-2.75-3.866-1.875z"/><use xlink:href="#G" x="120"/><use xlink:href="#H" x="120"/></g><g class="B"><ellipse transform="matrix(.9994 -.0342 .0342 .9994 -.1018 14.9751)" cx="437.462" cy="10.463" rx=".378" ry="1.199"/><ellipse transform="matrix(.9995 -.033 .033 .9995 -.124 14.1309)" cx="427.86" cy="10.822" rx=".377" ry="1.199"/></g><path d="M432.75 59.25s-2 .125-2 2.375-.375 4.5-.125 4.875.5 2.625.625 3.25-.75 3 .125 3.25l.875.25s.55.25 1.525-1.375.975-1 1.725-2.75 1.607-.875 1.117-2.875L436 63.125c0-.5 1.107-.5.617-2s-1.117-2.75-3.867-1.875zm-3.04-43.248c-2.2 1.22-2.53 3.367-2.05 4.655s1.866 3.17 4.244 4.557 3.9 1.288 5.413 1.685 3.007-.594 2.907-2.377-1.585-3.27-2.478-4.756-2.377-2.972-3.565-3.367-2.507-1.487-4.472-.397zm-5.438 15.11s-.716 2.638-.3 4.432.756 2.658 2.065 3.305 1.36-.427 1.892.75.46 2.02.46 2.02-1.323-.76-.438 2.104 1.125 3.4 3.042 2.493 2.634.698 2.338 1.475-1.55 2.003-1.198 2.513.854 2.518 3.498 1.8 4.157-2.358 4.9-3.235 1.103-1.898.867-3.97-.602-3.165-1.146-5.045-3.082-4.37-3.693-5.175-5.664-3.432-5.664-3.432-4.485-2.17-6.612-.035z" class="C"/><g class="B"><ellipse transform="matrix(.9994 -.0336 .0336 .9994 -.0876 15.6944)" cx="467.298" cy="10.456" rx=".378" ry="1.199"/><ellipse transform="matrix(.9995 -.0322 .0322 .9995 -.1109 14.7434)" cx="457.697" cy="10.816" rx=".379" ry="1.199"/></g><path d="M462.584 59.25s-2 .125-2 2.375-.375 4.5-.125 4.875.5 2.625.625 3.25-.75 3 .125 3.25l.875.25s.55.25 1.524-1.375.976-1 1.726-2.75 1.606-.875 1.115-2.875l-.615-3.125c0-.5 1.106-.5.615-2s-1.115-2.75-3.865-1.875zm-3.04-43.248c-2.198 1.22-2.53 3.367-2.05 4.655s1.867 3.17 4.246 4.557 3.9 1.288 5.412 1.685 3.008-.594 2.907-2.377-1.585-3.27-2.477-4.756-2.377-2.972-3.566-3.367-2.508-1.487-4.473-.397zm-5.438 15.11s-.716 2.638-.3 4.432.756 2.658 2.064 3.305 1.36-.427 1.893.75.457 2.02.457 2.02-1.322-.76-.437 2.104 1.125 3.4 3.042 2.493 2.635.698 2.338 1.475-1.55 2.003-1.197 2.513.854 2.518 3.498 1.8 4.156-2.358 4.9-3.235 1.103-1.898.868-3.97-.6-3.165-1.146-5.045-3.082-4.37-3.693-5.175-5.665-3.432-5.665-3.432-4.484-2.17-6.6-.035z" class="C"/><defs ><path id="B" d="M10.2 16.002c-2.2 1.22-2.53 3.367-2.05 4.655s1.867 3.17 4.245 4.557 3.89 1.288 5.413 1.685 3.007-.594 2.908-2.377-1.585-3.27-2.477-4.756-2.377-2.972-3.566-3.367-2.51-1.487-4.474-.397z"/><path id="C" d="M4.772 31.113s-.715 2.638-.31 4.432.756 2.658 2.065 3.305 1.36-.427 1.892.75.458 2.02.458 2.02-1.323-.76-.437 2.104 1.125 3.4 3.042 2.493 2.634.698 2.338 1.475-1.55 2.003-1.198 2.513.855 2.518 3.498 1.8 4.157-2.358 4.9-3.235 1.102-1.898.868-3.97-.6-3.165-1.146-5.045-3.082-4.37-3.693-5.175-5.665-3.432-5.665-3.432-4.487-2.17-6.614-.035z"/><path id="D" d="M43.083 59.25s-2 .125-2 2.375-.375 4.5-.125 4.875.5 2.625.625 3.25-.75 3 .125 3.25l.875.25s.55.25 1.525-1.375.975-1 1.725-2.75 1.607-.875 1.116-2.875l-.616-3.125c0-.5 1.107-.5.616-2s-1.116-2.75-3.866-1.875z"/><path id="E" d="M252.917 59.25s-2 .125-2 2.375-.375 4.5-.125 4.875.5 2.625.625 3.25-.75 3 .125 3.25l.875.25s.55.25 1.524-1.375.976-1 1.726-2.75 1.606-.875 1.116-2.875l-.616-3.125c0-.5 1.106-.5.616-2s-1.116-2.75-3.866-1.875z"/><path id="F" d="M249.877 16.002c-2.2 1.22-2.53 3.367-2.05 4.655s1.867 3.17 4.245 4.557 3.89 1.288 5.413 1.685 3.007-.594 2.908-2.377-1.586-3.27-2.48-4.756-2.377-2.972-3.564-3.367-2.51-1.487-4.474-.397z"/><path id="G" d="M279.7 16.002c-2.198 1.22-2.53 3.367-2.05 4.655s1.866 3.17 4.245 4.557 3.89 1.288 5.412 1.685 3.008-.594 2.908-2.377-1.584-3.27-2.478-4.756-2.377-2.972-3.565-3.367-2.508-1.487-4.473-.397z"/><path id="H" d="M274.27 31.113s-.715 2.638-.3 4.432.756 2.658 2.063 3.305 1.36-.427 1.894.75.458 2.02.458 2.02-1.322-.76-.438 2.104 1.125 3.4 3.04 2.493 2.636.698 2.338 1.475-1.55 2.003-1.196 2.513.854 2.518 3.498 1.8 4.155-2.358 4.9-3.235 1.104-1.898.87-3.97-.602-3.165-1.146-5.045-3.082-4.37-3.693-5.175-5.664-3.432-5.664-3.432-4.486-2.17-6.613-.035z"/></defs></svg>