<svg xmlns="http://www.w3.org/2000/svg" xmlns:xlink="http://www.w3.org/1999/xlink" width="304" height="108"><style><![CDATA[.B{fill:#28334c}.C{fill:#ff7300}]]></style><path fill="#f7f7f7" d="M284.846 91.602c1 1.398 3.4 2 4 4.198-.2 0-.4.2-.8.2-1 0-4.4-3.6-4.602-4.398-.602-1.802-1.198-5-1.198-5.398v-.602c.8 2 1.4 4 2.6 6zm-266 0c1 1.398 3.4 2 4 4.198-.2 0-.4.2-.8.2-1 0-4.4-3.6-4.6-4.398-.6-1.802-1.2-5-1.2-5.398v-.602c.8 2 1.4 4 2.6 6zm42.4-.802c.8.802 3 1.4 3.6 2.6v.6h-1.4c-4.4-1.6-5.8-6-6.4-9 1 1.8 1.8 4 4.2 5.8zm222.6-5.198c2.8 2.602 7.6 9.198 7.6 11.8 0 1.2-.397 1.4-1 1.4-2.197 0-5.8-3.4-7.6-3.4-.6.603-1 1.4-1.4 2.2-.6 1.198-1.397 8.8-5.8 8.8-1.6 0-2.396-3.6-2.396-4.197 0-6.2 2.396-12.803 4.602-18.803.398.603 1 1.4 1 2 0 0-4 11.803-4 13.803 0 .8-.2 1.197.8 2 .2 0 .6-.4.6-.602.6-2 1.2-4.2 1.4-6.2l.6-3.6c.4-1.6.6-3.198.8-4.8 1 .2 1 1 1 1.602 0 .398-.4 4.198-.4 4.8 0 1-.197 2 .803 2 1.197 0 1.398-1.6 1.398-1.8 0-.398-.8-5.2-.8-5.802 0-.4.8-1 1-1.4.2-.6.398-1.397.8-2.197.19.796.39 1.796.992 2.398zm-266 0c2.6 2.398 7.6 8.8 7.6 11.8 0 1.2-.4 1.4-1 1.4-2.2 0-5.8-3.4-7.6-3.4-.6.603-1 1.4-1.4 2.2-.6 1.198-1.4 8.8-5.8 8.8-1.6 0-2.4-3.6-2.4-4.197 0-6.2 2.4-12.803 4.6-18.803.4.603 1 1.4 1 2 0 0-4 11.803-4 13.803 0 .8-.2 1.197.8 2 .2 0 .6-.4.6-.602.6-2 1.2-4.2 1.4-6.2l.6-3.6c.4-1.6.6-3.198.8-4.8 1 .2 1 1 1 1.602 0 .398-.4 4.198-.4 4.8 0 1-.2 2 .8 2 1.2 0 1.4-1.6 1.4-1.8 0-.398-.8-5.2-.8-5.802 0-.4.8-1 1-1.4.2-.6.4-1.397.8-2.197.2.796.4 1.796 1 2.398zM143.645 87c1.2.602 3.8.4 4.8 1.8-.2.4-.8.802-1.2.802-3.4 0-7.2-3.398-9-7 1.8 1.798 3.4 3.598 5.4 4.398zm104.2-2.2c1 1 2.4 1.6 3.6 2.802 1.803 1.8 5.4 6.398 5.4 8.398 0 1.2-1.2 1-1.4 1-2.397 0-5.197-2.398-7.6-2.398-.6 1-1 2-1.2 3-.396 1-.8 8.602-4.8 8.602-1.2 0-2.6-2.803-2.6-3.2v-8.8l2.4-10.803c.397.4 1.197 1 1.197 1.603 0 .2-2.398 10.8-2.398 13.2 0 .8-.198 2.197.802 2.8h.6c.8-3.2.8-7.397 1.2-10.397 0-4 .2-4.4.2-5 1.198-.2 1.198 1.8 1.198 2.8v4.2c.2.6.398 1 .802 1.397.198-.2 1.198-1.2 1.4-1.8l-1.4-6c0-.4.4-.803.8-1.2 0 .2.2.603.2 1 .6 1.397 1 3.397 1.8 5 .2.397 3.8 3.8 5 3.8.398 0 .6-.197 1-.396v-.8c-1.2-1-2.8-1.803-4-2.803-.4-.396-3.8-5.396-3.8-6.6 0-.4.198-1.2.4-1.803.4.8.6 1.6 1.202 2.4zm-189.4-.4c.8.8 2 1.6 3 2.2 1.6 1 6.4 7 6.4 8.8 0 1.2-.8 1.2-1.2 1.2s-6.6-2.4-7.2-2.4c-1.6 0-2 4-2 4.4 0 1.397-.4 3-.8 4.397 0 .603-2.2 3.2-3.4 3.2-2.8 0-3-5.4-3-6.602v-5.398l2-10.803c.4.2 1.4.803 1.4 1.4 0 .4-.2.4-.4.6-.4 2.2-1.6 8.803-1.6 12 0 .803-.2 3 .8 3.603h.6c.4-1 .4-2.2.6-3.397l.2-12.2c2.2-2 .2 8.396 2.4 8.396.8 0 1.2-1.6 1.4-1.6l-1.8-6.4c.2-.396.8-1 1-1 .2-.197 0-.197 0-.6 0-.602.2-1.2.4-1.803.4.607.6 1.407 1.2 2.007zm153.6-.4c1 .8 2.6 1.4 3.8 2.4s6.2 6 6.2 7.8c0 1.2-1.602 1-1.8 1-.4 0-4.802-1.2-7.2-1.6-1 1.197-1 3-1.2 4.6 0 .2-.2 7.6-3.8 7.6-3.2 0-3.602-8.198-3.602-9V92l1.2-9c.6.602 1.197 1.2 1.197 1.602l-1 11.602c0 1.398-.6 3.398 1.4 4.6.197 0 .396-.396.6-.6v-7l-.6-7.602c0-.398 0-.602.197-.802.2 0 .603.2.803.4.197 1 .396 2 .396 3 0 .4 0 5 1.604 5 1 0 1.197-1.6 1.197-1.6 0-.4-2.197-6-2.197-6.4 0-.6.396-.4.8-.8.2.396.397 1 .603 1.6.6 1 1.197 2.602 2 4 .397.602 4.197 3.2 5.197 3.2.602 0 .803-.2 1.2-.6-1.2-2.2-3.603-1.803-5-3.603-2.397-2.8-4-4.397-4-7 0-.603 0-.2.2-.397.605.8 1.004 1.6 1.804 2.4zm-112.4-.6c1.2.8 2.8 1.8 4.4 2.6 1.4.8 6 5.2 6 7 0 .8-1.6 1-2 1s-5.8-1.2-6.2-1.2c-1.4 0-1.6 1.6-1.6 2.802v5.602c-.4 1.197-1.8 4.197-3.4 4.197-1.4 0-2.6-1.6-3-2.8-.8-2.602-1-5.398-1.4-8.2l.4-11.8c.4.398 1.2 1 1.2 1.602v12.398c.4 1.198 0 2.398 1.4 3.8h.8v-3l-1.6-13.197c.4.197.8.398 1 .6.4 1.2.6 2.604.8 3.803.2.197.2 4 1.8 4 .8 0 1.2-1.2 1.2-1.603 0-.397-2-4.2-2.8-6.397.2 0 .6-.2.8-.603.2.2.2.603.4 1 .6 1.2 1.4 2.603 2.2 3.8.4.4 4.2 3.2 5 3.2h1.6c0-.2.2-.2.2-.8 0-1.4-4-2-4.6-2.602-2-1.602-3.8-3.398-4.8-5.2-.4-.6-.4-1.8-.4-2.197 0-.602 0-.2.2-.4.6.798 1.2 1.798 2.4 2.596zm85.2 9.8c-.4 0-4.6-.8-6.8-.8-.8 1.396-.8 4-.602 5.6.2 1.2.2 2.602-.198 4-.2 1-1.802 3.2-3 3.2-1 0-2.4-1.4-2.802-2.4-1-2.8-2-8.4-2-8.8V82.2c.2.4.802 1 1.398 1.4l.2 11.197c.2 1 0 5.4 1.8 5.4.602 0 .803-.4.803-.803l-2.4-15.197c1.4.398 1.198-.2 1.198.6 0 .4 1.802 7.604 2.602 7.604 1 0 1.2-1.2 1.2-1.4 0-.6-2.802-5.8-2.802-6.2 0-.6.398-.6.802-1 1 2.2 3.4 6.802 6.8 7.2.2.2.2.4.8.4h1.8c0-.2.2-.2.2-.8 0-1.2-3.8-2-3.8-2-1.8-.603-4.8-3.603-6-5.603-.4-.8-.4-1.603-.602-2.397.802.6 1.802 1.6 2.802 2.397 1.6 1 3.4 1.603 5 2.8 1.4 1 5.8 4.4 5.8 6.4 0 1.204-2 1.004-2.2 1.004zm-34.4-2l-7.2-.2c-.6.4-.6 1.8-.6 2 0 .4.8 6.2.8 6.8 0 1-1.2 4.4-2.8 4.4-1.2 0-2.2-.8-3.2-2.2-.8-1.2-1-2.6-1.4-3.6-1.2-3.4-2.2-7.8-2.2-11 0-1.604-.6-4.604-.6-5v-.8c.4.4 1.2.603 1.4 1.4.4.6.2 1.6.4 2.4 1 4.8.2 9.397 3.4 14h.6c.2-.2.4-.4.4-.603l-4.2-15.196c.6 0 1 0 1.2.396 1 .8 2.2 7.398 3.6 7.398 1 0 1-1.2 1-1.398 0-1.2-3.4-5.2-3.4-5.8s.2-1.2.6-1.8c-1.2-.398-1.2-2.2-1.6-3 1.2.8 2.2 1.8 3.2 2.398 1.8.8 3.8 1.4 5.6 2.4.6.4 6.6 3.6 6.6 6 0 .81-1.4 1.01-1.6 1.01z"/><g fill="#fff"><path d="M282.8 5.2c5.2 7.6 7.4 17.8 7.4 26l-.2 7c-.6 6.6-1.2 13.2-2.8 19.8-1.2 5-2.6 10.2-3.6 15.602C283 77 282.8 81 282.2 84.8c-.2 1.4-1.2 2-2.2 2-1.2 0-2-3.198-2-3.4 0-.6-.6-1.8-.6-2.6 0-12.8-6.8-26.6-7.8-39.2 0-1.4-.4-4.2-.4-4.6V23.6c.4-6 1.6-12 5.4-18-1-1-2.2-2.4-2.603-3.4v-.6c.8 1 2.603 3.2 3.2 3.2.398 0 1.8-1.4 2.8-1.6h.8c1.2 0 1.604.6 3.398 1.4 1-1 2.2-2.2 3-3.2C285 2.2 284 4.2 282.8 5.2zm-45.6-.4c1.8-1 2.6-1.6 3.6-1.6.802 0 2.6.2 3.2 1.4 1-1 2.2-2.2 2.8-3.2 0 2-2 3.2-2 3.8s2 3 2.6 4.6c3 6.4 4.803 14.6 4.803 21.6 0 .4 0 1.8-.2 6.4-.2 1.8-.603 3.8-.603 5.6-.397 10.6-5.197 22.4-5.197 33.2 0 3.8.197 5.2.197 5.603 0 1.198 0 3.8-2.197 3.8-.602 0-1.4-1-2-1.602-1.602-2.198-1.602-5.398-2.2-7.398-1-5.2-2.397-10.8-4-15.8-1.8-6-4.8-18.2-4.8-25V24.4c.197-1.2.197-2.6.398-3.8.602-3.2 1.198-6.4 2.198-9.6.6-2 2.802-5 2.802-5.4 0-.6-2.398-3.2-2.398-3.6v-.6C235 2.4 236 3.6 237.2 4.8zm-220.4.4c5.4 7.8 7.4 17.6 7.4 25.6L24 38c-.6 6.2-1.2 13.6-2.8 20-1.2 5-2.6 10.4-3.6 15.602C16.8 77 16.8 81 16.2 84.8c-.2 1.802-1 1.802-1.8 1.802-1.6 0-2.4-2.802-2.4-3.2 0-.6-.6-1.8-.6-2.6 0-13-6.8-26-7.8-39 0-1.6-.4-4.4-.4-4.8V23.6c.4-6 1.6-12 5.4-18-1-1-2.2-2.4-2.6-3.4v-.6c.8 1 2.6 3.2 3.2 3.2.4 0 1.8-1.4 2.8-1.6h.8c1.2 0 2 .2 3.4 1.4 1-1 2.2-2.2 3-3.2-.2.8-1.2 2.8-2.4 3.8zm38 0c0 .4 2.4 3.8 3 5.6.8 2 4.2 12 4.2 15.4V37c-.4 5.8-1 11.4-2 17-.6 3.602-1.8 7.4-2.4 11.2-.6 3.6-1 10.8-1 11.4 0 .397.4 6 .4 6.397 0 1.2-.6 2.603-1.8 2.603-3.6 0-4.6-7.803-4.8-8.2-.4-2.2-1.2-4.8-1.8-7-1.2-4.4-2.4-9.2-3.8-13.4-1.6-5.2-3.6-15.8-3.6-21.8v-9.6c.2-1.4.2-3 .4-4.6.2-2 .4-4 1-6a27 27 0 0 1 2.2-6.4c.4-1.2 1.8-2.6 1.8-3 0-.2-2.4-2.6-2.2-4.2.6 1 1.6 2.2 2.8 3.4 1.8-1 2.6-1.6 3.6-1.6 1.4 0 2.4 1.2 3.2 1.2.4 0 2-2 2.8-3.2 0 2-2 3.2-2 4zm148.2-2c1 0 2 .2 3 1.4 1-1.2 2-2.4 2.602-3.6 0 1.4-1 2.8-2 4.2 1.602 1.4 2.602 3.8 3.198 5.6 1 2 4.2 11.8 4.2 15.6V37c-.398 5.4-.8 10.8-1.8 16-1.6 9.4-3 12-3 20 0 .4 0 5.4.6 8 0 .602.4 1.2.4 1.8 0 1 0 2.4-1.6 2.4-2.4 0-4.4-4.4-5-6.4-.602-2.8-1.802-5.4-2.602-8-2.2-7.198-5-15.198-6.396-22.6-.6-3.2-1.2-9.4-1.2-9.8V22.8c.2-1 .397-2.2.397-3.2.4-3.2 1.2-6.6 2.4-9.6.398-1.4 2.398-4 2.398-4.4 0-.6-1.2-1.4-1.6-2.2-.393-.6-.393-1.4-.595-2.4.6 1 1.6 2.4 2.8 3.8 1.2-.8 2.8-1.6 3.8-1.6zm-38 0c1 0 1.8.6 3 1.2.8-1 1.602-2.2 2.2-3.2 0 0 .2-.2.2.4 0 .4-1.8 3-1.8 3.6 0 .4.6.8.8 1.2 1 1 1.6 2.4 2.2 4 3.398 7.4 4.398 13.8 4.398 21.4l-.2 7.8c-.397 4.4-.8 8.8-1.6 13.2C172.6 61 172 61.6 172 68.4c0 .396 0 5.8.602 8.8.198 2 1.398 5.4 1.398 6 0 .8 0 1.4-1 1.4-3.8 0-6.8-7.603-7.6-9.2-3.8-8.604-6.8-17.604-8.604-26.2C156 45.4 155.4 38 155.4 37.6v-14c.2-1.2.2-2.4.396-3.6.2-.8.398-1.8.398-2.8.602-2.2 1-4.6 1.802-6.6.603-1.8 2.603-4.6 2.603-5 0-.6-1.603-3-2-4.4.8 1 1.8 2.4 2.8 3.6.6-1 2.6-1.6 3.6-1.6zM85.4 4.8c.4-1 2.8-1.6 3.4-1.6.8 0 2.8 1.2 3 1.2.6 0 2-2.2 2.6-3.4 0 1.4-1 2.8-1.8 4.2.6.8 1.2 1.4 1.6 2.4 4.6 8.8 5.8 15.6 5.8 24.2s-.6 13.8-2.2 23.4c-.2 2-1 4.2-1.4 6.2-.6 2.8-.6 5.6-.6 8.396 0 6.2 1.6 12.2 1.6 13.2 0 1.2-.2 1.8-1.4 1.8-4.6 0-8.2-12.6-8.4-13.197-2.6-7.2-5.4-15.4-6.8-22.4-.8-3.6-1.4-10.4-1.4-10.8V22.8c.2-1 .4-2.2.4-3.2.2-1.4.4-3.2.8-4.4 0-.6.2-1.6.6-2.2.4-1.4 1-3.2 1.6-4.4.4-1.2 1.8-2.6 1.8-3 0-.6-2-3.4-2-3.8v-1c0 1 1.6 2.6 2.8 4zm38 0c.6-1 2.6-1.6 3.6-1.6.8 0 1.2 0 2.8 1.2 1-1.2 1.8-2.4 2.2-3.6 0 0 .2-.2.2.4 0 1.2-1.6 3-1.6 3.8 0 .6 2 3 2.6 4.6 3.8 9 4.8 13.8 4.8 22.2l-.2 6.8-1.4 13c-.6 5-2.2 9.2-2.2 14 0 3.4.8 8.2 1.6 11.4.4 2.2 2.2 6 2.2 6.4 0 .6-.2.8-.8.8-1.2 0-4.2-2.6-5.2-3.8-7.4-9.4-10.2-19-12.6-28.603-1-4.4-2-10.4-2-15V24.4c.2-1.2.2-2.6.4-4 .2-1 .4-2.2.4-3.2.6-2.4 1.2-5.2 2.2-7.6.4-1.4 2.4-3.6 2.4-4 0-.6-1.8-3-1.8-3.4V.6c.6 1.4 1.4 2.8 2.4 4.2z"/><path d="M281.068 86.596l.6 5.8c0 .398-.2 1-.6 1.602h-1.2c.2-4.803.398-6.2 0-7.396h1.2v-.007zm-266 0l.6 5.8c0 .398-.2 1-.6 1.602h-1.2c.2-4.803.4-6.2 0-7.396h1.2v-.007zm270.2 5.2c.8 1 2.603 2 3.603 3.2v.6c-.2.2-.2.2-.802.2-1.198 0-3.602-2.398-4.198-3.398-.802-1.602-1.397-4.398-1.397-4.8v-1.6c.794 1.8 1.393 3.8 2.794 5.8zm-266 0c.8 1 2.6 2 3.6 3.2v.6c-.2.2-.2.2-.8.2-1.2 0-3.6-2.398-4.2-3.398-.8-1.602-1.4-4.398-1.4-4.8v-1.6c.8 1.8 1.4 3.8 2.8 5.8zm225.8-6l1.6 6.4c0 .8-1 1.4-1.4 1.4-.6 0-.8-3.604-.8-3.604v-4.2l.6.004zm31 15h-.603c-.397-.6-.397-1.398-.397-1.8 0-4 2.8-10 3.8-13.4a177.46 177.46 0 0 1-2.801 15.199zm-220.4-15c.6 2 1.8 5.602 1.8 6.2 0 .8-.6 1.4-1.2 1.4-1 0-1-4-1-4.2v-3.6c.2.001.4.001.4.2zm-45.6 15h-.6c-.4-.6-.4-1.398-.4-1.8 0-4 2.8-10 3.8-13.4-.6 4.4-1.6 10-2.8 15.2zm243-6.4c-1 0-4-2-4.603-3.2-1-1.8-1.6-3.8-2-5.6l.2-.2c.8 1.6 1.8 3.2 2.8 4.8s3.802 2 4.603 3.8a1.53 1.53 0 0 1-1 .4zm-10.2-3.4c-.4 2.8-.602 6.8-1.2 9.8-.4-.2-1-.6-1-1v-4c1-3.6 1-7.398 2.4-10.6 0 2.2 0 2.6-.2 5.8zm-33.6-5.8c.603 2 2.2 5.8 2.2 6.2 0 .6-.8 1.397-1.2 1.397-1 0-1.6-6-1.6-6.196v-1.4h.6zm-144.4 8.6c-.2 0-.4.2-.8.2-1.4 0-4.2-2.4-4.8-3.2-1.2-1.6-1.4-3.398-2-5.2 1 .8 1.6 2.4 3 4.2 1.4 1.2 3 2 4.6 3.2v.8zm34.4-2.8c0 .2-.6 1-1.2 1.4-1.4-2.4-1.8-5.2-2-7.603h.6c.8 2.004 2.6 5.805 2.6 6.204zm-45.6 3.6l-.6 6h-.6c-.4-.4-.6-.8-.6-1.2v-4.8l1.8-9.8v9.8zm122.6-3.8c0 .4-.397 1.2-1 1.2s-.6-.2-.8-.4c-.6-2-1.6-5.6-1.6-6v-1c1.2.8 3.4 5.6 3.4 6.2zm38.4-1.4c1.2 1.2 2.8 1.6 4.2 2.6v.602c-.2 0-.602.198-1 .198-3.4 0-7.4-6.198-7.4-8.4 1.2 1.598 2.4 3.598 4.2 5zm-7 2.8v8s0 .2-.4.2c-.8 0-1.2-1.603-1.2-1.8v-5.2c.398-3 .602-6.2 1-9l.598 7.8zm-70-8c1.2 1.8 3.4 5 3.4 5.6 0 .4-.4 1.2-1 1.2s-.8-.4-1-.8c-.8-1.8-2-5-2-5.4v-.6h.6zm-41.4 15.2c0 .2 0 .8-.6.8-1 0-1.4-3.2-1.4-3.4v-12.6l2 15.2zm5.8-11c1.4 1.2 3.2 1 4.8 2.6-.4.4-1 .8-1.2.8-4 0-7.4-6-7.8-7.8 1.2 1.4 2.4 3.2 4.2 4.4zm77-.4c1.397 1.2 3.2.8 4.8 2.4-.2.2-1.2.8-1.4.8-3 0-7.398-4.6-7.8-7.4 1.4 1.4 2.6 3 4.4 4.2zm-5.6 10.2v1.6s0 .2-.398.2c-1.398 0-1.8-4.8-1.8-5l-.2-11.2 2.398 14.4zm-34.2.8s0 .2-.4.2c-1.8 0-2.4-4.6-2.4-5-.6-2.8-1.2-8.2-1.2-8.6v-2c1.2 4.8 2.8 9.2 4 15.4zm3.8-12.6c1.6 1.2 3.6.6 5.4 2v.6c-.4.2-.8.4-1.4.4-3 0-7.2-3.2-8.6-6.604 1.4 1.003 2.8 2.403 4.6 3.604z"/></g><g class="B"><ellipse transform="matrix(.9994 -.0342 .0342 .9994 -.3481 .6212)" cx="17.963" cy="10.475" rx=".378" ry="1.199"/><ellipse transform="matrix(.9995 -.0323 .0323 .9995 -.3448 .2755)" cx="8.353" cy="10.808" rx=".378" ry="1.199"/></g><g class="C"><path d="M13.25 59.25s-2 .125-2 2.375-.375 4.5-.125 4.875.5 2.625.625 3.25-.75 3 .125 3.25l.875.25s.55.25 1.525-1.375.975-1 1.725-2.75 1.607-.875 1.116-2.875l-.616-3.125c0-.5 1.107-.5.616-2S16 58.375 13.25 59.25z"/><use xlink:href="#B"/><use xlink:href="#C"/></g><g class="B"><ellipse transform="matrix(.9994 -.0336 .0336 .9994 -.3206 1.8692)" cx="55.463" cy="10.474" rx=".378" ry="1.199"/><ellipse transform="matrix(.9995 -.0323 .0323 .9995 -.325 1.4859)" cx="45.854" cy="10.809" rx=".378" ry="1.199"/></g><g class="C"><path d="M50.75 59.25s-2 .125-2 2.375-.375 4.5-.125 4.875.5 2.625.625 3.25-.75 3 .125 3.25l.875.25s.55.25 1.525-1.375.975-1 1.725-2.75 1.607-.875 1.116-2.875L54 63.125c0-.5 1.107-.5.616-2s-1.116-2.75-3.866-1.875z"/><use xlink:href="#B" x="37.5"/><use xlink:href="#C" x="37.5"/></g><g class="B"><ellipse transform="matrix(.9994 -.0336 .0336 .9994 -.299 3.1513)" cx="93.629" cy="10.472" rx=".378" ry="1.199"/><ellipse transform="matrix(.9995 -.0323 .0323 .9995 -.3054 2.7198)" cx="84.021" cy="10.81" rx=".378" ry="1.199"/></g><g class="C"><use xlink:href="#D"/><use xlink:href="#B" x="75.676"/><use xlink:href="#C" x="75.666"/></g><g class="B"><ellipse transform="matrix(.9994 -.0336 .0336 .9994 -.2775 4.4251)" cx="131.546" cy="10.471" rx=".378" ry="1.199"/><ellipse transform="matrix(.9995 -.0323 .0323 .9995 -.2856 3.9447)" cx="121.938" cy="10.811" rx=".378" ry="1.199"/></g><g class="C"><use xlink:href="#D" x="38.916"/><use xlink:href="#B" x="113.593"/><use xlink:href="#C" x="113.583"/></g><g class="B"><ellipse transform="matrix(.9994 -.0336 .0336 .9994 -.2557 5.712)" cx="169.962" cy="10.47" rx=".378" ry="1.199"/><ellipse transform="matrix(.9995 -.033 .033 .9995 -.2693 5.2929)" cx="160.356" cy="10.813" rx=".378" ry="1.199"/></g><g class="C"><use xlink:href="#D" x="76.333"/><use xlink:href="#E"/><path d="M156.77 31.113s-.715 2.638-.3 4.432.756 2.658 2.063 3.305 1.36-.427 1.894.75.458 2.02.458 2.02-1.322-.76-.438 2.104 1.125 3.4 3.04 2.493 2.636.698 2.338 1.475-1.55 2.003-1.196 2.513.854 2.518 3.498 1.8 4.155-2.358 4.9-3.235 1.104-1.898.87-3.97-.602-3.165-1.146-5.045-3.082-4.37-3.693-5.175-5.664-3.432-5.664-3.432-4.486-2.17-6.613-.035z"/></g><g class="B"><ellipse transform="matrix(.9994 -.0336 .0336 .9994 -.2344 6.994)" cx="207.878" cy="10.469" rx=".378" ry="1.199"/><ellipse transform="matrix(.9995 -.0324 .0324 .9995 -.2463 6.4314)" cx="198.272" cy="10.814" rx=".377" ry="1.199"/></g><g class="C"><use xlink:href="#F"/><use xlink:href="#G"/><use xlink:href="#H"/></g><g class="B"><ellipse transform="matrix(.9994 -.0336 .0336 .9994 -.213 8.2523)" cx="245.628" cy="10.468" rx=".378" ry="1.199"/><ellipse transform="matrix(.9995 -.0329 .0329 .9995 -.2281 7.7776)" cx="236.022" cy="10.816" rx=".378" ry="1.199"/></g><g class="C"><use xlink:href="#D" x="150.999"/><use xlink:href="#E" x="75.676"/><path d="M232.438 31.113s-.715 2.638-.31 4.432.756 2.658 2.064 3.305 1.36-.427 1.893.75.458 2.02.458 2.02-1.323-.76-.437 2.104 1.125 3.4 3.04 2.493 2.635.698 2.338 1.475-1.55 2.003-1.197 2.513.855 2.518 3.498 1.8 4.156-2.358 4.9-3.235 1.103-1.898.87-3.97-.603-3.165-1.146-5.045-3.082-4.37-3.693-5.175-5.664-3.432-5.664-3.432-4.49-2.17-6.615-.035z"/></g><g class="B"><ellipse transform="matrix(.9994 -.0342 .0342 .9994 -.1921 9.7083)" cx="283.544" cy="10.467" rx=".378" ry="1.199"/><ellipse transform="matrix(.9995 -.0324 .0324 .9995 -.2066 8.8721)" cx="273.939" cy="10.817" rx=".377" ry="1.199"/></g><g class="C"><use xlink:href="#F" x="75.666"/><use xlink:href="#G" x="75.666"/><use xlink:href="#H" x="75.666"/></g><defs ><path id="B" d="M10.2 16.002c-2.2 1.22-2.53 3.367-2.05 4.655s1.867 3.17 4.245 4.557 3.89 1.288 5.413 1.685 3.007-.594 2.908-2.377-1.585-3.27-2.477-4.756-2.377-2.972-3.566-3.367-2.51-1.487-4.474-.397z"/><path id="C" d="M4.772 31.113s-.715 2.638-.31 4.432.756 2.658 2.065 3.305 1.36-.427 1.892.75.458 2.02.458 2.02-1.323-.76-.437 2.104 1.125 3.4 3.042 2.493 2.634.698 2.338 1.475-1.55 2.003-1.198 2.513.855 2.518 3.498 1.8 4.157-2.358 4.9-3.235 1.102-1.898.868-3.97-.6-3.165-1.146-5.045-3.082-4.37-3.693-5.175-5.665-3.432-5.665-3.432-4.487-2.17-6.614-.035z"/><path id="D" d="M89.917 59.25s-2 .125-2 2.375-.375 4.5-.125 4.875.5 2.625.625 3.25-.75 3 .125 3.25l.875.25s.55.25 1.525-1.375.975-1 1.725-2.75 1.607-.875 1.116-2.875l-.616-3.125c0-.5 1.107-.5.616-2s-1.116-2.75-3.866-1.875z"/><path id="E" d="M162.2 16.002c-2.198 1.22-2.53 3.367-2.05 4.655s1.866 3.17 4.245 4.557 3.89 1.288 5.412 1.685 3.008-.594 2.908-2.377-1.584-3.27-2.478-4.756-2.377-2.972-3.565-3.367-2.508-1.487-4.473-.397z"/><path id="F" d="M203.166 59.25s-2 .125-2 2.375-.375 4.5-.125 4.875.5 2.625.625 3.25-.75 3 .125 3.25l.875.25s.55.25 1.525-1.375.975-1 1.725-2.75 1.607-.875 1.117-2.875l-.617-3.125c0-.5 1.107-.5.617-2s-1.117-2.75-3.867-1.875z"/><path id="G" d="M200.127 16.002c-2.2 1.22-2.53 3.367-2.05 4.655s1.865 3.17 4.244 4.557 3.89 1.288 5.412 1.685 3.008-.594 2.908-2.377-1.584-3.27-2.478-4.756-2.377-2.972-3.565-3.367-2.507-1.487-4.472-.397z"/><path id="H" d="M194.688 31.113s-.715 2.638-.3 4.432.756 2.658 2.065 3.305 1.36-.427 1.892.75.46 2.02.46 2.02-1.323-.76-.438 2.104 1.125 3.4 3.043 2.493 2.634.698 2.338 1.475-1.55 2.003-1.198 2.513.854 2.518 3.498 1.8 4.157-2.358 4.9-3.235 1.103-1.898.867-3.97-.602-3.165-1.146-5.045-3.082-4.37-3.693-5.175-5.663-3.432-5.663-3.432-4.49-2.17-6.615-.035z"/></defs></svg>