<svg xmlns="http://www.w3.org/2000/svg" xmlns:xlink="http://www.w3.org/1999/xlink" width="272" height="108"><style><![CDATA[.B{fill:#28334c}.C{fill:#232c56}]]></style><path fill="#f2491c" d="M256.7 91.516c1 1.398 3.4 2 4 4.2-.2 0-.4.2-.8.2-1 0-4.4-3.6-4.604-4.398-.6-1.8-1.196-5-1.196-5.397v-.603c.8 2 1.4 4 2.6 6zm-238 0c1 1.398 3.4 2 4 4.2-.2 0-.4.2-.8.2-1 0-4.4-3.6-4.6-4.398-.6-1.8-1.2-5-1.2-5.397v-.603c.8 2 1.4 4 2.6 6zm108.8-3c1.4 1.2 3.2 1.603 4.8 2.603v.6c-.2 0-.4.2-1 .2-3.4 0-7.4-5-8-8 1.2 1.597 2.4 3.395 4.2 4.597zm128.2-3c2.6 2.398 7.6 8.8 7.6 11.8 0 1.2-.4 1.4-1 1.4-2.198 0-5.8-3.4-7.6-3.4-.6.604-1 1.4-1.4 2.2-.6 1.2-1.4 8.8-5.8 8.8-1.6 0-2.398-3.6-2.398-4.196 0-6.2 2.398-12.804 4.603-18.804.397.604 1 1.4 1 2 0 0-4 11.804-4 13.804 0 .8-.2 1.196.8 2 .2 0 .604-.4.604-.603.6-2 1.197-4.2 1.396-6.2l.604-3.6c.396-1.6.6-3.2.8-4.8 1 .8 1 .602 1 1.602 0 .398-.4 4.2-.4 4.8 0 1-.2 2 .8 2 1.2 0 1.4-1.6 1.4-1.8 0-.397-.8-5.2-.8-5.8 0-.4.6-.8 1-1.4.2-.6.396-1.396.8-2.196.2.795.392 1.795 1 2.397zm-238 0c2.6 2.398 7.6 8.8 7.6 11.8 0 1.2-.4 1.4-1 1.4-2.2 0-5.8-3.4-7.6-3.4-.6.604-1 1.4-1.4 2.2-.6 1.2-1.4 8.8-5.8 8.8-1.6 0-2.4-3.6-2.4-4.196 0-6.2 2.4-12.804 4.6-18.804.4.604 1 1.4 1 2 0 0-4 11.804-4 13.804 0 .8-.2 1.196.8 2 .2 0 .6-.4.6-.603.6-2 1.2-4.2 1.4-6.2l.6-3.6c.4-1.6.6-3.2.8-4.8 1 .8 1 .602 1 1.602 0 .398-.4 4.2-.4 4.8 0 1-.2 2 .8 2 1.2 0 1.4-1.6 1.4-1.8 0-.397-.8-5.2-.8-5.8 0-.4.8-1 1-1.4.2-.6.4-1.396.8-2.196.2.795.4 1.795 1 2.397zm205.2-.602c1.2 1.2 3 2.602 4.2 4 .196 0 4.396 5.602 4.396 6.8v1.8h-2c-2.2-.8-4.8-2.8-7-2.602-.604 1.2-1.396 2.2-1.396 3.602-.4 2.398-2 7.8-4.804 7.8-1.196 0-2.6-2.8-2.6-3.196v-3.804c-.2-5.396 2-11 3.197-16.196.4.6 1 1.397 1 2 0 .397-.396.8-.396 1.196-.8 3-2.396 8.604-2.396 12.2 0 .603.196 1.8.8 2.603 1.2-.4.8-1.804 1-2.4.2-.8.396-1.8.396-2.8.397-3.396.804-7 1-10.396.2.197.604.396 1 .6v6.8c.2.602.397 1.2 1 1.2.397 0 1-1 1.2-1.6l-1.2-6.2c.2-.4.604-.604 1-.8.397 1.6.604 3.396 1.397 5.197.4 1 3.603 4.4 4.603 4.4h1.397c0-.2.2-.2.2-.603 0-1.602-3.8-2.8-4.396-3.8-1.396-2-3.2-5.8-3.2-6.4 0-.396.2-1.396.397-2 .207.8.607 1.8 1.207 2.6zm-169.6-.2c.8.8 2.2 1.8 3.4 2.8.8.603 5.6 6.8 5.6 8.8 0 .604-.8 1-1.2 1-2.4 0-5.8-3-8-2.6-.4 1-1 2-1.2 3-.4 1-.8 8.6-5 8.6-1 0-2.4-2.8-2.4-3.196v-7.804l2.8-12.196c.4.6 1 1.196 1 1.6 0 0-2.6 11.604-2.6 13.803 0 .396 0 2 1 2.6 1.4-2 .8-5 1.4-7.2l.6-8.6c.2.2.6.396 1 .6v5.602c.4.8 0 2.398 1 2.398.8 0 1.4-1.2 1.4-1.6s-1-4-1.4-6.4c.2 0 .6-.2 1-.398.4 1.8 1 3.8 1.8 5.603.2.397 3.8 3.8 5 3.8.4 0 .6-.197 1-.603-.8-2.197-3.2-2.197-4.8-4.197-1.2-1.603-2-3.397-3-5.2l.2-3c.2.786.6 1.786 1.4 2.786zm136.802-.4c1.603 1.396 3.8 2.8 5.398 4.6 1 .8 4.2 5 4.2 6.602 0 .8-1.2 1-1.4 1-2.4 0-6-2.2-7.8-2.2-.398.804-1 1.604-1 2.804-.398 2.397-1.2 9-4.6 9-2 0-2.8-3.804-2.8-4.603v-8.602l2-10c.396.602 1.196 1.2 1.196 1.8 0 .4-2 12.2-2 12.8 0 .8-.196 3.398 1 3.398s.804-4 1.2-4.8v-11c0 .4.8.4 1 .6.2 2.2.2 8 1.604 8 .8 0 1.196-1.2 1.196-1.6s-1.6-5.6-1.6-6.2c0-.398.398-.398.8-.8.604 1.8 1.2 3.8 2.2 5.6 0 0 3.8 3.4 4.398 3.4h1.398c.2-.2.2-.2.2-.6 0-1.604-3-2.4-3.2-2.604-2.6-2-5-5.803-5.2-8.2l.2-1.197c.4.8.8 1.8 1.612 2.8zM97.5 95.715c-2.4 0-5.2-2.2-7.6-1.8-.4.8-1 1.602-1 2.8-.2 2.6-.6 9.2-4.2 9.2-2.2 0-3-4.398-3-4.8 0-2-.2-4.2-.4-6.398l1.6-12c.2.398 1.2 1 1.2 1.6l-1.4 12.4c.2 1.6-.4 3 1.4 4.2.2 0 .4-.398.4-.6v-15.6c.4.4 1 .4 1 1 0 .4.4 4.6.8 6.8 0 .4.4.8 1 .8s1-.8 1.2-1.397l-2-6.2c.2-.196.6-.397.8-.8.8 1.8 1.2 3.8 2.8 5.8 1 1.4 3.6 2.804 4.2 2.804h1.6c0-.2.2 0 .2-.604 0-.396-.8-1.2-1.2-1.396-1-.604-2.2-.804-3-1.604-2-1.603-3.8-4.2-4.8-6-.6-1-.4-2.2-.4-3.2 0 0 0-.196-.2-.397.6 2.6 4.6 5.2 7.2 7 1.4 1.397 5.2 5.6 5.2 7.2 0 .992-.8 1.19-1.4 1.19zm68.4-.4c-.4 0-6-1.8-6.604-1.8-2 0-1.603 3.6-1.8 4.6 0 1.4-.2 3-.604 4.6-.2 1-2.2 3.2-3.2 3.2-3.197 0-3.6-8.398-3.6-9v-4.8l1.198-9.398c.4.6 1.2 1.2 1.2 1.6l-1 11.804c-.2 1.8-.2 3.397 1.4 4.8.196 0 .396-.396.6-.604V93.92l-.6-9.2c.396.2.8.4 1 .803.196.8.396 1.8.396 2.8.2 1.2.2 5 1.604 5 .8 0 1.196-1.2 1.196-1.604 0-.396-2-5.396-2-6 0-.396.603-.6.804-1 .6 1.803 1.196 4 2.8 5.803 1 1.197 3.6 2.6 4.2 2.6h1.6c0-.2.2-.2.2-.6 0-1.4-3.603-2.4-3.8-2.604-2.803-1.604-4-4-5.4-6.2-.6-1.197-.398-2.396-.8-3.6 1 1.196 1.8 2.6 3 3.8 1.398 1 3 1.8 4.6 3.2 1 1 5.4 5.397 5.4 7.196.01.8-1.588 1-1.8 1zm-40.8-12c1.2 1 3 1.8 4.4 2.6 1 .8 6.2 5.2 6.2 7 0 1-1.6 1-2 1-.6 0-5.8-1.2-6.4-1.2-1.4 0-1.4 2.2-1.4 2.8v6c-.2 1-1.8 4-3.4 4-1.4 0-2.8-2.2-3-3-.6-2.602-1-5.397-1.4-8l.4-12.2c.4.604 1.2 1.2 1.2 1.804v12.6c.4 1.2.2 2.4 1.4 3.803h.8V96.72l-1.8-12.197c.6 0 1 .197 1.2.6.6.8 1 7.6 2.4 7.6.8 0 1.2-1.6 1.4-1.6l-2.6-5.6c.2-.2.4-.4.4-.803 0-.6-1.2-3.8-1.8-5.8 1.2 1.395 2.2 2.995 4 4.395z"/><path fill="#ffaf9f" d="M252.917 86.636l.6 5.8c0 1-.396 1.604-1.2 1.604-.602 0-.8-.803-.8-1.2 0-.604.4-4.197.604-6.197l.795-.008zm-238 0l.6 5.8c0 1-.4 1.604-1.2 1.604-.6 0-.8-.803-.8-1.2 0-.604.4-4.197.6-6.197l.8-.008zm205.4-.402c.2 2 1.2 5.8 1.2 6.2 0 .6-1 1.396-1.2 1.396-.604 0-.604-.2-.8-.604v-7h.8v.007zm-169.8-.2l1.4 6.2c0 .8-.4 1.397-1.2 1.397-.6 0-.8-.8-.8-1v-6.6l.6.005zm137-.2l1.8 6.2c-.397.6-.602 1.4-1.197 1.4-1.2 0-1.2-4.804-1.2-5.2v-2.398h.596zm60.4 15h-.6c-.4-.602-.4-1.4-.4-1.8 0-4 2.4-9.8 3.6-13.6 0 0 .2 0 .4.196-1 4.603-1.6 10.404-3 15.205zm-93.2-15.4c.8 2 2.4 5.604 2.4 6 0 1-1 1.604-1.2 1.604-1.4 0-1.6-5.803-1.8-7.604h.6zm-67.4 7.798c-1.4 0-1.6-7-1.6-7.8 1.2 0 1 2 1.6 3 .4 1 1.2 2.8 1.2 3.196 0 1.005-1 1.603-1.2 1.603zm-77.4 7.602h-.6c-.4-.602-.4-1.4-.4-1.8 0-4 2.4-10 3.6-13.4 0 0 .2-.2.4 0-1 4.598-1.6 10.4-3 15.2zm246.6-9.8c1 1.4 2.8 2.6 4.2 4v.6c-.2.2-.2.2-.8.2-1.2 0-3.6-2.4-4.2-3.4-1-2-1.6-5.6-1.6-6v-1.2c.6 1.798 1.2 3.798 2.4 5.798zm-38.4-4c-.602 4.4-.8 9.2-1.8 13.8h-.604c-.396-.602-.602-1.602-.602-2 0-3.8 2.398-11.2 3-13.602l.007 1.8zm-199.6 4c1 1.4 2.8 2.6 4.2 4v.6c-.2.2-.2.2-.8.2-1.2 0-3.6-2.4-4.2-3.4-1-2-1.6-5.6-1.6-6v-1.2c.6 1.798 1.2 3.798 2.4 5.798zm210.2 3.8h-1.6c-5-2.4-4.8-6.4-5.8-9.602l2.8 5c1.398 1.397 3 2.397 4.6 3.8v.8zm-104.8-2.4c-1.4 0-2.4-6.6-2.4-7.2h.6c1 2 2.8 5.4 2.8 5.803 0 .596-.4 1.396-1 1.396zm-64.6 2.2h-1.4c-4.6-2-5.4-6.4-6.2-9.4 1 1.4 2 3.2 3 5 1.4 1.2 3 2.2 4.6 3.604v.795zm-12.2 6.2h-.6c-.8-.602-.6-2.2-.6-2.602 0-2.8 2.2-12.398 2.6-13.2-.6 8.2-.6 10.4-1.4 15.8zm148.6-6.8c-1.2 0-4.398-2.8-5-3.6-1-1.804-1.398-3.604-2-5.4.8 1 1.8 2.6 2.8 4.2 1.604 2.397 4 2 5.2 4.2-.2.4-.4.6-1 .6zm-10.4-9.2c.2 2 0 4.2-.2 10-.2 3 0 4.398-.2 5.8 0 0 0 .2-.4.2-.8 0-1-1.602-1-1.602v-4l1.4-10.603.4.205zm-32 7.6v8s0 .2-.4.2c-1 0-1.2-2-1.2-2.2v-5c.4-3 .602-6.2 1-9l.6 8zm-69 8c0 .2.2.2-.4.2-1 0-1-2.4-1-2.4V94.84l1.4-10.396v15.992zm7.4-10.6c1 1 3.4 1.398 4.2 2.8v.6h-1.8c-1.2-.8-3-1.396-4-2.8-1.4-1.6-2.6-5.2-2.6-5.6v-.602c.8 1.602 2.2 4 4.2 5.602zm68.4-.4c1 1 2.6 1.4 4 2.2.2 0 .398.6.398 1-.2.2-.398.4-1 .4-1 0-4.803-2.6-5-3-.803-1.2-1.603-2.6-2-3.8 0-.398-.603-1.2-.603-1.603v-.6c1.205 1.806 2.404 4.005 4.205 5.406zm-38.2 10.6c-.2.2-.2.2-.6.2-1.6 0-1.6-6.398-1.6-6.603v-9.8l2.2 16.204zm6-11.4c1.4 1 3.2.8 4.6 2.6-.6.4-1.2.604-1.2.604-3.8 0-7.6-5.396-8.2-8.396 1.2 1.39 3 4.19 4.8 5.19z"/><path fill="#f2491c" d="M254.8 5.2c5.2 7.6 7.4 17.8 7.4 26l-.2 7c-.6 6.6-1.2 13.2-2.8 19.8-1.2 5-2.6 10.2-3.6 15.602C255 77 254.8 81 254.2 84.8c-.2 1.4-1.2 2-2.2 2-1.2 0-2-3.198-2-3.4 0-.6-.6-1.8-.6-2.6 0-12.8-6.8-26.6-7.8-39.2 0-1.4-.4-4.2-.4-4.6V23.6c.4-6 1.6-12 5.4-18-1-1-2.2-2.4-2.604-3.4v-.6c.8 1 2.604 3.2 3.2 3.2.398 0 1.8-1.4 2.8-1.6h.8c1.2 0 1.604.6 3.4 1.4 1-1 2.197-2.2 3-3.2C257 2.2 256 4.2 254.8 5.2zm-41.6-.4c1.8-1 2.6-1.6 3.6-1.6 1.4 0 2.4 1.2 3.2 1.2.4 0 2.2-2 2.8-3 0 2-2 3.2-2 3.8s2.2 3.4 3 5.4c3 6.4 4.4 14 4.4 20.6 0 .4.2 1.8-.2 6.6-.6 5.8-.8 12.2-2.398 18.4C223.8 63.6 221.8 71 221.4 78.4c-.4 3.2.2 4.396.2 5 0 1-.4 2.8-1.805 2.8-3.396 0-3.8-7.6-4-8.4-1-4.198-1.6-8.8-2.8-13-2-7.8-5.8-20.4-5.8-28.6V24.4c.197-1.2.197-2.6.396-3.8.4-3.4 1.2-7.2 2.604-10.6.6-1.4 2.396-4 2.396-4.4 0-.6-2.396-3.2-2.396-3.6v-.6C211 2.4 212 3.6 213.2 4.8zm-196.4.4c5.4 8.2 7.4 17.4 7.4 25.6L24 38c-.2 3-.8 6.2-1 9.4-.2 2.4-.6 5.2-1.2 7.8-.8 3.6-1.8 7.2-2.6 10.8-.8 3-1.6 6.602-2 10-.2 1.602-.6 3.8-.6 5.8 0 1.2-.2 5-2.6 5-1.2 0-2-3.198-2-3.4 0-.6-.6-1.8-.6-2.6 0-13-6.8-26-7.8-39 0-1.6-.4-4.4-.4-4.8V23.6c.4-6 1.6-12 5.4-18-1-1-2.2-2.4-2.6-3.4v-.6c.8 1 2.6 3.2 3.2 3.2.4 0 1.8-1.4 2.8-1.6h.8c1.2 0 2 .2 3.4 1.4 1-1 2.2-2.2 3-3.2-.2.8-1.2 2.8-2.4 3.8zm34 0c0 .4 2.2 3.4 2.8 5 .8 1.6 4.4 12.6 4.4 16.2V37c-.4 5.8-1 11.4-2 17-1.2 7-4.4 17.4-4.4 25 0 .602.4 3.8.4 4.4 0 .396-.4 2.8-1.2 2.8-3.8 0-4.4-6.8-4.8-8.4-.4-2.4-1-5.198-1.6-7.6-1.4-5.8-3.4-11.6-4.8-17.4-1.2-5-2.4-12.4-2.4-17.6v-9.6c.2-1.4.2-3 .4-4.6.4-3.4 1.2-7.8 2.6-11 .6-1.4 2.4-4 2.4-4.4 0-.2-2.4-2.6-2.2-4.2.6 1 1.6 2.2 2.8 3.4 1.8-1 2.6-1.6 3.6-1.6 1.4 0 2.4 1.2 3.2 1.2.4 0 2-2 2.8-3.2 0 2-2 3.2-2 4zm132.2-2c1 0 2 .2 3 1.4 1-1.2 2-2.4 2.602-3.6 0 1.4-1 2.8-2 4.2.8 1 1.603 2 2 3C193 17.6 194 23 194 32c0 10-1.398 20.6-4 31-.6 2.2-1 5-1.398 7.602-.402 2.198-.602 7-.602 7.398 0 .602.8 5.602.8 6.2 0 .2-.198 1.8-1 1.8-3.6 0-4.8-6-5.198-7.398-.397-1.802-1-4-1.397-5.602-1.2-5.2-2.804-10.8-4.397-16-.603-2.2-1.398-4.6-1.803-6.8-.8-3.8-1.604-11.2-1.604-11.6V22.8c.2-1 .4-2.2.4-3.2.4-3.2 1.2-6.6 2.4-9.6.4-1.4 2.4-4 2.4-4.4 0-.6-1.2-1.4-1.604-2.2-.395-.6-.395-1.4-.597-2.4.6 1 1.6 2.4 2.8 3.8 1.6-1 2.403-1.6 3.8-1.6zm-34 0c1 0 1.8.6 3 1.2.8-1 1.602-2.2 2.2-3.2 0 0 .2-.2.2.4 0 .4-1 2.4-1.8 3.6.8 1 1.6 2 2.196 3.4 1.4 2.6 2.2 5.8 3.2 8.8 1.2 4.4 2 10 2 14.4l-.2 8c-.8 5-.8 11.2-2.196 16.4-1.604 6.4-3 13.4-3 20.2 0 4.2 1 4.2 1 7.6 0 .602.396.4.396.8 0 .6-.2.4-.2.802H154.6c-1.4-.202-2.4-1.4-3.2-2.602s-1.4-2.6-1.8-3.8c-3.604-12.6-9.2-26.2-10-38.6 0-1-.2-2.6-.2-3v-14c.2-1.2.2-2.4.396-3.6.2-.8.397-1.8.397-2.8.603-2.2 1-4.6 1.803-6.6.604-1.8 2.604-4.6 2.604-5 0-.6-1.604-3-2-4.4.8 1 1.8 2.4 2.8 3.6.6-1 2.6-1.6 3.6-1.6zM77.4 4.8c.6-1 2.6-1.6 3.6-1.6 1.2 0 2.4 1.2 2.8 1.2.6 0 2-2.2 2.6-3.4 0 1.4-1 2.8-1.8 4.2.8 1 1.6 2 2.2 3.4 4.2 8.8 5.2 15 5.2 23.2l-.2 8c-.4 5-1 10.2-2 15.4l-2 8.8c-.8 3.8-1.4 8.602-1.4 12.8 0 2.6-.2 2.6.6 5.4 0 .4.4.6.4 1.2v2.2c-2.6 1-5-3.2-5.6-5-3.4-11.2-7.2-22.4-9.4-33.6-.6-2.8-1-8.2-1-8.6V22.8c.2-1 .4-2.2.4-3.2.2-1.4.4-3.2.8-4.4.4-2 1-4 1.8-5.6.4-1.2 2.2-3.6 2.2-4 0-.6-2-3.4-2-3.8v-1c0 1 1.6 2.6 2.8 4zm34 0c.6-1 2.6-1.6 3.6-1.6.8 0 1.2 0 2.8 1.2 1-1.2 1.8-2.4 2.2-3.6 0 0 .2-.2.2.4 0 1.2-1.6 3-1.6 3.8 0 .6.6.8.6 1 1 1.4 1.8 2.8 2.4 4.4C125 18 126 24.4 126 32l-.2 7c-.4 5.4-.8 10.8-2 16.2-1.4 6.6-2.8 13.4-2.8 19.8 0 4.602.2 4 2.2 10-.2.2-.2.4-.6.4-5.2 0-9-13.4-9.4-14.4-2-6.398-4.4-12.8-5.8-19.2-1-4.4-2-10.4-2-15V24.4c.2-1.2.2-2.6.4-4 .2-1 .4-2.2.4-3.2.6-2.4 1.2-5.2 2.2-7.6.4-1.4 2.4-3.6 2.4-4 0-.6-1.8-3-1.8-3.4V.6c.6 1.4 1.4 2.8 2.4 4.2z"/><defs><path id="A" d="M16.8 5c5.4 7.8 7.4 17.6 7.4 25.6l-.2 7.2c-.6 5.4-1 11.4-2.2 17.2-.6 3.8-1.8 7.8-2.8 11.602-.6 2.8-1.4 6-1.8 9-.4 1.798-.6 4.198-.6 6.198 0 1-.2 4.802-2.6 4.802-1.2 0-2-3.2-2-3.397 0-.603-.6-1.804-.6-2.603-.2-12.2-6-25.397-7.6-37.397l-.6-6.4V23.4c.4-6 1.6-12 5.4-18C7.6 4.4 6.4 3 6 2v-.6c.8 1 2.6 3.2 3.2 3.2.4 0 1.8-1.4 2.8-1.6h.8c1.2 0 2 .2 3.4 1.4 1-1 2.2-2.2 3-3.2C19 2 18 4 16.8 5z"/><path id="B" d="M13.665 14.792s-.334.417-.667.75-1 1.083-.833 1.333.974.833.737 1.083-.18.583 0 1.083.097.417.763.667 1.75-.167 2.333 0 1.5-.5 1.667-1-.25-1.25 0-1.417-.17-.916.04-1.166.042-1.333.042-1.333l-1.916-.5c-.001 0-1.5-.25-2.167.5z"/><path id="C" d="M8.56 35.185s-1.653 2.133-1.787 2.667-2.23.4-.848 2.267.582.933 1.382 1.867.045.723.667 1.734-.9.69.622 1.01 1.96-.19 2.67 0 1.775.322 1.91-1.278-.4-2.878 0-3.44 1.6-.56 1.734-1.36.124-2.532-.534-2.667-.8-.268-1.333-.134-1.818.001-1.775.267-1.05-.934-1.05-.934-.906-1.007-1.657 0z"/><path id="D" d="M9.128 54.667s-.167 2.75 0 3.166-1.083-.083.167.417l1.25.5s.203.083.56-.417.2-1.167.857-1.25l.666-.083s.25.083.333-1 .25-1.833-.333-2-.833 0-1.25 0 .002-.25-.79 0-.542-.417-.792.25-.667.417-.667.417z"/><path id="E" d="M11.663 51.21s-1.737-3.822 0-4.17 6.08 0 6.08 0 1.738-.328 1.216 2.007-1.725 1.99-1.905 3.03-.18 1.39-.875 1.042l-.695-.348-2.78-1.912-1.043.35z"/><path id="F" d="M17.355 61.375s-3.027.312-2.975.625-.053.75 0 1.188-.146.688-.015 1.312-.725.562.015 1.062-.5.312.74.5 2.094.812 2.234-.438-.203-1.75 0-2-.11-.312.328-.562.625-.75.5-1-.827-.687-.827-.687z"/><path id="G" d="M19.185 30.948s-2.096.45-2.246.75-1.123.823-.674 1.722.71.6 1.103 1.572.053.973.298 1.946.096 1.422.77 1.946-1.347 1.422.674.524 2.47-1.497 2.545-2.32.075-1.198 0-2.32.143-2.35.056-2.79.618-.88-.505-1.03-2.02 0-2.02 0z"/><path id="H" d="M47.87 14.792s-.334.417-.667.75-1 1.083-.833 1.333.974.833.737 1.083-.18.583 0 1.083.097.417.763.667 1.75-.167 2.333 0 1.5-.5 1.667-1-.25-1.25 0-1.417-.17-.916.04-1.166.042-1.333.042-1.333l-1.916-.5s-1.5-.25-2.167.5z"/><path id="I" d="M42.053 24.71c-.815 1.156-1.22.917-1.22 1.832s-.102 1.22 0 1.83-1.12.812-1.017 1.32-.397.896-.006 1.627.417.68 1.045 1.02-.835.31 1.198.713.508 1.012 2.033.402 1.728.305 1.83-1.22-.813-1.728 0-2.033 1.22-.658 1.524-1 .407-1.043 0-1.754-.915-1.12-.915-1.12-.203-.304-.915-.406-.813-1.223-1.118-1.222-2.054-.546-2.44-.001z"/><path id="J" d="M42.763 35.185s-1.653 2.133-1.787 2.667-2.23.4-.848 2.267.582.933 1.382 1.867.045.723.667 1.734-.9.69.622 1.01 1.96-.19 2.67 0 1.775.322 1.91-1.278-.4-2.878 0-3.44 1.6-.56 1.734-1.36.124-2.532-.534-2.667-.8-.268-1.333-.134-1.818.001-1.775.267-1.05-.934-1.05-.934-.905-1.007-1.657 0z"/><path id="K" d="M149.787 14.792s-.334.417-.667.75-1 1.083-.833 1.333.974.833.736 1.083-.18.583 0 1.083.098.417.764.667 1.75-.167 2.333 0 1.5-.5 1.667-1-.25-1.25 0-1.417-.17-.916.04-1.166.04-1.333.04-1.333l-1.916-.5s-1.5-.25-2.166.5z"/><path id="L" d="M143.97 24.71c-.814 1.156-1.22.917-1.22 1.832s-.102 1.22 0 1.83-1.12.812-1.018 1.32-.397.896-.006 1.627.417.68 1.045 1.02-.835.31 1.197.713.508 1.012 2.033.402 1.728.305 1.83-1.22-.813-1.728 0-2.033 1.22-.658 1.523-1 .407-1.043 0-1.754-.914-1.12-.914-1.12-.203-.304-.915-.406-.813-1.223-1.118-1.222-2.054-.546-2.438-.001z"/><path id="M" d="M144.682 35.185s-1.654 2.133-1.787 2.667-2.23.4-.85 2.267.582.933 1.382 1.867.045.723.666 1.734-.89.69.623 1.01 1.96-.19 2.67 0 1.775.322 1.908-1.278-.4-2.878 0-3.44 1.602-.56 1.734-1.36.123-2.532-.534-2.667-.8-.268-1.333-.134-1.818.001-1.775.267-1.05-.934-1.05-.934-.903-1.007-1.654 0z"/><path id="N" d="M145.25 54.667s-.166 2.75 0 3.166-1.082-.083.168.417l1.25.5s.202.083.56-.417.19-1.167.857-1.25l.666-.083s.25.083.334-1 .25-1.833-.334-2-.833 0-1.25 0 .002-.25-.8 0-.542-.417-.792.25-.668.417-.668.417z"/><path id="O" d="M147.785 51.21s-1.736-3.822 0-4.17 6.08 0 6.08 0 1.737-.328 1.216 2.007-1.725 1.99-1.904 3.03-.18 1.39-.875 1.042l-.695-.348-2.78-1.912-1.044.35z"/><path id="P" d="M153.478 61.375s-3.027.312-2.975.625-.053.75 0 1.188-.146.688-.015 1.312-.726.562.015 1.062-.5.312.74.5 2.094.812 2.234-.438-.203-1.75 0-2-.11-.312.328-.562.625-.75.5-1-.827-.687-.827-.687z"/><path id="Q" d="M155.308 30.948s-2.096.45-2.245.75-1.123.823-.674 1.722.71.6 1.103 1.572.053.973.298 1.946.096 1.422.77 1.946-1.347 1.422.674.524 2.47-1.497 2.545-2.32.075-1.198 0-2.32.144-2.35.057-2.79.617-.88-.506-1.03-2.022 0-2.022 0z"/><path id="R" d="M183.992 14.792s-.334.417-.668.75-1 1.083-.832 1.333.973.833.736 1.083-.18.583 0 1.083.097.417.764.667 1.75-.167 2.332 0 1.5-.5 1.668-1-.25-1.25 0-1.417-.17-.916.04-1.166.042-1.333.042-1.333l-1.916-.5s-1.5-.25-2.166.5z"/><path id="S" d="M178.886 35.185s-1.653 2.133-1.787 2.667-2.23.4-.85 2.267.582.933 1.383 1.867.045.723.666 1.734-.9.69.622 1.01 1.962-.19 2.67 0 1.775.322 1.91-1.278-.4-2.878 0-3.44 1.6-.56 1.733-1.36.124-2.532-.534-2.667-.8-.268-1.333-.134-1.817.001-1.775.267-1.05-.934-1.05-.934-.904-1.007-1.655 0z"/><path id="T" d="M179.455 54.667s-.167 2.75 0 3.166-1.083-.083.167.417l1.25.5s.202.083.56-.417.2-1.167.857-1.25l.666-.083s.25.083.334-1 .25-1.833-.334-2-.834 0-1.25 0 .002-.25-.79 0-.542-.417-.792.25-.667.417-.667.417z"/><path id="U" d="M182 51.21s-1.737-3.822 0-4.17 6.08 0 6.08 0 1.738-.328 1.217 2.007-1.725 1.99-1.904 3.03-.18 1.39-.876 1.042l-.695-.348-2.78-1.912-1.043.35z"/><path id="V" d="M187.682 61.375s-3.027.312-2.975.625-.053.75 0 1.188-.145.688-.015 1.312-.726.562.015 1.062-.5.312.74.5 2.094.812 2.234-.438-.203-1.75 0-2-.11-.312.328-.562.625-.75.5-1-.827-.687-.827-.687z"/><path id="W" d="M189.512 30.948s-2.096.45-2.245.75-1.123.823-.674 1.722.71.6 1.103 1.572.053.973.3 1.946.096 1.422.77 1.946-1.348 1.422.674.524 2.47-1.497 2.545-2.32.074-1.198 0-2.32.143-2.35.057-2.79.617-.88-.506-1.03-2.023 0-2.023 0z"/></defs><clipPath id="X"><use xlink:href="#A"/></clipPath><g clip-path="url(#X)" class="B"><ellipse transform="matrix(-.0336 -.9994 .9994 -.0336 7.5043 29.1996)" cx="17.869" cy="10.972" rx="1.199" ry=".378"/><ellipse transform="matrix(-.0324 -.9995 .9995 -.0324 -2.78 19.9469)" cx="8.265" cy="11.319" rx="1.198" ry=".378"/></g><g class="B"><ellipse transform="matrix(-.0342 -.9994 .9994 -.0342 42.6772 63.1855)" cx="51.869" cy="10.972" rx="1.199" ry=".378"/><ellipse transform="matrix(-.0324 -.9995 .9995 -.0324 32.3211 53.9308)" cx="42.266" cy="11.32" rx="1.198" ry=".378"/><ellipse transform="matrix(-.0336 -.9994 .9994 -.0336 77.79 97.1553)" cx="85.867" cy="10.968" rx="1.199" ry=".378"/><ellipse transform="matrix(-.0322 -.9995 .9995 -.0322 67.4064 87.9131)" cx="76.267" cy="11.322" rx="1.198" ry=".378"/><ellipse transform="matrix(-.0342 -.9994 .9994 -.0342 113.0021 131.1455)" cx="119.868" cy="10.973" rx="1.199" ry=".378"/><ellipse transform="matrix(-.033 -.9995 .9995 -.033 102.5873 121.9108)" cx="110.269" cy="11.328" rx="1.198" ry=".378"/><ellipse transform="matrix(-.0334 -.9994 .9994 -.0334 148.0426 165.1149)" cx="153.866" cy="10.968" rx="1.199" ry=".378"/><ellipse transform="matrix(-.033 -.9995 .9995 -.033 137.7224 155.8831)" cx="144.271" cy="11.317" rx="1.198" ry=".378"/><ellipse transform="matrix(-.033 -.9995 .9995 -.033 183.1254 199.0986)" cx="187.88" cy="10.959" rx="1.199" ry=".378"/><ellipse transform="matrix(-.0322 -.9995 .9995 -.0322 172.6864 189.8672)" cx="178.268" cy="11.327" rx="1.198" ry=".377"/><ellipse transform="matrix(-.0334 -.9994 .9994 -.0334 218.3232 233.063)" cx="221.864" cy="10.957" rx="1.199" ry=".378"/><ellipse transform="matrix(-.0326 -.9995 .9995 -.0326 207.8694 223.8542)" cx="212.27" cy="11.328" rx="1.198" ry=".377"/><ellipse transform="matrix(-.033 -.9995 .9995 -.033 253.3595 267.0734)" cx="255.882" cy="10.969" rx="1.199" ry=".378"/><ellipse transform="matrix(-.0322 -.9995 .9995 -.0322 242.8855 257.8259)" cx="246.27" cy="11.319" rx="1.198" ry=".377"/></g><g class="C"><use xlink:href="#B"/><path d="M7.85 24.71c-.815 1.156-1.22.917-1.22 1.832s-.102 1.22 0 1.83-1.12.812-1.017 1.32-.397.896-.006 1.627.417.68 1.045 1.02-.835.31 1.198.713.508 1.012 2.033.402 1.728.305 1.83-1.22-.813-1.728 0-2.033 1.22-.658 1.524-1 .407-1.043 0-1.754-.915-1.12-.915-1.12-.203-.304-.915-.406-.813-1.223-1.118-1.222-2.055-.546-2.44-.001z"/><use xlink:href="#C"/><use xlink:href="#D"/><use xlink:href="#E"/><use xlink:href="#F"/><use xlink:href="#G"/></g><defs><path id="Y" d="M16.8 5c5.4 7.8 7.4 17.6 7.4 25.6l-.2 7.2c-.6 5.4-1 11.4-2.2 17.2-.6 3.8-1.8 7.8-2.8 11.602-.6 2.8-1.4 6-1.8 9-.4 1.798-.6 4.198-.6 6.198 0 1-.2 4.802-2.6 4.802-1.2 0-2-3.2-2-3.397 0-.603-.6-1.804-.6-2.603-.2-12.2-6-25.397-7.6-37.397l-.6-6.4V23.4c.4-6 1.6-12 5.4-18C7.6 4.4 6.4 3 6 2v-.6c.8 1 2.6 3.2 3.2 3.2.4 0 1.8-1.4 2.8-1.6h.8c1.2 0 2 .2 3.4 1.4 1-1 2.2-2.2 3-3.2C19 2 18 4 16.8 5z"/></defs><clipPath id="Z"><use xlink:href="#Y"/></clipPath><g clip-path="url(#Z)" class="B"><ellipse transform="matrix(-.0336 -.9994 .9994 -.0336 7.5043 29.1996)" cx="17.869" cy="10.972" rx="1.199" ry=".378"/><ellipse transform="matrix(-.0324 -.9995 .9995 -.0324 -2.78 19.9469)" cx="8.265" cy="11.319" rx="1.198" ry=".378"/></g><g class="C"><use xlink:href="#H"/><use xlink:href="#I"/><use xlink:href="#J"/><use xlink:href="#D" x="34.205"/><use xlink:href="#E" x="34.204"/><use xlink:href="#F" x="34.205"/><use xlink:href="#G" x="34.215"/></g><defs><path id="a" d="M51.004 5c5.4 7.8 7.4 17.6 7.4 25.6l-.2 7.2c-.6 5.4-1 11.4-2.2 17.2-.6 3.8-1.8 7.8-2.8 11.602-.6 2.8-1.4 6-1.8 9-.4 1.8-.6 4.198-.6 6.198 0 1-.2 4.802-2.6 4.802-1.2 0-2-3.2-2-3.397 0-.603-.6-1.804-.6-2.603-.2-12.2-6-25.397-7.6-37.397l-.6-6.4V23.4c.4-6 1.6-12 5.4-18-1-1-2.2-2.4-2.6-3.4v-.6c.8 1 2.6 3.2 3.2 3.2.4 0 1.8-1.4 2.8-1.6h.8c1.2 0 2 .2 3.4 1.4 1-1 2.2-2.2 3-3.2-.2.8-1.2 2.8-2.4 3.8z"/></defs><clipPath id="b"><use xlink:href="#a"/></clipPath><g clip-path="url(#b)" class="B"><ellipse transform="matrix(-.0336 -.9994 .9994 -.0336 42.8582 63.3849)" cx="52.074" cy="10.972" rx="1.199" ry=".378"/><ellipse transform="matrix(-.0324 -.9995 .9995 -.0324 32.5328 54.1335)" cx="42.47" cy="11.319" rx="1.198" ry=".378"/></g><g class="C"><use xlink:href="#H" x="33.917"/><use xlink:href="#I" x="33.917"/><use xlink:href="#J" x="33.917"/><path d="M77.25 54.667s-.167 2.75 0 3.166-1.083-.083.167.417l1.25.5s.203.083.56-.417.2-1.167.857-1.25L80.75 57s.25.083.333-1 .25-1.833-.333-2-.833 0-1.25 0 .002-.25-.79 0-.542-.417-.792.25-.667.417-.667.417z"/><use xlink:href="#E" x="68.122"/><use xlink:href="#F" x="68.123"/><use xlink:href="#G" x="68.123"/></g><defs><path id="c" d="M84.922 5c5.4 7.8 7.4 17.6 7.4 25.6l-.2 7.2c-.6 5.4-1 11.4-2.2 17.2-.6 3.8-1.8 7.8-2.8 11.602-.6 2.8-1.4 6-1.8 9-.4 1.8-.6 4.198-.6 6.198 0 1-.2 4.802-2.6 4.802-1.2 0-2-3.2-2-3.397 0-.603-.6-1.804-.6-2.603-.2-12.2-6-25.397-7.6-37.397l-.6-6.4V23.4c.4-6 1.6-12 5.4-18-1-1-2.2-2.4-2.6-3.4v-.6c.8 1 2.6 3.2 3.2 3.2.4 0 1.8-1.4 2.8-1.6h.8c1.2 0 2 .2 3.4 1.4 1-1 2.2-2.2 3-3.2-.2.8-1.2 2.8-2.4 3.8z"/></defs><clipPath id="d"><use xlink:href="#c"/></clipPath><g clip-path="url(#d)" class="B"><ellipse transform="matrix(-.0336 -.9994 .9994 -.0336 77.9158 97.2837)" cx="85.992" cy="10.972" rx="1.199" ry=".378"/><ellipse transform="matrix(-.0324 -.9995 .9995 -.0324 67.5497 88.0337)" cx="76.388" cy="11.319" rx="1.198" ry=".378"/></g><g class="C"><use xlink:href="#B" x="102.327"/><use xlink:href="#I" x="68.123"/><use xlink:href="#C" x="102.326"/><use xlink:href="#D" x="102.327"/><use xlink:href="#E" x="102.337"/><use xlink:href="#F" x="102.327"/><use xlink:href="#G" x="102.327"/></g><defs><path id="e" d="M119.127 5c5.4 7.8 7.4 17.6 7.4 25.6l-.2 7.2c-.6 5.4-1 11.4-2.2 17.2-.6 3.8-1.8 7.8-2.8 11.602-.6 2.8-1.4 6-1.8 9-.4 1.8-.6 4.198-.6 6.198 0 1-.2 4.802-2.6 4.802-1.2 0-2-3.2-2-3.397 0-.603-.6-1.804-.6-2.603-.2-12.2-6-25.397-7.6-37.397l-.6-6.4V23.4c.4-6 1.6-12 5.4-18-1-1-2.2-2.4-2.6-3.4v-.6c.8 1 2.6 3.2 3.2 3.2.4 0 1.8-1.4 2.8-1.6h.8c1.2 0 2 .2 3.4 1.4 1-1 2.2-2.2 3-3.2-.2.8-1.2 2.8-2.4 3.8z"/></defs><clipPath id="f"><use xlink:href="#e"/></clipPath><g clip-path="url(#f)" class="B"><ellipse transform="matrix(-.0336 -.9994 .9994 -.0336 113.2696 131.469)" cx="120.197" cy="10.972" rx="1.199" ry=".378"/><ellipse transform="matrix(-.0324 -.9995 .9995 -.0324 102.8625 122.2203)" cx="110.593" cy="11.319" rx="1.198" ry=".378"/></g><g class="C"><use xlink:href="#K"/><use xlink:href="#L"/><use xlink:href="#M"/><use xlink:href="#N"/><use xlink:href="#O"/><use xlink:href="#P"/><use xlink:href="#Q"/></g><defs><path id="g" d="M152.922 5c5.4 7.8 7.4 17.6 7.4 25.6l-.2 7.2c-.6 5.4-1 11.4-2.2 17.2-.6 3.8-1.8 7.8-2.8 11.602-.6 2.8-1.4 6-1.8 9-.4 1.8-.6 4.198-.6 6.198 0 1-.2 4.802-2.6 4.802-1.2 0-2-3.2-2-3.397 0-.603-.6-1.804-.6-2.603-.2-12.2-6-25.397-7.6-37.397l-.6-6.4V23.4c.4-6 1.6-12 5.4-18-1-1-2.2-2.4-2.6-3.4v-.6c.8 1 2.6 3.2 3.2 3.2.4 0 1.8-1.4 2.8-1.6h.8c1.2 0 2 .2 3.4 1.4 1-1 2.2-2.2 3-3.2-.196.8-1.196 2.8-2.397 3.8z"/></defs><clipPath id="h"><use xlink:href="#g"/></clipPath><g clip-path="url(#h)" class="B"><ellipse transform="matrix(-.0338 -.9994 .9994 -.0338 148.2317 165.2463)" cx="153.992" cy="10.972" rx="1.199" ry=".378"/><ellipse transform="matrix(-.0322 -.9995 .9995 -.0322 137.7236 155.9969)" cx="144.388" cy="11.319" rx="1.198" ry=".378"/></g><g class="C"><use xlink:href="#R"/><path d="M178.176 24.71c-.814 1.156-1.22.917-1.22 1.832s-.102 1.22 0 1.83-1.118.812-1.017 1.32-.398.896-.006 1.627.416.68 1.045 1.02-.836.31 1.197.713.508 1.012 2.033.402 1.727.305 1.83-1.22-.813-1.728 0-2.033 1.22-.658 1.524-1 .406-1.043 0-1.754-.914-1.12-.914-1.12-.203-.304-.916-.406-.812-1.223-1.117-1.222-2.053-.546-2.438-.001z"/><use xlink:href="#S"/><use xlink:href="#T"/><use xlink:href="#U"/><use xlink:href="#V"/><use xlink:href="#W"/></g><defs><path id="i" d="M187.127 5c5.4 7.8 7.4 17.6 7.4 25.6l-.2 7.2c-.6 5.4-1 11.4-2.2 17.2-.6 3.8-1.8 7.8-2.8 11.602-.6 2.8-1.4 6-1.8 9-.4 1.8-.6 4.198-.6 6.198 0 1-.2 4.802-2.6 4.802-1.2 0-2-3.2-2-3.397 0-.603-.6-1.804-.6-2.603-.2-12.2-6-25.397-7.6-37.397l-.6-6.4V23.4c.4-6 1.6-12 5.4-18-1-1-2.2-2.4-2.6-3.4v-.6c.8 1 2.6 3.2 3.2 3.2.4 0 1.8-1.4 2.8-1.6h.8c1.2 0 2 .2 3.4 1.4 1-1 2.2-2.2 3-3.2-.197.8-1.197 2.8-2.397 3.8z"/></defs><clipPath id="j"><use xlink:href="#i"/></clipPath><g clip-path="url(#j)" class="B"><ellipse transform="matrix(-.0334 -.9994 .9994 -.0334 183.5158 199.4294)" cx="188.196" cy="10.972" rx="1.199" ry=".378"/><ellipse transform="matrix(-.0322 -.9995 .9995 -.0322 173.0289 190.1832)" cx="178.592" cy="11.319" rx="1.198" ry=".379"/></g><g class="C"><use xlink:href="#K" x="67.673"/><use xlink:href="#L" x="67.674"/><use xlink:href="#M" x="67.672"/><use xlink:href="#N" x="67.673"/><use xlink:href="#O" x="67.673"/><use xlink:href="#P" x="67.672"/><use xlink:href="#Q" x="67.672"/></g><defs><path id="k" d="M220.595 5c5.4 7.8 7.4 17.6 7.4 25.6l-.2 7.2c-.6 5.4-1 11.4-2.2 17.2-.6 3.8-1.8 7.8-2.8 11.602-.6 2.8-1.4 6-1.8 9-.4 1.8-.6 4.198-.6 6.198 0 1-.2 4.802-2.6 4.802-1.2 0-2-3.2-2-3.397 0-.603-.6-1.804-.6-2.603-.2-12.2-6-25.397-7.6-37.397l-.6-6.4V23.4c.4-6 1.6-12 5.4-18-1-1-2.2-2.4-2.6-3.4v-.6c.8 1 2.6 3.2 3.2 3.2.4 0 1.8-1.4 2.8-1.6h.8c1.2 0 2 .2 3.4 1.4 1-1 2.2-2.2 3-3.2-.196.8-1.196 2.8-2.397 3.8z"/></defs><clipPath id="l"><use xlink:href="#k"/></clipPath><g clip-path="url(#l)" class="B"><ellipse transform="matrix(-.0338 -.9994 .9994 -.0338 218.1921 232.8804)" cx="221.665" cy="10.972" rx="1.199" ry=".378"/><ellipse transform="matrix(-.0322 -.9995 .9995 -.0322 207.5752 223.6346)" cx="212.061" cy="11.319" rx="1.198" ry=".378"/></g><g class="C"><use xlink:href="#R" x="67.673"/><path d="M245.85 24.71c-.814 1.156-1.22.917-1.22 1.832s-.102 1.22 0 1.83-1.118.812-1.017 1.32-.398.896-.006 1.627.416.68 1.045 1.02-.836.31 1.197.713.508 1.012 2.033.402 1.727.305 1.83-1.22-.813-1.728 0-2.033 1.22-.658 1.524-1 .406-1.043 0-1.754-.914-1.12-.914-1.12-.203-.304-.916-.406-.812-1.223-1.117-1.222-2.054-.546-2.438-.001z"/><use xlink:href="#S" x="67.674"/><use xlink:href="#T" x="67.673"/><use xlink:href="#U" x="67.663"/><use xlink:href="#V" x="67.672"/><use xlink:href="#W" x="67.673"/></g><defs><path id="m" d="M254.8 5c5.4 7.8 7.4 17.6 7.4 25.6l-.2 7.2c-.6 5.4-1 11.4-2.2 17.2-.6 3.8-1.8 7.8-2.8 11.602-.6 2.8-1.4 6-1.8 9-.4 1.8-.6 4.198-.6 6.198 0 1-.2 4.802-2.6 4.802-1.2 0-2-3.2-2-3.397 0-.603-.6-1.804-.6-2.603-.2-12.2-6-25.397-7.6-37.397l-.6-6.4V23.4c.4-6 1.6-12 5.4-18-1-1-2.2-2.4-2.6-3.4v-.6c.8 1 2.6 3.2 3.2 3.2.4 0 1.8-1.4 2.8-1.6h.8c1.2 0 2 .2 3.4 1.4 1-1 2.2-2.2 3-3.2C257 2 256 4 254.8 5z"/></defs><clipPath id="n"><use xlink:href="#m"/></clipPath><g clip-path="url(#n)" class="B"><ellipse transform="matrix(-.0334 -.9994 .9994 -.0334 253.4486 267.0645)" cx="255.869" cy="10.972" rx="1.199" ry=".378"/><ellipse transform="matrix(-.0322 -.9995 .9995 -.0322 242.8805 257.821)" cx="246.265" cy="11.319" rx="1.198" ry=".379"/></g></svg>