<svg xmlns="http://www.w3.org/2000/svg" width="480" height="108"><path fill="#f3d2af" d="M465.144 86.766l.604 5.8c0 1-.4 1.604-1.2 1.604-.6 0-.8-.8-.8-1.2 0-.6.396-4.196.6-6.196h.8l-.003-.007zm-240 0l.6 5.8c0 1-.4 1.604-1.2 1.604-.6 0-.8-.8-.8-1.2 0-.6.4-4.196.6-6.196h.8v-.007zm-210 0l.6 5.8c0 1-.4 1.604-1.2 1.604-.6 0-.8-.8-.8-1.2 0-.6.4-4.196.6-6.196h.8v-.007zm419.6 6c0 .398-.4.8-.8 1.198h-1c-.2-.4-.2-1-.2-1.4 0-.6.2-1.396.2-2.196.396-1.4-.2-3.2 1.196-3.804l.605 6.2zm-31.2-6.202v5.8c-.6.8-.8 1.4-1.4 1.4-.8 0-.6-1.2-.6-1.4 0-.4.8-3.8 1.2-5.8h.8zm-120 0v5.8c-.6.8-.8 1.4-1.4 1.4-.8 0-.6-1.2-.6-1.4 0-.4.8-3.8 1.2-5.8h.8zm-28.8 6.202c0 .398-.4.8-.8 1.198h-1c-.2-.4-.2-1-.2-1.4 0-.6.2-1.396.2-2.196.396-1.4-.2-3.2 1.2-3.804l.602 6.2zm-58-.202c-.2.8-.6 1.396-1.2 1.396-1 0-.8-1.603-.8-2v-5.396h1l1 6zm-30.4-6c.6 1.8 1.4 5.2 1.4 5.6 0 1.2-.8 1.4-1.2 1.4-.6 0-.8-.4-.8-.8v-6.2h.6zm-120.4 0l1.2 6c0 1-1 1.2-1.2 1.2-.4 0-.6-.2-.8-.4v-6.8h.8zm326.8.4c0 .4-.4 3.6-.602 5.4 0 .4-.398.8-.803 1h-.8c-.2-.2-.2-.6-.2-1 0-.6 1-3.8 1.4-5.6.195-.2.6-.2.8-.4.205.2.205 0 .205.6zm-31.8 5.2c0 .2-.4.8-.8.8h-.803c-.197-.198-.197-.4-.197-1 0-.4 1.197-3.6 1.8-5.4.2 0 .6-.196.8-.196l-.8 5.795zm-28.2-5.2c0 .4-.4 3.6-.602 5.4 0 .4-.398.8-.803 1h-.8c-.2-.2-.2-.6-.2-1 0-.6 1-3.8 1.4-5.6.195-.2.6-.2.8-.4.205.2.205 0 .205.6zm-175.6-.4l1.6 5.396c0 .604-.6 1.397-1.2 1.397-1 0-1-3.197-1-3.397v-3.603c.2.207.6.207.6.207zm-29.2 0c.8 1.6 1.8 4.396 1.8 5 0 .8-.8 1.396-1.2 1.396-1.6 0-1.2-5.396-1.4-6.603.2.007.6.207.8.207zm-31 .4c.6 1.4 1.4 4.6 1.4 5.2 0 1-.8 1.2-1.2 1.2-1.8 0-.8-3.6-1-4.2l.2-2.8c.2.2.6.2.6.6zm383.2 14h-.6c-.4-.6-.4-1.4-.4-1.8 0-4 2.4-9.8 3.604-13.6 0 0 .2 0 .396.2-1 4.6-1.6 10.4-3 15.2zm-84.6-9.8c.6 1.4 3.2 3.602 3.2 4.2v1h-1c-2-1.6-3.8-4.2-3.602-6.2l.197-4.6c.405 1.8.604 3.8 1.205 5.6zm-60 0c.6 1.4 3.2 3.602 3.2 4.2v1h-1c-2-1.6-3.8-4.2-3.602-6.2l.197-4.6c.405 1.8.604 3.8 1.205 5.6zm-95.4 9.8h-.6c-.4-.6-.4-1.4-.4-1.8 0-4 2.4-9.8 3.6-13.6a.62.62 0 0 0 .4.199c-1 4.6-1.6 10.4-3 15.2zm-210 0h-.6c-.4-.6-.4-1.4-.4-1.8 0-4 2.4-9.8 3.6-13.6a.62.62 0 0 0 .4.199c-1 4.6-1.6 10.4-3 15.2zm458.6-9.8c1 1.4 2.8 2.602 4.2 4v.602c-.2.198-.2.198-.804.198-1.196 0-3.6-2.4-4.196-3.4-1-2-1.604-5.6-1.604-6V85.37c.604 1.795 1.205 3.795 2.405 5.795zm-36.4-5.2c0 1.2-3 12-3.8 14.4h-.6c-.2-.4-.4-.8-.4-1.4 0-3.198 3.6-11.6 4.6-13.6 0 .2.2 0 .2.6zm-30.8-.198l-4.6 14c-1-.2-1-.602-1-1.2 0-3 4.6-11.8 5.396-13.196.005.195.205.397.205.397zm-120 0l-4.6 14c-1-.2-1-.602-1-1.2 0-3.6 5-11.6 5.396-13.196.005.195.205.397.205.397zm-29.2.198c0 1.2-3 12-3.8 14.4h-.6c-.2-.4-.4-.8-.4-1.4 0-3.198 3.6-11.6 4.6-13.6 0 .2.2 0 .2.6zm-23.6 5.2c1 1.4 2.8 2.602 4.2 4v.602c-.2.198-.2.198-.8.198-1.2 0-3.6-2.4-4.2-3.4-1-2-1.6-5.6-1.6-6V85.37c.6 1.795 1.2 3.795 2.4 5.795zm-210 0c1 1.4 2.8 2.602 4.2 4v.602c-.2.198-.2.198-.8.198-1.2 0-3.6-2.4-4.2-3.4-1-2-1.6-5.6-1.6-6V85.37c.6 1.795 1.2 3.795 2.4 5.795zm419.6 1c.604 1 3 2 3.4 3.602-.2.198-.2.398-.8.398-1.604 0-3.804-2.8-4.4-4.398-.6-1.802-1-5.397-1-5.802v-.8c.6 2 1.2 4.602 2.8 7zm-28.2 3.2v1h-.8c-3.4-2.4-4.4-5.2-4.4-7.6V85.16c2 9.606 5.2 8.204 5.2 10.204zm-120 0v1h-.8c-3.4-2.4-4.4-5.2-4.4-7.6V85.16c2 9.606 5.2 8.204 5.2 10.204zm-31.8-3.2c.6 1 3 2 3.4 3.602-.2.198-.2.398-.8.398-1.604 0-3.8-2.8-4.4-4.398-.6-1.802-1-5.397-1-5.802v-.8c.6 2 1.2 4.602 2.8 7zm-54.4 3c-.2 0-.2.2-.8.2-1.4 0-4.2-3-4.6-3.8-.8-2-1.2-4-1.6-6 .8 1.6 1.8 3.6 3 5.6 1.2 1 2.6 2 4 3.2v.8zm-10.2-9.398c0 1-1.8 12.8-2.4 15.198-1-.6-1-2-1-2.198 0-3.397 2.4-11 3.2-13.602.2.2.2 0 .2.602zm-139.4 9.198c-.2 0-.4.2-.8.2-1 0-4-2.6-4.4-3.2-1-2-1.4-4.198-2-6.4l2.8 5c1.4 1.4 3 2.4 4.4 3.604v.795zm-10.4-9.4l-1.8 15-.4.396c-1.2-.603-1-1.603-1-2.196 0-3.804 2-10.4 3-13.604.2.204.2.004.2.404zm326.8.202l-5.4 13.198h-.8c0-.198-.2-.4-.2-1 0-1.6 1.8-5.198 2.4-6.198 1.2-2.397 2.6-4.602 3.8-6.802 0 .2 0 .6.2.802zm-23.4 10.598c-.2.2-.2.2-.6.2-1.8 0-3.602-4.8-3.602-5.2 0-4.6.197-5.4.197-6.4.4 1.802.604 3.802 1 5.802.2 1.603 2 3.198 3 4.8l.005.8zm-36.6-10.598l-5.4 13.198h-.8c0-.198-.2-.4-.2-1 0-1.6 1.8-5.198 2.4-6.198 1.2-2.397 2.6-4.602 3.8-6.802 0 .2 0 .6.2.802zm-135.6 8.798h-1.6c-4.8-2-5-6.4-6-9.4 1 1.4 1.8 3.2 2.8 4.8 1.6 1.6 3.4 2.6 4.8 4v.6zm-12.2 6s0 .2-.4.2c-.6 0-.6-.2-.8-.604v-4.396c.8-3.604 1.6-7.4 2.6-10.804l-1.4 15.605zm170.8-2.4h-.8c0-.2-.2-.398-.2-.8 0-3 5.8-11 7-12.6-1.2 4.003-3.8 9.2-6 13.4zm-199.2-1c-.2 1-.2 2.2-.2 3.2-.2.2 0 .2-.6.2s-.8-1.604-.8-1.604v-3.603l2-10.6-.4 12.407zm-48.8-3h-1.4c-4.4-1.6-5.8-6.2-6.4-9.2 1 1.4 2 3.2 3.2 5 1.4 1.2 3 2.2 4.6 3.4v.8zm-11.2-1.6c-.8 3.396 0 8.2-1.2 8.2-.8 0-.8-1.2-.8-1.2v-4.4l2-10.398v7.798zm31 7.6c0 .2.2.2-.4.2-1 0-1-2-1-2.2v-3.398l1.4-10.397v15.795zm37-9.6c1 .8 2.6 1.6 3.6 2.6v.602c-.2 0-.4.198-1 .198-1.2 0-4.6-2.8-4.8-3.4-1-1.8-2.2-5.396-2.2-5.8v-.602c1 2 2 4.602 4.4 6.4zm-29.8-1c1.2 1.2 3 1.8 4.4 2.8v.6c-.2.2-.4.2-.8.2-.6 0-1-.398-1.6-.6-4.2-1.4-5.2-6.2-6-8.8 1 1.8 2.2 4.003 4 5.8z"/><path fill="#ffe164" d="M441.544 95.364v.6s0 .2-.4.2c-1.396 0-3.196-2-4.196-3.6s-1.2-4.604-1.2-5v-1.8c.595 3.003 2.395 6.8 5.795 9.6zm-180 0v.6s0 .2-.4.2c-1.396 0-3.2-2-4.2-3.6s-1.195-4.604-1.195-5v-1.8a17.09 17.09 0 0 0 5.795 9.601zm207.4-3.8c1 1.396 3.396 2 4 4.2-.2 0-.4.196-.804.196-1 0-4.396-3.603-4.6-4.396-.6-1.8-1.2-5-1.2-5.4v-.6c.805 2 1.405 4 2.604 6zm-240 0c1 1.396 3.4 2 4 4.2-.2 0-.4.196-.8.196-1 0-4.4-3.603-4.6-4.396-.6-1.8-1.2-5-1.2-5.4v-.6c.8 2 1.4 4 2.6 6zm-210 0c1 1.396 3.4 2 4 4.2-.2 0-.4.196-.8.196-1 0-4.4-3.603-4.6-4.396-.6-1.8-1.2-5-1.2-5.4v-.6c.8 2 1.4 4 2.6 6zm391.2 3.8v.8s0 .2-.396.2c-1.2 0-4-3.8-4.2-4.4-.397-1.198-.604-3.6-.604-4v-2.8c.8 3.4.998 6.602 5.2 10.2zm-120 0v.8s0 .2-.396.2c-1.2 0-4-3.8-4.2-4.4-.397-1.198-.604-3.6-.604-4v-2.8c.8 3.4.998 6.602 5.2 10.2zm88-.8c.2 0 .604.396.604 1v.8h-1c-2.2-1.8-3.604-4.4-3.604-6.4v-5c.798 3.2 0 6.4 4 9.6zm-60 0c.2 0 .604.396.604 1v.8h-1c-2.2-1.8-3.604-4.4-3.604-6.4v-5c.798 3.2 0 6.4 4 9.6zm26.4-3c.6 1.2 2.6 2.8 2.8 4.8-.2.2 0 .2-.6.2-1.602 0-3.4-4.2-3.4-4.4-.2-.8-.2-2-.2-2.6 0-.4.2-3.2.4-4.8.2 1.8 0 4.8 1 6.8zm123.4-6c2.6 2.396 7.6 8.8 7.6 11.8 0 1.2-.4 1.4-1 1.4-2.2 0-5.8-3.4-7.6-3.4-.604.6-1 1.4-1.4 2.2-.6 1.2-1.4 8.8-5.8 8.8-1.604 0-2.4-3.6-2.4-4.2 0-6.2 2.4-12.8 4.604-18.8.396.6 1 1.4 1 2 0 0-4 11.8-4 13.8 0 .8-.2 1.2.8 2 .2 0 .6-.398.6-.6.604-2 1.2-4.2 1.4-6.2l.6-3.6c.4-1.604.604-3.2.803-4.804 1 .804 1 .604 1 1.604 0 .396-.398 4.2-.398 4.8 0 1-.2 2 .8 2 1.2 0 1.4-1.6 1.4-1.8 0-.4-.8-5.2-.8-5.8 0-.4.602-.804 1-1.4.197-.6.397-1.4.8-2.2.19.8.39 1.8 1 2.4zm-240 0c2.6 2.396 7.6 8.8 7.6 11.8 0 1.2-.4 1.4-1 1.4-2.2 0-5.8-3.4-7.6-3.4-.6.6-1 1.4-1.4 2.2-.6 1.2-1.4 8.8-5.8 8.8-1.6 0-2.4-3.6-2.4-4.2 0-6.2 2.4-12.8 4.6-18.8.2.6 1 1.4 1 2 0 0-4 11.8-4 13.8 0 .8-.2 1.2.8 2 .2 0 .6-.398.6-.6.6-2 1.2-4.2 1.4-6.2l.6-3.6c.4-1.604.6-3.2.8-4.804 1 .804 1 .604 1 1.604 0 .396-.4 4.2-.4 4.8 0 1-.2 2 .8 2 1.2 0 1.4-1.6 1.4-1.8 0-.4-.8-5.2-.8-5.8 0-.4.6-.804 1-1.4.2-.6.4-1.4.8-2.2.2.8.4 1.8 1 2.4zm-210 0c2.6 2.396 7.6 8.8 7.6 11.8 0 1.2-.4 1.4-1 1.4-2.2 0-5.8-3.4-7.6-3.4-.6.6-1 1.4-1.4 2.2-.6 1.2-1.4 8.8-5.8 8.8-1.6 0-2.4-3.6-2.4-4.2 0-6.2 2.4-12.8 4.6-18.8.4.6 1 1.4 1 2 0 0-4 11.8-4 13.8 0 .8-.2 1.2.8 2 .2 0 .6-.398.6-.6.6-2 1.2-4.2 1.4-6.2l.6-3.6c.4-1.604.6-3.2.8-4.804 1 .804 1 .604 1 1.604 0 .396-.4 4.2-.4 4.8 0 1-.2 2 .8 2 1.2 0 1.4-1.6 1.4-1.8 0-.4-.8-5.2-.8-5.8 0-.4.6-.804 1-1.4.2-.6.4-1.4.8-2.2.2.8.4 1.8 1 2.4zm419.2-.2c.804 1.2 2.2 2.4 3.2 4 .8 1 3.8 6.4 3.8 8.4 0 1-.196 1.196-1.196 1.196-2.4 0-5-3.603-7-3.603-3 0-2.804 10.4-8 10.4-1.604 0-2.4-3-2.4-3.802 0-.6.4-2.6.603-3.8.397-5.2 3.397-10 5.197-15 .4.602.803 1.602.803 2 0 .2-4.803 11-4.803 14 0 .4.4 1 .803 1.4.197 0 .397 0 .397-.2 1.603-4.8 2.8-9.603 4-14.4.2.4.603.6.8 1.2l-.8 5.602c0 .6.4 1.398.8 1.398 1.604 0 1.4-2 1.4-2.398 0-.602-.4-4.602-.4-5 0-.602.803-1.2 1.2-1.4.2-.8.4-1.6.8-2.397.195.807.395 1.605.795 2.405zm-180 0c.8 1.2 2.2 2.4 3.2 4 1 1.4 3.8 6.2 3.8 8.4 0 1-.2 1.196-1.2 1.196-2.396 0-5-3.603-7-3.603-3 0-2.8 10.4-8 10.4-1.6 0-2.396-3-2.396-3.802 0-.6.396-2.6.603-3.8.397-5.2 3.397-10 5.2-15 .396.602.8 1.602.8 2 0 .2-4.8 11-4.8 14 0 .4.396 1 .8 1.4.2 0 .397 0 .397-.2 1.603-4.8 2.804-9.603 4-14.4.2.4.603.6.804 1.2l-.804 5.602c0 .6.396 1.398.804 1.398 1.6 0 1.396-2 1.396-2.398 0-.602-.396-4.602-.396-5 0-.602.8-1.2 1.196-1.4.2-.8.396-1.6.804-2.397.192.807.392 1.605.793 2.405zm144.2-.4c0 .2-5.4 10.6-5.4 13.4 0 .2-.195 1 .604 1.6.2 0 .396-.198.396-.4 2-4.396 3-9.196 4.604-13.6.396.4 1 .4 1 .802 0 .603-1.196 5.198-1.196 5.8 0 1 .196 1.2.8 1.2s1-.397 1.397-.802c.2-5.4 0-6.198 0-6.6 0-.6 1-1 1.2-1.4.396-.6.604-1.4 1-2.198.195.8.195 1.8.8 2.8s1.802 2.2 2.396 3.2c.805.8 3.805 7.198 3.805 9.198 0 1.2-.805 1.4-1.2 1.4-2.397 0-5-4.2-7-4.2-1.198 0-1.8 1.2-2.198 2.4-1.2 2.396-3 8.2-7 7.396-.802-.396-1.398-3.196-1.398-3.8 0-5 4.8-14.2 6.8-18.396.39.6.6 1.6.6 2.2zm-120 0c0 .2-5.4 10.6-5.4 13.4 0 .2-.195 1 .604 1.6.2 0 .396-.198.396-.4 2-4.396 3-9.196 4.604-13.6.396.4 1 .4 1 .802 0 .603-1.196 5.198-1.196 5.8 0 1 .196 1.2.8 1.2s1-.397 1.397-.802c.2-5.4 0-6.198 0-6.6 0-.6 1-1 1.2-1.4.396-.6.604-1.4 1-2.198.195.8.195 1.8.8 2.8s1.802 2.2 2.396 3.2c.805.8 3.805 7.198 3.805 9.198 0 1.2-.805 1.4-1.2 1.4-2.397 0-5-4.2-7-4.2-1.198 0-1.8 1.2-2.198 2.4-1.2 2.396-3 8.2-7 7.396-.802-.396-1.398-3.196-1.398-3.8 0-5 4.8-14.2 6.8-18.396.39.6.6 1.6.6 2.2zm-82.8.2c1 1 2.6 2.2 3.8 3.8 1.8 2.2 4.4 5.6 4.4 7.802 0 1.198-.8 1.198-1.2 1.198-2 0-5.8-3-7.6-3-1 1.4-1.6 2.802-1.8 4.2-.4 2.2-2 7.602-5.6 7-1.6-1.8-1.8-3-1.8-4.398 0-8.2 1-8.602 3.8-18.802.4.6 1 1.6 1 2 0 .6-.6 1.6-.8 2.4-.8 2.8-2.6 8.2-2.6 11.6 0 .4.4 1.802 1 2.2 1-.8.8-3.2 1.2-4.2.2-.8.4-1.6.4-2.4l.6-4.8c.2-1.2.4-2.602.6-4 .6.603 1 .603 1 1.198 0 .6-.4 5-.4 5.4 0 .8.2 1.8 1 1.8.6 0 1.4-1 1.4-1.6 0-.4-1-5-1-5.604 0-.396.6-1 .8-1.396.4 1.8.8 3.6 1.4 5.396.2.804 3.8 4.397 4.4 4.397h1.4c.2-.197.2 0 .2-.6 0-1.4-2-2-3-2.802-.4-.198-1-.6-1.2-1s-3-5.6-3-6.6c0-.603.2-1.2.4-1.8.4.81.6 1.81 1.2 2.61zm172-1.6c0 2.396-6.2 11.2-6.2 14.2 0 .6.2 1 .6 1.396.2 0 .604-.396.604-.604 2-4.2 3.603-8.6 5.2-12.8.195.398 1 .6 1 1 0 .6-1.604 5.198-1.604 5.6 0 .603.2 1.2.8 1.2 1 0 2-2.2 1.604-3 0-.8.2-1.8.2-2.8 0-1.602 1.604-3.802 2.396-5 .2 1 .4 2 .8 3 .604 1.198 1.805 2.398 2.4 3.8 1 1.8 2.8 6.4 2.8 8.4 0 1.4-.396 1.6-1.2 1.6-2.396 0-5.195-4.6-7-4.6-2.8 0-3.396 9.2-8.6 9.2-2.2 0-2.2-3.2-2.2-3.8 0-.4.4-1.8.604-2.603 1-5.196 4.8-10.397 7.602-15.603.195.417.195 1.017.195 1.417zm-60 0c0 2.396-6.2 11.2-6.2 14.2 0 .6.2 1 .6 1.396.2 0 .604-.396.604-.604 2-4.2 3.603-8.6 5.2-12.8.195.398 1 .6 1 1 0 .6-1.604 5.198-1.604 5.6 0 .603.2 1.2.8 1.2 1 0 2-2.2 1.604-3 0-.8.2-1.8.2-2.8 0-1.602 1.604-3.802 2.396-5 .2 1 .4 2 .8 3 .604 1.198 1.805 2.398 2.4 3.8 1.2 2.4 2.8 6 2.8 8.4 0 1.4-.396 1.6-1.2 1.6-2.396 0-5.195-4.6-7-4.6-2.8 0-3.396 9.2-8.6 9.2-2.2 0-2.2-3.2-2.2-3.8 0-.4.4-1.8.604-2.603 1-5.196 4.8-10.397 7.602-15.603.195.417.195 1.017.195 1.417zm-141.6.8c1.4 1.4 3.2 2.8 4.6 4.4 1.4 1.396 4.4 5.396 4.4 7.396 0 1-.8 1-1.2 1-2.4 0-5.8-3-7.8-2.604-1.8 3-1.4 6-2.8 9-.6 1.4-2.6 2.4-3.4 2.4-1.4 0-2.6-2.8-2.6-3.198v-5.2c0-5 2-10 3-15 .2.604 1 1.604 1 2 0 0-2.6 11.8-2.6 13.604 0 .197-.2 2.396.8 2.8 1.4-1.196.8-3.603 1.4-5.196 0-.804.2-1.604.2-2.4l.6-8 1 1v5.8c.4.8.4 1.602 1 1.602s1.4-1 1.4-1.397c0-.603-1.2-5-1.2-5.4 0-.6.6-1 .8-1.6.2.6.4 1.397.4 2 .2 1.196.8 2.6 1.6 4 .8 1.196 3.6 3.397 4.6 3.397.6 0 .8-.2 1.2-.602-.6-1.6-3.2-2.2-4-3.398-1.6-1.802-2.6-4-3.8-6l.2-2.802c.4.802.6 1.6 1.2 2.4zm-120.2.6c1.2 1.2 3 2.802 4.4 4.4 1.6 1.4 4 5.6 4 7.2 0 1.2-.8 1.2-1.2 1.2s-5-2-7.6-3c-1 1-1.6 3.196-1.8 4.396s-.4 3-1.4 4.604c-.8 1.196-2.4 2.396-3.4 2.396s-2.4-2.2-2.4-3v-5.2c0-5.196 2.2-10.196 3.4-15.196.2.6 1 1.6 1 2 0 .6-3.2 11.396-3.2 14 0 .396.2 1.396.8 2.196h.6c1.2-5 1.4-10.396 2.2-15.396.2.2.8.396.8 1 .4 1.2 0 3.6 0 4.2 0 .396-.4 3.196 1 3.196.8 0 1.2-1.196 1.2-1.603 0-.6-1-5-1-5.397 0-.603.6-1 .8-1.396a38.12 38.12 0 0 0 1.8 5.799c.2.4 3.6 3.8 4.2 3.8h1.4c0-.2.2-.2.2-.6 0-1.4-3.8-3-4.2-3.604-1.4-2-2.2-4-3.2-6l.2-3c.4 1.006.6 2.006 1.4 3.006zm284 12.2c0 .4.2.8.398 1.2.197 0 .602-.2.8-.6 2.2-4 4-8 5.8-12 .398.396 1 .396 1 1 0 .396-1.8 4.8-1.8 5.196 0 .604.2 1.2.8 1.2 1 0 1.398-1.803 1.6-2.396.2-.4.2-1 .2-1.4.2-.4.2-1 .2-1.4.2-.4.2-1 .2-1.4l2.6-3.8c.2 1 .2 2 .6 3 .8 1.398 1.8 2.8 2.4 4.398.6 1.2 2 5.8 2 7.8 0 .802-.2 1.802-1.2 1.802-2.4 0-5.2-5.2-6.8-5.2s-4.4 8.804-9.2 8.804c-2.2 0-2-3-2-3.804 0-.6.8-2.396 1-3.196 1.2-4.804 5.8-10.603 9-15 0 4.795-7.6 11.595-7.6 15.795zm-253.4-13c.6.8 1.8 1.4 2.8 2.2 2.4 2 4 4.4 5.4 6.6.6.6 1.2 2.2 1.2 2.6 0 1.2-1.2 1-1.6 1-1.8 0-6.4-2.396-7-2.396-1.4 0-2 4.604-2 4.8-.2 1.4-.4 2.804-1 4.2-.4 1-2.4 2.8-3.4 2.8s-2.6-2.396-2.6-3v-9.8l2.4-10.8c.2.6 1 1.6 1 2.196 0 1.604-2.2 9.804-2.2 13 0 .4.2 2.4.8 3.2h.6c.6-2.802.4-6 1-8.802l.2-6.8c1.4.8 1 1.4 1 1.8 0 .6 0 1 .2 4.802 0 .398-.2 1.8 1.2 1.8.6 0 1.2-1.196 1.2-1.6 0-.4-1.4-4.8-1.4-5.198 0-.602.6-1 .8-1.602.6 2 1 4 2.2 6 .6.8 3.4 3.2 4.8 3.2.4 0 .6-.2 1-.4-.2-1.6-2-2.198-3-2.8-2.6-1.6-3.8-5-5.2-7l.2-2.8c.4.8.6 1.8 1.4 2.8zm63.4 2.2c1.2.8 6.4 7.2 6.4 9 0 .8-.8 1-1.2 1-2.2 0-6.4-2.8-8-2.2-.4 1.2-1 2.602-1.2 4 0 0-.6 7.8-4.4 7.8-2 0-2.8-4-2.8-4.4V93.17l2.2-11c.4.8.8 1.604 1 2.396l-2 13c-.2.604-.2 3.2 1.4 3.2.4-1.397.6-3 .8-4.397l.4-11c.2.196.6.397.8 1 .6 1.196-.4 7.196 1.4 7.196.6 0 1.4-1.196 1.4-1.6 0-.6-1.4-4.6-1.4-5 0-.6.4-1.4.6-2 .6 1.802 1 3.802 2.2 5.802.8 1.198 3.6 3.398 5 3.398.4 0 .6-.2 1-.6-1-2.2-3-2-4.4-3.604-2-2-4.4-5.603-4.2-7.8l.2-1.2c.4 1.806 2.8 4.204 4.8 5.404zm-28.8-.2c1.8 1.4 4 4.2 5.2 6 .2.4 1 1 1 1.602v1.603h-2.8c-1.8-.804-4.6-2-6.2-1.804-.6 1.4-1 3-1.2 4.604 0 .396-.2 7.396-4 7.396-3.2 0-3.2-6.6-3.2-7.396 0-.604 0-3.396-.2-3.8l1.8-12.4c.4.604 1.2 1.604 1.2 2.2 0 .396-1.6 11.8-1.6 12.396 0 1-.2 2.604.8 4h.8c.8-1.6.6-3.8.6-5.396 0-.396-.4-9-.2-10.2.4.4.8.604 1 1.2.4.604.2 7 1.6 7 .6 0 1.4-1.2 1.4-1.604 0-.6-1.8-4.6-1.8-5s.6-.6.4-1.8c0 0 0-.2.2-.397 0 2.397 3.8 9 7.6 9 .4 0 1-.4 1-.804 0-1.6-3.6-2.396-4-2.8-2.4-2-4-5-5.2-7.397l.2-2c.2 1.995 3.8 4.595 5.6 5.795z"/><path fill="#f7ca0f" d="M466.8 5c5.2 8.2 7.4 17.6 7.4 26l-.2 7c-.6 6.6-1.2 13.2-2.8 19.8-1.2 5-2.6 10.2-3.6 15.6-.6 3.4-.8 7.4-1.4 11.202-.2 1.398-1.2 2-2.2 2-1.2 0-2-3.2-2-3.397 0-.603-.6-1.804-.6-2.603 0-12.802-6.8-26.602-7.8-39.2 0-1.4-.396-4.2-.396-4.6V23.4c.396-6 1.6-12 5.396-18-1-1-2.196-2.4-2.6-3.4v-.6c.8 1 2.6 3.2 3.2 3.2.396 0 1.8-1.4 2.8-1.6h.8c1.2 0 1.604.6 3.4 1.4 1-1 2.2-2.2 3-3.2C469 2 468 4 466.8 5zm-37.6-.4c1.8-1 2.6-1.6 3.6-1.6 1.4 0 2.4 1.2 3.2 1.2.4 0 2.2-2 2.8-3 0 2-2 3.2-2 3.8s2.2 3.4 3 5.4c3 6.6 4.4 13.6 4.4 20.4 0 .4-.2 1.8-.2 6.4-.4 15.4-6 30.8-8.2 46.4 0 .6-.6 1.8-1.6 2.6-.2.2-.2.2-.8.2-2 0-2.2-3.8-2.2-4.604V77.6c-.8-12.2-6.6-24.4-7.6-36.6 0-1.6-.396-4.6-.396-5V24.2c.2-1.2.2-2.6.396-3.8.2-1.6.4-3.4.804-4.8.396-2.2 1.196-4.8 2.196-6.8.4-1.2 2-3 2-3.4 0-.6-2.396-3.2-2.396-3.6v-.6C427 2.2 428 3.4 429.2 4.6zm-180 0c1.8-1 2.6-1.6 3.6-1.6 1.4 0 2.4 1.2 3.2 1.2.4 0 2.2-2 2.8-3 0 2-2 3.2-2 3.8s2.2 3.4 3 5.4c3 6.6 4.4 13.6 4.4 20.4 0 .4-.2 1.8-.2 6.4-.398 15.4-6 30.8-8.2 46.4 0 .6-.6 1.8-1.6 2.6-.2.2-.2.2-.8.2-2 0-2.2-3.8-2.2-4.604V77.6c-.6-11.8-6.8-24.8-7.6-36.6 0-1.6-.4-4.6-.4-5V24.2c.2-1.2.2-2.6.4-3.8.196-1.6.396-3.4.8-4.8.396-2.2 1.2-4.8 2.2-6.8.396-1.2 2-3 2-3.4 0-.6-2.4-3.2-2.4-3.6v-.6c.8 1 1.8 2.2 3 3.4zm-22.4.4c5.2 8.2 7.4 17.6 7.4 26l-.2 7c-.6 6.6-1.2 13.2-2.8 19.8l-2 8c-.8 3-1.6 6.6-2 10-.4 3 0 6.802-1.4 9.802-.2.603-1.4 1-1.8 1-.6 0-2-2.397-2.2-3.2-.2-.8-.4-1.8-.4-2.8-.4-9.2-3-18.802-5.8-28-.2-.4-2.4-13.6-2.4-15.8V23.4c.4-6 1.6-12 5.4-18-1-1-2.2-2.4-2.6-3.4v-.6c.8 1 2.6 3.2 3.2 3.2.4 0 1.8-1.4 2.8-1.6h.8c1.2 0 2 .2 3.4 1.4 1-1 2.2-2.2 3-3.2C229 2 228 4 226.8 5zm-37.6-.4c1.8-1 2.6-1.6 3.6-1.6 1.4 0 2.4 1.2 3.2 1.2.4 0 2.2-2 2.8-3 0 2-2 3.2-2 3.8s2.4 3.4 3 5.4c3 7.6 4.4 13.4 4.4 20.6 0 .4 0 1.8-.2 6.6-.2 2.6-.6 5.2-.8 7.8-.4 3.2-.8 7-1.6 10.6-1.2 5.602-4.6 16.602-4.6 23.8v4.4c-1 1.4-.4 2.2-1.8 2.2-3 0-3.4-7.8-3.4-7.8-1-13.2-8-26.4-8.4-39.604 0-1-.2-2.6-.2-3V24.2c.2-1.2.2-2.6.4-3.8.2-1.6.4-3.4.8-4.8.4-2 1.2-4.4 2-6.4.4-1.4 2.2-3.4 2.2-3.8 0-.6-2.4-3.2-2.4-3.6v-.6c.8 1 1.8 2.2 3 3.4zM16.8 5c5.4 7.8 7.4 17.6 7.4 25.6l-.2 7.2c-.6 5.4-1 11.4-2.2 17.2-.6 3.8-1.8 7.8-2.8 11.602-.6 2.8-1.4 6-1.8 9-.4 1.798-.6 4.198-.6 6.198 0 1-.2 4.802-2.6 4.802-1.2 0-2-3.2-2-3.397 0-.603-.6-1.804-.6-2.603-.2-12.2-6-25.397-7.6-37.397l-.6-6.4V23.4c.4-6 1.6-12 5.4-18C7.6 4.4 6.4 3 6 2v-.6c.8 1 2.6 3.2 3.2 3.2.4 0 1.8-1.4 2.8-1.6h.8c1.2 0 2 .2 3.4 1.4 1-1 2.2-2.2 3-3.2C19 2 18 4 16.8 5zm30 0c0 .4 1.8 2.8 2.6 4.6C50.6 12 54 22.6 54 26v10.8c-.2 3.4-.6 6.8-1 10.2-.2 2-.6 4.6-1 6.8-1.8 8.8-4.8 18.2-5 27.4 0 .2.4 5.2-1.4 5.2-.6 0-.4 0-.6-.2-.8-.4-1.6-1.4-2-2.2-.8-2.2-1-4.6-1.2-6.8-1.2-9.2-5.2-19.4-7-28.4 0-.4-1.6-11.4-1.6-13.8v-9.6c.2-1.4.2-3 .4-4.6s.4-3.6.8-5.2c.4-2 1.2-4.4 2-6.4.4-1.4 2.2-3.4 2.2-3.8 0-.2-2.4-2.6-2.2-4.2.6 1 1.6 2.2 2.8 3.4C41 3.6 41.8 3 42.8 3c1.2 0 2 .2 3.2 1.4 1-1 2-2.2 2.8-3.4 0 2-2 3.2-2 4zM403 3c1.2 0 2.2 1.2 3 1.2.4 0 2-2.2 2.602-3.4 0 1.4-1 2.8-2 4.2C408.4 7 409 8.8 410 11c.602 1.2 4 12.2 4 15.2V37c-.2 3.6-.6 7-1 10.4-.398 3.2-.8 6.4-1.6 9.6l-5.8 25c-.2 1-1.2 5-3.604 4.4-1-1.2-1.604-3.4-1-4.4v-4.398c-.604-5-1.396-10.602-2.8-15.802-1.4-5.4-4.803-17-4.803-24V22.6c.2-1 .4-2.2.4-3.2.4-3.2 1.2-6.6 2.4-9.6.397-1.4 2.397-4 2.397-4.4 0-.6-1.196-1.4-1.6-2.2-.4-.6-.4-1.4-.604-2.4.604 1 1.604 2.4 2.8 3.8C400.4 3.8 402 3 403 3zm-30.2 0c1.2 0 2 .6 3.2 1.2.8-1 1.602-2.2 2.2-3.2 0 0 .2-.2.2.4 0 .4-1.8 3-1.8 3.6 0 .4.8.8 1 1.4.8 1 1.6 2.6 2 3.8 3.197 7.6 4.397 14.2 4.397 21.4l-.2 7.8c-.396 4-1 8-1.396 12-.604 5-2.604 11.2-3.604 16.4 0 0-3 18.602-7.396 18.602-.604 0-1.2-2.397-1.2-2.602 0-.6.4-1.8.4-8-.2-6.6-2.4-13.398-4.2-20.2-1.2-4.8-3-12.6-3-18V23.2c.2-1 .2-2.2.396-3.4.2-1.6.4-3.4.805-4.8.4-2.2 1.2-4.8 2.4-7 .4-1 1.602-2.2 1.602-2.6 0-.6-1.602-3-2-4.4.8 1 1.8 2.4 2.8 3.6 1-1.4 2.4-1.6 3.4-1.6zm-60 0c1.2 0 2 .6 3.2 1.2.8-1 1.602-2.2 2.2-3.2 0 0 .2-.2.2.4 0 .4-1.8 3-1.8 3.6 0 .4.8.8 1 1.4.8 1 1.6 2.6 2 3.8 3.197 7.6 4.397 14.2 4.397 21.4l-.2 7.8c-.396 4-1 8-1.396 12-.604 5-2.604 11.2-3.604 16.4 0 0-3 18.602-7.396 18.602-.604 0-1.2-2.397-1.2-2.602 0-.6.4-1.8.4-8-.2-6.398-2.2-13.2-4-19.6-1-3.4-3.2-13.6-3.2-18.6V23.2c.2-1 .2-2.2.396-3.4.2-1.6.4-3.4.805-4.8.4-2.2 1.2-4.8 2.4-7 .4-1 1.602-2.2 1.602-2.6 0-.6-1.602-3-2-4.4.8 1 1.8 2.4 2.8 3.6 1-1.4 2.4-1.6 3.4-1.6zM283 3c1.2 0 2.2 1.2 3 1.2.4 0 2-2.2 2.602-3.4 0 1.4-1 2.8-2 4.2C288.4 7 289 8.8 290 11c.602 1.2 4 12.2 4 15.2V37c-.2 3.6-.6 7-1 10.4-.398 3.2-.8 6.4-1.6 9.6l-5.8 25c-.2 1-1.2 5-3.604 4.4-1-1.2-1.604-3.4-1-4.4v-4.398c-.396-5.397-1.396-11.2-3-16.602-1.396-4.8-4.604-17.4-4.604-23.2V22.6c.2-1 .4-2.2.4-3.2.4-3.2 1.2-6.6 2.4-9.6.397-1.4 2.397-4 2.397-4.4 0-.6-1.196-1.4-1.6-2.2-.4-.6-.4-1.4-.604-2.4.604 1 1.604 2.4 2.8 3.8C280.4 3.8 282 3 283 3zM162.8 3c1.2 0 2 .6 3.2 1.4 1-1.2 2-2.4 2.6-3.6 0 1.4-1 2.8-2 4.2 5.8 8.6 7.4 17.8 7.4 26.6 0 10.4-1.4 21-4.2 31.8-.6 2-1 4.6-1.4 6.8-.6 2.4-1 5.2-1 8.2-.4 6 0 6.2 0 6.8 0 .4-.4 1.2-1 1.2-1.4 0-3-1.604-3.2-3.2-1.6-10-4.8-21-7.6-30.8-.2-.8-2.2-11.6-2.2-14V22.6c.2-1 .4-2.2.4-3.2.4-3.2 1.2-6.6 2.4-9.6.4-1.4 2.4-4 2.4-4.4 0-.6-1.2-1.4-1.6-2.2-.4-.6-.4-1.4-.6-2.4.6 1 1.6 2.4 2.8 3.8C160.4 4 162 3 162.8 3zM133 3c1 0 1.8.6 3 1.2.8-1 1.6-2.2 2.2-3.2 0 0 .2-.2.2.4 0 .4-1.8 3-1.8 3.6 0 .4.8 1 1 1.4 1 1.2 1.8 2.6 2.2 4.2 3.8 10.2 4.2 12.6 4.2 21l-.2 8c-.2 1.8-.6 3.6-.6 5.4-.6 11.2-5.6 23.2-5.6 34.602 0 .398.4 4.398.4 5 0 .198 0 1.8-.8 1.8-1.8 0-2.8-2-3.4-3.6-1.4-3.6-1.6-7.4-2.6-10.8-2-7.6-4.8-15.398-6.4-23-.8-3.8-1.4-11.2-1.4-11.6v-14c.2-1.2.2-2.4.4-3.6.2-1.8.4-4 1-5.6.4-1.6.8-3.4 1.6-4.8.4-1.2 2.2-3.6 2.2-4 0-.6-1.6-3-2-4.4.8 1 1.8 2.4 2.8 3.6.6-1 2.6-1.6 3.6-1.6zM69.4 4.6C70 3.6 72 3 73 3c1.2 0 2.2 1.2 2.8 1.2s2-2.2 2.6-3.4c0 1.4-1 2.8-1.8 4.2.6.6 1.2 1.4 1.4 2 4.4 8.4 6 16.6 6 24.6l-.2 8.2c-.6 8.4-2.4 17-4.4 25.6-1 3.803-1.8 8.2-1.8 12.2-.2 5 .2 6 .2 6.4s.2 2.4-.8 2.4c-1.8 0-2.6-1.604-3.4-3.4-1-2.6-1-5.6-1.8-8.2-2.2-8.6-5-17.2-7-25.8-.8-3.4-1.4-10.2-1.4-10.6V22.6c.2-1 .4-2.2.4-3.2.4-3.8 1.4-7.8 3.2-11.4.4-1 1.6-2.2 1.6-2.6 0-.6-2-3.4-2-3.8v-1c0 1 1.6 2.6 2.8 4zm270 0c1-1.4 2.396-1.6 3.396-1.6 1.2 0 1.4 0 3 1.2 1-1.2 1.804-2.4 2.2-3.6 0 0 .2-.2.2.4 0 1.2-1.602 3-1.602 3.8 0 .6 2 3 2.602 4.6C353 19 354 23 354 31.6l-.2 7-1.4 12.8c-.6 5.2-2.396 11-3.6 16.6-.198.8-3.6 18.4-8.4 18.4-.6 0-.8-2.4-.8-2.4 0-.398.398-2.6.8-4v-4.8c-.8-14-7-25.6-7-38.6V24.2c.2-1.2.2-2.6.4-4 .2-1 .4-2 .4-3 .4-2 .8-4.4 1.6-6.2.6-2 2.802-5.2 2.802-5.8 0-.4-1.602-2.8-1.602-3.2V.4c.602 1.4 1.4 2.8 2.4 4.2zm-240 0C100 3.6 102 3 103 3c.8 0 1.2 0 2.8 1.2 1-1.2 1.8-2.4 2.2-3.6 0 0 .2-.2.2.4 0 1.2-1.6 3-1.6 3.8 0 .6 2.2 3.4 3 5.4 3.4 7.6 4.4 14 4.4 21.6l-.2 7c-.6 5.4-1.2 11.4-2.2 17.2-.4 2.4-1.4 5-1.8 7.602C109 68.2 108 73.8 108 78.8c0 .6.2 4 .2 4.6 0 .4.4 1 .4 1.604 0 .396-.2 1-.4 1.396-2.4-.196-4-4.396-4.4-5.8-3.2-11.397-7.4-22.802-9.4-34.2-.6-3.2-1-9.4-1-9.8V24.2c.2-1.2.2-2.6.4-4 .2-1 .4-2.2.4-3.2.6-2.2 1-4.6 1.8-6.6.6-1.8 2.6-4.6 2.6-5.2 0-.4-1.6-2.8-1.6-3.2V.4c.6 1.4 1.4 2.8 2.4 4.2z"/><g fill="#28334c"><ellipse transform="matrix(-.0336 -.9994 .9994 -.0336 7.5043 29.1996)" cx="17.869" cy="10.972" rx="1.199" ry=".378"/><ellipse transform="matrix(-.0324 -.9995 .9995 -.0324 -2.78 19.9469)" cx="8.265" cy="11.319" rx="1.198" ry=".378"/><ellipse transform="matrix(-.0336 -.9994 .9994 -.0336 38.5128 59.1822)" cx="47.869" cy="10.971" rx="1.199" ry=".378"/><ellipse transform="matrix(-.0322 -.9995 .9995 -.0322 28.1844 49.9303)" cx="38.266" cy="11.32" rx="1.198" ry=".378"/><ellipse transform="matrix(-.0336 -.9994 .9994 -.0336 69.3502 88.9983)" cx="77.703" cy="10.97" rx="1.199" ry=".378"/><ellipse transform="matrix(-.0324 -.9995 .9995 -.0324 58.9901 79.752)" cx="68.099" cy="11.322" rx="1.198" ry=".378"/><ellipse transform="matrix(-.0336 -.9994 .9994 -.0336 100.3566 118.9801)" cx="107.702" cy="10.97" rx="1.199" ry=".378"/><ellipse transform="matrix(-.0322 -.9995 .9995 -.0322 89.9408 109.7373)" cx="98.1" cy="11.323" rx="1.198" ry=".378"/><ellipse transform="matrix(-.0336 -.9994 .9994 -.0336 131.3656 148.9629)" cx="137.702" cy="10.97" rx="1.199" ry=".378"/><ellipse transform="matrix(-.0324 -.9995 .9995 -.0324 120.9351 139.7204)" cx="128.1" cy="11.321" rx="1.198" ry=".378"/><ellipse transform="matrix(-.0336 -.9994 .9994 -.0336 162.2045 178.7805)" cx="167.538" cy="10.969" rx="1.199" ry=".378"/><ellipse transform="matrix(-.0322 -.9995 .9995 -.0322 151.7027 169.5378)" cx="157.934" cy="11.322" rx="1.198" ry=".378"/><ellipse transform="matrix(-.0336 -.9994 .9994 -.0336 193.2115 208.7626)" cx="197.537" cy="10.969" rx="1.199" ry=".378"/><ellipse transform="matrix(-.0322 -.9995 .9995 -.0322 182.6596 199.5263)" cx="187.931" cy="11.328" rx="1.198" ry=".378"/><ellipse transform="matrix(-.0342 -.9994 .9994 -.0342 286.5889 298.899)" cx="287.716" cy="10.976" rx="1.199" ry=".378"/><ellipse transform="matrix(-.0322 -.9995 .9995 -.0322 275.7383 289.6556)" cx="278.106" cy="11.329" rx="1.198" ry=".379"/><ellipse transform="matrix(-.0338 -.9994 .9994 -.0338 317.4983 328.8573)" cx="317.71" cy="10.958" rx="1.199" ry=".378"/><ellipse transform="matrix(-.0326 -.9995 .9995 -.0326 306.8315 319.6359)" cx="308.105" cy="11.325" rx="1.198" ry=".378"/><ellipse transform="matrix(-.0336 -.9994 .9994 -.0336 224.1407 238.6686)" cx="227.46" cy="10.968" rx="1.199" ry=".378"/><ellipse transform="matrix(-.0324 -.9995 .9995 -.0324 213.5941 229.4362)" cx="217.857" cy="11.327" rx="1.198" ry=".378"/><ellipse transform="matrix(-.0338 -.9994 .9994 -.0338 255.2102 268.6452)" cx="257.461" cy="10.96" rx="1.199" ry=".378"/><ellipse transform="matrix(-.0318 -.9995 .9995 -.0318 244.4122 259.4162)" cx="247.854" cy="11.327" rx="1.198" ry=".378"/><ellipse transform="matrix(-.0334 -.9994 .9994 -.0334 348.2037 358.677)" cx="347.548" cy="10.957" rx="1.199" ry=".378"/><ellipse transform="matrix(-.0318 -.9995 .9995 -.0318 337.346 349.4631)" cx="337.935" cy="11.339" rx="1.198" ry=".378"/><ellipse transform="matrix(-.0342 -.9994 .9994 -.0342 379.4956 388.6829)" cx="377.551" cy="10.978" rx="1.199" ry=".377"/><ellipse transform="matrix(-.0322 -.9995 .9995 -.0322 368.4648 379.4388)" cx="367.939" cy="11.326" rx="1.198" ry=".378"/><ellipse transform="matrix(-.033 -.9995 .9995 -.033 410.0478 418.6948)" cx="407.577" cy="10.978" rx="1.199" ry=".379"/><ellipse transform="matrix(-.033 -.9995 .9995 -.033 399.74 409.4522)" cx="397.945" cy="11.35" rx="1.198" ry=".378"/><ellipse transform="matrix(-.0338 -.9994 .9994 -.0338 441.2158 448.4523)" cx="437.378" cy="10.954" rx="1.199" ry=".378"/><ellipse transform="matrix(-.033 -.9995 .9995 -.033 430.5551 439.272)" cx="427.778" cy="11.353" rx="1.198" ry=".378"/><ellipse transform="matrix(-.033 -.9995 .9995 -.033 471.8627 478.5018)" cx="467.416" cy="10.979" rx="1.199" ry=".378"/><ellipse transform="matrix(-.0322 -.9995 .9995 -.0322 461.1848 469.2387)" cx="457.776" cy="11.335" rx="1.198" ry=".379"/></g></svg>