<svg xmlns="http://www.w3.org/2000/svg" width="400" height="108"><path fill="#ffe164" d="M368.77 91.502c1 1.398 3.397 2 4 4.2-.2 0-.4.198-.8.198-1 0-4.398-3.602-4.602-4.398-.604-1.8-1.2-5-1.2-5.4v-.6c.803 2 1.402 4 2.603 6zm-350 0c1 1.398 3.4 2 4 4.2-.2 0-.4.198-.8.198-1 0-4.4-3.602-4.6-4.398-.6-1.8-1.2-5-1.2-5.4v-.6c.8 2 1.4 4 2.6 6zm306-1.8c1.2 1.198 3 1.6 4.397 2.6v.8h-1.397c-3.603-.6-6.4-5.6-7-8.2 1.2 1.6 2.4 3.6 4 4.8zm-248-.6c1.4 1 3 .604 4.6 2.4-.2.398-.8.6-1.2.6-3.6 0-7-4.6-8-7.6 1.4 1.6 2.8 3.398 4.6 4.6zm199.6 10v.8h-.8c-.8-1.197-1.6-2.6-1.8-3.8-.8-3.6-2-10.396-2-10.8v-1l4.602 14.8zm-42-1.4c-.2.198 0 .198-.602.198-1.398 0-3.602-4.602-3.8-5-1.2-3-2.603-6-3.803-9 2.804 4.602 6.004 9.202 8.204 13.802zm-102.8.198v.802h-.8c-3.8-4.802-4.2-10-6.2-14.802l7 14zm148.4-10.598c1.4.8 3.4.6 5.2 1.6v.603c-.4.2-.8.397-1.4.397-3.397 0-6.6-2.6-8.8-6.397 1.6 1.394 3.2 2.996 5 3.796zm-88.2 7v.6c-.2 0-.2.2-.6.2-1.4 0-5.2-4.8-5.8-5.396-1.4-2-3.2-4.2-4.8-6.398l11.2 10.994zm176-8.8c2.8 2.6 7.6 9.2 7.6 11.8 0 1.2-.4 1.4-1 1.4-2.2 0-5.8-3.4-7.6-3.4-.603.6-1 1.4-1.4 2.2-.6 1.2-1.4 8.8-5.8 8.8-1.602 0-2.4-3.6-2.4-4.2 0-6.2 2.4-12.8 4.6-18.8.4.6 1 1.4 1 2 0 0-4 11.8-4 13.8 0 .8-.196 1.2.804 2 .196 0 .6-.396.6-.6.603-2 1.2-4.2 1.4-6.2l.6-3.6c.4-1.6.603-3.2.802-4.802 1 .2 1 1 1 1.602 0 .398-.398 4.2-.398 4.8 0 1-.2 2 .8 2 1.2 0 1.4-1.6 1.4-1.8 0-.4-.8-5.2-.8-5.8 0-.4.8-1 1-1.4.198-.6.398-1.4.8-2.2.192.798.392 1.798.992 2.4zm-350 0c2.6 2.398 7.6 8.8 7.6 11.8 0 1.2-.4 1.4-1 1.4-2.2 0-5.8-3.4-7.6-3.4-.6.6-1 1.4-1.4 2.2-.6 1.2-1.4 8.8-5.8 8.8-1.6 0-2.4-3.6-2.4-4.2 0-6.2 2.4-12.8 4.6-18.8.4.6 1 1.4 1 2 0 0-4 11.8-4 13.8 0 .8-.2 1.2.8 2 .2 0 .6-.396.6-.6.6-2 1.2-4.2 1.4-6.2l.6-3.6c.4-1.6.6-3.2.8-4.802 1 .802 1 .602 1 1.602 0 .398-.4 4.2-.4 4.8 0 1-.2 2 .8 2 1.2 0 1.4-1.6 1.4-1.8 0-.4-.8-5.2-.8-5.8 0-.4.6-.802 1-1.4.2-.6.4-1.4.8-2.2.2.798.4 1.798 1 2.4zm115.8.2c1.8.4 3.6-.2 5.2 1-.8.8-2.4.8-2.4.8-3.4 0-4.8-.8-8.8-4.8 2 1.198 3.8 2.6 6 3zm100 2.8v1.2c-.2 0-.2.198-.8.198-1 0-5.2-6.198-5.8-7.398 2.2 1.8 6.6 5.398 6.6 6zm-102 1c0 .398 0 .6-.2 1h-.8c-2.2-2.4-3.8-5.8-5.2-8 .8.8 6.2 6 6.2 7zm103.2-4.8c1.397.4 4-.6 5.6.4v.6c-1 .6-2 .6-3 .6-3.8 0-3.8-.4-8.4-4 1.798.8 3.597 2 5.798 2.4zm87.6-.4c1.2.8 3 1.6 4.398 2.8.8.8 5.8 5.4 5.8 7.4 0 1-1.603.8-1.8.8-2.398 0-5.2-1.6-7.398-1.4-1 1.803-.8 3.4-1 5.4-.2.8 0 2.2-.4 3.4-.2.8-2.2 3.6-3.2 3.6-3.197 0-3.8-8.8-3.8-9.2v-5.396c.4-2.398.604-5 .8-7.398.4.198 1 .6 1.4.8-.4 3.6-.8 10.2-.8 10.8 0 1.4-.2 3.4 1.2 5.2h.8v-6l-.8-10c.2 0 .4-.2 1-.2.2 1.602.6 8.602 2.2 8.602.602 0 1-.8 1.2-1.4l-3-7.8c.6-.8 1-1.6 1.397-2.398.604.79 1.004 1.59 2.004 2.39zm-248.6-.6c1.2.8 2.8 1.6 4.6 2.6 1.6 1 6.2 4.8 6.2 6.8 0 1.2-1.6 1-2 1-.6 0-4.6-.8-6.8-1-1.6 2.8-.6 4-.6 6.604 0 1.197-.4 6.197-3.4 6.197-1 0-2.4-1-3-2.6-1-2.8-1.8-7.2-1.8-10.2l.2-9c.4.2.8.4 1.4.4v11.2c.4 1.4 0 3.8 1.6 5.198h.6c.2-.198.4-.398.4-.602l-2.2-15.8c.2 0 .6-.2.8-.397.6 1.8 1.6 9 3 9 .6 0 1-.803 1.2-1.4l-3.8-8c.6-.6 1.2-1.4 1.6-2 .4.6 1 1.4 2 2zm115.2 2.8c0 .398-.2.6-.2.8h-1l-7-5.8c1 .398 8.2 3.398 8.2 5zm0-4.602c1.6 0 3.2-1 4-1h1.6s.2-.198.2.398c0 1.2-4.8 2-5.2 2-2 0-5-1.8-6.8-2.398 2.2.402 5.6 1 6.2 1zm87.8.802c1.2.6 12 4.198 12 7.6 0 .6-1.2 1.2-1.603 1.2h-7c-.397.398-.603 1.2-.603 1.398 0 .398 1 6.802 1 7.398 0 .803-.6 4.602-2.6 4.602-2.2 0-3.8-3.8-4.6-5.398-2.4-5.2-2.4-11-3.4-15.8.4-.2 1-.2 1.4-.2.2 0 .6-.4 1-.602 1.2 2.398 3.2 9.2 4.6 9.2.8 0 1-1.2 1-1.4 0-1.4-5-7.6-5.2-8 .4-.4.8-.6 1-1 .2-.2.2-.6.2-1 .807.8 1.606 1.6 2.807 2zm-147.8-1.2c1.2.398 3 .398 4.6.8 1.4.2 8.8 2.4 8.8 5 0 2.8-8.8.8-8.8 3.2 0 .6 2.6 8.2 2.6 8.8 0 1-1 4-2.4 4-2.4 0-4.6-4-5-4.4-3.8-5.6-4.4-10.8-6.4-16.197 1-.398 2.6-.398 4-1.398-.2-.602-.6-1.2-1.2-1.802 1.2.596 2.4 1.596 3.8 1.996zm101.2-.602c1.2.398 3 .2 4.4.398.4 0 9.6 2.4 9.6 4.4s-8.6 2.197-8.6 3.8c0 .397.4 1.8.8 2.603 1 2.8 2.398 4 2.398 6.397 0 1.2-.398 3.8-2.2 3.8-1.4 0-3.6-2.197-4.8-3.6-4.398-5.604-5.8-11-8.2-16.4.8-.197 2-.6 2.4-.6.6 0-.2.396.397.396.397 0 .8-.6 1.198-.8-.198-.6-.8-1.4-1.398-2.2 1.204.608 2.403 1.608 4.004 1.806zm-46.6-1.398c.6 0 2.2-.602 3.6-.8.8-.2 2.6 0 3 0 1 0 8.4-.2 8.4 2 0 2-7.4 3.8-7.4 5.4 0 2.397 5.4 5.6 5.4 9.6 0 2-.6 2.8-2.2 2.8-3.8 0-10.4-7.4-12.6-10.8-1.6-2.6-3.6-4.802-5.2-7.2 1 .2 2.6 0 4 1 .2-.2.6-.4.8-.602l-2.8-2.602c2 .602 4.6 1.204 5 1.204z"/><path fill="#f3d2af" d="M364.984 86.8l.6 5.802c0 .398-.2 1-.6 1.602h-1.2c.2-4.803.4-6.2 0-7.4l1.2-.004zm-350 0l.6 5.802c0 .398-.2 1-.6 1.602h-1.2c.2-4.803.4-6.2 0-7.4l1.2-.004zM369.186 92c.8 1 2.602 2 3.602 3.2v.6c-.2.2-.2.2-.803.2-1.197 0-3.6-2.398-4.197-3.398-.803-1.602-1.396-4.398-1.396-4.802v-1.6c.794 1.8 1.392 3.8 2.794 5.8zm-350 0c.8 1 2.6 2 3.6 3.2v.6c-.2.2-.2.2-.8.2-1.2 0-3.6-2.398-4.2-3.398-.8-1.602-1.4-4.398-1.4-4.802v-1.6c.8 1.8 1.4 3.8 2.8 5.8zm340.8 9h-.603c-.397-.6-.397-1.398-.397-1.8 0-4 2.8-10 3.8-13.4-.598 4.4-1.598 10-2.8 15.2zm-350 0h-.6c-.4-.6-.4-1.398-.4-1.8 0-4 2.8-10 3.8-13.4-.6 4.4-1.6 10-2.8 15.2zm308.4-1.2c0 .4 0 1.4-.6 1.4-.8 0-1.2-2.4-1.2-2.4v-6c.2-2.4.4-5 .8-7.4l1 14.4zm7-9.6c1.4 1 2.8.6 4 2.4v.6h-1.8c-1.2-.6-2.8-1.2-3.8-2.4-1.6-1.4-3-4.8-3-5.198V85c1.402 1.8 2.6 3.8 4.6 5.2zm-254.4 10.6s0 .2-.4.2c-1.4 0-1.8-4.8-1.8-5V84.8c.6 5 1.6 8.802 2.2 16zm250.8-8.6c0 .4-.4 1.2-1 1.2s-.6-.2-.8-.4l-1.2-7v-1.398c1.2 2.398 3 7 3 7.598zm-45.4 6.6v1.2h-.8c-.8-1.2-1.6-2.398-1.8-3.6-.8-3.4-2-10.2-2-10.604V84.6l4.6 14.2zm-199.2-9.4c1 .8 3.4.8 4.2 2.2 0 0-.2.397-.4.397-.2.2-.4.2-.8.2-3.6 0-7-4.602-8-7.602 1.4 1.606 3 3.406 5 4.806zm157.2 8v.6h-1c-1.2-1.2-2.2-2.398-2.8-3.6-1.4-3-4.2-9-4.2-9.4v-.6l8 13zm-102.6 1.202c-.2.198-.2.198-.6.198-2 0-6.4-13.6-6.4-13.8v-.6l7 14.202zm-58-6.802c0 1-.8 1.2-1 1.2-.6 0-.4 0-.6-.2l-2-7.6V84c1.2 2.602 3.6 7.4 3.6 7.8zm206.8-4.198c1.4.8 3.2.198 4.8 1.602-.2.8-1.2.8-1.6.8-3.4 0-6.6-2.397-8.6-6.2 1.8 1.396 3.402 2.996 5.402 3.798zm-88.8 6.798v.6c-.2.2-.2.2-.6.2-2.8 0-9-9.4-10.2-11.4l10.8 10.6zm86-3.6c0 1-.4 1.2-.8 1.2-.603 0-.8-.398-1-.8-1.2-2.4-3-6.8-3-7.2v-.6c.202.202 4.8 6 4.8 7.4zm-139.2-4.6c0 .2.2 0 .2.6 0 .4-.4.6-.6.802h-3.6c-2 0-5-2.802-6.8-4.602 3.2 2 6.8 3.4 10.8 3.2zm95 2.8c0 .8-.4 1-.8 1-1 0-5.4-6.6-5.6-7.2.202.2 6.402 4.6 6.402 6.2zm1.4-4.2c1.6.4 3.8-.8 5.6.6-1.2 1.2-2.2 1.2-3.2 1.2-3.4 0-4-.602-8-4 1.8.798 3.6 1.798 5.6 2.198zm-103.2 4.802c0 .602-.4 1.198-1 1.198-1.2 0-4.4-6.198-5.4-8.198.4.398 6.4 5.798 6.4 7zm57.2-3.402v1.2c-.2 0-.2.2-.6.2-1 0-6.4-4.803-7-5.603 2.4.804 5.2 2.204 7.6 4.204zm0-4.2c1.2 0 3-1 3.8-1h1.8c.2.2.2 0 .2.4 0 1.396-5.2 2-5.2 2-2.2 0-3.8-1.2-6.2-2.4 1.8.4 5 1 5.6 1z"/><path fill="#f7ca0f" d="M366.8 5.2c5.2 7.8 7.4 17.8 7.4 26l-.2 7c-.6 6.6-1.2 13.2-2.8 19.8-1.2 5-2.6 10.2-3.6 15.602C367 77 366.8 81 366.2 84.8c-.2 1.4-1.2 2-2.2 2-1.2 0-2-3.198-2-3.4 0-.6-.6-1.8-.6-2.6 0-12.8-6.8-26.6-7.8-39.2 0-1.4-.4-4.2-.4-4.6V23.6c.4-6 1.6-12 5.4-18-1-1-2.2-2.4-2.603-3.4v-.6c.8 1 2.603 3.2 3.2 3.2.398 0 1.8-1.4 2.8-1.6h.8c1.2 0 1.604.6 3.398 1.4 1-1 2.2-2.2 3-3.2C369 2.2 368 4.2 366.8 5.2zm-57.6-.4c1.8-1 2.6-1.6 3.6-1.6 1.4 0 2.4 1.2 3.2 1.2.4 0 2.2-2 2.8-3 0 2-2 3.2-2 3.8s2 3.2 2.6 4.6C323 17 324 24 324 30.8c0 8.8-.398 14.2-2.2 24-1 5.6-2.4 12.6-2.4 18.6 0 .396 0 4.2.396 6.2 0 .6.604 2 .604 2.6 0 1.2-2.2 3-3 3-2.604 0-4.2-6.2-4.2-6.4a62.32 62.32 0 0 0-1.601-5.8c-1.4-5.2-3.2-10.6-4.803-16-1-3.6-3.602-15.4-3.602-20.8V24.4c.2-1.2.2-2.6.4-3.8.198-1 .398-2 .398-3 .602-2.4 1.2-5.2 2.2-7.6.398-1.4 2.398-4 2.398-4.4 0-.6-2.398-3.2-2.398-3.6v-.6c.81 1 1.81 2.2 3.01 3.4zm-292.4.4a49.07 49.07 0 0 1 7.4 26l-.2 7c-.6 6.6-1.2 13.2-2.8 19.8-.6 2.602-1.4 5.8-2.2 8.8-1.4 6-2 12-2.8 18-.2 1.4-1.2 2-2.2 2-1.6 0-2-3.6-2-3.6 0-.4-.6-1.8-.6-2.6-.2-13-6.6-26.202-7.8-39 0-1.4-.4-4.2-.4-4.6V23.6c.4-6 1.6-12 5.4-18-1-1-2.2-2.4-2.6-3.4v-.6c.8 1 2.6 3.2 3.2 3.2.4 0 1.8-1.4 2.8-1.6h.8c1.2 0 2 .2 3.4 1.4 1-1 2.2-2.2 3-3.2-.2.8-1.2 2.8-2.4 3.8zm50 0c0 .4 2.2 3.4 2.8 5 3.2 7.2 4.4 13.6 4.4 20.6 0 10.2-1.4 20-3.4 30.2-.4 1.4-.6 3.4-.6 5-.2 3.4-.2 4.2-.2 4.602 0 .602.2 4.8.6 7C70.6 79 71.6 81.4 71.6 81.8c0 1.4-2.8 3-3.4 3-.8 0-1.8-1.4-2.2-1.8-2-2.8-2.8-6.6-3.8-9.2-2-5.6-3.8-11.198-5.4-16.8-1.6-6-3.6-15-3.6-21.6v-9.8c.2-1.4.2-3 .4-4.6.2-1 .2-2.2.4-3.4.6-2.4 1.2-5.2 2.2-7.6.4-1.4 2.4-4 2.4-4.4 0-.2-2.4-2.6-2.2-4.2.6 1 1.6 2.2 2.8 3.4 1.8-1 2.6-1.6 3.6-1.6 1.4 0 2.4 1.2 3.2 1.2.4 0 2-2 2.8-3.2 0 2-2 3.2-2 4zm196-2c1.2 0 2 .2 3.2 1.4 1-1.2 2-2.4 2.602-3.6 0 1.4-1 2.8-2 4.2C271.8 12.2 274 22.8 274 30.6c0 15.2-3.6 27.8-3.6 35.6 0 4 .396 8.6 2.396 13 .2.6 1.2 1.6 1.2 2.2 0 1-3.2 2.396-3.397 2.396-3.2 0-6.4-7.6-6.803-8.396-4.197-8.8-7.197-17.604-9-26.4-.8-3.4-1.396-10-1.396-10.4V22.8c.2-1 .396-2.2.396-3.2.4-3.8 1.4-7.8 3.2-11.4.397-1 1.603-2.2 1.603-2.6 0-.6-1.2-1.4-1.603-2.2-.396-.6-.396-1.4-.598-2.4.6 1 1.6 2.4 2.8 3.8 1.8-1 2.6-1.6 3.6-1.6zm-50 0c1.2 0 2 .6 3.2 1.2.8-1 1.602-2.2 2.2-3.2 0 0 .2-.2.2.4 0 .4-1.8 3-1.8 3.6 0 .4 2.197 3.2 2.8 4.8 3.8 8.8 4.396 12.8 4.396 20.6 0 13-3 26.8-3 32.8 0 5.2 1.398 12.396 7 17.8 0 .2-.396.4-.602.4-.8.197-2.398.6-2.8.6-3 0-6.397-3-8.6-6.4-2.8-4.4-5.6-9.198-7.198-13.6-2-5.2-5.2-18.2-5.2-24.4V23.6c.2-1.2.2-2.4.4-3.6.2-3.8 1.4-8 3.2-11.8.4-1 1.602-2.2 1.602-2.6 0-.6-1.602-3-2-4.4.8 1 1.8 2.4 2.8 3.6 1.007-1.4 2.407-1.6 3.407-1.6zM109.4 4.8c1-1.4 2.4-1.6 3.4-1.6 1.4 0 2.4 1.2 3 1.2s2-2.2 2.6-3.4c0 1.4-1 2.8-1.8 4.2 1.4 1.6 2.6 4.4 3.4 6.2.2.2 3.8 11.6 3.8 14v10.8L120.6 64c.2 5.602 1 11.602 6 17.4-1.2.6-3.2 1.396-3.8 1.396-2.8 0-6.8-5.6-8-7.6-2-3.803-4-7.4-5.6-11.2-3.2-7.8-4.8-15.6-5.6-23.4 0-.8-.2-2.2-.2-2.6V22.8c.2-1 .2-2.2.4-3.4.2-.8.4-1.8.4-2.6.4-1 .4-2.4.8-3.2.4-1.6.8-3.2 1.6-4.6.4-1.2 2-3 2-3.4 0-.6-2-3.4-2-3.8v-1c0 1 1.6 2.6 2.8 4zm50 0c1-1.4 2.4-1.6 3.4-1.6 1.2 0 1.4 0 3 1.2 1-1.2 1.8-2.4 2.2-3.6 0 0 .2-.2.2.4 0 1.2-1.6 3-1.6 3.8 0 .6 1.6 2.4 2 3.4 3.2 6.6 5.2 14.2 5.2 21.4 0 12-2.8 25.2-2.8 32 0 5 1.6 12.802 8.4 17.2.6.4 1.4 1.2 2 2-.4.2-.8.2-1.2.2-3.4 0-8.6-2-11.6-5-4.4-4.2-7.4-9-9.6-13.4-2.6-5.4-5.6-19.2-5.6-26V24.4c.2-1.2.2-2.6.4-4 .2-3.8 1.4-8.6 3.2-12.2.4-1 1.6-2.2 1.6-2.8 0-.4-1.6-2.8-1.6-3.2V.6c.6 1.4 1.4 2.8 2.4 4.2z"/><g fill="#28334c"><ellipse transform="matrix(.9994 -.0336 .0336 .9994 -.3585 .6065)" cx="17.87" cy="10.972" rx=".378" ry="1.199"/><ellipse transform="matrix(.9995 -.0323 .0323 .9995 -.3611 .2727)" cx="8.265" cy="11.319" rx=".378" ry="1.198"/><ellipse transform="matrix(.9994 -.0336 .0336 .9994 -.3302 2.2863)" cx="67.871" cy="10.971" rx=".378" ry="1.199"/><ellipse transform="matrix(.9995 -.0317 .0317 .9995 -.3292 1.8502)" cx="58.264" cy="11.321" rx=".378" ry="1.198"/><ellipse transform="matrix(.9994 -.0336 .0336 .9994 -.3022 3.9577)" cx="117.624" cy="10.971" rx=".378" ry="1.199"/><ellipse transform="matrix(.9995 -.0323 .0323 .9995 -.3092 3.4929)" cx="108.014" cy="11.323" rx=".378" ry="1.198"/><ellipse transform="matrix(.9994 -.0336 .0336 .9994 -.2739 5.6375)" cx="167.627" cy="10.971" rx=".378" ry="1.199"/><ellipse transform="matrix(.9995 -.0323 .0323 .9995 -.2834 5.1103)" cx="158.012" cy="11.325" rx=".378" ry="1.198"/><ellipse transform="matrix(.9994 -.0336 .0336 .9994 -.2458 7.3195)" cx="217.552" cy="10.969" rx=".378" ry="1.199"/><ellipse transform="matrix(.9995 -.0323 .0323 .9995 -.2572 6.7187)" cx="207.937" cy="11.326" rx=".378" ry="1.198"/><ellipse transform="matrix(.9995 -.0329 .0329 .9995 -.2161 8.816)" cx="267.556" cy="10.968" rx=".378" ry="1.199"/><ellipse transform="matrix(.9995 -.0323 .0323 .9995 -.2312 8.3328)" cx="257.935" cy="11.328" rx=".378" ry="1.198"/><ellipse transform="matrix(.9994 -.0336 .0336 .9994 -.1895 10.6728)" cx="317.305" cy="10.971" rx=".378" ry="1.199"/><ellipse transform="matrix(.9995 -.0316 .0316 .9995 -.2044 9.7401)" cx="307.683" cy="11.329" rx=".378" ry="1.198"/><ellipse transform="matrix(.9994 -.0336 .0336 .9994 -.1612 12.3536)" cx="367.306" cy="10.971" rx=".378" ry="1.199"/><ellipse transform="matrix(.9995 -.0322 .0322 .9995 -.1794 11.5233)" cx="357.686" cy="11.331" rx=".379" ry="1.198"/></g></svg>