<?xml version="1.0" encoding="utf-8"?>
<!-- Generator: Adobe Illustrator 24.3.0, SVG Export Plug-In . SVG Version: 6.00 Build 0)  -->
<svg version="1.1" id="Camada_1" xmlns="http://www.w3.org/2000/svg" xmlns:xlink="http://www.w3.org/1999/xlink" x="0px" y="0px"
	 viewBox="0 0 300 300" style="enable-background:new 0 0 300 300;" xml:space="preserve">
<style type="text/css">
	.st0{fill:none;stroke:#FFFFFF;stroke-width:2;stroke-miterlimit:10;}
	.st1{fill:#FFFFFF;}
</style>
<g>
	<circle class="st0" cx="150" cy="150" r="146.33"/>
	<path class="st0" d="M150,3.67c7.23,0.02,25.5,1.05,43.07,13.48c1.43,1.01,31.69,23.18,31.16,60.59
		c-0.55,39.53-35.01,61.84-37.66,63.5c-29.26,18.27-47.4,0.94-75.13,19.8c-18.16,12.35-33.56,35.54-33.48,62.1
		c0.08,27.42,16.62,45.76,20.58,49.93c20.32,21.35,46.05,23.03,51.46,23.27c80.27,0,146.33-66.06,146.33-146.33
		S230.27,3.67,150,3.67z"/>
	<g>
		<path class="st1" d="M179.77,68.11c-0.03,0-0.46,0.03-0.59-0.22c-0.02-0.03-0.03-0.06-0.04-0.11c0.04-2.84,0.08-5.69,0.12-8.53
			c-0.02,0-0.05,0-0.08-0.01c-0.16-0.02-0.24-0.03-0.33-0.07c-0.15-0.08-0.23-0.21-0.25-0.24c-0.02-0.03-0.03-0.06-0.04-0.07
			c-0.16-0.37-0.24-0.96-0.16-1.03c0.03-0.03,0.06-0.04,0.06-0.04c0.01,0,0.03-0.02,0.07-0.02c0.01,0,0.01,0,0.02,0
			c0.08-0.01,0.37-0.02,0.76-0.02c-0.64-6.01-0.93-8.75-1.03-9.65c-0.01-0.06-0.02-0.22-0.05-0.43c-0.06-0.55-0.17-1.46-0.32-2.56
			c-0.13-0.93-0.3-2.01-0.51-3.22c-0.06-0.36-0.12-0.66-0.16-0.86c-0.02-0.22,0.03-0.38,0.07-0.47c0.06-0.16,0.19-0.33,0.19-0.34
			c0.08-0.11,0.11-0.13,0.14-0.2c0.05-0.14-0.02-0.29-0.06-0.37c-0.2-0.4-0.39-0.6-0.51-0.84c-0.08-0.15-0.17-0.38-0.2-0.71
			c-0.02,0.11-0.05,0.28-0.12,0.46c-0.09,0.23-0.17,0.27-0.35,0.57c-0.16,0.27-0.24,0.41-0.28,0.62c-0.05,0.29,0.01,0.54,0.03,0.6
			c0.06,0.21,0.11,0.2,0.17,0.42c0.05,0.17,0.05,0.31,0.05,0.55c0,0.3-0.02,0.52-0.02,0.55c-0.04,0.31-0.26,1.56-0.59,3.24
			c-0.05,0.27-0.1,0.55-0.16,0.82c-0.22,1.15-0.63,4.37-1.39,11.82c0.24,0.01,0.47,0.01,0.71,0.02c0,0,0.06,0,0.14,0.03
			c0.02,0.01,0.04,0.02,0.06,0.04c0.01,0.01,0.02,0.03,0.03,0.06c0.01,0.05,0.01,0.1,0.01,0.11c-0.04,0.35-0.05,0.43-0.05,0.43
			c-0.04,0.18-0.07,0.29-0.13,0.44c-0.04,0.08-0.07,0.14-0.13,0.2c-0.03,0.03-0.07,0.08-0.15,0.11c-0.07,0.03-0.12,0.04-0.23,0.06
			c-0.07,0.01-0.14,0.02-0.18,0.02c0.03,2.19,0.06,4.37,0.09,6.56c-0.28-0.37-0.55-0.73-0.83-1.1c0-1.83,0-3.67,0-5.5
			c-0.03,0-0.07-0.01-0.12-0.01c-0.14-0.02-0.22-0.03-0.29-0.07c-0.13-0.06-0.2-0.17-0.23-0.22c-0.02-0.04-0.04-0.07-0.07-0.15
			c-0.1-0.26-0.14-0.49-0.15-0.57c-0.01-0.08-0.02-0.18-0.02-0.3c0-0.01,0-0.04,0.01-0.08c0.01-0.03,0.03-0.04,0.04-0.05
			c0.04-0.03,0.08-0.04,0.1-0.04c0.08-0.01,0.17-0.01,0.25-0.02c0.06,0,0.04,0,0.14-0.01c0.07,0,0.17,0,0.27-0.01
			c-0.7-5.59-1.41-11.18-2.11-16.78c0-0.05,0-0.12,0.02-0.2c0-0.03,0.02-0.13,0.08-0.26c0.06-0.13,0.13-0.23,0.17-0.28
			c0.08-0.11,0.11-0.13,0.14-0.2c0.01-0.02,0.03-0.09,0-0.22c-0.03-0.13-0.09-0.22-0.16-0.33c-0.07-0.1-0.21-0.32-0.29-0.45
			c-0.1-0.16-0.15-0.25-0.2-0.36c-0.06-0.13-0.12-0.33-0.13-0.61c-0.01,0.09-0.02,0.21-0.07,0.36c-0.01,0.04-0.06,0.2-0.19,0.4
			c-0.11,0.17-0.13,0.15-0.28,0.37c-0.08,0.11-0.15,0.22-0.22,0.37c-0.04,0.09-0.08,0.19-0.09,0.33c-0.02,0.15,0,0.26,0.01,0.32
			c0.02,0.15,0.07,0.25,0.08,0.28c0.03,0.07,0.04,0.08,0.07,0.15c0.05,0.12,0.07,0.22,0.08,0.3c0.01,0.07,0.02,0.17,0.02,0.39
			c0,0.22,0,0.36-0.02,0.55c-0.02,0.15-0.04,0.27-0.06,0.33c0,0.02-0.01,0.04-0.01,0.04c-0.03,0.12-0.65,4.61-2.16,15.52
			c0.27,0,0.53,0.01,0.8,0.01c0.07,0,0.11,0.02,0.14,0.03c0.03,0.01,0.05,0.03,0.06,0.04c0.01,0.02,0.02,0.04,0.03,0.06
			c0.01,0.02,0.01,0.06,0.01,0.11c-0.01,0.17-0.03,0.32-0.05,0.43c-0.07,0.34-0.15,0.48-0.2,0.56c-0.05,0.07-0.1,0.12-0.16,0.16
			c-0.07,0.04-0.13,0.06-0.18,0.08c-0.06,0.02-0.16,0.04-0.29,0.04c-0.03,0.24,0.01,0.42,0.06,0.54c0.07,0.21,0.19,0.33,0.18,0.54
			c-0.01,0.1-0.04,0.19-0.07,0.24c-0.2-0.08-0.41-0.17-0.62-0.27c-0.33-0.16-0.56-0.3-0.67-0.37c-0.28-0.17-0.72-0.4-1.34-0.66
			c0.23,0.76,0.46,1.51,0.69,2.27c-0.11,0.75-0.28,1.36-0.42,1.8c-0.26,0.82-0.44,1.36-0.93,1.89c-0.36,0.39-0.71,0.59-0.81,0.64
			c-0.9,0.5-1.81,0.39-2.17,0.34c-0.24-0.03-2.28-0.33-2.9-1.88c-0.07-0.18-0.1-0.44-0.17-0.95c-0.11-0.71-0.13-1.23-0.14-1.48
			c-0.06-1.04-0.35-2.2-0.42-2.44c-0.12-0.47-0.2-0.65-0.27-1.09c0,0-0.11-0.58-0.08-1.04c0-0.04,0.01-0.13,0.07-0.17
			c0.01-0.01,0.04-0.02,0.13-0.01c0.05,0.01,0.14,0.02,0.24,0.08c0.82,0.24,1.65,0.48,2.47,0.72c0.07-0.02,0.17-0.06,0.21-0.15
			c0.04-0.08,0.01-0.14,0-0.28c-0.01-0.08-0.02-0.3,0.08-0.49c0.02-0.04,0.1-0.19,0.26-0.24c0.07-0.02,0.12-0.02,0.24-0.02
			c0.12,0.01,0.28,0.02,0.48,0.04c0.07-0.38,0.15-0.62,0.22-0.78c0.03-0.06,0.09-0.2,0.04-0.32c-0.03-0.07-0.09-0.1-0.12-0.12
			c-0.63-0.36-1.03-0.4-1.03-0.4c-0.97-0.1-1.06-0.55-2.43-0.76c-0.41-0.06-0.9-0.1-1.58-0.32c-0.28-0.09-0.57-0.2-0.71-0.48
			c-0.14-0.27-0.07-0.57-0.06-0.59c0.04-0.15,0.1-0.25,0.2-0.39c0.13-0.19,0.27-0.33,0.37-0.41c-0.01-0.12-0.02-0.25-0.03-0.37
			c-0.23-0.33-0.46-0.66-0.69-0.99c-0.04-0.02-0.11-0.06-0.2-0.09c-0.37-0.12-0.54,0.01-0.83-0.08c-0.27-0.08-0.43-0.29-0.48-0.36
			c-0.1-0.15-0.08-0.2-0.25-0.57c-0.07-0.16-0.12-0.26-0.21-0.4c-0.08-0.13-0.17-0.22-0.33-0.41c-0.1-0.12-0.2-0.23-0.3-0.33
			c-0.13-0.05-0.33-0.11-0.56-0.12c-0.13-0.01-0.25,0-0.34,0.02c-0.05,0.08-0.14,0.21-0.32,0.32c-0.07,0.04-0.27,0.16-0.53,0.13
			c-0.13-0.02-0.26-0.1-0.51-0.26c-0.05-0.03-0.28-0.18-0.54-0.44c-0.21-0.2-0.24-0.29-0.26-0.34c-0.02-0.05-0.07-0.23,0.01-0.42
			c0.08-0.18,0.23-0.26,0.34-0.31c0.16-0.08,0.31-0.1,0.4-0.11c0.87,0.01,1.74,0.02,2.62,0.02c0.03,0,0.33-0.01,0.43-0.21
			c0.03-0.05,0.06-0.16-0.02-0.4c-0.08-0.22-0.23-0.47-0.57-0.76c-0.22-0.18-0.47-0.4-0.85-0.55c-0.19-0.07-0.39-0.13-0.56-0.32
			c-0.09-0.1-0.14-0.21-0.16-0.29c0.01-0.17,0.02-0.35,0.06-0.55c0.04-0.26,0.1-0.49,0.17-0.69c0.06-0.07,0.16-0.18,0.27-0.31
			c0.47-0.52,0.53-0.55,0.67-0.75c0.24-0.37,0.3-0.68,0.31-0.75c0.02-0.12,0.02-0.22,0.02-0.42c-0.01-0.26-0.02-0.61-0.07-1.05
			c-0.13-0.34-0.17-0.64-0.19-0.84c-0.04-0.52,0.06-0.95,0.12-1.17c0.11-0.38,0.19-0.4,0.23-0.69c0.05-0.34-0.02-0.6-0.08-0.85
			c-0.07-0.26-0.2-0.67-0.51-1.12c-0.22-0.57-0.37-1-0.46-1.32c-0.05-0.17-0.12-0.43-0.35-0.65c-0.11-0.1-0.27-0.25-0.47-0.23
			c-0.18,0.01-0.41,0.14-0.54,0.32c-0.04,0.06-0.09,0.14-0.19,0.18c-0.1,0.04-0.19,0.01-0.2,0c-0.13-0.05-0.18-0.17-0.19-0.19
			c0.05-0.39,0.07-0.71,0.08-0.92c0.04-0.91-0.06-1.02,0.03-1.6c0.04-0.22,0.07-0.36,0.06-0.61c-0.01-0.22-0.02-0.48-0.19-0.69
			c-0.15-0.19-0.35-0.25-0.67-0.35c-0.31-0.1-0.56-0.18-0.87-0.11c-0.28,0.06-0.53,0.24-0.67,0.33c-0.17,0.12-0.28,0.22-0.49,0.28
			c-0.14,0.03-0.21,0.02-0.33,0.02c-0.34,0.01-0.72,0.14-0.93,0.33c-0.22,0.2-0.25,0.47-0.31,0.77c-0.29,1.52-0.34,1.18-0.42,1.92
			c0,0-0.06,0.54,0.05,2.22c0,0.06,0.01,0.21,0.11,0.37c0.03,0.05,0.14,0.22,0.34,0.3c0.28,0.11,0.56-0.02,0.62-0.05
			c0.19-0.09,0.26-0.2,0.45-0.21c0.12,0,0.19,0.04,0.21,0.05c0.09,0.05,0.14,0.14,0.15,0.17c-0.09,0.05-0.83,0.45-1.25,0.69
			c-0.01,0.01-0.08,0.04-0.15,0.1c-0.21,0.14-0.38,0.25-0.46,0.44c-0.08,0.17-0.06,0.34-0.05,0.39c0.06,0.36,0.38,0.54,0.43,0.56
			c0.03,0.07,0.06,0.19,0.01,0.31c-0.06,0.15-0.2,0.22-0.41,0.31c-0.12,0.05-0.3,0.13-0.57,0.15c-0.26,0.01-0.47-0.05-0.6-0.09
			c-0.05,0.31-0.08,0.56-0.08,0.73c-0.01,0.14-0.01,0.21,0,0.29c0.04,0.3,0.18,0.37,0.24,0.62c0.02,0.08,0.01,0.08-0.04,0.55
			c-0.06,0.57-0.05,0.65-0.03,0.73c0.03,0.12,0.12,0.3,0.35,0.49c0.31,0.15,0.55,0.18,0.72,0.17c0.16-0.01,0.28-0.04,0.53-0.02
			c0.28,0.02,0.37,0.09,0.42,0.13c0.11,0.09,0.15,0.22,0.16,0.28c0.03,0.11,0.31,1.16,0.32,1.6c0,0.11-0.02,0.21-0.08,0.28
			c-0.09,0.09-0.22,0.1-0.3,0.1c-0.1,0-0.16-0.02-0.23-0.04c-0.11-0.02-0.27-0.02-0.49,0.07c0,0.1,0,0.24-0.01,0.4
			c0,0.04-0.02,0.21-0.05,0.33c-0.15,0.5-0.62,0.91-0.8,1.23c-0.01,0.02-0.05,0.09-0.07,0.19c-0.02,0.08-0.03,0.16,0,0.23
			c0.06,0.13,0.25,0.16,0.27,0.16c0.2-0.02,1.65-0.12,2.43,0c0.17,0.03,0.4,0.08,0.54,0.26c0.02,0.03,0.17,0.22,0.14,0.47
			c-0.02,0.23-0.17,0.37-0.44,0.61c-0.32,0.3-0.59,0.41-0.68,0.45c-0.19,0.08-0.33,0.13-0.49,0.09c-0.02-0.01-0.03-0.01-0.36-0.16
			c-0.14-0.06-0.21-0.09-0.28-0.11c-0.13-0.03-0.23-0.03-0.3-0.02c-0.3,0.11-0.6,0.21-0.89,0.32c-0.04,0.02-0.12,0.06-0.19,0.13
			c-0.1,0.1-0.14,0.21-0.16,0.26c-0.23,0.65-0.24,0.81-0.39,1c-0.05,0.06-0.25,0.28-0.52,0.35c-0.17,0.04-0.31,0.03-0.31,0.03
			c-0.1-0.01-0.14-0.02-0.21-0.02c-0.11,0.01-0.2,0.07-0.27,0.14c-0.39,0.4-0.68,0.7-0.81,0.83c-0.03,0.03-0.09,0.09-0.11,0.19
			c-0.03,0.1,0,0.19,0.01,0.24c0.11,0.34,0.34,0.56,0.41,0.87c0.01,0.04,0.07,0.33-0.06,0.59c-0.14,0.27-0.43,0.39-0.71,0.48
			c-0.68,0.22-1.18,0.26-1.58,0.32c-1.37,0.21-1.46,0.66-2.43,0.76c0,0-0.4,0.04-1.03,0.4c-0.03,0.01-0.09,0.05-0.12,0.12
			c-0.06,0.12,0.01,0.26,0.04,0.32c0.07,0.16,0.15,0.4,0.22,0.78c0.19-0.02,0.36-0.04,0.48-0.04c0.12-0.01,0.18-0.01,0.24,0.02
			c0.16,0.06,0.23,0.2,0.26,0.24c0.11,0.2,0.09,0.42,0.08,0.49c-0.01,0.14-0.04,0.2,0,0.28c0.04,0.09,0.14,0.13,0.21,0.15
			c0.82-0.24,1.65-0.48,2.47-0.72c0.1-0.05,0.18-0.07,0.24-0.08c0.09-0.01,0.12,0.01,0.13,0.01c0.06,0.04,0.07,0.13,0.07,0.17
			c0.02,0.46-0.08,1.04-0.08,1.04c-0.07,0.44-0.14,0.62-0.27,1.09c-0.06,0.24-0.35,1.4-0.42,2.44c-0.01,0.25-0.04,0.77-0.14,1.48
			c-0.08,0.51-0.1,0.77-0.17,0.95c-0.62,1.56-2.66,1.85-2.9,1.88c-0.36,0.05-1.27,0.15-2.17-0.34c-0.1-0.05-0.45-0.26-0.81-0.64
			c-0.49-0.53-0.67-1.07-0.93-1.89c-0.14-0.44-0.31-1.05-0.42-1.8c0.23-0.76,0.46-1.51,0.69-2.27c-0.62,0.26-1.06,0.49-1.34,0.66
			c-0.12,0.07-0.34,0.21-0.67,0.37c-0.22,0.11-0.43,0.2-0.62,0.27c-0.03-0.05-0.06-0.14-0.07-0.24c-0.01-0.21,0.11-0.33,0.18-0.54
			c0.04-0.12,0.08-0.3,0.06-0.54c-0.13,0-0.22-0.02-0.29-0.04c-0.06-0.02-0.12-0.03-0.18-0.08c-0.06-0.04-0.11-0.09-0.16-0.16
			c-0.05-0.08-0.13-0.22-0.2-0.56c-0.02-0.11-0.04-0.25-0.05-0.43c0-0.05,0-0.08,0.01-0.11c0.01-0.02,0.01-0.04,0.03-0.06
			c0.01-0.01,0.03-0.03,0.06-0.04c0.03-0.01,0.08-0.03,0.14-0.03c0.27,0,0.53-0.01,0.8-0.01c-1.51-10.91-2.13-15.4-2.16-15.52
			c0,0,0-0.02-0.01-0.04c-0.01-0.06-0.04-0.18-0.06-0.33c-0.02-0.19-0.02-0.32-0.02-0.55c0-0.22,0.01-0.32,0.02-0.39
			c0.01-0.08,0.03-0.18,0.08-0.3c0.03-0.07,0.04-0.08,0.07-0.15c0.01-0.03,0.05-0.13,0.08-0.28c0.01-0.06,0.03-0.18,0.01-0.32
			c-0.02-0.14-0.06-0.24-0.09-0.33c-0.07-0.16-0.14-0.26-0.22-0.37c-0.15-0.22-0.18-0.2-0.28-0.37c-0.13-0.2-0.18-0.36-0.19-0.4
			C129.02,38.22,129,38.09,129,38c-0.01,0.28-0.08,0.48-0.13,0.61c-0.05,0.11-0.1,0.2-0.2,0.36c-0.08,0.13-0.22,0.35-0.29,0.45
			c-0.07,0.11-0.13,0.19-0.16,0.33c-0.03,0.12-0.01,0.2,0,0.22c0.02,0.07,0.05,0.09,0.14,0.2c0.03,0.05,0.11,0.15,0.17,0.28
			c0.06,0.13,0.08,0.23,0.08,0.26c0.01,0.08,0.02,0.15,0.02,0.2c-0.7,5.59-1.41,11.18-2.11,16.78c0.11,0,0.2,0,0.27,0.01
			c0.1,0,0.08,0,0.14,0.01c0.09,0,0.17,0.01,0.25,0.02c0.02,0,0.07,0.01,0.1,0.04c0.01,0.01,0.03,0.03,0.04,0.05
			c0.02,0.03,0.01,0.06,0.01,0.08c0,0.12-0.01,0.23-0.02,0.3c-0.01,0.07-0.04,0.3-0.15,0.57c-0.03,0.08-0.05,0.12-0.07,0.15
			c-0.03,0.05-0.1,0.15-0.23,0.22c-0.08,0.04-0.15,0.05-0.29,0.07c-0.05,0.01-0.09,0.01-0.12,0.01c0,1.83,0,3.67,0,5.5
			c-0.28,0.37-0.55,0.73-0.83,1.1c0.03-2.19,0.06-4.37,0.09-6.56c-0.04,0-0.1-0.01-0.18-0.02c-0.11-0.02-0.17-0.03-0.23-0.06
			c-0.08-0.04-0.13-0.09-0.15-0.11c-0.06-0.06-0.1-0.12-0.13-0.2c-0.07-0.14-0.09-0.26-0.13-0.44c0,0-0.02-0.08-0.05-0.43
			c0-0.01,0-0.05,0.01-0.11c0.01-0.03,0.02-0.05,0.03-0.06c0.02-0.02,0.04-0.03,0.06-0.04c0.08-0.03,0.14-0.03,0.14-0.03
			c0.24-0.01,0.47-0.01,0.71-0.02c-0.76-7.45-1.17-10.67-1.39-11.82c-0.05-0.27-0.1-0.55-0.16-0.82c-0.32-1.69-0.54-2.93-0.59-3.24
			c0-0.02-0.03-0.25-0.02-0.55c0-0.24,0-0.38,0.05-0.55c0.06-0.22,0.11-0.21,0.17-0.42c0.02-0.07,0.08-0.31,0.03-0.6
			c-0.04-0.21-0.12-0.35-0.28-0.62c-0.17-0.3-0.26-0.34-0.35-0.57c-0.07-0.19-0.11-0.35-0.12-0.46c-0.02,0.33-0.11,0.56-0.2,0.71
			c-0.13,0.23-0.31,0.44-0.51,0.84c-0.04,0.09-0.11,0.23-0.06,0.37c0.02,0.07,0.05,0.09,0.14,0.2c0.01,0.01,0.13,0.18,0.19,0.34
			c0.04,0.09,0.09,0.25,0.07,0.47c-0.04,0.2-0.09,0.5-0.16,0.86c-0.22,1.21-0.38,2.29-0.51,3.22c-0.15,1.1-0.26,2.02-0.32,2.56
			c-0.02,0.21-0.04,0.37-0.05,0.43c-0.09,0.9-0.39,3.64-1.03,9.65c0.39,0,0.68,0.01,0.76,0.02c0,0,0.01,0,0.02,0
			c0.04,0.01,0.06,0.02,0.07,0.02c0,0,0.03,0.02,0.06,0.04c0.08,0.08,0,0.66-0.16,1.03c-0.01,0.01-0.02,0.04-0.04,0.07
			c-0.02,0.04-0.1,0.17-0.25,0.24c-0.08,0.04-0.17,0.05-0.33,0.07c-0.03,0-0.06,0.01-0.08,0.01c0.04,2.84,0.08,5.69,0.12,8.53
			c-0.01,0.04-0.02,0.08-0.04,0.11c-0.14,0.25-0.57,0.23-0.59,0.22c-0.74,0-1.48,0-2.21,0c0.09,0.1,0.27,0.32,0.35,0.66
			c0.08,0.32,0.03,0.58,0,0.71c0.08,0.1,0.17,0.21,0.25,0.33c0.2,0.31,0.32,0.6,0.39,0.84c0.19,0.01,0.47,0.01,0.8-0.08
			c0.31-0.08,0.55-0.21,0.7-0.31c0.14,0.03,0.26,0.08,0.35,0.19c0.18,0.24,0.04,0.62,0.03,0.66c-0.15,0.51-0.13,19.12,0.03,50.78
			c5.69,0,11.39,0.01,17.08,0.01c0-9.71,0-19.43,0-29.14c0.42-6.36,5.71-11.36,12.01-11.44c6.41-0.08,11.88,4.97,12.31,11.44
			c0,9.71,0,19.43,0,29.14c5.6,0,11.21,0,16.81,0c0.01-16.93,0.02-33.85,0.03-50.78c-0.12-0.22-0.11-0.48,0.03-0.66
			c0.12-0.15,0.29-0.18,0.35-0.19c0.16,0.1,0.39,0.23,0.7,0.31c0.33,0.09,0.61,0.09,0.8,0.08c0.12-0.56,0.31-1.2,0.63-1.89
			c0.11-0.24,0.23-0.45,0.35-0.66C181.25,68.11,180.51,68.11,179.77,68.11z M147.79,32.93c-0.16-0.57,0.22-1.02,0.24-1.05
			c0,0,0.2,0.94,0.2,0.95c0,0,0.18,0.82,0.18,0.82C148.36,33.62,147.93,33.42,147.79,32.93z M148.58,32.51
			c-0.13-0.41-0.23-0.8-0.3-1.16c0.44,0.45,0.6,0.88,0.67,1.12c0.06,0.2,0.08,0.41,0.11,0.56c0.05,0.36,0.06,0.67,0.06,0.88
			C148.93,33.51,148.75,33.04,148.58,32.51z"/>
		<g>
			<path class="st1" d="M146.45,23.69c0.22,1.13,0.48,2.19,0.72,3.25l0.79,3.24l1.59,6.47l-0.3,0.07l-1.38-6.45
				C147.42,28.13,146.96,25.92,146.45,23.69z M146.45,23.69c0.48,2.11,1,4.23,1.53,6.41l1.57,6.55l-0.3,0.07l-1.49-6.5l-0.74-3.25
				C146.81,25.86,146.67,24.74,146.45,23.69z"/>
		</g>
	</g>
	<path class="st0" d="M133.23,194.69c1.82-4.01,3.64-8.02,5.45-12.03c6.49,0,12.99,0,19.48,0c0,24.63,0,49.26,0,73.89
		c-4.59,0-9.17,0-13.76,0c0-20.62,0-41.24,0-61.86C140.68,194.69,136.96,194.69,133.23,194.69z"/>
</g>
</svg>
