<svg width="58" height="58" viewBox="0 0 58 58" fill="none" xmlns="http://www.w3.org/2000/svg">
<g clip-path="url(#clip0)">
<path d="M29 57.8717C44.9454 57.8717 57.8717 44.9454 57.8717 29C57.8717 13.0546 44.9454 0.128296 29 0.128296C13.0546 0.128296 0.128296 13.0546 0.128296 29C0.128296 44.9454 13.0546 57.8717 29 57.8717Z" stroke="white" stroke-miterlimit="10"/>
<path d="M29 0.128296C30.4269 0.133429 34.0301 0.336172 37.4972 2.78706C37.7795 2.98723 43.7489 7.36033 43.6463 14.7412C43.5359 22.5404 36.7402 26.9443 36.2141 27.2702C30.4397 30.876 26.8622 27.4576 21.3907 31.1763C17.808 33.6117 14.7695 38.1876 14.7848 43.4281C14.8002 48.838 18.0647 52.4566 18.8448 53.2779C22.8535 57.4893 27.9298 57.8229 28.9974 57.8691C44.8371 57.8691 57.8691 44.8371 57.8691 28.9974C57.8691 13.1578 44.8396 0.128296 29 0.128296Z" stroke="white" stroke-miterlimit="10"/>
<path d="M34.8743 12.8421C34.8692 12.8421 34.7845 12.8473 34.7563 12.7985C34.7537 12.7934 34.7512 12.7857 34.7486 12.778C34.7563 12.2159 34.764 11.6565 34.7717 11.0944C34.7666 11.0944 34.7614 11.0944 34.7563 11.0919C34.7229 11.0893 34.7075 11.0867 34.6921 11.079C34.6613 11.0636 34.6485 11.038 34.6434 11.0303C34.6408 11.0251 34.6382 11.02 34.6357 11.0149C34.6049 10.9405 34.5895 10.8275 34.6049 10.8121C34.61 10.807 34.6177 10.8044 34.6177 10.8044C34.6203 10.8044 34.6254 10.8019 34.6305 10.7993C34.6331 10.7993 34.6331 10.7993 34.6331 10.7993C34.6485 10.7967 34.705 10.7942 34.7845 10.7942C34.6588 9.60851 34.5997 9.06701 34.5818 8.88993C34.5818 8.8771 34.5766 8.8463 34.5715 8.80524C34.5587 8.69745 34.5381 8.51781 34.5074 8.29966C34.4817 8.11745 34.4483 7.90188 34.4073 7.66577C34.3944 7.59391 34.3842 7.53488 34.3765 7.49639C34.3739 7.45276 34.3816 7.42196 34.3893 7.404C34.4021 7.3732 34.4252 7.33984 34.4278 7.33727C34.4432 7.31418 34.4509 7.31161 34.4535 7.29878C34.4637 7.27055 34.4483 7.24232 34.4406 7.22435C34.3996 7.1448 34.3636 7.1063 34.338 7.06011C34.3226 7.02931 34.3046 6.98311 34.2995 6.91896C34.2969 6.94205 34.2892 6.97285 34.2764 7.01134C34.2584 7.05754 34.243 7.06524 34.2071 7.12427C34.1763 7.17816 34.1609 7.20382 34.1532 7.24488C34.1429 7.30134 34.1558 7.35011 34.1583 7.36294C34.1686 7.404 34.1814 7.404 34.1917 7.44506C34.202 7.47842 34.202 7.50665 34.202 7.55285C34.202 7.61188 34.1968 7.6555 34.1968 7.66064C34.1891 7.72223 34.1455 7.9686 34.0813 8.29966C34.0711 8.35356 34.0608 8.40745 34.0505 8.46135C34.0069 8.68975 33.9274 9.32365 33.7759 10.7942C33.8221 10.7967 33.8683 10.7967 33.9171 10.7993C33.9171 10.7993 33.9299 10.7993 33.9453 10.8044C33.9504 10.807 33.953 10.807 33.9581 10.8121C33.9607 10.8147 33.9607 10.8173 33.9633 10.825C33.9658 10.8352 33.9658 10.8455 33.9658 10.8455C33.9581 10.9148 33.9556 10.9302 33.9556 10.9302C33.9479 10.9661 33.9427 10.9892 33.9299 11.0175C33.9222 11.0328 33.9145 11.0457 33.9043 11.0585C33.8991 11.0636 33.8889 11.0739 33.8735 11.0816C33.8606 11.0893 33.8504 11.0893 33.8273 11.0944C33.8119 11.097 33.799 11.097 33.7913 11.097C33.7965 11.5282 33.8042 11.9593 33.8093 12.3905C33.7554 12.3186 33.6989 12.2467 33.6451 12.1749C33.6451 11.813 33.6451 11.4512 33.6451 11.0893C33.6399 11.0893 33.6322 11.0893 33.622 11.0867C33.5937 11.0842 33.5783 11.0816 33.5655 11.0739C33.5398 11.0611 33.527 11.0405 33.5193 11.0303C33.5142 11.0226 33.5116 11.0149 33.5039 10.9995C33.4834 10.9482 33.4757 10.902 33.4757 10.8866C33.4731 10.8712 33.4731 10.8506 33.4705 10.8275C33.4705 10.825 33.4705 10.8198 33.4731 10.8121C33.4757 10.807 33.4782 10.8044 33.4808 10.8019C33.4885 10.7967 33.4962 10.7942 33.5013 10.7942C33.5167 10.7942 33.5347 10.7916 33.5501 10.7916C33.5604 10.7916 33.5578 10.7916 33.5783 10.7916C33.5937 10.7916 33.6117 10.7916 33.6322 10.7916C33.4936 9.68807 33.355 8.58453 33.2165 7.48099C33.2165 7.47073 33.2165 7.45789 33.219 7.4425C33.219 7.43736 33.2242 7.41683 33.2344 7.39117C33.2473 7.3655 33.2601 7.34497 33.2678 7.33727C33.2832 7.31674 33.2909 7.31161 33.2935 7.29878C33.2935 7.29365 33.2986 7.28081 33.2935 7.25515C33.2883 7.22949 33.2755 7.21152 33.2627 7.19099C33.2498 7.17046 33.2216 7.12683 33.2062 7.10117C33.1857 7.07037 33.1754 7.05241 33.1677 7.02931C33.1574 7.00365 33.1446 6.96515 33.142 6.90869C33.142 6.92665 33.1369 6.94975 33.1292 6.97798C33.1266 6.98568 33.1164 7.01648 33.0907 7.05754C33.0702 7.0909 33.0651 7.08834 33.0343 7.1294C33.0189 7.1525 33.0035 7.17303 32.9906 7.20382C32.9829 7.22179 32.9752 7.23975 32.9727 7.26798C32.9701 7.29621 32.9727 7.31931 32.9752 7.33214C32.9804 7.36037 32.9881 7.3809 32.9906 7.38604C32.9958 7.40143 32.9983 7.40143 33.006 7.41426C33.0163 7.43736 33.0189 7.45789 33.0214 7.47329C33.024 7.48869 33.024 7.50665 33.024 7.55028C33.024 7.59391 33.024 7.61958 33.0189 7.65807C33.0163 7.68887 33.0112 7.71196 33.0086 7.7248C33.0086 7.72993 33.006 7.7325 33.006 7.7325C33.0009 7.75559 32.8777 8.64099 32.58 10.7942C32.6339 10.7942 32.6852 10.7967 32.7391 10.7967C32.752 10.7967 32.7622 10.7993 32.7674 10.8019C32.775 10.8044 32.7776 10.807 32.7802 10.8096C32.7827 10.8121 32.7853 10.8173 32.7853 10.8224C32.7853 10.8275 32.7879 10.8352 32.7879 10.8429C32.7853 10.8763 32.7802 10.9071 32.7776 10.9276C32.7648 10.9944 32.7494 11.0226 32.7391 11.038C32.7289 11.0508 32.7212 11.0611 32.7083 11.0688C32.6955 11.0765 32.6827 11.0816 32.6724 11.0842C32.6596 11.0867 32.639 11.0919 32.6159 11.0919C32.6108 11.1406 32.6185 11.174 32.6262 11.1997C32.6416 11.2407 32.6647 11.2638 32.6621 11.3075C32.6621 11.328 32.6544 11.3434 32.6493 11.3536C32.6108 11.3382 32.5697 11.3203 32.5261 11.2998C32.462 11.269 32.4158 11.2407 32.3927 11.2253C32.3362 11.192 32.2515 11.1458 32.1283 11.0944C32.1745 11.2433 32.2181 11.3921 32.2643 11.5436C32.2412 11.6924 32.2104 11.8105 32.1822 11.8977C32.1309 12.0594 32.095 12.1646 31.9974 12.2698C31.9281 12.3468 31.8589 12.3853 31.8383 12.3956C31.6612 12.4931 31.4816 12.4726 31.4097 12.4623C31.3635 12.4572 30.9606 12.3982 30.8374 12.0902C30.8246 12.0543 30.8169 12.0029 30.8041 11.9028C30.7835 11.7617 30.7784 11.659 30.7758 11.6103C30.763 11.405 30.7066 11.1766 30.6937 11.1278C30.6706 11.0354 30.6552 10.9995 30.6424 10.9122C30.6424 10.9122 30.6219 10.7967 30.6244 10.7069C30.6244 10.6992 30.627 10.6813 30.6373 10.6736C30.6398 10.6736 30.645 10.6684 30.6629 10.671C30.6732 10.671 30.6912 10.6761 30.7091 10.6864C30.8708 10.7326 31.0325 10.7813 31.1967 10.8275C31.2121 10.8224 31.2301 10.8147 31.2378 10.7967C31.2455 10.7813 31.2404 10.7685 31.2378 10.7403C31.2378 10.7249 31.2327 10.6813 31.2532 10.6428C31.2583 10.6351 31.2737 10.6068 31.3045 10.594C31.3174 10.5889 31.3276 10.5889 31.3533 10.5914C31.3764 10.594 31.4097 10.594 31.4482 10.5991C31.4611 10.5247 31.479 10.4785 31.4919 10.4452C31.497 10.4323 31.5098 10.4067 31.4996 10.3836C31.4944 10.3707 31.4816 10.363 31.4765 10.3605C31.3507 10.2912 31.2737 10.2809 31.2737 10.2809C31.0838 10.2604 31.0658 10.1705 30.7938 10.1295C30.7143 10.1167 30.6167 10.109 30.4807 10.0679C30.4243 10.0499 30.3704 10.0294 30.3396 9.97294C30.3113 9.91904 30.3267 9.86258 30.3267 9.85745C30.3344 9.82922 30.3473 9.80869 30.3652 9.78046C30.3909 9.74196 30.4191 9.7163 30.4371 9.69834C30.4345 9.67267 30.4345 9.64957 30.432 9.62391C30.3858 9.55975 30.3421 9.49303 30.2959 9.42887C30.2882 9.42373 30.2728 9.41603 30.2549 9.4109C30.183 9.38524 30.1497 9.41347 30.0906 9.3955C30.0393 9.38011 30.0059 9.33904 29.9957 9.32365C29.9751 9.29542 29.9803 9.28515 29.9469 9.21329C29.9315 9.1825 29.9238 9.16196 29.9058 9.13373C29.8904 9.10807 29.8725 9.09011 29.8417 9.05161C29.8212 9.02851 29.8032 9.00798 29.7827 8.98745C29.757 8.97719 29.7185 8.96435 29.6723 8.96435C29.6466 8.96435 29.6235 8.96435 29.6056 8.96692C29.5979 8.98232 29.5774 9.00798 29.5414 9.02851C29.5286 9.03621 29.4875 9.05931 29.4362 9.05418C29.4105 9.05161 29.3849 9.03365 29.3361 9.00285C29.3258 8.99515 29.2797 8.96692 29.2283 8.91816C29.1873 8.8771 29.1796 8.8617 29.177 8.85143C29.1744 8.84117 29.1616 8.80524 29.1796 8.76931C29.195 8.73338 29.2258 8.71798 29.2463 8.70772C29.2797 8.69232 29.3079 8.68719 29.3258 8.68719C29.4978 8.68975 29.6697 8.68975 29.8417 8.69232C29.8494 8.69232 29.9058 8.68975 29.9264 8.65126C29.9315 8.64099 29.9392 8.62046 29.9212 8.5717C29.9058 8.52807 29.8776 8.47931 29.8083 8.42028C29.7647 8.38435 29.7159 8.34073 29.6389 8.30993C29.603 8.29453 29.562 8.28427 29.5286 8.24577C29.5106 8.22524 29.5029 8.20471 29.4978 8.18931C29.5004 8.15595 29.5029 8.12002 29.5081 8.08152C29.5158 8.03019 29.5286 7.984 29.5414 7.9455C29.5543 7.93267 29.5722 7.90957 29.5953 7.88391C29.6877 7.78126 29.7005 7.77612 29.7262 7.73506C29.775 7.66064 29.7852 7.59904 29.7878 7.58621C29.7929 7.56311 29.7929 7.54258 29.7904 7.50409C29.7904 7.45276 29.7852 7.38347 29.7775 7.29621C29.7519 7.22949 29.7442 7.17046 29.739 7.1294C29.7313 7.02674 29.7493 6.94205 29.7621 6.89842C29.7852 6.824 29.8006 6.82143 29.8083 6.76241C29.8186 6.69568 29.8058 6.64435 29.7929 6.59559C29.7801 6.54427 29.7519 6.46471 29.6928 6.37488C29.6492 6.26196 29.621 6.17727 29.603 6.11311C29.5927 6.07975 29.5799 6.02842 29.5337 5.9848C29.5132 5.96427 29.4798 5.93604 29.4413 5.9386C29.4054 5.94117 29.3592 5.96683 29.3335 6.00276C29.3258 6.01559 29.3156 6.03099 29.2976 6.03869C29.2771 6.04639 29.2617 6.04126 29.2566 6.03869C29.2309 6.02842 29.2206 6.00533 29.2181 6.00019C29.2283 5.9232 29.2309 5.86161 29.2335 5.81798C29.2412 5.63834 29.2232 5.61781 29.2412 5.50232C29.2489 5.45869 29.2566 5.43046 29.254 5.3817C29.2514 5.33807 29.2514 5.28674 29.2181 5.24568C29.1873 5.20719 29.1488 5.19692 29.0846 5.17639C29.023 5.15842 28.9743 5.14046 28.9127 5.15586C28.8562 5.16869 28.81 5.20205 28.7818 5.22258C28.7484 5.24568 28.7279 5.26621 28.6843 5.27648C28.6586 5.28418 28.6432 5.27904 28.6175 5.28161C28.5508 5.28418 28.4764 5.30984 28.4353 5.34834C28.3917 5.38683 28.3866 5.44073 28.3737 5.49975C28.3147 5.80002 28.307 5.73073 28.2916 5.87701C28.2916 5.87701 28.2788 5.98223 28.3019 6.31329C28.3019 6.32612 28.3044 6.35435 28.3224 6.38515C28.3275 6.39542 28.3506 6.42878 28.3891 6.44418C28.443 6.46471 28.4995 6.43904 28.5123 6.43391C28.5508 6.41595 28.5636 6.39542 28.6021 6.39285C28.6252 6.39285 28.6406 6.40055 28.6432 6.40311C28.6612 6.41338 28.6689 6.42878 28.674 6.43648C28.656 6.44674 28.5097 6.5263 28.4276 6.5725C28.425 6.57506 28.4122 6.58019 28.3968 6.59046C28.3558 6.61869 28.3224 6.63922 28.3044 6.67772C28.289 6.71108 28.2916 6.74444 28.2942 6.75471C28.3044 6.82657 28.3686 6.85993 28.3789 6.86506C28.384 6.87789 28.3891 6.90099 28.3814 6.92665C28.3712 6.95745 28.3404 6.97028 28.2993 6.98825C28.2762 6.99851 28.2403 7.01391 28.1864 7.01648C28.135 7.01904 28.094 7.00878 28.0683 6.99851C28.0581 7.05754 28.0529 7.10887 28.0504 7.14223C28.0478 7.17046 28.0478 7.18329 28.0504 7.20126C28.0581 7.26028 28.0863 7.27311 28.0966 7.32444C28.0991 7.33984 28.0966 7.33984 28.0889 7.43223C28.0786 7.54515 28.0786 7.56055 28.0837 7.57595C28.0914 7.59904 28.1068 7.63497 28.153 7.67347C28.212 7.70427 28.2608 7.7094 28.2942 7.70683C28.325 7.70427 28.3481 7.69913 28.3994 7.7017C28.4533 7.70683 28.4738 7.71966 28.4841 7.72736C28.5046 7.74533 28.5123 7.77099 28.5149 7.78382C28.52 7.80692 28.5765 8.01223 28.5765 8.09949C28.5765 8.12002 28.5739 8.14055 28.5611 8.15338C28.5431 8.17134 28.5174 8.17134 28.502 8.17391C28.4815 8.17391 28.4712 8.16878 28.4558 8.16621C28.4353 8.16108 28.402 8.16108 28.3583 8.17904C28.3583 8.19958 28.3583 8.22524 28.3558 8.2586C28.3558 8.2663 28.3532 8.29966 28.3455 8.32276C28.3147 8.42028 28.2223 8.50241 28.1864 8.56657C28.1838 8.5717 28.1761 8.58453 28.171 8.60506C28.1684 8.62046 28.1633 8.63586 28.171 8.65126C28.1838 8.67692 28.2197 8.68205 28.2249 8.68205C28.2634 8.67949 28.5508 8.65639 28.7048 8.68205C28.7381 8.68719 28.7818 8.69745 28.81 8.73338C28.8151 8.73851 28.8434 8.77701 28.8382 8.82577C28.8331 8.8694 28.8049 8.89763 28.751 8.94639C28.6894 9.00542 28.6329 9.02851 28.6175 9.03365C28.579 9.04904 28.5534 9.05931 28.52 9.05161C28.5149 9.05161 28.5149 9.04904 28.4481 9.02081C28.4199 9.00798 28.4071 9.00285 28.3917 8.99772C28.366 8.99258 28.3455 8.99258 28.3327 8.99258C28.2736 9.01311 28.2146 9.03365 28.1556 9.05418C28.1479 9.05931 28.1325 9.06701 28.1197 9.07984C28.0991 9.10037 28.0914 9.1209 28.0889 9.13117C28.0427 9.25949 28.0427 9.29285 28.0119 9.32878C28.0016 9.34161 27.9631 9.38524 27.9092 9.39807C27.8758 9.40577 27.8476 9.4032 27.8476 9.4032C27.8271 9.4032 27.8194 9.39807 27.8066 9.40064C27.7835 9.4032 27.7655 9.41347 27.7527 9.42887C27.6757 9.50842 27.6192 9.56745 27.5935 9.59055C27.5884 9.59568 27.5756 9.60851 27.5704 9.62648C27.5653 9.64701 27.5704 9.66497 27.573 9.67267C27.5935 9.7394 27.6397 9.78303 27.6551 9.84462C27.6577 9.85232 27.6705 9.90878 27.6423 9.96011C27.6141 10.014 27.5576 10.0371 27.5012 10.0551C27.3651 10.0987 27.2676 10.1064 27.1881 10.1167C26.9186 10.1577 26.9006 10.2475 26.7081 10.2681C26.7081 10.2681 26.6312 10.2758 26.5054 10.3476C26.5003 10.3502 26.4874 10.3579 26.4823 10.3707C26.472 10.3938 26.4849 10.4221 26.49 10.4323C26.5054 10.4631 26.5208 10.5119 26.5336 10.5863C26.5721 10.5812 26.6029 10.5786 26.6286 10.5786C26.6543 10.576 26.6645 10.5786 26.6773 10.5812C26.7081 10.5914 26.7235 10.6197 26.7287 10.6299C26.7492 10.6684 26.7466 10.7121 26.7441 10.7275C26.7415 10.7557 26.7364 10.7659 26.7441 10.7839C26.7518 10.8019 26.7697 10.8096 26.7851 10.8147C26.9468 10.7685 27.1085 10.7198 27.2727 10.6736C27.2933 10.6633 27.3087 10.6607 27.3189 10.6582C27.3369 10.6556 27.342 10.6607 27.3446 10.6607C27.3574 10.6684 27.3574 10.6864 27.3574 10.6941C27.3626 10.7839 27.3395 10.8994 27.3395 10.8994C27.3266 10.9867 27.3112 11.02 27.2881 11.115C27.2753 11.1637 27.2189 11.3896 27.206 11.5975C27.2035 11.6462 27.1983 11.7489 27.1778 11.89C27.1624 11.9901 27.1573 12.0414 27.1444 12.0774C27.0212 12.3853 26.6209 12.4418 26.5721 12.4495C26.5003 12.4598 26.3232 12.4803 26.1435 12.3828C26.123 12.3725 26.0537 12.3314 25.9844 12.257C25.8869 12.1518 25.8535 12.0466 25.7997 11.8849C25.7714 11.7976 25.7381 11.677 25.7175 11.5307C25.7637 11.3819 25.8073 11.233 25.8535 11.0816C25.7304 11.1329 25.6457 11.1791 25.5892 11.2125C25.5661 11.2253 25.5225 11.2536 25.4558 11.2869C25.4121 11.3075 25.3711 11.3254 25.3326 11.3408C25.3274 11.3305 25.3197 11.3151 25.3197 11.2946C25.3172 11.2536 25.3403 11.2279 25.3557 11.1868C25.3634 11.1637 25.3711 11.1278 25.3659 11.079C25.3403 11.079 25.3223 11.0739 25.3095 11.0713C25.2966 11.0688 25.2864 11.0636 25.2735 11.0559C25.2607 11.0482 25.253 11.038 25.2427 11.0251C25.2325 11.0098 25.2171 10.9815 25.2043 10.9148C25.1991 10.8943 25.1966 10.866 25.194 10.8301C25.194 10.8198 25.194 10.8147 25.1966 10.8096C25.1966 10.8044 25.1991 10.8019 25.2017 10.7967C25.2043 10.7942 25.2068 10.7916 25.2145 10.789C25.2197 10.7865 25.2299 10.7839 25.2427 10.7839C25.2966 10.7839 25.348 10.7813 25.4019 10.7813C25.1042 8.62816 24.981 7.74276 24.9758 7.71966C24.9758 7.71966 24.9758 7.7171 24.9733 7.71196C24.9707 7.69913 24.9656 7.67604 24.963 7.64524C24.9579 7.60674 24.9579 7.58108 24.9579 7.53745C24.9579 7.49382 24.9604 7.47586 24.9604 7.46046C24.963 7.44506 24.9656 7.42453 24.9758 7.40143C24.981 7.3886 24.9835 7.38603 24.9912 7.3732C24.9938 7.36807 25.0015 7.34754 25.0066 7.31931C25.0092 7.30648 25.0118 7.28338 25.0092 7.25515C25.0066 7.22692 24.9989 7.20639 24.9912 7.19099C24.9784 7.16019 24.963 7.13966 24.9476 7.11657C24.9168 7.07294 24.9117 7.07807 24.8912 7.04471C24.8655 7.00621 24.8552 6.97285 24.8527 6.96515C24.845 6.93692 24.8398 6.91126 24.8398 6.89586C24.8373 6.94975 24.8244 6.99081 24.8142 7.01648C24.8039 7.03957 24.7936 7.05497 24.7757 7.08834C24.7603 7.114 24.732 7.15763 24.7192 7.17816C24.7064 7.19869 24.6935 7.21665 24.6884 7.24232C24.6833 7.26798 24.6858 7.28081 24.6884 7.28595C24.6935 7.30134 24.6987 7.30391 24.7141 7.32444C24.7218 7.33471 24.7346 7.35267 24.7474 7.37834C24.7577 7.404 24.7628 7.42453 24.7628 7.42966C24.7654 7.44506 24.7654 7.45789 24.7654 7.46816C24.6268 8.5717 24.4882 9.67524 24.3496 10.7788C24.3702 10.7788 24.3881 10.7788 24.4035 10.7788C24.4241 10.7788 24.4189 10.7788 24.4318 10.7788C24.4497 10.7788 24.4651 10.7813 24.4805 10.7813C24.4857 10.7813 24.4934 10.7839 24.5011 10.789C24.5036 10.7916 24.5062 10.7942 24.5088 10.7993C24.5113 10.8044 24.5113 10.8121 24.5113 10.8147C24.5113 10.8404 24.5088 10.8609 24.5062 10.8737C24.5036 10.8891 24.4985 10.9328 24.478 10.9867C24.4728 11.0021 24.4677 11.0098 24.4626 11.0175C24.4574 11.0277 24.442 11.0482 24.4164 11.0611C24.401 11.0688 24.3881 11.0713 24.3599 11.0739C24.3497 11.0739 24.342 11.0765 24.3368 11.0765C24.3368 11.4383 24.3368 11.8002 24.3368 12.1621C24.2829 12.2339 24.2265 12.3058 24.1726 12.3776C24.1777 11.9465 24.1854 11.5153 24.1905 11.0842C24.1828 11.0842 24.17 11.0816 24.1546 11.0816C24.1341 11.079 24.1212 11.0765 24.1084 11.0688C24.093 11.0611 24.0827 11.0508 24.0776 11.0457C24.0673 11.0328 24.0597 11.0226 24.052 11.0046C24.0391 10.9764 24.034 10.9533 24.0263 10.9174C24.0263 10.9174 24.0237 10.902 24.016 10.8327C24.016 10.8327 24.016 10.8224 24.0186 10.8121C24.0212 10.8044 24.0212 10.8019 24.0237 10.7993C24.0263 10.7942 24.0314 10.7916 24.0366 10.7916C24.052 10.7865 24.0648 10.7865 24.0648 10.7865C24.111 10.7839 24.1572 10.7839 24.2059 10.7813C24.0571 9.31081 23.975 8.67692 23.9313 8.44851C23.9211 8.39462 23.9108 8.34073 23.9005 8.28683C23.8364 7.9532 23.7927 7.7094 23.785 7.6478C23.785 7.64267 23.7799 7.59904 23.7799 7.54002C23.7799 7.49382 23.7799 7.46559 23.7902 7.43223C23.803 7.3886 23.8133 7.39117 23.8235 7.35011C23.8261 7.33727 23.8389 7.28851 23.8287 7.23205C23.821 7.19099 23.8056 7.16276 23.7748 7.11143C23.7414 7.05241 23.7235 7.04471 23.7055 6.99851C23.6901 6.96258 23.685 6.92922 23.6824 6.90612C23.6773 6.97028 23.6593 7.01648 23.6439 7.04727C23.6182 7.09347 23.5823 7.13453 23.5412 7.21152C23.5335 7.22949 23.5181 7.25772 23.5284 7.28595C23.5335 7.29878 23.5387 7.30391 23.5541 7.32444C23.5566 7.32701 23.5797 7.36037 23.5926 7.39117C23.6003 7.40913 23.6105 7.43993 23.6054 7.48356C23.5977 7.52205 23.5874 7.58108 23.5746 7.65294C23.531 7.89161 23.5002 8.10462 23.4745 8.28683C23.4437 8.50497 23.4232 8.68462 23.4104 8.79241C23.4052 8.83347 23.4027 8.86427 23.4001 8.8771C23.3821 9.05418 23.3231 9.59568 23.1973 10.7813C23.2743 10.7813 23.3308 10.7839 23.3488 10.7865H23.3513C23.359 10.789 23.3642 10.789 23.3642 10.7916C23.3642 10.7916 23.3693 10.7942 23.377 10.7993C23.3924 10.8147 23.377 10.9302 23.3462 11.0021C23.3462 11.0046 23.3436 11.0098 23.3385 11.0175C23.3539 11.0354 23.3385 11.0611 23.3077 11.0765C23.2923 11.0842 23.2743 11.0867 23.2435 11.0893C23.2358 11.0893 23.2307 11.0893 23.2281 11.0919C23.2358 11.6539 23.2435 12.2134 23.2512 12.7754C23.2487 12.7831 23.2461 12.7908 23.2435 12.7959C23.2179 12.8447 23.1332 12.8396 23.1255 12.8396C22.9792 12.8396 22.8355 12.8396 22.6892 12.8396C22.7072 12.8601 22.7405 12.9037 22.7585 12.9679C22.7739 13.0295 22.7636 13.0834 22.7585 13.109C22.7739 13.127 22.7919 13.1501 22.8073 13.1758C22.8458 13.2374 22.8689 13.2938 22.8843 13.3426C22.9227 13.3451 22.9766 13.3451 23.0408 13.3272C23.1024 13.3118 23.1486 13.2861 23.1794 13.2656C23.2076 13.2707 23.2307 13.281 23.2487 13.3041C23.2846 13.3528 23.2564 13.4273 23.2564 13.4324C23.2256 13.5325 23.2307 17.205 23.2615 23.4515C24.3856 23.4515 25.5071 23.4515 26.6312 23.4541C26.6312 21.537 26.6312 19.6199 26.6312 17.7054C26.7133 16.4505 27.7578 15.4624 28.9999 15.447C30.2651 15.4316 31.343 16.4274 31.4277 17.7054C31.4277 19.6225 31.4277 21.5396 31.4277 23.4541C32.5338 23.4541 33.6399 23.4541 34.7435 23.4541C34.746 20.1152 34.746 16.7764 34.7486 13.435C34.7255 13.3913 34.7281 13.34 34.7563 13.3067C34.7794 13.2784 34.8127 13.2707 34.8256 13.2682C34.8564 13.2887 34.9026 13.3118 34.9642 13.3298C35.0283 13.3477 35.0848 13.3477 35.1207 13.3451C35.1438 13.2348 35.1823 13.1065 35.2465 12.973C35.2696 12.9268 35.2927 12.8832 35.3158 12.8447C35.1643 12.8421 35.0206 12.8421 34.8743 12.8421ZM28.5636 5.90267C28.5328 5.78975 28.6073 5.7025 28.6124 5.6948L28.6535 5.88214L28.6894 6.04382C28.6766 6.03869 28.5919 5.99763 28.5636 5.90267ZM28.7202 5.81798C28.6945 5.73586 28.674 5.65887 28.6612 5.58958C28.7484 5.6794 28.7792 5.76152 28.7946 5.81028C28.8049 5.84878 28.8126 5.88984 28.8151 5.92064C28.8254 5.9925 28.828 6.05152 28.828 6.09515C28.7895 6.01559 28.7535 5.9232 28.7202 5.81798Z" fill="#FDFEFE"/>
<path d="M28.2993 4.078C28.3429 4.30384 28.3968 4.51172 28.4456 4.7196L28.6073 5.35606L28.9204 6.63411L28.8434 6.65208C28.751 6.22862 28.6586 5.81287 28.5739 5.38685C28.4892 4.96084 28.3994 4.51942 28.2993 4.078ZM28.2993 4.078C28.3917 4.49119 28.4969 4.90438 28.6073 5.33553C28.7176 5.76411 28.8203 6.20296 28.9204 6.63411L28.8434 6.65208C28.7459 6.22606 28.6432 5.80004 28.5483 5.37146L28.4097 4.7273C28.366 4.50659 28.3429 4.28331 28.2993 4.078Z" fill="white"/>
<path d="M25.692 37.8181C26.0513 37.0277 26.4106 36.2347 26.7673 35.4442C28.0479 35.4442 29.3286 35.4442 30.6117 35.4442C30.6117 40.3049 30.6117 45.1631 30.6117 50.0238C29.7058 50.0238 28.8025 50.0238 27.8965 50.0238C27.8965 45.9561 27.8965 41.8884 27.8965 37.8181C27.16 37.8181 26.426 37.8181 25.692 37.8181Z" stroke="#FDFEFE" stroke-miterlimit="10"/>
</g>
<defs>
<clipPath id="clip0">
<rect width="58" height="58" fill="white"/>
</clipPath>
</defs>
</svg>
