<svg xmlns="http://www.w3.org/2000/svg" xmlns:xlink="http://www.w3.org/1999/xlink" width="304" height="108"><style><![CDATA[.B{fill:#28334c}.C{fill:#232c56}]]></style><g fill="#f2491c"><path d="M284.846 91.602c1 1.398 3.4 2 4 4.198-.2 0-.4.2-.8.2-1 0-4.4-3.6-4.602-4.398-.603-1.802-1.198-5-1.198-5.397v-.603c.8 2 1.4 4 2.6 6zm-266 0c1 1.398 3.4 2 4 4.198-.2 0-.4.2-.8.2-1 0-4.4-3.6-4.6-4.398-.6-1.802-1.2-5-1.2-5.397v-.603c.8 2 1.4 4 2.6 6zm42.4-.802c.8.802 3 1.4 3.6 2.6v.6h-1.4c-4.4-1.6-5.8-6-6.4-9 1 1.8 1.8 4 4.2 5.8zm222.6-5.198c2.8 2.603 7.6 9.198 7.6 11.8 0 1.2-.396 1.4-1 1.4-2.196 0-5.8-3.4-7.6-3.4-.6.604-1 1.4-1.4 2.2-.6 1.198-1.396 8.8-5.8 8.8-1.6 0-2.396-3.6-2.396-4.196 0-6.2 2.396-12.804 4.603-18.804.397.604 1 1.4 1 2 0 0-4 11.804-4 13.804 0 .8-.2 1.196.8 2 .2 0 .6-.4.6-.603.6-2 1.2-4.2 1.4-6.2l.6-3.6c.4-1.6.6-3.198.8-4.8 1 .2 1 1 1 1.602 0 .398-.4 4.198-.4 4.8 0 1-.196 2 .804 2 1.196 0 1.397-1.6 1.397-1.8 0-.397-.8-5.2-.8-5.802 0-.4.8-1 1-1.4.2-.6.398-1.396.8-2.196.2.795.4 1.795.99 2.397zm-266 0c2.6 2.398 7.6 8.8 7.6 11.8 0 1.2-.4 1.4-1 1.4-2.2 0-5.8-3.4-7.6-3.4-.6.604-1 1.4-1.4 2.2-.6 1.198-1.4 8.8-5.8 8.8-1.6 0-2.4-3.6-2.4-4.196 0-6.2 2.4-12.804 4.6-18.804.4.604 1 1.4 1 2 0 0-4 11.804-4 13.804 0 .8-.2 1.196.8 2 .2 0 .6-.4.6-.603.6-2 1.2-4.2 1.4-6.2l.6-3.6c.4-1.6.6-3.198.8-4.8 1 .2 1 1 1 1.602 0 .398-.4 4.198-.4 4.8 0 1-.2 2 .8 2 1.2 0 1.4-1.6 1.4-1.8 0-.397-.8-5.2-.8-5.802 0-.4.8-1 1-1.4.2-.6.4-1.396.8-2.196.2.795.4 1.795 1 2.397zM143.645 87c1.2.602 3.8.4 4.8 1.8-.2.4-.8.802-1.2.802-3.4 0-7.2-3.397-9-7 1.8 1.798 3.4 3.598 5.4 4.398zm104.2-2.2c1 1 2.4 1.6 3.6 2.802 1.804 1.8 5.4 6.398 5.4 8.398 0 1.2-1.2 1-1.4 1-2.396 0-5.196-2.398-7.6-2.398-.6 1-1 2-1.2 3-.396 1-.8 8.603-4.8 8.603-1.2 0-2.6-2.804-2.6-3.2v-8.8l2.4-10.804c.396.4 1.196 1 1.196 1.604 0 .2-2.397 10.8-2.397 13.2 0 .8-.198 2.196.802 2.8h.6c.8-3.2.8-7.396 1.2-10.396 0-4 .2-4.4.2-5 1.198-.2 1.198 1.8 1.198 2.8v4.2c.2.6.397 1 .802 1.396.198-.2 1.198-1.2 1.4-1.8l-1.4-6c0-.4.4-.804.8-1.2 0 .2.2.604.2 1 .6 1.396 1 3.396 1.8 5 .2.396 3.8 3.8 5 3.8.398 0 .6-.197 1-.396v-.8c-1.2-1-2.8-1.803-4-2.803-.4-.396-3.8-5.396-3.8-6.6 0-.4.198-1.2.4-1.804.4.8.6 1.6 1.202 2.4zm-189.4-.4c.8.8 2 1.6 3 2.2 1.6 1 6.4 7 6.4 8.8 0 1.2-.8 1.2-1.2 1.2s-6.6-2.4-7.2-2.4c-1.6 0-2 4-2 4.4 0 1.396-.4 3-.8 4.396 0 .604-2.2 3.2-3.4 3.2-2.8 0-3-5.4-3-6.602v-5.398l2-10.803c.4.2 1.4.803 1.4 1.4 0 .4-.2.4-.4.6-.4 2.2-1.6 8.803-1.6 12 0 .803-.2 3 .8 3.604h.6c.4-1 .4-2.2.6-3.396l.2-12.2c2.2-2 .2 8.396 2.4 8.396.8 0 1.2-1.6 1.4-1.6l-1.8-6.4c.2-.396.8-1 1-1 .2-.196 0-.196 0-.6 0-.602.2-1.2.4-1.803.4.608.6 1.408 1.2 2.008zm153.6-.4c1 .8 2.6 1.4 3.8 2.4s6.2 6 6.2 7.8c0 1.2-1.602 1-1.8 1-.4 0-4.802-1.2-7.2-1.6-1 1.196-1 3-1.2 4.6 0 .2-.2 7.6-3.8 7.6-3.2 0-3.602-8.198-3.602-9V92l1.2-9c.6.602 1.196 1.2 1.196 1.602l-1 11.603c0 1.397-.6 3.397 1.4 4.6.196 0 .396-.396.6-.6v-7l-.6-7.603c0-.397 0-.602.196-.802.2 0 .604.2.804.4.196 1 .396 2 .396 3 0 .4 0 5 1.604 5 1 0 1.196-1.6 1.196-1.6 0-.4-2.196-6-2.196-6.4 0-.6.396-.4.8-.8.2.396.396 1 .604 1.6.6 1 1.196 2.602 2 4 .396.602 4.196 3.2 5.196 3.2.603 0 .804-.2 1.2-.6-1.2-2.2-3.604-1.804-5-3.604-2.396-2.8-4-4.396-4-7 0-.604 0-.2.2-.396.606.8 1.005 1.6 1.805 2.4zm-112.4-.6c1.2.8 2.8 1.8 4.4 2.6 1.4.8 6 5.2 6 7 0 .8-1.6 1-2 1s-5.8-1.2-6.2-1.2c-1.4 0-1.6 1.6-1.6 2.802v5.603c-.4 1.196-1.8 4.196-3.4 4.196-1.4 0-2.6-1.6-3-2.8-.8-2.602-1-5.397-1.4-8.2l.4-11.8c.4.398 1.2 1 1.2 1.603v12.397c.4 1.198 0 2.398 1.4 3.8h.8v-3l-1.6-13.196c.4.196.8.397 1 .6.4 1.2.6 2.604.8 3.803.2.197.2 4 1.8 4 .8 0 1.2-1.2 1.2-1.604 0-.396-2-4.2-2.8-6.396.2 0 .6-.2.8-.604.2.2.2.604.4 1 .6 1.2 1.4 2.604 2.2 3.8.4.4 4.2 3.2 5 3.2h1.6c0-.2.2-.2.2-.8 0-1.4-4-2-4.6-2.603-2-1.602-3.8-3.397-4.8-5.2-.4-.6-.4-1.8-.4-2.196 0-.603 0-.2.2-.4.6.796 1.2 1.796 2.4 2.594zm85.2 9.8c-.4 0-4.6-.8-6.8-.8-.8 1.396-.8 4-.602 5.6.2 1.2.2 2.602-.198 4-.2 1-1.802 3.2-3 3.2-1 0-2.4-1.4-2.802-2.4-1-2.8-2-8.4-2-8.8V82.2c.2.4.802 1 1.397 1.4l.2 11.196c.2 1 0 5.4 1.8 5.4.603 0 .804-.4.804-.803l-2.4-15.197c1.4.398 1.198-.2 1.198.6 0 .4 1.802 7.604 2.602 7.604 1 0 1.2-1.2 1.2-1.4 0-.6-2.802-5.8-2.802-6.2 0-.6.397-.6.802-1 1 2.2 3.4 6.802 6.8 7.2.2.2.2.4.8.4h1.8c0-.2.2-.2.2-.8 0-1.2-3.8-2-3.8-2-1.8-.604-4.8-3.604-6-5.604-.4-.8-.4-1.604-.602-2.396.802.6 1.802 1.6 2.802 2.396 1.6 1 3.4 1.604 5 2.8 1.4 1 5.8 4.4 5.8 6.4 0 1.207-2 1.007-2.2 1.007zm-34.4-2l-7.2-.2c-.6.4-.6 1.8-.6 2 0 .4.8 6.2.8 6.8 0 1-1.2 4.4-2.8 4.4-1.2 0-2.2-.8-3.2-2.2-.8-1.2-1-2.6-1.4-3.6-1.2-3.4-2.2-7.8-2.2-11 0-1.604-.6-4.604-.6-5v-.8c.4.4 1.2.604 1.4 1.4.4.6.2 1.6.4 2.4 1 4.8.2 9.396 3.4 14h.6c.2-.2.4-.4.4-.604l-4.2-15.195c.6 0 1 0 1.2.396 1 .8 2.2 7.397 3.6 7.397 1 0 1-1.2 1-1.397 0-1.2-3.4-5.2-3.4-5.802s.2-1.198.6-1.8c-1.2-.397-1.2-2.2-1.6-3 1.2.8 2.2 1.8 3.2 2.398 1.8.8 3.8 1.4 5.6 2.4.6.398 6.6 3.6 6.6 6 0 .8-1.4 1-1.6 1z"/><path d="M282.8 5.2c5.2 7.6 7.4 17.8 7.4 26l-.2 7c-.6 6.6-1.2 13.2-2.8 19.8-1.2 5-2.6 10.2-3.6 15.602C283 77 282.8 81 282.2 84.8c-.2 1.4-1.2 2-2.2 2-1.2 0-2-3.198-2-3.4 0-.6-.6-1.8-.6-2.6 0-12.8-6.8-26.6-7.8-39.2 0-1.4-.4-4.2-.4-4.6V23.6c.4-6 1.6-12 5.4-18-1-1-2.2-2.4-2.604-3.4v-.6c.8 1 2.604 3.2 3.2 3.2.398 0 1.8-1.4 2.8-1.6h.8c1.2 0 1.604.6 3.397 1.4 1-1 2.2-2.2 3-3.2C285 2.2 284 4.2 282.8 5.2zm-45.6-.4c1.8-1 2.6-1.6 3.6-1.6.802 0 2.6.2 3.2 1.4 1-1 2.2-2.2 2.8-3.2 0 2-2 3.2-2 3.8s2 3 2.6 4.6c3 6.4 4.804 14.6 4.804 21.6 0 .4 0 1.8-.2 6.4-.2 1.8-.604 3.8-.604 5.6-.396 10.6-5.196 22.4-5.196 33.2 0 3.8.196 5.2.196 5.604 0 1.197 0 3.8-2.196 3.8-.603 0-1.4-1-2-1.603-1.603-2.197-1.603-5.397-2.2-7.397-1-5.2-2.396-10.8-4-15.8-1.8-6-4.8-18.2-4.8-25V24.4c.196-1.2.196-2.6.397-3.8.603-3.2 1.198-6.4 2.198-9.6.6-2 2.802-5 2.802-5.4 0-.6-2.397-3.2-2.397-3.6v-.6C235 2.4 236 3.6 237.2 4.8zm-220.4.4c5.4 7.8 7.4 17.6 7.4 25.6L24 38c-.6 6.2-1.2 13.6-2.8 20-1.2 5-2.6 10.4-3.6 15.602C16.8 77 16.8 81 16.2 84.8c-.2 1.802-1 1.802-1.8 1.802-1.6 0-2.4-2.802-2.4-3.2 0-.6-.6-1.8-.6-2.6 0-13-6.8-26-7.8-39 0-1.6-.4-4.4-.4-4.8V23.6c.4-6 1.6-12 5.4-18-1-1-2.2-2.4-2.6-3.4v-.6c.8 1 2.6 3.2 3.2 3.2.4 0 1.8-1.4 2.8-1.6h.8c1.2 0 2 .2 3.4 1.4 1-1 2.2-2.2 3-3.2-.2.8-1.2 2.8-2.4 3.8zm38 0c0 .4 2.4 3.8 3 5.6.8 2 4.2 12 4.2 15.4V37c-.4 5.8-1 11.4-2 17-.6 3.602-1.8 7.4-2.4 11.2-.6 3.6-1 10.8-1 11.4 0 .396.4 6 .4 6.396 0 1.2-.6 2.604-1.8 2.604-3.6 0-4.6-7.804-4.8-8.2-.4-2.2-1.2-4.8-1.8-7-1.2-4.4-2.4-9.2-3.8-13.4-1.6-5.2-3.6-15.8-3.6-21.8v-9.6c.2-1.4.2-3 .4-4.6.2-2 .4-4 1-6a27 27 0 0 1 2.2-6.4c.4-1.2 1.8-2.6 1.8-3 0-.2-2.4-2.6-2.2-4.2.6 1 1.6 2.2 2.8 3.4 1.8-1 2.6-1.6 3.6-1.6 1.4 0 2.4 1.2 3.2 1.2.4 0 2-2 2.8-3.2 0 2-2 3.2-2 4zm148.2-2c1 0 2 .2 3 1.4 1-1.2 2-2.4 2.602-3.6 0 1.4-1 2.8-2 4.2 1.603 1.4 2.603 3.8 3.198 5.6 1 2 4.2 11.8 4.2 15.6V37c-.398 5.4-.8 10.8-1.8 16-1.6 9.4-3 12-3 20 0 .4 0 5.4.6 8 0 .602.4 1.2.4 1.8 0 1 0 2.4-1.6 2.4-2.4 0-4.4-4.4-5-6.4-.603-2.8-1.803-5.4-2.603-8-2.2-7.198-5-15.198-6.396-22.6-.6-3.2-1.2-9.4-1.2-9.8V22.8c.2-1 .396-2.2.396-3.2.398-3.2 1.2-6.6 2.398-9.6.398-1.4 2.398-4 2.398-4.4 0-.6-1.2-1.4-1.6-2.2-.39-.6-.39-1.4-.593-2.4.6 1 1.6 2.4 2.8 3.8 1.2-.8 2.8-1.6 3.8-1.6zm-38 0c1 0 1.8.6 3 1.2.8-1 1.602-2.2 2.2-3.2 0 0 .2-.2.2.4 0 .4-1.8 3-1.8 3.6 0 .4.6.8.8 1.2 1 1 1.6 2.4 2.2 4 3.397 7.4 4.397 13.8 4.397 21.4l-.2 7.8c-.396 4.4-.8 8.8-1.6 13.2C172.6 61 172 61.6 172 68.4c0 .396 0 5.8.602 8.8.198 2 1.398 5.4 1.398 6 0 .8 0 1.4-1 1.4-3.8 0-6.8-7.604-7.6-9.2-3.8-8.604-6.8-17.604-8.604-26.2C156 45.4 155.4 38 155.4 37.6v-14c.2-1.2.2-2.4.396-3.6.2-.8.397-1.8.397-2.8.603-2.2 1-4.6 1.803-6.6.604-1.8 2.604-4.6 2.604-5 0-.6-1.604-3-2-4.4.8 1 1.8 2.4 2.8 3.6.6-1 2.6-1.6 3.6-1.6zM85.4 4.8c.4-1 2.8-1.6 3.4-1.6.8 0 2.8 1.2 3 1.2.6 0 2-2.2 2.6-3.4 0 1.4-1 2.8-1.8 4.2.6.8 1.2 1.4 1.6 2.4 4.6 8.8 5.8 15.6 5.8 24.2s-.6 13.8-2.2 23.4c-.2 2-1 4.2-1.4 6.2-.6 2.8-.6 5.6-.6 8.396 0 6.2 1.6 12.2 1.6 13.2 0 1.2-.2 1.8-1.4 1.8-4.6 0-8.2-12.6-8.4-13.196-2.6-7.2-5.4-15.4-6.8-22.4-.8-3.6-1.4-10.4-1.4-10.8V22.8c.2-1 .4-2.2.4-3.2.2-1.4.4-3.2.8-4.4 0-.6.2-1.6.6-2.2.4-1.4 1-3.2 1.6-4.4.4-1.2 1.8-2.6 1.8-3 0-.6-2-3.4-2-3.8v-1c0 1 1.6 2.6 2.8 4zm38 0c.6-1 2.6-1.6 3.6-1.6.8 0 1.2 0 2.8 1.2 1-1.2 1.8-2.4 2.2-3.6 0 0 .2-.2.2.4 0 1.2-1.6 3-1.6 3.8 0 .6 2 3 2.6 4.6 3.8 9 4.8 13.8 4.8 22.2l-.2 6.8-1.4 13c-.6 5-2.2 9.2-2.2 14 0 3.4.8 8.2 1.6 11.4.4 2.2 2.2 6 2.2 6.4 0 .6-.2.8-.8.8-1.2 0-4.2-2.6-5.2-3.8-7.4-9.4-10.2-19-12.6-28.604-1-4.4-2-10.4-2-15V24.4c.2-1.2.2-2.6.4-4 .2-1 .4-2.2.4-3.2.6-2.4 1.2-5.2 2.2-7.6.4-1.4 2.4-3.6 2.4-4 0-.6-1.8-3-1.8-3.4V.6c.6 1.4 1.4 2.8 2.4 4.2z"/></g><path fill="#ffaf9f" d="M281.068 86.596l.6 5.8c0 .398-.2 1-.6 1.603h-1.2c.2-4.804.398-6.2 0-7.396h1.2v-.008zm-266 0l.6 5.8c0 .398-.2 1-.6 1.603h-1.2c.2-4.804.4-6.2 0-7.396h1.2v-.008zm270.2 5.2c.8 1 2.604 2 3.604 3.2v.6c-.2.2-.2.2-.803.2-1.197 0-3.602-2.398-4.197-3.398-.803-1.602-1.396-4.397-1.396-4.8v-1.6c.792 1.8 1.39 3.8 2.792 5.8zm-266 0c.8 1 2.6 2 3.6 3.2v.6c-.2.2-.2.2-.8.2-1.2 0-3.6-2.398-4.2-3.398-.8-1.602-1.4-4.397-1.4-4.8v-1.6c.8 1.8 1.4 3.8 2.8 5.8zm225.8-6l1.6 6.4c0 .8-1 1.4-1.4 1.4-.6 0-.8-3.604-.8-3.604v-4.2l.6.004zm31 15h-.604c-.396-.6-.396-1.398-.396-1.8 0-4 2.8-10 3.8-13.4a177.46 177.46 0 0 1-2.801 15.199zm-220.4-15c.6 2 1.8 5.602 1.8 6.2 0 .8-.6 1.4-1.2 1.4-1 0-1-4-1-4.2v-3.6c.2.001.4.001.4.2zm-45.6 15h-.6c-.4-.6-.4-1.398-.4-1.8 0-4 2.8-10 3.8-13.4-.6 4.4-1.6 10-2.8 15.2zm243-6.4c-1 0-4-2-4.604-3.2-1-1.8-1.6-3.8-2-5.6l.2-.2c.8 1.6 1.8 3.2 2.8 4.8s3.803 2 4.604 3.8a1.53 1.53 0 0 1-1 .4zm-10.2-3.4c-.4 2.8-.602 6.8-1.2 9.8-.4-.2-1-.6-1-1v-4c1-3.6 1-7.398 2.4-10.6 0 2.2 0 2.6-.2 5.8zm-33.6-5.8c.604 2 2.2 5.8 2.2 6.2 0 .6-.8 1.396-1.2 1.396-1 0-1.6-6-1.6-6.195v-1.4h.6zm-144.4 8.6c-.2 0-.4.2-.8.2-1.4 0-4.2-2.4-4.8-3.2-1.2-1.6-1.4-3.398-2-5.2 1 .8 1.6 2.4 3 4.2 1.4 1.2 3 2 4.6 3.2v.8zm34.4-2.8c0 .2-.6 1-1.2 1.4-1.4-2.4-1.8-5.2-2-7.604h.6c.8 2.005 2.6 5.806 2.6 6.205zm-45.6 3.6l-.6 6h-.6c-.4-.4-.6-.8-.6-1.2v-4.8l1.8-9.8v9.8zm122.6-3.8c0 .4-.396 1.2-1 1.2s-.6-.2-.8-.4c-.6-2-1.6-5.6-1.6-6v-1c1.2.8 3.4 5.6 3.4 6.2zm38.4-1.4c1.2 1.2 2.8 1.6 4.2 2.6v.602c-.2 0-.602.198-1 .198-3.4 0-7.4-6.198-7.4-8.4 1.2 1.598 2.4 3.598 4.2 5zm-7 2.8v8s0 .2-.4.2c-.8 0-1.2-1.604-1.2-1.8v-5.2c.398-3 .603-6.2 1-9l.598 7.8zm-70-8c1.2 1.8 3.4 5 3.4 5.6 0 .4-.4 1.2-1 1.2s-.8-.4-1-.8c-.8-1.8-2-5-2-5.4v-.6h.6zm-41.4 15.2c0 .2 0 .8-.6.8-1 0-1.4-3.2-1.4-3.4v-12.6l2 15.2zm5.8-11c1.4 1.2 3.2 1 4.8 2.6-.4.4-1 .8-1.2.8-4 0-7.4-6-7.8-7.8 1.2 1.4 2.4 3.2 4.2 4.4zm77-.4c1.396 1.2 3.2.8 4.8 2.4-.2.2-1.2.8-1.4.8-3 0-7.398-4.6-7.8-7.4 1.4 1.4 2.6 3 4.4 4.2zm-5.6 10.2v1.6s0 .2-.398.2c-1.397 0-1.8-4.8-1.8-5l-.2-11.2 2.398 14.4zm-34.2.8s0 .2-.4.2c-1.8 0-2.4-4.6-2.4-5-.6-2.8-1.2-8.2-1.2-8.6v-2c1.2 4.8 2.8 9.2 4 15.4zm3.8-12.6c1.6 1.2 3.6.6 5.4 2v.6c-.4.2-.8.4-1.4.4-3 0-7.2-3.2-8.6-6.604 1.4 1.003 2.8 2.403 4.6 3.604z"/><g class="B"><ellipse transform="matrix(-.0336 -.9994 .9994 -.0336 7.5043 29.1996)" cx="17.869" cy="10.972" rx="1.199" ry=".378"/><ellipse transform="matrix(-.0324 -.9995 .9995 -.0324 -2.78 19.9469)" cx="8.265" cy="11.319" rx="1.198" ry=".378"/><ellipse transform="matrix(-.0336 -.9994 .9994 -.0336 46.782 67.1742)" cx="55.868" cy="10.969" rx="1.199" ry=".378"/><ellipse transform="matrix(-.0322 -.9995 .9995 -.0322 36.441 57.9272)" cx="46.266" cy="11.321" rx="1.198" ry=".378"/><ellipse transform="matrix(-.0336 -.9994 .9994 -.0336 86.0588 105.1507)" cx="93.867" cy="10.968" rx="1.199" ry=".378"/><ellipse transform="matrix(-.0324 -.9995 .9995 -.0324 75.6814 95.9109)" cx="84.267" cy="11.322" rx="1.198" ry=".378"/><ellipse transform="matrix(-.0336 -.9994 .9994 -.0336 125.3394 143.1242)" cx="131.866" cy="10.964" rx="1.199" ry=".378"/><ellipse transform="matrix(-.0322 -.9995 .9995 -.0322 114.8879 133.8915)" cx="122.268" cy="11.323" rx="1.198" ry=".378"/><ellipse transform="matrix(-.0334 -.9994 .9994 -.0334 164.8363 181.3549)" cx="170.116" cy="10.967" rx="1.199" ry=".378"/><ellipse transform="matrix(-.033 -.9995 .9995 -.033 154.5106 172.1255)" cx="160.522" cy="11.317" rx="1.198" ry=".377"/><ellipse transform="matrix(-.0334 -.9994 .9994 -.0334 204.1048 219.3302)" cx="208.114" cy="10.966" rx="1.199" ry=".378"/><ellipse transform="matrix(-.0322 -.9995 .9995 -.0322 193.5894 210.1077)" cx="198.519" cy="11.327" rx="1.198" ry=".377"/><ellipse transform="matrix(-.033 -.9995 .9995 -.033 243.2888 257.3295)" cx="246.132" cy="10.969" rx="1.199" ry=".378"/><ellipse transform="matrix(-.033 -.9995 .9995 -.033 233.0235 248.0867)" cx="236.526" cy="11.316" rx="1.198" ry=".377"/><ellipse transform="matrix(-.0334 -.9994 .9994 -.0334 282.6545 295.2717)" cx="284.112" cy="10.952" rx="1.199" ry=".378"/><ellipse transform="matrix(-.0322 -.9995 .9995 -.0322 272.0461 286.0622)" cx="274.521" cy="11.319" rx="1.198" ry=".378"/></g><g class="C"><use xlink:href="#B"/><use xlink:href="#C"/><use xlink:href="#D"/><use xlink:href="#E"/><use xlink:href="#F"/><use xlink:href="#G"/><use xlink:href="#H"/></g><defs><path id="A" d="M16.8 5c5.4 7.8 7.4 17.6 7.4 25.6l-.2 7.2c-.6 5.4-1 11.4-2.2 17.2-.6 3.8-1.8 7.8-2.8 11.602-.6 2.8-1.4 6-1.8 9-.4 1.798-.6 4.198-.6 6.198 0 1-.2 4.802-2.6 4.802-1.2 0-2-3.2-2-3.397 0-.603-.6-1.804-.6-2.603-.2-12.2-6-25.397-7.6-37.397l-.6-6.4V23.4c.4-6 1.6-12 5.4-18C7.6 4.4 6.4 3 6 2v-.6c.8 1 2.6 3.2 3.2 3.2.4 0 1.8-1.4 2.8-1.6h.8c1.2 0 2 .2 3.4 1.4 1-1 2.2-2.2 3-3.2C19 2 18 4 16.8 5z"/><path id="B" d="M13.665 14.792s-.334.417-.667.75-1 1.083-.833 1.333.974.833.737 1.083-.18.583 0 1.083.097.417.763.667 1.75-.167 2.333 0 1.5-.5 1.667-1-.25-1.25 0-1.417-.17-.916.04-1.166.042-1.333.042-1.333l-1.916-.5c-.001 0-1.5-.25-2.167.5z"/><path id="C" d="M7.85 24.71c-.815 1.156-1.22.917-1.22 1.832s-.102 1.22 0 1.83-1.12.812-1.017 1.32-.397.896-.006 1.627.417.68 1.045 1.02-.835.31 1.198.713.508 1.012 2.033.402 1.728.305 1.83-1.22-.813-1.728 0-2.033 1.22-.658 1.524-1 .407-1.043 0-1.754-.915-1.12-.915-1.12-.203-.304-.915-.406-.813-1.223-1.118-1.222-2.055-.546-2.44-.001z"/><path id="D" d="M8.56 35.185s-1.653 2.133-1.787 2.667-2.23.4-.848 2.267.582.933 1.382 1.867.045.723.667 1.734-.9.69.622 1.01 1.96-.19 2.67 0 1.775.322 1.91-1.278-.4-2.878 0-3.44 1.6-.56 1.734-1.36.124-2.532-.534-2.667-.8-.268-1.333-.134-1.818.001-1.775.267-1.05-.934-1.05-.934-.906-1.007-1.657 0z"/><path id="E" d="M9.128 54.667s-.167 2.75 0 3.166-1.083-.083.167.417l1.25.5s.203.083.56-.417.2-1.167.857-1.25l.666-.083s.25.083.333-1 .25-1.833-.333-2-.833 0-1.25 0 .002-.25-.79 0-.542-.417-.792.25-.667.417-.667.417z"/><path id="F" d="M11.663 51.21s-1.737-3.822 0-4.17 6.08 0 6.08 0 1.738-.328 1.216 2.007-1.725 1.99-1.905 3.03-.18 1.39-.875 1.042l-.695-.348-2.78-1.912-1.043.35z"/><path id="G" d="M17.355 61.375s-3.027.312-2.975.625-.053.75 0 1.188-.146.688-.015 1.312-.725.562.015 1.062-.5.312.74.5 2.094.812 2.234-.438-.203-1.75 0-2-.11-.312.328-.562.625-.75.5-1-.827-.687-.827-.687z"/><path id="H" d="M19.185 30.948s-2.096.45-2.246.75-1.123.823-.674 1.722.71.6 1.103 1.572.053.973.298 1.946.096 1.422.77 1.946-1.347 1.422.674.524 2.47-1.497 2.545-2.32.075-1.198 0-2.32.143-2.35.056-2.79.618-.88-.505-1.03-2.02 0-2.02 0z"/><path id="I" d="M51.998 14.792s-.334.417-.667.75-1 1.083-.833 1.333.974.833.737 1.083-.18.583 0 1.083.097.417.763.667 1.75-.167 2.333 0 1.5-.5 1.667-1-.25-1.25 0-1.417-.17-.916.04-1.166.042-1.333.042-1.333l-1.916-.5s-1.5-.25-2.167.5z"/><path id="J" d="M46.182 24.71c-.815 1.156-1.22.917-1.22 1.832s-.102 1.22 0 1.83-1.12.812-1.017 1.32-.397.896-.006 1.627.417.68 1.045 1.02-.835.31 1.198.713.508 1.012 2.033.402 1.728.305 1.83-1.22-.813-1.728 0-2.033 1.22-.658 1.524-1 .407-1.043 0-1.754-.915-1.12-.915-1.12-.203-.304-.915-.406-.813-1.223-1.118-1.222-2.054-.546-2.44-.001z"/><path id="K" d="M46.892 35.185s-1.653 2.133-1.787 2.667-2.23.4-.848 2.267.582.933 1.382 1.867.045.723.667 1.734-.9.69.622 1.01 1.96-.19 2.67 0 1.775.322 1.91-1.278-.4-2.878 0-3.44 1.6-.56 1.734-1.36.124-2.532-.534-2.667-.8-.268-1.333-.134-1.818.001-1.775.267-1.05-.934-1.05-.934-.905-1.007-1.657 0z"/><path id="L" d="M165.787 14.792s-.334.417-.668.75-1 1.083-.832 1.333.973.833.736 1.083-.18.583 0 1.083.097.417.764.667 1.75-.167 2.332 0 1.5-.5 1.668-1-.25-1.25 0-1.417-.17-.916.04-1.166.042-1.333.042-1.333l-1.916-.5s-1.5-.25-2.166.5z"/><path id="M" d="M159.97 24.71c-.814 1.156-1.22.917-1.22 1.832s-.102 1.22 0 1.83-1.118.812-1.017 1.32-.398.896-.006 1.627.416.68 1.045 1.02-.836.31 1.197.713.508 1.012 2.033.402 1.727.305 1.83-1.22-.813-1.728 0-2.033 1.22-.658 1.524-1 .406-1.043 0-1.754-.914-1.12-.914-1.12-.203-.304-.916-.406-.812-1.223-1.117-1.222-2.054-.546-2.438-.001z"/><path id="N" d="M160.68 35.185s-1.653 2.133-1.787 2.667-2.23.4-.85 2.267.582.933 1.383 1.867.045.723.666 1.734-.9.69.622 1.01 1.962-.19 2.67 0 1.775.322 1.91-1.278-.4-2.878 0-3.44 1.6-.56 1.733-1.36.124-2.532-.534-2.667-.8-.268-1.333-.134-1.817.001-1.775.267-1.05-.934-1.05-.934-.904-1.007-1.655 0z"/><path id="O" d="M161.25 54.667s-.167 2.75 0 3.166-1.083-.083.167.417l1.25.5s.202.083.56-.417.2-1.167.857-1.25l.666-.083s.25.083.334-1 .25-1.833-.334-2-.834 0-1.25 0 .002-.25-.79 0-.542-.417-.792.25-.667.417-.667.417z"/><path id="P" d="M163.785 51.21s-1.737-3.822 0-4.17 6.08 0 6.08 0 1.738-.328 1.217 2.007-1.725 1.99-1.904 3.03-.18 1.39-.876 1.042l-.695-.348-2.78-1.912-1.043.35z"/><path id="Q" d="M169.477 61.375s-3.027.312-2.975.625-.053.75 0 1.188-.145.688-.015 1.312-.726.562.015 1.062-.5.312.74.5 2.094.812 2.234-.438-.203-1.75 0-2-.11-.312.328-.562.625-.75.5-1-.827-.687-.827-.687z"/><path id="R" d="M171.307 30.948s-2.096.45-2.245.75-1.123.823-.674 1.722.71.6 1.103 1.572.053.973.3 1.946.096 1.422.77 1.946-1.348 1.422.674.524 2.47-1.497 2.545-2.32.074-1.198 0-2.32.143-2.35.057-2.79.617-.88-.506-1.03-2.023 0-2.023 0z"/><path id="S" d="M204.12 14.792s-.334.417-.667.75-1 1.083-.833 1.333.974.833.737 1.083-.18.583 0 1.083.096.417.763.667 1.75-.167 2.333 0 1.5-.5 1.667-1-.25-1.25 0-1.417-.17-.916.04-1.166.042-1.333.042-1.333l-1.915-.5s-1.5-.25-2.167.5z"/><path id="T" d="M198.305 24.71c-.815 1.156-1.22.917-1.22 1.832s-.102 1.22 0 1.83-1.118.812-1.017 1.32-.397.896-.006 1.627.417.68 1.045 1.02-.835.31 1.198.713.508 1.012 2.032.402 1.728.305 1.83-1.22-.812-1.728 0-2.033 1.22-.658 1.525-1 .406-1.043 0-1.754-.915-1.12-.915-1.12-.203-.304-.915-.406-.812-1.223-1.117-1.222-2.054-.546-2.438-.001z"/><path id="U" d="M199.014 35.185s-1.652 2.133-1.787 2.667-2.23.4-.848 2.267.582.933 1.382 1.867.045.723.667 1.734-.89.69.62 1.01 1.962-.19 2.67 0 1.775.322 1.91-1.278-.4-2.878 0-3.44 1.6-.56 1.733-1.36.125-2.532-.533-2.667-.8-.268-1.334-.134-1.817.001-1.775.267-1.05-.934-1.05-.934-.903-1.007-1.655 0z"/><path id="V" d="M199.584 54.667s-.168 2.75 0 3.166-1.084-.083.166.417l1.25.5s.203.083.56-.417.19-1.167.856-1.25l.667-.083s.25.083.333-1 .25-1.833-.333-2-.834 0-1.25 0 .002-.25-.79 0-.543-.417-.793.25-.666.417-.666.417z"/><path id="W" d="M202.118 51.21s-1.737-3.822 0-4.17 6.08 0 6.08 0 1.738-.328 1.217 2.007-1.725 1.99-1.905 3.03-.18 1.39-.876 1.042l-.695-.348-2.78-1.912-1.043.35z"/><path id="X" d="M207.81 61.375s-3.027.312-2.975.625-.053.75 0 1.188-.146.688-.016 1.312-.725.562.016 1.062-.5.312.74.5 2.094.812 2.234-.438-.203-1.75 0-2-.11-.312.328-.562.625-.75.5-1-.827-.687-.827-.687z"/><path id="Y" d="M209.64 30.948s-2.096.45-2.246.75-1.123.823-.674 1.722.71.6 1.104 1.572.053.973.3 1.946.096 1.422.77 1.946-1.348 1.422.674.524 2.47-1.497 2.545-2.32.074-1.198 0-2.32.143-2.35.056-2.79.618-.88-.505-1.03-2.023 0-2.023 0z"/></defs><clipPath id="Z"><use xlink:href="#A"/></clipPath><g clip-path="url(#Z)" class="B"><ellipse transform="matrix(-.0336 -.9994 .9994 -.0336 7.5043 29.1996)" cx="17.869" cy="10.972" rx="1.199" ry=".378"/><ellipse transform="matrix(-.0324 -.9995 .9995 -.0324 -2.78 19.9469)" cx="8.265" cy="11.319" rx="1.198" ry=".378"/></g><g class="C"><use xlink:href="#I"/><use xlink:href="#J"/><use xlink:href="#K"/><path d="M47.46 54.667s-.167 2.75 0 3.166-1.083-.083.167.417l1.25.5s.203.083.56-.417.2-1.167.857-1.25L50.96 57s.25.083.333-1 .25-1.833-.333-2-.833 0-1.25 0 .002-.25-.79 0-.542-.417-.792.25-.667.417-.667.417z"/><use xlink:href="#F" x="38.333"/><use xlink:href="#G" x="38.333"/><use xlink:href="#H" x="38.335"/></g><defs><path id="a" d="M55.133 5c5.4 7.8 7.4 17.6 7.4 25.6l-.2 7.2c-.6 5.4-1 11.4-2.2 17.2-.6 3.8-1.8 7.8-2.8 11.602-.6 2.8-1.4 6-1.8 9-.4 1.8-.6 4.198-.6 6.198 0 1-.2 4.802-2.6 4.802-1.2 0-2-3.2-2-3.397 0-.603-.6-1.804-.6-2.603-.2-12.2-6-25.397-7.6-37.397l-.6-6.4V23.4c.4-6 1.6-12 5.4-18-1-1-2.2-2.4-2.6-3.4v-.6c.8 1 2.6 3.2 3.2 3.2.4 0 1.8-1.4 2.8-1.6h.8c1.2 0 2 .2 3.4 1.4 1-1 2.2-2.2 3-3.2-.2.8-1.2 2.8-2.4 3.8z"/></defs><clipPath id="b"><use xlink:href="#a"/></clipPath><g clip-path="url(#b)" class="B"><ellipse transform="matrix(-.0336 -.9994 .9994 -.0336 47.1258 67.5115)" cx="56.203" cy="10.972" rx="1.199" ry=".378"/><ellipse transform="matrix(-.0324 -.9995 .9995 -.0324 36.7955 58.2602)" cx="46.599" cy="11.319" rx="1.198" ry=".378"/></g><g class="C"><use xlink:href="#I" x="38.122"/><use xlink:href="#J" x="38.122"/><use xlink:href="#K" x="38.122"/><use xlink:href="#E" x="76.455"/><use xlink:href="#F" x="76.455"/><use xlink:href="#G" x="76.455"/><use xlink:href="#H" x="76.455"/></g><defs><path id="c" d="M93.255 5c5.4 7.8 7.4 17.6 7.4 25.6l-.2 7.2c-.6 5.4-1 11.4-2.2 17.2-.6 3.8-1.8 7.8-2.8 11.602-.6 2.8-1.4 6-1.8 9-.4 1.8-.6 4.198-.6 6.198 0 1-.2 4.802-2.6 4.802-1.2 0-2-3.2-2-3.397 0-.603-.6-1.804-.6-2.603-.2-12.2-6-25.397-7.6-37.397l-.6-6.4V23.4c.4-6 1.6-12 5.4-18-1-1-2.2-2.4-2.6-3.4v-.6c.8 1 2.6 3.2 3.2 3.2.4 0 1.8-1.4 2.8-1.6h.8c1.2 0 2 .2 3.4 1.4 1-1 2.2-2.2 3-3.2-.2.8-1.2 2.8-2.4 3.8z"/></defs><clipPath id="d"><use xlink:href="#c"/></clipPath><g clip-path="url(#d)" class="B"><ellipse transform="matrix(-.0336 -.9994 .9994 -.0336 86.5288 105.612)" cx="94.325" cy="10.972" rx="1.199" ry=".378"/><ellipse transform="matrix(-.0324 -.9995 .9995 -.0324 76.1527 96.3623)" cx="84.721" cy="11.319" rx="1.198" ry=".378"/></g><g class="C"><use xlink:href="#B" x="114.789"/><use xlink:href="#C" x="114.788"/><use xlink:href="#D" x="114.788"/><use xlink:href="#E" x="114.789"/><use xlink:href="#F" x="114.789"/><use xlink:href="#G" x="114.789"/><use xlink:href="#H" x="114.789"/></g><defs><path id="e" d="M131.59 5c5.4 7.8 7.4 17.6 7.4 25.6l-.2 7.2c-.6 5.4-1 11.4-2.2 17.2-.6 3.8-1.8 7.8-2.8 11.602-.6 2.8-1.4 6-1.8 9-.4 1.8-.6 4.198-.6 6.198 0 1-.2 4.802-2.6 4.802-1.2 0-2-3.2-2-3.397 0-.603-.6-1.804-.6-2.603-.2-12.2-6-25.397-7.6-37.397l-.6-6.4V23.4c.4-6 1.6-12 5.4-18-1-1-2.2-2.4-2.6-3.4v-.6c.8 1 2.6 3.2 3.2 3.2.4 0 1.8-1.4 2.8-1.6h.8c1.2 0 2 .2 3.4 1.4 1-1 2.2-2.2 3-3.2-.2.8-1.2 2.8-2.4 3.8z"/></defs><clipPath id="f"><use xlink:href="#e"/></clipPath><g clip-path="url(#f)" class="B"><ellipse transform="matrix(-.0336 -.9994 .9994 -.0336 126.1502 143.9239)" cx="132.658" cy="10.972" rx="1.199" ry=".378"/><ellipse transform="matrix(-.0324 -.9995 .9995 -.0324 115.7281 134.6757)" cx="123.054" cy="11.319" rx="1.198" ry=".378"/></g><g class="C"><use xlink:href="#L"/><use xlink:href="#M"/><use xlink:href="#N"/><use xlink:href="#O"/><use xlink:href="#P"/><use xlink:href="#Q"/><use xlink:href="#R"/></g><defs><path id="g" d="M168.922 5c5.4 7.8 7.4 17.6 7.4 25.6l-.2 7.2c-.6 5.4-1 11.4-2.2 17.2-.6 3.8-1.8 7.8-2.8 11.602-.6 2.8-1.4 6-1.8 9-.4 1.8-.6 4.198-.6 6.198 0 1-.2 4.802-2.6 4.802-1.2 0-2-3.2-2-3.397 0-.603-.6-1.804-.6-2.603-.2-12.2-6-25.397-7.6-37.397l-.6-6.4V23.4c.4-6 1.6-12 5.4-18-1-1-2.2-2.4-2.6-3.4v-.6c.8 1 2.6 3.2 3.2 3.2.4 0 1.8-1.4 2.8-1.6h.8c1.2 0 2 .2 3.4 1.4 1-1 2.2-2.2 3-3.2-.197.8-1.197 2.8-2.397 3.8z"/></defs><clipPath id="h"><use xlink:href="#g"/></clipPath><g clip-path="url(#h)" class="B"><ellipse transform="matrix(-.0334 -.9994 .9994 -.0334 164.7027 181.2345)" cx="169.991" cy="10.972" rx="1.199" ry=".378"/><ellipse transform="matrix(-.0322 -.9995 .9995 -.0322 154.2377 171.9876)" cx="160.387" cy="11.319" rx="1.198" ry=".379"/></g><g class="C"><use xlink:href="#S"/><use xlink:href="#T"/><use xlink:href="#U"/><use xlink:href="#V"/><use xlink:href="#W"/><use xlink:href="#X"/><use xlink:href="#Y"/></g><defs><path id="i" d="M207.256 5c5.4 7.8 7.4 17.6 7.4 25.6l-.2 7.2c-.6 5.4-1 11.4-2.2 17.2-.6 3.8-1.8 7.8-2.8 11.602-.6 2.8-1.4 6-1.8 9-.4 1.8-.6 4.198-.6 6.198 0 1-.2 4.802-2.6 4.802-1.2 0-2-3.2-2-3.397 0-.603-.6-1.804-.6-2.603-.2-12.2-6-25.397-7.6-37.397l-.6-6.4V23.4c.4-6 1.6-12 5.4-18-1-1-2.2-2.4-2.6-3.4v-.6c.8 1 2.6 3.2 3.2 3.2.4 0 1.8-1.4 2.8-1.6h.8c1.2 0 2 .2 3.4 1.4 1-1 2.2-2.2 3-3.2-.198.8-1.198 2.8-2.397 3.8z"/></defs><clipPath id="j"><use xlink:href="#i"/></clipPath><g clip-path="url(#j)" class="B"><ellipse transform="matrix(-.0334 -.9994 .9994 -.0334 204.3169 219.5471)" cx="208.325" cy="10.972" rx="1.199" ry=".378"/><ellipse transform="matrix(-.0326 -.9995 .9995 -.0326 193.8864 210.3032)" cx="198.721" cy="11.319" rx="1.198" ry=".378"/></g><g class="C"><use xlink:href="#L" x="75.543"/><use xlink:href="#M" x="75.545"/><use xlink:href="#N" x="75.545"/><use xlink:href="#O" x="75.544"/><use xlink:href="#P" x="75.545"/><use xlink:href="#Q" x="75.543"/><use xlink:href="#R" x="75.543"/></g><defs><path id="k" d="M244.466 5c5.4 7.8 7.4 17.6 7.4 25.6l-.2 7.2c-.6 5.4-1 11.4-2.2 17.2-.6 3.8-1.8 7.8-2.8 11.602-.6 2.8-1.4 6-1.8 9-.4 1.8-.6 4.198-.6 6.198 0 1-.2 4.802-2.6 4.802-1.2 0-2-3.2-2-3.397 0-.603-.6-1.804-.6-2.603-.2-12.2-6-25.397-7.6-37.397l-.6-6.4V23.4c.4-6 1.6-12 5.4-18-1-1-2.2-2.4-2.6-3.4v-.6c.8 1 2.6 3.2 3.2 3.2.4 0 1.8-1.4 2.8-1.6h.8c1.2 0 2 .2 3.4 1.4 1-1 2.2-2.2 3-3.2-.197.8-1.197 2.8-2.397 3.8z"/></defs><clipPath id="l"><use xlink:href="#k"/></clipPath><g clip-path="url(#l)" class="B"><ellipse transform="matrix(-.0334 -.9994 .9994 -.0334 242.7695 256.7363)" cx="245.535" cy="10.972" rx="1.199" ry=".378"/><ellipse transform="matrix(-.0322 -.9995 .9995 -.0322 232.2138 247.4924)" cx="235.931" cy="11.319" rx="1.198" ry=".379"/></g><g class="C"><use xlink:href="#S" x="75.544"/><use xlink:href="#T" x="75.545"/><use xlink:href="#U" x="75.544"/><use xlink:href="#V" x="75.544"/><use xlink:href="#W" x="75.544"/><use xlink:href="#X" x="75.544"/><use xlink:href="#Y" x="75.545"/></g><defs><path id="m" d="M282.8 5c5.4 7.8 7.4 17.6 7.4 25.6l-.2 7.2c-.6 5.4-1 11.4-2.2 17.2-.6 3.8-1.8 7.8-2.8 11.602-.6 2.8-1.4 6-1.8 9-.4 1.798-.6 4.198-.6 6.198 0 1-.2 4.802-2.6 4.802-1.2 0-2-3.2-2-3.397 0-.603-.6-1.804-.6-2.603-.2-12.2-6-25.397-7.6-37.397l-.6-6.4V23.4c.4-6 1.6-12 5.4-18-1-1-2.2-2.4-2.6-3.4v-.6c.8 1 2.6 3.2 3.2 3.2.4 0 1.8-1.4 2.8-1.6h.8c1.2 0 2 .2 3.4 1.4 1-1 2.2-2.2 3-3.2C285 2 284 4 282.8 5z"/></defs><clipPath id="n"><use xlink:href="#m"/></clipPath><g clip-path="url(#n)" class="B"><ellipse transform="matrix(-.0334 -.9994 .9994 -.0334 282.3837 295.0489)" cx="283.869" cy="10.972" rx="1.199" ry=".378"/><ellipse transform="matrix(-.0326 -.9995 .9995 -.0326 271.8932 285.8069)" cx="274.265" cy="11.319" rx="1.198" ry=".378"/></g></svg>