<?xml version="1.0" encoding="utf-8"?>
<!-- Generator: Adobe Illustrator 16.0.0, SVG Export Plug-In . SVG Version: 6.00 Build 0)  -->
<!DOCTYPE svg PUBLIC "-//W3C//DTD SVG 1.1//EN" "http://www.w3.org/Graphics/SVG/1.1/DTD/svg11.dtd">
<svg version="1.1" id="Layer_1" xmlns="http://www.w3.org/2000/svg" xmlns:xlink="http://www.w3.org/1999/xlink" x="0px" y="0px"
	 width="200px" height="200px" viewBox="0 0 200 200" enable-background="new 0 0 200 200" xml:space="preserve">
<g>
	<path fill="#58BD2F" d="M122.391,96.959c-0.473-0.492,1.123-2.58,1.479-2.815c18.139-12.211,37.971-20.324,57.371-29.583
		C170.564,31.534,144.075,4.967,102.48,4.967c-116.888,0.039-113.696,185.482,0,185.482c39.271,0,64.5-21.82,76.315-50.498
		C158.553,128.02,139.25,114.074,122.391,96.959z"/>
	<g opacity="0.5">
		<path fill="#58BD2F" d="M123.869,94.144c18.139-12.211,37.971-20.324,57.371-29.583c-10.439-32.337-36.102-58.412-76.219-59.456
			c20.916,3.347,44.115,11.087,56.051,28.557c17.074,25.032,18.277,25.032,1.811,32.181c-16.463,7.128-40.846,21.448-48.172,27.849
			c-7.326,6.44,0.59,12.86,24.381,27.16c23.791,14.297,31.119,22.137,24.422,32.867c-6.715,10.734-68.93,35.729-100.049,20.741
			C32.35,159.432,9.779,106.551,18.327,75.846c0.768-2.814,1.261-5.533,1.614-8.172c-15.006,53.825,13.235,122.775,82.54,122.775
			c39.271,0,64.5-21.82,76.315-50.498c-20.244-11.932-39.547-25.877-56.405-42.992C121.918,96.467,123.514,94.379,123.869,94.144z"
			/>
	</g>
	<path fill="#58BD2F" d="M72.801,10.561c0,0,13.492,50.85,26.982,80.235C113.293,120.143,72.801,10.561,72.801,10.561z"/>
	<path fill="#58BD2F" d="M22.64,109.959c0,0,58.827-16.939,75.233-11.286C114.258,104.324,89.188,77.207,22.64,109.959z"/>
	<path fill="#58BD2F" d="M105.297,109.643c0,0-10.951,38.483-3.113,58.67C88.084,159.137,95.922,124.316,105.297,109.643z"/>
	<path fill="#58BD2F" d="M156.838,33.819c0,0-48.113,29.583-50.518,61.979C103.898,70.449,129.166,40.87,156.838,33.819z"/>
</g>
<path fill="#5ED329" d="M72.801,10.561c0,0,13.492,50.85,26.982,80.235C113.293,120.143,72.801,10.561,72.801,10.561z"/>
<path fill="#5ED329" d="M22.64,109.959c0,0,58.827-16.939,75.233-11.286C114.258,104.324,89.188,77.207,22.64,109.959z"/>
<path fill="#5ED329" d="M105.297,109.643c0,0-10.951,38.483-3.113,58.67C88.084,159.137,95.922,124.314,105.297,109.643z"/>
<path fill="#5ED329" d="M156.838,33.818c0,0-48.113,29.583-50.518,61.979C103.898,70.449,129.166,40.87,156.838,33.818z"/>
</svg>
