<svg xmlns="http://www.w3.org/2000/svg" xmlns:xlink="http://www.w3.org/1999/xlink" width="272" height="108"><style><![CDATA[.B{fill:#28334c}.C{fill:#ef2b2b}.D{fill:#224}]]></style><path fill="#f9e9dc" d="M256.7 91.516c1 1.398 3.4 2 4 4.2-.2 0-.4.2-.8.2-1 0-4.4-3.6-4.603-4.398-.6-1.8-1.198-5-1.198-5.4v-.6c.8 2 1.4 4 2.6 6zm-238 0c1 1.398 3.4 2 4 4.2-.2 0-.4.2-.8.2-1 0-4.4-3.6-4.6-4.398-.6-1.8-1.2-5-1.2-5.4v-.6c.8 2 1.4 4 2.6 6zm108.8-3c1.4 1.2 3.2 1.6 4.8 2.6v.6c-.2 0-.4.2-1 .2-3.4 0-7.4-5-8-8 1.2 1.6 2.4 3.397 4.2 4.6zm128.2-3c2.6 2.398 7.6 8.8 7.6 11.8 0 1.2-.4 1.4-1 1.4-2.198 0-5.8-3.4-7.6-3.4-.6.602-1 1.4-1.4 2.2-.6 1.2-1.4 8.8-5.8 8.8-1.6 0-2.398-3.6-2.398-4.198 0-6.2 2.398-12.802 4.6-18.802.4.602 1 1.4 1 2 0 0-4 11.802-4 13.802 0 .8-.2 1.198.8 2 .2 0 .602-.4.602-.6.6-2 1.198-4.2 1.398-6.2l.602-3.6c.398-1.6.6-3.2.8-4.8 1 .8 1 .602 1 1.602 0 .398-.4 4.2-.4 4.8 0 1-.2 2 .8 2 1.2 0 1.4-1.6 1.4-1.8 0-.4-.8-5.2-.8-5.8 0-.4.6-.8 1-1.4.2-.6.397-1.398.8-2.198.194.797.396 1.797.994 2.4zm-238 0c2.6 2.398 7.6 8.8 7.6 11.8 0 1.2-.4 1.4-1 1.4-2.2 0-5.8-3.4-7.6-3.4-.6.602-1 1.4-1.4 2.2-.6 1.2-1.4 8.8-5.8 8.8-1.6 0-2.4-3.6-2.4-4.198 0-6.2 2.4-12.802 4.6-18.802.4.602 1 1.4 1 2 0 0-4 11.802-4 13.802 0 .8-.2 1.198.8 2 .2 0 .6-.4.6-.6.6-2 1.2-4.2 1.4-6.2l.6-3.6c.4-1.6.6-3.2.8-4.8 1 .8 1 .602 1 1.602 0 .398-.4 4.2-.4 4.8 0 1-.2 2 .8 2 1.2 0 1.4-1.6 1.4-1.8 0-.4-.8-5.2-.8-5.8 0-.4.8-1 1-1.4.2-.6.4-1.398.8-2.198.2.797.4 1.797 1 2.4zm205.2-.602c1.2 1.2 3 2.602 4.2 4 .198 0 4.398 5.602 4.398 6.8v1.8h-2c-2.2-.8-4.8-2.8-7-2.602-.602 1.2-1.398 2.2-1.398 3.602-.4 2.398-2 7.8-4.802 7.8-1.198 0-2.6-2.8-2.6-3.198v-3.802c-.2-5.398 2-11 3.198-16.198.4.6 1 1.4 1 2 0 .4-.398.8-.398 1.198-.8 3-2.398 8.602-2.398 12.2 0 .6.198 1.8.8 2.6 1.2-.4.8-1.802 1-2.4.2-.8.397-1.8.397-2.8.4-3.398.802-7 1-10.398.2.2.603.398 1 .6v6.8c.2.602.4 1.2 1 1.2.4 0 1-1 1.2-1.6l-1.2-6.2c.2-.4.603-.602 1-.8.4 1.6.603 3.398 1.4 5.2.4 1 3.6 4.4 4.6 4.4h1.4c0-.2.2-.2.2-.6 0-1.602-3.8-2.8-4.398-3.8-1.398-2-3.2-5.8-3.2-6.4 0-.398.2-1.398.4-2 .204.8.604 1.8 1.204 2.6zm-169.6-.2c.8.8 2.2 1.8 3.4 2.8.8.6 5.6 6.8 5.6 8.8 0 .602-.8 1-1.2 1-2.4 0-5.8-3-8-2.6-.4 1-1 2-1.2 3-.4 1-.8 8.6-5 8.6-1 0-2.4-2.8-2.4-3.198v-7.802l2.8-12.198c.4.6 1 1.198 1 1.6 0 0-2.6 11.602-2.6 13.8 0 .398 0 2 1 2.6 1.4-2 .8-5 1.4-7.2l.6-8.6c.2.2.6.398 1 .6v5.602c.4.8 0 2.398 1 2.398.8 0 1.4-1.2 1.4-1.6s-1-4-1.4-6.4c.2 0 .6-.2 1-.398.4 1.8 1 3.8 1.8 5.6.2.4 3.8 3.8 5 3.8.4 0 .6-.2 1-.602-.8-2.198-3.2-2.198-4.8-4.198-1.2-1.6-2-3.4-3-5.2l.2-3c.2.792.6 1.792 1.4 2.792zm136.802-.4c1.6 1.398 3.8 2.8 5.398 4.6 1 .8 4.2 5 4.2 6.602 0 .8-1.2 1-1.4 1-2.4 0-6-2.2-7.8-2.2-.398.802-1 1.602-1 2.802-.398 2.4-1.2 9-4.6 9-2 0-2.8-3.802-2.8-4.6v-8.602l2-10c.398.602 1.198 1.2 1.198 1.8 0 .4-2 12.2-2 12.8 0 .8-.198 3.398 1 3.398s.802-4 1.2-4.8v-11c0 .4.8.4 1 .6.2 2.2.2 8 1.602 8 .8 0 1.198-1.2 1.198-1.6s-1.6-5.6-1.6-6.2c0-.398.4-.398.8-.8.602 1.8 1.2 3.8 2.2 5.6 0 0 3.8 3.4 4.4 3.4h1.398c.2-.2.2-.2.2-.6 0-1.602-3-2.4-3.2-2.602-2.6-2-5-5.8-5.2-8.2l.2-1.2c.406.8.806 1.8 1.608 2.8zM97.5 95.715c-2.4 0-5.2-2.2-7.6-1.8-.4.8-1 1.602-1 2.8-.2 2.6-.6 9.2-4.2 9.2-2.2 0-3-4.398-3-4.8 0-2-.2-4.2-.4-6.398l1.6-12c.2.398 1.2 1 1.2 1.6l-1.4 12.4c.2 1.6-.4 3 1.4 4.2.2 0 .4-.398.4-.6v-15.6c.4.4 1 .4 1 1 0 .4.4 4.6.8 6.8 0 .4.4.8 1 .8s1-.8 1.2-1.4l-2-6.2c.2-.198.6-.4.8-.8.8 1.8 1.2 3.8 2.8 5.8 1 1.4 3.6 2.802 4.2 2.802h1.6c0-.2.2 0 .2-.603 0-.397-.8-1.2-1.2-1.397-1-.603-2.2-.802-3-1.603-2-1.6-3.8-4.2-4.8-6-.6-1-.4-2.2-.4-3.2 0 0 0-.198-.2-.4.6 2.6 4.6 5.2 7.2 7 1.4 1.4 5.2 5.6 5.2 7.2 0 .997-.8 1.196-1.4 1.196zm68.4-.4c-.4 0-6-1.8-6.603-1.8-2 0-1.6 3.6-1.8 4.6 0 1.4-.2 3-.602 4.6-.2 1-2.2 3.2-3.2 3.2-3.2 0-3.6-8.398-3.6-9v-4.8l1.198-9.398c.4.6 1.2 1.2 1.2 1.6l-1 11.802c-.2 1.8-.2 3.4 1.4 4.8.198 0 .397-.398.6-.602v-6.398l-.6-9.2c.397.2.8.4 1 .8.198.8.397 1.8.397 2.8.2 1.2.2 5 1.603 5 .8 0 1.198-1.2 1.198-1.602s-2-5.398-2-6c0-.398.6-.6.802-1 .6 1.8 1.198 4 2.8 5.8 1 1.2 3.6 2.6 4.2 2.6h1.6c0-.2.2-.2.2-.6 0-1.4-3.6-2.4-3.8-2.602-2.8-1.602-4-4-5.4-6.2-.6-1.2-.398-2.398-.8-3.6 1 1.198 1.8 2.6 3 3.8 1.4 1 3 1.8 4.6 3.2 1 1 5.4 5.4 5.4 7.198.007.8-1.59 1-1.793 1zm-40.8-12c1.2 1 3 1.8 4.4 2.6 1 .8 6.2 5.2 6.2 7 0 1-1.6 1-2 1-.6 0-5.8-1.2-6.4-1.2-1.4 0-1.4 2.2-1.4 2.8v6c-.2 1-1.8 4-3.4 4-1.4 0-2.8-2.2-3-3-.6-2.602-1-5.4-1.4-8l.4-12.2c.4.602 1.2 1.2 1.2 1.802v12.6c.4 1.2.2 2.4 1.4 3.8h.8v-3.8l-1.8-12.2c.6 0 1 .2 1.2.6.6.8 1 7.6 2.4 7.6.8 0 1.2-1.6 1.4-1.6l-2.6-5.6c.2-.2.4-.4.4-.8 0-.6-1.2-3.8-1.8-5.8 1.2 1.397 2.2 2.997 4 4.397z"/><path fill="#f3d2af" d="M252.917 86.636l.6 5.8c0 1-.398 1.602-1.2 1.602-.602 0-.8-.8-.8-1.2 0-.602.4-4.2.602-6.2l.797-.004zm-238 0l.6 5.8c0 1-.4 1.602-1.2 1.602-.6 0-.8-.8-.8-1.2 0-.602.4-4.2.6-6.2l.8-.004zm205.4-.402c.2 2 1.2 5.8 1.2 6.2 0 .6-1 1.398-1.2 1.398-.602 0-.602-.2-.8-.602v-7h.8v.003zm-169.8-.2l1.4 6.2c0 .8-.4 1.4-1.2 1.4-.6 0-.8-.8-.8-1v-6.6l.6.003zm137-.2l1.8 6.2c-.4.6-.602 1.4-1.2 1.4-1.2 0-1.2-4.802-1.2-5.2v-2.398h.598zm60.4 15h-.6c-.4-.602-.4-1.4-.4-1.8 0-4 2.4-9.8 3.6-13.6a.62.62 0 0 0 .399.198c-1 4.6-1.6 10.402-3 15.203zm-93.2-15.4c.8 2 2.4 5.602 2.4 6 0 1-1 1.602-1.2 1.602-1.4 0-1.6-5.8-1.8-7.602h.6zm-67.4 7.798c-1.4 0-1.6-7-1.6-7.8 1.2 0 1 2 1.6 3 .4 1 1.2 2.8 1.2 3.198 0 1.003-1 1.6-1.2 1.6zm-77.4 7.602h-.6c-.4-.602-.4-1.4-.4-1.8 0-4 2.4-10 3.6-13.4 0 0 .2-.2.4 0-1 4.598-1.6 10.4-3 15.2zm246.6-9.8c1 1.4 2.8 2.6 4.2 4v.6c-.2.2-.2.2-.8.2-1.2 0-3.6-2.4-4.2-3.4-1-2-1.6-5.6-1.6-6v-1.2c.6 1.798 1.2 3.798 2.4 5.798zm-38.4-4c-.602 4.4-.8 9.2-1.8 13.8h-.602c-.398-.602-.6-1.602-.6-2 0-3.8 2.398-11.2 3-13.602l.003 1.8zm-199.6 4c1 1.4 2.8 2.6 4.2 4v.6c-.2.2-.2.2-.8.2-1.2 0-3.6-2.4-4.2-3.4-1-2-1.6-5.6-1.6-6v-1.2c.6 1.798 1.2 3.798 2.4 5.798zm210.2 3.8h-1.6c-5-2.4-4.8-6.4-5.8-9.602l2.8 5c1.398 1.4 3 2.4 4.6 3.8v.8zm-104.8-2.4c-1.4 0-2.4-6.6-2.4-7.2h.6c1 2 2.8 5.4 2.8 5.8 0 .598-.4 1.398-1 1.398zm-64.6 2.2h-1.4c-4.6-2-5.4-6.4-6.2-9.4 1 1.4 2 3.2 3 5 1.4 1.2 3 2.2 4.6 3.602v.797zm-12.2 6.2h-.6c-.8-.602-.6-2.2-.6-2.602 0-2.8 2.2-12.398 2.6-13.2-.6 8.2-.6 10.4-1.4 15.8zm148.6-6.8c-1.2 0-4.398-2.8-5-3.6-1-1.802-1.398-3.602-2-5.4.8 1 1.8 2.6 2.8 4.2 1.602 2.4 4 2 5.2 4.2-.2.4-.4.6-1 .6zm-10.4-9.2c.2 2 0 4.2-.2 10-.2 3 0 4.398-.2 5.8 0 0 0 .2-.4.2-.8 0-1-1.602-1-1.602v-4l1.4-10.6.4.203zm-32 7.6v8s0 .2-.4.2c-1 0-1.2-2-1.2-2.2v-5c.4-3 .602-6.2 1-9l.6 8zm-69 8c0 .2.2.2-.4.2-1 0-1-2.4-1-2.4V94.84l1.4-10.398v15.995zm7.4-10.6c1 1 3.4 1.398 4.2 2.8v.6h-1.8c-1.2-.8-3-1.398-4-2.8-1.4-1.6-2.6-5.2-2.6-5.6v-.602c.8 1.602 2.2 4 4.2 5.602zm68.4-.4c1 1 2.6 1.4 4 2.2.2 0 .398.6.398 1-.2.2-.398.4-1 .4-1 0-4.8-2.6-5-3-.8-1.2-1.6-2.6-2-3.8 0-.398-.6-1.2-.6-1.6v-.6c1.203 1.804 2.402 4.003 4.203 5.404zm-38.2 10.6c-.2.2-.2.2-.6.2-1.6 0-1.6-6.398-1.6-6.6v-9.8l2.2 16.202zm6-11.4c1.4 1 3.2.8 4.6 2.6-.6.4-1.2.602-1.2.602-3.8 0-7.6-5.398-8.2-8.398 1.2 1.395 3 4.195 4.8 5.195z"/><path fill="#fff" d="M254.8 5.2c5.2 7.6 7.4 17.8 7.4 26l-.2 7c-.6 6.6-1.2 13.2-2.8 19.8-1.2 5-2.6 10.2-3.6 15.602C255 77 254.8 81 254.2 84.8c-.2 1.4-1.2 2-2.2 2-1.2 0-2-3.198-2-3.4 0-.6-.6-1.8-.6-2.6 0-12.8-6.8-26.6-7.8-39.2 0-1.4-.4-4.2-.4-4.6V23.6c.4-6 1.6-12 5.4-18-1-1-2.2-2.4-2.602-3.4v-.6c.8 1 2.602 3.2 3.2 3.2.4 0 1.8-1.4 2.8-1.6h.8c1.2 0 1.603.6 3.4 1.4 1-1 2.198-2.2 3-3.2C257 2.2 256 4.2 254.8 5.2zm-41.6-.4c1.8-1 2.6-1.6 3.6-1.6 1.4 0 2.4 1.2 3.2 1.2.4 0 2.2-2 2.8-3 0 2-2 3.2-2 3.8s2.2 3.4 3 5.4c3 6.4 4.4 14 4.4 20.6 0 .4.2 1.8-.2 6.6-.6 5.8-.8 12.2-2.398 18.4C223.8 63.6 221.8 71 221.4 78.4c-.4 3.2.2 4.397.2 5 0 1-.4 2.8-1.803 2.8-3.398 0-3.8-7.6-4-8.4-1-4.198-1.6-8.8-2.8-13-2-7.8-5.8-20.4-5.8-28.6V24.4c.2-1.2.2-2.6.398-3.8.4-3.4 1.2-7.2 2.602-10.6.6-1.4 2.398-4 2.398-4.4 0-.6-2.398-3.2-2.398-3.6v-.6C211 2.4 212 3.6 213.2 4.8zm-196.4.4c5.4 8.2 7.4 17.4 7.4 25.6L24 38c-.2 3-.8 6.2-1 9.4-.2 2.4-.6 5.2-1.2 7.8-.8 3.6-1.8 7.2-2.6 10.8-.8 3-1.6 6.602-2 10-.2 1.602-.6 3.8-.6 5.8 0 1.2-.2 5-2.6 5-1.2 0-2-3.198-2-3.4 0-.6-.6-1.8-.6-2.6 0-13-6.8-26-7.8-39 0-1.6-.4-4.4-.4-4.8V23.6c.4-6 1.6-12 5.4-18-1-1-2.2-2.4-2.6-3.4v-.6c.8 1 2.6 3.2 3.2 3.2.4 0 1.8-1.4 2.8-1.6h.8c1.2 0 2 .2 3.4 1.4 1-1 2.2-2.2 3-3.2-.2.8-1.2 2.8-2.4 3.8zm34 0c0 .4 2.2 3.4 2.8 5 .8 1.6 4.4 12.6 4.4 16.2V37c-.4 5.8-1 11.4-2 17-1.2 7-4.4 17.4-4.4 25 0 .602.4 3.8.4 4.4 0 .397-.4 2.8-1.2 2.8-3.8 0-4.4-6.8-4.8-8.4-.4-2.4-1-5.198-1.6-7.6-1.4-5.8-3.4-11.6-4.8-17.4-1.2-5-2.4-12.4-2.4-17.6v-9.6c.2-1.4.2-3 .4-4.6.4-3.4 1.2-7.8 2.6-11 .6-1.4 2.4-4 2.4-4.4 0-.2-2.4-2.6-2.2-4.2.6 1 1.6 2.2 2.8 3.4 1.8-1 2.6-1.6 3.6-1.6 1.4 0 2.4 1.2 3.2 1.2.4 0 2-2 2.8-3.2 0 2-2 3.2-2 4zm132.2-2c1 0 2 .2 3 1.4 1-1.2 2-2.4 2.602-3.6 0 1.4-1 2.8-2 4.2.8 1 1.6 2 2 3C193 17.6 194 23 194 32c0 10-1.398 20.6-4 31-.6 2.2-1 5-1.398 7.602-.402 2.198-.602 7-.602 7.398 0 .602.8 5.602.8 6.2 0 .2-.198 1.8-1 1.8-3.6 0-4.8-6-5.198-7.398-.4-1.802-1-4-1.4-5.602-1.2-5.2-2.802-10.8-4.4-16-.6-2.2-1.398-4.6-1.8-6.8-.8-3.8-1.602-11.2-1.602-11.6V22.8c.2-1 .4-2.2.4-3.2.4-3.2 1.2-6.6 2.4-9.6.4-1.4 2.4-4 2.4-4.4 0-.6-1.2-1.4-1.602-2.2-.397-.6-.397-1.4-.6-2.4.6 1 1.6 2.4 2.8 3.8 1.6-1 2.403-1.6 3.8-1.6zm-34 0c1 0 1.8.6 3 1.2.8-1 1.602-2.2 2.2-3.2 0 0 .2-.2.2.4 0 .4-1 2.4-1.8 3.6.8 1 1.6 2 2.198 3.4 1.4 2.6 2.2 5.8 3.2 8.8 1.2 4.4 2 10 2 14.4l-.2 8c-.8 5-.8 11.2-2.198 16.4-1.602 6.4-3 13.4-3 20.2 0 4.2 1 4.2 1 7.6 0 .602.398.4.398.8 0 .6-.2.4-.2.802H154.6c-1.4-.202-2.4-1.4-3.2-2.602s-1.4-2.6-1.8-3.8c-3.602-12.6-9.2-26.2-10-38.6 0-1-.2-2.6-.2-3v-14c.2-1.2.2-2.4.397-3.6.2-.8.4-1.8.4-2.8.6-2.2 1-4.6 1.8-6.6.602-1.8 2.602-4.6 2.602-5 0-.6-1.602-3-2-4.4.8 1 1.8 2.4 2.8 3.6.6-1 2.6-1.6 3.6-1.6zM77.4 4.8c.6-1 2.6-1.6 3.6-1.6 1.2 0 2.4 1.2 2.8 1.2.6 0 2-2.2 2.6-3.4 0 1.4-1 2.8-1.8 4.2.8 1 1.6 2 2.2 3.4 4.2 8.8 5.2 15 5.2 23.2l-.2 8c-.4 5-1 10.2-2 15.4l-2 8.8c-.8 3.8-1.4 8.602-1.4 12.8 0 2.6-.2 2.6.6 5.4 0 .4.4.6.4 1.2v2.2c-2.6 1-5-3.2-5.6-5-3.4-11.2-7.2-22.4-9.4-33.6-.6-2.8-1-8.2-1-8.6V22.8c.2-1 .4-2.2.4-3.2.2-1.4.4-3.2.8-4.4.4-2 1-4 1.8-5.6.4-1.2 2.2-3.6 2.2-4 0-.6-2-3.4-2-3.8v-1c0 1 1.6 2.6 2.8 4zm34 0c.6-1 2.6-1.6 3.6-1.6.8 0 1.2 0 2.8 1.2 1-1.2 1.8-2.4 2.2-3.6 0 0 .2-.2.2.4 0 1.2-1.6 3-1.6 3.8 0 .6.6.8.6 1 1 1.4 1.8 2.8 2.4 4.4C125 18 126 24.4 126 32l-.2 7c-.4 5.4-.8 10.8-2 16.2-1.4 6.6-2.8 13.4-2.8 19.8 0 4.602.2 4 2.2 10-.2.2-.2.4-.6.4-5.2 0-9-13.4-9.4-14.4-2-6.398-4.4-12.8-5.8-19.2-1-4.4-2-10.4-2-15V24.4c.2-1.2.2-2.6.4-4 .2-1 .4-2.2.4-3.2.6-2.4 1.2-5.2 2.2-7.6.4-1.4 2.4-3.6 2.4-4 0-.6-1.8-3-1.8-3.4V.6c.6 1.4 1.4 2.8 2.4 4.2z"/><g class="B"><ellipse transform="matrix(.0336 .9994 -.9994 .0336 28.2354 -7.2563)" cx="17.87" cy="10.972" rx="1.199" ry=".378"/><ellipse transform="matrix(.0324 .9995 -.9995 .0324 19.3107 2.6904)" cx="8.266" cy="11.319" rx="1.198" ry=".378"/></g><g class="C"><use xlink:href="#B"/><ellipse transform="matrix(-.6607 .7507 -.7507 -.6607 66.545 88.5016)" cx="13.27" cy="59.291" rx="3.632" ry="5.499"/><use xlink:href="#C"/></g><g class="D"><ellipse transform="matrix(-.9505 .3106 -.3106 -.9505 48.993 65.754)" cx="19.26" cy="36.778" rx="2.166" ry="2.708"/><use xlink:href="#D"/><use xlink:href="#E"/><use xlink:href="#F"/><use xlink:href="#G"/><use xlink:href="#H"/></g><g class="B"><ellipse transform="matrix(.0336 .9994 -.9994 .0336 60.8534 -40.9873)" cx="51.621" cy="10.973" rx="1.199" ry=".378"/><ellipse transform="matrix(.0322 .9995 -.9995 .0322 51.9757 -31.0387)" cx="42.015" cy="11.319" rx="1.198" ry=".378"/></g><g class="C"><use xlink:href="#B" x="33.75"/><ellipse transform="matrix(-.6607 .7507 -.7507 -.6607 122.5911 63.1651)" cx="47.019" cy="59.29" rx="3.632" ry="5.5"/><use xlink:href="#C" x="33.75"/></g><g class="D"><ellipse transform="matrix(-.9505 .3106 -.3106 -.9505 114.8246 55.2715)" cx="53.011" cy="36.779" rx="2.166" ry="2.708"/><use xlink:href="#D" x="33.75"/><use xlink:href="#E" x="33.75"/><use xlink:href="#F" x="33.75"/><use xlink:href="#G" x="33.75"/><use xlink:href="#H" x="33.75"/></g><g class="B"><ellipse transform="matrix(.0336 .9994 -.9994 .0336 93.9545 -75.2179)" cx="85.872" cy="10.974" rx="1.199" ry=".378"/><ellipse transform="matrix(.0324 .9995 -.9995 .0324 85.1069 -65.2713)" cx="76.264" cy="11.32" rx="1.198" ry=".378"/></g><g class="C"><use xlink:href="#B" x="68"/><ellipse transform="matrix(-.6607 .7507 -.7507 -.6607 179.4676 37.4532)" cx="81.269" cy="59.289" rx="3.632" ry="5.5"/><use xlink:href="#C" x="68"/></g><g class="D"><ellipse transform="matrix(-.9506 .3105 -.3105 -.9506 181.6316 44.6442)" cx="87.262" cy="36.781" rx="2.166" ry="2.708"/><use xlink:href="#D" x="68"/><use xlink:href="#E" x="68"/><use xlink:href="#F" x="68"/><use xlink:href="#G" x="68"/><use xlink:href="#H" x="68"/></g><g class="B"><ellipse transform="matrix(.0336 .9994 -.9994 .0336 126.5729 -108.9494)" cx="119.623" cy="10.975" rx="1.199" ry=".378"/><ellipse transform="matrix(.0322 .9995 -.9995 .0322 117.7855 -99.0008)" cx="110.014" cy="11.32" rx="1.198" ry=".378"/></g><g class="C"><use xlink:href="#B" x="101.75"/><ellipse transform="matrix(-.6607 .7507 -.7507 -.6607 235.513 12.1151)" cx="115.018" cy="59.287" rx="3.632" ry="5.5"/><use xlink:href="#C" x="101.75"/></g><g class="D"><ellipse transform="matrix(-.9505 .3107 -.3107 -.9505 247.4644 34.1476)" cx="121.013" cy="36.782" rx="2.166" ry="2.708"/><use xlink:href="#D" x="101.75"/><use xlink:href="#E" x="101.75"/><use xlink:href="#F" x="101.75"/><use xlink:href="#G" x="101.75"/><use xlink:href="#H" x="101.75"/></g><g class="B"><ellipse transform="matrix(.0338 .9994 -.9994 .0338 159.7146 -143.2557)" cx="153.949" cy="10.976" rx="1.199" ry=".378"/><ellipse transform="matrix(.0322 .9995 -.9995 .0322 151.0056 -133.306)" cx="144.337" cy="11.321" rx="1.198" ry=".379"/></g><g class="C"><use xlink:href="#I"/><ellipse transform="matrix(-.6606 .7507 -.7507 -.6606 292.507 -13.6588)" cx="149.341" cy="59.286" rx="3.632" ry="5.499"/><use xlink:href="#J"/></g><g class="D"><ellipse transform="matrix(-.9506 .3105 -.3105 -.9506 314.4246 23.4853)" cx="155.343" cy="36.772" rx="2.167" ry="2.708"/><use xlink:href="#K"/><use xlink:href="#E" x="136.073"/><use xlink:href="#L"/><use xlink:href="#M"/><use xlink:href="#N"/></g><g class="B"><ellipse transform="matrix(.0334 .9994 -.9994 .0334 192.4026 -176.985)" cx="187.7" cy="10.977" rx="1.199" ry=".378"/><ellipse transform="matrix(.0322 .9995 -.9995 .0322 183.6685 -167.0371)" cx="178.086" cy="11.322" rx="1.198" ry=".378"/></g><g class="C"><use xlink:href="#I" x="33.75"/><ellipse transform="matrix(-.6606 .7507 -.7507 -.6606 348.5527 -38.9968)" cx="183.091" cy="59.285" rx="3.632" ry="5.5"/><use xlink:href="#J" x="33.75"/></g><g class="D"><ellipse transform="matrix(-.9506 .3105 -.3105 -.9506 380.2593 13.001)" cx="189.095" cy="36.771" rx="2.167" ry="2.708"/><use xlink:href="#K" x="33.75"/><use xlink:href="#E" x="169.823"/><use xlink:href="#L" x="33.75"/><use xlink:href="#M" x="33.75"/><use xlink:href="#N" x="33.75"/></g><g class="B"><ellipse transform="matrix(.0338 .9994 -.9994 .0338 225.4221 -211.2181)" cx="221.952" cy="10.978" rx="1.199" ry=".378"/><ellipse transform="matrix(.0326 .9995 -.9995 .0326 216.7293 -201.2702)" cx="212.336" cy="11.322" rx="1.198" ry=".378"/></g><g class="C"><use xlink:href="#I" x="68"/><ellipse transform="matrix(-.6608 .7506 -.7506 -.6608 405.451 -64.675)" cx="217.34" cy="59.284" rx="3.632" ry="5.5"/><use xlink:href="#J" x="68"/></g><g class="D"><ellipse transform="matrix(-.9506 .3104 -.3104 -.9506 447.0724 2.394)" cx="223.346" cy="36.77" rx="2.168" ry="2.708"/><use xlink:href="#K" x="68"/><use xlink:href="#E" x="204.073"/><use xlink:href="#L" x="68"/><use xlink:href="#M" x="68"/><use xlink:href="#N" x="68"/></g><g class="B"><ellipse transform="matrix(.0338 .9994 -.9994 .0338 258.0334 -244.9488)" cx="255.703" cy="10.979" rx="1.199" ry=".379"/><ellipse transform="matrix(.0322 .9995 -.9995 .0322 249.4779 -234.9997)" cx="246.085" cy="11.323" rx="1.198" ry=".379"/></g><g class="C"><use xlink:href="#I" x="101.75"/><ellipse transform="matrix(-.6606 .7507 -.7507 -.6606 461.4711 -90.0468)" cx="251.089" cy="59.283" rx="3.632" ry="5.5"/><use xlink:href="#J" x="101.75"/></g><g class="D"><ellipse transform="matrix(-.9506 .3105 -.3105 -.9506 512.9045 -8.1035)" cx="257.097" cy="36.768" rx="2.167" ry="2.708"/><use xlink:href="#K" x="101.75"/><use xlink:href="#E" x="237.823"/><use xlink:href="#L" x="101.75"/><use xlink:href="#M" x="101.75"/><use xlink:href="#N" x="101.75"/></g><defs ><path id="B" d="M11.532 18s-4.338.25-5.48 3.625 1.856 5.625 4.856 7.75 7.938 2.25 9.156-.875-.37-4.875-1.826-5.25-2.58-4.875-6.705-5.25z"/><path id="C" d="M7.28 33.188s-1.923-.53-2.877 1.695-1.802 3.922-.636 4.452 2.875-.104 3.134.53.714 1.378.38 2.544-2.08.742.118 3.392 3.53 2.438 5.674 0 1.95-3.922 3-2.438-.414 1.6 0 3.074 6.57 1.06 6.036-3.182-2.124-6.358-5.198-7.736-7.526-2.9-9.632-2.33z"/><path id="D" d="M18.157 22.78s-.75.188-.78.656.28 1.25.39 1.655.39 1.625 1.078 1.688 1.53-.22 1.78-.562 1.094-1.5.906-2.062-.53-.938-1-.906-1.75-.5-2.375-.47z"/><path id="E" d="M7.22 21.47s-.625.344-.688.938.188 2.22.188 2.22.375 1.406.28 1.72-.688 1.438-.688 1.438-.406.688 0 .875 1.5-.22 2.094-.875 1.156-1.312 1.156-2.375 2.157-5.564-2.343-3.94z"/><path id="F" d="M12.25 69.25s-.656.28-.72.97.72 2.28.72 2.28.975 1.5 1.003 1.844 1.09 1.25 1.59.406.312-2.97.312-2.97-.274-1 .035-1.72-.222-.812-.69-1-1.586-.528-2.25.188z"/><path id="G" d="M8.074 49.958c-.448 1.464.184 2.584.404 3.917s.085 1.896.554 2.417 1.125.667 1.792.75a2.44 2.44 0 0 0 2.25-.875c.712-.836.86-1.666.597-2s-.674.114-1.43-.042-1.074-.667-1.308-1.042-.27-1.1-.61-1.833-1.803-2.756-2.25-1.292z"/><path id="H" d="M11.45 31.814s-1.356.27-1.76.895-.28 2.833-.28 2.833.595 1.083.506 1.792-.077 2.5 0 2.625.202 1.084.952 1.417 2.875-.75 3.083-1.167.083-1.957.542-2.54 1.057-1.975.917-3-1.584-3.788-3.96-2.854z"/><path id="I" d="M147.605 18s-4.338.25-5.48 3.625 1.855 5.625 4.855 7.75 7.938 2.25 9.156-.875-.37-4.875-1.826-5.25-2.58-4.875-6.705-5.25z"/><path id="J" d="M143.354 33.188s-1.922-.53-2.877 1.695-1.803 3.922-.637 4.452 2.875-.104 3.135.53.715 1.378.38 2.544-2.082.742.117 3.392 3.53 2.438 5.674 0 1.95-3.922 3.002-2.438-.414 1.6 0 3.074 6.568 1.06 6.035-3.182-2.123-6.358-5.197-7.736-7.528-2.9-9.633-2.33z"/><path id="K" d="M154.23 22.78s-.75.188-.78.656.28 1.25.392 1.655.39 1.625 1.078 1.688 1.53-.22 1.78-.562 1.095-1.5.905-2.062-.53-.938-1-.906-1.75-.5-2.375-.47z"/><path id="L" d="M148.325 69.25s-.655.28-.72.97.72 2.28.72 2.28.976 1.5 1.003 1.844 1.092 1.25 1.592.406.312-2.97.312-2.97-.274-1 .035-1.72-.223-.812-.69-1-1.588-.528-2.25.188z"/><path id="M" d="M144.148 49.958c-.448 1.464.184 2.584.403 3.917s.085 1.896.554 2.417 1.125.667 1.793.75a2.44 2.44 0 0 0 2.25-.875c.71-.836.858-1.666.598-2s-.676.114-1.432-.042-1.073-.667-1.308-1.042-.27-1.1-.608-1.833-1.802-2.756-2.25-1.292z"/><path id="N" d="M147.523 31.814s-1.355.27-1.762.895-.28 2.833-.28 2.833.596 1.083.506 1.792-.076 2.5 0 2.625.2 1.084.95 1.417 2.875-.75 3.084-1.167.082-1.957.54-2.54 1.06-1.975.918-3-1.584-3.788-3.96-2.854z"/></defs></svg>