<svg xmlns="http://www.w3.org/2000/svg" xmlns:xlink="http://www.w3.org/1999/xlink" width="304" height="108"><style><![CDATA[.B{fill:#28334c}.C{fill:#f2491c}.D{fill:#232c56}]]></style><path fill="#f9e9dc" d="M284.846 91.602c1 1.398 3.4 2 4 4.198-.2 0-.4.2-.8.2-1 0-4.4-3.6-4.602-4.398-.602-1.802-1.198-5-1.198-5.398v-.602c.8 2 1.4 4 2.6 6zm-266 0c1 1.398 3.4 2 4 4.198-.2 0-.4.2-.8.2-1 0-4.4-3.6-4.6-4.398-.6-1.802-1.2-5-1.2-5.398v-.602c.8 2 1.4 4 2.6 6zm42.4-.802c.8.802 3 1.4 3.6 2.6v.6h-1.4c-4.4-1.6-5.8-6-6.4-9 1 1.8 1.8 4 4.2 5.8zm222.6-5.198c2.8 2.602 7.6 9.198 7.6 11.8 0 1.2-.397 1.4-1 1.4-2.197 0-5.8-3.4-7.6-3.4-.6.603-1 1.4-1.4 2.2-.6 1.198-1.397 8.8-5.8 8.8-1.6 0-2.396-3.6-2.396-4.197 0-6.2 2.396-12.803 4.602-18.803.398.603 1 1.4 1 2 0 0-4 11.803-4 13.803 0 .8-.2 1.197.8 2 .2 0 .6-.4.6-.602.6-2 1.2-4.2 1.4-6.2l.6-3.6c.4-1.6.6-3.198.8-4.8 1 .2 1 1 1 1.602 0 .398-.4 4.198-.4 4.8 0 1-.197 2 .803 2 1.197 0 1.398-1.6 1.398-1.8 0-.398-.8-5.2-.8-5.802 0-.4.8-1 1-1.4.2-.6.398-1.397.8-2.197.19.796.39 1.796.992 2.398zm-266 0c2.6 2.398 7.6 8.8 7.6 11.8 0 1.2-.4 1.4-1 1.4-2.2 0-5.8-3.4-7.6-3.4-.6.603-1 1.4-1.4 2.2-.6 1.198-1.4 8.8-5.8 8.8-1.6 0-2.4-3.6-2.4-4.197 0-6.2 2.4-12.803 4.6-18.803.4.603 1 1.4 1 2 0 0-4 11.803-4 13.803 0 .8-.2 1.197.8 2 .2 0 .6-.4.6-.602.6-2 1.2-4.2 1.4-6.2l.6-3.6c.4-1.6.6-3.198.8-4.8 1 .2 1 1 1 1.602 0 .398-.4 4.198-.4 4.8 0 1-.2 2 .8 2 1.2 0 1.4-1.6 1.4-1.8 0-.398-.8-5.2-.8-5.802 0-.4.8-1 1-1.4.2-.6.4-1.397.8-2.197.2.796.4 1.796 1 2.398zM143.645 87c1.2.602 3.8.4 4.8 1.8-.2.4-.8.802-1.2.802-3.4 0-7.2-3.398-9-7 1.8 1.798 3.4 3.598 5.4 4.398zm104.2-2.2c1 1 2.4 1.6 3.6 2.802 1.803 1.8 5.4 6.398 5.4 8.398 0 1.2-1.2 1-1.4 1-2.397 0-5.197-2.398-7.6-2.398-.6 1-1 2-1.2 3-.396 1-.8 8.602-4.8 8.602-1.2 0-2.6-2.803-2.6-3.2v-8.8l2.4-10.803c.397.4 1.197 1 1.197 1.603 0 .2-2.398 10.8-2.398 13.2 0 .8-.198 2.197.802 2.8h.6c.8-3.2.8-7.397 1.2-10.397 0-4 .2-4.4.2-5 1.198-.2 1.198 1.8 1.198 2.8v4.2c.2.6.398 1 .802 1.397.198-.2 1.198-1.2 1.4-1.8l-1.4-6c0-.4.4-.803.8-1.2 0 .2.2.603.2 1 .6 1.397 1 3.397 1.8 5 .2.397 3.8 3.8 5 3.8.398 0 .6-.197 1-.396v-.8c-1.2-1-2.8-1.803-4-2.803-.4-.396-3.8-5.396-3.8-6.6 0-.4.198-1.2.4-1.803.4.8.6 1.6 1.202 2.4zm-189.4-.4c.8.8 2 1.6 3 2.2 1.6 1 6.4 7 6.4 8.8 0 1.2-.8 1.2-1.2 1.2s-6.6-2.4-7.2-2.4c-1.6 0-2 4-2 4.4 0 1.397-.4 3-.8 4.397 0 .603-2.2 3.2-3.4 3.2-2.8 0-3-5.4-3-6.602v-5.398l2-10.803c.4.2 1.4.803 1.4 1.4 0 .4-.2.4-.4.6-.4 2.2-1.6 8.803-1.6 12 0 .803-.2 3 .8 3.603h.6c.4-1 .4-2.2.6-3.397l.2-12.2c2.2-2 .2 8.396 2.4 8.396.8 0 1.2-1.6 1.4-1.6l-1.8-6.4c.2-.396.8-1 1-1 .2-.197 0-.197 0-.6 0-.602.2-1.2.4-1.803.4.607.6 1.407 1.2 2.007zm153.6-.4c1 .8 2.6 1.4 3.8 2.4s6.2 6 6.2 7.8c0 1.2-1.602 1-1.8 1-.4 0-4.802-1.2-7.2-1.6-1 1.197-1 3-1.2 4.6 0 .2-.2 7.6-3.8 7.6-3.2 0-3.602-8.198-3.602-9V92l1.2-9c.6.602 1.197 1.2 1.197 1.602l-1 11.602c0 1.398-.6 3.398 1.4 4.6.197 0 .396-.396.6-.6v-7l-.6-7.602c0-.398 0-.602.197-.802.2 0 .603.2.803.4.197 1 .396 2 .396 3 0 .4 0 5 1.604 5 1 0 1.197-1.6 1.197-1.6 0-.4-2.197-6-2.197-6.4 0-.6.396-.4.8-.8.2.396.397 1 .603 1.6.6 1 1.197 2.602 2 4 .397.602 4.197 3.2 5.197 3.2.602 0 .803-.2 1.2-.6-1.2-2.2-3.603-1.803-5-3.603-2.397-2.8-4-4.397-4-7 0-.603 0-.2.2-.397.605.8 1.004 1.6 1.804 2.4zm-112.4-.6c1.2.8 2.8 1.8 4.4 2.6 1.4.8 6 5.2 6 7 0 .8-1.6 1-2 1s-5.8-1.2-6.2-1.2c-1.4 0-1.6 1.6-1.6 2.802v5.602c-.4 1.197-1.8 4.197-3.4 4.197-1.4 0-2.6-1.6-3-2.8-.8-2.602-1-5.398-1.4-8.2l.4-11.8c.4.398 1.2 1 1.2 1.602v12.398c.4 1.198 0 2.398 1.4 3.8h.8v-3l-1.6-13.197c.4.197.8.398 1 .6.4 1.2.6 2.604.8 3.803.2.197.2 4 1.8 4 .8 0 1.2-1.2 1.2-1.603 0-.397-2-4.2-2.8-6.397.2 0 .6-.2.8-.603.2.2.2.603.4 1 .6 1.2 1.4 2.603 2.2 3.8.4.4 4.2 3.2 5 3.2h1.6c0-.2.2-.2.2-.8 0-1.4-4-2-4.6-2.602-2-1.602-3.8-3.398-4.8-5.2-.4-.6-.4-1.8-.4-2.197 0-.602 0-.2.2-.4.6.798 1.2 1.798 2.4 2.596zm85.2 9.8c-.4 0-4.6-.8-6.8-.8-.8 1.396-.8 4-.602 5.6.2 1.2.2 2.602-.198 4-.2 1-1.802 3.2-3 3.2-1 0-2.4-1.4-2.802-2.4-1-2.8-2-8.4-2-8.8V82.2c.2.4.802 1 1.398 1.4l.2 11.197c.2 1 0 5.4 1.8 5.4.602 0 .803-.4.803-.803l-2.4-15.197c1.4.398 1.198-.2 1.198.6 0 .4 1.802 7.604 2.602 7.604 1 0 1.2-1.2 1.2-1.4 0-.6-2.802-5.8-2.802-6.2 0-.6.398-.6.802-1 1 2.2 3.4 6.802 6.8 7.2.2.2.2.4.8.4h1.8c0-.2.2-.2.2-.8 0-1.2-3.8-2-3.8-2-1.8-.603-4.8-3.603-6-5.603-.4-.8-.4-1.603-.602-2.397.802.6 1.802 1.6 2.802 2.397 1.6 1 3.4 1.603 5 2.8 1.4 1 5.8 4.4 5.8 6.4 0 1.204-2 1.004-2.2 1.004zm-34.4-2l-7.2-.2c-.6.4-.6 1.8-.6 2 0 .4.8 6.2.8 6.8 0 1-1.2 4.4-2.8 4.4-1.2 0-2.2-.8-3.2-2.2-.8-1.2-1-2.6-1.4-3.6-1.2-3.4-2.2-7.8-2.2-11 0-1.604-.6-4.604-.6-5v-.8c.4.4 1.2.603 1.4 1.4.4.6.2 1.6.4 2.4 1 4.8.2 9.397 3.4 14h.6c.2-.2.4-.4.4-.603l-4.2-15.196c.6 0 1 0 1.2.396 1 .8 2.2 7.398 3.6 7.398 1 0 1-1.2 1-1.398 0-1.2-3.4-5.2-3.4-5.8s.2-1.2.6-1.8c-1.2-.398-1.2-2.2-1.6-3 1.2.8 2.2 1.8 3.2 2.398 1.8.8 3.8 1.4 5.6 2.4.6.4 6.6 3.6 6.6 6 0 .81-1.4 1.01-1.6 1.01z"/><path fill="#fff" d="M282.8 5.2c5.2 7.6 7.4 17.8 7.4 26l-.2 7c-.6 6.6-1.2 13.2-2.8 19.8-1.2 5-2.6 10.2-3.6 15.602C283 77 282.8 81 282.2 84.8c-.2 1.4-1.2 2-2.2 2-1.2 0-2-3.198-2-3.4 0-.6-.6-1.8-.6-2.6 0-12.8-6.8-26.6-7.8-39.2 0-1.4-.4-4.2-.4-4.6V23.6c.4-6 1.6-12 5.4-18-1-1-2.2-2.4-2.603-3.4v-.6c.8 1 2.603 3.2 3.2 3.2.398 0 1.8-1.4 2.8-1.6h.8c1.2 0 1.604.6 3.398 1.4 1-1 2.2-2.2 3-3.2C285 2.2 284 4.2 282.8 5.2zm-45.6-.4c1.8-1 2.6-1.6 3.6-1.6.802 0 2.6.2 3.2 1.4 1-1 2.2-2.2 2.8-3.2 0 2-2 3.2-2 3.8s2 3 2.6 4.6c3 6.4 4.803 14.6 4.803 21.6 0 .4 0 1.8-.2 6.4-.2 1.8-.603 3.8-.603 5.6-.397 10.6-5.197 22.4-5.197 33.2 0 3.8.197 5.2.197 5.603 0 1.198 0 3.8-2.197 3.8-.602 0-1.4-1-2-1.602-1.602-2.198-1.602-5.398-2.2-7.398-1-5.2-2.397-10.8-4-15.8-1.8-6-4.8-18.2-4.8-25V24.4c.197-1.2.197-2.6.398-3.8.602-3.2 1.198-6.4 2.198-9.6.6-2 2.802-5 2.802-5.4 0-.6-2.398-3.2-2.398-3.6v-.6C235 2.4 236 3.6 237.2 4.8zm-220.4.4c5.4 7.8 7.4 17.6 7.4 25.6L24 38c-.6 6.2-1.2 13.6-2.8 20-1.2 5-2.6 10.4-3.6 15.602C16.8 77 16.8 81 16.2 84.8c-.2 1.802-1 1.802-1.8 1.802-1.6 0-2.4-2.802-2.4-3.2 0-.6-.6-1.8-.6-2.6 0-13-6.8-26-7.8-39 0-1.6-.4-4.4-.4-4.8V23.6c.4-6 1.6-12 5.4-18-1-1-2.2-2.4-2.6-3.4v-.6c.8 1 2.6 3.2 3.2 3.2.4 0 1.8-1.4 2.8-1.6h.8c1.2 0 2 .2 3.4 1.4 1-1 2.2-2.2 3-3.2-.2.8-1.2 2.8-2.4 3.8zm38 0c0 .4 2.4 3.8 3 5.6.8 2 4.2 12 4.2 15.4V37c-.4 5.8-1 11.4-2 17-.6 3.602-1.8 7.4-2.4 11.2-.6 3.6-1 10.8-1 11.4 0 .397.4 6 .4 6.397 0 1.2-.6 2.603-1.8 2.603-3.6 0-4.6-7.803-4.8-8.2-.4-2.2-1.2-4.8-1.8-7-1.2-4.4-2.4-9.2-3.8-13.4-1.6-5.2-3.6-15.8-3.6-21.8v-9.6c.2-1.4.2-3 .4-4.6.2-2 .4-4 1-6a27 27 0 0 1 2.2-6.4c.4-1.2 1.8-2.6 1.8-3 0-.2-2.4-2.6-2.2-4.2.6 1 1.6 2.2 2.8 3.4 1.8-1 2.6-1.6 3.6-1.6 1.4 0 2.4 1.2 3.2 1.2.4 0 2-2 2.8-3.2 0 2-2 3.2-2 4zm148.2-2c1 0 2 .2 3 1.4 1-1.2 2-2.4 2.602-3.6 0 1.4-1 2.8-2 4.2 1.602 1.4 2.602 3.8 3.198 5.6 1 2 4.2 11.8 4.2 15.6V37c-.398 5.4-.8 10.8-1.8 16-1.6 9.4-3 12-3 20 0 .4 0 5.4.6 8 0 .602.4 1.2.4 1.8 0 1 0 2.4-1.6 2.4-2.4 0-4.4-4.4-5-6.4-.602-2.8-1.802-5.4-2.602-8-2.2-7.198-5-15.198-6.396-22.6-.6-3.2-1.2-9.4-1.2-9.8V22.8c.2-1 .397-2.2.397-3.2.4-3.2 1.2-6.6 2.4-9.6.398-1.4 2.398-4 2.398-4.4 0-.6-1.2-1.4-1.6-2.2-.393-.6-.393-1.4-.595-2.4.6 1 1.6 2.4 2.8 3.8 1.2-.8 2.8-1.6 3.8-1.6zm-38 0c1 0 1.8.6 3 1.2.8-1 1.602-2.2 2.2-3.2 0 0 .2-.2.2.4 0 .4-1.8 3-1.8 3.6 0 .4.6.8.8 1.2 1 1 1.6 2.4 2.2 4 3.398 7.4 4.398 13.8 4.398 21.4l-.2 7.8c-.397 4.4-.8 8.8-1.6 13.2C172.6 61 172 61.6 172 68.4c0 .396 0 5.8.602 8.8.198 2 1.398 5.4 1.398 6 0 .8 0 1.4-1 1.4-3.8 0-6.8-7.603-7.6-9.2-3.8-8.604-6.8-17.604-8.604-26.2C156 45.4 155.4 38 155.4 37.6v-14c.2-1.2.2-2.4.396-3.6.2-.8.398-1.8.398-2.8.602-2.2 1-4.6 1.802-6.6.603-1.8 2.603-4.6 2.603-5 0-.6-1.603-3-2-4.4.8 1 1.8 2.4 2.8 3.6.6-1 2.6-1.6 3.6-1.6zM85.4 4.8c.4-1 2.8-1.6 3.4-1.6.8 0 2.8 1.2 3 1.2.6 0 2-2.2 2.6-3.4 0 1.4-1 2.8-1.8 4.2.6.8 1.2 1.4 1.6 2.4 4.6 8.8 5.8 15.6 5.8 24.2s-.6 13.8-2.2 23.4c-.2 2-1 4.2-1.4 6.2-.6 2.8-.6 5.6-.6 8.396 0 6.2 1.6 12.2 1.6 13.2 0 1.2-.2 1.8-1.4 1.8-4.6 0-8.2-12.6-8.4-13.197-2.6-7.2-5.4-15.4-6.8-22.4-.8-3.6-1.4-10.4-1.4-10.8V22.8c.2-1 .4-2.2.4-3.2.2-1.4.4-3.2.8-4.4 0-.6.2-1.6.6-2.2.4-1.4 1-3.2 1.6-4.4.4-1.2 1.8-2.6 1.8-3 0-.6-2-3.4-2-3.8v-1c0 1 1.6 2.6 2.8 4zm38 0c.6-1 2.6-1.6 3.6-1.6.8 0 1.2 0 2.8 1.2 1-1.2 1.8-2.4 2.2-3.6 0 0 .2-.2.2.4 0 1.2-1.6 3-1.6 3.8 0 .6 2 3 2.6 4.6 3.8 9 4.8 13.8 4.8 22.2l-.2 6.8-1.4 13c-.6 5-2.2 9.2-2.2 14 0 3.4.8 8.2 1.6 11.4.4 2.2 2.2 6 2.2 6.4 0 .6-.2.8-.8.8-1.2 0-4.2-2.6-5.2-3.8-7.4-9.4-10.2-19-12.6-28.603-1-4.4-2-10.4-2-15V24.4c.2-1.2.2-2.6.4-4 .2-1 .4-2.2.4-3.2.6-2.4 1.2-5.2 2.2-7.6.4-1.4 2.4-3.6 2.4-4 0-.6-1.8-3-1.8-3.4V.6c.6 1.4 1.4 2.8 2.4 4.2z"/><path fill="#f3d2af" d="M281.068 86.596l.6 5.8c0 .398-.2 1-.6 1.602h-1.2c.2-4.803.398-6.2 0-7.396h1.2v-.007zm-266 0l.6 5.8c0 .398-.2 1-.6 1.602h-1.2c.2-4.803.4-6.2 0-7.396h1.2v-.007zm270.2 5.2c.8 1 2.603 2 3.603 3.2v.6c-.2.2-.2.2-.802.2-1.198 0-3.602-2.398-4.198-3.398-.802-1.602-1.397-4.398-1.397-4.8v-1.6c.794 1.8 1.393 3.8 2.794 5.8zm-266 0c.8 1 2.6 2 3.6 3.2v.6c-.2.2-.2.2-.8.2-1.2 0-3.6-2.398-4.2-3.398-.8-1.602-1.4-4.398-1.4-4.8v-1.6c.8 1.8 1.4 3.8 2.8 5.8zm225.8-6l1.6 6.4c0 .8-1 1.4-1.4 1.4-.6 0-.8-3.604-.8-3.604v-4.2l.6.004zm31 15h-.603c-.397-.6-.397-1.398-.397-1.8 0-4 2.8-10 3.8-13.4a177.46 177.46 0 0 1-2.801 15.199zm-220.4-15c.6 2 1.8 5.602 1.8 6.2 0 .8-.6 1.4-1.2 1.4-1 0-1-4-1-4.2v-3.6c.2.001.4.001.4.2zm-45.6 15h-.6c-.4-.6-.4-1.398-.4-1.8 0-4 2.8-10 3.8-13.4-.6 4.4-1.6 10-2.8 15.2zm243-6.4c-1 0-4-2-4.603-3.2-1-1.8-1.6-3.8-2-5.6l.2-.2c.8 1.6 1.8 3.2 2.8 4.8s3.802 2 4.603 3.8a1.53 1.53 0 0 1-1 .4zm-10.2-3.4c-.4 2.8-.602 6.8-1.2 9.8-.4-.2-1-.6-1-1v-4c1-3.6 1-7.398 2.4-10.6 0 2.2 0 2.6-.2 5.8zm-33.6-5.8c.603 2 2.2 5.8 2.2 6.2 0 .6-.8 1.397-1.2 1.397-1 0-1.6-6-1.6-6.196v-1.4h.6zm-144.4 8.6c-.2 0-.4.2-.8.2-1.4 0-4.2-2.4-4.8-3.2-1.2-1.6-1.4-3.398-2-5.2 1 .8 1.6 2.4 3 4.2 1.4 1.2 3 2 4.6 3.2v.8zm34.4-2.8c0 .2-.6 1-1.2 1.4-1.4-2.4-1.8-5.2-2-7.603h.6c.8 2.004 2.6 5.805 2.6 6.204zm-45.6 3.6l-.6 6h-.6c-.4-.4-.6-.8-.6-1.2v-4.8l1.8-9.8v9.8zm122.6-3.8c0 .4-.397 1.2-1 1.2s-.6-.2-.8-.4c-.6-2-1.6-5.6-1.6-6v-1c1.2.8 3.4 5.6 3.4 6.2zm38.4-1.4c1.2 1.2 2.8 1.6 4.2 2.6v.602c-.2 0-.602.198-1 .198-3.4 0-7.4-6.198-7.4-8.4 1.2 1.598 2.4 3.598 4.2 5zm-7 2.8v8s0 .2-.4.2c-.8 0-1.2-1.603-1.2-1.8v-5.2c.398-3 .602-6.2 1-9l.598 7.8zm-70-8c1.2 1.8 3.4 5 3.4 5.6 0 .4-.4 1.2-1 1.2s-.8-.4-1-.8c-.8-1.8-2-5-2-5.4v-.6h.6zm-41.4 15.2c0 .2 0 .8-.6.8-1 0-1.4-3.2-1.4-3.4v-12.6l2 15.2zm5.8-11c1.4 1.2 3.2 1 4.8 2.6-.4.4-1 .8-1.2.8-4 0-7.4-6-7.8-7.8 1.2 1.4 2.4 3.2 4.2 4.4zm77-.4c1.397 1.2 3.2.8 4.8 2.4-.2.2-1.2.8-1.4.8-3 0-7.398-4.6-7.8-7.4 1.4 1.4 2.6 3 4.4 4.2zm-5.6 10.2v1.6s0 .2-.398.2c-1.398 0-1.8-4.8-1.8-5l-.2-11.2 2.398 14.4zm-34.2.8s0 .2-.4.2c-1.8 0-2.4-4.6-2.4-5-.6-2.8-1.2-8.2-1.2-8.6v-2c1.2 4.8 2.8 9.2 4 15.4zm3.8-12.6c1.6 1.2 3.6.6 5.4 2v.6c-.4.2-.8.4-1.4.4-3 0-7.2-3.2-8.6-6.604 1.4 1.003 2.8 2.403 4.6 3.604z"/><g class="B"><ellipse transform="matrix(.9994 -.0336 .0336 .9994 -.3585 .6065)" cx="17.87" cy="10.972" rx=".378" ry="1.199"/><ellipse transform="matrix(.9995 -.0323 .0323 .9995 -.3611 .2727)" cx="8.265" cy="11.319" rx=".378" ry="1.198"/></g><defs><path id="A" d="M16.8 5.2c5.4 7.8 7.4 17.6 7.4 25.6L24 38c-.6 6.2-1.2 13.6-2.8 20-1.2 5-2.6 10.4-3.6 15.602C16.8 77 16.8 81 16.2 84.8c-.2 1.802-1 1.802-1.8 1.802-1.6 0-2.4-2.802-2.4-3.2 0-.6-.6-1.8-.6-2.6 0-13-6.8-26-7.8-39 0-1.6-.4-4.4-.4-4.8V23.6c.4-6 1.6-12 5.4-18-1-1-2.2-2.4-2.6-3.4v-.6c.8 1 2.6 3.2 3.2 3.2.4 0 1.8-1.4 2.8-1.6h.8c1.2 0 2 .2 3.4 1.4 1-1 2.2-2.2 3-3.2-.2.8-1.2 2.8-2.4 3.8z"/><path id="B" d="M24.57 33.472s-5.5-3.535-7.25 0 .25 6.953-.583 7.953-3.083 3.42-3.417 5.626 2.667 6.207 6.167 6.124 7.083-8.124 7.083-8.124 5.083-13.45-2-11.58z"/><path id="C" d="M20.744 66.092s-6.226-3.334-7.45 1.334-3.938 5.25-.54 7.416 6.916 1.5 8-1.75.001-7 .001-7z"/><path id="D" d="M176.818 33.472s-5.5-3.535-7.25 0 .25 6.953-.582 7.953-3.084 3.42-3.418 5.626 2.668 6.207 6.168 6.124 7.082-8.124 7.082-8.124 5.084-13.45-2-11.58z"/><path id="E" d="M172.994 66.092s-6.227-3.334-7.45 1.334-3.938 5.25-.54 7.416 6.916 1.5 7.99-1.75.002-7 .002-7z"/></defs><clipPath id="F"><use xlink:href="#A"/></clipPath><g clip-path="url(#F)"><g class="C"><path d="M-4.18 23.8s9.188-7.833 10.97-6.458 2.28 4.06 3.53 4.78 4.402-1.72 4.95 0 4.21 4.803 1.88 8.137S14.98 40.74 4.962 39.73-9.056 29.632-4.18 23.8z"/><ellipse cx="20.744" cy="50.389" rx="8.624" ry="10.562"/><ellipse cx="4.349" cy="65.187" rx="8.405" ry="8.78"/></g><g class="D"><ellipse cx="3.602" cy="37.257" rx="6.7" ry="7"/><use xlink:href="#B"/><use xlink:href="#C"/><ellipse cx="9.436" cy="59.615" rx="2.95" ry="3.209"/></g></g><g class="B"><ellipse transform="matrix(.9994 -.0336 .0336 .9994 -.337 1.8831)" cx="55.87" cy="10.97" rx=".378" ry="1.199"/><ellipse transform="matrix(.9995 -.0323 .0323 .9995 -.3415 1.5005)" cx="46.265" cy="11.32" rx=".378" ry="1.198"/></g><defs><path id="G" d="M54.8 5.2c0 .4 2.4 3.8 3 5.6.8 2 4.2 12 4.2 15.4V37c-.4 5.8-1 11.4-2 17-.6 3.602-1.8 7.4-2.4 11.2-.6 3.6-1 10.8-1 11.4 0 .397.4 6 .4 6.397 0 1.2-.6 2.603-1.8 2.603-3.6 0-4.6-7.803-4.8-8.2-.4-2.2-1.2-4.8-1.8-7-1.2-4.4-2.4-9.2-3.8-13.4-1.6-5.2-3.6-15.8-3.6-21.8v-9.6c.2-1.4.2-3 .4-4.6.2-2 .4-4 1-6a27 27 0 0 1 2.2-6.4c.4-1.2 1.8-2.6 1.8-3 0-.2-2.4-2.6-2.2-4.2.6 1 1.6 2.2 2.8 3.4 1.8-1 2.6-1.6 3.6-1.6 1.4 0 2.4 1.2 3.2 1.2.4 0 2-2 2.8-3.2 0 2-2 3.2-2 4z"/></defs><clipPath id="H"><use xlink:href="#G"/></clipPath><g clip-path="url(#H)"><g class="C"><path d="M33.82 23.8s9.188-7.833 10.97-6.458 2.28 4.06 3.53 4.78 4.402-1.72 4.95 0 4.21 4.803 1.88 8.137S52.98 40.74 42.962 39.73 28.944 29.632 33.82 23.8z"/><ellipse cx="58.744" cy="50.389" rx="8.624" ry="10.562"/><ellipse cx="42.349" cy="65.187" rx="8.405" ry="8.78"/></g><g class="D"><ellipse cx="41.602" cy="37.257" rx="6.7" ry="7"/><use xlink:href="#B" x="38"/><use xlink:href="#C" x="38"/><ellipse cx="47.436" cy="59.615" rx="2.95" ry="3.209"/></g></g><g class="B"><ellipse transform="matrix(.9994 -.0336 .0336 .9994 -.3155 3.1597)" cx="93.87" cy="10.969" rx=".378" ry="1.199"/><ellipse transform="matrix(.9995 -.0323 .0323 .9995 -.3217 2.728)" cx="84.265" cy="11.321" rx=".378" ry="1.198"/></g><defs><path id="I" d="M85.4 4.8c.4-1 2.8-1.6 3.4-1.6.8 0 2.8 1.2 3 1.2.6 0 2-2.2 2.6-3.4 0 1.4-1 2.8-1.8 4.2.6.8 1.2 1.4 1.6 2.4 4.6 8.8 5.8 15.6 5.8 24.2s-.6 13.8-2.2 23.4c-.2 2-1 4.2-1.4 6.2-.6 2.8-.6 5.6-.6 8.396 0 6.2 1.6 12.2 1.6 13.2 0 1.2-.2 1.8-1.4 1.8-4.6 0-8.2-12.6-8.4-13.197-2.6-7.2-5.4-15.4-6.8-22.4-.8-3.6-1.4-10.4-1.4-10.8V22.8c.2-1 .4-2.2.4-3.2.2-1.4.4-3.2.8-4.4 0-.6.2-1.6.6-2.2.4-1.4 1-3.2 1.6-4.4.4-1.2 1.8-2.6 1.8-3 0-.6-2-3.4-2-3.8v-1c0 1 1.6 2.6 2.8 4z"/></defs><clipPath id="J"><use xlink:href="#I"/></clipPath><g clip-path="url(#J)"><g class="C"><path d="M71.82 23.8s9.188-7.833 10.97-6.458 2.28 4.06 3.53 4.78 4.402-1.72 4.95 0 4.21 4.803 1.88 8.137S90.98 40.74 80.962 39.73 66.944 29.632 71.82 23.8z"/><ellipse cx="96.744" cy="50.389" rx="8.624" ry="10.562"/><ellipse cx="80.349" cy="65.187" rx="8.405" ry="8.78"/></g><g class="D"><ellipse cx="79.602" cy="37.257" rx="6.7" ry="7"/><use xlink:href="#B" x="76"/><use xlink:href="#C" x="76"/><ellipse cx="85.436" cy="59.615" rx="2.95" ry="3.209"/></g></g><g class="B"><ellipse transform="matrix(.9994 -.0336 .0336 .9994 -.2939 4.4334)" cx="131.871" cy="10.968" rx=".378" ry="1.199"/><ellipse transform="matrix(.9995 -.0323 .0323 .9995 -.3019 3.9555)" cx="122.265" cy="11.322" rx=".378" ry="1.198"/></g><defs><path id="K" d="M123.4 4.8c.6-1 2.6-1.6 3.6-1.6.8 0 1.2 0 2.8 1.2 1-1.2 1.8-2.4 2.2-3.6 0 0 .2-.2.2.4 0 1.2-1.6 3-1.6 3.8 0 .6 2 3 2.6 4.6 3.8 9 4.8 13.8 4.8 22.2l-.2 6.8-1.4 13c-.6 5-2.2 9.2-2.2 14 0 3.4.8 8.2 1.6 11.4.4 2.2 2.2 6 2.2 6.4 0 .6-.2.8-.8.8-1.2 0-4.2-2.6-5.2-3.8-7.4-9.4-10.2-19-12.6-28.603-1-4.4-2-10.4-2-15V24.4c.2-1.2.2-2.6.4-4 .2-1 .4-2.2.4-3.2.6-2.4 1.2-5.2 2.2-7.6.4-1.4 2.4-3.6 2.4-4 0-.6-1.8-3-1.8-3.4V.6c.6 1.4 1.4 2.8 2.4 4.2z"/></defs><clipPath id="L"><use xlink:href="#K"/></clipPath><g clip-path="url(#L)"><g class="C"><path d="M109.82 23.8s9.188-7.833 10.97-6.458 2.28 4.06 3.53 4.78 4.402-1.72 4.95 0 4.21 4.803 1.88 8.137-2.168 10.484-12.187 9.472-14.018-10.097-9.143-15.93z"/><ellipse cx="134.744" cy="50.389" rx="8.624" ry="10.562"/><ellipse cx="118.349" cy="65.187" rx="8.405" ry="8.78"/></g><g class="D"><ellipse cx="117.602" cy="37.257" rx="6.7" ry="7"/><use xlink:href="#B" x="114"/><use xlink:href="#C" x="114"/><ellipse cx="123.436" cy="59.615" rx="2.95" ry="3.209"/></g></g><g class="B"><ellipse transform="matrix(.9994 -.0336 .0336 .9994 -.2724 5.725)" cx="170.122" cy="10.965" rx=".378" ry="1.199"/><ellipse transform="matrix(.9995 -.0331 .0331 .9995 -.2866 5.3121)" cx="160.514" cy="11.324" rx=".377" ry="1.198"/></g><defs><path id="M" d="M165 3.2c1 0 1.8.6 3 1.2.8-1 1.602-2.2 2.2-3.2 0 0 .2-.2.2.4 0 .4-1.8 3-1.8 3.6 0 .4.6.8.8 1.2 1 1 1.6 2.4 2.2 4 3.398 7.4 4.398 13.8 4.398 21.4l-.2 7.8c-.397 4.4-.8 8.8-1.6 13.2C172.6 61 172 61.6 172 68.4c0 .396 0 5.8.602 8.8.198 2 1.398 5.4 1.398 6 0 .8 0 1.4-1 1.4-3.8 0-6.8-7.603-7.6-9.2-3.8-8.604-6.8-17.604-8.604-26.2C156 45.4 155.4 38 155.4 37.6v-14c.2-1.2.2-2.4.396-3.6.2-.8.398-1.8.398-2.8.602-2.2 1-4.6 1.802-6.6.603-1.8 2.603-4.6 2.603-5 0-.6-1.603-3-2-4.4.8 1 1.8 2.4 2.8 3.6.6-1 2.6-1.6 3.6-1.6z"/></defs><clipPath id="N"><use xlink:href="#M"/></clipPath><g clip-path="url(#N)"><g class="C"><path d="M148.07 23.8s9.188-7.833 10.97-6.458 2.28 4.06 3.53 4.78 4.402-1.72 4.95 0 4.21 4.803 1.88 8.137S167.23 40.74 157.2 39.73s-14.016-10.097-9.14-15.93z"/><ellipse cx="172.994" cy="50.389" rx="8.623" ry="10.562"/><ellipse cx="156.6" cy="65.187" rx="8.404" ry="8.78"/></g><g class="D"><ellipse cx="155.852" cy="37.257" rx="6.7" ry="7"/><use xlink:href="#D"/><use xlink:href="#E"/><ellipse cx="161.686" cy="59.615" rx="2.951" ry="3.209"/></g></g><g class="B"><ellipse transform="matrix(.9994 -.0336 .0336 .9994 -.2509 7.0024)" cx="208.122" cy="10.963" rx=".378" ry="1.199"/><ellipse transform="matrix(.9995 -.0324 .0324 .9995 -.2628 6.4395)" cx="198.514" cy="11.325" rx=".377" ry="1.198"/></g><defs><path id="O" d="M203 3.2c1 0 2 .2 3 1.4 1-1.2 2-2.4 2.602-3.6 0 1.4-1 2.8-2 4.2 1.602 1.4 2.602 3.8 3.198 5.6 1 2 4.2 11.8 4.2 15.6V37c-.398 5.4-.8 10.8-1.8 16-1.6 9.4-3 12-3 20 0 .4 0 5.4.6 8 0 .602.4 1.2.4 1.8 0 1 0 2.4-1.6 2.4-2.4 0-4.4-4.4-5-6.4-.602-2.8-1.802-5.4-2.602-8-2.2-7.198-5-15.198-6.396-22.6-.6-3.2-1.2-9.4-1.2-9.8V22.8c.2-1 .397-2.2.397-3.2.4-3.2 1.2-6.6 2.4-9.6.398-1.4 2.398-4 2.398-4.4 0-.6-1.2-1.4-1.6-2.2-.393-.6-.393-1.4-.595-2.4.6 1 1.6 2.4 2.8 3.8 1.2-.8 2.8-1.6 3.8-1.6z"/></defs><clipPath id="P"><use xlink:href="#O"/></clipPath><g clip-path="url(#P)"><g class="C"><path d="M186.068 23.8s9.188-7.833 10.97-6.458 2.28 4.06 3.53 4.78 4.402-1.72 4.95 0 4.21 4.803 1.88 8.137S205.23 40.74 195.2 39.73s-14.017-10.097-9.142-15.93z"/><ellipse cx="210.994" cy="50.389" rx="8.623" ry="10.562"/><ellipse cx="194.6" cy="65.187" rx="8.404" ry="8.78"/></g><g class="D"><ellipse cx="193.852" cy="37.257" rx="6.7" ry="7"/><use xlink:href="#D" x="38"/><use xlink:href="#E" x="38"/><ellipse cx="199.686" cy="59.615" rx="2.951" ry="3.209"/></g></g><g class="B"><ellipse transform="matrix(.9995 -.0329 .0329 .9995 -.2275 8.1102)" cx="246.122" cy="10.962" rx=".378" ry="1.199"/><ellipse transform="matrix(.9995 -.0331 .0331 .9995 -.2451 7.8244)" cx="236.514" cy="11.326" rx=".377" ry="1.198"/></g><defs><path id="Q" d="M237.2 4.8c1.8-1 2.6-1.6 3.6-1.6.802 0 2.6.2 3.2 1.4 1-1 2.2-2.2 2.8-3.2 0 2-2 3.2-2 3.8s2 3 2.6 4.6c3 6.4 4.803 14.6 4.803 21.6 0 .4 0 1.8-.2 6.4-.2 1.8-.603 3.8-.603 5.6-.397 10.6-5.197 22.4-5.197 33.2 0 3.8.197 5.2.197 5.603 0 1.198 0 3.8-2.197 3.8-.602 0-1.4-1-2-1.602-1.602-2.198-1.602-5.398-2.2-7.398-1-5.2-2.397-10.8-4-15.8-1.8-6-4.8-18.2-4.8-25V24.4c.197-1.2.197-2.6.398-3.8.602-3.2 1.198-6.4 2.198-9.6.6-2 2.802-5 2.802-5.4 0-.6-2.398-3.2-2.398-3.6v-.6C235 2.4 236 3.6 237.2 4.8z"/></defs><clipPath id="R"><use xlink:href="#Q"/></clipPath><g clip-path="url(#R)"><g class="C"><path d="M224.068 23.8s9.188-7.833 10.97-6.458 2.28 4.06 3.53 4.78 4.402-1.72 4.95 0 4.21 4.803 1.88 8.137S243.23 40.74 233.2 39.73s-14.017-10.097-9.142-15.93z"/><ellipse cx="248.994" cy="50.389" rx="8.623" ry="10.562"/><ellipse cx="232.6" cy="65.187" rx="8.404" ry="8.78"/></g><g class="D"><ellipse cx="231.852" cy="37.257" rx="6.7" ry="7"/><use xlink:href="#D" x="76"/><use xlink:href="#E" x="76"/><ellipse cx="237.686" cy="59.615" rx="2.951" ry="3.209"/></g></g><g class="B"><ellipse transform="matrix(.9994 -.0336 .0336 .9994 -.2078 9.545)" cx="284.122" cy="10.96" rx=".378" ry="1.199"/><ellipse transform="matrix(.9995 -.0324 .0324 .9995 -.2228 8.891)" cx="274.514" cy="11.328" rx=".377" ry="1.198"/></g><defs><path id="S" d="M282.8 5.2c5.2 7.6 7.4 17.8 7.4 26l-.2 7c-.6 6.6-1.2 13.2-2.8 19.8-1.2 5-2.6 10.2-3.6 15.602C283 77 282.8 81 282.2 84.8c-.2 1.4-1.2 2-2.2 2-1.2 0-2-3.198-2-3.4 0-.6-.6-1.8-.6-2.6 0-12.8-6.8-26.6-7.8-39.2 0-1.4-.4-4.2-.4-4.6V23.6c.4-6 1.6-12 5.4-18-1-1-2.2-2.4-2.603-3.4v-.6c.8 1 2.603 3.2 3.2 3.2.398 0 1.8-1.4 2.8-1.6h.8c1.2 0 1.604.6 3.398 1.4 1-1 2.2-2.2 3-3.2C285 2.2 284 4.2 282.8 5.2z"/></defs><clipPath id="T"><use xlink:href="#S"/></clipPath><g clip-path="url(#T)"><g class="C"><path d="M262.068 23.8s9.188-7.833 10.97-6.458 2.28 4.06 3.53 4.78 4.402-1.72 4.95 0 4.21 4.803 1.88 8.137S281.23 40.74 271.2 39.73s-14.017-10.097-9.142-15.93z"/><ellipse cx="286.994" cy="50.389" rx="8.623" ry="10.562"/><ellipse cx="270.6" cy="65.187" rx="8.404" ry="8.78"/></g><g class="D"><ellipse cx="269.852" cy="37.257" rx="6.7" ry="7"/><use xlink:href="#D" x="114"/><use xlink:href="#E" x="114"/><ellipse cx="275.686" cy="59.615" rx="2.951" ry="3.209"/></g></g></svg>