<?xml version="1.0" standalone="no"?>
<!DOCTYPE svg PUBLIC "-//W3C//DTD SVG 20010904//EN"
 "http://www.w3.org/TR/2001/REC-SVG-20010904/DTD/svg10.dtd">
<svg version="1.0" xmlns="http://www.w3.org/2000/svg"
 width="405.000000pt" height="300.000000pt" viewBox="0 0 405.000000 300.000000"
 preserveAspectRatio="xMidYMid meet" style="background: white">

<g transform="translate(0.000000,300.000000) scale(0.100000,-0.100000)"
fill="#000000" fill-opacity="1" stroke="#ffffff">
<path d="M0 1500 l0 -1500 2025 0 2025 0 0 615 0 616 -21 -12 c-12 -6 -53 -32
-93 -58 -39 -27 -123 -82 -186 -123 -307 -200 -393 -256 -485 -317 -55 -36
-104 -68 -110 -71 -10 -5 -224 -145 -285 -186 -32 -23 -36 -23 -47 -7 -19 25
-18 422 0 447 12 17 172 119 462 296 55 34 138 86 185 115 47 30 118 73 157
97 75 44 86 63 56 90 -15 13 -529 374 -786 552 -90 62 -87 51 -87 291 0 115 4
216 9 224 11 17 -40 53 644 -454 312 -231 572 -421 577 -423 7 -2 10 231 10
652 l0 656 -2025 0 -2025 0 0 -1500z m2669 1446 c10 -12 8 -31 -8 -88 -21 -76
-58 -214 -141 -533 -27 -104 -58 -224 -70 -265 -11 -41 -38 -142 -59 -225
-103 -392 -263 -999 -286 -1080 -13 -49 -38 -142 -54 -206 -16 -64 -46 -178
-67 -255 -20 -76 -44 -168 -54 -204 l-16 -65 -195 0 c-166 0 -194 2 -193 15 2
17 78 310 204 785 10 39 33 124 50 190 17 66 43 163 57 215 14 52 43 163 65
245 71 274 118 449 142 540 13 50 45 171 71 270 25 99 55 209 65 245 10 36 37
139 61 230 23 91 49 173 57 183 13 15 36 17 187 17 138 0 175 -3 184 -14z
m-1301 -600 l2 -218 -33 -32 c-18 -17 -60 -49 -93 -72 -32 -22 -83 -57 -111
-77 -56 -39 -104 -73 -218 -152 -38 -27 -92 -64 -120 -84 -27 -19 -68 -47 -90
-63 -178 -123 -220 -156 -223 -173 -2 -15 15 -30 70 -63 40 -24 123 -74 183
-112 61 -38 142 -88 180 -111 220 -133 413 -255 433 -273 22 -20 22 -22 20
-240 -3 -194 -5 -221 -19 -224 -9 -2 -63 28 -120 66 -57 37 -135 89 -174 114
-99 64 -315 205 -480 313 -77 50 -198 129 -270 176 -71 46 -163 107 -205 134
l-75 50 -3 147 -3 146 373 275 c370 273 473 349 743 549 200 149 199 148 215
145 13 -2 15 -36 18 -221z"/>
</g>
</svg>
