<svg id="Camada_1" data-name="Camada 1" xmlns="http://www.w3.org/2000/svg" viewBox="0 0 216.2 216.2"><defs><style>.cls-1{fill:#fff;}</style></defs><title>DojoLogo_Transparente</title><path class="cls-1" d="M105.51,14.11c.13.64.27,1.25.44,1.87C105.81,15.36,105.67,14.74,105.51,14.11Z"/><path class="cls-1" d="M106.68,20.2a1,1,0,0,0-.17.75.71.71,0,0,0,.5.5l-.16-.58Z"/><path class="cls-1" d="M211,76.18A107.73,107.73,0,0,0,109.37.43h0C156.83,1,197.35,32.86,211,76.18Z"/><path class="cls-1" d="M70.29,198.67c-2.84-3.09-15-16.53-15.11-36.73-.09-19.53,11.27-36.56,24.62-45.66,20.37-13.94,33.73-1.17,55.26-14.61,1.92-1.25,27.3-17.61,27.72-46.74.33-27.55-21.87-43.83-23-44.58A55.1,55.1,0,0,0,109.38.43H108.1a107.68,107.68,0,0,0,0,215.36h.07C104.12,215.61,85.21,214.34,70.29,198.67ZM86,46.66s.33,0,.42-.16v-.09c0-2.08-.09-4.17-.09-6.26h.09c.16-.08.16-.08.25-.08l.16-.17v-.08c.09-.25.17-.67.09-.75h-.75c.5-4.43.66-6.43.75-7.1v-.33c.08-.42.16-1.09.25-1.92.16-.67.25-1.42.42-2.34,0-.33.08-.5.08-.67s-.08-.25-.08-.33a1,1,0,0,1-.17-.25c-.09-.08-.09-.08-.09-.17s.09-.16.09-.25c.17-.25.33-.42.42-.58a.74.74,0,0,0,.16-.5.59.59,0,0,0,.09.33,2.13,2.13,0,0,0,.25.42.87.87,0,0,1,.16.42c.09.16,0,.33,0,.41a.54.54,0,0,1-.08.34v.83a24.08,24.08,0,0,0,.42,2.42c0,.17.08.42.08.59.17.83.42,3.17,1,8.68h-.67v.5c0,.17,0,.25.09.33s0,.09.08.17a.08.08,0,0,0,.09.08c.08.09.08.09.16.09h.17c0,1.58-.08,3.25-.08,4.84a5.85,5.85,0,0,1,.58-.84V40.15h.08c.17-.08.17-.08.25-.08l.17-.17c.08,0,.08,0,.08-.08A.85.85,0,0,0,91,39.4v-.33h-.5c.58-4.09,1.08-8.27,1.58-12.36v-.16a.26.26,0,0,0-.08-.17.32.32,0,0,0-.08-.17c-.09-.08-.09-.08-.09-.16v-.17a.29.29,0,0,1,.09-.25c.08-.09.16-.25.25-.34s.16-.16.16-.25a3.36,3.36,0,0,0,.09-.41c0,.08.08.16.08.25s.08.16.17.33.16.08.25.25.08.17.16.25.09.17.09.25v.25a.27.27,0,0,0-.09.17c-.08,0-.08,0-.08.08a.32.32,0,0,0-.08.25v.92c0,.09.5,3.42,1.58,11.44h-.75v.5c.09.25.17.33.17.42a.08.08,0,0,0,.08.08c.09.08.09.08.17.08h.25a.73.73,0,0,1,0,.42c-.08.17-.17.25-.17.42a.27.27,0,0,0,.09.16,1.39,1.39,0,0,0,.41-.16,1.5,1.5,0,0,0,.5-.25,5.27,5.27,0,0,1,1-.5c-.17.58-.34,1.08-.5,1.67a10.23,10.23,0,0,0,.33,1.33,3.19,3.19,0,0,0,.67,1.42,1.28,1.28,0,0,0,.58.5,3.09,3.09,0,0,0,1.59.25c.25-.08,1.75-.25,2.17-1.42.08-.08.08-.25.17-.66a6.86,6.86,0,0,0,.08-1.09,9.34,9.34,0,0,1,.33-1.84c.09-.41.09-.5.17-.83a4.85,4.85,0,0,0,.08-.75c0-.09,0-.17-.08-.17h-.08a.32.32,0,0,1-.17.08l-1.84.5c-.08,0-.16,0-.16-.08V39a.78.78,0,0,0-.09-.33l-.16-.17h-.51c-.08-.25-.08-.5-.16-.58v-.25a.08.08,0,0,1,.08-.08,1.58,1.58,0,0,1,.75-.34c.67-.08.75-.42,1.76-.58.33-.09.66-.09,1.16-.25.17-.09.42-.17.5-.34a.42.42,0,0,0,.09-.41c-.09-.25-.25-.42-.34-.67v-.17a.31.31,0,0,1,.09-.17,3.68,3.68,0,0,0,.58-.58.32.32,0,0,1,.17-.08h.42c.25,0,.41-.17.41-.25a4.82,4.82,0,0,0,.25-.76.24.24,0,0,1,.09-.16.27.27,0,0,0,.16-.09c.25-.08.42-.16.67-.25h.25a.25.25,0,0,1,.17.09l.25.08a.63.63,0,0,0,.33-.08c.09,0,.25-.09.5-.34s.34-.25.34-.41a.92.92,0,0,0-.08-.34c-.17-.08-.26-.17-.42-.17a12.67,12.67,0,0,0-1.76,0,.25.25,0,0,1-.16-.08v-.17a.25.25,0,0,0,.08-.16,3.62,3.62,0,0,0,.59-.92v-.59a.63.63,0,0,1,.33-.08h.17a.32.32,0,0,0,.25-.08c.08,0,.08-.09.08-.17a9.32,9.32,0,0,0-.25-1.17.32.32,0,0,0-.08-.25c-.09,0-.17-.08-.34-.08h-.41a3.58,3.58,0,0,1-.51-.17.46.46,0,0,1-.25-.33s-.08-.09,0-.5v-.42c0-.17-.16-.17-.16-.42v-.25a3,3,0,0,0,.08-.5.65.65,0,0,0,.42.08c.16,0,.33-.08.42-.08s.33-.17.33-.25,0-.17,0-.25-.25-.17-.33-.42c-.09,0-.09-.08,0-.25a.63.63,0,0,1,.33-.33.08.08,0,0,1,.08-.09c.34-.16.84-.5.92-.5s0-.16-.08-.16h-.17c-.17,0-.17.08-.33.16a.61.61,0,0,1-.42,0,.58.58,0,0,1-.25-.25.3.3,0,0,1-.08-.25,7.11,7.11,0,0,1,0-1.67,13.07,13.07,0,0,1,.33-1.42c.08-.25.08-.41.25-.58a.85.85,0,0,1,.49-.22L106,16.53a21.54,21.54,0,0,1-.5-2.42c.17.74.35,1.51.55,2.28a.74.74,0,0,0,0,.14l0,.15c.15.59.31,1.18.46,1.77h.26c.16,0,.16-.08.33-.17a4.63,4.63,0,0,1,.5-.25.94.94,0,0,1,.67.09c.25.08.42.08.5.25a.59.59,0,0,1,.17.5c0,.16-.09.25-.09.41a5.58,5.58,0,0,0,0,1.17c0,.17-.08.42-.08.67a.18.18,0,0,0,.17.17h.17c.08-.09.16-.09.16-.17a.46.46,0,0,1,.42-.25.4.4,0,0,1,.33.17.86.86,0,0,1,.25.5c.09.25.17.58.34,1s.25.67.33.83a1.75,1.75,0,0,1,.09.67c0,.25-.09.25-.17.5s-.09.42-.09.84A4,4,0,0,0,111,26a2.72,2.72,0,0,1,.09.75v.34a1.48,1.48,0,0,1-.26.58c-.08.17-.16.17-.5.59-.08.08-.08.16-.16.25s-.09.33-.09.5a.91.91,0,0,0-.08.41.34.34,0,0,0,.08.26,1.33,1.33,0,0,0,.42.25,1.37,1.37,0,0,1,.67.41,2,2,0,0,1,.42.59c.08.25,0,.33,0,.33a.41.41,0,0,1-.34.17h-1.92a.51.51,0,0,0-.33.08c-.09.09-.17.09-.25.25a.39.39,0,0,0,0,.34s0,.08.16.25a2.25,2.25,0,0,1,.42.33c.17.08.25.17.34.17a1.48,1.48,0,0,0,.41-.09c.17-.08.25-.16.25-.25h.25a3.19,3.19,0,0,1,.42.09l.25.25c.17.16.17.25.25.33s.09.17.17.25c.08.25.08.34.17.42a1.32,1.32,0,0,0,.33.25c.17.08.33,0,.58.08a.27.27,0,0,1,.17.09c.17.25.34.5.5.75v.25a1.4,1.4,0,0,0-.25.33c-.08.09-.16.17-.16.25a1.18,1.18,0,0,0,.08.42c.08.17.33.25.5.33a8.65,8.65,0,0,0,1.17.25c1,.17,1,.5,1.75.59a6,6,0,0,1,.75.33.09.09,0,0,1,.09.09c.08.08,0,.16,0,.25a3.46,3.46,0,0,0-.17.58h-.5c-.09,0-.17.17-.17.17a.51.51,0,0,0-.08.33v.17c-.09,0-.09.08-.17.08l-1.84-.5a.25.25,0,0,0-.16-.08h-.09a.25.25,0,0,0-.08.16,4.88,4.88,0,0,0,.08.76,3.07,3.07,0,0,0,.17.83,9.29,9.29,0,0,1,.33,1.75,6,6,0,0,0,.09,1.09,4.14,4.14,0,0,0,.16.67,2.81,2.81,0,0,0,2.18,1.42,3.17,3.17,0,0,0,1.58-.25c.08-.09.34-.26.59-.51a3.61,3.61,0,0,0,.66-1.41,4.63,4.63,0,0,0,.34-1.34c-.17-.58-.34-1.09-.5-1.67.5.17.75.42,1,.5.08,0,.25.17.5.25s.33.08.5.17.08-.09.08-.17-.08-.25-.16-.42v-.41H122c.08,0,.08-.09.16-.09s.09,0,.09-.08.08-.17.16-.42v-.5h-.75c1.09-8,1.59-11.35,1.59-11.43V26.8c0-.09-.08-.17-.08-.25s-.09,0-.09-.09a.28.28,0,0,1-.08-.16v-.25c0-.09.08-.17.08-.25s.09-.17.17-.26l.25-.25a1.33,1.33,0,0,0,.17-.25.3.3,0,0,0,.08-.25,3.53,3.53,0,0,0,.08.42c.09.08.09.17.17.25s.17.25.25.34.08.16.08.25v.16c0,.09,0,.09-.08.17a.28.28,0,0,1-.08.17.24.24,0,0,0-.09.16v.17c.59,4.09,1.09,8.26,1.59,12.35h-.5v.34a1,1,0,0,0,.08.42.08.08,0,0,1,.09.08c0,.08.08.08.16.17a.32.32,0,0,0,.25.08h.09v4.09l.58.84c0-1.59-.08-3.26-.08-4.85h.16c.09-.08.09-.08.17-.08l.08-.08c0-.09.09-.09.09-.17s.08-.17.08-.33v-.51h-.67c.5-5.5.84-7.84,1-8.68,0-.16.08-.41.08-.58a24.08,24.08,0,0,0,.42-2.42v-.84l-.17-.33V26a1.34,1.34,0,0,1,.17-.42c.08-.25.16-.25.25-.41a.67.67,0,0,0,.08-.34.67.67,0,0,0,.17.5,1.75,1.75,0,0,1,.41.59c.09,0,.09.17.09.25s0,.08-.09.17a1.42,1.42,0,0,1-.16.25c-.09.08-.09.16-.09.33a1.93,1.93,0,0,0,.09.67c.16.83.33,1.67.42,2.34.16.83.16,1.5.25,1.92v.33c.08.67.25,2.67.75,7.09h-.75c-.09.09,0,.51.08.76v.08l.17.17a.3.3,0,0,0,.25.08h.08c0,2.09-.08,4.17-.08,6.26v.08c.08.17.41.17.41.17a4,4,0,0,0,1.17-.08l-.25.5a5.65,5.65,0,0,0-.5,1.42,1.49,1.49,0,0,1-.58-.09,1.2,1.2,0,0,1-.5-.25,1.33,1.33,0,0,0-.25.17.5.5,0,0,0,0,.5V86.4H116.78V65a8.93,8.93,0,0,0-9-8.44A9.07,9.07,0,0,0,98.92,65V86.23H86.31c-.08-23.29-.08-37.06,0-37.4,0-.08.17-.33,0-.5s-.16-.16-.25-.16a1.5,1.5,0,0,1-.5.25,1.69,1.69,0,0,1-.58.08,1.15,1.15,0,0,0-.25-.58c-.09-.09-.09-.17-.17-.25a1,1,0,0,0,0-.5,1.39,1.39,0,0,0-.25-.51Z"/><path class="cls-1" d="M209.44,144.55c-14,38.44-49.4,66.93-91.51,70.78A107.83,107.83,0,0,0,209.44,144.55Z"/><path class="cls-1" d="M107.43,21a4,4,0,0,1-.08-.42,2.7,2.7,0,0,0-.4-.71l.27,1.09a4.45,4.45,0,0,0,.3.71C107.52,21.54,107.43,21.29,107.43,21Z"/><path class="cls-1" d="M209.44,144.55A106.48,106.48,0,0,0,211,76.18a108.12,108.12,0,0,1-1.53,68.37Z"/><path class="cls-1" d="M108.1.42Z"/><path class="cls-1" d="M108.18,215.78c3.29,0,6.54-.16,9.75-.45-3.22.29-6.47.45-9.76.45Z"/><path class="cls-1" d="M108.1,216.2c-6.84-.33-24.21-2.59-38.15-17.28-4.59-4.84-15.19-18-15.27-37.06,0-17.62,9.68-35.73,24.87-46,10.44-7.09,19.2-7.26,27.63-7.51s17-.42,27.63-7.09c1.09-.67,27.13-17.28,27.55-46.42.42-27.54-21.79-43.57-22.79-44.24A55.76,55.76,0,0,0,108.1.83V0a107.9,107.9,0,0,1,76.3,184.4A107.08,107.08,0,0,1,108.1,216.2ZM121.79,1.67a54.89,54.89,0,0,1,18.28,8.26c.92.67,23.54,17,23.12,44.91-.41,29.55-26.79,46.42-27.88,47.08-10.77,6.76-19.53,6.93-28,7.18-8.77.25-17,.42-27.22,7.35-14.94,10.1-24.54,28-24.46,45.32.09,18.7,10.52,31.72,15,36.48,13.77,14.44,30.89,16.7,37.56,17a107.08,107.08,0,0,0,75.72-183A107.57,107.57,0,0,0,121.79,1.67Z"/><path class="cls-1" d="M95.83,141c1.33-2.92,2.67-5.93,4-8.85h14.35v54.34h-10.1V141Z"/><path class="cls-1" d="M114.53,186.9H103.59V141.41H95.16l4.43-9.69h15V186.9Zm-10.1-.83h9.26V132.56h-13.6l-3.68,8h8Z"/><path class="cls-1" d="M108.1,216.2A108.1,108.1,0,1,1,216.2,108.1,108.23,108.23,0,0,1,108.1,216.2ZM108.1.83A107.27,107.27,0,1,0,215.37,108.1,107.4,107.4,0,0,0,108.1.83Z"/></svg>