<?xml version="1.0" encoding="utf-8"?>
<!-- Generator: Adobe Illustrator 23.1.0, SVG Export Plug-In . SVG Version: 6.00 Build 0)  -->
<svg version="1.1" id="Camada_1" xmlns="http://www.w3.org/2000/svg" xmlns:xlink="http://www.w3.org/1999/xlink" x="0px" y="0px"
	 viewBox="0 0 889.4 259.4" style="enable-background:new 0 0 889.4 259.4;" xml:space="preserve">
<style type="text/css">
	.st0{fill:#FFFFFF;}
	.st1{fill:#262626;}
	.st2{fill:#323333;}
</style>
<g>
	<path class="st0" d="M258.8,129.7c0,71.2-57.8,129-129,129s-129-57.8-129-129c0-71.2,57.8-129,129-129S258.8,58.4,258.8,129.7"/>
	<path class="st1" d="M129.8,259.2c-71.4,0-129.5-58.1-129.5-129.5C0.3,58.3,58.4,0.2,129.8,0.2s129.5,58.1,129.5,129.5
		C259.3,201.1,201.2,259.2,129.8,259.2z M129.8,1.2C59,1.2,1.3,58.8,1.3,129.7c0,70.9,57.6,128.5,128.5,128.5
		s128.5-57.6,128.5-128.5C258.3,58.8,200.7,1.2,129.8,1.2z"/>
	<path class="st2" d="M129.8,0.7c6.4,0,22.5,0.9,38,11.9c1.3,0.9,27.9,20.4,27.5,53.4c-0.5,34.9-30.9,54.5-33.2,56
		c-25.8,16.1-41.8,0.8-66.2,17.5c-16,10.9-29.6,31.3-29.5,54.7c0.1,24.2,14.7,40.3,18.1,44c17.9,18.8,40.6,20.3,45.4,20.5
		c70.8,0,129-58.2,129-129S200.6,0.7,129.8,0.7"/>
	<path class="st1" d="M129.8,259.2c-8.2-0.4-29-3.1-45.7-20.7c-5.5-5.8-18.2-21.6-18.3-44.4C65.8,173,77.4,151.3,95.6,139
		c12.5-8.5,23-8.7,33.1-9c10-0.3,20.4-0.5,33.1-8.5c1.3-0.8,32.5-20.7,33-55.6c0.5-33-26.1-52.2-27.3-53
		C153.1,2.8,137.7,1.2,129.8,1.2l0-1c34.4,0,66.8,13.5,91.4,38.1s38.1,57,38.1,91.4s-13.5,66.8-38.1,91.4
		C196.7,245.7,164.2,259.2,129.8,259.2z M146.2,2.2c6.8,1.7,14.5,4.7,21.9,9.9c1.1,0.8,28.2,20.3,27.7,53.8
		c-0.5,35.4-32.1,55.6-33.4,56.4c-12.9,8.1-23.4,8.3-33.6,8.6c-10.5,0.3-20.4,0.5-32.6,8.8c-17.9,12.1-29.4,33.5-29.3,54.3
		c0.1,22.4,12.6,38,18,43.7c16.5,17.3,37,20,45,20.4c34.1,0,66.3-13.4,90.7-37.8s37.8-56.6,37.8-90.7c0-34.1-13.4-66.3-37.8-90.7
		C200.1,18.6,174.2,5.8,146.2,2.2z"/>
	<path class="st2" d="M156.1,57.5c0,0-0.4,0-0.5-0.2c0,0,0-0.1,0-0.1c0-2.5,0.1-5,0.1-7.5c0,0,0,0-0.1,0c-0.1,0-0.2,0-0.3-0.1
		c-0.1-0.1-0.2-0.2-0.2-0.2c0,0,0-0.1,0-0.1c-0.1-0.3-0.2-0.8-0.1-0.9c0,0,0.1,0,0.1,0c0,0,0,0,0.1,0c0,0,0,0,0,0c0.1,0,0.3,0,0.7,0
		c-0.6-5.3-0.8-7.7-0.9-8.5c0-0.1,0-0.2,0-0.4c-0.1-0.5-0.1-1.3-0.3-2.3c-0.1-0.8-0.3-1.8-0.5-2.8c-0.1-0.3-0.1-0.6-0.1-0.8
		c0-0.2,0-0.3,0.1-0.4c0.1-0.1,0.2-0.3,0.2-0.3c0.1-0.1,0.1-0.1,0.1-0.2c0-0.1,0-0.3-0.1-0.3c-0.2-0.4-0.3-0.5-0.5-0.7
		c-0.1-0.1-0.2-0.3-0.2-0.6c0,0.1,0,0.2-0.1,0.4c-0.1,0.2-0.2,0.2-0.3,0.5c-0.1,0.2-0.2,0.4-0.2,0.5c0,0.3,0,0.5,0,0.5
		c0.1,0.2,0.1,0.2,0.2,0.4c0,0.2,0,0.3,0,0.5c0,0.3,0,0.5,0,0.5c0,0.3-0.2,1.4-0.5,2.9c0,0.2-0.1,0.5-0.1,0.7
		c-0.2,1-0.6,3.8-1.2,10.4c0.2,0,0.4,0,0.6,0c0,0,0.1,0,0.1,0c0,0,0,0,0.1,0c0,0,0,0,0,0.1c0,0.1,0,0.1,0,0.1c0,0.3,0,0.4,0,0.4
		c0,0.2-0.1,0.3-0.1,0.4c0,0.1-0.1,0.1-0.1,0.2c0,0-0.1,0.1-0.1,0.1c-0.1,0-0.1,0-0.2,0.1c-0.1,0-0.1,0-0.2,0c0,1.9,0.1,3.9,0.1,5.8
		l-0.7-1c0-1.6,0-3.2,0-4.9c0,0-0.1,0-0.1,0c-0.1,0-0.2,0-0.3-0.1c-0.1-0.1-0.2-0.1-0.2-0.2c0,0,0-0.1-0.1-0.1
		c-0.1-0.2-0.1-0.4-0.1-0.5c0-0.1,0-0.2,0-0.3c0,0,0,0,0-0.1c0,0,0,0,0,0c0,0,0.1,0,0.1,0c0.1,0,0.1,0,0.2,0c0.1,0,0,0,0.1,0
		c0.1,0,0.1,0,0.2,0c-0.6-4.9-1.2-9.9-1.9-14.8c0,0,0-0.1,0-0.2c0,0,0-0.1,0.1-0.2c0.1-0.1,0.1-0.2,0.1-0.2c0.1-0.1,0.1-0.1,0.1-0.2
		c0,0,0-0.1,0-0.2c0-0.1-0.1-0.2-0.1-0.3c-0.1-0.1-0.2-0.3-0.3-0.4c-0.1-0.1-0.1-0.2-0.2-0.3c0-0.1-0.1-0.3-0.1-0.5
		c0,0.1,0,0.2-0.1,0.3c0,0-0.1,0.2-0.2,0.3c-0.1,0.1-0.1,0.1-0.3,0.3c-0.1,0.1-0.1,0.2-0.2,0.3c0,0.1-0.1,0.2-0.1,0.3
		c0,0.1,0,0.2,0,0.3c0,0.1,0.1,0.2,0.1,0.2c0,0.1,0,0.1,0.1,0.1c0,0.1,0.1,0.2,0.1,0.3c0,0.1,0,0.1,0,0.3c0,0.2,0,0.3,0,0.5
		c0,0.1,0,0.2,0,0.3c0,0,0,0,0,0c0,0.1-0.6,4.1-1.9,13.7c0.2,0,0.5,0,0.7,0c0.1,0,0.1,0,0.1,0c0,0,0,0,0.1,0c0,0,0,0,0,0.1
		c0,0,0,0.1,0,0.1c0,0.2,0,0.3,0,0.4c-0.1,0.3-0.1,0.4-0.2,0.5c0,0.1-0.1,0.1-0.1,0.1c-0.1,0-0.1,0.1-0.2,0.1c-0.1,0-0.1,0-0.3,0
		c0,0.2,0,0.4,0,0.5c0.1,0.2,0.2,0.3,0.2,0.5c0,0.1,0,0.2-0.1,0.2c-0.2-0.1-0.4-0.1-0.6-0.2c-0.3-0.1-0.5-0.3-0.6-0.3
		c-0.3-0.1-0.6-0.4-1.2-0.6c0.2,0.7,0.4,1.3,0.6,2c-0.1,0.7-0.2,1.2-0.4,1.6c-0.2,0.7-0.4,1.2-0.8,1.7c-0.3,0.3-0.6,0.5-0.7,0.6
		c-0.8,0.4-1.6,0.3-1.9,0.3c-0.2,0-2-0.3-2.6-1.7c-0.1-0.2-0.1-0.4-0.2-0.8c-0.1-0.6-0.1-1.1-0.1-1.3c-0.1-0.9-0.3-1.9-0.4-2.1
		c-0.1-0.4-0.2-0.6-0.2-1c0,0-0.1-0.5-0.1-0.9c0,0,0-0.1,0.1-0.2c0,0,0,0,0.1,0c0,0,0.1,0,0.2,0.1l2.2,0.6c0.1,0,0.1-0.1,0.2-0.1
		c0-0.1,0-0.1,0-0.2c0-0.1,0-0.3,0.1-0.4c0,0,0.1-0.2,0.2-0.2c0.1,0,0.1,0,0.2,0c0.1,0,0.2,0,0.4,0c0.1-0.3,0.1-0.5,0.2-0.7
		c0-0.1,0.1-0.2,0-0.3c0-0.1-0.1-0.1-0.1-0.1c-0.6-0.3-0.9-0.4-0.9-0.4c-0.9-0.1-0.9-0.5-2.1-0.7c-0.4-0.1-0.8-0.1-1.4-0.3
		c-0.2-0.1-0.5-0.2-0.6-0.4c-0.1-0.2-0.1-0.5-0.1-0.5c0-0.1,0.1-0.2,0.2-0.3c0.1-0.2,0.2-0.3,0.3-0.4c0-0.1,0-0.2,0-0.3
		c-0.2-0.3-0.4-0.6-0.6-0.9c0,0-0.1-0.1-0.2-0.1c-0.3-0.1-0.5,0-0.7-0.1c-0.2-0.1-0.4-0.3-0.4-0.3c-0.1-0.1-0.1-0.2-0.2-0.5
		c-0.1-0.1-0.1-0.2-0.2-0.3c-0.1-0.1-0.1-0.2-0.3-0.4c-0.1-0.1-0.2-0.2-0.3-0.3c-0.1,0-0.3-0.1-0.5-0.1c-0.1,0-0.2,0-0.3,0
		c0,0.1-0.1,0.2-0.3,0.3c-0.1,0-0.2,0.1-0.5,0.1c-0.1,0-0.2-0.1-0.4-0.2c0,0-0.2-0.2-0.5-0.4c-0.2-0.2-0.2-0.3-0.2-0.3
		c0,0-0.1-0.2,0-0.4c0.1-0.2,0.2-0.2,0.3-0.3c0.1-0.1,0.3-0.1,0.4-0.1c0.8,0,1.5,0,2.3,0c0,0,0.3,0,0.4-0.2c0,0,0.1-0.1,0-0.4
		c-0.1-0.2-0.2-0.4-0.5-0.7c-0.2-0.2-0.4-0.4-0.8-0.5c-0.2-0.1-0.3-0.1-0.5-0.3c-0.1-0.1-0.1-0.2-0.1-0.3c0-0.1,0-0.3,0.1-0.5
		c0-0.2,0.1-0.4,0.1-0.6c0.1-0.1,0.1-0.2,0.2-0.3c0.4-0.5,0.5-0.5,0.6-0.7c0.2-0.3,0.3-0.6,0.3-0.7c0-0.1,0-0.2,0-0.4
		c0-0.2,0-0.5-0.1-0.9c-0.1-0.3-0.2-0.6-0.2-0.7c0-0.5,0.1-0.8,0.1-1c0.1-0.3,0.2-0.3,0.2-0.6c0-0.3,0-0.5-0.1-0.8
		c-0.1-0.2-0.2-0.6-0.4-1c-0.2-0.5-0.3-0.9-0.4-1.2c0-0.1-0.1-0.4-0.3-0.6c-0.1-0.1-0.2-0.2-0.4-0.2c-0.2,0-0.4,0.1-0.5,0.3
		c0,0.1-0.1,0.1-0.2,0.2c-0.1,0-0.2,0-0.2,0c-0.1,0-0.2-0.1-0.2-0.2c0-0.3,0.1-0.6,0.1-0.8c0-0.8-0.1-0.9,0-1.4
		c0-0.2,0.1-0.3,0.1-0.5c0-0.2,0-0.4-0.2-0.6c-0.1-0.2-0.3-0.2-0.6-0.3c-0.3-0.1-0.5-0.2-0.8-0.1c-0.2,0.1-0.5,0.2-0.6,0.3
		c-0.2,0.1-0.2,0.2-0.4,0.2c-0.1,0-0.2,0-0.3,0c-0.3,0-0.6,0.1-0.8,0.3c-0.2,0.2-0.2,0.4-0.3,0.7c-0.3,1.3-0.3,1-0.4,1.7
		c0,0-0.1,0.5,0,2c0,0.1,0,0.2,0.1,0.3c0,0,0.1,0.2,0.3,0.3c0.2,0.1,0.5,0,0.5,0c0.2-0.1,0.2-0.2,0.4-0.2c0.1,0,0.2,0,0.2,0
		c0.1,0,0.1,0.1,0.1,0.2c-0.1,0-0.7,0.4-1.1,0.6c0,0-0.1,0-0.1,0.1c-0.2,0.1-0.3,0.2-0.4,0.4c-0.1,0.2-0.1,0.3,0,0.3
		c0.1,0.3,0.3,0.5,0.4,0.5c0,0.1,0.1,0.2,0,0.3c0,0.1-0.2,0.2-0.4,0.3c-0.1,0-0.3,0.1-0.5,0.1c-0.2,0-0.4,0-0.5-0.1
		c0,0.3-0.1,0.5-0.1,0.6c0,0.1,0,0.2,0,0.3c0,0.3,0.2,0.3,0.2,0.5c0,0.1,0,0.1,0,0.5c-0.1,0.5,0,0.6,0,0.6c0,0.1,0.1,0.3,0.3,0.4
		c0.3,0.1,0.5,0.2,0.6,0.2c0.1,0,0.2,0,0.5,0c0.2,0,0.3,0.1,0.4,0.1c0.1,0.1,0.1,0.2,0.1,0.3c0,0.1,0.3,1,0.3,1.4
		c0,0.1,0,0.2-0.1,0.2c-0.1,0.1-0.2,0.1-0.3,0.1c-0.1,0-0.1,0-0.2,0c-0.1,0-0.2,0-0.4,0.1c0,0.1,0,0.2,0,0.4c0,0,0,0.2,0,0.3
		c-0.1,0.4-0.5,0.8-0.7,1.1c0,0,0,0.1-0.1,0.2c0,0.1,0,0.1,0,0.2c0.1,0.1,0.2,0.1,0.2,0.1c0.2,0,1.5-0.1,2.1,0
		c0.2,0,0.3,0.1,0.5,0.2c0,0,0.1,0.2,0.1,0.4c0,0.2-0.2,0.3-0.4,0.5c-0.3,0.3-0.5,0.4-0.6,0.4c-0.2,0.1-0.3,0.1-0.4,0.1
		c0,0,0,0-0.3-0.1c-0.1-0.1-0.2-0.1-0.2-0.1c-0.1,0-0.2,0-0.3,0c-0.3,0.1-0.5,0.2-0.8,0.3c0,0-0.1,0.1-0.2,0.1
		c-0.1,0.1-0.1,0.2-0.1,0.2c-0.2,0.6-0.2,0.7-0.3,0.9c0,0.1-0.2,0.3-0.5,0.3c-0.1,0-0.3,0-0.3,0c-0.1,0-0.1,0-0.2,0
		c-0.1,0-0.2,0.1-0.2,0.1c-0.3,0.4-0.6,0.6-0.7,0.7c0,0-0.1,0.1-0.1,0.2c0,0.1,0,0.2,0,0.2c0.1,0.3,0.3,0.5,0.4,0.8
		c0,0,0.1,0.3-0.1,0.5c-0.1,0.2-0.4,0.3-0.6,0.4c-0.6,0.2-1,0.2-1.4,0.3c-1.2,0.2-1.3,0.6-2.1,0.7c0,0-0.3,0-0.9,0.4
		c0,0-0.1,0-0.1,0.1c0,0.1,0,0.2,0,0.3c0.1,0.1,0.1,0.4,0.2,0.7c0.2,0,0.3,0,0.4,0c0.1,0,0.2,0,0.2,0c0.1,0.1,0.2,0.2,0.2,0.2
		c0.1,0.2,0.1,0.4,0.1,0.4c0,0.1,0,0.2,0,0.2c0,0.1,0.1,0.1,0.2,0.1l2.2-0.6c0.1,0,0.2-0.1,0.2-0.1c0.1,0,0.1,0,0.1,0
		c0.1,0,0.1,0.1,0.1,0.2c0,0.4-0.1,0.9-0.1,0.9c-0.1,0.4-0.1,0.5-0.2,1c-0.1,0.2-0.3,1.2-0.4,2.2c0,0.2,0,0.7-0.1,1.3
		c-0.1,0.5-0.1,0.7-0.2,0.8c-0.5,1.4-2.3,1.6-2.6,1.7c-0.3,0-1.1,0.1-1.9-0.3c-0.1,0-0.4-0.2-0.7-0.6c-0.4-0.5-0.6-0.9-0.8-1.7
		c-0.1-0.4-0.3-0.9-0.4-1.6c0.2-0.7,0.4-1.3,0.6-2c-0.5,0.2-0.9,0.4-1.2,0.6c-0.1,0.1-0.3,0.2-0.6,0.3c-0.2,0.1-0.4,0.2-0.5,0.2
		c0,0-0.1-0.1-0.1-0.2c0-0.2,0.1-0.3,0.2-0.5c0-0.1,0.1-0.3,0-0.5c-0.1,0-0.2,0-0.3,0c-0.1,0-0.1,0-0.2-0.1c-0.1,0-0.1-0.1-0.1-0.1
		c0-0.1-0.1-0.2-0.2-0.5c0-0.1,0-0.2,0-0.4c0,0,0-0.1,0-0.1c0,0,0,0,0-0.1c0,0,0,0,0.1,0c0,0,0.1,0,0.1,0c0.2,0,0.5,0,0.7,0
		c-1.3-9.6-1.9-13.6-1.9-13.7c0,0,0,0,0,0c0-0.1,0-0.2,0-0.3c0-0.2,0-0.3,0-0.5c0-0.2,0-0.3,0-0.3c0-0.1,0-0.2,0.1-0.3
		c0-0.1,0-0.1,0.1-0.1c0,0,0-0.1,0.1-0.2c0-0.1,0-0.2,0-0.3c0-0.1-0.1-0.2-0.1-0.3c-0.1-0.1-0.1-0.2-0.2-0.3
		c-0.1-0.2-0.2-0.2-0.3-0.3c-0.1-0.2-0.2-0.3-0.2-0.4c0-0.1-0.1-0.2-0.1-0.3c0,0.2-0.1,0.4-0.1,0.5c0,0.1-0.1,0.2-0.2,0.3
		c-0.1,0.1-0.2,0.3-0.3,0.4c-0.1,0.1-0.1,0.2-0.1,0.3c0,0.1,0,0.2,0,0.2c0,0.1,0,0.1,0.1,0.2c0,0,0.1,0.1,0.1,0.2
		c0.1,0.1,0.1,0.2,0.1,0.2c0,0.1,0,0.1,0,0.2c-0.6,4.9-1.2,9.9-1.9,14.8c0.1,0,0.2,0,0.2,0c0.1,0,0.1,0,0.1,0c0.1,0,0.1,0,0.2,0
		c0,0,0.1,0,0.1,0c0,0,0,0,0,0c0,0,0,0.1,0,0.1c0,0.1,0,0.2,0,0.3c0,0.1,0,0.3-0.1,0.5c0,0.1,0,0.1-0.1,0.1c0,0-0.1,0.1-0.2,0.2
		c-0.1,0-0.1,0-0.3,0.1c0,0-0.1,0-0.1,0l0,4.9c-0.2,0.3-0.5,0.6-0.7,1c0-1.9,0.1-3.9,0.1-5.8c0,0-0.1,0-0.2,0c-0.1,0-0.1,0-0.2-0.1
		c-0.1,0-0.1-0.1-0.1-0.1c-0.1-0.1-0.1-0.1-0.1-0.2c-0.1-0.1-0.1-0.2-0.1-0.4c0,0,0-0.1,0-0.4c0,0,0,0,0-0.1c0,0,0,0,0-0.1
		c0,0,0,0,0.1,0c0.1,0,0.1,0,0.1,0c0.2,0,0.4,0,0.6,0c-0.7-6.6-1-9.4-1.2-10.4c0-0.2-0.1-0.5-0.1-0.7c-0.3-1.5-0.5-2.6-0.5-2.9
		c0,0,0-0.2,0-0.5c0-0.2,0-0.3,0-0.5c0.1-0.2,0.1-0.2,0.1-0.4c0-0.1,0.1-0.3,0-0.5c0-0.2-0.1-0.3-0.2-0.5c-0.2-0.3-0.2-0.3-0.3-0.5
		c-0.1-0.2-0.1-0.3-0.1-0.4c0,0.3-0.1,0.5-0.2,0.6c-0.1,0.2-0.3,0.4-0.5,0.7c0,0.1-0.1,0.2-0.1,0.3c0,0.1,0,0.1,0.1,0.2
		c0,0,0.1,0.2,0.2,0.3c0,0.1,0.1,0.2,0.1,0.4c0,0.2-0.1,0.4-0.1,0.8c-0.2,1.1-0.3,2-0.5,2.8c-0.1,1-0.2,1.8-0.3,2.3
		c0,0.2,0,0.3,0,0.4c-0.1,0.8-0.3,3.2-0.9,8.5c0.3,0,0.6,0,0.7,0c0,0,0,0,0,0c0,0,0.1,0,0.1,0c0,0,0,0,0.1,0c0.1,0.1,0,0.6-0.1,0.9
		c0,0,0,0,0,0.1c0,0-0.1,0.1-0.2,0.2c-0.1,0-0.1,0-0.3,0.1c0,0-0.1,0-0.1,0c0,2.5,0.1,5,0.1,7.5c0,0,0,0.1,0,0.1
		c-0.1,0.2-0.5,0.2-0.5,0.2c-0.7,0-1.3,0-2,0c0.1,0.1,0.2,0.3,0.3,0.6c0.1,0.3,0,0.5,0,0.6c0.1,0.1,0.1,0.2,0.2,0.3
		c0.2,0.3,0.3,0.5,0.3,0.7c0.2,0,0.4,0,0.7-0.1c0.3-0.1,0.5-0.2,0.6-0.3c0.1,0,0.2,0.1,0.3,0.2c0.2,0.2,0,0.5,0,0.6
		c-0.1,0.4-0.1,16.9,0,44.8c5,0,10,0,15.1,0V79.2c0.4-5.6,5-10,10.6-10.1c5.7-0.1,10.5,4.4,10.8,10.1v25.7h14.8
		c0-14.9,0-29.8,0-44.8c-0.1-0.2-0.1-0.4,0-0.6c0.1-0.1,0.3-0.2,0.3-0.2c0.1,0.1,0.3,0.2,0.6,0.3c0.3,0.1,0.5,0.1,0.7,0.1
		c0.1-0.5,0.3-1.1,0.6-1.7c0.1-0.2,0.2-0.4,0.3-0.6C157.4,57.5,156.7,57.5,156.1,57.5 M127.9,26.5c-0.1-0.5,0.2-0.9,0.2-0.9
		c0,0,0.2,0.8,0.2,0.8c0,0,0.2,0.7,0.2,0.7C128.4,27.1,128,26.9,127.9,26.5 M128.6,26.1c-0.1-0.4-0.2-0.7-0.3-1
		c0.4,0.4,0.5,0.8,0.6,1c0,0.2,0.1,0.4,0.1,0.5c0,0.3,0.1,0.6,0.1,0.8C128.9,27,128.7,26.6,128.6,26.1"/>
	<path class="st2" d="M126.7,18.3c0.2,1,0.4,1.9,0.7,2.9l0.7,2.8l1.4,5.7l-0.3,0.1c-0.4-1.9-0.8-3.7-1.2-5.7
		C127.6,22.3,127.2,20.3,126.7,18.3 M126.7,18.3c0.4,1.8,0.9,3.7,1.4,5.6c0.5,1.9,0.9,3.9,1.4,5.8l-0.3,0.1
		c-0.4-1.9-0.9-3.8-1.3-5.7l-0.6-2.9C127,20.3,126.9,19.3,126.7,18.3"/>
	<path class="st0" d="M115.1,169.1c1.6-3.5,3.2-7.1,4.8-10.6c5.7,0,11.4,0,17.2,0v65.1h-12.1v-54.5H115.1z"/>
	<path class="st1" d="M137.5,224.1h-13.1v-54.5h-10.1l5.3-11.6l18,0V224.1z M125.4,223.1h11.1V159l-16.3,0l-4.4,9.6h9.6V223.1z"/>
</g>
<g>
	<path class="st2" d="M345,110.4c0.7,0,1.3,0.3,1.8,0.8l5,5.4c-3.8,4.4-8.4,7.9-13.9,10.3c-5.4,2.5-12,3.7-19.7,3.7
		c-6.7,0-12.7-1.2-18.2-3.5c-5.5-2.3-10.1-5.6-14-9.8c-3.9-4.2-6.8-9.2-9-15c-2.1-5.9-3.2-12.3-3.2-19.3s1.1-13.5,3.3-19.3
		c2.2-5.8,5.3-10.9,9.3-15.1c4-4.2,8.8-7.5,14.4-9.8c5.6-2.3,11.8-3.5,18.5-3.5c6.6,0,12.5,1.1,17.5,3.2c5.1,2.1,9.5,5,13.4,8.6
		l-4.2,5.8c-0.3,0.4-0.6,0.8-1,1.1c-0.4,0.3-1,0.4-1.7,0.4c-0.8,0-1.7-0.4-2.9-1.3c-1.1-0.8-2.6-1.8-4.4-2.8c-1.8-1-4.1-2-6.8-2.8
		c-2.7-0.8-6.1-1.3-10.1-1.3c-4.8,0-9.2,0.8-13.2,2.5c-4,1.7-7.4,4.1-10.3,7.2c-2.9,3.2-5.1,7-6.7,11.6c-1.6,4.5-2.4,9.7-2.4,15.4
		c0,5.8,0.8,11,2.5,15.5c1.7,4.5,3.9,8.4,6.8,11.5c2.9,3.1,6.3,5.5,10.2,7.2c3.9,1.6,8.2,2.5,12.7,2.5c2.8,0,5.3-0.2,7.5-0.5
		c2.2-0.3,4.3-0.8,6.2-1.5c1.9-0.7,3.6-1.6,5.3-2.6c1.6-1.1,3.2-2.3,4.8-3.8C343.5,110.7,344.3,110.4,345,110.4z"/>
	<path class="st2" d="M391.5,62.8c4.8,0,9.1,0.8,13,2.4c3.9,1.6,7.1,3.9,9.9,6.8c2.7,2.9,4.8,6.5,6.3,10.7c1.5,4.2,2.2,8.9,2.2,14
		c0,5.2-0.7,9.9-2.2,14c-1.5,4.2-3.5,7.7-6.3,10.7c-2.7,2.9-6,5.2-9.9,6.8c-3.9,1.6-8.2,2.4-13,2.4c-4.9,0-9.2-0.8-13.1-2.4
		c-3.9-1.6-7.2-3.8-9.9-6.8c-2.7-2.9-4.8-6.5-6.3-10.7c-1.5-4.2-2.2-8.8-2.2-14c0-5.2,0.7-9.8,2.2-14c1.5-4.2,3.5-7.7,6.3-10.7
		c2.7-2.9,6-5.2,9.9-6.8C382.3,63.6,386.6,62.8,391.5,62.8z M391.5,121.5c6.5,0,11.4-2.2,14.6-6.5c3.2-4.4,4.8-10.4,4.8-18.2
		c0-7.8-1.6-14-4.8-18.3c-3.2-4.4-8.1-6.6-14.6-6.6c-3.3,0-6.2,0.6-8.6,1.7c-2.4,1.1-4.5,2.8-6.1,4.9c-1.6,2.1-2.8,4.7-3.6,7.8
		c-0.8,3.1-1.2,6.6-1.2,10.5c0,7.8,1.6,13.9,4.8,18.2C380,119.3,384.9,121.5,391.5,121.5z"/>
	<path class="st2" d="M491.9,33.9v95.7H485c-1.6,0-2.7-0.8-3.1-2.4l-1-8c-2.8,3.4-6,6.1-9.6,8.2c-3.6,2.1-7.8,3.1-12.5,3.1
		c-3.8,0-7.2-0.7-10.3-2.2c-3.1-1.5-5.7-3.6-7.9-6.4c-2.2-2.8-3.8-6.3-5-10.5c-1.2-4.2-1.8-9-1.8-14.5c0-4.9,0.7-9.4,2-13.6
		c1.3-4.2,3.2-7.8,5.6-10.9c2.4-3.1,5.4-5.5,8.9-7.2c3.5-1.8,7.5-2.6,11.9-2.6c4,0,7.5,0.7,10.4,2c2.9,1.4,5.4,3.3,7.7,5.7V33.9
		H491.9z M480.3,79.5c-2.2-2.9-4.5-4.9-7-6.1c-2.5-1.1-5.3-1.7-8.5-1.7c-6.1,0-10.8,2.2-14.1,6.6c-3.3,4.4-4.9,10.6-4.9,18.7
		c0,4.3,0.4,8,1.1,11c0.7,3.1,1.8,5.6,3.2,7.5c1.4,2,3.2,3.4,5.3,4.3s4.4,1.4,7.1,1.4c3.8,0,7.1-0.9,10-2.6c2.8-1.7,5.4-4.2,7.8-7.3
		V79.5z"/>
	<path class="st2" d="M563.7,120.4c-1.4,1.7-3.1,3.2-5.1,4.5c-2,1.3-4.1,2.3-6.4,3.2c-2.3,0.8-4.6,1.4-7.1,1.9
		c-2.4,0.4-4.8,0.6-7.2,0.6c-4.5,0-8.7-0.8-12.6-2.3s-7.2-3.8-9.9-6.8c-2.8-3-5-6.6-6.5-11c-1.6-4.4-2.3-9.4-2.3-15.1
		c0-4.6,0.7-8.9,2.1-12.9c1.4-4,3.4-7.4,6.1-10.4c2.6-2.9,5.9-5.2,9.7-6.9c3.8-1.7,8.1-2.5,12.9-2.5c3.9,0,7.6,0.7,11,2
		c3.4,1.3,6.3,3.2,8.7,5.7c2.4,2.5,4.4,5.6,5.8,9.2c1.4,3.7,2.1,7.8,2.1,12.5c0,1.8-0.2,3-0.6,3.6c-0.4,0.6-1.1,0.9-2.2,0.9h-44
		c0.1,4.2,0.7,7.8,1.7,10.9c1,3.1,2.4,5.6,4.3,7.7c1.8,2.1,4,3.6,6.5,4.6c2.5,1,5.3,1.5,8.4,1.5c2.9,0,5.4-0.3,7.5-1
		c2.1-0.7,3.9-1.4,5.4-2.2c1.5-0.8,2.8-1.5,3.8-2.2c1-0.7,1.9-1,2.6-1c1,0,1.7,0.4,2.2,1.1L563.7,120.4z M554.3,89.5
		c0-2.7-0.4-5.1-1.1-7.4c-0.8-2.2-1.9-4.2-3.3-5.8c-1.5-1.6-3.2-2.9-5.3-3.8c-2.1-0.9-4.4-1.3-7.1-1.3c-5.5,0-9.9,1.6-13.2,4.8
		c-3.2,3.2-5.2,7.7-6,13.4H554.3z"/>
	<path class="st2" d="M589.9,77c2.1-4.5,4.6-8,7.7-10.6c3-2.5,6.7-3.8,11.1-3.8c1.4,0,2.7,0.2,4,0.5c1.3,0.3,2.4,0.8,3.4,1.4
		l-0.8,8.6c-0.3,1.1-0.9,1.6-2,1.6c-0.6,0-1.5-0.1-2.7-0.4s-2.5-0.4-4-0.4c-2.1,0-3.9,0.3-5.6,0.9c-1.6,0.6-3.1,1.5-4.4,2.7
		c-1.3,1.2-2.4,2.7-3.4,4.4c-1,1.8-1.9,3.8-2.8,6v41.6h-11.6V63.8h6.6c1.3,0,2.1,0.2,2.6,0.7c0.5,0.5,0.8,1.3,1,2.5L589.9,77z"/>
	<path class="st2" d="M709.7,83.1c0,7-1.1,13.3-3.3,19c-2.2,5.7-5.3,10.6-9.4,14.7c-4,4.1-8.9,7.2-14.5,9.5
		c-5.7,2.2-11.9,3.3-18.8,3.3h-34.8V36.5h34.8c6.8,0,13.1,1.1,18.8,3.3c5.7,2.2,10.5,5.4,14.5,9.5c4,4.1,7.1,9,9.4,14.7
		C708.5,69.8,709.7,76.1,709.7,83.1z M696.7,83.1c0-5.7-0.8-10.8-2.3-15.3c-1.6-4.5-3.8-8.3-6.6-11.4c-2.9-3.1-6.3-5.5-10.4-7.2
		c-4.1-1.6-8.6-2.5-13.7-2.5h-22.2v72.7h22.2c5,0,9.6-0.8,13.7-2.5c4.1-1.6,7.5-4,10.4-7.1c2.9-3.1,5.1-6.9,6.6-11.4
		C695.9,93.9,696.7,88.8,696.7,83.1z"/>
	<path class="st2" d="M752.8,62.8c4.8,0,9.1,0.8,13,2.4c3.9,1.6,7.2,3.9,9.9,6.8c2.7,2.9,4.8,6.5,6.3,10.7c1.5,4.2,2.2,8.9,2.2,14
		c0,5.2-0.7,9.9-2.2,14c-1.5,4.2-3.5,7.7-6.3,10.7c-2.7,2.9-6,5.2-9.9,6.8c-3.9,1.6-8.2,2.4-13,2.4c-4.9,0-9.2-0.8-13.1-2.4
		c-3.9-1.6-7.2-3.8-9.9-6.8c-2.7-2.9-4.8-6.5-6.3-10.7c-1.5-4.2-2.2-8.8-2.2-14c0-5.2,0.7-9.8,2.2-14c1.5-4.2,3.5-7.7,6.3-10.7
		c2.7-2.9,6-5.2,9.9-6.8C743.6,63.6,748,62.8,752.8,62.8z M752.8,121.5c6.5,0,11.4-2.2,14.6-6.5c3.2-4.4,4.8-10.4,4.8-18.2
		c0-7.8-1.6-14-4.8-18.3c-3.2-4.4-8.1-6.6-14.6-6.6c-3.3,0-6.2,0.6-8.6,1.7c-2.4,1.1-4.5,2.8-6.1,4.9c-1.6,2.1-2.8,4.7-3.6,7.8
		c-0.8,3.1-1.2,6.6-1.2,10.5c0,7.8,1.6,13.9,4.8,18.2C741.3,119.3,746.2,121.5,752.8,121.5z"/>
	<path class="st2" d="M811,63.8v70.7c0,2.6-0.3,5.1-1,7.4c-0.7,2.3-1.8,4.3-3.3,5.9c-1.5,1.7-3.5,3-5.8,4c-2.4,1-5.2,1.5-8.5,1.5
		c-1.4,0-2.7-0.1-3.8-0.3c-1.2-0.2-2.3-0.5-3.5-1l0.5-6.2c0.1-0.4,0.2-0.7,0.4-0.9c0.2-0.2,0.5-0.3,0.8-0.4s0.8-0.1,1.3,0
		c0.5,0,1.2,0,2,0c3.4,0,5.8-0.8,7.2-2.4c1.4-1.6,2.1-4.1,2.1-7.6V63.8H811z M813.4,43.1c0,1.1-0.2,2.2-0.7,3.2
		c-0.5,1-1.1,1.8-1.8,2.6c-0.8,0.8-1.6,1.4-2.6,1.8c-1,0.4-2.1,0.6-3.2,0.6s-2.2-0.2-3.2-0.6c-1-0.4-1.8-1-2.6-1.8
		c-0.7-0.8-1.3-1.6-1.8-2.6c-0.4-1-0.7-2-0.7-3.2c0-1.1,0.2-2.2,0.7-3.2c0.4-1,1-1.9,1.8-2.7c0.7-0.8,1.6-1.4,2.6-1.8
		c1-0.4,2-0.6,3.2-0.6s2.2,0.2,3.2,0.6c1,0.4,1.9,1,2.6,1.8c0.8,0.8,1.4,1.6,1.8,2.7C813.2,40.9,813.4,42,813.4,43.1z"/>
	<path class="st2" d="M857.7,62.8c4.8,0,9.1,0.8,13,2.4c3.9,1.6,7.2,3.9,9.9,6.8c2.7,2.9,4.8,6.5,6.3,10.7c1.5,4.2,2.2,8.9,2.2,14
		c0,5.2-0.7,9.9-2.2,14c-1.5,4.2-3.5,7.7-6.3,10.7c-2.7,2.9-6,5.2-9.9,6.8c-3.9,1.6-8.2,2.4-13,2.4c-4.9,0-9.2-0.8-13.1-2.4
		c-3.9-1.6-7.2-3.8-9.9-6.8c-2.7-2.9-4.8-6.5-6.3-10.7c-1.5-4.2-2.2-8.8-2.2-14c0-5.2,0.7-9.8,2.2-14c1.5-4.2,3.5-7.7,6.3-10.7
		c2.7-2.9,6-5.2,9.9-6.8C848.5,63.6,852.9,62.8,857.7,62.8z M857.7,121.5c6.5,0,11.4-2.2,14.6-6.5c3.2-4.4,4.8-10.4,4.8-18.2
		c0-7.8-1.6-14-4.8-18.3c-3.2-4.4-8.1-6.6-14.6-6.6c-3.3,0-6.2,0.6-8.6,1.7c-2.4,1.1-4.5,2.8-6.1,4.9c-1.6,2.1-2.8,4.7-3.6,7.8
		c-0.8,3.1-1.2,6.6-1.2,10.5c0,7.8,1.6,13.9,4.8,18.2C846.2,119.3,851.1,121.5,857.7,121.5z"/>
</g>
<g>
	<path class="st2" d="M298.5,152.9c4,0,7.5,0.4,10.5,1.2s5.4,2,7.4,3.5c1.9,1.6,3.4,3.4,4.3,5.7c0.9,2.2,1.4,4.8,1.4,7.6
		c0,1.9-0.3,3.7-1,5.4s-1.6,3.3-2.8,4.8c-1.2,1.5-2.7,2.7-4.5,3.8c-1.8,1.1-3.8,1.9-6.1,2.5c5.6,0.8,9.8,2.6,12.8,5.5
		c3,2.9,4.5,6.7,4.5,11.4c0,3-0.5,5.7-1.6,8.1c-1.1,2.4-2.6,4.4-4.6,6.1c-2,1.7-4.5,2.9-7.5,3.8c-3,0.9-6.3,1.3-10.1,1.3h-22.9
		v-70.8H298.5z M283.3,157v29h15.3c3.3,0,6.1-0.4,8.4-1.2c2.3-0.8,4.2-1.9,5.7-3.3c1.5-1.4,2.6-2.9,3.3-4.6s1-3.5,1-5.4
		c0-4.8-1.5-8.4-4.5-10.8c-3-2.4-7.7-3.7-14-3.7H283.3z M301.1,219.6c6.2,0,10.9-1.3,14.1-4c3.2-2.7,4.8-6.5,4.8-11.3
		c0-2.2-0.4-4.2-1.3-6c-0.8-1.8-2.1-3.3-3.7-4.6s-3.6-2.2-5.9-2.9c-2.3-0.7-5-1-8-1h-17.8v29.8H301.1z"/>
	<path class="st2" d="M343.7,185.9c0.8-2,1.6-3.8,2.6-5.4c1-1.6,2.1-2.9,3.4-4c1.3-1.1,2.7-1.9,4.3-2.5c1.6-0.6,3.3-0.9,5.3-0.9
		c1,0,2,0.1,3,0.3c1,0.2,1.9,0.5,2.6,1l-0.4,3.3c-0.2,0.5-0.5,0.8-0.9,0.8c-0.4,0-1-0.1-1.8-0.3c-0.8-0.2-1.9-0.4-3.2-0.4
		c-1.9,0-3.6,0.3-5.1,0.9c-1.5,0.6-2.8,1.5-4,2.6c-1.2,1.2-2.2,2.6-3.1,4.3c-0.9,1.7-1.7,3.7-2.4,5.9v32.2h-4.8v-49.8h2.5
		c0.6,0,1,0.1,1.2,0.3c0.2,0.2,0.4,0.6,0.4,1.2L343.7,185.9z"/>
	<path class="st2" d="M370.7,181c2.6-2.6,5.3-4.6,8.2-5.9c2.9-1.3,6.1-2,9.8-2c2.7,0,5,0.4,7,1.3c2,0.9,3.7,2.1,5,3.7
		c1.3,1.6,2.3,3.5,3,5.8c0.7,2.2,1,4.8,1,7.5v32.4h-1.9c-1,0-1.6-0.5-1.8-1.4l-0.7-6.4c-1.4,1.3-2.7,2.5-4.1,3.6
		c-1.3,1.1-2.8,2-4.2,2.7c-1.5,0.7-3.1,1.3-4.8,1.7c-1.7,0.4-3.6,0.6-5.6,0.6c-1.7,0-3.4-0.2-5-0.8s-3-1.3-4.3-2.3s-2.2-2.4-3-4
		s-1.1-3.6-1.1-5.8c0-2.1,0.6-4,1.8-5.9c1.2-1.8,3.1-3.4,5.7-4.7c2.6-1.3,5.9-2.4,9.9-3.2c4-0.8,8.8-1.3,14.5-1.4v-5.2
		c0-4.6-1-8.1-3-10.6c-2-2.5-4.9-3.7-8.8-3.7c-2.4,0-4.4,0.3-6.1,1c-1.7,0.7-3.1,1.4-4.3,2.2c-1.2,0.8-2.1,1.5-2.9,2.2
		c-0.7,0.7-1.4,1-1.9,1c-0.4,0-0.7-0.1-0.9-0.2c-0.2-0.2-0.4-0.4-0.6-0.7L370.7,181z M399.9,199.6c-4.7,0.2-8.8,0.5-12.2,1.1
		c-3.4,0.6-6.2,1.4-8.5,2.4c-2.2,1-3.9,2.2-4.9,3.6c-1.1,1.4-1.6,3-1.6,4.7c0,1.7,0.3,3.1,0.8,4.3c0.6,1.2,1.3,2.2,2.2,3
		c0.9,0.8,2,1.4,3.2,1.7c1.2,0.4,2.5,0.5,3.8,0.5c1.9,0,3.7-0.2,5.3-0.6c1.6-0.4,3.1-1,4.5-1.8c1.4-0.8,2.7-1.6,3.9-2.7
		c1.2-1,2.4-2.1,3.5-3.3V199.6z"/>
	<path class="st2" d="M460.5,176.1v1.6c0,0.7-0.5,1.2-1.4,1.4l-7.6,0.5c0.9,1.3,1.6,2.7,2.1,4.2c0.5,1.6,0.8,3.3,0.8,5.1
		c0,2.4-0.4,4.6-1.3,6.5s-2,3.6-3.6,5c-1.5,1.4-3.4,2.5-5.6,3.2c-2.2,0.8-4.6,1.2-7.2,1.2c-2.8,0-5.4-0.4-7.8-1.3
		c-1.4,0.8-2.5,1.7-3.3,2.8c-0.8,1.1-1.2,2.2-1.2,3.2c0,1.4,0.5,2.5,1.5,3.3c1,0.8,2.4,1.3,4,1.7c1.7,0.4,3.5,0.6,5.7,0.7
		c2.1,0.1,4.3,0.2,6.5,0.3c2.2,0.1,4.4,0.3,6.5,0.6c2.1,0.3,4,0.8,5.6,1.6c1.7,0.8,3,1.8,4,3.2c1,1.3,1.5,3.1,1.5,5.4
		c0,2.1-0.5,4-1.6,6c-1,1.9-2.5,3.6-4.5,5c-1.9,1.5-4.3,2.6-7.1,3.5c-2.8,0.9-5.9,1.3-9.3,1.3c-3.5,0-6.6-0.4-9.2-1.1
		c-2.6-0.7-4.8-1.7-6.6-2.9c-1.8-1.2-3.1-2.6-4-4.2c-0.9-1.6-1.4-3.3-1.4-5.1c0-2.6,0.9-4.9,2.6-6.8c1.7-1.9,4.1-3.4,7.1-4.4
		c-1.7-0.6-3-1.4-4-2.5c-1-1.1-1.5-2.6-1.5-4.4c0-0.7,0.1-1.4,0.4-2.2c0.3-0.8,0.7-1.5,1.2-2.3c0.5-0.8,1.2-1.5,1.9-2.1
		c0.8-0.7,1.6-1.3,2.6-1.8c-2.4-1.4-4.2-3.2-5.5-5.5c-1.3-2.3-2-4.9-2-8c0-2.4,0.4-4.6,1.3-6.5c0.9-2,2.1-3.6,3.6-5
		c1.6-1.4,3.4-2.5,5.6-3.2c2.2-0.8,4.6-1.1,7.3-1.1c2.2,0,4.2,0.3,6.1,0.8s3.5,1.3,5,2.2H460.5z M455.3,227c0-1.6-0.4-2.8-1.2-3.8
		c-0.8-1-1.9-1.7-3.3-2.2c-1.4-0.5-2.9-0.9-4.7-1.1c-1.8-0.2-3.7-0.4-5.6-0.5c-2-0.1-3.9-0.2-5.9-0.3c-2-0.1-3.8-0.3-5.6-0.6
		c-1.3,0.5-2.4,1.1-3.5,1.7c-1.1,0.6-2,1.4-2.8,2.2c-0.8,0.8-1.4,1.7-1.8,2.7c-0.4,1-0.6,2-0.6,3.2c0,1.5,0.4,2.8,1.1,4.1
		s1.9,2.3,3.3,3.2c1.5,0.9,3.2,1.6,5.3,2.2c2.1,0.5,4.5,0.8,7.2,0.8c2.5,0,4.9-0.3,7.1-0.8c2.2-0.6,4.1-1.4,5.7-2.4
		c1.6-1,2.9-2.3,3.8-3.7C454.9,230.3,455.3,228.7,455.3,227z M436.7,201.7c2.1,0,4-0.3,5.7-0.9c1.7-0.6,3.1-1.5,4.2-2.6
		c1.1-1.1,2-2.4,2.6-4c0.6-1.5,0.9-3.2,0.9-5.1c0-1.9-0.3-3.6-0.9-5.1c-0.6-1.5-1.5-2.9-2.6-4c-1.1-1.1-2.5-1.9-4.2-2.5
		c-1.7-0.6-3.5-0.9-5.6-0.9c-2.1,0-4,0.3-5.6,0.9c-1.7,0.6-3.1,1.5-4.2,2.5c-1.1,1.1-2,2.4-2.6,4s-0.9,3.3-0.9,5.1
		c0,1.9,0.3,3.6,0.9,5.1c0.6,1.5,1.5,2.9,2.6,4s2.5,2,4.2,2.6C432.7,201.3,434.6,201.7,436.7,201.7z"/>
	<path class="st2" d="M470.1,181c2.6-2.6,5.3-4.6,8.2-5.9c2.9-1.3,6.1-2,9.8-2c2.7,0,5,0.4,7,1.3c2,0.9,3.7,2.1,5,3.7s2.3,3.5,3,5.8
		c0.7,2.2,1,4.8,1,7.5v32.4h-1.9c-1,0-1.6-0.5-1.8-1.4l-0.7-6.4c-1.4,1.3-2.7,2.5-4.1,3.6c-1.3,1.1-2.8,2-4.2,2.7
		c-1.5,0.7-3,1.3-4.8,1.7c-1.7,0.4-3.6,0.6-5.6,0.6c-1.7,0-3.3-0.2-4.9-0.8c-1.6-0.5-3-1.3-4.3-2.3s-2.2-2.4-3-4s-1.1-3.6-1.1-5.8
		c0-2.1,0.6-4,1.8-5.9c1.2-1.8,3.1-3.4,5.7-4.7c2.6-1.3,5.9-2.4,9.9-3.2c4-0.8,8.8-1.3,14.5-1.4v-5.2c0-4.6-1-8.1-3-10.6
		c-2-2.5-4.9-3.7-8.8-3.7c-2.4,0-4.4,0.3-6.1,1c-1.7,0.7-3.1,1.4-4.3,2.2s-2.1,1.5-2.8,2.2c-0.7,0.7-1.3,1-1.8,1
		c-0.4,0-0.7-0.1-0.9-0.2c-0.2-0.2-0.4-0.4-0.6-0.7L470.1,181z M499.4,199.6c-4.7,0.2-8.8,0.5-12.2,1.1c-3.4,0.6-6.2,1.4-8.5,2.4
		s-3.9,2.2-4.9,3.6c-1.1,1.4-1.6,3-1.6,4.7c0,1.7,0.3,3.1,0.8,4.3s1.3,2.2,2.2,3c0.9,0.8,2,1.4,3.2,1.7c1.2,0.4,2.5,0.5,3.8,0.5
		c1.9,0,3.7-0.2,5.3-0.6c1.6-0.4,3.1-1,4.5-1.8c1.4-0.8,2.7-1.6,3.9-2.7c1.2-1,2.4-2.1,3.5-3.3V199.6z"/>
</g>
</svg>
